<?xml version="1.0" encoding="utf-8" standalone="no"?>
<!DOCTYPE svg PUBLIC "-//W3C//DTD SVG 1.1//EN"
  "http://www.w3.org/Graphics/SVG/1.1/DTD/svg11.dtd">
<svg xmlns:xlink="http://www.w3.org/1999/xlink" width="460.8pt" height="345.6pt" viewBox="0 0 460.8 345.6" xmlns="http://www.w3.org/2000/svg" version="1.1">
 <metadata>
  <rdf:RDF xmlns:dc="http://purl.org/dc/elements/1.1/" xmlns:cc="http://creativecommons.org/ns#" xmlns:rdf="http://www.w3.org/1999/02/22-rdf-syntax-ns#">
   <cc:Work>
    <dc:type rdf:resource="http://purl.org/dc/dcmitype/StillImage"/>
    <dc:date>2025-10-21T16:24:18.123729</dc:date>
    <dc:format>image/svg+xml</dc:format>
    <dc:creator>
     <cc:Agent>
      <dc:title>Matplotlib v3.10.1, https://matplotlib.org/</dc:title>
     </cc:Agent>
    </dc:creator>
   </cc:Work>
  </rdf:RDF>
 </metadata>
 <defs>
  <style type="text/css">*{stroke-linejoin: round; stroke-linecap: butt}</style>
 </defs>
 <g id="figure_1">
  <g id="patch_1">
   <path d="M 0 345.6 
L 460.8 345.6 
L 460.8 0 
L 0 0 
z
" style="fill: #ffffff"/>
  </g>
  <g id="axes_1">
   <g id="patch_2">
    <path d="M 57.6 162.432 
L 414.72 162.432 
L 414.72 41.472 
L 57.6 41.472 
z
" style="fill: #ffffff"/>
   </g>
   <g id="matplotlib.axis_1">
    <g id="xtick_1">
     <g id="line2d_1">
      <defs>
       <path id="mc33a82bcde" d="M 0 0 
L 0 3.5 
" style="stroke: #000000; stroke-width: 0.8"/>
      </defs>
      <g>
       <use xlink:href="#mc33a82bcde" x="73.832727" y="162.432" style="stroke: #000000; stroke-width: 0.8"/>
      </g>
     </g>
     <g id="text_1">
      <!-- 0.0 -->
      <g transform="translate(65.881165 177.030437) scale(0.1 -0.1)">
       <defs>
        <path id="DejaVuSans-30" d="M 2034 4250 
Q 1547 4250 1301 3770 
Q 1056 3291 1056 2328 
Q 1056 1369 1301 889 
Q 1547 409 2034 409 
Q 2525 409 2770 889 
Q 3016 1369 3016 2328 
Q 3016 3291 2770 3770 
Q 2525 4250 2034 4250 
z
M 2034 4750 
Q 2819 4750 3233 4129 
Q 3647 3509 3647 2328 
Q 3647 1150 3233 529 
Q 2819 -91 2034 -91 
Q 1250 -91 836 529 
Q 422 1150 422 2328 
Q 422 3509 836 4129 
Q 1250 4750 2034 4750 
z
" transform="scale(0.015625)"/>
        <path id="DejaVuSans-2e" d="M 684 794 
L 1344 794 
L 1344 0 
L 684 0 
L 684 794 
z
" transform="scale(0.015625)"/>
       </defs>
       <use xlink:href="#DejaVuSans-30"/>
       <use xlink:href="#DejaVuSans-2e" transform="translate(63.623047 0)"/>
       <use xlink:href="#DejaVuSans-30" transform="translate(95.410156 0)"/>
      </g>
     </g>
    </g>
    <g id="xtick_2">
     <g id="line2d_2">
      <g>
       <use xlink:href="#mc33a82bcde" x="138.763636" y="162.432" style="stroke: #000000; stroke-width: 0.8"/>
      </g>
     </g>
     <g id="text_2">
      <!-- 0.2 -->
      <g transform="translate(130.812074 177.030437) scale(0.1 -0.1)">
       <defs>
        <path id="DejaVuSans-32" d="M 1228 531 
L 3431 531 
L 3431 0 
L 469 0 
L 469 531 
Q 828 903 1448 1529 
Q 2069 2156 2228 2338 
Q 2531 2678 2651 2914 
Q 2772 3150 2772 3378 
Q 2772 3750 2511 3984 
Q 2250 4219 1831 4219 
Q 1534 4219 1204 4116 
Q 875 4013 500 3803 
L 500 4441 
Q 881 4594 1212 4672 
Q 1544 4750 1819 4750 
Q 2544 4750 2975 4387 
Q 3406 4025 3406 3419 
Q 3406 3131 3298 2873 
Q 3191 2616 2906 2266 
Q 2828 2175 2409 1742 
Q 1991 1309 1228 531 
z
" transform="scale(0.015625)"/>
       </defs>
       <use xlink:href="#DejaVuSans-30"/>
       <use xlink:href="#DejaVuSans-2e" transform="translate(63.623047 0)"/>
       <use xlink:href="#DejaVuSans-32" transform="translate(95.410156 0)"/>
      </g>
     </g>
    </g>
    <g id="xtick_3">
     <g id="line2d_3">
      <g>
       <use xlink:href="#mc33a82bcde" x="203.694545" y="162.432" style="stroke: #000000; stroke-width: 0.8"/>
      </g>
     </g>
     <g id="text_3">
      <!-- 0.4 -->
      <g transform="translate(195.742983 177.030437) scale(0.1 -0.1)">
       <defs>
        <path id="DejaVuSans-34" d="M 2419 4116 
L 825 1625 
L 2419 1625 
L 2419 4116 
z
M 2253 4666 
L 3047 4666 
L 3047 1625 
L 3713 1625 
L 3713 1100 
L 3047 1100 
L 3047 0 
L 2419 0 
L 2419 1100 
L 313 1100 
L 313 1709 
L 2253 4666 
z
" transform="scale(0.015625)"/>
       </defs>
       <use xlink:href="#DejaVuSans-30"/>
       <use xlink:href="#DejaVuSans-2e" transform="translate(63.623047 0)"/>
       <use xlink:href="#DejaVuSans-34" transform="translate(95.410156 0)"/>
      </g>
     </g>
    </g>
    <g id="xtick_4">
     <g id="line2d_4">
      <g>
       <use xlink:href="#mc33a82bcde" x="268.625455" y="162.432" style="stroke: #000000; stroke-width: 0.8"/>
      </g>
     </g>
     <g id="text_4">
      <!-- 0.6 -->
      <g transform="translate(260.673892 177.030437) scale(0.1 -0.1)">
       <defs>
        <path id="DejaVuSans-36" d="M 2113 2584 
Q 1688 2584 1439 2293 
Q 1191 2003 1191 1497 
Q 1191 994 1439 701 
Q 1688 409 2113 409 
Q 2538 409 2786 701 
Q 3034 994 3034 1497 
Q 3034 2003 2786 2293 
Q 2538 2584 2113 2584 
z
M 3366 4563 
L 3366 3988 
Q 3128 4100 2886 4159 
Q 2644 4219 2406 4219 
Q 1781 4219 1451 3797 
Q 1122 3375 1075 2522 
Q 1259 2794 1537 2939 
Q 1816 3084 2150 3084 
Q 2853 3084 3261 2657 
Q 3669 2231 3669 1497 
Q 3669 778 3244 343 
Q 2819 -91 2113 -91 
Q 1303 -91 875 529 
Q 447 1150 447 2328 
Q 447 3434 972 4092 
Q 1497 4750 2381 4750 
Q 2619 4750 2861 4703 
Q 3103 4656 3366 4563 
z
" transform="scale(0.015625)"/>
       </defs>
       <use xlink:href="#DejaVuSans-30"/>
       <use xlink:href="#DejaVuSans-2e" transform="translate(63.623047 0)"/>
       <use xlink:href="#DejaVuSans-36" transform="translate(95.410156 0)"/>
      </g>
     </g>
    </g>
    <g id="xtick_5">
     <g id="line2d_5">
      <g>
       <use xlink:href="#mc33a82bcde" x="333.556364" y="162.432" style="stroke: #000000; stroke-width: 0.8"/>
      </g>
     </g>
     <g id="text_5">
      <!-- 0.8 -->
      <g transform="translate(325.604801 177.030437) scale(0.1 -0.1)">
       <defs>
        <path id="DejaVuSans-38" d="M 2034 2216 
Q 1584 2216 1326 1975 
Q 1069 1734 1069 1313 
Q 1069 891 1326 650 
Q 1584 409 2034 409 
Q 2484 409 2743 651 
Q 3003 894 3003 1313 
Q 3003 1734 2745 1975 
Q 2488 2216 2034 2216 
z
M 1403 2484 
Q 997 2584 770 2862 
Q 544 3141 544 3541 
Q 544 4100 942 4425 
Q 1341 4750 2034 4750 
Q 2731 4750 3128 4425 
Q 3525 4100 3525 3541 
Q 3525 3141 3298 2862 
Q 3072 2584 2669 2484 
Q 3125 2378 3379 2068 
Q 3634 1759 3634 1313 
Q 3634 634 3220 271 
Q 2806 -91 2034 -91 
Q 1263 -91 848 271 
Q 434 634 434 1313 
Q 434 1759 690 2068 
Q 947 2378 1403 2484 
z
M 1172 3481 
Q 1172 3119 1398 2916 
Q 1625 2713 2034 2713 
Q 2441 2713 2670 2916 
Q 2900 3119 2900 3481 
Q 2900 3844 2670 4047 
Q 2441 4250 2034 4250 
Q 1625 4250 1398 4047 
Q 1172 3844 1172 3481 
z
" transform="scale(0.015625)"/>
       </defs>
       <use xlink:href="#DejaVuSans-30"/>
       <use xlink:href="#DejaVuSans-2e" transform="translate(63.623047 0)"/>
       <use xlink:href="#DejaVuSans-38" transform="translate(95.410156 0)"/>
      </g>
     </g>
    </g>
    <g id="xtick_6">
     <g id="line2d_6">
      <g>
       <use xlink:href="#mc33a82bcde" x="398.487273" y="162.432" style="stroke: #000000; stroke-width: 0.8"/>
      </g>
     </g>
     <g id="text_6">
      <!-- 1.0 -->
      <g transform="translate(390.53571 177.030437) scale(0.1 -0.1)">
       <defs>
        <path id="DejaVuSans-31" d="M 794 531 
L 1825 531 
L 1825 4091 
L 703 3866 
L 703 4441 
L 1819 4666 
L 2450 4666 
L 2450 531 
L 3481 531 
L 3481 0 
L 794 0 
L 794 531 
z
" transform="scale(0.015625)"/>
       </defs>
       <use xlink:href="#DejaVuSans-31"/>
       <use xlink:href="#DejaVuSans-2e" transform="translate(63.623047 0)"/>
       <use xlink:href="#DejaVuSans-30" transform="translate(95.410156 0)"/>
      </g>
     </g>
    </g>
   </g>
   <g id="matplotlib.axis_2">
    <g id="ytick_1">
     <g id="line2d_7">
      <defs>
       <path id="mba83a75a8a" d="M 0 0 
L -3.5 0 
" style="stroke: #000000; stroke-width: 0.8"/>
      </defs>
      <g>
       <use xlink:href="#mba83a75a8a" x="57.6" y="156.933935" style="stroke: #000000; stroke-width: 0.8"/>
      </g>
     </g>
     <g id="text_7">
      <!-- −2 -->
      <g transform="translate(35.857813 160.733154) scale(0.1 -0.1)">
       <defs>
        <path id="DejaVuSans-2212" d="M 678 2272 
L 4684 2272 
L 4684 1741 
L 678 1741 
L 678 2272 
z
" transform="scale(0.015625)"/>
       </defs>
       <use xlink:href="#DejaVuSans-2212"/>
       <use xlink:href="#DejaVuSans-32" transform="translate(83.789062 0)"/>
      </g>
     </g>
    </g>
    <g id="ytick_2">
     <g id="line2d_8">
      <g>
       <use xlink:href="#mba83a75a8a" x="57.6" y="129.442996" style="stroke: #000000; stroke-width: 0.8"/>
      </g>
     </g>
     <g id="text_8">
      <!-- −1 -->
      <g transform="translate(35.857813 133.242215) scale(0.1 -0.1)">
       <use xlink:href="#DejaVuSans-2212"/>
       <use xlink:href="#DejaVuSans-31" transform="translate(83.789062 0)"/>
      </g>
     </g>
    </g>
    <g id="ytick_3">
     <g id="line2d_9">
      <g>
       <use xlink:href="#mba83a75a8a" x="57.6" y="101.952057" style="stroke: #000000; stroke-width: 0.8"/>
      </g>
     </g>
     <g id="text_9">
      <!-- 0 -->
      <g transform="translate(44.2375 105.751276) scale(0.1 -0.1)">
       <use xlink:href="#DejaVuSans-30"/>
      </g>
     </g>
    </g>
    <g id="ytick_4">
     <g id="line2d_10">
      <g>
       <use xlink:href="#mba83a75a8a" x="57.6" y="74.461118" style="stroke: #000000; stroke-width: 0.8"/>
      </g>
     </g>
     <g id="text_10">
      <!-- 1 -->
      <g transform="translate(44.2375 78.260337) scale(0.1 -0.1)">
       <use xlink:href="#DejaVuSans-31"/>
      </g>
     </g>
    </g>
    <g id="ytick_5">
     <g id="line2d_11">
      <g>
       <use xlink:href="#mba83a75a8a" x="57.6" y="46.970179" style="stroke: #000000; stroke-width: 0.8"/>
      </g>
     </g>
     <g id="text_11">
      <!-- 2 -->
      <g transform="translate(44.2375 50.769398) scale(0.1 -0.1)">
       <use xlink:href="#DejaVuSans-32"/>
      </g>
     </g>
    </g>
   </g>
   <g id="line2d_12">
    <path d="M 73.832727 80.911404 
L 76.755349 72.635307 
L 79.190867 66.372445 
L 81.382833 61.339864 
L 83.331247 57.415629 
L 85.117294 54.317468 
L 86.740973 51.944289 
L 88.202283 50.187608 
L 89.58241 48.870285 
L 90.881353 47.941512 
L 92.099112 47.349577 
L 93.235687 47.043231 
L 94.372262 46.975908 
L 95.508837 47.147901 
L 96.645412 47.558462 
L 97.781987 48.205803 
L 98.999746 49.158914 
L 100.298689 50.466193 
L 101.678816 52.17569 
L 103.221311 54.463742 
L 104.844989 57.283032 
L 106.631036 60.84135 
L 108.57945 65.22544 
L 110.771416 70.715715 
L 113.288118 77.636616 
L 116.373108 86.811184 
L 120.919408 101.126013 
L 127.089387 120.453923 
L 130.174376 129.382188 
L 132.691078 136.027881 
L 134.883044 141.228911 
L 136.831459 145.321103 
L 138.617505 148.58639 
L 140.241184 151.120878 
L 141.783679 153.124504 
L 143.163805 154.569959 
L 144.462748 155.622061 
L 145.680507 156.331389 
L 146.817082 156.74832 
L 147.953658 156.926718 
L 149.090233 156.865806 
L 150.226808 156.565849 
L 151.363383 156.028154 
L 152.581142 155.190914 
L 153.880085 154.004763 
L 155.260211 152.420417 
L 156.721522 150.390109 
L 158.345201 147.726227 
L 160.050063 144.492131 
L 161.917294 140.473444 
L 164.028076 135.388626 
L 166.463594 128.903534 
L 169.305032 120.667306 
L 173.039493 109.10722 
L 182.132093 80.672205 
L 185.054715 72.416388 
L 187.490233 66.175259 
L 189.601015 61.339864 
L 191.549429 57.415629 
L 193.335476 54.317468 
L 194.959154 51.944289 
L 196.420465 50.187608 
L 197.800592 48.870285 
L 199.099535 47.941512 
L 200.317294 47.349577 
L 201.453869 47.043231 
L 202.590444 46.975908 
L 203.727019 47.147901 
L 204.863594 47.558462 
L 206.000169 48.205803 
L 207.217928 49.158914 
L 208.516871 50.466193 
L 209.896998 52.17569 
L 211.439493 54.463742 
L 213.063171 57.283032 
L 214.849218 60.84135 
L 216.797632 65.22544 
L 218.989598 70.715715 
L 221.5063 77.636616 
L 224.59129 86.811184 
L 229.13759 101.126013 
L 235.307569 120.453923 
L 238.392558 129.382188 
L 240.90926 136.027881 
L 243.101226 141.228911 
L 245.049641 145.321103 
L 246.835687 148.58639 
L 248.459366 151.120878 
L 250.00186 153.124504 
L 251.381987 154.569959 
L 252.68093 155.622061 
L 253.898689 156.331389 
L 255.035264 156.74832 
L 256.171839 156.926718 
L 257.308414 156.865806 
L 258.444989 156.565849 
L 259.581564 156.028154 
L 260.799323 155.190914 
L 262.098266 154.004763 
L 263.478393 152.420417 
L 264.939704 150.390109 
L 266.563383 147.726227 
L 268.268245 144.492131 
L 270.135476 140.473444 
L 272.246258 135.388626 
L 274.681776 128.903534 
L 277.523214 120.667306 
L 281.257674 109.10722 
L 290.350275 80.672205 
L 293.272896 72.416388 
L 295.708414 66.175259 
L 297.819197 61.339864 
L 299.767611 57.415629 
L 301.553658 54.317468 
L 303.177336 51.944289 
L 304.638647 50.187608 
L 306.018774 48.870285 
L 307.317717 47.941512 
L 308.535476 47.349577 
L 309.672051 47.043231 
L 310.808626 46.975908 
L 311.945201 47.147901 
L 313.081776 47.558462 
L 314.218351 48.205803 
L 315.43611 49.158914 
L 316.735053 50.466193 
L 318.11518 52.17569 
L 319.657674 54.463742 
L 321.281353 57.283032 
L 323.0674 60.84135 
L 325.015814 65.22544 
L 327.20778 70.715715 
L 329.724482 77.636616 
L 332.809471 86.811184 
L 337.355772 101.126013 
L 343.525751 120.453923 
L 346.61074 129.382188 
L 349.127442 136.027881 
L 351.319408 141.228911 
L 353.267822 145.321103 
L 355.053869 148.58639 
L 356.677548 151.120878 
L 358.220042 153.124504 
L 359.600169 154.569959 
L 360.899112 155.622061 
L 362.116871 156.331389 
L 363.253446 156.74832 
L 364.390021 156.926718 
L 365.526596 156.865806 
L 366.663171 156.565849 
L 367.799746 156.028154 
L 369.017505 155.190914 
L 370.316448 154.004763 
L 371.696575 152.420417 
L 373.157886 150.390109 
L 374.781564 147.726227 
L 376.486427 144.492131 
L 378.353658 140.473444 
L 380.46444 135.388626 
L 382.899958 128.903534 
L 385.741395 120.667306 
L 389.475856 109.10722 
L 398.487273 80.911404 
L 398.487273 80.911404 
" clip-path="url(#p55ac66daff)" style="fill: none; stroke: #1f77b4; stroke-width: 1.5; stroke-linecap: square"/>
   </g>
   <g id="patch_3">
    <path d="M 57.6 162.432 
L 57.6 41.472 
" style="fill: none; stroke: #000000; stroke-width: 0.8; stroke-linejoin: miter; stroke-linecap: square"/>
   </g>
   <g id="patch_4">
    <path d="M 414.72 162.432 
L 414.72 41.472 
" style="fill: none; stroke: #000000; stroke-width: 0.8; stroke-linejoin: miter; stroke-linecap: square"/>
   </g>
   <g id="patch_5">
    <path d="M 57.6 162.432 
L 414.72 162.432 
" style="fill: none; stroke: #000000; stroke-width: 0.8; stroke-linejoin: miter; stroke-linecap: square"/>
   </g>
   <g id="patch_6">
    <path d="M 57.6 41.472 
L 414.72 41.472 
" style="fill: none; stroke: #000000; stroke-width: 0.8; stroke-linejoin: miter; stroke-linecap: square"/>
   </g>
  </g>
  <g id="axes_2">
   <g id="patch_7">
    <path d="M 57.6 307.584 
L 414.72 307.584 
L 414.72 186.624 
L 57.6 186.624 
z
" style="fill: #ffffff"/>
   </g>
   <g id="matplotlib.axis_3">
    <g id="xtick_7">
     <g id="line2d_13">
      <g>
       <use xlink:href="#mc33a82bcde" x="73.832727" y="307.584" style="stroke: #000000; stroke-width: 0.8"/>
      </g>
     </g>
     <g id="text_12">
      <!-- 0.0 -->
      <g transform="translate(65.881165 322.182437) scale(0.1 -0.1)">
       <use xlink:href="#DejaVuSans-30"/>
       <use xlink:href="#DejaVuSans-2e" transform="translate(63.623047 0)"/>
       <use xlink:href="#DejaVuSans-30" transform="translate(95.410156 0)"/>
      </g>
     </g>
    </g>
    <g id="xtick_8">
     <g id="line2d_14">
      <g>
       <use xlink:href="#mc33a82bcde" x="138.763636" y="307.584" style="stroke: #000000; stroke-width: 0.8"/>
      </g>
     </g>
     <g id="text_13">
      <!-- 0.2 -->
      <g transform="translate(130.812074 322.182437) scale(0.1 -0.1)">
       <use xlink:href="#DejaVuSans-30"/>
       <use xlink:href="#DejaVuSans-2e" transform="translate(63.623047 0)"/>
       <use xlink:href="#DejaVuSans-32" transform="translate(95.410156 0)"/>
      </g>
     </g>
    </g>
    <g id="xtick_9">
     <g id="line2d_15">
      <g>
       <use xlink:href="#mc33a82bcde" x="203.694545" y="307.584" style="stroke: #000000; stroke-width: 0.8"/>
      </g>
     </g>
     <g id="text_14">
      <!-- 0.4 -->
      <g transform="translate(195.742983 322.182437) scale(0.1 -0.1)">
       <use xlink:href="#DejaVuSans-30"/>
       <use xlink:href="#DejaVuSans-2e" transform="translate(63.623047 0)"/>
       <use xlink:href="#DejaVuSans-34" transform="translate(95.410156 0)"/>
      </g>
     </g>
    </g>
    <g id="xtick_10">
     <g id="line2d_16">
      <g>
       <use xlink:href="#mc33a82bcde" x="268.625455" y="307.584" style="stroke: #000000; stroke-width: 0.8"/>
      </g>
     </g>
     <g id="text_15">
      <!-- 0.6 -->
      <g transform="translate(260.673892 322.182437) scale(0.1 -0.1)">
       <use xlink:href="#DejaVuSans-30"/>
       <use xlink:href="#DejaVuSans-2e" transform="translate(63.623047 0)"/>
       <use xlink:href="#DejaVuSans-36" transform="translate(95.410156 0)"/>
      </g>
     </g>
    </g>
    <g id="xtick_11">
     <g id="line2d_17">
      <g>
       <use xlink:href="#mc33a82bcde" x="333.556364" y="307.584" style="stroke: #000000; stroke-width: 0.8"/>
      </g>
     </g>
     <g id="text_16">
      <!-- 0.8 -->
      <g transform="translate(325.604801 322.182437) scale(0.1 -0.1)">
       <use xlink:href="#DejaVuSans-30"/>
       <use xlink:href="#DejaVuSans-2e" transform="translate(63.623047 0)"/>
       <use xlink:href="#DejaVuSans-38" transform="translate(95.410156 0)"/>
      </g>
     </g>
    </g>
    <g id="xtick_12">
     <g id="line2d_18">
      <g>
       <use xlink:href="#mc33a82bcde" x="398.487273" y="307.584" style="stroke: #000000; stroke-width: 0.8"/>
      </g>
     </g>
     <g id="text_17">
      <!-- 1.0 -->
      <g transform="translate(390.53571 322.182437) scale(0.1 -0.1)">
       <use xlink:href="#DejaVuSans-31"/>
       <use xlink:href="#DejaVuSans-2e" transform="translate(63.623047 0)"/>
       <use xlink:href="#DejaVuSans-30" transform="translate(95.410156 0)"/>
      </g>
     </g>
    </g>
   </g>
   <g id="matplotlib.axis_4">
    <g id="ytick_6">
     <g id="line2d_19">
      <g>
       <use xlink:href="#mba83a75a8a" x="57.6" y="302.085935" style="stroke: #000000; stroke-width: 0.8"/>
      </g>
     </g>
     <g id="text_18">
      <!-- −2 -->
      <g transform="translate(35.857813 305.885154) scale(0.1 -0.1)">
       <use xlink:href="#DejaVuSans-2212"/>
       <use xlink:href="#DejaVuSans-32" transform="translate(83.789062 0)"/>
      </g>
     </g>
    </g>
    <g id="ytick_7">
     <g id="line2d_20">
      <g>
       <use xlink:href="#mba83a75a8a" x="57.6" y="274.594996" style="stroke: #000000; stroke-width: 0.8"/>
      </g>
     </g>
     <g id="text_19">
      <!-- −1 -->
      <g transform="translate(35.857813 278.394215) scale(0.1 -0.1)">
       <use xlink:href="#DejaVuSans-2212"/>
       <use xlink:href="#DejaVuSans-31" transform="translate(83.789062 0)"/>
      </g>
     </g>
    </g>
    <g id="ytick_8">
     <g id="line2d_21">
      <g>
       <use xlink:href="#mba83a75a8a" x="57.6" y="247.104057" style="stroke: #000000; stroke-width: 0.8"/>
      </g>
     </g>
     <g id="text_20">
      <!-- 0 -->
      <g transform="translate(44.2375 250.903276) scale(0.1 -0.1)">
       <use xlink:href="#DejaVuSans-30"/>
      </g>
     </g>
    </g>
    <g id="ytick_9">
     <g id="line2d_22">
      <g>
       <use xlink:href="#mba83a75a8a" x="57.6" y="219.613118" style="stroke: #000000; stroke-width: 0.8"/>
      </g>
     </g>
     <g id="text_21">
      <!-- 1 -->
      <g transform="translate(44.2375 223.412337) scale(0.1 -0.1)">
       <use xlink:href="#DejaVuSans-31"/>
      </g>
     </g>
    </g>
    <g id="ytick_10">
     <g id="line2d_23">
      <g>
       <use xlink:href="#mba83a75a8a" x="57.6" y="192.122179" style="stroke: #000000; stroke-width: 0.8"/>
      </g>
     </g>
     <g id="text_22">
      <!-- 2 -->
      <g transform="translate(44.2375 195.921398) scale(0.1 -0.1)">
       <use xlink:href="#DejaVuSans-32"/>
      </g>
     </g>
    </g>
   </g>
   <g id="line2d_24">
    <path d="M 73.832727 226.063404 
L 76.755349 217.787307 
L 79.190867 211.524445 
L 81.382833 206.491864 
L 83.331247 202.567629 
L 85.117294 199.469468 
L 86.740973 197.096289 
L 88.202283 195.339608 
L 89.58241 194.022285 
L 90.881353 193.093512 
L 92.099112 192.501577 
L 93.235687 192.195231 
L 94.372262 192.127908 
L 95.508837 192.299901 
L 96.645412 192.710462 
L 97.781987 193.357803 
L 98.999746 194.310914 
L 100.298689 195.618193 
L 101.678816 197.32769 
L 103.221311 199.615742 
L 104.844989 202.435032 
L 106.631036 205.99335 
L 108.57945 210.37744 
L 110.771416 215.867715 
L 113.288118 222.788616 
L 116.373108 231.963184 
L 120.919408 246.278013 
L 127.089387 265.605923 
L 130.174376 274.534188 
L 132.691078 281.179881 
L 134.883044 286.380911 
L 136.831459 290.473103 
L 138.617505 293.73839 
L 140.241184 296.272878 
L 141.783679 298.276504 
L 143.163805 299.721959 
L 144.462748 300.774061 
L 145.680507 301.483389 
L 146.817082 301.90032 
L 147.953658 302.078718 
L 149.090233 302.017806 
L 150.226808 301.717849 
L 151.363383 301.180154 
L 152.581142 300.342914 
L 153.880085 299.156763 
L 155.260211 297.572417 
L 156.721522 295.542109 
L 158.345201 292.878227 
L 160.050063 289.644131 
L 161.917294 285.625444 
L 164.028076 280.540626 
L 166.463594 274.055534 
L 169.305032 265.819306 
L 173.039493 254.25922 
L 182.132093 225.824205 
L 185.054715 217.568388 
L 187.490233 211.327259 
L 189.601015 206.491864 
L 191.549429 202.567629 
L 193.335476 199.469468 
L 194.959154 197.096289 
L 196.420465 195.339608 
L 197.800592 194.022285 
L 199.099535 193.093512 
L 200.317294 192.501577 
L 201.453869 192.195231 
L 202.590444 192.127908 
L 203.727019 192.299901 
L 204.863594 192.710462 
L 206.000169 193.357803 
L 207.217928 194.310914 
L 208.516871 195.618193 
L 209.896998 197.32769 
L 211.439493 199.615742 
L 213.063171 202.435032 
L 214.849218 205.99335 
L 216.797632 210.37744 
L 218.989598 215.867715 
L 221.5063 222.788616 
L 224.59129 231.963184 
L 229.13759 246.278013 
L 235.307569 265.605923 
L 238.392558 274.534188 
L 240.90926 281.179881 
L 243.101226 286.380911 
L 245.049641 290.473103 
L 246.835687 293.73839 
L 248.459366 296.272878 
L 250.00186 298.276504 
L 251.381987 299.721959 
L 252.68093 300.774061 
L 253.898689 301.483389 
L 255.035264 301.90032 
L 256.171839 302.078718 
L 257.308414 302.017806 
L 258.444989 301.717849 
L 259.581564 301.180154 
L 260.799323 300.342914 
L 262.098266 299.156763 
L 263.478393 297.572417 
L 264.939704 295.542109 
L 266.563383 292.878227 
L 268.268245 289.644131 
L 270.135476 285.625444 
L 272.246258 280.540626 
L 274.681776 274.055534 
L 277.523214 265.819306 
L 281.257674 254.25922 
L 290.350275 225.824205 
L 293.272896 217.568388 
L 295.708414 211.327259 
L 297.819197 206.491864 
L 299.767611 202.567629 
L 301.553658 199.469468 
L 303.177336 197.096289 
L 304.638647 195.339608 
L 306.018774 194.022285 
L 307.317717 193.093512 
L 308.535476 192.501577 
L 309.672051 192.195231 
L 310.808626 192.127908 
L 311.945201 192.299901 
L 313.081776 192.710462 
L 314.218351 193.357803 
L 315.43611 194.310914 
L 316.735053 195.618193 
L 318.11518 197.32769 
L 319.657674 199.615742 
L 321.281353 202.435032 
L 323.0674 205.99335 
L 325.015814 210.37744 
L 327.20778 215.867715 
L 329.724482 222.788616 
L 332.809471 231.963184 
L 337.355772 246.278013 
L 343.525751 265.605923 
L 346.61074 274.534188 
L 349.127442 281.179881 
L 351.319408 286.380911 
L 353.267822 290.473103 
L 355.053869 293.73839 
L 356.677548 296.272878 
L 358.220042 298.276504 
L 359.600169 299.721959 
L 360.899112 300.774061 
L 362.116871 301.483389 
L 363.253446 301.90032 
L 364.390021 302.078718 
L 365.526596 302.017806 
L 366.663171 301.717849 
L 367.799746 301.180154 
L 369.017505 300.342914 
L 370.316448 299.156763 
L 371.696575 297.572417 
L 373.157886 295.542109 
L 374.781564 292.878227 
L 376.486427 289.644131 
L 378.353658 285.625444 
L 380.46444 280.540626 
L 382.899958 274.055534 
L 385.741395 265.819306 
L 389.475856 254.25922 
L 398.487273 226.063404 
L 398.487273 226.063404 
" clip-path="url(#p65c9c27ae6)" style="fill: none; stroke: #1f77b4; stroke-width: 1.5; stroke-linecap: square"/>
   </g>
   <g id="patch_8">
    <path d="M 57.6 307.584 
L 57.6 186.624 
" style="fill: none; stroke: #000000; stroke-width: 0.8; stroke-linejoin: miter; stroke-linecap: square"/>
   </g>
   <g id="patch_9">
    <path d="M 414.72 307.584 
L 414.72 186.624 
" style="fill: none; stroke: #000000; stroke-width: 0.8; stroke-linejoin: miter; stroke-linecap: square"/>
   </g>
   <g id="patch_10">
    <path d="M 57.6 307.584 
L 414.72 307.584 
" style="fill: none; stroke: #000000; stroke-width: 0.8; stroke-linejoin: miter; stroke-linecap: square"/>
   </g>
   <g id="patch_11">
    <path d="M 57.6 186.624 
L 414.72 186.624 
" style="fill: none; stroke: #000000; stroke-width: 0.8; stroke-linejoin: miter; stroke-linecap: square"/>
   </g>
  </g>
 </g>
 <defs>
  <clipPath id="p55ac66daff">
   <rect x="57.6" y="41.472" width="357.12" height="120.96"/>
  </clipPath>
  <clipPath id="p65c9c27ae6">
   <rect x="57.6" y="186.624" width="357.12" height="120.96"/>
  </clipPath>
 </defs>
</svg>
