<?xml version="1.0" encoding="utf-8" standalone="no"?>
<!DOCTYPE svg PUBLIC "-//W3C//DTD SVG 1.1//EN"
  "http://www.w3.org/Graphics/SVG/1.1/DTD/svg11.dtd">
<svg xmlns:xlink="http://www.w3.org/1999/xlink" width="460.8pt" height="345.6pt" viewBox="0 0 460.8 345.6" xmlns="http://www.w3.org/2000/svg" version="1.1">
 <metadata>
  <rdf:RDF xmlns:dc="http://purl.org/dc/elements/1.1/" xmlns:cc="http://creativecommons.org/ns#" xmlns:rdf="http://www.w3.org/1999/02/22-rdf-syntax-ns#">
   <cc:Work>
    <dc:type rdf:resource="http://purl.org/dc/dcmitype/StillImage"/>
    <dc:date>2025-10-21T22:37:51.775435</dc:date>
    <dc:format>image/svg+xml</dc:format>
    <dc:creator>
     <cc:Agent>
      <dc:title>Matplotlib v3.10.1, https://matplotlib.org/</dc:title>
     </cc:Agent>
    </dc:creator>
   </cc:Work>
  </rdf:RDF>
 </metadata>
 <defs>
  <style type="text/css">*{stroke-linejoin: round; stroke-linecap: butt}</style>
 </defs>
 <g id="figure_1">
  <g id="patch_1">
   <path d="M 0 345.6 
L 460.8 345.6 
L 460.8 0 
L 0 0 
z
" style="fill: #ffffff"/>
  </g>
  <g id="axes_1">
   <g id="patch_2">
    <path d="M 57.6 162.432 
L 414.72 162.432 
L 414.72 41.472 
L 57.6 41.472 
z
" style="fill: #ffffff"/>
   </g>
   <g id="matplotlib.axis_1">
    <g id="xtick_1">
     <g id="line2d_1">
      <defs>
       <path id="mde00995fce" d="M 0 0 
L 0 3.5 
" style="stroke: #000000; stroke-width: 0.8"/>
      </defs>
      <g>
       <use xlink:href="#mde00995fce" x="73.832727" y="162.432" style="stroke: #000000; stroke-width: 0.8"/>
      </g>
     </g>
     <g id="text_1">
      <!-- 0.0 -->
      <g transform="translate(65.881165 177.030437) scale(0.1 -0.1)">
       <defs>
        <path id="DejaVuSans-30" d="M 2034 4250 
Q 1547 4250 1301 3770 
Q 1056 3291 1056 2328 
Q 1056 1369 1301 889 
Q 1547 409 2034 409 
Q 2525 409 2770 889 
Q 3016 1369 3016 2328 
Q 3016 3291 2770 3770 
Q 2525 4250 2034 4250 
z
M 2034 4750 
Q 2819 4750 3233 4129 
Q 3647 3509 3647 2328 
Q 3647 1150 3233 529 
Q 2819 -91 2034 -91 
Q 1250 -91 836 529 
Q 422 1150 422 2328 
Q 422 3509 836 4129 
Q 1250 4750 2034 4750 
z
" transform="scale(0.015625)"/>
        <path id="DejaVuSans-2e" d="M 684 794 
L 1344 794 
L 1344 0 
L 684 0 
L 684 794 
z
" transform="scale(0.015625)"/>
       </defs>
       <use xlink:href="#DejaVuSans-30"/>
       <use xlink:href="#DejaVuSans-2e" transform="translate(63.623047 0)"/>
       <use xlink:href="#DejaVuSans-30" transform="translate(95.410156 0)"/>
      </g>
     </g>
    </g>
    <g id="xtick_2">
     <g id="line2d_2">
      <g>
       <use xlink:href="#mde00995fce" x="138.763636" y="162.432" style="stroke: #000000; stroke-width: 0.8"/>
      </g>
     </g>
     <g id="text_2">
      <!-- 0.2 -->
      <g transform="translate(130.812074 177.030437) scale(0.1 -0.1)">
       <defs>
        <path id="DejaVuSans-32" d="M 1228 531 
L 3431 531 
L 3431 0 
L 469 0 
L 469 531 
Q 828 903 1448 1529 
Q 2069 2156 2228 2338 
Q 2531 2678 2651 2914 
Q 2772 3150 2772 3378 
Q 2772 3750 2511 3984 
Q 2250 4219 1831 4219 
Q 1534 4219 1204 4116 
Q 875 4013 500 3803 
L 500 4441 
Q 881 4594 1212 4672 
Q 1544 4750 1819 4750 
Q 2544 4750 2975 4387 
Q 3406 4025 3406 3419 
Q 3406 3131 3298 2873 
Q 3191 2616 2906 2266 
Q 2828 2175 2409 1742 
Q 1991 1309 1228 531 
z
" transform="scale(0.015625)"/>
       </defs>
       <use xlink:href="#DejaVuSans-30"/>
       <use xlink:href="#DejaVuSans-2e" transform="translate(63.623047 0)"/>
       <use xlink:href="#DejaVuSans-32" transform="translate(95.410156 0)"/>
      </g>
     </g>
    </g>
    <g id="xtick_3">
     <g id="line2d_3">
      <g>
       <use xlink:href="#mde00995fce" x="203.694545" y="162.432" style="stroke: #000000; stroke-width: 0.8"/>
      </g>
     </g>
     <g id="text_3">
      <!-- 0.4 -->
      <g transform="translate(195.742983 177.030437) scale(0.1 -0.1)">
       <defs>
        <path id="DejaVuSans-34" d="M 2419 4116 
L 825 1625 
L 2419 1625 
L 2419 4116 
z
M 2253 4666 
L 3047 4666 
L 3047 1625 
L 3713 1625 
L 3713 1100 
L 3047 1100 
L 3047 0 
L 2419 0 
L 2419 1100 
L 313 1100 
L 313 1709 
L 2253 4666 
z
" transform="scale(0.015625)"/>
       </defs>
       <use xlink:href="#DejaVuSans-30"/>
       <use xlink:href="#DejaVuSans-2e" transform="translate(63.623047 0)"/>
       <use xlink:href="#DejaVuSans-34" transform="translate(95.410156 0)"/>
      </g>
     </g>
    </g>
    <g id="xtick_4">
     <g id="line2d_4">
      <g>
       <use xlink:href="#mde00995fce" x="268.625455" y="162.432" style="stroke: #000000; stroke-width: 0.8"/>
      </g>
     </g>
     <g id="text_4">
      <!-- 0.6 -->
      <g transform="translate(260.673892 177.030437) scale(0.1 -0.1)">
       <defs>
        <path id="DejaVuSans-36" d="M 2113 2584 
Q 1688 2584 1439 2293 
Q 1191 2003 1191 1497 
Q 1191 994 1439 701 
Q 1688 409 2113 409 
Q 2538 409 2786 701 
Q 3034 994 3034 1497 
Q 3034 2003 2786 2293 
Q 2538 2584 2113 2584 
z
M 3366 4563 
L 3366 3988 
Q 3128 4100 2886 4159 
Q 2644 4219 2406 4219 
Q 1781 4219 1451 3797 
Q 1122 3375 1075 2522 
Q 1259 2794 1537 2939 
Q 1816 3084 2150 3084 
Q 2853 3084 3261 2657 
Q 3669 2231 3669 1497 
Q 3669 778 3244 343 
Q 2819 -91 2113 -91 
Q 1303 -91 875 529 
Q 447 1150 447 2328 
Q 447 3434 972 4092 
Q 1497 4750 2381 4750 
Q 2619 4750 2861 4703 
Q 3103 4656 3366 4563 
z
" transform="scale(0.015625)"/>
       </defs>
       <use xlink:href="#DejaVuSans-30"/>
       <use xlink:href="#DejaVuSans-2e" transform="translate(63.623047 0)"/>
       <use xlink:href="#DejaVuSans-36" transform="translate(95.410156 0)"/>
      </g>
     </g>
    </g>
    <g id="xtick_5">
     <g id="line2d_5">
      <g>
       <use xlink:href="#mde00995fce" x="333.556364" y="162.432" style="stroke: #000000; stroke-width: 0.8"/>
      </g>
     </g>
     <g id="text_5">
      <!-- 0.8 -->
      <g transform="translate(325.604801 177.030437) scale(0.1 -0.1)">
       <defs>
        <path id="DejaVuSans-38" d="M 2034 2216 
Q 1584 2216 1326 1975 
Q 1069 1734 1069 1313 
Q 1069 891 1326 650 
Q 1584 409 2034 409 
Q 2484 409 2743 651 
Q 3003 894 3003 1313 
Q 3003 1734 2745 1975 
Q 2488 2216 2034 2216 
z
M 1403 2484 
Q 997 2584 770 2862 
Q 544 3141 544 3541 
Q 544 4100 942 4425 
Q 1341 4750 2034 4750 
Q 2731 4750 3128 4425 
Q 3525 4100 3525 3541 
Q 3525 3141 3298 2862 
Q 3072 2584 2669 2484 
Q 3125 2378 3379 2068 
Q 3634 1759 3634 1313 
Q 3634 634 3220 271 
Q 2806 -91 2034 -91 
Q 1263 -91 848 271 
Q 434 634 434 1313 
Q 434 1759 690 2068 
Q 947 2378 1403 2484 
z
M 1172 3481 
Q 1172 3119 1398 2916 
Q 1625 2713 2034 2713 
Q 2441 2713 2670 2916 
Q 2900 3119 2900 3481 
Q 2900 3844 2670 4047 
Q 2441 4250 2034 4250 
Q 1625 4250 1398 4047 
Q 1172 3844 1172 3481 
z
" transform="scale(0.015625)"/>
       </defs>
       <use xlink:href="#DejaVuSans-30"/>
       <use xlink:href="#DejaVuSans-2e" transform="translate(63.623047 0)"/>
       <use xlink:href="#DejaVuSans-38" transform="translate(95.410156 0)"/>
      </g>
     </g>
    </g>
    <g id="xtick_6">
     <g id="line2d_6">
      <g>
       <use xlink:href="#mde00995fce" x="398.487273" y="162.432" style="stroke: #000000; stroke-width: 0.8"/>
      </g>
     </g>
     <g id="text_6">
      <!-- 1.0 -->
      <g transform="translate(390.53571 177.030437) scale(0.1 -0.1)">
       <defs>
        <path id="DejaVuSans-31" d="M 794 531 
L 1825 531 
L 1825 4091 
L 703 3866 
L 703 4441 
L 1819 4666 
L 2450 4666 
L 2450 531 
L 3481 531 
L 3481 0 
L 794 0 
L 794 531 
z
" transform="scale(0.015625)"/>
       </defs>
       <use xlink:href="#DejaVuSans-31"/>
       <use xlink:href="#DejaVuSans-2e" transform="translate(63.623047 0)"/>
       <use xlink:href="#DejaVuSans-30" transform="translate(95.410156 0)"/>
      </g>
     </g>
    </g>
   </g>
   <g id="matplotlib.axis_2">
    <g id="ytick_1">
     <g id="line2d_7">
      <defs>
       <path id="m106a48b269" d="M 0 0 
L -3.5 0 
" style="stroke: #000000; stroke-width: 0.8"/>
      </defs>
      <g>
       <use xlink:href="#m106a48b269" x="57.6" y="156.933832" style="stroke: #000000; stroke-width: 0.8"/>
      </g>
     </g>
     <g id="text_7">
      <!-- −2 -->
      <g transform="translate(35.857813 160.733051) scale(0.1 -0.1)">
       <defs>
        <path id="DejaVuSans-2212" d="M 678 2272 
L 4684 2272 
L 4684 1741 
L 678 1741 
L 678 2272 
z
" transform="scale(0.015625)"/>
       </defs>
       <use xlink:href="#DejaVuSans-2212"/>
       <use xlink:href="#DejaVuSans-32" transform="translate(83.789062 0)"/>
      </g>
     </g>
    </g>
    <g id="ytick_2">
     <g id="line2d_8">
      <g>
       <use xlink:href="#m106a48b269" x="57.6" y="129.442919" style="stroke: #000000; stroke-width: 0.8"/>
      </g>
     </g>
     <g id="text_8">
      <!-- −1 -->
      <g transform="translate(35.857813 133.242138) scale(0.1 -0.1)">
       <use xlink:href="#DejaVuSans-2212"/>
       <use xlink:href="#DejaVuSans-31" transform="translate(83.789062 0)"/>
      </g>
     </g>
    </g>
    <g id="ytick_3">
     <g id="line2d_9">
      <g>
       <use xlink:href="#m106a48b269" x="57.6" y="101.952006" style="stroke: #000000; stroke-width: 0.8"/>
      </g>
     </g>
     <g id="text_9">
      <!-- 0 -->
      <g transform="translate(44.2375 105.751225) scale(0.1 -0.1)">
       <use xlink:href="#DejaVuSans-30"/>
      </g>
     </g>
    </g>
    <g id="ytick_4">
     <g id="line2d_10">
      <g>
       <use xlink:href="#m106a48b269" x="57.6" y="74.461093" style="stroke: #000000; stroke-width: 0.8"/>
      </g>
     </g>
     <g id="text_10">
      <!-- 1 -->
      <g transform="translate(44.2375 78.260312) scale(0.1 -0.1)">
       <use xlink:href="#DejaVuSans-31"/>
      </g>
     </g>
    </g>
    <g id="ytick_5">
     <g id="line2d_11">
      <g>
       <use xlink:href="#m106a48b269" x="57.6" y="46.97018" style="stroke: #000000; stroke-width: 0.8"/>
      </g>
     </g>
     <g id="text_11">
      <!-- 2 -->
      <g transform="translate(44.2375 50.769399) scale(0.1 -0.1)">
       <use xlink:href="#DejaVuSans-32"/>
      </g>
     </g>
    </g>
   </g>
   <g id="line2d_12">
    <path d="M 73.832727 101.952006 
L 79.759154 83.404407 
L 82.844144 74.479799 
L 85.360846 67.838093 
L 87.552812 62.641201 
L 89.501226 58.55315 
L 91.287273 55.291995 
L 92.910951 52.761505 
L 94.453446 50.761856 
L 95.833573 49.320079 
L 97.132516 48.271522 
L 98.350275 47.565573 
L 99.48685 47.151827 
L 100.623425 46.976632 
L 101.76 47.040749 
L 102.896575 47.3439 
L 104.03315 47.884766 
L 105.250909 48.725359 
L 106.549852 49.915019 
L 107.929979 51.502994 
L 109.39129 53.53701 
L 111.014968 56.204817 
L 112.719831 59.442774 
L 114.587061 63.465343 
L 116.697844 68.554057 
L 119.133362 75.042919 
L 121.974799 83.282474 
L 125.70926 94.845032 
L 134.80186 123.276636 
L 137.724482 131.528622 
L 140.16 137.765654 
L 142.270782 142.596901 
L 144.219197 146.51687 
L 146.005243 149.610799 
L 147.628922 151.979904 
L 149.090233 153.732765 
L 150.470359 155.046372 
L 151.769302 155.971573 
L 152.987061 156.560112 
L 154.123636 156.863263 
L 155.260211 156.927381 
L 156.396786 156.752185 
L 157.533362 156.33844 
L 158.669937 155.687945 
L 159.887696 154.731505 
L 161.186638 153.42075 
L 162.566765 151.707668 
L 164.10926 149.415768 
L 165.732939 146.592639 
L 167.518985 143.030391 
L 169.4674 138.642413 
L 171.659366 133.148318 
L 174.176068 126.223833 
L 177.261057 117.046145 
L 181.807357 102.729462 
L 187.977336 83.404407 
L 191.062326 74.479799 
L 193.579027 67.838093 
L 195.770994 62.641201 
L 197.719408 58.55315 
L 199.505455 55.291995 
L 201.129133 52.761505 
L 202.671628 50.761856 
L 204.051755 49.320079 
L 205.350698 48.271522 
L 206.568457 47.565573 
L 207.705032 47.151827 
L 208.841607 46.976632 
L 209.978182 47.040749 
L 211.114757 47.3439 
L 212.251332 47.884766 
L 213.469091 48.725359 
L 214.768034 49.915019 
L 216.148161 51.502994 
L 217.609471 53.53701 
L 219.23315 56.204817 
L 220.938013 59.442774 
L 222.805243 63.465343 
L 224.916025 68.554057 
L 227.351543 75.042919 
L 230.192981 83.282474 
L 233.927442 94.845032 
L 243.020042 123.276636 
L 245.942664 131.528622 
L 248.378182 137.765654 
L 250.488964 142.596901 
L 252.437378 146.51687 
L 254.223425 149.610799 
L 255.847104 151.979904 
L 257.308414 153.732765 
L 258.688541 155.046372 
L 259.987484 155.971573 
L 261.205243 156.560112 
L 262.341818 156.863263 
L 263.478393 156.927381 
L 264.614968 156.752185 
L 265.751543 156.33844 
L 266.888118 155.687945 
L 268.105877 154.731505 
L 269.40482 153.42075 
L 270.784947 151.707668 
L 272.327442 149.415768 
L 273.951121 146.592639 
L 275.737167 143.030391 
L 277.685581 138.642413 
L 279.877548 133.148318 
L 282.394249 126.223833 
L 285.479239 117.046145 
L 290.025539 102.729462 
L 296.195518 83.404407 
L 299.280507 74.479799 
L 301.797209 67.838093 
L 303.989175 62.641201 
L 305.93759 58.55315 
L 307.723636 55.291995 
L 309.347315 52.761505 
L 310.88981 50.761856 
L 312.269937 49.320079 
L 313.568879 48.271522 
L 314.786638 47.565573 
L 315.923214 47.151827 
L 317.059789 46.976632 
L 318.196364 47.040749 
L 319.332939 47.3439 
L 320.469514 47.884766 
L 321.687273 48.725359 
L 322.986216 49.915019 
L 324.366342 51.502994 
L 325.827653 53.53701 
L 327.451332 56.204817 
L 329.156195 59.442774 
L 331.023425 63.465343 
L 333.134207 68.554057 
L 335.569725 75.042919 
L 338.411163 83.282474 
L 342.145624 94.845032 
L 351.238224 123.276636 
L 354.160846 131.528622 
L 356.596364 137.765654 
L 358.707146 142.596901 
L 360.65556 146.51687 
L 362.441607 149.610799 
L 364.065285 151.979904 
L 365.526596 153.732765 
L 366.906723 155.046372 
L 368.205666 155.971573 
L 369.423425 156.560112 
L 370.56 156.863263 
L 371.696575 156.927381 
L 372.83315 156.752185 
L 373.969725 156.33844 
L 375.1063 155.687945 
L 376.324059 154.731505 
L 377.623002 153.42075 
L 379.003129 151.707668 
L 380.545624 149.415768 
L 382.169302 146.592639 
L 383.955349 143.030391 
L 385.903763 138.642413 
L 388.095729 133.148318 
L 390.612431 126.223833 
L 393.697421 117.046145 
L 398.243721 102.729462 
L 398.487273 101.952006 
L 398.487273 101.952006 
" clip-path="url(#pecca51b51b)" style="fill: none; stroke: #1f77b4; stroke-width: 1.5; stroke-linecap: square"/>
   </g>
   <g id="line2d_13">
    <path d="M 73.832727 69.6345 
L 76.105877 64.061956 
L 78.135476 59.640692 
L 80.002706 56.090135 
L 81.707569 53.317674 
L 83.250063 51.218877 
L 84.711374 49.605408 
L 86.010317 48.487065 
L 87.228076 47.71457 
L 88.364651 47.238038 
L 89.501226 46.99968 
L 90.637801 47.000535 
L 91.774376 47.240599 
L 92.910951 47.718826 
L 94.047526 48.433136 
L 95.265285 49.456893 
L 96.564228 50.837878 
L 98.025539 52.738372 
L 99.568034 55.128239 
L 101.272896 58.205434 
L 103.140127 62.065882 
L 105.169725 66.791577 
L 107.442875 72.659953 
L 110.121945 80.221979 
L 113.450486 90.326369 
L 125.70926 128.248728 
L 128.307146 135.205666 
L 130.580296 140.67855 
L 132.609894 144.998479 
L 134.395941 148.307923 
L 136.019619 150.885162 
L 137.562114 152.931346 
L 138.942241 154.416202 
L 140.241184 155.506293 
L 141.458943 156.251837 
L 142.595518 156.702932 
L 143.732093 156.915691 
L 144.868668 156.889188 
L 146.005243 156.623538 
L 147.141818 156.119898 
L 148.359577 155.3187 
L 149.577336 154.250833 
L 150.957463 152.725003 
L 152.418774 150.754514 
L 153.961268 148.293982 
L 155.666131 145.143198 
L 157.533362 141.208415 
L 159.644144 136.208004 
L 161.998478 130.028097 
L 164.758732 122.124679 
L 168.330825 111.160435 
L 178.803552 78.544228 
L 181.563805 70.905247 
L 183.91814 65.01137 
L 186.028922 60.310157 
L 187.896152 56.670034 
L 189.601015 53.80982 
L 191.14351 51.627452 
L 192.60482 49.931778 
L 193.984947 48.67377 
L 195.202706 47.847492 
L 196.420465 47.291569 
L 197.55704 47.019098 
L 198.693615 46.985756 
L 199.83019 47.191687 
L 200.966765 47.635994 
L 202.10334 48.316745 
L 203.321099 49.305111 
L 204.620042 50.649187 
L 206.000169 52.396634 
L 207.542664 54.725412 
L 209.166342 57.5853 
L 210.952389 61.185162 
L 212.981987 65.805223 
L 215.255137 71.571594 
L 217.853023 78.802492 
L 221.019197 88.308706 
L 226.133784 104.490876 
L 231.329556 120.694649 
L 234.414545 129.60361 
L 236.931247 136.228272 
L 239.123214 141.407485 
L 241.071628 145.477847 
L 242.857674 148.721354 
L 244.481353 151.234777 
L 246.023848 153.217451 
L 247.403975 154.643524 
L 248.702918 155.676949 
L 249.920677 156.368482 
L 251.057252 156.768635 
L 252.193827 156.930166 
L 253.330402 156.852372 
L 254.466977 156.535591 
L 255.603552 155.981204 
L 256.821311 155.126308 
L 258.120254 153.921681 
L 259.500381 152.318225 
L 260.961691 150.268399 
L 262.58537 147.583863 
L 264.290233 144.329444 
L 266.238647 140.104143 
L 268.349429 134.978194 
L 270.784947 128.453328 
L 273.626385 120.182099 
L 277.44203 108.33882 
L 286.12871 81.154037 
L 289.051332 72.857603 
L 291.48685 66.572884 
L 293.678816 61.517195 
L 295.62723 57.569998 
L 297.413277 54.449048 
L 299.036956 52.053916 
L 300.498266 50.27664 
L 301.878393 48.939275 
L 303.177336 47.991232 
L 304.395095 47.380972 
L 305.53167 47.057379 
L 306.668245 46.972747 
L 307.80482 47.127445 
L 308.941395 47.520799 
L 310.07797 48.151098 
L 311.295729 49.086215 
L 312.594672 50.374703 
L 313.974799 52.064806 
L 315.43611 54.203014 
L 317.059789 56.980938 
L 318.845835 60.496866 
L 320.794249 64.838946 
L 322.986216 70.287889 
L 325.502918 77.169904 
L 328.506723 86.062164 
L 332.809471 99.568476 
L 339.547738 120.694649 
L 342.632727 129.60361 
L 345.149429 136.228272 
L 347.341395 141.407485 
L 349.28981 145.477847 
L 351.075856 148.721354 
L 352.699535 151.234777 
L 354.24203 153.217451 
L 355.622156 154.643524 
L 356.921099 155.676949 
L 358.138858 156.368482 
L 359.275433 156.768635 
L 360.412008 156.930166 
L 361.548584 156.852372 
L 362.685159 156.535591 
L 363.821734 155.981204 
L 365.039493 155.126308 
L 366.338436 153.921681 
L 367.718562 152.318225 
L 369.179873 150.268399 
L 370.803552 147.583863 
L 372.508414 144.329444 
L 374.456829 140.104143 
L 376.567611 134.978194 
L 379.003129 128.453328 
L 381.844567 120.182099 
L 385.660211 108.33882 
L 394.346892 81.154037 
L 397.269514 72.857603 
L 398.487273 69.6345 
L 398.487273 69.6345 
" clip-path="url(#pecca51b51b)" style="fill: none; stroke: #ff7f0e; stroke-width: 1.5; stroke-linecap: square"/>
   </g>
   <g id="line2d_14">
    <path d="M 73.832727 49.661182 
L 75.13167 48.529674 
L 76.349429 47.744616 
L 77.486004 47.256221 
L 78.622579 47.005921 
L 79.759154 46.994807 
L 80.895729 47.222926 
L 82.032304 47.689287 
L 83.168879 48.391858 
L 84.386638 49.403238 
L 85.685581 50.771319 
L 87.065708 52.543508 
L 88.608203 54.898816 
L 90.313066 57.939964 
L 92.180296 61.763927 
L 94.209894 66.453997 
L 96.483044 72.288055 
L 99.162114 79.817977 
L 102.490655 89.896135 
L 109.066554 110.751377 
L 113.125751 123.181048 
L 116.048372 131.441182 
L 118.48389 137.686935 
L 120.594672 142.527017 
L 122.543087 146.456076 
L 124.329133 149.559023 
L 125.952812 151.936813 
L 127.414123 153.697818 
L 128.794249 155.019349 
L 130.093192 155.952167 
L 131.310951 156.547949 
L 132.447526 156.857915 
L 133.584101 156.928871 
L 134.720677 156.760507 
L 135.857252 156.353557 
L 136.993827 155.709792 
L 138.211586 154.760457 
L 139.510529 153.45712 
L 140.890655 151.751691 
L 142.43315 149.468008 
L 144.056829 146.653077 
L 145.842875 143.099222 
L 147.79129 138.719554 
L 149.983256 133.233624 
L 152.499958 126.316806 
L 155.584947 117.145799 
L 160.131247 102.833114 
L 166.301226 83.502027 
L 169.386216 74.569644 
L 171.902918 67.919451 
L 174.094884 62.713747 
L 176.043298 58.616873 
L 177.829345 55.346913 
L 179.453023 52.807902 
L 180.995518 50.799776 
L 182.375645 49.350155 
L 183.674588 48.294038 
L 184.892347 47.580884 
L 186.028922 47.160344 
L 187.165497 46.978317 
L 188.302072 47.035596 
L 189.438647 47.331931 
L 190.575222 47.866033 
L 191.792981 48.69947 
L 193.091924 49.881641 
L 194.472051 51.461867 
L 195.933362 53.487967 
L 197.55704 56.147394 
L 199.261903 59.377104 
L 201.129133 63.391379 
L 203.239915 68.471768 
L 205.675433 74.952567 
L 208.516871 83.185002 
L 212.251332 94.742251 
L 221.425116 123.419875 
L 224.347738 131.659585 
L 226.783256 137.883495 
L 228.894038 142.701456 
L 230.842452 146.607764 
L 232.547315 149.559023 
L 234.170994 151.936813 
L 235.632304 153.697818 
L 237.012431 155.019349 
L 238.311374 155.952167 
L 239.529133 156.547949 
L 240.665708 156.857915 
L 241.802283 156.928871 
L 242.938858 156.760507 
L 244.075433 156.353557 
L 245.212008 155.709792 
L 246.429767 154.760457 
L 247.72871 153.45712 
L 249.108837 151.751691 
L 250.651332 149.468008 
L 252.275011 146.653077 
L 254.061057 143.099222 
L 256.009471 138.719554 
L 258.201438 133.233624 
L 260.71814 126.316806 
L 263.803129 117.145799 
L 268.349429 102.833114 
L 274.519408 83.502027 
L 277.604397 74.569644 
L 280.121099 67.919451 
L 282.313066 62.713747 
L 284.26148 58.616873 
L 286.047526 55.346913 
L 287.671205 52.807902 
L 289.2137 50.799776 
L 290.593827 49.350155 
L 291.89277 48.294038 
L 293.110529 47.580884 
L 294.247104 47.160344 
L 295.383679 46.978317 
L 296.520254 47.035596 
L 297.656829 47.331931 
L 298.793404 47.866033 
L 300.011163 48.69947 
L 301.310106 49.881641 
L 302.690233 51.461867 
L 304.151543 53.487967 
L 305.775222 56.147394 
L 307.480085 59.377104 
L 309.347315 63.391379 
L 311.458097 68.471768 
L 313.893615 74.952567 
L 316.735053 83.185002 
L 320.469514 94.742251 
L 329.643298 123.419875 
L 332.56592 131.659585 
L 335.001438 137.883495 
L 337.11222 142.701456 
L 339.060634 146.607764 
L 340.765497 149.559023 
L 342.389175 151.936813 
L 343.850486 153.697818 
L 345.230613 155.019349 
L 346.529556 155.952167 
L 347.747315 156.547949 
L 348.88389 156.857915 
L 350.020465 156.928871 
L 351.15704 156.760507 
L 352.293615 156.353557 
L 353.43019 155.709792 
L 354.647949 154.760457 
L 355.946892 153.45712 
L 357.327019 151.751691 
L 358.869514 149.468008 
L 360.493192 146.653077 
L 362.279239 143.099222 
L 364.227653 138.719554 
L 366.419619 133.233624 
L 368.936321 126.316806 
L 372.021311 117.145799 
L 376.567611 102.833114 
L 382.73759 83.502027 
L 385.822579 74.569644 
L 388.339281 67.919451 
L 390.531247 62.713747 
L 392.479662 58.616873 
L 394.265708 55.346913 
L 395.889387 52.807902 
L 397.431882 50.799776 
L 398.487273 49.661182 
L 398.487273 49.661182 
" clip-path="url(#pecca51b51b)" style="fill: none; stroke: #2ca02c; stroke-width: 1.5; stroke-linecap: square"/>
   </g>
   <g id="patch_3">
    <path d="M 57.6 162.432 
L 57.6 41.472 
" style="fill: none; stroke: #000000; stroke-width: 0.8; stroke-linejoin: miter; stroke-linecap: square"/>
   </g>
   <g id="patch_4">
    <path d="M 414.72 162.432 
L 414.72 41.472 
" style="fill: none; stroke: #000000; stroke-width: 0.8; stroke-linejoin: miter; stroke-linecap: square"/>
   </g>
   <g id="patch_5">
    <path d="M 57.6 162.432 
L 414.72 162.432 
" style="fill: none; stroke: #000000; stroke-width: 0.8; stroke-linejoin: miter; stroke-linecap: square"/>
   </g>
   <g id="patch_6">
    <path d="M 57.6 41.472 
L 414.72 41.472 
" style="fill: none; stroke: #000000; stroke-width: 0.8; stroke-linejoin: miter; stroke-linecap: square"/>
   </g>
  </g>
  <g id="axes_2">
   <g id="patch_7">
    <path d="M 57.6 307.584 
L 414.72 307.584 
L 414.72 186.624 
L 57.6 186.624 
z
" style="fill: #ffffff"/>
   </g>
   <g id="matplotlib.axis_3">
    <g id="xtick_7">
     <g id="line2d_15">
      <g>
       <use xlink:href="#mde00995fce" x="73.832727" y="307.584" style="stroke: #000000; stroke-width: 0.8"/>
      </g>
     </g>
     <g id="text_12">
      <!-- 0.0 -->
      <g transform="translate(65.881165 322.182437) scale(0.1 -0.1)">
       <use xlink:href="#DejaVuSans-30"/>
       <use xlink:href="#DejaVuSans-2e" transform="translate(63.623047 0)"/>
       <use xlink:href="#DejaVuSans-30" transform="translate(95.410156 0)"/>
      </g>
     </g>
    </g>
    <g id="xtick_8">
     <g id="line2d_16">
      <g>
       <use xlink:href="#mde00995fce" x="138.763636" y="307.584" style="stroke: #000000; stroke-width: 0.8"/>
      </g>
     </g>
     <g id="text_13">
      <!-- 0.2 -->
      <g transform="translate(130.812074 322.182437) scale(0.1 -0.1)">
       <use xlink:href="#DejaVuSans-30"/>
       <use xlink:href="#DejaVuSans-2e" transform="translate(63.623047 0)"/>
       <use xlink:href="#DejaVuSans-32" transform="translate(95.410156 0)"/>
      </g>
     </g>
    </g>
    <g id="xtick_9">
     <g id="line2d_17">
      <g>
       <use xlink:href="#mde00995fce" x="203.694545" y="307.584" style="stroke: #000000; stroke-width: 0.8"/>
      </g>
     </g>
     <g id="text_14">
      <!-- 0.4 -->
      <g transform="translate(195.742983 322.182437) scale(0.1 -0.1)">
       <use xlink:href="#DejaVuSans-30"/>
       <use xlink:href="#DejaVuSans-2e" transform="translate(63.623047 0)"/>
       <use xlink:href="#DejaVuSans-34" transform="translate(95.410156 0)"/>
      </g>
     </g>
    </g>
    <g id="xtick_10">
     <g id="line2d_18">
      <g>
       <use xlink:href="#mde00995fce" x="268.625455" y="307.584" style="stroke: #000000; stroke-width: 0.8"/>
      </g>
     </g>
     <g id="text_15">
      <!-- 0.6 -->
      <g transform="translate(260.673892 322.182437) scale(0.1 -0.1)">
       <use xlink:href="#DejaVuSans-30"/>
       <use xlink:href="#DejaVuSans-2e" transform="translate(63.623047 0)"/>
       <use xlink:href="#DejaVuSans-36" transform="translate(95.410156 0)"/>
      </g>
     </g>
    </g>
    <g id="xtick_11">
     <g id="line2d_19">
      <g>
       <use xlink:href="#mde00995fce" x="333.556364" y="307.584" style="stroke: #000000; stroke-width: 0.8"/>
      </g>
     </g>
     <g id="text_16">
      <!-- 0.8 -->
      <g transform="translate(325.604801 322.182437) scale(0.1 -0.1)">
       <use xlink:href="#DejaVuSans-30"/>
       <use xlink:href="#DejaVuSans-2e" transform="translate(63.623047 0)"/>
       <use xlink:href="#DejaVuSans-38" transform="translate(95.410156 0)"/>
      </g>
     </g>
    </g>
    <g id="xtick_12">
     <g id="line2d_20">
      <g>
       <use xlink:href="#mde00995fce" x="398.487273" y="307.584" style="stroke: #000000; stroke-width: 0.8"/>
      </g>
     </g>
     <g id="text_17">
      <!-- 1.0 -->
      <g transform="translate(390.53571 322.182437) scale(0.1 -0.1)">
       <use xlink:href="#DejaVuSans-31"/>
       <use xlink:href="#DejaVuSans-2e" transform="translate(63.623047 0)"/>
       <use xlink:href="#DejaVuSans-30" transform="translate(95.410156 0)"/>
      </g>
     </g>
    </g>
   </g>
   <g id="matplotlib.axis_4">
    <g id="ytick_6">
     <g id="line2d_21">
      <g>
       <use xlink:href="#m106a48b269" x="57.6" y="281.407801" style="stroke: #000000; stroke-width: 0.8"/>
      </g>
     </g>
     <g id="text_18">
      <!-- −2 -->
      <g transform="translate(35.857813 285.207019) scale(0.1 -0.1)">
       <use xlink:href="#DejaVuSans-2212"/>
       <use xlink:href="#DejaVuSans-32" transform="translate(83.789062 0)"/>
      </g>
     </g>
    </g>
    <g id="ytick_7">
     <g id="line2d_22">
      <g>
       <use xlink:href="#m106a48b269" x="57.6" y="250.058896" style="stroke: #000000; stroke-width: 0.8"/>
      </g>
     </g>
     <g id="text_19">
      <!-- 0 -->
      <g transform="translate(44.2375 253.858115) scale(0.1 -0.1)">
       <use xlink:href="#DejaVuSans-30"/>
      </g>
     </g>
    </g>
    <g id="ytick_8">
     <g id="line2d_23">
      <g>
       <use xlink:href="#m106a48b269" x="57.6" y="218.709991" style="stroke: #000000; stroke-width: 0.8"/>
      </g>
     </g>
     <g id="text_20">
      <!-- 2 -->
      <g transform="translate(44.2375 222.50921) scale(0.1 -0.1)">
       <use xlink:href="#DejaVuSans-32"/>
      </g>
     </g>
    </g>
    <g id="ytick_9">
     <g id="line2d_24">
      <g>
       <use xlink:href="#m106a48b269" x="57.6" y="187.361086" style="stroke: #000000; stroke-width: 0.8"/>
      </g>
     </g>
     <g id="text_21">
      <!-- 4 -->
      <g transform="translate(44.2375 191.160305) scale(0.1 -0.1)">
       <use xlink:href="#DejaVuSans-34"/>
      </g>
     </g>
    </g>
   </g>
   <g id="line2d_25">
    <path d="M 73.832727 266.126017 
L 74.483338 254.060848 
L 75.133948 251.301068 
L 75.784558 250.792675 
L 77.085779 233.630449 
L 77.736389 262.801545 
L 78.386999 225.220867 
L 79.03761 231.099623 
L 79.68822 232.786858 
L 80.33883 212.985768 
L 80.989441 262.16335 
L 81.640051 229.196322 
L 82.290661 229.741191 
L 82.941272 234.235869 
L 83.591882 236.647784 
L 84.242492 232.829705 
L 84.893103 228.204869 
L 85.543713 213.62876 
L 86.844934 232.478636 
L 87.495544 256.277381 
L 88.146154 221.434605 
L 88.796764 214.636462 
L 89.447375 226.734827 
L 90.097985 217.82125 
L 90.748595 236.463154 
L 91.399206 219.377017 
L 92.049816 255.059739 
L 92.700426 231.999818 
L 93.351037 238.911811 
L 94.001647 217.75694 
L 94.652257 222.506555 
L 95.302868 192.122182 
L 95.953478 216.556727 
L 96.604088 198.53699 
L 97.254698 213.163819 
L 97.905309 234.617532 
L 99.206529 195.870089 
L 99.85714 214.304203 
L 100.50775 228.996379 
L 101.15836 230.532742 
L 101.808971 213.598814 
L 102.459581 206.393724 
L 103.110191 215.690468 
L 103.760802 203.7746 
L 104.411412 202.235773 
L 105.062022 234.546402 
L 105.712633 212.124385 
L 106.363243 250.317903 
L 107.013853 208.508037 
L 107.664463 224.123397 
L 108.315074 262.890405 
L 108.965684 202.662051 
L 109.616294 227.300359 
L 110.266905 205.768784 
L 110.917515 228.728686 
L 111.568125 245.968268 
L 112.218736 227.405997 
L 112.869346 228.331793 
L 113.519956 238.477954 
L 114.170567 254.646838 
L 114.821177 219.846193 
L 115.471787 230.908456 
L 116.122398 239.058314 
L 116.773008 234.995735 
L 117.423618 234.150146 
L 118.074228 254.632891 
L 118.724839 234.400442 
L 119.375449 207.900671 
L 120.026059 237.865558 
L 120.67667 237.985746 
L 121.32728 241.267932 
L 121.97789 241.257968 
L 122.628501 227.371089 
L 123.279111 253.637905 
L 123.929721 226.577504 
L 124.580332 237.571548 
L 125.230942 253.658981 
L 125.881552 225.713192 
L 126.532163 247.121491 
L 127.182773 239.992894 
L 127.833383 246.966279 
L 128.483993 255.404119 
L 129.134604 251.532721 
L 129.785214 250.742737 
L 130.435824 246.800447 
L 131.086435 235.513803 
L 131.737045 240.931009 
L 133.038266 280.402908 
L 133.688876 258.031027 
L 134.339486 227.89624 
L 134.990097 288.984745 
L 135.640707 269.125047 
L 136.291317 279.571325 
L 136.941927 271.593741 
L 137.592538 252.131346 
L 138.893758 272.605933 
L 139.544369 266.843899 
L 140.194979 260.023638 
L 140.845589 276.330889 
L 141.4962 268.628231 
L 142.14681 284.023908 
L 142.79742 268.568347 
L 143.448031 281.9703 
L 144.098641 268.03516 
L 144.749251 250.305115 
L 145.399862 291.554767 
L 146.050472 301.272252 
L 146.701082 272.753906 
L 147.351692 275.389558 
L 148.002303 265.519514 
L 148.652913 271.167439 
L 149.303523 297.312501 
L 149.954134 287.465267 
L 150.604744 260.40209 
L 151.255354 280.968068 
L 151.905965 273.160257 
L 152.556575 280.945501 
L 153.207185 269.41649 
L 153.857796 285.930277 
L 154.508406 249.075494 
L 155.159016 269.668335 
L 155.809627 274.387975 
L 156.460237 275.288282 
L 157.110847 298.762948 
L 157.761457 286.782629 
L 158.412068 281.496984 
L 159.062678 286.674659 
L 159.713288 288.241154 
L 160.363899 275.701129 
L 161.014509 297.786495 
L 161.665119 272.792088 
L 162.31573 276.268377 
L 162.96634 275.8324 
L 163.61695 299.287735 
L 164.267561 277.571643 
L 165.568781 255.21841 
L 166.219392 252.978126 
L 166.870002 260.23509 
L 167.520612 262.515773 
L 168.171222 230.596302 
L 168.821833 282.848206 
L 169.472443 265.935424 
L 170.123053 269.291583 
L 170.773664 257.049111 
L 171.424274 263.068352 
L 172.074884 268.021186 
L 172.725495 277.081726 
L 173.376105 300.496552 
L 174.026715 261.819317 
L 174.677326 289.831026 
L 175.327936 261.576709 
L 175.978546 275.315256 
L 176.629156 257.432965 
L 177.279767 256.234731 
L 177.930377 246.75028 
L 178.580987 262.095997 
L 179.231598 249.800847 
L 179.882208 259.843341 
L 180.532818 245.143814 
L 181.183429 262.721149 
L 181.834039 254.067621 
L 182.484649 238.265845 
L 183.13526 260.824081 
L 183.78587 242.472907 
L 184.43648 253.002795 
L 185.087091 244.110681 
L 185.737701 241.489557 
L 186.388311 226.158684 
L 187.038921 242.665504 
L 187.689532 220.787997 
L 188.340142 243.849141 
L 188.990752 233.887934 
L 189.641363 232.466415 
L 190.291973 236.556742 
L 190.942583 241.775508 
L 191.593194 224.629723 
L 192.243804 232.850699 
L 192.894414 245.597045 
L 193.545025 225.992651 
L 194.195635 248.024508 
L 194.846245 262.177924 
L 195.496856 237.172155 
L 196.147466 262.883358 
L 196.798076 244.708884 
L 197.448686 236.209887 
L 198.099297 232.51884 
L 198.749907 224.027821 
L 199.400517 218.754529 
L 200.051128 242.977087 
L 200.701738 221.272084 
L 201.352348 221.2687 
L 202.002959 199.305068 
L 202.653569 225.555838 
L 203.304179 225.520889 
L 203.95479 200.836243 
L 204.6054 201.321541 
L 205.25601 206.330581 
L 205.906621 231.058916 
L 206.557231 224.065767 
L 207.207841 205.848739 
L 207.858451 211.922205 
L 208.509062 225.710984 
L 209.159672 216.05595 
L 209.810282 221.604829 
L 210.460893 215.033388 
L 211.111503 221.117634 
L 211.762113 233.662961 
L 212.412724 201.305325 
L 213.063334 236.761631 
L 213.713944 205.665672 
L 214.364555 237.691909 
L 215.015165 216.028538 
L 215.665775 242.58193 
L 216.316385 199.315466 
L 216.966996 228.426186 
L 217.617606 213.168432 
L 218.268216 222.677595 
L 218.918827 213.271021 
L 219.569437 242.366887 
L 220.220047 227.921081 
L 220.870658 199.783622 
L 221.521268 256.337448 
L 222.171878 226.517464 
L 222.822489 212.565505 
L 223.473099 232.242657 
L 224.123709 244.396787 
L 224.77432 239.226082 
L 225.42493 238.00473 
L 226.07554 211.339267 
L 226.72615 237.140021 
L 227.376761 232.88437 
L 228.027371 240.74658 
L 228.677981 219.498644 
L 229.328592 229.099423 
L 230.629812 252.318364 
L 231.280423 240.060489 
L 231.931033 240.136369 
L 232.581643 239.863837 
L 233.232254 239.988687 
L 234.533474 243.990416 
L 235.184085 236.395528 
L 235.834695 262.563529 
L 236.485305 246.224858 
L 237.135915 266.932766 
L 237.786526 253.346217 
L 238.437136 275.38072 
L 239.087746 251.888257 
L 239.738357 254.943138 
L 240.388967 256.096154 
L 241.039577 282.392681 
L 241.690188 253.149778 
L 242.340798 261.80728 
L 242.991408 252.131822 
L 243.642019 277.264989 
L 244.292629 265.17289 
L 244.943239 261.844225 
L 245.59385 271.283608 
L 246.24446 270.936995 
L 246.89507 286.569309 
L 247.54568 273.603339 
L 248.196291 281.530099 
L 248.846901 300.33553 
L 249.497511 272.37142 
L 250.148122 285.096751 
L 250.798732 286.439123 
L 251.449342 270.387916 
L 252.099953 287.647318 
L 252.750563 270.282085 
L 253.401173 277.69611 
L 254.051784 290.613696 
L 254.702394 288.158778 
L 255.353004 267.931399 
L 256.003615 298.110177 
L 256.654225 290.704643 
L 257.304835 280.95544 
L 257.955445 264.610797 
L 258.606056 251.538975 
L 259.256666 271.461231 
L 259.907276 279.364884 
L 260.557887 274.678691 
L 261.208497 272.006185 
L 261.859107 289.901598 
L 262.509718 299.238364 
L 263.810938 274.95016 
L 264.461549 262.444451 
L 265.112159 277.679419 
L 265.762769 298.460696 
L 266.413379 296.367705 
L 267.06399 292.675492 
L 267.7146 284.396315 
L 268.36521 285.963234 
L 269.015821 276.380629 
L 269.666431 293.9629 
L 270.317041 265.345149 
L 270.967652 287.670322 
L 271.618262 269.845711 
L 272.268872 260.381801 
L 272.919483 293.419824 
L 273.570093 280.688698 
L 274.220703 281.586478 
L 274.871314 283.60279 
L 275.521924 284.70294 
L 276.172534 274.010506 
L 276.823144 265.38934 
L 277.473755 290.527404 
L 278.124365 279.125885 
L 278.774975 273.809983 
L 279.425586 243.979264 
L 280.076196 270.314331 
L 280.726806 277.828218 
L 281.377417 248.150328 
L 282.028027 268.247799 
L 282.678637 256.102152 
L 283.329248 274.353769 
L 283.979858 252.199157 
L 284.630468 256.515213 
L 285.281079 259.100019 
L 285.931689 276.431662 
L 286.582299 228.616185 
L 287.232909 258.186916 
L 287.88352 242.425862 
L 288.53413 244.670302 
L 289.18474 231.595277 
L 289.835351 259.795408 
L 290.485961 262.691265 
L 291.136571 228.385604 
L 291.787182 237.298631 
L 292.437792 228.372867 
L 293.088402 245.51442 
L 293.739013 218.670642 
L 294.389623 235.100306 
L 295.040233 230.78876 
L 295.690844 232.919747 
L 296.341454 213.104651 
L 296.992064 263.782671 
L 297.642674 249.861643 
L 298.293285 206.164715 
L 298.943895 269.570556 
L 299.594505 229.934913 
L 300.245116 232.188751 
L 300.895726 233.397519 
L 301.546336 245.676454 
L 302.196947 219.462042 
L 302.847557 240.348129 
L 303.498167 219.903944 
L 304.148778 237.314639 
L 304.799388 229.040881 
L 305.449998 229.957338 
L 306.100608 231.348042 
L 306.751219 222.982071 
L 307.401829 201.356964 
L 308.052439 227.539534 
L 308.70305 246.720577 
L 309.35366 223.359067 
L 310.00427 208.769985 
L 310.654881 223.78265 
L 311.305491 235.234814 
L 311.956101 225.275126 
L 312.606712 235.301394 
L 313.257322 209.397469 
L 313.907932 208.765599 
L 314.558543 211.254476 
L 315.209153 243.302568 
L 315.859763 208.378063 
L 316.510373 214.428504 
L 317.160984 218.354683 
L 317.811594 234.177792 
L 318.462204 217.616051 
L 319.112815 218.072537 
L 319.763425 227.905937 
L 320.414035 222.016607 
L 321.064646 225.259633 
L 321.715256 211.643218 
L 322.365866 216.677845 
L 323.016477 226.289998 
L 323.667087 238.61906 
L 324.968308 221.158925 
L 325.618918 231.078502 
L 326.269528 228.775851 
L 326.920138 236.503829 
L 327.570749 214.980816 
L 328.221359 225.323004 
L 328.871969 219.215737 
L 329.52258 239.422095 
L 330.17319 218.311758 
L 330.8238 243.642127 
L 331.474411 219.551189 
L 332.125021 208.555282 
L 332.775631 226.158575 
L 333.426242 252.110168 
L 334.076852 235.9598 
L 334.727462 253.446369 
L 335.378073 239.135647 
L 336.028683 244.310075 
L 336.679293 266.602796 
L 337.329903 225.971148 
L 337.980514 252.011955 
L 338.631124 242.499603 
L 339.281734 242.270619 
L 339.932345 240.110706 
L 340.582955 236.169557 
L 341.233565 245.031654 
L 341.884176 238.407955 
L 342.534786 254.03182 
L 343.185396 236.600631 
L 343.836007 254.910158 
L 344.486617 241.85094 
L 345.137227 236.21869 
L 345.787837 234.086627 
L 346.438448 223.994209 
L 347.089058 253.154638 
L 347.739668 256.10057 
L 348.390279 253.666683 
L 349.040889 255.23116 
L 349.691499 270.47421 
L 350.34211 279.752522 
L 350.99272 260.566936 
L 351.64333 244.700192 
L 352.293941 261.470818 
L 352.944551 255.671076 
L 353.595161 253.573703 
L 354.245772 254.481219 
L 354.896382 255.901212 
L 355.546992 260.902291 
L 356.197602 287.162111 
L 356.848213 282.460066 
L 357.498823 274.855084 
L 358.149433 284.552079 
L 358.800044 282.558469 
L 359.450654 264.837003 
L 360.101264 283.04375 
L 360.751875 274.034383 
L 361.402485 287.197723 
L 362.053095 283.435549 
L 362.703706 297.115142 
L 363.354316 271.159169 
L 364.004926 273.499084 
L 364.655537 278.424712 
L 365.306147 265.865588 
L 365.956757 294.078897 
L 366.607367 281.721096 
L 367.908588 292.60017 
L 368.559198 274.342262 
L 369.209809 266.545445 
L 370.511029 302.085818 
L 371.16164 281.459704 
L 371.81225 287.164533 
L 372.46286 291.739954 
L 373.113471 268.240626 
L 373.764081 290.402996 
L 374.414691 278.338378 
L 375.065302 276.195645 
L 375.715912 280.73685 
L 376.366522 288.816881 
L 377.017132 281.115496 
L 377.667743 282.451562 
L 378.318353 281.612981 
L 378.968963 286.542437 
L 379.619574 273.020221 
L 380.270184 276.15659 
L 380.920794 287.425768 
L 381.571405 256.750275 
L 382.222015 282.621936 
L 382.872625 296.307447 
L 383.523236 274.19214 
L 384.173846 268.534001 
L 385.475066 295.613901 
L 386.125677 271.128142 
L 386.776287 274.742369 
L 387.426897 283.268107 
L 388.077508 286.839773 
L 388.728118 271.537174 
L 389.378728 277.820341 
L 390.029339 266.090384 
L 390.679949 271.001626 
L 391.330559 252.172786 
L 391.98117 261.68735 
L 392.63178 260.264634 
L 393.28239 253.469135 
L 393.933001 273.781981 
L 394.583611 244.845373 
L 395.234221 256.2499 
L 395.884831 260.250502 
L 396.535442 260.881224 
L 397.186052 245.453314 
L 397.836662 219.505961 
L 398.487273 238.159628 
L 398.487273 238.159628 
" clip-path="url(#pfc7e85ba4d)" style="fill: none; stroke: #ff0000; stroke-width: 1.5; stroke-linecap: square"/>
   </g>
   <g id="line2d_26">
    <path d="M 73.832727 250.058896 
L 79.921522 239.205906 
L 83.087696 234.012695 
L 85.766765 230.034256 
L 88.121099 226.934277 
L 90.231882 224.520235 
L 92.180296 222.631178 
L 93.966342 221.207051 
L 95.590021 220.181038 
L 97.132516 219.451975 
L 98.675011 218.968233 
L 100.136321 218.739783 
L 101.597632 218.73665 
L 103.058943 218.958856 
L 104.520254 219.404803 
L 106.062748 220.114685 
L 107.686427 221.121085 
L 109.39129 222.454191 
L 111.177336 224.140381 
L 113.125751 226.296739 
L 115.236533 228.974629 
L 117.590867 232.332629 
L 120.269937 236.552287 
L 123.598478 242.236981 
L 129.037801 252.05238 
L 134.152389 261.119554 
L 137.318562 266.295105 
L 139.916448 270.140325 
L 142.189598 273.133566 
L 144.300381 275.554639 
L 146.248795 277.450758 
L 148.034841 278.881765 
L 149.739704 279.959037 
L 151.282199 280.681711 
L 152.824693 281.158936 
L 154.286004 281.381142 
L 155.747315 281.378008 
L 157.208626 281.149558 
L 158.669937 280.697435 
L 160.212431 279.981155 
L 161.83611 278.968212 
L 163.540973 277.628509 
L 165.327019 275.935778 
L 167.275433 273.772796 
L 169.386216 271.088428 
L 171.74055 267.724176 
L 174.419619 263.498794 
L 177.748161 257.809243 
L 183.268668 247.844264 
L 188.302072 238.929137 
L 191.468245 233.759531 
L 194.066131 229.920788 
L 196.339281 226.934277 
L 198.450063 224.520235 
L 200.398478 222.631178 
L 202.184524 221.207051 
L 203.808203 220.181038 
L 205.350698 219.451975 
L 206.893192 218.968233 
L 208.354503 218.739783 
L 209.815814 218.73665 
L 211.277125 218.958856 
L 212.738436 219.404803 
L 214.28093 220.114685 
L 215.904609 221.121085 
L 217.609471 222.454191 
L 219.395518 224.140381 
L 221.343932 226.296739 
L 223.454715 228.974629 
L 225.809049 232.332629 
L 228.488118 236.552287 
L 231.81666 242.236981 
L 237.255983 252.05238 
L 242.370571 261.119554 
L 245.536744 266.295105 
L 248.13463 270.140325 
L 250.40778 273.133566 
L 252.518562 275.554639 
L 254.466977 277.450758 
L 256.253023 278.881765 
L 257.957886 279.959037 
L 259.500381 280.681711 
L 261.042875 281.158936 
L 262.504186 281.381142 
L 263.965497 281.378008 
L 265.426808 281.149558 
L 266.888118 280.697435 
L 268.430613 279.981155 
L 270.054292 278.968212 
L 271.759154 277.628509 
L 273.545201 275.935778 
L 275.493615 273.772796 
L 277.604397 271.088428 
L 279.958732 267.724176 
L 282.637801 263.498794 
L 285.966342 257.809243 
L 291.48685 247.844264 
L 296.520254 238.929137 
L 299.686427 233.759531 
L 302.284313 229.920788 
L 304.557463 226.934277 
L 306.668245 224.520235 
L 308.61666 222.631178 
L 310.402706 221.207051 
L 312.026385 220.181038 
L 313.568879 219.451975 
L 315.111374 218.968233 
L 316.572685 218.739783 
L 318.033996 218.73665 
L 319.495307 218.958856 
L 320.956617 219.404803 
L 322.499112 220.114685 
L 324.122791 221.121085 
L 325.827653 222.454191 
L 327.6137 224.140381 
L 329.562114 226.296739 
L 331.672896 228.974629 
L 334.02723 232.332629 
L 336.7063 236.552287 
L 340.034841 242.236981 
L 345.474165 252.05238 
L 350.588753 261.119554 
L 353.754926 266.295105 
L 356.352812 270.140325 
L 358.625962 273.133566 
L 360.736744 275.554639 
L 362.685159 277.450758 
L 364.471205 278.881765 
L 366.176068 279.959037 
L 367.718562 280.681711 
L 369.261057 281.158936 
L 370.722368 281.381142 
L 372.183679 281.378008 
L 373.644989 281.149558 
L 375.1063 280.697435 
L 376.648795 279.981155 
L 378.272474 278.968212 
L 379.977336 277.628509 
L 381.763383 275.935778 
L 383.711797 273.772796 
L 385.822579 271.088428 
L 388.176913 267.724176 
L 390.855983 263.498794 
L 394.184524 257.809243 
L 398.487273 250.058896 
L 398.487273 250.058896 
" clip-path="url(#pfc7e85ba4d)" style="fill: none; stroke: #000000; stroke-opacity: 0.7; stroke-width: 1.5; stroke-linecap: square"/>
   </g>
   <g id="patch_8">
    <path d="M 57.6 307.584 
L 57.6 186.624 
" style="fill: none; stroke: #000000; stroke-width: 0.8; stroke-linejoin: miter; stroke-linecap: square"/>
   </g>
   <g id="patch_9">
    <path d="M 414.72 307.584 
L 414.72 186.624 
" style="fill: none; stroke: #000000; stroke-width: 0.8; stroke-linejoin: miter; stroke-linecap: square"/>
   </g>
   <g id="patch_10">
    <path d="M 57.6 307.584 
L 414.72 307.584 
" style="fill: none; stroke: #000000; stroke-width: 0.8; stroke-linejoin: miter; stroke-linecap: square"/>
   </g>
   <g id="patch_11">
    <path d="M 57.6 186.624 
L 414.72 186.624 
" style="fill: none; stroke: #000000; stroke-width: 0.8; stroke-linejoin: miter; stroke-linecap: square"/>
   </g>
  </g>
 </g>
 <defs>
  <clipPath id="pecca51b51b">
   <rect x="57.6" y="41.472" width="357.12" height="120.96"/>
  </clipPath>
  <clipPath id="pfc7e85ba4d">
   <rect x="57.6" y="186.624" width="357.12" height="120.96"/>
  </clipPath>
 </defs>
</svg>
