<?xml version="1.0" encoding="utf-8" standalone="no"?>
<!DOCTYPE svg PUBLIC "-//W3C//DTD SVG 1.1//EN"
  "http://www.w3.org/Graphics/SVG/1.1/DTD/svg11.dtd">
<svg xmlns:xlink="http://www.w3.org/1999/xlink" width="460.8pt" height="345.6pt" viewBox="0 0 460.8 345.6" xmlns="http://www.w3.org/2000/svg" version="1.1">
 <metadata>
  <rdf:RDF xmlns:dc="http://purl.org/dc/elements/1.1/" xmlns:cc="http://creativecommons.org/ns#" xmlns:rdf="http://www.w3.org/1999/02/22-rdf-syntax-ns#">
   <cc:Work>
    <dc:type rdf:resource="http://purl.org/dc/dcmitype/StillImage"/>
    <dc:date>2025-10-21T17:17:47.148211</dc:date>
    <dc:format>image/svg+xml</dc:format>
    <dc:creator>
     <cc:Agent>
      <dc:title>Matplotlib v3.10.1, https://matplotlib.org/</dc:title>
     </cc:Agent>
    </dc:creator>
   </cc:Work>
  </rdf:RDF>
 </metadata>
 <defs>
  <style type="text/css">*{stroke-linejoin: round; stroke-linecap: butt}</style>
 </defs>
 <g id="figure_1">
  <g id="patch_1">
   <path d="M 0 345.6 
L 460.8 345.6 
L 460.8 0 
L 0 0 
z
" style="fill: #ffffff"/>
  </g>
  <g id="axes_1">
   <g id="patch_2">
    <path d="M 57.6 162.432 
L 414.72 162.432 
L 414.72 41.472 
L 57.6 41.472 
z
" style="fill: #ffffff"/>
   </g>
   <g id="matplotlib.axis_1">
    <g id="xtick_1">
     <g id="line2d_1">
      <defs>
       <path id="m81b51791f6" d="M 0 0 
L 0 3.5 
" style="stroke: #000000; stroke-width: 0.8"/>
      </defs>
      <g>
       <use xlink:href="#m81b51791f6" x="73.832727" y="162.432" style="stroke: #000000; stroke-width: 0.8"/>
      </g>
     </g>
     <g id="text_1">
      <!-- 0.0 -->
      <g transform="translate(65.881165 177.030437) scale(0.1 -0.1)">
       <defs>
        <path id="DejaVuSans-30" d="M 2034 4250 
Q 1547 4250 1301 3770 
Q 1056 3291 1056 2328 
Q 1056 1369 1301 889 
Q 1547 409 2034 409 
Q 2525 409 2770 889 
Q 3016 1369 3016 2328 
Q 3016 3291 2770 3770 
Q 2525 4250 2034 4250 
z
M 2034 4750 
Q 2819 4750 3233 4129 
Q 3647 3509 3647 2328 
Q 3647 1150 3233 529 
Q 2819 -91 2034 -91 
Q 1250 -91 836 529 
Q 422 1150 422 2328 
Q 422 3509 836 4129 
Q 1250 4750 2034 4750 
z
" transform="scale(0.015625)"/>
        <path id="DejaVuSans-2e" d="M 684 794 
L 1344 794 
L 1344 0 
L 684 0 
L 684 794 
z
" transform="scale(0.015625)"/>
       </defs>
       <use xlink:href="#DejaVuSans-30"/>
       <use xlink:href="#DejaVuSans-2e" transform="translate(63.623047 0)"/>
       <use xlink:href="#DejaVuSans-30" transform="translate(95.410156 0)"/>
      </g>
     </g>
    </g>
    <g id="xtick_2">
     <g id="line2d_2">
      <g>
       <use xlink:href="#m81b51791f6" x="138.763636" y="162.432" style="stroke: #000000; stroke-width: 0.8"/>
      </g>
     </g>
     <g id="text_2">
      <!-- 0.2 -->
      <g transform="translate(130.812074 177.030437) scale(0.1 -0.1)">
       <defs>
        <path id="DejaVuSans-32" d="M 1228 531 
L 3431 531 
L 3431 0 
L 469 0 
L 469 531 
Q 828 903 1448 1529 
Q 2069 2156 2228 2338 
Q 2531 2678 2651 2914 
Q 2772 3150 2772 3378 
Q 2772 3750 2511 3984 
Q 2250 4219 1831 4219 
Q 1534 4219 1204 4116 
Q 875 4013 500 3803 
L 500 4441 
Q 881 4594 1212 4672 
Q 1544 4750 1819 4750 
Q 2544 4750 2975 4387 
Q 3406 4025 3406 3419 
Q 3406 3131 3298 2873 
Q 3191 2616 2906 2266 
Q 2828 2175 2409 1742 
Q 1991 1309 1228 531 
z
" transform="scale(0.015625)"/>
       </defs>
       <use xlink:href="#DejaVuSans-30"/>
       <use xlink:href="#DejaVuSans-2e" transform="translate(63.623047 0)"/>
       <use xlink:href="#DejaVuSans-32" transform="translate(95.410156 0)"/>
      </g>
     </g>
    </g>
    <g id="xtick_3">
     <g id="line2d_3">
      <g>
       <use xlink:href="#m81b51791f6" x="203.694545" y="162.432" style="stroke: #000000; stroke-width: 0.8"/>
      </g>
     </g>
     <g id="text_3">
      <!-- 0.4 -->
      <g transform="translate(195.742983 177.030437) scale(0.1 -0.1)">
       <defs>
        <path id="DejaVuSans-34" d="M 2419 4116 
L 825 1625 
L 2419 1625 
L 2419 4116 
z
M 2253 4666 
L 3047 4666 
L 3047 1625 
L 3713 1625 
L 3713 1100 
L 3047 1100 
L 3047 0 
L 2419 0 
L 2419 1100 
L 313 1100 
L 313 1709 
L 2253 4666 
z
" transform="scale(0.015625)"/>
       </defs>
       <use xlink:href="#DejaVuSans-30"/>
       <use xlink:href="#DejaVuSans-2e" transform="translate(63.623047 0)"/>
       <use xlink:href="#DejaVuSans-34" transform="translate(95.410156 0)"/>
      </g>
     </g>
    </g>
    <g id="xtick_4">
     <g id="line2d_4">
      <g>
       <use xlink:href="#m81b51791f6" x="268.625455" y="162.432" style="stroke: #000000; stroke-width: 0.8"/>
      </g>
     </g>
     <g id="text_4">
      <!-- 0.6 -->
      <g transform="translate(260.673892 177.030437) scale(0.1 -0.1)">
       <defs>
        <path id="DejaVuSans-36" d="M 2113 2584 
Q 1688 2584 1439 2293 
Q 1191 2003 1191 1497 
Q 1191 994 1439 701 
Q 1688 409 2113 409 
Q 2538 409 2786 701 
Q 3034 994 3034 1497 
Q 3034 2003 2786 2293 
Q 2538 2584 2113 2584 
z
M 3366 4563 
L 3366 3988 
Q 3128 4100 2886 4159 
Q 2644 4219 2406 4219 
Q 1781 4219 1451 3797 
Q 1122 3375 1075 2522 
Q 1259 2794 1537 2939 
Q 1816 3084 2150 3084 
Q 2853 3084 3261 2657 
Q 3669 2231 3669 1497 
Q 3669 778 3244 343 
Q 2819 -91 2113 -91 
Q 1303 -91 875 529 
Q 447 1150 447 2328 
Q 447 3434 972 4092 
Q 1497 4750 2381 4750 
Q 2619 4750 2861 4703 
Q 3103 4656 3366 4563 
z
" transform="scale(0.015625)"/>
       </defs>
       <use xlink:href="#DejaVuSans-30"/>
       <use xlink:href="#DejaVuSans-2e" transform="translate(63.623047 0)"/>
       <use xlink:href="#DejaVuSans-36" transform="translate(95.410156 0)"/>
      </g>
     </g>
    </g>
    <g id="xtick_5">
     <g id="line2d_5">
      <g>
       <use xlink:href="#m81b51791f6" x="333.556364" y="162.432" style="stroke: #000000; stroke-width: 0.8"/>
      </g>
     </g>
     <g id="text_5">
      <!-- 0.8 -->
      <g transform="translate(325.604801 177.030437) scale(0.1 -0.1)">
       <defs>
        <path id="DejaVuSans-38" d="M 2034 2216 
Q 1584 2216 1326 1975 
Q 1069 1734 1069 1313 
Q 1069 891 1326 650 
Q 1584 409 2034 409 
Q 2484 409 2743 651 
Q 3003 894 3003 1313 
Q 3003 1734 2745 1975 
Q 2488 2216 2034 2216 
z
M 1403 2484 
Q 997 2584 770 2862 
Q 544 3141 544 3541 
Q 544 4100 942 4425 
Q 1341 4750 2034 4750 
Q 2731 4750 3128 4425 
Q 3525 4100 3525 3541 
Q 3525 3141 3298 2862 
Q 3072 2584 2669 2484 
Q 3125 2378 3379 2068 
Q 3634 1759 3634 1313 
Q 3634 634 3220 271 
Q 2806 -91 2034 -91 
Q 1263 -91 848 271 
Q 434 634 434 1313 
Q 434 1759 690 2068 
Q 947 2378 1403 2484 
z
M 1172 3481 
Q 1172 3119 1398 2916 
Q 1625 2713 2034 2713 
Q 2441 2713 2670 2916 
Q 2900 3119 2900 3481 
Q 2900 3844 2670 4047 
Q 2441 4250 2034 4250 
Q 1625 4250 1398 4047 
Q 1172 3844 1172 3481 
z
" transform="scale(0.015625)"/>
       </defs>
       <use xlink:href="#DejaVuSans-30"/>
       <use xlink:href="#DejaVuSans-2e" transform="translate(63.623047 0)"/>
       <use xlink:href="#DejaVuSans-38" transform="translate(95.410156 0)"/>
      </g>
     </g>
    </g>
    <g id="xtick_6">
     <g id="line2d_6">
      <g>
       <use xlink:href="#m81b51791f6" x="398.487273" y="162.432" style="stroke: #000000; stroke-width: 0.8"/>
      </g>
     </g>
     <g id="text_6">
      <!-- 1.0 -->
      <g transform="translate(390.53571 177.030437) scale(0.1 -0.1)">
       <defs>
        <path id="DejaVuSans-31" d="M 794 531 
L 1825 531 
L 1825 4091 
L 703 3866 
L 703 4441 
L 1819 4666 
L 2450 4666 
L 2450 531 
L 3481 531 
L 3481 0 
L 794 0 
L 794 531 
z
" transform="scale(0.015625)"/>
       </defs>
       <use xlink:href="#DejaVuSans-31"/>
       <use xlink:href="#DejaVuSans-2e" transform="translate(63.623047 0)"/>
       <use xlink:href="#DejaVuSans-30" transform="translate(95.410156 0)"/>
      </g>
     </g>
    </g>
   </g>
   <g id="matplotlib.axis_2">
    <g id="ytick_1">
     <g id="line2d_7">
      <defs>
       <path id="mcaeaea8f50" d="M 0 0 
L -3.5 0 
" style="stroke: #000000; stroke-width: 0.8"/>
      </defs>
      <g>
       <use xlink:href="#mcaeaea8f50" x="57.6" y="156.933818" style="stroke: #000000; stroke-width: 0.8"/>
      </g>
     </g>
     <g id="text_7">
      <!-- −1.0 -->
      <g transform="translate(26.317187 160.733037) scale(0.1 -0.1)">
       <defs>
        <path id="DejaVuSans-2212" d="M 678 2272 
L 4684 2272 
L 4684 1741 
L 678 1741 
L 678 2272 
z
" transform="scale(0.015625)"/>
       </defs>
       <use xlink:href="#DejaVuSans-2212"/>
       <use xlink:href="#DejaVuSans-31" transform="translate(83.789062 0)"/>
       <use xlink:href="#DejaVuSans-2e" transform="translate(147.412109 0)"/>
       <use xlink:href="#DejaVuSans-30" transform="translate(179.199219 0)"/>
      </g>
     </g>
    </g>
    <g id="ytick_2">
     <g id="line2d_8">
      <g>
       <use xlink:href="#mcaeaea8f50" x="57.6" y="129.440159" style="stroke: #000000; stroke-width: 0.8"/>
      </g>
     </g>
     <g id="text_8">
      <!-- −0.5 -->
      <g transform="translate(26.317187 133.239378) scale(0.1 -0.1)">
       <defs>
        <path id="DejaVuSans-35" d="M 691 4666 
L 3169 4666 
L 3169 4134 
L 1269 4134 
L 1269 2991 
Q 1406 3038 1543 3061 
Q 1681 3084 1819 3084 
Q 2600 3084 3056 2656 
Q 3513 2228 3513 1497 
Q 3513 744 3044 326 
Q 2575 -91 1722 -91 
Q 1428 -91 1123 -41 
Q 819 9 494 109 
L 494 744 
Q 775 591 1075 516 
Q 1375 441 1709 441 
Q 2250 441 2565 725 
Q 2881 1009 2881 1497 
Q 2881 1984 2565 2268 
Q 2250 2553 1709 2553 
Q 1456 2553 1204 2497 
Q 953 2441 691 2322 
L 691 4666 
z
" transform="scale(0.015625)"/>
       </defs>
       <use xlink:href="#DejaVuSans-2212"/>
       <use xlink:href="#DejaVuSans-30" transform="translate(83.789062 0)"/>
       <use xlink:href="#DejaVuSans-2e" transform="translate(147.412109 0)"/>
       <use xlink:href="#DejaVuSans-35" transform="translate(179.199219 0)"/>
      </g>
     </g>
    </g>
    <g id="ytick_3">
     <g id="line2d_9">
      <g>
       <use xlink:href="#mcaeaea8f50" x="57.6" y="101.946501" style="stroke: #000000; stroke-width: 0.8"/>
      </g>
     </g>
     <g id="text_9">
      <!-- 0.0 -->
      <g transform="translate(34.696875 105.745719) scale(0.1 -0.1)">
       <use xlink:href="#DejaVuSans-30"/>
       <use xlink:href="#DejaVuSans-2e" transform="translate(63.623047 0)"/>
       <use xlink:href="#DejaVuSans-30" transform="translate(95.410156 0)"/>
      </g>
     </g>
    </g>
    <g id="ytick_4">
     <g id="line2d_10">
      <g>
       <use xlink:href="#mcaeaea8f50" x="57.6" y="74.452842" style="stroke: #000000; stroke-width: 0.8"/>
      </g>
     </g>
     <g id="text_10">
      <!-- 0.5 -->
      <g transform="translate(34.696875 78.252061) scale(0.1 -0.1)">
       <use xlink:href="#DejaVuSans-30"/>
       <use xlink:href="#DejaVuSans-2e" transform="translate(63.623047 0)"/>
       <use xlink:href="#DejaVuSans-35" transform="translate(95.410156 0)"/>
      </g>
     </g>
    </g>
    <g id="ytick_5">
     <g id="line2d_11">
      <g>
       <use xlink:href="#mcaeaea8f50" x="57.6" y="46.959183" style="stroke: #000000; stroke-width: 0.8"/>
      </g>
     </g>
     <g id="text_11">
      <!-- 1.0 -->
      <g transform="translate(34.696875 50.758402) scale(0.1 -0.1)">
       <use xlink:href="#DejaVuSans-31"/>
       <use xlink:href="#DejaVuSans-2e" transform="translate(63.623047 0)"/>
       <use xlink:href="#DejaVuSans-30" transform="translate(95.410156 0)"/>
      </g>
     </g>
    </g>
   </g>
   <g id="line2d_12">
    <path d="M 73.832727 101.946501 
L 74.741851 81.390351 
L 75.163944 75.973458 
L 75.456162 74.506834 
L 75.553568 74.46347 
L 75.586037 74.499023 
L 75.715912 74.890258 
L 75.943193 76.514791 
L 76.26788 80.766238 
L 76.75491 90.560593 
L 78.378345 126.209377 
L 78.735501 129.098212 
L 78.930313 129.432829 
L 79.060188 129.156614 
L 79.255 128.003378 
L 79.547219 124.697182 
L 79.969312 117.071349 
L 80.781029 97.253115 
L 81.52781 81.016194 
L 81.949903 75.792078 
L 82.209652 74.524286 
L 82.307058 74.457486 
L 82.339527 74.485228 
L 82.469402 74.845419 
L 82.696683 76.417457 
L 83.02137 80.601949 
L 83.5084 90.325221 
L 85.164304 126.472289 
L 85.488991 129.056262 
L 85.683803 129.437592 
L 85.781209 129.291167 
L 85.943553 128.551343 
L 86.203303 126.12353 
L 86.592927 119.921623 
L 87.209832 105.769457 
L 88.281299 81.18516 
L 88.703393 75.873134 
L 88.963142 74.544174 
L 89.060548 74.453944 
L 89.093017 74.473874 
L 89.222892 74.802986 
L 89.417704 76.033516 
L 89.709922 79.446091 
L 90.164484 87.897814 
L 91.171014 112.620309 
L 91.787919 124.653439 
L 92.177544 128.671254 
L 92.404824 129.430924 
L 92.502231 129.382872 
L 92.664574 128.804939 
L 92.891855 126.977099 
L 93.249011 121.90708 
L 93.76851 110.853034 
L 95.197133 78.852454 
L 95.586757 75.0661 
L 95.814038 74.452845 
L 95.911444 74.564155 
L 96.073788 75.246281 
L 96.333537 77.586807 
L 96.723162 83.67905 
L 97.340067 97.738994 
L 98.444003 122.993977 
L 98.866096 128.15628 
L 99.125846 129.381187 
L 99.223252 129.431583 
L 99.25572 129.398373 
L 99.385595 129.016448 
L 99.612876 127.407648 
L 99.937563 123.176249 
L 100.424594 113.403127 
L 102.048029 77.720287 
L 102.405185 74.807121 
L 102.599997 74.458487 
L 102.729872 74.72536 
L 102.924684 75.864924 
L 103.216902 79.152259 
L 103.638995 86.75679 
L 104.450713 106.563265 
L 105.229962 123.356238 
L 105.652055 128.32282 
L 105.911804 129.412608 
L 106.00921 129.411436 
L 106.139085 129.060566 
L 106.366366 127.504303 
L 106.691053 123.33997 
L 107.178084 113.638191 
L 108.833987 77.455945 
L 109.158674 74.849794 
L 109.353487 74.454457 
L 109.450893 74.593861 
L 109.613236 75.322157 
L 109.872986 77.732551 
L 110.26261 83.912624 
L 110.879516 98.046571 
L 111.950983 122.656792 
L 112.373076 127.995099 
L 112.632825 129.342386 
L 112.7627 129.422058 
L 112.892575 129.102275 
L 113.087387 127.885363 
L 113.379606 124.491497 
L 113.834167 116.061959 
L 114.808228 92.114222 
L 115.457602 79.283487 
L 115.847227 75.240112 
L 116.074508 74.464203 
L 116.171914 74.505223 
L 116.301789 74.908868 
L 116.52907 76.554358 
L 116.853757 80.832481 
L 117.340787 90.655026 
L 118.964222 126.257959 
L 119.321378 129.114317 
L 119.483721 129.44001 
L 119.51619 129.43024 
L 119.646065 129.141571 
L 119.840877 127.970121 
L 120.133095 124.638817 
L 120.555189 116.984678 
L 121.366906 97.151011 
L 122.113686 80.949128 
L 122.535779 75.760306 
L 122.795529 74.517013 
L 122.892935 74.459586 
L 122.925404 74.490453 
L 123.055279 74.863066 
L 123.28256 76.456119 
L 123.607247 80.667438 
L 124.094277 90.419247 
L 125.750181 126.518961 
L 126.074868 129.073331 
L 126.26968 129.43598 
L 126.367086 129.280196 
L 126.52943 128.52501 
L 126.789179 126.074002 
L 127.178804 119.843059 
L 127.795709 105.666778 
L 128.867176 81.117351 
L 129.289269 75.840433 
L 129.549019 74.535927 
L 129.646425 74.455068 
L 129.678894 74.478123 
L 129.808769 74.81967 
L 130.036049 76.360144 
L 130.360736 80.504285 
L 130.847767 90.184493 
L 132.503671 126.401627 
L 132.828358 129.029936 
L 133.02317 129.439277 
L 133.120576 129.306895 
L 133.28292 128.590133 
L 133.542669 126.197178 
L 133.932294 120.038989 
L 134.549199 105.923373 
L 135.653135 80.749724 
L 136.075228 75.667225 
L 136.334977 74.497533 
L 136.432384 74.468232 
L 136.464852 74.50847 
L 136.627196 75.082536 
L 136.854477 76.905193 
L 137.211632 81.968109 
L 137.731132 93.015454 
L 139.159755 125.026475 
L 139.549379 128.821447 
L 139.77666 129.440132 
L 139.874066 129.331164 
L 140.036409 128.65289 
L 140.296159 126.3182 
L 140.685783 120.233311 
L 141.302689 106.179615 
L 142.406625 80.915707 
L 142.828718 75.74456 
L 143.088467 74.513523 
L 143.185873 74.460783 
L 143.218342 74.493212 
L 143.348217 74.872034 
L 143.575498 76.475586 
L 143.900185 80.700295 
L 144.387215 90.466322 
L 146.010651 126.160451 
L 146.367806 129.081721 
L 146.562618 129.435027 
L 146.660025 129.274565 
L 146.854837 128.285963 
L 147.147055 125.20781 
L 147.569148 117.841569 
L 148.315928 99.823606 
L 149.160115 81.083558 
L 149.582208 75.824222 
L 149.841957 74.531949 
L 149.939363 74.455776 
L 149.971832 74.480394 
L 150.101707 74.828156 
L 150.328988 76.379157 
L 150.653675 80.536764 
L 151.140705 90.231361 
L 152.796609 126.425268 
L 153.121296 129.038807 
L 153.316108 129.438813 
L 153.413514 129.30175 
L 153.575858 128.577298 
L 153.835608 126.172715 
L 154.225232 119.999931 
L 154.842137 105.872081 
L 155.946073 80.716753 
L 156.368166 75.652038 
L 156.627916 74.494628 
L 156.725322 74.470015 
L 156.757791 74.511814 
L 156.920134 75.093613 
L 157.147415 76.926635 
L 157.504571 82.003751 
L 158.02407 93.064489 
L 159.420224 124.594832 
L 159.809849 128.646721 
L 160.03713 129.428042 
L 160.134536 129.389365 
L 160.26441 128.988822 
L 160.491691 127.348569 
L 160.816378 123.07711 
L 161.303409 113.261599 
L 162.926844 77.647156 
L 163.284 74.782674 
L 163.478812 74.462078 
L 163.608687 74.747633 
L 163.803499 75.914531 
L 164.095717 79.239563 
L 164.51781 86.886636 
L 165.329528 106.716471 
L 166.076308 122.927135 
L 166.498401 128.124787 
L 166.758151 129.374207 
L 166.855557 129.433977 
L 166.888026 129.403891 
L 167.0179 129.034384 
L 167.245181 127.446582 
L 167.569868 123.241964 
L 168.056899 113.497276 
L 169.712803 77.385675 
L 170.03749 74.823901 
L 170.232302 74.456582 
L 170.329708 74.610026 
L 170.492051 75.361373 
L 170.751801 77.806585 
L 171.141425 84.030278 
L 171.758331 98.200549 
L 172.829798 122.758726 
L 173.251891 128.044428 
L 173.511641 129.355049 
L 173.609047 129.438251 
L 173.641515 129.415978 
L 173.77139 129.077539 
L 173.998671 127.54233 
L 174.323358 123.404927 
L 174.810389 113.731927 
L 176.466292 77.503228 
L 176.790979 74.867538 
L 176.985792 74.453529 
L 177.083198 74.58357 
L 177.245541 75.296486 
L 177.505291 77.683624 
L 177.894915 83.834508 
L 178.511821 97.943988 
L 179.615756 123.126764 
L 180.03785 128.218148 
L 180.297599 129.393979 
L 180.395005 129.425624 
L 180.427474 129.386167 
L 180.557349 128.979421 
L 180.78463 127.328695 
L 181.109317 123.043913 
L 181.596347 113.214342 
L 183.219782 77.622951 
L 183.576938 74.774718 
L 183.739282 74.452918 
L 183.77175 74.46347 
L 183.901625 74.755251 
L 184.096437 75.931252 
L 184.388656 79.268825 
L 184.810749 86.930025 
L 185.622466 106.767506 
L 186.369246 122.960593 
L 186.791339 128.14058 
L 187.051089 129.377746 
L 187.148495 129.432829 
L 187.180964 129.401181 
L 187.310839 129.025464 
L 187.53812 127.42716 
L 187.862807 123.209144 
L 188.349837 113.450222 
L 190.005741 77.362426 
L 190.330428 74.815463 
L 190.52524 74.457486 
L 190.622646 74.615609 
L 190.78499 75.374634 
L 191.044739 77.831435 
L 191.434364 84.069623 
L 192.051269 98.251902 
L 193.122736 122.792556 
L 193.544829 128.060685 
L 193.804579 129.359076 
L 193.901985 129.437592 
L 193.934454 129.413756 
L 194.064329 129.0691 
L 194.29161 127.523362 
L 194.616297 123.372487 
L 195.103327 113.68508 
L 196.759231 77.479543 
L 197.083918 74.858618 
L 197.27873 74.453944 
L 197.376136 74.588667 
L 197.53848 75.309274 
L 197.798229 77.708044 
L 198.187854 83.873534 
L 198.804759 97.995273 
L 199.908695 123.159773 
L 200.330788 128.233381 
L 200.590538 129.396933 
L 200.687944 129.42389 
L 200.720412 129.382872 
L 200.882756 128.804939 
L 201.110037 126.977099 
L 201.467193 121.90708 
L 201.986692 110.853034 
L 203.415315 78.852454 
L 203.804939 75.0661 
L 204.03222 74.452845 
L 204.129626 74.564155 
L 204.29197 75.246281 
L 204.551719 77.586807 
L 204.941344 83.67905 
L 205.558249 97.738994 
L 206.662185 122.993977 
L 207.084278 128.15628 
L 207.344027 129.381187 
L 207.441434 129.431583 
L 207.473902 129.398373 
L 207.603777 129.016448 
L 207.831058 127.407648 
L 208.155745 123.176249 
L 208.642776 113.403127 
L 210.266211 77.720287 
L 210.623366 74.807121 
L 210.818179 74.458487 
L 210.948053 74.72536 
L 211.142866 75.864924 
L 211.435084 79.152259 
L 211.857177 86.75679 
L 212.668895 106.563265 
L 213.448143 123.356238 
L 213.870236 128.32282 
L 214.129986 129.412608 
L 214.227392 129.411436 
L 214.357267 129.060566 
L 214.584548 127.504303 
L 214.909235 123.33997 
L 215.396265 113.638191 
L 217.052169 77.455945 
L 217.376856 74.849794 
L 217.571668 74.454457 
L 217.669075 74.593861 
L 217.831418 75.322157 
L 218.091168 77.732551 
L 218.480792 83.912624 
L 219.097697 98.046571 
L 220.169165 122.656792 
L 220.591258 127.995099 
L 220.851007 129.342386 
L 220.980882 129.422058 
L 221.110757 129.102275 
L 221.305569 127.885363 
L 221.597787 124.491497 
L 222.052349 116.061959 
L 223.02641 92.114222 
L 223.675784 79.283487 
L 224.065409 75.240112 
L 224.29269 74.464203 
L 224.390096 74.505223 
L 224.519971 74.908868 
L 224.747251 76.554358 
L 225.071938 80.832481 
L 225.558969 90.655026 
L 227.182404 126.257959 
L 227.53956 129.114317 
L 227.701903 129.44001 
L 227.734372 129.43024 
L 227.864247 129.141571 
L 228.059059 127.970121 
L 228.351277 124.638817 
L 228.77337 116.984678 
L 229.585088 97.151011 
L 230.331868 80.949128 
L 230.753961 75.760306 
L 231.013711 74.517013 
L 231.111117 74.459586 
L 231.143586 74.490453 
L 231.27346 74.863066 
L 231.500741 76.456119 
L 231.825428 80.667438 
L 232.312459 90.419247 
L 233.968363 126.518961 
L 234.29305 129.073331 
L 234.487862 129.43598 
L 234.585268 129.280196 
L 234.747611 128.52501 
L 235.007361 126.074002 
L 235.396986 119.843059 
L 236.013891 105.666778 
L 237.085358 81.117351 
L 237.507451 75.840433 
L 237.767201 74.535927 
L 237.864607 74.455068 
L 237.897076 74.478123 
L 238.02695 74.81967 
L 238.254231 76.360144 
L 238.578918 80.504285 
L 239.065949 90.184493 
L 240.721853 126.401627 
L 241.04654 129.029936 
L 241.241352 129.439277 
L 241.338758 129.306895 
L 241.501101 128.590133 
L 241.760851 126.197178 
L 242.150475 120.038989 
L 242.767381 105.923373 
L 243.871317 80.749724 
L 244.29341 75.667225 
L 244.553159 74.497533 
L 244.650565 74.468232 
L 244.683034 74.50847 
L 244.845378 75.082536 
L 245.072659 76.905193 
L 245.429814 81.968109 
L 245.949313 93.015454 
L 247.377936 125.026475 
L 247.767561 128.821447 
L 247.994842 129.440132 
L 248.092248 129.331164 
L 248.254591 128.65289 
L 248.514341 126.3182 
L 248.903965 120.233311 
L 249.520871 106.179615 
L 250.624806 80.915707 
L 251.0469 75.74456 
L 251.306649 74.513523 
L 251.404055 74.460783 
L 251.436524 74.493212 
L 251.566399 74.872034 
L 251.79368 76.475586 
L 252.118367 80.700295 
L 252.605397 90.466322 
L 254.228832 126.160451 
L 254.585988 129.081721 
L 254.7808 129.435027 
L 254.878206 129.274565 
L 255.073019 128.285963 
L 255.365237 125.20781 
L 255.78733 117.841569 
L 256.53411 99.823606 
L 257.378296 81.083558 
L 257.800389 75.824222 
L 258.060139 74.531949 
L 258.157545 74.455776 
L 258.190014 74.480394 
L 258.319889 74.828156 
L 258.54717 76.379157 
L 258.871857 80.536764 
L 259.358887 90.231361 
L 261.014791 126.425268 
L 261.339478 129.038807 
L 261.53429 129.438813 
L 261.631696 129.30175 
L 261.79404 128.577298 
L 262.053789 126.172715 
L 262.443414 119.999931 
L 263.060319 105.872081 
L 264.164255 80.716753 
L 264.586348 75.652038 
L 264.846098 74.494628 
L 264.943504 74.470015 
L 264.975973 74.511814 
L 265.138316 75.093613 
L 265.365597 76.926635 
L 265.722753 82.003751 
L 266.242252 93.064489 
L 267.638406 124.594832 
L 268.02803 128.646721 
L 268.255311 129.428042 
L 268.352717 129.389365 
L 268.482592 128.988822 
L 268.709873 127.348569 
L 269.03456 123.07711 
L 269.521591 113.261599 
L 271.145026 77.647156 
L 271.502181 74.782674 
L 271.696994 74.462078 
L 271.826869 74.747633 
L 272.021681 75.914531 
L 272.313899 79.239563 
L 272.735992 86.886636 
L 273.54771 106.716471 
L 274.29449 122.927135 
L 274.716583 128.124787 
L 274.976333 129.374207 
L 275.073739 129.433977 
L 275.106207 129.403891 
L 275.236082 129.034384 
L 275.463363 127.446582 
L 275.78805 123.241964 
L 276.275081 113.497276 
L 277.930984 77.385675 
L 278.255671 74.823901 
L 278.450484 74.456582 
L 278.54789 74.610026 
L 278.710233 75.361373 
L 278.969983 77.806585 
L 279.359607 84.030278 
L 279.976513 98.200549 
L 281.04798 122.758726 
L 281.470073 128.044428 
L 281.729822 129.355049 
L 281.827229 129.438251 
L 281.859697 129.415978 
L 281.989572 129.077539 
L 282.216853 127.54233 
L 282.54154 123.404927 
L 283.02857 113.731927 
L 284.684474 77.503228 
L 285.009161 74.867538 
L 285.203973 74.453529 
L 285.30138 74.58357 
L 285.463723 75.296486 
L 285.723473 77.683624 
L 286.113097 83.834508 
L 286.730002 97.943988 
L 287.833938 123.126764 
L 288.256031 128.218148 
L 288.515781 129.393979 
L 288.613187 129.425624 
L 288.645656 129.386167 
L 288.775531 128.979421 
L 289.002812 127.328695 
L 289.327499 123.043913 
L 289.814529 113.214342 
L 291.437964 77.622951 
L 291.79512 74.774718 
L 291.957463 74.452918 
L 291.989932 74.46347 
L 292.119807 74.755251 
L 292.314619 75.931252 
L 292.606837 79.268825 
L 293.028931 86.930025 
L 293.840648 106.767506 
L 294.587428 122.960593 
L 295.009521 128.14058 
L 295.269271 129.377746 
L 295.366677 129.432829 
L 295.399146 129.401181 
L 295.529021 129.025464 
L 295.756301 127.42716 
L 296.080988 123.209144 
L 296.568019 113.450222 
L 298.223923 77.362426 
L 298.54861 74.815463 
L 298.743422 74.457486 
L 298.840828 74.615609 
L 299.003172 75.374634 
L 299.262921 77.831435 
L 299.652546 84.069623 
L 300.269451 98.251902 
L 301.340918 122.792556 
L 301.763011 128.060685 
L 302.022761 129.359076 
L 302.120167 129.437592 
L 302.152636 129.413756 
L 302.28251 129.0691 
L 302.509791 127.523362 
L 302.834478 123.372487 
L 303.321509 113.68508 
L 304.977413 77.479543 
L 305.3021 74.858618 
L 305.496912 74.453944 
L 305.594318 74.588667 
L 305.756661 75.309274 
L 306.016411 77.708044 
L 306.406036 83.873534 
L 307.022941 97.995273 
L 308.126877 123.159773 
L 308.54897 128.233381 
L 308.808719 129.396933 
L 308.906126 129.42389 
L 308.938594 129.382872 
L 309.100938 128.804939 
L 309.328219 126.977099 
L 309.685374 121.90708 
L 310.204874 110.853034 
L 311.633496 78.852454 
L 312.023121 75.0661 
L 312.250402 74.452845 
L 312.347808 74.564155 
L 312.510151 75.246281 
L 312.769901 77.586807 
L 313.159525 83.67905 
L 313.776431 97.738994 
L 314.880367 122.993977 
L 315.30246 128.15628 
L 315.562209 129.381187 
L 315.659615 129.431583 
L 315.692084 129.398373 
L 315.821959 129.016448 
L 316.04924 127.407648 
L 316.373927 123.176249 
L 316.860957 113.403127 
L 318.484392 77.720287 
L 318.841548 74.807121 
L 319.03636 74.458487 
L 319.166235 74.72536 
L 319.361047 75.864924 
L 319.653266 79.152259 
L 320.075359 86.75679 
L 320.887076 106.563265 
L 321.666325 123.356238 
L 322.088418 128.32282 
L 322.348168 129.412608 
L 322.445574 129.411436 
L 322.575449 129.060566 
L 322.80273 127.504303 
L 323.127417 123.33997 
L 323.614447 113.638191 
L 325.270351 77.455945 
L 325.595038 74.849794 
L 325.78985 74.454457 
L 325.887256 74.593861 
L 326.0496 75.322157 
L 326.309349 77.732551 
L 326.698974 83.912624 
L 327.315879 98.046571 
L 328.387346 122.656792 
L 328.809439 127.995099 
L 329.069189 129.342386 
L 329.199064 129.422058 
L 329.328939 129.102275 
L 329.523751 127.885363 
L 329.815969 124.491497 
L 330.270531 116.061959 
L 331.244592 92.114222 
L 331.893966 79.283487 
L 332.283591 75.240112 
L 332.510871 74.464203 
L 332.608278 74.505223 
L 332.738152 74.908868 
L 332.965433 76.554358 
L 333.29012 80.832481 
L 333.777151 90.655026 
L 335.400586 126.257959 
L 335.757742 129.114317 
L 335.920085 129.44001 
L 335.952554 129.43024 
L 336.082429 129.141571 
L 336.277241 127.970121 
L 336.569459 124.638817 
L 336.991552 116.984678 
L 337.80327 97.151011 
L 338.55005 80.949128 
L 338.972143 75.760306 
L 339.231893 74.517013 
L 339.329299 74.459586 
L 339.361767 74.490453 
L 339.491642 74.863066 
L 339.718923 76.456119 
L 340.04361 80.667438 
L 340.530641 90.419247 
L 342.186544 126.518961 
L 342.511231 129.073331 
L 342.706044 129.43598 
L 342.80345 129.280196 
L 342.965793 128.52501 
L 343.225543 126.074002 
L 343.615167 119.843059 
L 344.232073 105.666778 
L 345.30354 81.117351 
L 345.725633 75.840433 
L 345.985383 74.535927 
L 346.082789 74.455068 
L 346.115257 74.478123 
L 346.245132 74.81967 
L 346.472413 76.360144 
L 346.7971 80.504285 
L 347.284131 90.184493 
L 348.940034 126.401627 
L 349.264721 129.029936 
L 349.459534 129.439277 
L 349.55694 129.306895 
L 349.719283 128.590133 
L 349.979033 126.197178 
L 350.368657 120.038989 
L 350.985563 105.923373 
L 352.089498 80.749724 
L 352.511592 75.667225 
L 352.771341 74.497533 
L 352.868747 74.468232 
L 352.901216 74.50847 
L 353.063559 75.082536 
L 353.29084 76.905193 
L 353.647996 81.968109 
L 354.167495 93.015454 
L 355.596118 125.026475 
L 355.985743 128.821447 
L 356.213023 129.440132 
L 356.31043 129.331164 
L 356.472773 128.65289 
L 356.732523 126.3182 
L 357.122147 120.233311 
L 357.739052 106.179615 
L 358.842988 80.915707 
L 359.265081 75.74456 
L 359.524831 74.513523 
L 359.622237 74.460783 
L 359.654706 74.493212 
L 359.784581 74.872034 
L 360.011862 76.475586 
L 360.336549 80.700295 
L 360.823579 90.466322 
L 362.447014 126.160451 
L 362.80417 129.081721 
L 362.998982 129.435027 
L 363.096388 129.274565 
L 363.2912 128.285963 
L 363.583419 125.20781 
L 364.005512 117.841569 
L 364.752292 99.823606 
L 365.596478 81.083558 
L 366.018571 75.824222 
L 366.278321 74.531949 
L 366.375727 74.455776 
L 366.408196 74.480394 
L 366.538071 74.828156 
L 366.765351 76.379157 
L 367.090038 80.536764 
L 367.577069 90.231361 
L 369.232973 126.425268 
L 369.55766 129.038807 
L 369.752472 129.438813 
L 369.849878 129.30175 
L 370.012222 128.577298 
L 370.271971 126.172715 
L 370.661596 119.999931 
L 371.278501 105.872081 
L 372.382437 80.716753 
L 372.80453 75.652038 
L 373.06428 74.494628 
L 373.161686 74.470015 
L 373.194154 74.511814 
L 373.356498 75.093613 
L 373.583779 76.926635 
L 373.940934 82.003751 
L 374.460434 93.064489 
L 375.856588 124.594832 
L 376.246212 128.646721 
L 376.473493 129.428042 
L 376.570899 129.389365 
L 376.700774 128.988822 
L 376.928055 127.348569 
L 377.252742 123.07711 
L 377.739773 113.261599 
L 379.363208 77.647156 
L 379.720363 74.782674 
L 379.915176 74.462078 
L 380.04505 74.747633 
L 380.239863 75.914531 
L 380.532081 79.239563 
L 380.954174 86.886636 
L 381.765891 106.716471 
L 382.512672 122.927135 
L 382.934765 128.124787 
L 383.194514 129.374207 
L 383.29192 129.433977 
L 383.324389 129.403891 
L 383.454264 129.034384 
L 383.681545 127.446582 
L 384.006232 123.241964 
L 384.493262 113.497276 
L 386.149166 77.385675 
L 386.473853 74.823901 
L 386.668665 74.456582 
L 386.766072 74.610026 
L 386.928415 75.361373 
L 387.188165 77.806585 
L 387.577789 84.030278 
L 388.194694 98.200549 
L 389.266162 122.758726 
L 389.688255 128.044428 
L 389.948004 129.355049 
L 390.04541 129.438251 
L 390.077879 129.415978 
L 390.207754 129.077539 
L 390.435035 127.54233 
L 390.759722 123.404927 
L 391.246752 113.731927 
L 392.902656 77.503228 
L 393.227343 74.867538 
L 393.422155 74.453529 
L 393.519561 74.58357 
L 393.681905 75.296486 
L 393.941655 77.683624 
L 394.331279 83.834508 
L 394.948184 97.943988 
L 396.05212 123.126764 
L 396.474213 128.218148 
L 396.733963 129.393979 
L 396.831369 129.425624 
L 396.863838 129.386167 
L 396.993712 128.979421 
L 397.220993 127.328695 
L 397.54568 123.043913 
L 398.032711 113.214342 
L 398.487273 101.946501 
L 398.487273 101.946501 
" clip-path="url(#p74b1a2e2cf)" style="fill: none; stroke: #000000; stroke-width: 1.5; stroke-linecap: square"/>
   </g>
   <g id="line2d_13">
    <path d="M 73.832727 156.933818 
L 94.093197 47.124162 
L 94.125666 156.92282 
L 94.223072 156.394889 
L 114.386135 47.113163 
L 114.418604 156.911821 
L 114.51601 156.38389 
L 134.679074 47.102165 
L 134.711542 156.900822 
L 134.808949 156.372891 
L 154.972012 47.091166 
L 155.004481 156.889824 
L 155.101887 156.361893 
L 175.26495 47.080167 
L 175.297419 156.878825 
L 175.394825 156.350894 
L 195.557889 47.069169 
L 195.590358 156.867827 
L 195.687764 156.339896 
L 215.850827 47.05817 
L 215.883296 156.856828 
L 215.980702 156.328897 
L 236.143766 47.047172 
L 236.176234 156.84583 
L 236.27364 156.317899 
L 256.436704 47.036173 
L 256.469173 156.834831 
L 256.566579 156.3069 
L 276.729642 47.025175 
L 276.762111 156.823833 
L 276.859517 156.295902 
L 297.022581 47.014176 
L 297.05505 156.812834 
L 297.152456 156.284903 
L 317.315519 47.003178 
L 317.347988 156.801835 
L 317.445394 156.273904 
L 337.608458 46.992179 
L 337.640926 156.790837 
L 337.738332 156.262906 
L 357.901396 46.98118 
L 357.933865 156.779838 
L 358.031271 156.251907 
L 378.194334 46.970182 
L 378.226803 156.76884 
L 378.324209 156.240909 
L 398.454804 47.13516 
L 398.487273 156.933818 
L 398.487273 156.933818 
" clip-path="url(#p74b1a2e2cf)" style="fill: none; stroke: #ff0000; stroke-width: 1.5; stroke-linecap: square"/>
   </g>
   <g id="patch_3">
    <path d="M 57.6 162.432 
L 57.6 41.472 
" style="fill: none; stroke: #000000; stroke-width: 0.8; stroke-linejoin: miter; stroke-linecap: square"/>
   </g>
   <g id="patch_4">
    <path d="M 414.72 162.432 
L 414.72 41.472 
" style="fill: none; stroke: #000000; stroke-width: 0.8; stroke-linejoin: miter; stroke-linecap: square"/>
   </g>
   <g id="patch_5">
    <path d="M 57.6 162.432 
L 414.72 162.432 
" style="fill: none; stroke: #000000; stroke-width: 0.8; stroke-linejoin: miter; stroke-linecap: square"/>
   </g>
   <g id="patch_6">
    <path d="M 57.6 41.472 
L 414.72 41.472 
" style="fill: none; stroke: #000000; stroke-width: 0.8; stroke-linejoin: miter; stroke-linecap: square"/>
   </g>
  </g>
  <g id="axes_2">
   <g id="patch_7">
    <path d="M 57.6 307.584 
L 414.72 307.584 
L 414.72 186.624 
L 57.6 186.624 
z
" style="fill: #ffffff"/>
   </g>
   <g id="matplotlib.axis_3">
    <g id="xtick_7">
     <g id="line2d_14">
      <g>
       <use xlink:href="#m81b51791f6" x="73.832727" y="307.584" style="stroke: #000000; stroke-width: 0.8"/>
      </g>
     </g>
     <g id="text_12">
      <!-- 0.0 -->
      <g transform="translate(65.881165 322.182437) scale(0.1 -0.1)">
       <use xlink:href="#DejaVuSans-30"/>
       <use xlink:href="#DejaVuSans-2e" transform="translate(63.623047 0)"/>
       <use xlink:href="#DejaVuSans-30" transform="translate(95.410156 0)"/>
      </g>
     </g>
    </g>
    <g id="xtick_8">
     <g id="line2d_15">
      <g>
       <use xlink:href="#m81b51791f6" x="138.763636" y="307.584" style="stroke: #000000; stroke-width: 0.8"/>
      </g>
     </g>
     <g id="text_13">
      <!-- 0.2 -->
      <g transform="translate(130.812074 322.182437) scale(0.1 -0.1)">
       <use xlink:href="#DejaVuSans-30"/>
       <use xlink:href="#DejaVuSans-2e" transform="translate(63.623047 0)"/>
       <use xlink:href="#DejaVuSans-32" transform="translate(95.410156 0)"/>
      </g>
     </g>
    </g>
    <g id="xtick_9">
     <g id="line2d_16">
      <g>
       <use xlink:href="#m81b51791f6" x="203.694545" y="307.584" style="stroke: #000000; stroke-width: 0.8"/>
      </g>
     </g>
     <g id="text_14">
      <!-- 0.4 -->
      <g transform="translate(195.742983 322.182437) scale(0.1 -0.1)">
       <use xlink:href="#DejaVuSans-30"/>
       <use xlink:href="#DejaVuSans-2e" transform="translate(63.623047 0)"/>
       <use xlink:href="#DejaVuSans-34" transform="translate(95.410156 0)"/>
      </g>
     </g>
    </g>
    <g id="xtick_10">
     <g id="line2d_17">
      <g>
       <use xlink:href="#m81b51791f6" x="268.625455" y="307.584" style="stroke: #000000; stroke-width: 0.8"/>
      </g>
     </g>
     <g id="text_15">
      <!-- 0.6 -->
      <g transform="translate(260.673892 322.182437) scale(0.1 -0.1)">
       <use xlink:href="#DejaVuSans-30"/>
       <use xlink:href="#DejaVuSans-2e" transform="translate(63.623047 0)"/>
       <use xlink:href="#DejaVuSans-36" transform="translate(95.410156 0)"/>
      </g>
     </g>
    </g>
    <g id="xtick_11">
     <g id="line2d_18">
      <g>
       <use xlink:href="#m81b51791f6" x="333.556364" y="307.584" style="stroke: #000000; stroke-width: 0.8"/>
      </g>
     </g>
     <g id="text_16">
      <!-- 0.8 -->
      <g transform="translate(325.604801 322.182437) scale(0.1 -0.1)">
       <use xlink:href="#DejaVuSans-30"/>
       <use xlink:href="#DejaVuSans-2e" transform="translate(63.623047 0)"/>
       <use xlink:href="#DejaVuSans-38" transform="translate(95.410156 0)"/>
      </g>
     </g>
    </g>
    <g id="xtick_12">
     <g id="line2d_19">
      <g>
       <use xlink:href="#m81b51791f6" x="398.487273" y="307.584" style="stroke: #000000; stroke-width: 0.8"/>
      </g>
     </g>
     <g id="text_17">
      <!-- 1.0 -->
      <g transform="translate(390.53571 322.182437) scale(0.1 -0.1)">
       <use xlink:href="#DejaVuSans-31"/>
       <use xlink:href="#DejaVuSans-2e" transform="translate(63.623047 0)"/>
       <use xlink:href="#DejaVuSans-30" transform="translate(95.410156 0)"/>
      </g>
     </g>
    </g>
   </g>
   <g id="matplotlib.axis_4">
    <g id="ytick_6">
     <g id="line2d_20">
      <g>
       <use xlink:href="#mcaeaea8f50" x="57.6" y="301.471431" style="stroke: #000000; stroke-width: 0.8"/>
      </g>
     </g>
     <g id="text_18">
      <!-- −1.0 -->
      <g transform="translate(26.317187 305.27065) scale(0.1 -0.1)">
       <use xlink:href="#DejaVuSans-2212"/>
       <use xlink:href="#DejaVuSans-31" transform="translate(83.789062 0)"/>
       <use xlink:href="#DejaVuSans-2e" transform="translate(147.412109 0)"/>
       <use xlink:href="#DejaVuSans-30" transform="translate(179.199219 0)"/>
      </g>
     </g>
    </g>
    <g id="ytick_7">
     <g id="line2d_21">
      <g>
       <use xlink:href="#mcaeaea8f50" x="57.6" y="274.287715" style="stroke: #000000; stroke-width: 0.8"/>
      </g>
     </g>
     <g id="text_19">
      <!-- −0.5 -->
      <g transform="translate(26.317187 278.086934) scale(0.1 -0.1)">
       <use xlink:href="#DejaVuSans-2212"/>
       <use xlink:href="#DejaVuSans-30" transform="translate(83.789062 0)"/>
       <use xlink:href="#DejaVuSans-2e" transform="translate(147.412109 0)"/>
       <use xlink:href="#DejaVuSans-35" transform="translate(179.199219 0)"/>
      </g>
     </g>
    </g>
    <g id="ytick_8">
     <g id="line2d_22">
      <g>
       <use xlink:href="#mcaeaea8f50" x="57.6" y="247.104" style="stroke: #000000; stroke-width: 0.8"/>
      </g>
     </g>
     <g id="text_20">
      <!-- 0.0 -->
      <g transform="translate(34.696875 250.903219) scale(0.1 -0.1)">
       <use xlink:href="#DejaVuSans-30"/>
       <use xlink:href="#DejaVuSans-2e" transform="translate(63.623047 0)"/>
       <use xlink:href="#DejaVuSans-30" transform="translate(95.410156 0)"/>
      </g>
     </g>
    </g>
    <g id="ytick_9">
     <g id="line2d_23">
      <g>
       <use xlink:href="#mcaeaea8f50" x="57.6" y="219.920285" style="stroke: #000000; stroke-width: 0.8"/>
      </g>
     </g>
     <g id="text_21">
      <!-- 0.5 -->
      <g transform="translate(34.696875 223.719503) scale(0.1 -0.1)">
       <use xlink:href="#DejaVuSans-30"/>
       <use xlink:href="#DejaVuSans-2e" transform="translate(63.623047 0)"/>
       <use xlink:href="#DejaVuSans-35" transform="translate(95.410156 0)"/>
      </g>
     </g>
    </g>
    <g id="ytick_10">
     <g id="line2d_24">
      <g>
       <use xlink:href="#mcaeaea8f50" x="57.6" y="192.736569" style="stroke: #000000; stroke-width: 0.8"/>
      </g>
     </g>
     <g id="text_22">
      <!-- 1.0 -->
      <g transform="translate(34.696875 196.535788) scale(0.1 -0.1)">
       <use xlink:href="#DejaVuSans-31"/>
       <use xlink:href="#DejaVuSans-2e" transform="translate(63.623047 0)"/>
       <use xlink:href="#DejaVuSans-30" transform="translate(95.410156 0)"/>
      </g>
     </g>
    </g>
   </g>
   <g id="line2d_25">
    <path d="M 73.832727 301.471431 
L 74.806788 274.875875 
L 75.293819 267.075177 
L 75.618506 264.82359 
L 75.780849 264.620444 
L 75.910724 264.890802 
L 76.105536 265.984101 
L 76.430223 269.452193 
L 76.917254 277.529725 
L 78.151065 299.107533 
L 78.50822 301.770186 
L 78.703032 302.076973 
L 78.832907 301.798487 
L 79.027719 300.641086 
L 79.319938 297.259993 
L 79.742031 289.184338 
L 80.391405 271.469361 
L 81.625216 237.510574 
L 82.079777 230.59689 
L 82.371996 228.61166 
L 82.534339 228.370394 
L 82.631745 228.515562 
L 82.826558 229.432111 
L 83.118776 232.240092 
L 83.573338 239.289359 
L 85.034429 264.038207 
L 85.326648 265.697638 
L 85.456522 265.837308 
L 85.488991 265.812026 
L 85.618866 265.46604 
L 85.846147 263.910794 
L 86.170834 259.637968 
L 86.625396 250.062197 
L 87.372176 228.608811 
L 88.346237 202.132139 
L 88.800799 194.807305 
L 89.125486 192.402138 
L 89.287829 192.122697 
L 89.320298 192.139747 
L 89.450173 192.445469 
L 89.677454 193.855009 
L 90.002141 197.579519 
L 90.52164 206.517518 
L 91.625576 226.016599 
L 91.982731 229.052175 
L 92.210012 229.595276 
L 92.307418 229.469056 
L 92.469762 228.766976 
L 92.729511 226.364503 
L 93.086667 220.613608 
L 93.606166 208.079617 
L 94.093197 193.668264 
L 94.125666 301.409311 
L 94.223072 298.43113 
L 95.099727 274.83338 
L 95.586757 267.053492 
L 95.911444 264.817274 
L 96.073788 264.621744 
L 96.203663 264.898006 
L 96.398475 265.99964 
L 96.723162 269.479585 
L 97.210192 277.568167 
L 98.444003 299.129666 
L 98.801159 301.77775 
L 98.963502 302.085741 
L 98.995971 302.075631 
L 99.125846 301.791015 
L 99.320658 300.624355 
L 99.612876 297.229826 
L 100.034969 289.137494 
L 100.684343 271.408158 
L 101.885685 238.126023 
L 102.340247 230.917907 
L 102.664934 228.604863 
L 102.827278 228.371225 
L 102.924684 228.520853 
L 103.119496 229.445891 
L 103.411714 232.265015 
L 103.866276 239.326166 
L 105.327368 264.055785 
L 105.619586 265.702746 
L 105.749461 265.83644 
L 105.781929 265.809637 
L 105.911804 265.457507 
L 106.139085 263.891481 
L 106.463772 259.60402 
L 106.918334 250.011524 
L 107.697583 227.553137 
L 108.639175 202.090102 
L 109.093737 194.784677 
L 109.418424 192.394859 
L 109.580768 192.123057 
L 109.613236 192.14161 
L 109.743111 192.453214 
L 109.970392 193.872346 
L 110.295079 197.608291 
L 110.814578 206.556831 
L 111.918514 226.040613 
L 112.27567 229.062059 
L 112.502951 229.594881 
L 112.600357 229.464085 
L 112.7627 228.75429 
L 113.02245 226.339632 
L 113.379606 220.573442 
L 113.899105 208.023283 
L 114.386135 193.606163 
L 114.418604 301.347192 
L 114.51601 298.369233 
L 115.392665 274.79096 
L 115.879696 267.031902 
L 116.204383 264.811054 
L 116.366726 264.623139 
L 116.496601 264.905299 
L 116.691413 266.015261 
L 117.0161 269.507041 
L 117.503131 277.606635 
L 118.736941 299.151725 
L 119.094097 301.785224 
L 119.256441 302.085818 
L 119.288909 302.074193 
L 119.418784 301.783447 
L 119.613596 300.607529 
L 119.905815 297.19957 
L 120.327908 289.09058 
L 120.977282 271.346937 
L 122.178624 238.084448 
L 122.633186 230.895844 
L 122.957873 228.598162 
L 123.120216 228.372151 
L 123.250091 228.624781 
L 123.444903 229.693028 
L 123.737121 232.699171 
L 124.191683 239.957145 
L 125.555369 263.47399 
L 125.880056 265.616518 
L 126.042399 265.835477 
L 126.172274 265.57537 
L 126.367086 264.445747 
L 126.659304 261.105003 
L 127.081398 253.079505 
L 127.730772 235.407905 
L 128.964582 201.387302 
L 129.419144 194.414437 
L 129.743831 192.285847 
L 129.873706 192.123512 
L 129.906175 192.143567 
L 130.036049 192.461048 
L 130.26333 193.889763 
L 130.588017 197.637124 
L 131.139985 207.227967 
L 132.211452 226.064556 
L 132.568608 229.071856 
L 132.795889 229.594391 
L 132.893295 229.459019 
L 133.055639 228.741508 
L 133.315388 226.314668 
L 133.672544 220.533198 
L 134.192043 207.966904 
L 134.679074 193.54406 
L 134.711542 301.285072 
L 134.808949 298.307346 
L 135.685603 274.748617 
L 136.172634 267.010406 
L 136.497321 264.804931 
L 136.627196 264.61209 
L 136.659665 264.624627 
L 136.789539 264.912684 
L 136.984352 266.030965 
L 137.309039 269.534561 
L 137.796069 277.645129 
L 139.02988 299.17371 
L 139.387035 301.792608 
L 139.549379 302.085801 
L 139.581848 302.072661 
L 139.711722 301.775782 
L 139.906535 300.590607 
L 140.198753 297.169224 
L 140.620846 289.043598 
L 141.27022 271.285698 
L 142.471562 238.042951 
L 142.926124 230.873876 
L 143.250811 228.591557 
L 143.413154 228.37317 
L 143.543029 228.631713 
L 143.737841 229.708318 
L 144.03006 232.725318 
L 144.51709 240.597491 
L 145.815838 263.165669 
L 146.140525 265.509833 
L 146.335338 265.834419 
L 146.465212 265.568187 
L 146.660025 264.429305 
L 146.952243 261.075104 
L 147.374336 253.032867 
L 148.02371 235.346758 
L 149.257521 201.346662 
L 149.712082 194.393509 
L 150.036769 192.2803 
L 150.166644 192.124061 
L 150.199113 192.145617 
L 150.328988 192.468973 
L 150.556269 193.907261 
L 150.880956 197.666018 
L 151.432924 207.267602 
L 152.504391 226.088428 
L 152.861547 229.081564 
L 153.088827 229.593807 
L 153.186234 229.453856 
L 153.348577 228.72863 
L 153.608327 226.289611 
L 153.965482 220.492874 
L 154.484982 207.910481 
L 154.972012 193.481954 
L 155.004481 301.222954 
L 155.101887 298.245467 
L 155.978542 274.706351 
L 156.465572 266.989004 
L 156.790259 264.798903 
L 156.920134 264.612167 
L 156.952603 264.626209 
L 157.082478 264.920158 
L 157.27729 266.046752 
L 157.601977 269.562144 
L 158.121476 278.303334 
L 159.290349 298.836212 
L 159.647505 301.672403 
L 159.842317 302.08569 
L 159.939723 301.968617 
L 160.102067 301.281965 
L 160.361817 298.903874 
L 160.718972 293.183608 
L 161.238471 280.68206 
L 163.056719 232.896227 
L 163.413874 229.19607 
L 163.641155 228.38546 
L 163.738561 228.404832 
L 163.868436 228.763357 
L 164.095717 230.258886 
L 164.452873 234.561787 
L 165.03731 245.029056 
L 165.978902 261.689975 
L 166.368526 265.225467 
L 166.595807 265.840349 
L 166.693213 265.746119 
L 166.855557 265.098025 
L 167.115306 262.78095 
L 167.472462 257.137492 
L 167.991961 244.717651 
L 169.842677 196.335287 
L 170.199833 192.817949 
L 170.427114 192.125738 
L 170.52452 192.194729 
L 170.686864 192.780461 
L 170.946613 194.86109 
L 171.336238 200.195645 
L 172.115486 215.00382 
L 172.797329 226.112229 
L 173.154485 229.091184 
L 173.381766 229.593128 
L 173.479172 229.448597 
L 173.641515 228.715655 
L 173.901265 226.264461 
L 174.258421 220.452472 
L 174.77792 207.854014 
L 175.26495 193.419846 
L 175.297419 301.160836 
L 175.394825 298.183598 
L 176.27148 274.66416 
L 176.758511 266.967698 
L 177.083198 264.792972 
L 177.213073 264.612339 
L 177.245541 264.627885 
L 177.375416 264.927722 
L 177.602697 266.327661 
L 177.927384 270.040716 
L 178.446883 278.968134 
L 179.550819 298.482422 
L 179.907975 301.532109 
L 180.135256 302.085484 
L 180.232662 301.963839 
L 180.395005 301.269473 
L 180.654755 298.879189 
L 181.011911 293.143602 
L 181.53141 280.625815 
L 183.349657 232.867049 
L 183.706813 229.183481 
L 183.934094 228.383643 
L 184.0315 228.407535 
L 184.161375 228.771909 
L 184.388656 230.276944 
L 184.745811 234.592044 
L 185.330248 245.06919 
L 186.27184 261.715583 
L 186.661465 265.235968 
L 186.888746 265.840615 
L 186.986152 265.74182 
L 187.148495 265.086015 
L 187.408245 262.75673 
L 187.765401 257.097884 
L 188.2849 244.661633 
L 190.135616 196.307105 
L 190.492771 192.806422 
L 190.720052 192.124964 
L 190.817458 192.198454 
L 190.979802 192.791401 
L 191.239552 194.882478 
L 191.629176 200.229041 
L 192.408425 215.043209 
L 193.090268 226.135959 
L 193.447423 229.100715 
L 193.674704 229.592354 
L 193.77211 229.443243 
L 193.934454 228.702583 
L 194.194203 226.239219 
L 194.551359 220.41199 
L 195.070858 207.797503 
L 195.557889 193.357737 
L 195.590358 301.098719 
L 195.687764 298.121739 
L 196.564419 274.622047 
L 197.01898 267.297213 
L 197.343667 264.892046 
L 197.506011 264.612605 
L 197.53848 264.629655 
L 197.668354 264.935377 
L 197.895635 266.344917 
L 198.220322 270.069426 
L 198.739822 279.007426 
L 199.843757 298.506507 
L 200.200913 301.542082 
L 200.428194 302.085183 
L 200.5256 301.958964 
L 200.687944 301.256884 
L 200.947693 298.854411 
L 201.304849 293.103516 
L 201.824348 280.569525 
L 203.642596 232.837961 
L 203.999751 229.170989 
L 204.227032 228.38192 
L 204.324438 228.410332 
L 204.454313 228.780551 
L 204.681594 230.295082 
L 205.03875 234.62236 
L 205.623186 245.109333 
L 206.564779 261.741124 
L 206.954403 265.246381 
L 207.181684 265.840787 
L 207.27909 265.737425 
L 207.441434 265.073909 
L 207.701183 262.732418 
L 208.058339 257.058196 
L 208.577838 244.605569 
L 210.396085 196.739349 
L 210.753241 192.989462 
L 210.980522 192.146529 
L 211.077928 192.152327 
L 211.207803 192.493285 
L 211.435084 193.960236 
L 211.759771 197.753065 
L 212.311739 207.386603 
L 213.350737 225.772592 
L 213.740362 229.110157 
L 213.935174 229.594032 
L 214.03258 229.513489 
L 214.194923 228.88852 
L 214.454673 226.608094 
L 214.811829 221.010881 
L 215.331328 208.640477 
L 215.850827 193.295625 
L 215.883296 301.036603 
L 215.980702 298.059889 
L 216.857357 274.580009 
L 217.311919 267.274585 
L 217.636606 264.884767 
L 217.798949 264.612965 
L 217.831418 264.631518 
L 217.961293 264.943121 
L 218.188574 266.362253 
L 218.513261 270.098198 
L 219.03276 279.046739 
L 220.136696 298.530521 
L 220.493852 301.551967 
L 220.721132 302.084788 
L 220.818539 301.953993 
L 220.980882 301.244198 
L 221.240632 298.82954 
L 221.597787 293.06335 
L 222.117287 280.513191 
L 223.935534 232.808963 
L 224.29269 229.158593 
L 224.519971 228.380293 
L 224.617377 228.413221 
L 224.747251 228.789281 
L 224.974532 230.3133 
L 225.331688 234.652732 
L 225.916125 245.149485 
L 226.857717 261.766596 
L 227.247341 265.256707 
L 227.474622 265.840864 
L 227.572028 265.732933 
L 227.734372 265.061706 
L 227.994122 262.708012 
L 228.351277 257.018429 
L 228.870777 244.54946 
L 230.689024 196.709901 
L 231.04618 192.976584 
L 231.27346 192.144426 
L 231.370867 192.154751 
L 231.500741 192.501568 
L 231.728022 193.978055 
L 232.052709 197.782202 
L 232.604677 207.426302 
L 233.643676 225.797308 
L 234.0333 229.119511 
L 234.228112 229.59458 
L 234.325518 229.509477 
L 234.487862 228.8768 
L 234.747611 226.584155 
L 235.104767 220.971514 
L 235.624266 208.584596 
L 236.143766 193.233512 
L 236.176234 300.974488 
L 236.27364 297.99805 
L 237.150295 274.538049 
L 237.604857 267.252052 
L 237.929544 264.877584 
L 238.091888 264.61342 
L 238.189294 264.745192 
L 238.351637 265.431443 
L 238.611387 267.657216 
L 239.001011 273.15746 
L 239.877666 289.893375 
L 240.494572 299.28252 
L 240.851727 301.828173 
L 241.014071 302.084299 
L 241.111477 301.948927 
L 241.27382 301.231416 
L 241.53357 298.804576 
L 241.890726 293.023106 
L 242.410225 280.456812 
L 244.196004 233.253384 
L 244.585628 229.146294 
L 244.812909 228.378761 
L 244.910315 228.416204 
L 245.072659 228.951293 
L 245.332408 230.958436 
L 245.722033 236.208201 
L 246.468813 250.338022 
L 247.183124 262.189088 
L 247.54028 265.266945 
L 247.767561 265.840847 
L 247.864967 265.728346 
L 248.02731 265.049407 
L 248.28706 262.683513 
L 248.644216 256.978581 
L 249.163715 244.493306 
L 250.981962 196.680542 
L 251.339118 192.963802 
L 251.566399 192.142419 
L 251.663805 192.157268 
L 251.79368 192.509941 
L 252.020961 193.995953 
L 252.378116 198.286633 
L 252.962553 208.743977 
L 253.904145 225.419346 
L 254.29377 228.969924 
L 254.521051 229.595035 
L 254.618457 229.505369 
L 254.7808 228.864984 
L 255.04055 226.560122 
L 255.397706 220.932066 
L 255.917205 208.52867 
L 256.436704 193.171397 
L 256.469173 300.912375 
L 256.566579 297.93622 
L 257.443234 274.496165 
L 257.897796 267.229613 
L 258.222483 264.870498 
L 258.384826 264.613968 
L 258.482232 264.750208 
L 258.644576 265.443598 
L 258.904325 267.679644 
L 259.29395 273.191522 
L 260.170605 289.931257 
L 260.755041 298.950542 
L 261.112197 301.714715 
L 261.307009 302.083715 
L 261.404415 301.943764 
L 261.566759 301.218538 
L 261.826508 298.779519 
L 262.183664 292.982782 
L 262.703163 280.400389 
L 264.488942 233.223128 
L 264.878566 229.134091 
L 265.105847 228.377323 
L 265.203253 228.41928 
L 265.365597 228.961619 
L 265.625347 230.979296 
L 266.014971 236.241252 
L 266.761751 250.377796 
L 267.476063 262.213313 
L 267.833218 265.277094 
L 268.060499 265.840736 
L 268.157905 265.723664 
L 268.320249 265.037011 
L 268.579998 262.65892 
L 268.937154 256.938654 
L 269.456653 244.437106 
L 271.274901 196.651273 
L 271.632056 192.951116 
L 271.859337 192.140506 
L 271.956743 192.159878 
L 272.086618 192.518404 
L 272.313899 194.013932 
L 272.671055 198.316833 
L 273.255491 208.784102 
L 274.197084 225.445021 
L 274.586708 228.980513 
L 274.813989 229.595395 
L 274.911395 229.501165 
L 275.073739 228.853071 
L 275.333488 226.535996 
L 275.690644 220.892538 
L 276.210143 208.472698 
L 276.729642 193.109281 
L 276.762111 300.850263 
L 276.859517 297.874401 
L 277.736172 274.454359 
L 278.190734 267.207268 
L 278.515421 264.863508 
L 278.677765 264.614611 
L 278.775171 264.755316 
L 278.937514 265.45584 
L 279.197264 267.702145 
L 279.619357 273.777533 
L 281.307729 301.22974 
L 281.567479 302.08256 
L 281.664885 302.011134 
L 281.827229 301.401578 
L 282.054509 299.512891 
L 282.379196 294.790832 
L 282.866227 283.862112 
L 283.840288 255.112399 
L 284.587068 236.486051 
L 285.04163 230.091059 
L 285.333848 228.46618 
L 285.463723 228.382931 
L 285.593598 228.682768 
L 285.820879 230.082707 
L 286.145566 233.795762 
L 286.665065 242.72318 
L 287.769001 262.237468 
L 288.126157 265.287155 
L 288.353438 265.84053 
L 288.450844 265.718885 
L 288.613187 265.024519 
L 288.872937 262.634235 
L 289.230092 256.898648 
L 289.749592 244.380861 
L 291.567839 196.622095 
L 291.924995 192.938527 
L 292.152276 192.138689 
L 292.249682 192.162582 
L 292.379557 192.526955 
L 292.606837 194.03199 
L 292.963993 198.34709 
L 293.54843 208.824236 
L 294.490022 225.47063 
L 294.879647 228.991014 
L 295.106927 229.595661 
L 295.204334 229.496866 
L 295.366677 228.841061 
L 295.626427 226.511776 
L 295.983582 220.85293 
L 296.503082 208.416679 
L 297.022581 193.047164 
L 297.05505 300.788154 
L 297.152456 297.812593 
L 298.029111 274.412629 
L 298.483672 267.185017 
L 298.808359 264.856614 
L 298.970703 264.615348 
L 299.068109 264.760516 
L 299.262921 265.677065 
L 299.55514 268.485046 
L 300.009701 275.534313 
L 301.470793 300.283161 
L 301.763011 301.942592 
L 301.892886 302.082262 
L 301.925355 302.05698 
L 302.05523 301.710994 
L 302.28251 300.155748 
L 302.607197 295.882922 
L 303.061759 286.307151 
L 303.808539 264.853765 
L 304.7826 238.377093 
L 305.237162 231.052259 
L 305.561849 228.647092 
L 305.724193 228.367651 
L 305.756661 228.384701 
L 305.886536 228.690423 
L 306.113817 230.099963 
L 306.438504 233.824473 
L 306.958003 242.762472 
L 308.061939 262.261553 
L 308.419095 265.297129 
L 308.646376 265.840229 
L 308.743782 265.71401 
L 308.906126 265.01193 
L 309.165875 262.609457 
L 309.523031 256.858562 
L 310.04253 244.324571 
L 311.860777 196.593007 
L 312.217933 192.926035 
L 312.445214 192.136966 
L 312.54262 192.165378 
L 312.672495 192.535597 
L 312.899776 194.050129 
L 313.256932 198.377406 
L 313.841368 208.864379 
L 314.78296 225.49617 
L 315.172585 229.001428 
L 315.399866 229.595833 
L 315.497272 229.492471 
L 315.659615 228.828955 
L 315.919365 226.487464 
L 316.276521 220.813242 
L 316.79602 208.360616 
L 317.315519 192.985046 
L 317.347988 300.726046 
L 317.445394 297.750795 
L 318.322049 274.370977 
L 318.776611 267.162861 
L 319.101298 264.849817 
L 319.263641 264.616179 
L 319.361047 264.765807 
L 319.55586 265.690845 
L 319.848078 268.509969 
L 320.30264 275.57112 
L 321.763731 300.300739 
L 322.05595 301.9477 
L 322.185824 302.081394 
L 322.218293 302.054591 
L 322.348168 301.702461 
L 322.575449 300.136435 
L 322.900136 295.848974 
L 323.354698 286.256477 
L 324.133946 263.798091 
L 325.075539 238.335055 
L 325.530101 231.029631 
L 325.854788 228.639813 
L 326.017131 228.368011 
L 326.0496 228.386564 
L 326.179475 228.698167 
L 326.406756 230.117299 
L 326.731443 233.853245 
L 327.250942 242.801785 
L 328.354878 262.285567 
L 328.712033 265.307013 
L 328.939314 265.839834 
L 329.03672 265.709039 
L 329.199064 264.999244 
L 329.458814 262.584586 
L 329.815969 256.818396 
L 330.335468 244.268237 
L 332.153716 196.564009 
L 332.510871 192.913639 
L 332.738152 192.135339 
L 332.835558 192.168268 
L 332.965433 192.544327 
L 333.192714 194.068346 
L 333.54987 198.407778 
L 334.134307 208.904531 
L 335.075899 225.521642 
L 335.465523 229.011753 
L 335.692804 229.59591 
L 335.79021 229.48798 
L 335.952554 228.816753 
L 336.212303 226.463058 
L 336.569459 220.773475 
L 337.088958 208.304506 
L 337.608458 192.922928 
L 337.640926 300.66394 
L 337.738332 297.689008 
L 338.614987 274.329402 
L 339.069549 267.140798 
L 339.394236 264.843116 
L 339.55658 264.617104 
L 339.686454 264.869735 
L 339.881267 265.937982 
L 340.173485 268.944125 
L 340.628047 276.202099 
L 341.991732 299.718944 
L 342.316419 301.861472 
L 342.478763 302.080431 
L 342.608638 301.820324 
L 342.80345 300.690701 
L 343.095668 297.349956 
L 343.517761 289.324459 
L 344.167135 271.652859 
L 345.400946 237.632255 
L 345.855508 230.659391 
L 346.180195 228.530801 
L 346.31007 228.368466 
L 346.342538 228.38852 
L 346.472413 228.706002 
L 346.699694 230.134717 
L 347.024381 233.882078 
L 347.576349 243.472921 
L 348.647816 262.30951 
L 349.004972 265.31681 
L 349.232253 265.839345 
L 349.329659 265.703973 
L 349.492002 264.986462 
L 349.751752 262.559622 
L 350.108908 256.778152 
L 350.628407 244.211858 
L 352.414185 197.00843 
L 352.80381 192.90134 
L 353.031091 192.133807 
L 353.128497 192.17125 
L 353.29084 192.706339 
L 353.55059 194.713482 
L 353.940214 199.963247 
L 354.686995 214.093068 
L 355.401306 225.944134 
L 355.758462 229.021991 
L 355.985743 229.595893 
L 356.083149 229.483393 
L 356.245492 228.804453 
L 356.505242 226.438559 
L 356.862398 220.733627 
L 357.381897 208.248352 
L 357.901396 192.860808 
L 357.933865 300.601837 
L 358.031271 297.627232 
L 358.907926 274.287904 
L 359.362488 267.11883 
L 359.687175 264.836511 
L 359.849518 264.618124 
L 359.979393 264.876667 
L 360.174205 265.953272 
L 360.466423 268.970272 
L 360.953454 276.842445 
L 362.252202 299.410623 
L 362.576889 301.754786 
L 362.771701 302.079373 
L 362.901576 301.813141 
L 363.096388 300.674259 
L 363.388606 297.320058 
L 363.8107 289.277821 
L 364.460074 271.591712 
L 365.693884 237.591616 
L 366.148446 230.638462 
L 366.473133 228.525254 
L 366.603008 228.369014 
L 366.635477 228.390571 
L 366.765351 228.713926 
L 366.992632 230.152215 
L 367.317319 233.910972 
L 367.869287 243.512556 
L 368.940754 262.333382 
L 369.29791 265.326518 
L 369.525191 265.838761 
L 369.622597 265.69881 
L 369.784941 264.973584 
L 370.04469 262.534565 
L 370.401846 256.737828 
L 370.921345 244.155435 
L 372.707124 196.978174 
L 373.096748 192.889137 
L 373.324029 192.132369 
L 373.421435 192.174326 
L 373.583779 192.716665 
L 373.843528 194.734342 
L 374.233153 199.996298 
L 374.979933 214.132842 
L 375.694244 225.968359 
L 376.0514 229.03214 
L 376.278681 229.595782 
L 376.376087 229.47871 
L 376.538431 228.792057 
L 376.79818 226.413967 
L 377.155336 220.6937 
L 377.674835 208.192152 
L 378.194334 192.798689 
L 378.226803 300.539736 
L 378.324209 297.565468 
L 379.200864 274.246484 
L 379.655426 267.096957 
L 379.980113 264.830002 
L 380.142456 264.619237 
L 380.272331 264.883689 
L 380.467143 265.968645 
L 380.79183 269.424866 
L 381.278861 277.491309 
L 382.512672 299.085327 
L 382.869827 301.762531 
L 383.06464 302.078221 
L 383.194514 301.805862 
L 383.389327 300.65772 
L 383.681545 297.290071 
L 384.103638 289.231114 
L 384.753012 271.530545 
L 385.986823 237.551056 
L 386.441385 230.617629 
L 386.733603 228.618554 
L 386.895946 228.369657 
L 386.993352 228.510362 
L 387.155696 229.210886 
L 387.415446 231.457191 
L 387.837539 237.532579 
L 389.525911 264.984787 
L 389.785661 265.837606 
L 389.883067 265.76618 
L 390.04541 265.156624 
L 390.272691 263.267937 
L 390.597378 258.545878 
L 391.084409 247.617158 
L 392.05847 218.867445 
L 392.80525 200.241097 
L 393.259812 193.846105 
L 393.55203 192.221226 
L 393.681905 192.137977 
L 393.81178 192.437814 
L 394.039061 193.837753 
L 394.363748 197.550808 
L 394.883247 206.478226 
L 395.987183 225.992514 
L 396.344338 229.042201 
L 396.571619 229.595576 
L 396.669025 229.473931 
L 396.831369 228.779565 
L 397.091119 226.389281 
L 397.448274 220.653694 
L 397.967774 208.135907 
L 398.454804 193.730362 
L 398.487273 301.471431 
L 398.487273 301.471431 
" clip-path="url(#p64d30b0a14)" style="fill: none; stroke: #1f77b4; stroke-width: 1.5; stroke-linecap: square"/>
   </g>
   <g id="patch_8">
    <path d="M 57.6 307.584 
L 57.6 186.624 
" style="fill: none; stroke: #000000; stroke-width: 0.8; stroke-linejoin: miter; stroke-linecap: square"/>
   </g>
   <g id="patch_9">
    <path d="M 414.72 307.584 
L 414.72 186.624 
" style="fill: none; stroke: #000000; stroke-width: 0.8; stroke-linejoin: miter; stroke-linecap: square"/>
   </g>
   <g id="patch_10">
    <path d="M 57.6 307.584 
L 414.72 307.584 
" style="fill: none; stroke: #000000; stroke-width: 0.8; stroke-linejoin: miter; stroke-linecap: square"/>
   </g>
   <g id="patch_11">
    <path d="M 57.6 186.624 
L 414.72 186.624 
" style="fill: none; stroke: #000000; stroke-width: 0.8; stroke-linejoin: miter; stroke-linecap: square"/>
   </g>
  </g>
 </g>
 <defs>
  <clipPath id="p74b1a2e2cf">
   <rect x="57.6" y="41.472" width="357.12" height="120.96"/>
  </clipPath>
  <clipPath id="p64d30b0a14">
   <rect x="57.6" y="186.624" width="357.12" height="120.96"/>
  </clipPath>
 </defs>
</svg>
