<?xml version="1.0" encoding="utf-8" standalone="no"?>
<!DOCTYPE svg PUBLIC "-//W3C//DTD SVG 1.1//EN"
  "http://www.w3.org/Graphics/SVG/1.1/DTD/svg11.dtd">
<svg xmlns:xlink="http://www.w3.org/1999/xlink" width="720pt" height="720pt" viewBox="0 0 720 720" xmlns="http://www.w3.org/2000/svg" version="1.1">
 <metadata>
  <rdf:RDF xmlns:dc="http://purl.org/dc/elements/1.1/" xmlns:cc="http://creativecommons.org/ns#" xmlns:rdf="http://www.w3.org/1999/02/22-rdf-syntax-ns#">
   <cc:Work>
    <dc:type rdf:resource="http://purl.org/dc/dcmitype/StillImage"/>
    <dc:date>2025-10-27T20:13:40.333467</dc:date>
    <dc:format>image/svg+xml</dc:format>
    <dc:creator>
     <cc:Agent>
      <dc:title>Matplotlib v3.10.1, https://matplotlib.org/</dc:title>
     </cc:Agent>
    </dc:creator>
   </cc:Work>
  </rdf:RDF>
 </metadata>
 <defs>
  <style type="text/css">*{stroke-linejoin: round; stroke-linecap: butt}</style>
 </defs>
 <g id="figure_1">
  <g id="patch_1">
   <path d="M 0 720 
L 720 720 
L 720 0 
L 0 0 
z
" style="fill: #ffffff"/>
  </g>
  <g id="axes_1">
   <g id="patch_2">
    <path d="M 90 338.4 
L 343.636364 338.4 
L 343.636364 86.4 
L 90 86.4 
z
" style="fill: #ffffff"/>
   </g>
   <g id="matplotlib.axis_1">
    <g id="xtick_1">
     <g id="line2d_1">
      <path d="M 106.725052 338.4 
L 106.725052 86.4 
" clip-path="url(#p463db2cf58)" style="fill: none; stroke: #b0b0b0; stroke-width: 0.8; stroke-linecap: square"/>
     </g>
     <g id="line2d_2">
      <defs>
       <path id="m4f2d046d19" d="M 0 0 
L 0 3.5 
" style="stroke: #000000; stroke-width: 0.8"/>
      </defs>
      <g>
       <use xlink:href="#m4f2d046d19" x="106.725052" y="338.4" style="stroke: #000000; stroke-width: 0.8"/>
      </g>
     </g>
     <g id="text_1">
      <!-- −1.5 -->
      <g transform="translate(94.583646 352.998437) scale(0.1 -0.1)">
       <defs>
        <path id="DejaVuSans-2212" d="M 678 2272 
L 4684 2272 
L 4684 1741 
L 678 1741 
L 678 2272 
z
" transform="scale(0.015625)"/>
        <path id="DejaVuSans-31" d="M 794 531 
L 1825 531 
L 1825 4091 
L 703 3866 
L 703 4441 
L 1819 4666 
L 2450 4666 
L 2450 531 
L 3481 531 
L 3481 0 
L 794 0 
L 794 531 
z
" transform="scale(0.015625)"/>
        <path id="DejaVuSans-2e" d="M 684 794 
L 1344 794 
L 1344 0 
L 684 0 
L 684 794 
z
" transform="scale(0.015625)"/>
        <path id="DejaVuSans-35" d="M 691 4666 
L 3169 4666 
L 3169 4134 
L 1269 4134 
L 1269 2991 
Q 1406 3038 1543 3061 
Q 1681 3084 1819 3084 
Q 2600 3084 3056 2656 
Q 3513 2228 3513 1497 
Q 3513 744 3044 326 
Q 2575 -91 1722 -91 
Q 1428 -91 1123 -41 
Q 819 9 494 109 
L 494 744 
Q 775 591 1075 516 
Q 1375 441 1709 441 
Q 2250 441 2565 725 
Q 2881 1009 2881 1497 
Q 2881 1984 2565 2268 
Q 2250 2553 1709 2553 
Q 1456 2553 1204 2497 
Q 953 2441 691 2322 
L 691 4666 
z
" transform="scale(0.015625)"/>
       </defs>
       <use xlink:href="#DejaVuSans-2212"/>
       <use xlink:href="#DejaVuSans-31" transform="translate(83.789062 0)"/>
       <use xlink:href="#DejaVuSans-2e" transform="translate(147.412109 0)"/>
       <use xlink:href="#DejaVuSans-35" transform="translate(179.199219 0)"/>
      </g>
     </g>
    </g>
    <g id="xtick_2">
     <g id="line2d_3">
      <path d="M 143.422762 338.4 
L 143.422762 86.4 
" clip-path="url(#p463db2cf58)" style="fill: none; stroke: #b0b0b0; stroke-width: 0.8; stroke-linecap: square"/>
     </g>
     <g id="line2d_4">
      <g>
       <use xlink:href="#m4f2d046d19" x="143.422762" y="338.4" style="stroke: #000000; stroke-width: 0.8"/>
      </g>
     </g>
     <g id="text_2">
      <!-- −1.0 -->
      <g transform="translate(131.281356 352.998437) scale(0.1 -0.1)">
       <defs>
        <path id="DejaVuSans-30" d="M 2034 4250 
Q 1547 4250 1301 3770 
Q 1056 3291 1056 2328 
Q 1056 1369 1301 889 
Q 1547 409 2034 409 
Q 2525 409 2770 889 
Q 3016 1369 3016 2328 
Q 3016 3291 2770 3770 
Q 2525 4250 2034 4250 
z
M 2034 4750 
Q 2819 4750 3233 4129 
Q 3647 3509 3647 2328 
Q 3647 1150 3233 529 
Q 2819 -91 2034 -91 
Q 1250 -91 836 529 
Q 422 1150 422 2328 
Q 422 3509 836 4129 
Q 1250 4750 2034 4750 
z
" transform="scale(0.015625)"/>
       </defs>
       <use xlink:href="#DejaVuSans-2212"/>
       <use xlink:href="#DejaVuSans-31" transform="translate(83.789062 0)"/>
       <use xlink:href="#DejaVuSans-2e" transform="translate(147.412109 0)"/>
       <use xlink:href="#DejaVuSans-30" transform="translate(179.199219 0)"/>
      </g>
     </g>
    </g>
    <g id="xtick_3">
     <g id="line2d_5">
      <path d="M 180.120472 338.4 
L 180.120472 86.4 
" clip-path="url(#p463db2cf58)" style="fill: none; stroke: #b0b0b0; stroke-width: 0.8; stroke-linecap: square"/>
     </g>
     <g id="line2d_6">
      <g>
       <use xlink:href="#m4f2d046d19" x="180.120472" y="338.4" style="stroke: #000000; stroke-width: 0.8"/>
      </g>
     </g>
     <g id="text_3">
      <!-- −0.5 -->
      <g transform="translate(167.979066 352.998437) scale(0.1 -0.1)">
       <use xlink:href="#DejaVuSans-2212"/>
       <use xlink:href="#DejaVuSans-30" transform="translate(83.789062 0)"/>
       <use xlink:href="#DejaVuSans-2e" transform="translate(147.412109 0)"/>
       <use xlink:href="#DejaVuSans-35" transform="translate(179.199219 0)"/>
      </g>
     </g>
    </g>
    <g id="xtick_4">
     <g id="line2d_7">
      <path d="M 216.818182 338.4 
L 216.818182 86.4 
" clip-path="url(#p463db2cf58)" style="fill: none; stroke: #b0b0b0; stroke-width: 0.8; stroke-linecap: square"/>
     </g>
     <g id="line2d_8">
      <g>
       <use xlink:href="#m4f2d046d19" x="216.818182" y="338.4" style="stroke: #000000; stroke-width: 0.8"/>
      </g>
     </g>
     <g id="text_4">
      <!-- 0.0 -->
      <g transform="translate(208.866619 352.998437) scale(0.1 -0.1)">
       <use xlink:href="#DejaVuSans-30"/>
       <use xlink:href="#DejaVuSans-2e" transform="translate(63.623047 0)"/>
       <use xlink:href="#DejaVuSans-30" transform="translate(95.410156 0)"/>
      </g>
     </g>
    </g>
    <g id="xtick_5">
     <g id="line2d_9">
      <path d="M 253.515892 338.4 
L 253.515892 86.4 
" clip-path="url(#p463db2cf58)" style="fill: none; stroke: #b0b0b0; stroke-width: 0.8; stroke-linecap: square"/>
     </g>
     <g id="line2d_10">
      <g>
       <use xlink:href="#m4f2d046d19" x="253.515892" y="338.4" style="stroke: #000000; stroke-width: 0.8"/>
      </g>
     </g>
     <g id="text_5">
      <!-- 0.5 -->
      <g transform="translate(245.564329 352.998437) scale(0.1 -0.1)">
       <use xlink:href="#DejaVuSans-30"/>
       <use xlink:href="#DejaVuSans-2e" transform="translate(63.623047 0)"/>
       <use xlink:href="#DejaVuSans-35" transform="translate(95.410156 0)"/>
      </g>
     </g>
    </g>
    <g id="xtick_6">
     <g id="line2d_11">
      <path d="M 290.213602 338.4 
L 290.213602 86.4 
" clip-path="url(#p463db2cf58)" style="fill: none; stroke: #b0b0b0; stroke-width: 0.8; stroke-linecap: square"/>
     </g>
     <g id="line2d_12">
      <g>
       <use xlink:href="#m4f2d046d19" x="290.213602" y="338.4" style="stroke: #000000; stroke-width: 0.8"/>
      </g>
     </g>
     <g id="text_6">
      <!-- 1.0 -->
      <g transform="translate(282.262039 352.998437) scale(0.1 -0.1)">
       <use xlink:href="#DejaVuSans-31"/>
       <use xlink:href="#DejaVuSans-2e" transform="translate(63.623047 0)"/>
       <use xlink:href="#DejaVuSans-30" transform="translate(95.410156 0)"/>
      </g>
     </g>
    </g>
    <g id="xtick_7">
     <g id="line2d_13">
      <path d="M 326.911312 338.4 
L 326.911312 86.4 
" clip-path="url(#p463db2cf58)" style="fill: none; stroke: #b0b0b0; stroke-width: 0.8; stroke-linecap: square"/>
     </g>
     <g id="line2d_14">
      <g>
       <use xlink:href="#m4f2d046d19" x="326.911312" y="338.4" style="stroke: #000000; stroke-width: 0.8"/>
      </g>
     </g>
     <g id="text_7">
      <!-- 1.5 -->
      <g transform="translate(318.959749 352.998437) scale(0.1 -0.1)">
       <use xlink:href="#DejaVuSans-31"/>
       <use xlink:href="#DejaVuSans-2e" transform="translate(63.623047 0)"/>
       <use xlink:href="#DejaVuSans-35" transform="translate(95.410156 0)"/>
      </g>
     </g>
    </g>
   </g>
   <g id="matplotlib.axis_2">
    <g id="ytick_1">
     <g id="line2d_15">
      <path d="M 90 321.782852 
L 343.636364 321.782852 
" clip-path="url(#p463db2cf58)" style="fill: none; stroke: #b0b0b0; stroke-width: 0.8; stroke-linecap: square"/>
     </g>
     <g id="line2d_16">
      <defs>
       <path id="mcd1108de9d" d="M 0 0 
L -3.5 0 
" style="stroke: #000000; stroke-width: 0.8"/>
      </defs>
      <g>
       <use xlink:href="#mcd1108de9d" x="90" y="321.782852" style="stroke: #000000; stroke-width: 0.8"/>
      </g>
     </g>
     <g id="text_8">
      <!-- −1.5 -->
      <g transform="translate(58.717187 325.582071) scale(0.1 -0.1)">
       <use xlink:href="#DejaVuSans-2212"/>
       <use xlink:href="#DejaVuSans-31" transform="translate(83.789062 0)"/>
       <use xlink:href="#DejaVuSans-2e" transform="translate(147.412109 0)"/>
       <use xlink:href="#DejaVuSans-35" transform="translate(179.199219 0)"/>
      </g>
     </g>
    </g>
    <g id="ytick_2">
     <g id="line2d_17">
      <path d="M 90 285.321901 
L 343.636364 285.321901 
" clip-path="url(#p463db2cf58)" style="fill: none; stroke: #b0b0b0; stroke-width: 0.8; stroke-linecap: square"/>
     </g>
     <g id="line2d_18">
      <g>
       <use xlink:href="#mcd1108de9d" x="90" y="285.321901" style="stroke: #000000; stroke-width: 0.8"/>
      </g>
     </g>
     <g id="text_9">
      <!-- −1.0 -->
      <g transform="translate(58.717187 289.12112) scale(0.1 -0.1)">
       <use xlink:href="#DejaVuSans-2212"/>
       <use xlink:href="#DejaVuSans-31" transform="translate(83.789062 0)"/>
       <use xlink:href="#DejaVuSans-2e" transform="translate(147.412109 0)"/>
       <use xlink:href="#DejaVuSans-30" transform="translate(179.199219 0)"/>
      </g>
     </g>
    </g>
    <g id="ytick_3">
     <g id="line2d_19">
      <path d="M 90 248.860951 
L 343.636364 248.860951 
" clip-path="url(#p463db2cf58)" style="fill: none; stroke: #b0b0b0; stroke-width: 0.8; stroke-linecap: square"/>
     </g>
     <g id="line2d_20">
      <g>
       <use xlink:href="#mcd1108de9d" x="90" y="248.860951" style="stroke: #000000; stroke-width: 0.8"/>
      </g>
     </g>
     <g id="text_10">
      <!-- −0.5 -->
      <g transform="translate(58.717187 252.660169) scale(0.1 -0.1)">
       <use xlink:href="#DejaVuSans-2212"/>
       <use xlink:href="#DejaVuSans-30" transform="translate(83.789062 0)"/>
       <use xlink:href="#DejaVuSans-2e" transform="translate(147.412109 0)"/>
       <use xlink:href="#DejaVuSans-35" transform="translate(179.199219 0)"/>
      </g>
     </g>
    </g>
    <g id="ytick_4">
     <g id="line2d_21">
      <path d="M 90 212.4 
L 343.636364 212.4 
" clip-path="url(#p463db2cf58)" style="fill: none; stroke: #b0b0b0; stroke-width: 0.8; stroke-linecap: square"/>
     </g>
     <g id="line2d_22">
      <g>
       <use xlink:href="#mcd1108de9d" x="90" y="212.4" style="stroke: #000000; stroke-width: 0.8"/>
      </g>
     </g>
     <g id="text_11">
      <!-- 0.0 -->
      <g transform="translate(67.096875 216.199219) scale(0.1 -0.1)">
       <use xlink:href="#DejaVuSans-30"/>
       <use xlink:href="#DejaVuSans-2e" transform="translate(63.623047 0)"/>
       <use xlink:href="#DejaVuSans-30" transform="translate(95.410156 0)"/>
      </g>
     </g>
    </g>
    <g id="ytick_5">
     <g id="line2d_23">
      <path d="M 90 175.939049 
L 343.636364 175.939049 
" clip-path="url(#p463db2cf58)" style="fill: none; stroke: #b0b0b0; stroke-width: 0.8; stroke-linecap: square"/>
     </g>
     <g id="line2d_24">
      <g>
       <use xlink:href="#mcd1108de9d" x="90" y="175.939049" style="stroke: #000000; stroke-width: 0.8"/>
      </g>
     </g>
     <g id="text_12">
      <!-- 0.5 -->
      <g transform="translate(67.096875 179.738268) scale(0.1 -0.1)">
       <use xlink:href="#DejaVuSans-30"/>
       <use xlink:href="#DejaVuSans-2e" transform="translate(63.623047 0)"/>
       <use xlink:href="#DejaVuSans-35" transform="translate(95.410156 0)"/>
      </g>
     </g>
    </g>
    <g id="ytick_6">
     <g id="line2d_25">
      <path d="M 90 139.478099 
L 343.636364 139.478099 
" clip-path="url(#p463db2cf58)" style="fill: none; stroke: #b0b0b0; stroke-width: 0.8; stroke-linecap: square"/>
     </g>
     <g id="line2d_26">
      <g>
       <use xlink:href="#mcd1108de9d" x="90" y="139.478099" style="stroke: #000000; stroke-width: 0.8"/>
      </g>
     </g>
     <g id="text_13">
      <!-- 1.0 -->
      <g transform="translate(67.096875 143.277318) scale(0.1 -0.1)">
       <use xlink:href="#DejaVuSans-31"/>
       <use xlink:href="#DejaVuSans-2e" transform="translate(63.623047 0)"/>
       <use xlink:href="#DejaVuSans-30" transform="translate(95.410156 0)"/>
      </g>
     </g>
    </g>
    <g id="ytick_7">
     <g id="line2d_27">
      <path d="M 90 103.017148 
L 343.636364 103.017148 
" clip-path="url(#p463db2cf58)" style="fill: none; stroke: #b0b0b0; stroke-width: 0.8; stroke-linecap: square"/>
     </g>
     <g id="line2d_28">
      <g>
       <use xlink:href="#mcd1108de9d" x="90" y="103.017148" style="stroke: #000000; stroke-width: 0.8"/>
      </g>
     </g>
     <g id="text_14">
      <!-- 1.5 -->
      <g transform="translate(67.096875 106.816367) scale(0.1 -0.1)">
       <use xlink:href="#DejaVuSans-31"/>
       <use xlink:href="#DejaVuSans-2e" transform="translate(63.623047 0)"/>
       <use xlink:href="#DejaVuSans-35" transform="translate(95.410156 0)"/>
      </g>
     </g>
    </g>
   </g>
   <g id="line2d_29">
    <path d="M 101.528926 285.321901 
L 105.566068 285.211613 
L 109.603211 284.881082 
L 113.640353 284.331309 
L 117.792843 283.538855 
L 121.945332 282.518751 
L 126.213169 281.236523 
L 130.481005 279.721608 
L 134.864188 277.928927 
L 139.362719 275.846191 
L 143.976596 273.462613 
L 148.70582 270.769184 
L 153.665738 267.684307 
L 158.85635 264.185939 
L 164.277655 260.255966 
L 169.929655 255.881225 
L 175.927695 250.957373 
L 182.50247 245.265662 
L 189.769327 238.670124 
L 198.074306 230.821175 
L 208.570876 220.576864 
L 238.791772 190.892856 
L 247.096751 183.162853 
L 254.24826 176.802562 
L 260.707689 171.346433 
L 266.705729 166.563704 
L 272.357728 162.336348 
L 277.663687 158.63741 
L 282.738952 155.361852 
L 287.69887 152.424035 
L 292.428094 149.877669 
L 297.041971 147.643409 
L 301.540502 145.711248 
L 305.923685 144.069475 
L 310.191521 142.704958 
L 314.459358 141.576031 
L 318.611847 140.707376 
L 322.764337 140.068144 
L 326.801479 139.66857 
L 330.838622 139.488995 
L 332.107438 139.478099 
L 332.107438 139.478099 
" clip-path="url(#p463db2cf58)" style="fill: none; stroke: #1f77b4; stroke-width: 1.5; stroke-linecap: square"/>
   </g>
   <g id="line2d_30">
    <path d="M 101.528926 326.945455 
L 332.107438 97.854545 
L 332.107438 97.854545 
" clip-path="url(#p463db2cf58)" style="fill: none; stroke: #ff7f0e; stroke-width: 1.5; stroke-linecap: square"/>
   </g>
   <g id="line2d_31">
    <path d="M 101.528926 170.776447 
L 106.373497 175.430965 
L 111.102721 179.668974 
L 115.831945 183.606897 
L 120.445822 187.16259 
L 125.059699 190.43972 
L 129.673576 193.443452 
L 134.287454 196.180029 
L 138.901331 198.656749 
L 143.515208 200.881937 
L 148.129085 202.864913 
L 152.858309 204.656852 
L 157.70288 206.252452 
L 162.662798 207.648891 
L 167.738063 208.846131 
L 173.044022 209.867054 
L 178.580675 210.704597 
L 184.463368 211.368912 
L 190.922796 211.869527 
L 198.189653 212.201922 
L 206.956019 212.370541 
L 222.181814 212.395258 
L 233.60116 212.255066 
L 241.560098 211.937052 
L 248.365567 211.443737 
L 254.478954 210.779502 
L 260.130954 209.94539 
L 265.55226 208.919678 
L 270.742871 207.708263 
L 275.702789 206.322605 
L 280.54736 204.738237 
L 285.276585 202.957885 
L 289.890462 200.986757 
L 294.504339 198.773908 
L 299.118216 196.309971 
L 303.616746 193.657878 
L 308.115277 190.752302 
L 312.729154 187.502761 
L 317.343031 183.975126 
L 321.956908 180.165223 
L 326.570785 176.069993 
L 331.30001 171.574253 
L 332.107438 170.776447 
L 332.107438 170.776447 
" clip-path="url(#p463db2cf58)" style="fill: none; stroke: #ff0000; stroke-width: 1.5; stroke-linecap: square"/>
   </g>
   <g id="patch_3">
    <path d="M 90 338.4 
L 90 86.4 
" style="fill: none; stroke: #000000; stroke-width: 0.8; stroke-linejoin: miter; stroke-linecap: square"/>
   </g>
   <g id="patch_4">
    <path d="M 343.636364 338.4 
L 343.636364 86.4 
" style="fill: none; stroke: #000000; stroke-width: 0.8; stroke-linejoin: miter; stroke-linecap: square"/>
   </g>
   <g id="patch_5">
    <path d="M 90 338.4 
L 343.636364 338.4 
" style="fill: none; stroke: #000000; stroke-width: 0.8; stroke-linejoin: miter; stroke-linecap: square"/>
   </g>
   <g id="patch_6">
    <path d="M 90 86.4 
L 343.636364 86.4 
" style="fill: none; stroke: #000000; stroke-width: 0.8; stroke-linejoin: miter; stroke-linecap: square"/>
   </g>
   <g id="text_15">
    <!-- $\sin(x)$ vs $x$ -->
    <g transform="translate(185.918182 80.4) scale(0.12 -0.12)">
     <defs>
      <path id="DejaVuSans-73" d="M 2834 3397 
L 2834 2853 
Q 2591 2978 2328 3040 
Q 2066 3103 1784 3103 
Q 1356 3103 1142 2972 
Q 928 2841 928 2578 
Q 928 2378 1081 2264 
Q 1234 2150 1697 2047 
L 1894 2003 
Q 2506 1872 2764 1633 
Q 3022 1394 3022 966 
Q 3022 478 2636 193 
Q 2250 -91 1575 -91 
Q 1294 -91 989 -36 
Q 684 19 347 128 
L 347 722 
Q 666 556 975 473 
Q 1284 391 1588 391 
Q 1994 391 2212 530 
Q 2431 669 2431 922 
Q 2431 1156 2273 1281 
Q 2116 1406 1581 1522 
L 1381 1569 
Q 847 1681 609 1914 
Q 372 2147 372 2553 
Q 372 3047 722 3315 
Q 1072 3584 1716 3584 
Q 2034 3584 2315 3537 
Q 2597 3491 2834 3397 
z
" transform="scale(0.015625)"/>
      <path id="DejaVuSans-69" d="M 603 3500 
L 1178 3500 
L 1178 0 
L 603 0 
L 603 3500 
z
M 603 4863 
L 1178 4863 
L 1178 4134 
L 603 4134 
L 603 4863 
z
" transform="scale(0.015625)"/>
      <path id="DejaVuSans-6e" d="M 3513 2113 
L 3513 0 
L 2938 0 
L 2938 2094 
Q 2938 2591 2744 2837 
Q 2550 3084 2163 3084 
Q 1697 3084 1428 2787 
Q 1159 2491 1159 1978 
L 1159 0 
L 581 0 
L 581 3500 
L 1159 3500 
L 1159 2956 
Q 1366 3272 1645 3428 
Q 1925 3584 2291 3584 
Q 2894 3584 3203 3211 
Q 3513 2838 3513 2113 
z
" transform="scale(0.015625)"/>
      <path id="DejaVuSans-28" d="M 1984 4856 
Q 1566 4138 1362 3434 
Q 1159 2731 1159 2009 
Q 1159 1288 1364 580 
Q 1569 -128 1984 -844 
L 1484 -844 
Q 1016 -109 783 600 
Q 550 1309 550 2009 
Q 550 2706 781 3412 
Q 1013 4119 1484 4856 
L 1984 4856 
z
" transform="scale(0.015625)"/>
      <path id="DejaVuSans-Oblique-78" d="M 3841 3500 
L 2234 1784 
L 3219 0 
L 2559 0 
L 1819 1388 
L 531 0 
L -166 0 
L 1556 1844 
L 641 3500 
L 1300 3500 
L 1972 2234 
L 3144 3500 
L 3841 3500 
z
" transform="scale(0.015625)"/>
      <path id="DejaVuSans-29" d="M 513 4856 
L 1013 4856 
Q 1481 4119 1714 3412 
Q 1947 2706 1947 2009 
Q 1947 1309 1714 600 
Q 1481 -109 1013 -844 
L 513 -844 
Q 928 -128 1133 580 
Q 1338 1288 1338 2009 
Q 1338 2731 1133 3434 
Q 928 4138 513 4856 
z
" transform="scale(0.015625)"/>
      <path id="DejaVuSans-20" transform="scale(0.015625)"/>
      <path id="DejaVuSans-76" d="M 191 3500 
L 800 3500 
L 1894 563 
L 2988 3500 
L 3597 3500 
L 2284 0 
L 1503 0 
L 191 3500 
z
" transform="scale(0.015625)"/>
     </defs>
     <use xlink:href="#DejaVuSans-73" transform="translate(0 0.015625)"/>
     <use xlink:href="#DejaVuSans-69" transform="translate(52.099609 0.015625)"/>
     <use xlink:href="#DejaVuSans-6e" transform="translate(79.882812 0.015625)"/>
     <use xlink:href="#DejaVuSans-28" transform="translate(143.261719 0.015625)"/>
     <use xlink:href="#DejaVuSans-Oblique-78" transform="translate(182.275391 0.015625)"/>
     <use xlink:href="#DejaVuSans-29" transform="translate(241.455078 0.015625)"/>
     <use xlink:href="#DejaVuSans-20" transform="translate(280.46875 0.015625)"/>
     <use xlink:href="#DejaVuSans-76" transform="translate(312.255859 0.015625)"/>
     <use xlink:href="#DejaVuSans-73" transform="translate(371.435547 0.015625)"/>
     <use xlink:href="#DejaVuSans-20" transform="translate(423.535156 0.015625)"/>
     <use xlink:href="#DejaVuSans-Oblique-78" transform="translate(455.322266 0.015625)"/>
    </g>
   </g>
   <g id="legend_1">
    <g id="patch_7">
     <path d="M 97 138.85625 
L 199.7 138.85625 
Q 201.7 138.85625 201.7 136.85625 
L 201.7 93.4 
Q 201.7 91.4 199.7 91.4 
L 97 91.4 
Q 95 91.4 95 93.4 
L 95 136.85625 
Q 95 138.85625 97 138.85625 
z
" style="fill: #ffffff; opacity: 0.8; stroke: #cccccc; stroke-linejoin: miter"/>
    </g>
    <g id="line2d_32">
     <path d="M 99 99.498438 
L 109 99.498438 
L 119 99.498438 
" style="fill: none; stroke: #1f77b4; stroke-width: 1.5; stroke-linecap: square"/>
    </g>
    <g id="text_16">
     <!-- $\sin(x)$ -->
     <g transform="translate(127 102.998438) scale(0.1 -0.1)">
      <use xlink:href="#DejaVuSans-73" transform="translate(0 0.015625)"/>
      <use xlink:href="#DejaVuSans-69" transform="translate(52.099609 0.015625)"/>
      <use xlink:href="#DejaVuSans-6e" transform="translate(79.882812 0.015625)"/>
      <use xlink:href="#DejaVuSans-28" transform="translate(143.261719 0.015625)"/>
      <use xlink:href="#DejaVuSans-Oblique-78" transform="translate(182.275391 0.015625)"/>
      <use xlink:href="#DejaVuSans-29" transform="translate(241.455078 0.015625)"/>
     </g>
    </g>
    <g id="line2d_33">
     <path d="M 99 114.176563 
L 109 114.176563 
L 119 114.176563 
" style="fill: none; stroke: #ff7f0e; stroke-width: 1.5; stroke-linecap: square"/>
    </g>
    <g id="text_17">
     <!-- $x$ -->
     <g transform="translate(127 117.676563) scale(0.1 -0.1)">
      <use xlink:href="#DejaVuSans-Oblique-78" transform="translate(0 0.3125)"/>
     </g>
    </g>
    <g id="line2d_34">
     <path d="M 99 128.95625 
L 109 128.95625 
L 119 128.95625 
" style="fill: none; stroke: #ff0000; stroke-width: 1.5; stroke-linecap: square"/>
    </g>
    <g id="text_18">
     <!-- $\epsilon = |\sin(x) - x|$ -->
     <g transform="translate(127 132.45625) scale(0.1 -0.1)">
      <defs>
       <path id="DejaVuSans-Oblique-3b5" d="M 1263 1888 
Q 925 1963 778 2166 
Q 669 2309 669 2503 
Q 669 3034 1175 3344 
Q 1575 3588 2188 3588 
Q 2425 3588 2684 3550 
Q 2944 3513 3234 3438 
L 3134 2916 
Q 2847 3006 2606 3047 
Q 2359 3088 2138 3088 
Q 1766 3088 1522 2944 
Q 1228 2772 1228 2522 
Q 1228 2356 1381 2241 
Q 1563 2103 1925 2103 
L 2409 2103 
L 2319 1628 
L 1856 1628 
Q 1425 1628 1172 1469 
Q 828 1253 828 916 
Q 828 703 1013 563 
Q 1244 388 1716 388 
Q 2006 388 2284 444 
Q 2563 503 2806 619 
L 2700 84 
Q 2403 -3 2131 -47 
Q 1859 -91 1609 -91 
Q 866 -91 516 194 
Q 250 413 250 781 
Q 250 1278 600 1584 
Q 859 1813 1263 1888 
z
" transform="scale(0.015625)"/>
       <path id="DejaVuSans-3d" d="M 678 2906 
L 4684 2906 
L 4684 2381 
L 678 2381 
L 678 2906 
z
M 678 1631 
L 4684 1631 
L 4684 1100 
L 678 1100 
L 678 1631 
z
" transform="scale(0.015625)"/>
       <path id="DejaVuSans-7c" d="M 1344 4891 
L 1344 -1509 
L 813 -1509 
L 813 4891 
L 1344 4891 
z
" transform="scale(0.015625)"/>
      </defs>
      <use xlink:href="#DejaVuSans-Oblique-3b5" transform="translate(0 0.578125)"/>
      <use xlink:href="#DejaVuSans-3d" transform="translate(73.535156 0.578125)"/>
      <use xlink:href="#DejaVuSans-7c" transform="translate(176.806641 0.578125)"/>
      <use xlink:href="#DejaVuSans-73" transform="translate(210.498047 0.578125)"/>
      <use xlink:href="#DejaVuSans-69" transform="translate(262.597656 0.578125)"/>
      <use xlink:href="#DejaVuSans-6e" transform="translate(290.380859 0.578125)"/>
      <use xlink:href="#DejaVuSans-28" transform="translate(353.759766 0.578125)"/>
      <use xlink:href="#DejaVuSans-Oblique-78" transform="translate(392.773438 0.578125)"/>
      <use xlink:href="#DejaVuSans-29" transform="translate(451.953125 0.578125)"/>
      <use xlink:href="#DejaVuSans-2212" transform="translate(510.449219 0.578125)"/>
      <use xlink:href="#DejaVuSans-Oblique-78" transform="translate(613.720703 0.578125)"/>
      <use xlink:href="#DejaVuSans-7c" transform="translate(672.900391 0.578125)"/>
     </g>
    </g>
   </g>
  </g>
  <g id="axes_2">
   <g id="patch_8">
    <path d="M 394.363636 338.4 
L 648 338.4 
L 648 86.4 
L 394.363636 86.4 
z
" style="fill: #ffffff"/>
   </g>
   <g id="matplotlib.axis_3">
    <g id="xtick_8">
     <g id="line2d_35">
      <path d="M 411.088688 338.4 
L 411.088688 86.4 
" clip-path="url(#p5d8a6e67f3)" style="fill: none; stroke: #b0b0b0; stroke-width: 0.8; stroke-linecap: square"/>
     </g>
     <g id="line2d_36">
      <g>
       <use xlink:href="#m4f2d046d19" x="411.088688" y="338.4" style="stroke: #000000; stroke-width: 0.8"/>
      </g>
     </g>
     <g id="text_19">
      <!-- −1.5 -->
      <g transform="translate(398.947282 352.998437) scale(0.1 -0.1)">
       <use xlink:href="#DejaVuSans-2212"/>
       <use xlink:href="#DejaVuSans-31" transform="translate(83.789062 0)"/>
       <use xlink:href="#DejaVuSans-2e" transform="translate(147.412109 0)"/>
       <use xlink:href="#DejaVuSans-35" transform="translate(179.199219 0)"/>
      </g>
     </g>
    </g>
    <g id="xtick_9">
     <g id="line2d_37">
      <path d="M 447.786398 338.4 
L 447.786398 86.4 
" clip-path="url(#p5d8a6e67f3)" style="fill: none; stroke: #b0b0b0; stroke-width: 0.8; stroke-linecap: square"/>
     </g>
     <g id="line2d_38">
      <g>
       <use xlink:href="#m4f2d046d19" x="447.786398" y="338.4" style="stroke: #000000; stroke-width: 0.8"/>
      </g>
     </g>
     <g id="text_20">
      <!-- −1.0 -->
      <g transform="translate(435.644992 352.998437) scale(0.1 -0.1)">
       <use xlink:href="#DejaVuSans-2212"/>
       <use xlink:href="#DejaVuSans-31" transform="translate(83.789062 0)"/>
       <use xlink:href="#DejaVuSans-2e" transform="translate(147.412109 0)"/>
       <use xlink:href="#DejaVuSans-30" transform="translate(179.199219 0)"/>
      </g>
     </g>
    </g>
    <g id="xtick_10">
     <g id="line2d_39">
      <path d="M 484.484108 338.4 
L 484.484108 86.4 
" clip-path="url(#p5d8a6e67f3)" style="fill: none; stroke: #b0b0b0; stroke-width: 0.8; stroke-linecap: square"/>
     </g>
     <g id="line2d_40">
      <g>
       <use xlink:href="#m4f2d046d19" x="484.484108" y="338.4" style="stroke: #000000; stroke-width: 0.8"/>
      </g>
     </g>
     <g id="text_21">
      <!-- −0.5 -->
      <g transform="translate(472.342702 352.998437) scale(0.1 -0.1)">
       <use xlink:href="#DejaVuSans-2212"/>
       <use xlink:href="#DejaVuSans-30" transform="translate(83.789062 0)"/>
       <use xlink:href="#DejaVuSans-2e" transform="translate(147.412109 0)"/>
       <use xlink:href="#DejaVuSans-35" transform="translate(179.199219 0)"/>
      </g>
     </g>
    </g>
    <g id="xtick_11">
     <g id="line2d_41">
      <path d="M 521.181818 338.4 
L 521.181818 86.4 
" clip-path="url(#p5d8a6e67f3)" style="fill: none; stroke: #b0b0b0; stroke-width: 0.8; stroke-linecap: square"/>
     </g>
     <g id="line2d_42">
      <g>
       <use xlink:href="#m4f2d046d19" x="521.181818" y="338.4" style="stroke: #000000; stroke-width: 0.8"/>
      </g>
     </g>
     <g id="text_22">
      <!-- 0.0 -->
      <g transform="translate(513.230256 352.998437) scale(0.1 -0.1)">
       <use xlink:href="#DejaVuSans-30"/>
       <use xlink:href="#DejaVuSans-2e" transform="translate(63.623047 0)"/>
       <use xlink:href="#DejaVuSans-30" transform="translate(95.410156 0)"/>
      </g>
     </g>
    </g>
    <g id="xtick_12">
     <g id="line2d_43">
      <path d="M 557.879528 338.4 
L 557.879528 86.4 
" clip-path="url(#p5d8a6e67f3)" style="fill: none; stroke: #b0b0b0; stroke-width: 0.8; stroke-linecap: square"/>
     </g>
     <g id="line2d_44">
      <g>
       <use xlink:href="#m4f2d046d19" x="557.879528" y="338.4" style="stroke: #000000; stroke-width: 0.8"/>
      </g>
     </g>
     <g id="text_23">
      <!-- 0.5 -->
      <g transform="translate(549.927966 352.998437) scale(0.1 -0.1)">
       <use xlink:href="#DejaVuSans-30"/>
       <use xlink:href="#DejaVuSans-2e" transform="translate(63.623047 0)"/>
       <use xlink:href="#DejaVuSans-35" transform="translate(95.410156 0)"/>
      </g>
     </g>
    </g>
    <g id="xtick_13">
     <g id="line2d_45">
      <path d="M 594.577238 338.4 
L 594.577238 86.4 
" clip-path="url(#p5d8a6e67f3)" style="fill: none; stroke: #b0b0b0; stroke-width: 0.8; stroke-linecap: square"/>
     </g>
     <g id="line2d_46">
      <g>
       <use xlink:href="#m4f2d046d19" x="594.577238" y="338.4" style="stroke: #000000; stroke-width: 0.8"/>
      </g>
     </g>
     <g id="text_24">
      <!-- 1.0 -->
      <g transform="translate(586.625676 352.998437) scale(0.1 -0.1)">
       <use xlink:href="#DejaVuSans-31"/>
       <use xlink:href="#DejaVuSans-2e" transform="translate(63.623047 0)"/>
       <use xlink:href="#DejaVuSans-30" transform="translate(95.410156 0)"/>
      </g>
     </g>
    </g>
    <g id="xtick_14">
     <g id="line2d_47">
      <path d="M 631.274948 338.4 
L 631.274948 86.4 
" clip-path="url(#p5d8a6e67f3)" style="fill: none; stroke: #b0b0b0; stroke-width: 0.8; stroke-linecap: square"/>
     </g>
     <g id="line2d_48">
      <g>
       <use xlink:href="#m4f2d046d19" x="631.274948" y="338.4" style="stroke: #000000; stroke-width: 0.8"/>
      </g>
     </g>
     <g id="text_25">
      <!-- 1.5 -->
      <g transform="translate(623.323386 352.998437) scale(0.1 -0.1)">
       <use xlink:href="#DejaVuSans-31"/>
       <use xlink:href="#DejaVuSans-2e" transform="translate(63.623047 0)"/>
       <use xlink:href="#DejaVuSans-35" transform="translate(95.410156 0)"/>
      </g>
     </g>
    </g>
   </g>
   <g id="matplotlib.axis_4">
    <g id="ytick_8">
     <g id="line2d_49">
      <path d="M 394.363636 302.624745 
L 648 302.624745 
" clip-path="url(#p5d8a6e67f3)" style="fill: none; stroke: #b0b0b0; stroke-width: 0.8; stroke-linecap: square"/>
     </g>
     <g id="line2d_50">
      <g>
       <use xlink:href="#mcd1108de9d" x="394.363636" y="302.624745" style="stroke: #000000; stroke-width: 0.8"/>
      </g>
     </g>
     <g id="text_26">
      <!-- $\mathdefault{10^{-9}}$ -->
      <g transform="translate(363.863636 306.423964) scale(0.1 -0.1)">
       <defs>
        <path id="DejaVuSans-39" d="M 703 97 
L 703 672 
Q 941 559 1184 500 
Q 1428 441 1663 441 
Q 2288 441 2617 861 
Q 2947 1281 2994 2138 
Q 2813 1869 2534 1725 
Q 2256 1581 1919 1581 
Q 1219 1581 811 2004 
Q 403 2428 403 3163 
Q 403 3881 828 4315 
Q 1253 4750 1959 4750 
Q 2769 4750 3195 4129 
Q 3622 3509 3622 2328 
Q 3622 1225 3098 567 
Q 2575 -91 1691 -91 
Q 1453 -91 1209 -44 
Q 966 3 703 97 
z
M 1959 2075 
Q 2384 2075 2632 2365 
Q 2881 2656 2881 3163 
Q 2881 3666 2632 3958 
Q 2384 4250 1959 4250 
Q 1534 4250 1286 3958 
Q 1038 3666 1038 3163 
Q 1038 2656 1286 2365 
Q 1534 2075 1959 2075 
z
" transform="scale(0.015625)"/>
       </defs>
       <use xlink:href="#DejaVuSans-31" transform="translate(0 0.765625)"/>
       <use xlink:href="#DejaVuSans-30" transform="translate(63.623047 0.765625)"/>
       <use xlink:href="#DejaVuSans-2212" transform="translate(128.203125 39.046875) scale(0.7)"/>
       <use xlink:href="#DejaVuSans-39" transform="translate(186.855469 39.046875) scale(0.7)"/>
      </g>
     </g>
    </g>
    <g id="ytick_9">
     <g id="line2d_51">
      <path d="M 394.363636 258.090702 
L 648 258.090702 
" clip-path="url(#p5d8a6e67f3)" style="fill: none; stroke: #b0b0b0; stroke-width: 0.8; stroke-linecap: square"/>
     </g>
     <g id="line2d_52">
      <g>
       <use xlink:href="#mcd1108de9d" x="394.363636" y="258.090702" style="stroke: #000000; stroke-width: 0.8"/>
      </g>
     </g>
     <g id="text_27">
      <!-- $\mathdefault{10^{-7}}$ -->
      <g transform="translate(363.863636 261.889921) scale(0.1 -0.1)">
       <defs>
        <path id="DejaVuSans-37" d="M 525 4666 
L 3525 4666 
L 3525 4397 
L 1831 0 
L 1172 0 
L 2766 4134 
L 525 4134 
L 525 4666 
z
" transform="scale(0.015625)"/>
       </defs>
       <use xlink:href="#DejaVuSans-31" transform="translate(0 0.684375)"/>
       <use xlink:href="#DejaVuSans-30" transform="translate(63.623047 0.684375)"/>
       <use xlink:href="#DejaVuSans-2212" transform="translate(128.203125 38.965625) scale(0.7)"/>
       <use xlink:href="#DejaVuSans-37" transform="translate(186.855469 38.965625) scale(0.7)"/>
      </g>
     </g>
    </g>
    <g id="ytick_10">
     <g id="line2d_53">
      <path d="M 394.363636 213.556659 
L 648 213.556659 
" clip-path="url(#p5d8a6e67f3)" style="fill: none; stroke: #b0b0b0; stroke-width: 0.8; stroke-linecap: square"/>
     </g>
     <g id="line2d_54">
      <g>
       <use xlink:href="#mcd1108de9d" x="394.363636" y="213.556659" style="stroke: #000000; stroke-width: 0.8"/>
      </g>
     </g>
     <g id="text_28">
      <!-- $\mathdefault{10^{-5}}$ -->
      <g transform="translate(363.863636 217.355878) scale(0.1 -0.1)">
       <use xlink:href="#DejaVuSans-31" transform="translate(0 0.684375)"/>
       <use xlink:href="#DejaVuSans-30" transform="translate(63.623047 0.684375)"/>
       <use xlink:href="#DejaVuSans-2212" transform="translate(128.203125 38.965625) scale(0.7)"/>
       <use xlink:href="#DejaVuSans-35" transform="translate(186.855469 38.965625) scale(0.7)"/>
      </g>
     </g>
    </g>
    <g id="ytick_11">
     <g id="line2d_55">
      <path d="M 394.363636 169.022616 
L 648 169.022616 
" clip-path="url(#p5d8a6e67f3)" style="fill: none; stroke: #b0b0b0; stroke-width: 0.8; stroke-linecap: square"/>
     </g>
     <g id="line2d_56">
      <g>
       <use xlink:href="#mcd1108de9d" x="394.363636" y="169.022616" style="stroke: #000000; stroke-width: 0.8"/>
      </g>
     </g>
     <g id="text_29">
      <!-- $\mathdefault{10^{-3}}$ -->
      <g transform="translate(363.863636 172.821834) scale(0.1 -0.1)">
       <defs>
        <path id="DejaVuSans-33" d="M 2597 2516 
Q 3050 2419 3304 2112 
Q 3559 1806 3559 1356 
Q 3559 666 3084 287 
Q 2609 -91 1734 -91 
Q 1441 -91 1130 -33 
Q 819 25 488 141 
L 488 750 
Q 750 597 1062 519 
Q 1375 441 1716 441 
Q 2309 441 2620 675 
Q 2931 909 2931 1356 
Q 2931 1769 2642 2001 
Q 2353 2234 1838 2234 
L 1294 2234 
L 1294 2753 
L 1863 2753 
Q 2328 2753 2575 2939 
Q 2822 3125 2822 3475 
Q 2822 3834 2567 4026 
Q 2313 4219 1838 4219 
Q 1578 4219 1281 4162 
Q 984 4106 628 3988 
L 628 4550 
Q 988 4650 1302 4700 
Q 1616 4750 1894 4750 
Q 2613 4750 3031 4423 
Q 3450 4097 3450 3541 
Q 3450 3153 3228 2886 
Q 3006 2619 2597 2516 
z
" transform="scale(0.015625)"/>
       </defs>
       <use xlink:href="#DejaVuSans-31" transform="translate(0 0.765625)"/>
       <use xlink:href="#DejaVuSans-30" transform="translate(63.623047 0.765625)"/>
       <use xlink:href="#DejaVuSans-2212" transform="translate(128.203125 39.046875) scale(0.7)"/>
       <use xlink:href="#DejaVuSans-33" transform="translate(186.855469 39.046875) scale(0.7)"/>
      </g>
     </g>
    </g>
    <g id="ytick_12">
     <g id="line2d_57">
      <path d="M 394.363636 124.488573 
L 648 124.488573 
" clip-path="url(#p5d8a6e67f3)" style="fill: none; stroke: #b0b0b0; stroke-width: 0.8; stroke-linecap: square"/>
     </g>
     <g id="line2d_58">
      <g>
       <use xlink:href="#mcd1108de9d" x="394.363636" y="124.488573" style="stroke: #000000; stroke-width: 0.8"/>
      </g>
     </g>
     <g id="text_30">
      <!-- $\mathdefault{10^{-1}}$ -->
      <g transform="translate(363.863636 128.287791) scale(0.1 -0.1)">
       <use xlink:href="#DejaVuSans-31" transform="translate(0 0.684375)"/>
       <use xlink:href="#DejaVuSans-30" transform="translate(63.623047 0.684375)"/>
       <use xlink:href="#DejaVuSans-2212" transform="translate(128.203125 38.965625) scale(0.7)"/>
       <use xlink:href="#DejaVuSans-31" transform="translate(186.855469 38.965625) scale(0.7)"/>
      </g>
     </g>
    </g>
   </g>
   <g id="line2d_59">
    <path d="M 521.236636 721 
L 521.239492 171.353816 
L 521.470186 155.78986 
L 521.816226 148.165222 
L 522.277614 142.88014 
L 522.854349 138.791404 
L 523.54643 135.443595 
L 524.353859 132.604132 
L 525.276634 130.136823 
L 526.314757 127.95459 
L 527.583573 125.822829 
L 528.967736 123.935771 
L 530.582593 122.121442 
L 532.428144 120.399437 
L 534.504389 118.776379 
L 536.811327 117.252035 
L 539.464307 115.762889 
L 542.578674 114.278881 
L 546.154428 112.834396 
L 550.191571 111.451061 
L 554.805448 110.111269 
L 559.99606 108.837375 
L 565.9941 107.601225 
L 572.684222 106.45421 
L 580.181773 105.397754 
L 588.486752 104.454788 
L 597.599159 103.646428 
L 607.403648 103.000635 
L 617.900219 102.53447 
L 628.74283 102.27526 
L 636.471074 102.221551 
L 636.471074 102.221551 
" clip-path="url(#p5d8a6e67f3)" style="fill: none; stroke: #1f77b4; stroke-width: 1.5; stroke-linecap: square"/>
   </g>
   <g id="line2d_60">
    <path d="M 521.236636 721 
L 521.239492 171.353815 
L 521.470186 155.789835 
L 521.816226 148.165102 
L 522.277614 142.879781 
L 522.854349 138.790567 
L 523.54643 135.441922 
L 524.353859 132.601122 
L 525.276634 130.131806 
L 526.314757 127.946706 
L 527.583573 125.810564 
L 528.967736 123.917627 
L 530.582593 122.094986 
L 532.428144 120.361565 
L 534.504389 118.723216 
L 536.926674 117.107729 
L 539.695 115.541414 
L 542.809367 114.037805 
L 546.385122 112.558158 
L 550.537612 111.083272 
L 555.382183 109.606146 
L 560.918835 108.155127 
L 567.378264 106.698567 
L 574.875814 105.244149 
L 583.526834 103.799553 
L 593.562017 102.356248 
L 605.212056 100.912993 
L 618.707647 99.472672 
L 634.279483 98.040146 
L 636.471074 97.854545 
L 636.471074 97.854545 
" clip-path="url(#p5d8a6e67f3)" style="fill: none; stroke: #ff7f0e; stroke-width: 1.5; stroke-linecap: square"/>
   </g>
   <g id="line2d_61">
    <path d="M 405.892562 107.64399 
L 415.466357 109.968211 
L 424.348071 112.351959 
L 432.537703 114.778738 
L 440.035253 117.227935 
L 446.956069 119.717409 
L 453.415497 122.276265 
L 459.29819 124.842192 
L 464.719496 127.444336 
L 469.794761 130.12764 
L 474.408638 132.816227 
L 478.676475 135.557805 
L 482.59827 138.337648 
L 486.174025 141.13552 
L 489.519086 144.029111 
L 492.633453 147.016126 
L 495.517126 150.091316 
L 498.170106 153.245232 
L 500.592391 156.462554 
L 502.89933 159.902037 
L 504.975575 163.392841 
L 506.936472 167.128966 
L 508.782023 171.149883 
L 510.39688 175.194457 
L 511.89639 179.534875 
L 513.280553 184.215849 
L 514.54937 189.292593 
L 515.702839 194.834106 
L 516.740961 200.927635 
L 517.663737 207.684631 
L 518.471165 215.248196 
L 519.163247 223.800431 
L 519.739982 233.56176 
L 520.201369 244.750242 
L 520.54741 257.37935 
L 520.893451 280.253521 
L 521.008798 295.073249 
L 521.124145 326.945455 
L 521.239492 326.945455 
L 521.470186 280.253521 
L 521.816226 257.37935 
L 522.277614 241.52346 
L 522.854349 229.255962 
L 523.54643 219.210277 
L 524.353859 210.688277 
L 525.276634 203.28093 
L 526.314757 196.726491 
L 527.468226 190.846742 
L 528.737042 185.514601 
L 530.121205 180.636138 
L 531.620715 176.139903 
L 533.235572 171.970254 
L 535.081123 167.841521 
L 537.042021 164.018013 
L 539.118266 160.455285 
L 541.425204 156.953015 
L 543.84749 153.683387 
L 546.500469 150.483558 
L 549.384142 147.368163 
L 552.383163 144.452368 
L 555.728224 141.517537 
L 559.303978 138.683482 
L 563.110427 135.949767 
L 567.262917 133.242928 
L 571.761447 130.579707 
L 576.606018 127.972267 
L 581.911977 125.375332 
L 587.563976 122.858273 
L 593.677363 120.378832 
L 600.367485 117.909304 
L 607.518995 115.507399 
L 615.362586 113.112222 
L 623.782912 110.777232 
L 632.89532 108.484803 
L 636.471074 107.64399 
L 636.471074 107.64399 
" clip-path="url(#p5d8a6e67f3)" style="fill: none; stroke: #ff0000; stroke-width: 1.5; stroke-linecap: square"/>
   </g>
   <g id="patch_9">
    <path d="M 394.363636 338.4 
L 394.363636 86.4 
" style="fill: none; stroke: #000000; stroke-width: 0.8; stroke-linejoin: miter; stroke-linecap: square"/>
   </g>
   <g id="patch_10">
    <path d="M 648 338.4 
L 648 86.4 
" style="fill: none; stroke: #000000; stroke-width: 0.8; stroke-linejoin: miter; stroke-linecap: square"/>
   </g>
   <g id="patch_11">
    <path d="M 394.363636 338.4 
L 648 338.4 
" style="fill: none; stroke: #000000; stroke-width: 0.8; stroke-linejoin: miter; stroke-linecap: square"/>
   </g>
   <g id="patch_12">
    <path d="M 394.363636 86.4 
L 648 86.4 
" style="fill: none; stroke: #000000; stroke-width: 0.8; stroke-linejoin: miter; stroke-linecap: square"/>
   </g>
   <g id="text_31">
    <!-- $\sin(x)$ vs $x$, logarithmic scale -->
    <g transform="translate(435.201818 80.4) scale(0.12 -0.12)">
     <defs>
      <path id="DejaVuSans-2c" d="M 750 794 
L 1409 794 
L 1409 256 
L 897 -744 
L 494 -744 
L 750 256 
L 750 794 
z
" transform="scale(0.015625)"/>
      <path id="DejaVuSans-6c" d="M 603 4863 
L 1178 4863 
L 1178 0 
L 603 0 
L 603 4863 
z
" transform="scale(0.015625)"/>
      <path id="DejaVuSans-6f" d="M 1959 3097 
Q 1497 3097 1228 2736 
Q 959 2375 959 1747 
Q 959 1119 1226 758 
Q 1494 397 1959 397 
Q 2419 397 2687 759 
Q 2956 1122 2956 1747 
Q 2956 2369 2687 2733 
Q 2419 3097 1959 3097 
z
M 1959 3584 
Q 2709 3584 3137 3096 
Q 3566 2609 3566 1747 
Q 3566 888 3137 398 
Q 2709 -91 1959 -91 
Q 1206 -91 779 398 
Q 353 888 353 1747 
Q 353 2609 779 3096 
Q 1206 3584 1959 3584 
z
" transform="scale(0.015625)"/>
      <path id="DejaVuSans-67" d="M 2906 1791 
Q 2906 2416 2648 2759 
Q 2391 3103 1925 3103 
Q 1463 3103 1205 2759 
Q 947 2416 947 1791 
Q 947 1169 1205 825 
Q 1463 481 1925 481 
Q 2391 481 2648 825 
Q 2906 1169 2906 1791 
z
M 3481 434 
Q 3481 -459 3084 -895 
Q 2688 -1331 1869 -1331 
Q 1566 -1331 1297 -1286 
Q 1028 -1241 775 -1147 
L 775 -588 
Q 1028 -725 1275 -790 
Q 1522 -856 1778 -856 
Q 2344 -856 2625 -561 
Q 2906 -266 2906 331 
L 2906 616 
Q 2728 306 2450 153 
Q 2172 0 1784 0 
Q 1141 0 747 490 
Q 353 981 353 1791 
Q 353 2603 747 3093 
Q 1141 3584 1784 3584 
Q 2172 3584 2450 3431 
Q 2728 3278 2906 2969 
L 2906 3500 
L 3481 3500 
L 3481 434 
z
" transform="scale(0.015625)"/>
      <path id="DejaVuSans-61" d="M 2194 1759 
Q 1497 1759 1228 1600 
Q 959 1441 959 1056 
Q 959 750 1161 570 
Q 1363 391 1709 391 
Q 2188 391 2477 730 
Q 2766 1069 2766 1631 
L 2766 1759 
L 2194 1759 
z
M 3341 1997 
L 3341 0 
L 2766 0 
L 2766 531 
Q 2569 213 2275 61 
Q 1981 -91 1556 -91 
Q 1019 -91 701 211 
Q 384 513 384 1019 
Q 384 1609 779 1909 
Q 1175 2209 1959 2209 
L 2766 2209 
L 2766 2266 
Q 2766 2663 2505 2880 
Q 2244 3097 1772 3097 
Q 1472 3097 1187 3025 
Q 903 2953 641 2809 
L 641 3341 
Q 956 3463 1253 3523 
Q 1550 3584 1831 3584 
Q 2591 3584 2966 3190 
Q 3341 2797 3341 1997 
z
" transform="scale(0.015625)"/>
      <path id="DejaVuSans-72" d="M 2631 2963 
Q 2534 3019 2420 3045 
Q 2306 3072 2169 3072 
Q 1681 3072 1420 2755 
Q 1159 2438 1159 1844 
L 1159 0 
L 581 0 
L 581 3500 
L 1159 3500 
L 1159 2956 
Q 1341 3275 1631 3429 
Q 1922 3584 2338 3584 
Q 2397 3584 2469 3576 
Q 2541 3569 2628 3553 
L 2631 2963 
z
" transform="scale(0.015625)"/>
      <path id="DejaVuSans-74" d="M 1172 4494 
L 1172 3500 
L 2356 3500 
L 2356 3053 
L 1172 3053 
L 1172 1153 
Q 1172 725 1289 603 
Q 1406 481 1766 481 
L 2356 481 
L 2356 0 
L 1766 0 
Q 1100 0 847 248 
Q 594 497 594 1153 
L 594 3053 
L 172 3053 
L 172 3500 
L 594 3500 
L 594 4494 
L 1172 4494 
z
" transform="scale(0.015625)"/>
      <path id="DejaVuSans-68" d="M 3513 2113 
L 3513 0 
L 2938 0 
L 2938 2094 
Q 2938 2591 2744 2837 
Q 2550 3084 2163 3084 
Q 1697 3084 1428 2787 
Q 1159 2491 1159 1978 
L 1159 0 
L 581 0 
L 581 4863 
L 1159 4863 
L 1159 2956 
Q 1366 3272 1645 3428 
Q 1925 3584 2291 3584 
Q 2894 3584 3203 3211 
Q 3513 2838 3513 2113 
z
" transform="scale(0.015625)"/>
      <path id="DejaVuSans-6d" d="M 3328 2828 
Q 3544 3216 3844 3400 
Q 4144 3584 4550 3584 
Q 5097 3584 5394 3201 
Q 5691 2819 5691 2113 
L 5691 0 
L 5113 0 
L 5113 2094 
Q 5113 2597 4934 2840 
Q 4756 3084 4391 3084 
Q 3944 3084 3684 2787 
Q 3425 2491 3425 1978 
L 3425 0 
L 2847 0 
L 2847 2094 
Q 2847 2600 2669 2842 
Q 2491 3084 2119 3084 
Q 1678 3084 1418 2786 
Q 1159 2488 1159 1978 
L 1159 0 
L 581 0 
L 581 3500 
L 1159 3500 
L 1159 2956 
Q 1356 3278 1631 3431 
Q 1906 3584 2284 3584 
Q 2666 3584 2933 3390 
Q 3200 3197 3328 2828 
z
" transform="scale(0.015625)"/>
      <path id="DejaVuSans-63" d="M 3122 3366 
L 3122 2828 
Q 2878 2963 2633 3030 
Q 2388 3097 2138 3097 
Q 1578 3097 1268 2742 
Q 959 2388 959 1747 
Q 959 1106 1268 751 
Q 1578 397 2138 397 
Q 2388 397 2633 464 
Q 2878 531 3122 666 
L 3122 134 
Q 2881 22 2623 -34 
Q 2366 -91 2075 -91 
Q 1284 -91 818 406 
Q 353 903 353 1747 
Q 353 2603 823 3093 
Q 1294 3584 2113 3584 
Q 2378 3584 2631 3529 
Q 2884 3475 3122 3366 
z
" transform="scale(0.015625)"/>
      <path id="DejaVuSans-65" d="M 3597 1894 
L 3597 1613 
L 953 1613 
Q 991 1019 1311 708 
Q 1631 397 2203 397 
Q 2534 397 2845 478 
Q 3156 559 3463 722 
L 3463 178 
Q 3153 47 2828 -22 
Q 2503 -91 2169 -91 
Q 1331 -91 842 396 
Q 353 884 353 1716 
Q 353 2575 817 3079 
Q 1281 3584 2069 3584 
Q 2775 3584 3186 3129 
Q 3597 2675 3597 1894 
z
M 3022 2063 
Q 3016 2534 2758 2815 
Q 2500 3097 2075 3097 
Q 1594 3097 1305 2825 
Q 1016 2553 972 2059 
L 3022 2063 
z
" transform="scale(0.015625)"/>
     </defs>
     <use xlink:href="#DejaVuSans-73" transform="translate(0 0.015625)"/>
     <use xlink:href="#DejaVuSans-69" transform="translate(52.099609 0.015625)"/>
     <use xlink:href="#DejaVuSans-6e" transform="translate(79.882812 0.015625)"/>
     <use xlink:href="#DejaVuSans-28" transform="translate(143.261719 0.015625)"/>
     <use xlink:href="#DejaVuSans-Oblique-78" transform="translate(182.275391 0.015625)"/>
     <use xlink:href="#DejaVuSans-29" transform="translate(241.455078 0.015625)"/>
     <use xlink:href="#DejaVuSans-20" transform="translate(280.46875 0.015625)"/>
     <use xlink:href="#DejaVuSans-76" transform="translate(312.255859 0.015625)"/>
     <use xlink:href="#DejaVuSans-73" transform="translate(371.435547 0.015625)"/>
     <use xlink:href="#DejaVuSans-20" transform="translate(423.535156 0.015625)"/>
     <use xlink:href="#DejaVuSans-Oblique-78" transform="translate(455.322266 0.015625)"/>
     <use xlink:href="#DejaVuSans-2c" transform="translate(514.501953 0.015625)"/>
     <use xlink:href="#DejaVuSans-20" transform="translate(546.289062 0.015625)"/>
     <use xlink:href="#DejaVuSans-6c" transform="translate(578.076172 0.015625)"/>
     <use xlink:href="#DejaVuSans-6f" transform="translate(605.859375 0.015625)"/>
     <use xlink:href="#DejaVuSans-67" transform="translate(667.041016 0.015625)"/>
     <use xlink:href="#DejaVuSans-61" transform="translate(730.517578 0.015625)"/>
     <use xlink:href="#DejaVuSans-72" transform="translate(791.796875 0.015625)"/>
     <use xlink:href="#DejaVuSans-69" transform="translate(832.910156 0.015625)"/>
     <use xlink:href="#DejaVuSans-74" transform="translate(860.693359 0.015625)"/>
     <use xlink:href="#DejaVuSans-68" transform="translate(899.902344 0.015625)"/>
     <use xlink:href="#DejaVuSans-6d" transform="translate(963.28125 0.015625)"/>
     <use xlink:href="#DejaVuSans-69" transform="translate(1060.693359 0.015625)"/>
     <use xlink:href="#DejaVuSans-63" transform="translate(1088.476562 0.015625)"/>
     <use xlink:href="#DejaVuSans-20" transform="translate(1143.457031 0.015625)"/>
     <use xlink:href="#DejaVuSans-73" transform="translate(1175.244141 0.015625)"/>
     <use xlink:href="#DejaVuSans-63" transform="translate(1227.34375 0.015625)"/>
     <use xlink:href="#DejaVuSans-61" transform="translate(1282.324219 0.015625)"/>
     <use xlink:href="#DejaVuSans-6c" transform="translate(1343.603516 0.015625)"/>
     <use xlink:href="#DejaVuSans-65" transform="translate(1371.386719 0.015625)"/>
    </g>
   </g>
   <g id="legend_2">
    <g id="patch_13">
     <path d="M 401.363636 333.4 
L 504.063636 333.4 
Q 506.063636 333.4 506.063636 331.4 
L 506.063636 287.94375 
Q 506.063636 285.94375 504.063636 285.94375 
L 401.363636 285.94375 
Q 399.363636 285.94375 399.363636 287.94375 
L 399.363636 331.4 
Q 399.363636 333.4 401.363636 333.4 
z
" style="fill: #ffffff; opacity: 0.8; stroke: #cccccc; stroke-linejoin: miter"/>
    </g>
    <g id="line2d_62">
     <path d="M 403.363636 294.042187 
L 413.363636 294.042187 
L 423.363636 294.042187 
" style="fill: none; stroke: #1f77b4; stroke-width: 1.5; stroke-linecap: square"/>
    </g>
    <g id="text_32">
     <!-- $\sin(x)$ -->
     <g transform="translate(431.363636 297.542187) scale(0.1 -0.1)">
      <use xlink:href="#DejaVuSans-73" transform="translate(0 0.015625)"/>
      <use xlink:href="#DejaVuSans-69" transform="translate(52.099609 0.015625)"/>
      <use xlink:href="#DejaVuSans-6e" transform="translate(79.882812 0.015625)"/>
      <use xlink:href="#DejaVuSans-28" transform="translate(143.261719 0.015625)"/>
      <use xlink:href="#DejaVuSans-Oblique-78" transform="translate(182.275391 0.015625)"/>
      <use xlink:href="#DejaVuSans-29" transform="translate(241.455078 0.015625)"/>
     </g>
    </g>
    <g id="line2d_63">
     <path d="M 403.363636 308.720312 
L 413.363636 308.720312 
L 423.363636 308.720312 
" style="fill: none; stroke: #ff7f0e; stroke-width: 1.5; stroke-linecap: square"/>
    </g>
    <g id="text_33">
     <!-- $x$ -->
     <g transform="translate(431.363636 312.220312) scale(0.1 -0.1)">
      <use xlink:href="#DejaVuSans-Oblique-78" transform="translate(0 0.3125)"/>
     </g>
    </g>
    <g id="line2d_64">
     <path d="M 403.363636 323.5 
L 413.363636 323.5 
L 423.363636 323.5 
" style="fill: none; stroke: #ff0000; stroke-width: 1.5; stroke-linecap: square"/>
    </g>
    <g id="text_34">
     <!-- $\epsilon = |\sin(x) - x|$ -->
     <g transform="translate(431.363636 327) scale(0.1 -0.1)">
      <use xlink:href="#DejaVuSans-Oblique-3b5" transform="translate(0 0.578125)"/>
      <use xlink:href="#DejaVuSans-3d" transform="translate(73.535156 0.578125)"/>
      <use xlink:href="#DejaVuSans-7c" transform="translate(176.806641 0.578125)"/>
      <use xlink:href="#DejaVuSans-73" transform="translate(210.498047 0.578125)"/>
      <use xlink:href="#DejaVuSans-69" transform="translate(262.597656 0.578125)"/>
      <use xlink:href="#DejaVuSans-6e" transform="translate(290.380859 0.578125)"/>
      <use xlink:href="#DejaVuSans-28" transform="translate(353.759766 0.578125)"/>
      <use xlink:href="#DejaVuSans-Oblique-78" transform="translate(392.773438 0.578125)"/>
      <use xlink:href="#DejaVuSans-29" transform="translate(451.953125 0.578125)"/>
      <use xlink:href="#DejaVuSans-2212" transform="translate(510.449219 0.578125)"/>
      <use xlink:href="#DejaVuSans-Oblique-78" transform="translate(613.720703 0.578125)"/>
      <use xlink:href="#DejaVuSans-7c" transform="translate(672.900391 0.578125)"/>
     </g>
    </g>
   </g>
  </g>
  <g id="axes_3">
   <g id="patch_14">
    <path d="M 90 640.8 
L 343.636364 640.8 
L 343.636364 388.8 
L 90 388.8 
z
" style="fill: #ffffff"/>
   </g>
   <g id="matplotlib.axis_5">
    <g id="xtick_15">
     <g id="line2d_65">
      <path d="M 106.725052 640.8 
L 106.725052 388.8 
" clip-path="url(#p192ccf1e11)" style="fill: none; stroke: #b0b0b0; stroke-width: 0.8; stroke-linecap: square"/>
     </g>
     <g id="line2d_66">
      <g>
       <use xlink:href="#m4f2d046d19" x="106.725052" y="640.8" style="stroke: #000000; stroke-width: 0.8"/>
      </g>
     </g>
     <g id="text_35">
      <!-- −1.5 -->
      <g transform="translate(94.583646 655.398438) scale(0.1 -0.1)">
       <use xlink:href="#DejaVuSans-2212"/>
       <use xlink:href="#DejaVuSans-31" transform="translate(83.789062 0)"/>
       <use xlink:href="#DejaVuSans-2e" transform="translate(147.412109 0)"/>
       <use xlink:href="#DejaVuSans-35" transform="translate(179.199219 0)"/>
      </g>
     </g>
    </g>
    <g id="xtick_16">
     <g id="line2d_67">
      <path d="M 143.422762 640.8 
L 143.422762 388.8 
" clip-path="url(#p192ccf1e11)" style="fill: none; stroke: #b0b0b0; stroke-width: 0.8; stroke-linecap: square"/>
     </g>
     <g id="line2d_68">
      <g>
       <use xlink:href="#m4f2d046d19" x="143.422762" y="640.8" style="stroke: #000000; stroke-width: 0.8"/>
      </g>
     </g>
     <g id="text_36">
      <!-- −1.0 -->
      <g transform="translate(131.281356 655.398438) scale(0.1 -0.1)">
       <use xlink:href="#DejaVuSans-2212"/>
       <use xlink:href="#DejaVuSans-31" transform="translate(83.789062 0)"/>
       <use xlink:href="#DejaVuSans-2e" transform="translate(147.412109 0)"/>
       <use xlink:href="#DejaVuSans-30" transform="translate(179.199219 0)"/>
      </g>
     </g>
    </g>
    <g id="xtick_17">
     <g id="line2d_69">
      <path d="M 180.120472 640.8 
L 180.120472 388.8 
" clip-path="url(#p192ccf1e11)" style="fill: none; stroke: #b0b0b0; stroke-width: 0.8; stroke-linecap: square"/>
     </g>
     <g id="line2d_70">
      <g>
       <use xlink:href="#m4f2d046d19" x="180.120472" y="640.8" style="stroke: #000000; stroke-width: 0.8"/>
      </g>
     </g>
     <g id="text_37">
      <!-- −0.5 -->
      <g transform="translate(167.979066 655.398438) scale(0.1 -0.1)">
       <use xlink:href="#DejaVuSans-2212"/>
       <use xlink:href="#DejaVuSans-30" transform="translate(83.789062 0)"/>
       <use xlink:href="#DejaVuSans-2e" transform="translate(147.412109 0)"/>
       <use xlink:href="#DejaVuSans-35" transform="translate(179.199219 0)"/>
      </g>
     </g>
    </g>
    <g id="xtick_18">
     <g id="line2d_71">
      <path d="M 216.818182 640.8 
L 216.818182 388.8 
" clip-path="url(#p192ccf1e11)" style="fill: none; stroke: #b0b0b0; stroke-width: 0.8; stroke-linecap: square"/>
     </g>
     <g id="line2d_72">
      <g>
       <use xlink:href="#m4f2d046d19" x="216.818182" y="640.8" style="stroke: #000000; stroke-width: 0.8"/>
      </g>
     </g>
     <g id="text_38">
      <!-- 0.0 -->
      <g transform="translate(208.866619 655.398438) scale(0.1 -0.1)">
       <use xlink:href="#DejaVuSans-30"/>
       <use xlink:href="#DejaVuSans-2e" transform="translate(63.623047 0)"/>
       <use xlink:href="#DejaVuSans-30" transform="translate(95.410156 0)"/>
      </g>
     </g>
    </g>
    <g id="xtick_19">
     <g id="line2d_73">
      <path d="M 253.515892 640.8 
L 253.515892 388.8 
" clip-path="url(#p192ccf1e11)" style="fill: none; stroke: #b0b0b0; stroke-width: 0.8; stroke-linecap: square"/>
     </g>
     <g id="line2d_74">
      <g>
       <use xlink:href="#m4f2d046d19" x="253.515892" y="640.8" style="stroke: #000000; stroke-width: 0.8"/>
      </g>
     </g>
     <g id="text_39">
      <!-- 0.5 -->
      <g transform="translate(245.564329 655.398438) scale(0.1 -0.1)">
       <use xlink:href="#DejaVuSans-30"/>
       <use xlink:href="#DejaVuSans-2e" transform="translate(63.623047 0)"/>
       <use xlink:href="#DejaVuSans-35" transform="translate(95.410156 0)"/>
      </g>
     </g>
    </g>
    <g id="xtick_20">
     <g id="line2d_75">
      <path d="M 290.213602 640.8 
L 290.213602 388.8 
" clip-path="url(#p192ccf1e11)" style="fill: none; stroke: #b0b0b0; stroke-width: 0.8; stroke-linecap: square"/>
     </g>
     <g id="line2d_76">
      <g>
       <use xlink:href="#m4f2d046d19" x="290.213602" y="640.8" style="stroke: #000000; stroke-width: 0.8"/>
      </g>
     </g>
     <g id="text_40">
      <!-- 1.0 -->
      <g transform="translate(282.262039 655.398438) scale(0.1 -0.1)">
       <use xlink:href="#DejaVuSans-31"/>
       <use xlink:href="#DejaVuSans-2e" transform="translate(63.623047 0)"/>
       <use xlink:href="#DejaVuSans-30" transform="translate(95.410156 0)"/>
      </g>
     </g>
    </g>
    <g id="xtick_21">
     <g id="line2d_77">
      <path d="M 326.911312 640.8 
L 326.911312 388.8 
" clip-path="url(#p192ccf1e11)" style="fill: none; stroke: #b0b0b0; stroke-width: 0.8; stroke-linecap: square"/>
     </g>
     <g id="line2d_78">
      <g>
       <use xlink:href="#m4f2d046d19" x="326.911312" y="640.8" style="stroke: #000000; stroke-width: 0.8"/>
      </g>
     </g>
     <g id="text_41">
      <!-- 1.5 -->
      <g transform="translate(318.959749 655.398438) scale(0.1 -0.1)">
       <use xlink:href="#DejaVuSans-31"/>
       <use xlink:href="#DejaVuSans-2e" transform="translate(63.623047 0)"/>
       <use xlink:href="#DejaVuSans-35" transform="translate(95.410156 0)"/>
      </g>
     </g>
    </g>
   </g>
   <g id="matplotlib.axis_6">
    <g id="ytick_13">
     <g id="line2d_79">
      <path d="M 90 629.345455 
L 343.636364 629.345455 
" clip-path="url(#p192ccf1e11)" style="fill: none; stroke: #b0b0b0; stroke-width: 0.8; stroke-linecap: square"/>
     </g>
     <g id="line2d_80">
      <g>
       <use xlink:href="#mcd1108de9d" x="90" y="629.345455" style="stroke: #000000; stroke-width: 0.8"/>
      </g>
     </g>
     <g id="text_42">
      <!-- −1.00 -->
      <g transform="translate(52.354687 633.144673) scale(0.1 -0.1)">
       <use xlink:href="#DejaVuSans-2212"/>
       <use xlink:href="#DejaVuSans-31" transform="translate(83.789062 0)"/>
       <use xlink:href="#DejaVuSans-2e" transform="translate(147.412109 0)"/>
       <use xlink:href="#DejaVuSans-30" transform="translate(179.199219 0)"/>
       <use xlink:href="#DejaVuSans-30" transform="translate(242.822266 0)"/>
      </g>
     </g>
    </g>
    <g id="ytick_14">
     <g id="line2d_81">
      <path d="M 90 600.709091 
L 343.636364 600.709091 
" clip-path="url(#p192ccf1e11)" style="fill: none; stroke: #b0b0b0; stroke-width: 0.8; stroke-linecap: square"/>
     </g>
     <g id="line2d_82">
      <g>
       <use xlink:href="#mcd1108de9d" x="90" y="600.709091" style="stroke: #000000; stroke-width: 0.8"/>
      </g>
     </g>
     <g id="text_43">
      <!-- −0.75 -->
      <g transform="translate(52.354687 604.50831) scale(0.1 -0.1)">
       <use xlink:href="#DejaVuSans-2212"/>
       <use xlink:href="#DejaVuSans-30" transform="translate(83.789062 0)"/>
       <use xlink:href="#DejaVuSans-2e" transform="translate(147.412109 0)"/>
       <use xlink:href="#DejaVuSans-37" transform="translate(179.199219 0)"/>
       <use xlink:href="#DejaVuSans-35" transform="translate(242.822266 0)"/>
      </g>
     </g>
    </g>
    <g id="ytick_15">
     <g id="line2d_83">
      <path d="M 90 572.072727 
L 343.636364 572.072727 
" clip-path="url(#p192ccf1e11)" style="fill: none; stroke: #b0b0b0; stroke-width: 0.8; stroke-linecap: square"/>
     </g>
     <g id="line2d_84">
      <g>
       <use xlink:href="#mcd1108de9d" x="90" y="572.072727" style="stroke: #000000; stroke-width: 0.8"/>
      </g>
     </g>
     <g id="text_44">
      <!-- −0.50 -->
      <g transform="translate(52.354687 575.871946) scale(0.1 -0.1)">
       <use xlink:href="#DejaVuSans-2212"/>
       <use xlink:href="#DejaVuSans-30" transform="translate(83.789062 0)"/>
       <use xlink:href="#DejaVuSans-2e" transform="translate(147.412109 0)"/>
       <use xlink:href="#DejaVuSans-35" transform="translate(179.199219 0)"/>
       <use xlink:href="#DejaVuSans-30" transform="translate(242.822266 0)"/>
      </g>
     </g>
    </g>
    <g id="ytick_16">
     <g id="line2d_85">
      <path d="M 90 543.436364 
L 343.636364 543.436364 
" clip-path="url(#p192ccf1e11)" style="fill: none; stroke: #b0b0b0; stroke-width: 0.8; stroke-linecap: square"/>
     </g>
     <g id="line2d_86">
      <g>
       <use xlink:href="#mcd1108de9d" x="90" y="543.436364" style="stroke: #000000; stroke-width: 0.8"/>
      </g>
     </g>
     <g id="text_45">
      <!-- −0.25 -->
      <g transform="translate(52.354687 547.235582) scale(0.1 -0.1)">
       <defs>
        <path id="DejaVuSans-32" d="M 1228 531 
L 3431 531 
L 3431 0 
L 469 0 
L 469 531 
Q 828 903 1448 1529 
Q 2069 2156 2228 2338 
Q 2531 2678 2651 2914 
Q 2772 3150 2772 3378 
Q 2772 3750 2511 3984 
Q 2250 4219 1831 4219 
Q 1534 4219 1204 4116 
Q 875 4013 500 3803 
L 500 4441 
Q 881 4594 1212 4672 
Q 1544 4750 1819 4750 
Q 2544 4750 2975 4387 
Q 3406 4025 3406 3419 
Q 3406 3131 3298 2873 
Q 3191 2616 2906 2266 
Q 2828 2175 2409 1742 
Q 1991 1309 1228 531 
z
" transform="scale(0.015625)"/>
       </defs>
       <use xlink:href="#DejaVuSans-2212"/>
       <use xlink:href="#DejaVuSans-30" transform="translate(83.789062 0)"/>
       <use xlink:href="#DejaVuSans-2e" transform="translate(147.412109 0)"/>
       <use xlink:href="#DejaVuSans-32" transform="translate(179.199219 0)"/>
       <use xlink:href="#DejaVuSans-35" transform="translate(242.822266 0)"/>
      </g>
     </g>
    </g>
    <g id="ytick_17">
     <g id="line2d_87">
      <path d="M 90 514.8 
L 343.636364 514.8 
" clip-path="url(#p192ccf1e11)" style="fill: none; stroke: #b0b0b0; stroke-width: 0.8; stroke-linecap: square"/>
     </g>
     <g id="line2d_88">
      <g>
       <use xlink:href="#mcd1108de9d" x="90" y="514.8" style="stroke: #000000; stroke-width: 0.8"/>
      </g>
     </g>
     <g id="text_46">
      <!-- 0.00 -->
      <g transform="translate(60.734375 518.599219) scale(0.1 -0.1)">
       <use xlink:href="#DejaVuSans-30"/>
       <use xlink:href="#DejaVuSans-2e" transform="translate(63.623047 0)"/>
       <use xlink:href="#DejaVuSans-30" transform="translate(95.410156 0)"/>
       <use xlink:href="#DejaVuSans-30" transform="translate(159.033203 0)"/>
      </g>
     </g>
    </g>
    <g id="ytick_18">
     <g id="line2d_89">
      <path d="M 90 486.163636 
L 343.636364 486.163636 
" clip-path="url(#p192ccf1e11)" style="fill: none; stroke: #b0b0b0; stroke-width: 0.8; stroke-linecap: square"/>
     </g>
     <g id="line2d_90">
      <g>
       <use xlink:href="#mcd1108de9d" x="90" y="486.163636" style="stroke: #000000; stroke-width: 0.8"/>
      </g>
     </g>
     <g id="text_47">
      <!-- 0.25 -->
      <g transform="translate(60.734375 489.962855) scale(0.1 -0.1)">
       <use xlink:href="#DejaVuSans-30"/>
       <use xlink:href="#DejaVuSans-2e" transform="translate(63.623047 0)"/>
       <use xlink:href="#DejaVuSans-32" transform="translate(95.410156 0)"/>
       <use xlink:href="#DejaVuSans-35" transform="translate(159.033203 0)"/>
      </g>
     </g>
    </g>
    <g id="ytick_19">
     <g id="line2d_91">
      <path d="M 90 457.527273 
L 343.636364 457.527273 
" clip-path="url(#p192ccf1e11)" style="fill: none; stroke: #b0b0b0; stroke-width: 0.8; stroke-linecap: square"/>
     </g>
     <g id="line2d_92">
      <g>
       <use xlink:href="#mcd1108de9d" x="90" y="457.527273" style="stroke: #000000; stroke-width: 0.8"/>
      </g>
     </g>
     <g id="text_48">
      <!-- 0.50 -->
      <g transform="translate(60.734375 461.326491) scale(0.1 -0.1)">
       <use xlink:href="#DejaVuSans-30"/>
       <use xlink:href="#DejaVuSans-2e" transform="translate(63.623047 0)"/>
       <use xlink:href="#DejaVuSans-35" transform="translate(95.410156 0)"/>
       <use xlink:href="#DejaVuSans-30" transform="translate(159.033203 0)"/>
      </g>
     </g>
    </g>
    <g id="ytick_20">
     <g id="line2d_93">
      <path d="M 90 428.890909 
L 343.636364 428.890909 
" clip-path="url(#p192ccf1e11)" style="fill: none; stroke: #b0b0b0; stroke-width: 0.8; stroke-linecap: square"/>
     </g>
     <g id="line2d_94">
      <g>
       <use xlink:href="#mcd1108de9d" x="90" y="428.890909" style="stroke: #000000; stroke-width: 0.8"/>
      </g>
     </g>
     <g id="text_49">
      <!-- 0.75 -->
      <g transform="translate(60.734375 432.690128) scale(0.1 -0.1)">
       <use xlink:href="#DejaVuSans-30"/>
       <use xlink:href="#DejaVuSans-2e" transform="translate(63.623047 0)"/>
       <use xlink:href="#DejaVuSans-37" transform="translate(95.410156 0)"/>
       <use xlink:href="#DejaVuSans-35" transform="translate(159.033203 0)"/>
      </g>
     </g>
    </g>
    <g id="ytick_21">
     <g id="line2d_95">
      <path d="M 90 400.254545 
L 343.636364 400.254545 
" clip-path="url(#p192ccf1e11)" style="fill: none; stroke: #b0b0b0; stroke-width: 0.8; stroke-linecap: square"/>
     </g>
     <g id="line2d_96">
      <g>
       <use xlink:href="#mcd1108de9d" x="90" y="400.254545" style="stroke: #000000; stroke-width: 0.8"/>
      </g>
     </g>
     <g id="text_50">
      <!-- 1.00 -->
      <g transform="translate(60.734375 404.053764) scale(0.1 -0.1)">
       <use xlink:href="#DejaVuSans-31"/>
       <use xlink:href="#DejaVuSans-2e" transform="translate(63.623047 0)"/>
       <use xlink:href="#DejaVuSans-30" transform="translate(95.410156 0)"/>
       <use xlink:href="#DejaVuSans-30" transform="translate(159.033203 0)"/>
      </g>
     </g>
    </g>
   </g>
   <g id="line2d_97">
    <path d="M 101.528926 629.345455 
L 104.75864 629.234571 
L 107.988354 628.902134 
L 111.218068 628.348788 
L 114.447782 627.575604 
L 117.792843 626.544653 
L 121.137904 625.281629 
L 124.598312 623.733637 
L 128.058719 621.943542 
L 131.634474 619.843667 
L 135.325576 617.414648 
L 139.132025 614.638031 
L 143.05382 611.49656 
L 147.090963 607.974474 
L 151.243452 604.057839 
L 155.626636 599.614002 
L 160.240513 594.609903 
L 165.085084 589.016642 
L 170.160349 582.810781 
L 175.581654 575.823491 
L 181.464348 567.866328 
L 187.808429 558.904766 
L 194.959939 548.411292 
L 203.495611 535.478041 
L 215.95308 516.150101 
L 233.024425 489.712554 
L 241.675445 476.743585 
L 248.826955 466.41366 
L 255.171036 457.631237 
L 260.938382 450.015969 
L 266.359688 443.221343 
L 271.434953 437.213504 
L 276.279524 431.824305 
L 280.893401 427.027382 
L 285.276585 422.791202 
L 289.429074 419.080354 
L 293.466217 415.766154 
L 297.388012 412.833405 
L 301.194461 410.265187 
L 304.885563 408.043188 
L 308.461317 406.148001 
L 311.921725 404.559404 
L 315.382133 403.215814 
L 318.727194 402.152714 
L 322.072255 401.323561 
L 325.301969 400.746602 
L 328.531683 400.390458 
L 331.761397 400.255819 
L 332.107438 400.254545 
L 332.107438 400.254545 
" clip-path="url(#p192ccf1e11)" style="fill: none; stroke: #1f77b4; stroke-width: 1.5; stroke-linecap: square"/>
   </g>
   <g id="line2d_98">
    <path d="M 101.528926 628.86126 
L 104.643293 628.838519 
L 107.75766 628.598308 
L 110.987374 628.121521 
L 114.217088 627.415282 
L 117.446802 626.482287 
L 120.791863 625.280122 
L 124.136924 623.841611 
L 127.597332 622.109081 
L 131.173087 620.062799 
L 134.748841 617.762093 
L 138.439943 615.126988 
L 142.246392 612.140518 
L 146.283534 608.684241 
L 150.436024 604.830606 
L 154.70386 600.567894 
L 159.20239 595.759673 
L 163.931615 590.376209 
L 168.891533 584.392687 
L 174.197491 577.640124 
L 179.964838 569.928853 
L 186.193572 561.219782 
L 193.114388 551.153858 
L 201.30402 538.832464 
L 212.261978 521.906129 
L 234.408589 487.609379 
L 242.713568 475.219334 
L 249.74973 465.112265 
L 255.978464 456.543061 
L 261.745811 448.981471 
L 267.05177 442.38298 
L 272.011688 436.556986 
L 276.740912 431.335262 
L 281.239442 426.690785 
L 285.622625 422.485352 
L 289.775115 418.806901 
L 293.812257 415.527835 
L 297.618706 412.714269 
L 301.309808 410.25186 
L 304.885563 408.122845 
L 308.461317 406.252258 
L 311.921725 404.693267 
L 315.266786 403.425521 
L 318.611847 402.39682 
L 321.841561 401.633628 
L 325.071275 401.099242 
L 328.300989 400.79613 
L 331.415356 400.724913 
L 332.107438 400.73874 
L 332.107438 400.73874 
" clip-path="url(#p192ccf1e11)" style="fill: none; stroke: #ff7f0e; stroke-width: 1.5; stroke-linecap: square"/>
   </g>
   <g id="line2d_99">
    <path d="M 101.528926 514.315805 
L 115.716598 514.598111 
L 135.786964 514.754737 
L 176.965818 514.79966 
L 308.345971 514.696626 
L 326.801479 514.445783 
L 332.107438 514.315805 
L 332.107438 514.315805 
" clip-path="url(#p192ccf1e11)" style="fill: none; stroke: #ff0000; stroke-width: 1.5; stroke-linecap: square"/>
   </g>
   <g id="patch_15">
    <path d="M 90 640.8 
L 90 388.8 
" style="fill: none; stroke: #000000; stroke-width: 0.8; stroke-linejoin: miter; stroke-linecap: square"/>
   </g>
   <g id="patch_16">
    <path d="M 343.636364 640.8 
L 343.636364 388.8 
" style="fill: none; stroke: #000000; stroke-width: 0.8; stroke-linejoin: miter; stroke-linecap: square"/>
   </g>
   <g id="patch_17">
    <path d="M 90 640.8 
L 343.636364 640.8 
" style="fill: none; stroke: #000000; stroke-width: 0.8; stroke-linejoin: miter; stroke-linecap: square"/>
   </g>
   <g id="patch_18">
    <path d="M 90 388.8 
L 343.636364 388.8 
" style="fill: none; stroke: #000000; stroke-width: 0.8; stroke-linejoin: miter; stroke-linecap: square"/>
   </g>
   <g id="text_51">
    <!-- $\sin(x)$ vs pade -->
    <g transform="translate(174.458182 382.8) scale(0.12 -0.12)">
     <defs>
      <path id="DejaVuSans-70" d="M 1159 525 
L 1159 -1331 
L 581 -1331 
L 581 3500 
L 1159 3500 
L 1159 2969 
Q 1341 3281 1617 3432 
Q 1894 3584 2278 3584 
Q 2916 3584 3314 3078 
Q 3713 2572 3713 1747 
Q 3713 922 3314 415 
Q 2916 -91 2278 -91 
Q 1894 -91 1617 61 
Q 1341 213 1159 525 
z
M 3116 1747 
Q 3116 2381 2855 2742 
Q 2594 3103 2138 3103 
Q 1681 3103 1420 2742 
Q 1159 2381 1159 1747 
Q 1159 1113 1420 752 
Q 1681 391 2138 391 
Q 2594 391 2855 752 
Q 3116 1113 3116 1747 
z
" transform="scale(0.015625)"/>
      <path id="DejaVuSans-64" d="M 2906 2969 
L 2906 4863 
L 3481 4863 
L 3481 0 
L 2906 0 
L 2906 525 
Q 2725 213 2448 61 
Q 2172 -91 1784 -91 
Q 1150 -91 751 415 
Q 353 922 353 1747 
Q 353 2572 751 3078 
Q 1150 3584 1784 3584 
Q 2172 3584 2448 3432 
Q 2725 3281 2906 2969 
z
M 947 1747 
Q 947 1113 1208 752 
Q 1469 391 1925 391 
Q 2381 391 2643 752 
Q 2906 1113 2906 1747 
Q 2906 2381 2643 2742 
Q 2381 3103 1925 3103 
Q 1469 3103 1208 2742 
Q 947 2381 947 1747 
z
" transform="scale(0.015625)"/>
     </defs>
     <use xlink:href="#DejaVuSans-73" transform="translate(0 0.015625)"/>
     <use xlink:href="#DejaVuSans-69" transform="translate(52.099609 0.015625)"/>
     <use xlink:href="#DejaVuSans-6e" transform="translate(79.882812 0.015625)"/>
     <use xlink:href="#DejaVuSans-28" transform="translate(143.261719 0.015625)"/>
     <use xlink:href="#DejaVuSans-Oblique-78" transform="translate(182.275391 0.015625)"/>
     <use xlink:href="#DejaVuSans-29" transform="translate(241.455078 0.015625)"/>
     <use xlink:href="#DejaVuSans-20" transform="translate(280.46875 0.015625)"/>
     <use xlink:href="#DejaVuSans-76" transform="translate(312.255859 0.015625)"/>
     <use xlink:href="#DejaVuSans-73" transform="translate(371.435547 0.015625)"/>
     <use xlink:href="#DejaVuSans-20" transform="translate(423.535156 0.015625)"/>
     <use xlink:href="#DejaVuSans-70" transform="translate(455.322266 0.015625)"/>
     <use xlink:href="#DejaVuSans-61" transform="translate(518.798828 0.015625)"/>
     <use xlink:href="#DejaVuSans-64" transform="translate(580.078125 0.015625)"/>
     <use xlink:href="#DejaVuSans-65" transform="translate(643.554688 0.015625)"/>
    </g>
   </g>
   <g id="legend_3">
    <g id="patch_19">
     <path d="M 97 454.95625 
L 157.1 454.95625 
Q 159.1 454.95625 159.1 452.95625 
L 159.1 395.8 
Q 159.1 393.8 157.1 393.8 
L 97 393.8 
Q 95 393.8 95 395.8 
L 95 452.95625 
Q 95 454.95625 97 454.95625 
z
" style="fill: #ffffff; opacity: 0.8; stroke: #cccccc; stroke-linejoin: miter"/>
    </g>
    <g id="line2d_100">
     <path d="M 99 401.898438 
L 109 401.898438 
L 119 401.898438 
" style="fill: none; stroke: #1f77b4; stroke-width: 1.5; stroke-linecap: square"/>
    </g>
    <g id="text_52">
     <!-- $\sin(x)$ -->
     <g transform="translate(127 405.398438) scale(0.1 -0.1)">
      <use xlink:href="#DejaVuSans-73" transform="translate(0 0.015625)"/>
      <use xlink:href="#DejaVuSans-69" transform="translate(52.099609 0.015625)"/>
      <use xlink:href="#DejaVuSans-6e" transform="translate(79.882812 0.015625)"/>
      <use xlink:href="#DejaVuSans-28" transform="translate(143.261719 0.015625)"/>
      <use xlink:href="#DejaVuSans-Oblique-78" transform="translate(182.275391 0.015625)"/>
      <use xlink:href="#DejaVuSans-29" transform="translate(241.455078 0.015625)"/>
     </g>
    </g>
    <g id="line2d_101">
     <path d="M 99 423.678125 
L 109 423.678125 
L 119 423.678125 
" style="fill: none; stroke: #ff7f0e; stroke-width: 1.5; stroke-linecap: square"/>
    </g>
    <g id="text_53">
     <!-- $\frac{x - \frac{7x^3}{60}}{1 + \frac{x^2}{20}}$ -->
     <g transform="translate(127 427.178125) scale(0.1 -0.1)">
      <defs>
       <path id="DejaVuSans-36" d="M 2113 2584 
Q 1688 2584 1439 2293 
Q 1191 2003 1191 1497 
Q 1191 994 1439 701 
Q 1688 409 2113 409 
Q 2538 409 2786 701 
Q 3034 994 3034 1497 
Q 3034 2003 2786 2293 
Q 2538 2584 2113 2584 
z
M 3366 4563 
L 3366 3988 
Q 3128 4100 2886 4159 
Q 2644 4219 2406 4219 
Q 1781 4219 1451 3797 
Q 1122 3375 1075 2522 
Q 1259 2794 1537 2939 
Q 1816 3084 2150 3084 
Q 2853 3084 3261 2657 
Q 3669 2231 3669 1497 
Q 3669 778 3244 343 
Q 2819 -91 2113 -91 
Q 1303 -91 875 529 
Q 447 1150 447 2328 
Q 447 3434 972 4092 
Q 1497 4750 2381 4750 
Q 2619 4750 2861 4703 
Q 3103 4656 3366 4563 
z
" transform="scale(0.015625)"/>
       <path id="DejaVuSans-2b" d="M 2944 4013 
L 2944 2272 
L 4684 2272 
L 4684 1741 
L 2944 1741 
L 2944 0 
L 2419 0 
L 2419 1741 
L 678 1741 
L 678 2272 
L 2419 2272 
L 2419 4013 
L 2944 4013 
z
" transform="scale(0.015625)"/>
      </defs>
      <use xlink:href="#DejaVuSans-Oblique-78" transform="translate(0 72.127344) scale(0.7)"/>
      <use xlink:href="#DejaVuSans-2212" transform="translate(55.063477 72.127344) scale(0.7)"/>
      <use xlink:href="#DejaVuSans-37" transform="translate(127.353516 102.785156) scale(0.49)"/>
      <use xlink:href="#DejaVuSans-Oblique-78" transform="translate(158.528809 102.785156) scale(0.49)"/>
      <use xlink:href="#DejaVuSans-33" transform="translate(189.715267 121.542969) scale(0.343)"/>
      <use xlink:href="#DejaVuSans-36" transform="translate(139.353516 44.542969) scale(0.49)"/>
      <use xlink:href="#DejaVuSans-30" transform="translate(170.528809 44.542969) scale(0.49)"/>
      <use xlink:href="#DejaVuSans-31" transform="translate(10 -62.276406) scale(0.7)"/>
      <use xlink:href="#DejaVuSans-2b" transform="translate(68.173828 -62.276406) scale(0.7)"/>
      <use xlink:href="#DejaVuSans-Oblique-78" transform="translate(144.463867 -31.618594) scale(0.49)"/>
      <use xlink:href="#DejaVuSans-32" transform="translate(175.650326 -12.860781) scale(0.343)"/>
      <use xlink:href="#DejaVuSans-32" transform="translate(140.463867 -89.860781) scale(0.49)"/>
      <use xlink:href="#DejaVuSans-30" transform="translate(171.63916 -89.860781) scale(0.49)"/>
      <path d="M 127.353516 85.285156 
L 127.353516 89.660156 
L 212.877816 89.660156 
L 212.877816 85.285156 
L 127.353516 85.285156 
z
"/>
      <path d="M 0 18.84625 
L 0 25.09625 
L 221.627816 25.09625 
L 221.627816 18.84625 
L 0 18.84625 
z
"/>
      <path d="M 140.463867 -49.118594 
L 140.463867 -44.743594 
L 202.814453 -44.743594 
L 202.814453 -49.118594 
L 140.463867 -49.118594 
z
"/>
     </g>
    </g>
    <g id="line2d_102">
     <path d="M 99 445.376562 
L 109 445.376562 
L 119 445.376562 
" style="fill: none; stroke: #ff0000; stroke-width: 1.5; stroke-linecap: square"/>
    </g>
    <g id="text_54">
     <!-- error -->
     <g transform="translate(127 448.876562) scale(0.1 -0.1)">
      <use xlink:href="#DejaVuSans-65"/>
      <use xlink:href="#DejaVuSans-72" transform="translate(61.523438 0)"/>
      <use xlink:href="#DejaVuSans-72" transform="translate(100.886719 0)"/>
      <use xlink:href="#DejaVuSans-6f" transform="translate(139.75 0)"/>
      <use xlink:href="#DejaVuSans-72" transform="translate(200.931641 0)"/>
     </g>
    </g>
   </g>
  </g>
  <g id="axes_4">
   <g id="patch_20">
    <path d="M 394.363636 640.8 
L 648 640.8 
L 648 388.8 
L 394.363636 388.8 
z
" style="fill: #ffffff"/>
   </g>
   <g id="matplotlib.axis_7">
    <g id="xtick_22">
     <g id="line2d_103">
      <path d="M 411.088688 640.8 
L 411.088688 388.8 
" clip-path="url(#p63eb9b22bc)" style="fill: none; stroke: #b0b0b0; stroke-width: 0.8; stroke-linecap: square"/>
     </g>
     <g id="line2d_104">
      <g>
       <use xlink:href="#m4f2d046d19" x="411.088688" y="640.8" style="stroke: #000000; stroke-width: 0.8"/>
      </g>
     </g>
     <g id="text_55">
      <!-- −1.5 -->
      <g transform="translate(398.947282 655.398438) scale(0.1 -0.1)">
       <use xlink:href="#DejaVuSans-2212"/>
       <use xlink:href="#DejaVuSans-31" transform="translate(83.789062 0)"/>
       <use xlink:href="#DejaVuSans-2e" transform="translate(147.412109 0)"/>
       <use xlink:href="#DejaVuSans-35" transform="translate(179.199219 0)"/>
      </g>
     </g>
    </g>
    <g id="xtick_23">
     <g id="line2d_105">
      <path d="M 447.786398 640.8 
L 447.786398 388.8 
" clip-path="url(#p63eb9b22bc)" style="fill: none; stroke: #b0b0b0; stroke-width: 0.8; stroke-linecap: square"/>
     </g>
     <g id="line2d_106">
      <g>
       <use xlink:href="#m4f2d046d19" x="447.786398" y="640.8" style="stroke: #000000; stroke-width: 0.8"/>
      </g>
     </g>
     <g id="text_56">
      <!-- −1.0 -->
      <g transform="translate(435.644992 655.398438) scale(0.1 -0.1)">
       <use xlink:href="#DejaVuSans-2212"/>
       <use xlink:href="#DejaVuSans-31" transform="translate(83.789062 0)"/>
       <use xlink:href="#DejaVuSans-2e" transform="translate(147.412109 0)"/>
       <use xlink:href="#DejaVuSans-30" transform="translate(179.199219 0)"/>
      </g>
     </g>
    </g>
    <g id="xtick_24">
     <g id="line2d_107">
      <path d="M 484.484108 640.8 
L 484.484108 388.8 
" clip-path="url(#p63eb9b22bc)" style="fill: none; stroke: #b0b0b0; stroke-width: 0.8; stroke-linecap: square"/>
     </g>
     <g id="line2d_108">
      <g>
       <use xlink:href="#m4f2d046d19" x="484.484108" y="640.8" style="stroke: #000000; stroke-width: 0.8"/>
      </g>
     </g>
     <g id="text_57">
      <!-- −0.5 -->
      <g transform="translate(472.342702 655.398438) scale(0.1 -0.1)">
       <use xlink:href="#DejaVuSans-2212"/>
       <use xlink:href="#DejaVuSans-30" transform="translate(83.789062 0)"/>
       <use xlink:href="#DejaVuSans-2e" transform="translate(147.412109 0)"/>
       <use xlink:href="#DejaVuSans-35" transform="translate(179.199219 0)"/>
      </g>
     </g>
    </g>
    <g id="xtick_25">
     <g id="line2d_109">
      <path d="M 521.181818 640.8 
L 521.181818 388.8 
" clip-path="url(#p63eb9b22bc)" style="fill: none; stroke: #b0b0b0; stroke-width: 0.8; stroke-linecap: square"/>
     </g>
     <g id="line2d_110">
      <g>
       <use xlink:href="#m4f2d046d19" x="521.181818" y="640.8" style="stroke: #000000; stroke-width: 0.8"/>
      </g>
     </g>
     <g id="text_58">
      <!-- 0.0 -->
      <g transform="translate(513.230256 655.398438) scale(0.1 -0.1)">
       <use xlink:href="#DejaVuSans-30"/>
       <use xlink:href="#DejaVuSans-2e" transform="translate(63.623047 0)"/>
       <use xlink:href="#DejaVuSans-30" transform="translate(95.410156 0)"/>
      </g>
     </g>
    </g>
    <g id="xtick_26">
     <g id="line2d_111">
      <path d="M 557.879528 640.8 
L 557.879528 388.8 
" clip-path="url(#p63eb9b22bc)" style="fill: none; stroke: #b0b0b0; stroke-width: 0.8; stroke-linecap: square"/>
     </g>
     <g id="line2d_112">
      <g>
       <use xlink:href="#m4f2d046d19" x="557.879528" y="640.8" style="stroke: #000000; stroke-width: 0.8"/>
      </g>
     </g>
     <g id="text_59">
      <!-- 0.5 -->
      <g transform="translate(549.927966 655.398438) scale(0.1 -0.1)">
       <use xlink:href="#DejaVuSans-30"/>
       <use xlink:href="#DejaVuSans-2e" transform="translate(63.623047 0)"/>
       <use xlink:href="#DejaVuSans-35" transform="translate(95.410156 0)"/>
      </g>
     </g>
    </g>
    <g id="xtick_27">
     <g id="line2d_113">
      <path d="M 594.577238 640.8 
L 594.577238 388.8 
" clip-path="url(#p63eb9b22bc)" style="fill: none; stroke: #b0b0b0; stroke-width: 0.8; stroke-linecap: square"/>
     </g>
     <g id="line2d_114">
      <g>
       <use xlink:href="#m4f2d046d19" x="594.577238" y="640.8" style="stroke: #000000; stroke-width: 0.8"/>
      </g>
     </g>
     <g id="text_60">
      <!-- 1.0 -->
      <g transform="translate(586.625676 655.398438) scale(0.1 -0.1)">
       <use xlink:href="#DejaVuSans-31"/>
       <use xlink:href="#DejaVuSans-2e" transform="translate(63.623047 0)"/>
       <use xlink:href="#DejaVuSans-30" transform="translate(95.410156 0)"/>
      </g>
     </g>
    </g>
    <g id="xtick_28">
     <g id="line2d_115">
      <path d="M 631.274948 640.8 
L 631.274948 388.8 
" clip-path="url(#p63eb9b22bc)" style="fill: none; stroke: #b0b0b0; stroke-width: 0.8; stroke-linecap: square"/>
     </g>
     <g id="line2d_116">
      <g>
       <use xlink:href="#m4f2d046d19" x="631.274948" y="640.8" style="stroke: #000000; stroke-width: 0.8"/>
      </g>
     </g>
     <g id="text_61">
      <!-- 1.5 -->
      <g transform="translate(623.323386 655.398438) scale(0.1 -0.1)">
       <use xlink:href="#DejaVuSans-31"/>
       <use xlink:href="#DejaVuSans-2e" transform="translate(63.623047 0)"/>
       <use xlink:href="#DejaVuSans-35" transform="translate(95.410156 0)"/>
      </g>
     </g>
    </g>
   </g>
   <g id="matplotlib.axis_8">
    <g id="ytick_22">
     <g id="line2d_117">
      <path d="M 394.363636 612.343069 
L 648 612.343069 
" clip-path="url(#p63eb9b22bc)" style="fill: none; stroke: #b0b0b0; stroke-width: 0.8; stroke-linecap: square"/>
     </g>
     <g id="line2d_118">
      <g>
       <use xlink:href="#mcd1108de9d" x="394.363636" y="612.343069" style="stroke: #000000; stroke-width: 0.8"/>
      </g>
     </g>
     <g id="text_62">
      <!-- $\mathdefault{10^{-17}}$ -->
      <g transform="translate(359.463636 616.142288) scale(0.1 -0.1)">
       <use xlink:href="#DejaVuSans-31" transform="translate(0 0.684375)"/>
       <use xlink:href="#DejaVuSans-30" transform="translate(63.623047 0.684375)"/>
       <use xlink:href="#DejaVuSans-2212" transform="translate(128.203125 38.965625) scale(0.7)"/>
       <use xlink:href="#DejaVuSans-31" transform="translate(186.855469 38.965625) scale(0.7)"/>
       <use xlink:href="#DejaVuSans-37" transform="translate(231.391602 38.965625) scale(0.7)"/>
      </g>
     </g>
    </g>
    <g id="ytick_23">
     <g id="line2d_119">
      <path d="M 394.363636 574.915683 
L 648 574.915683 
" clip-path="url(#p63eb9b22bc)" style="fill: none; stroke: #b0b0b0; stroke-width: 0.8; stroke-linecap: square"/>
     </g>
     <g id="line2d_120">
      <g>
       <use xlink:href="#mcd1108de9d" x="394.363636" y="574.915683" style="stroke: #000000; stroke-width: 0.8"/>
      </g>
     </g>
     <g id="text_63">
      <!-- $\mathdefault{10^{-14}}$ -->
      <g transform="translate(359.463636 578.714902) scale(0.1 -0.1)">
       <defs>
        <path id="DejaVuSans-34" d="M 2419 4116 
L 825 1625 
L 2419 1625 
L 2419 4116 
z
M 2253 4666 
L 3047 4666 
L 3047 1625 
L 3713 1625 
L 3713 1100 
L 3047 1100 
L 3047 0 
L 2419 0 
L 2419 1100 
L 313 1100 
L 313 1709 
L 2253 4666 
z
" transform="scale(0.015625)"/>
       </defs>
       <use xlink:href="#DejaVuSans-31" transform="translate(0 0.684375)"/>
       <use xlink:href="#DejaVuSans-30" transform="translate(63.623047 0.684375)"/>
       <use xlink:href="#DejaVuSans-2212" transform="translate(128.203125 38.965625) scale(0.7)"/>
       <use xlink:href="#DejaVuSans-31" transform="translate(186.855469 38.965625) scale(0.7)"/>
       <use xlink:href="#DejaVuSans-34" transform="translate(231.391602 38.965625) scale(0.7)"/>
      </g>
     </g>
    </g>
    <g id="ytick_24">
     <g id="line2d_121">
      <path d="M 394.363636 537.488296 
L 648 537.488296 
" clip-path="url(#p63eb9b22bc)" style="fill: none; stroke: #b0b0b0; stroke-width: 0.8; stroke-linecap: square"/>
     </g>
     <g id="line2d_122">
      <g>
       <use xlink:href="#mcd1108de9d" x="394.363636" y="537.488296" style="stroke: #000000; stroke-width: 0.8"/>
      </g>
     </g>
     <g id="text_64">
      <!-- $\mathdefault{10^{-11}}$ -->
      <g transform="translate(359.463636 541.287515) scale(0.1 -0.1)">
       <use xlink:href="#DejaVuSans-31" transform="translate(0 0.684375)"/>
       <use xlink:href="#DejaVuSans-30" transform="translate(63.623047 0.684375)"/>
       <use xlink:href="#DejaVuSans-2212" transform="translate(128.203125 38.965625) scale(0.7)"/>
       <use xlink:href="#DejaVuSans-31" transform="translate(186.855469 38.965625) scale(0.7)"/>
       <use xlink:href="#DejaVuSans-31" transform="translate(231.391602 38.965625) scale(0.7)"/>
      </g>
     </g>
    </g>
    <g id="ytick_25">
     <g id="line2d_123">
      <path d="M 394.363636 500.06091 
L 648 500.06091 
" clip-path="url(#p63eb9b22bc)" style="fill: none; stroke: #b0b0b0; stroke-width: 0.8; stroke-linecap: square"/>
     </g>
     <g id="line2d_124">
      <g>
       <use xlink:href="#mcd1108de9d" x="394.363636" y="500.06091" style="stroke: #000000; stroke-width: 0.8"/>
      </g>
     </g>
     <g id="text_65">
      <!-- $\mathdefault{10^{-8}}$ -->
      <g transform="translate(363.863636 503.860128) scale(0.1 -0.1)">
       <defs>
        <path id="DejaVuSans-38" d="M 2034 2216 
Q 1584 2216 1326 1975 
Q 1069 1734 1069 1313 
Q 1069 891 1326 650 
Q 1584 409 2034 409 
Q 2484 409 2743 651 
Q 3003 894 3003 1313 
Q 3003 1734 2745 1975 
Q 2488 2216 2034 2216 
z
M 1403 2484 
Q 997 2584 770 2862 
Q 544 3141 544 3541 
Q 544 4100 942 4425 
Q 1341 4750 2034 4750 
Q 2731 4750 3128 4425 
Q 3525 4100 3525 3541 
Q 3525 3141 3298 2862 
Q 3072 2584 2669 2484 
Q 3125 2378 3379 2068 
Q 3634 1759 3634 1313 
Q 3634 634 3220 271 
Q 2806 -91 2034 -91 
Q 1263 -91 848 271 
Q 434 634 434 1313 
Q 434 1759 690 2068 
Q 947 2378 1403 2484 
z
M 1172 3481 
Q 1172 3119 1398 2916 
Q 1625 2713 2034 2713 
Q 2441 2713 2670 2916 
Q 2900 3119 2900 3481 
Q 2900 3844 2670 4047 
Q 2441 4250 2034 4250 
Q 1625 4250 1398 4047 
Q 1172 3844 1172 3481 
z
" transform="scale(0.015625)"/>
       </defs>
       <use xlink:href="#DejaVuSans-31" transform="translate(0 0.765625)"/>
       <use xlink:href="#DejaVuSans-30" transform="translate(63.623047 0.765625)"/>
       <use xlink:href="#DejaVuSans-2212" transform="translate(128.203125 39.046875) scale(0.7)"/>
       <use xlink:href="#DejaVuSans-38" transform="translate(186.855469 39.046875) scale(0.7)"/>
      </g>
     </g>
    </g>
    <g id="ytick_26">
     <g id="line2d_125">
      <path d="M 394.363636 462.633523 
L 648 462.633523 
" clip-path="url(#p63eb9b22bc)" style="fill: none; stroke: #b0b0b0; stroke-width: 0.8; stroke-linecap: square"/>
     </g>
     <g id="line2d_126">
      <g>
       <use xlink:href="#mcd1108de9d" x="394.363636" y="462.633523" style="stroke: #000000; stroke-width: 0.8"/>
      </g>
     </g>
     <g id="text_66">
      <!-- $\mathdefault{10^{-5}}$ -->
      <g transform="translate(363.863636 466.432742) scale(0.1 -0.1)">
       <use xlink:href="#DejaVuSans-31" transform="translate(0 0.684375)"/>
       <use xlink:href="#DejaVuSans-30" transform="translate(63.623047 0.684375)"/>
       <use xlink:href="#DejaVuSans-2212" transform="translate(128.203125 38.965625) scale(0.7)"/>
       <use xlink:href="#DejaVuSans-35" transform="translate(186.855469 38.965625) scale(0.7)"/>
      </g>
     </g>
    </g>
    <g id="ytick_27">
     <g id="line2d_127">
      <path d="M 394.363636 425.206137 
L 648 425.206137 
" clip-path="url(#p63eb9b22bc)" style="fill: none; stroke: #b0b0b0; stroke-width: 0.8; stroke-linecap: square"/>
     </g>
     <g id="line2d_128">
      <g>
       <use xlink:href="#mcd1108de9d" x="394.363636" y="425.206137" style="stroke: #000000; stroke-width: 0.8"/>
      </g>
     </g>
     <g id="text_67">
      <!-- $\mathdefault{10^{-2}}$ -->
      <g transform="translate(363.863636 429.005355) scale(0.1 -0.1)">
       <use xlink:href="#DejaVuSans-31" transform="translate(0 0.765625)"/>
       <use xlink:href="#DejaVuSans-30" transform="translate(63.623047 0.765625)"/>
       <use xlink:href="#DejaVuSans-2212" transform="translate(128.203125 39.046875) scale(0.7)"/>
       <use xlink:href="#DejaVuSans-32" transform="translate(186.855469 39.046875) scale(0.7)"/>
      </g>
     </g>
    </g>
   </g>
   <g id="line2d_129">
    <path d="M 521.236876 721 
L 521.239492 438.98806 
L 521.470186 430.267867 
L 521.816226 425.995925 
L 522.277614 423.034792 
L 522.854349 420.74395 
L 523.54643 418.868235 
L 524.353859 417.277337 
L 525.391981 415.744596 
L 526.54545 414.434492 
L 527.929614 413.193431 
L 529.659818 411.961106 
L 531.620715 410.840003 
L 534.043001 409.718845 
L 536.926674 408.636613 
L 540.387082 407.580533 
L 544.539571 406.549753 
L 549.614836 405.528858 
L 555.612877 404.55578 
L 562.764386 403.626068 
L 571.184712 402.759751 
L 581.104548 401.969282 
L 592.408547 401.295922 
L 605.09671 400.765433 
L 618.938341 400.410629 
L 633.587401 400.258728 
L 636.471074 400.254545 
L 636.471074 400.254545 
" clip-path="url(#p63eb9b22bc)" style="fill: none; stroke: #1f77b4; stroke-width: 1.5; stroke-linecap: square"/>
   </g>
   <g id="line2d_130">
    <path d="M 521.236876 721 
L 521.239492 438.98806 
L 521.470186 430.267867 
L 521.816226 425.995925 
L 522.277614 423.034792 
L 522.854349 420.74395 
L 523.54643 418.868235 
L 524.353859 417.277337 
L 525.391981 415.744596 
L 526.54545 414.434492 
L 527.929614 413.193431 
L 529.659818 411.961106 
L 531.620715 410.840003 
L 534.043001 409.718845 
L 536.926674 408.636613 
L 540.387082 407.580534 
L 544.539571 406.549755 
L 549.614836 405.528862 
L 555.612877 404.555793 
L 562.764386 403.626108 
L 571.184712 402.759874 
L 581.104548 401.969653 
L 592.408547 401.296998 
L 605.09671 400.768418 
L 618.822994 400.420499 
L 633.24136 400.278816 
L 636.471074 400.277497 
L 636.471074 400.277497 
" clip-path="url(#p63eb9b22bc)" style="fill: none; stroke: #ff7f0e; stroke-width: 1.5; stroke-linecap: square"/>
   </g>
   <g id="line2d_131">
    <path d="M 405.892562 429.871555 
L 414.543582 432.679732 
L 422.50252 435.492682 
L 430.00007 438.376543 
L 436.920886 441.273224 
L 443.380314 444.213964 
L 449.378354 447.184221 
L 455.030354 450.23038 
L 460.220966 453.275817 
L 465.065537 456.370024 
L 469.564067 459.499487 
L 473.831904 462.737902 
L 477.753699 465.987677 
L 481.444801 469.331186 
L 484.905209 472.764991 
L 488.134923 476.283002 
L 491.133943 479.875552 
L 493.902269 483.528229 
L 496.555249 487.397181 
L 498.977534 491.314766 
L 501.284473 495.467265 
L 503.476064 499.886389 
L 505.436962 504.332672 
L 507.282513 509.056686 
L 509.012717 514.094927 
L 510.627574 519.49164 
L 512.127084 525.301167 
L 513.511247 531.591234 
L 514.780064 538.447698 
L 515.933533 545.981587 
L 516.971655 554.340046 
L 517.894431 563.722832 
L 518.701859 574.41388 
L 519.393941 586.82495 
L 519.970675 601.582951 
L 520.432063 618.078689 
L 520.433032 721 
M 520.661859 721 
L 520.662757 625.589866 
L 520.778104 625.589866 
L 520.779002 721 
M 521.007935 721 
L 521.008798 629.345455 
L 521.009661 721 
M 521.353975 721 
L 521.354839 629.345455 
L 521.355702 721 
M 521.584634 721 
L 521.585532 625.589866 
L 521.700879 625.589866 
L 521.701778 721 
M 521.930605 721 
L 521.931573 618.078689 
L 522.969696 586.82495 
L 523.661777 574.41388 
L 524.469206 563.722832 
L 525.391981 554.340046 
L 526.430103 545.981587 
L 527.583573 538.447698 
L 528.852389 531.591234 
L 530.236552 525.301167 
L 531.736062 519.49164 
L 533.350919 514.094927 
L 535.081123 509.056686 
L 536.926674 504.332672 
L 539.002919 499.640448 
L 541.19451 495.248415 
L 543.501449 491.118678 
L 546.039082 487.044493 
L 548.692061 483.209889 
L 551.575734 479.443 
L 554.574754 475.889827 
L 557.804468 472.407007 
L 561.264876 469.004617 
L 564.955978 465.689155 
L 568.877774 462.464439 
L 573.14561 459.249018 
L 577.64414 456.140055 
L 582.488711 453.064589 
L 587.679323 450.036234 
L 593.215976 447.065252 
L 599.214016 444.104571 
L 605.558097 441.222901 
L 612.363566 438.376543 
L 619.630423 435.57785 
L 627.474014 432.797213 
L 635.89434 430.051426 
L 636.471074 429.871555 
L 636.471074 429.871555 
" clip-path="url(#p63eb9b22bc)" style="fill: none; stroke: #ff0000; stroke-width: 1.5; stroke-linecap: square"/>
   </g>
   <g id="patch_21">
    <path d="M 394.363636 640.8 
L 394.363636 388.8 
" style="fill: none; stroke: #000000; stroke-width: 0.8; stroke-linejoin: miter; stroke-linecap: square"/>
   </g>
   <g id="patch_22">
    <path d="M 648 640.8 
L 648 388.8 
" style="fill: none; stroke: #000000; stroke-width: 0.8; stroke-linejoin: miter; stroke-linecap: square"/>
   </g>
   <g id="patch_23">
    <path d="M 394.363636 640.8 
L 648 640.8 
" style="fill: none; stroke: #000000; stroke-width: 0.8; stroke-linejoin: miter; stroke-linecap: square"/>
   </g>
   <g id="patch_24">
    <path d="M 394.363636 388.8 
L 648 388.8 
" style="fill: none; stroke: #000000; stroke-width: 0.8; stroke-linejoin: miter; stroke-linecap: square"/>
   </g>
   <g id="text_68">
    <!-- $\sin(x)$ vs pade -->
    <g transform="translate(478.821818 382.8) scale(0.12 -0.12)">
     <use xlink:href="#DejaVuSans-73" transform="translate(0 0.015625)"/>
     <use xlink:href="#DejaVuSans-69" transform="translate(52.099609 0.015625)"/>
     <use xlink:href="#DejaVuSans-6e" transform="translate(79.882812 0.015625)"/>
     <use xlink:href="#DejaVuSans-28" transform="translate(143.261719 0.015625)"/>
     <use xlink:href="#DejaVuSans-Oblique-78" transform="translate(182.275391 0.015625)"/>
     <use xlink:href="#DejaVuSans-29" transform="translate(241.455078 0.015625)"/>
     <use xlink:href="#DejaVuSans-20" transform="translate(280.46875 0.015625)"/>
     <use xlink:href="#DejaVuSans-76" transform="translate(312.255859 0.015625)"/>
     <use xlink:href="#DejaVuSans-73" transform="translate(371.435547 0.015625)"/>
     <use xlink:href="#DejaVuSans-20" transform="translate(423.535156 0.015625)"/>
     <use xlink:href="#DejaVuSans-70" transform="translate(455.322266 0.015625)"/>
     <use xlink:href="#DejaVuSans-61" transform="translate(518.798828 0.015625)"/>
     <use xlink:href="#DejaVuSans-64" transform="translate(580.078125 0.015625)"/>
     <use xlink:href="#DejaVuSans-65" transform="translate(643.554688 0.015625)"/>
    </g>
   </g>
   <g id="legend_4">
    <g id="patch_25">
     <path d="M 401.363636 635.8 
L 461.463636 635.8 
Q 463.463636 635.8 463.463636 633.8 
L 463.463636 576.64375 
Q 463.463636 574.64375 461.463636 574.64375 
L 401.363636 574.64375 
Q 399.363636 574.64375 399.363636 576.64375 
L 399.363636 633.8 
Q 399.363636 635.8 401.363636 635.8 
z
" style="fill: #ffffff; opacity: 0.8; stroke: #cccccc; stroke-linejoin: miter"/>
    </g>
    <g id="line2d_132">
     <path d="M 403.363636 582.742188 
L 413.363636 582.742188 
L 423.363636 582.742188 
" style="fill: none; stroke: #1f77b4; stroke-width: 1.5; stroke-linecap: square"/>
    </g>
    <g id="text_69">
     <!-- $\sin(x)$ -->
     <g transform="translate(431.363636 586.242188) scale(0.1 -0.1)">
      <use xlink:href="#DejaVuSans-73" transform="translate(0 0.015625)"/>
      <use xlink:href="#DejaVuSans-69" transform="translate(52.099609 0.015625)"/>
      <use xlink:href="#DejaVuSans-6e" transform="translate(79.882812 0.015625)"/>
      <use xlink:href="#DejaVuSans-28" transform="translate(143.261719 0.015625)"/>
      <use xlink:href="#DejaVuSans-Oblique-78" transform="translate(182.275391 0.015625)"/>
      <use xlink:href="#DejaVuSans-29" transform="translate(241.455078 0.015625)"/>
     </g>
    </g>
    <g id="line2d_133">
     <path d="M 403.363636 604.521875 
L 413.363636 604.521875 
L 423.363636 604.521875 
" style="fill: none; stroke: #ff7f0e; stroke-width: 1.5; stroke-linecap: square"/>
    </g>
    <g id="text_70">
     <!-- $\frac{x - \frac{7x^3}{60}}{1 + \frac{x^2}{20}}$ -->
     <g transform="translate(431.363636 608.021875) scale(0.1 -0.1)">
      <use xlink:href="#DejaVuSans-Oblique-78" transform="translate(0 72.127344) scale(0.7)"/>
      <use xlink:href="#DejaVuSans-2212" transform="translate(55.063477 72.127344) scale(0.7)"/>
      <use xlink:href="#DejaVuSans-37" transform="translate(127.353516 102.785156) scale(0.49)"/>
      <use xlink:href="#DejaVuSans-Oblique-78" transform="translate(158.528809 102.785156) scale(0.49)"/>
      <use xlink:href="#DejaVuSans-33" transform="translate(189.715267 121.542969) scale(0.343)"/>
      <use xlink:href="#DejaVuSans-36" transform="translate(139.353516 44.542969) scale(0.49)"/>
      <use xlink:href="#DejaVuSans-30" transform="translate(170.528809 44.542969) scale(0.49)"/>
      <use xlink:href="#DejaVuSans-31" transform="translate(10 -62.276406) scale(0.7)"/>
      <use xlink:href="#DejaVuSans-2b" transform="translate(68.173828 -62.276406) scale(0.7)"/>
      <use xlink:href="#DejaVuSans-Oblique-78" transform="translate(144.463867 -31.618594) scale(0.49)"/>
      <use xlink:href="#DejaVuSans-32" transform="translate(175.650326 -12.860781) scale(0.343)"/>
      <use xlink:href="#DejaVuSans-32" transform="translate(140.463867 -89.860781) scale(0.49)"/>
      <use xlink:href="#DejaVuSans-30" transform="translate(171.63916 -89.860781) scale(0.49)"/>
      <path d="M 127.353516 85.285156 
L 127.353516 89.660156 
L 212.877816 89.660156 
L 212.877816 85.285156 
L 127.353516 85.285156 
z
"/>
      <path d="M 0 18.84625 
L 0 25.09625 
L 221.627816 25.09625 
L 221.627816 18.84625 
L 0 18.84625 
z
"/>
      <path d="M 140.463867 -49.118594 
L 140.463867 -44.743594 
L 202.814453 -44.743594 
L 202.814453 -49.118594 
L 140.463867 -49.118594 
z
"/>
     </g>
    </g>
    <g id="line2d_134">
     <path d="M 403.363636 626.220312 
L 413.363636 626.220312 
L 423.363636 626.220312 
" style="fill: none; stroke: #ff0000; stroke-width: 1.5; stroke-linecap: square"/>
    </g>
    <g id="text_71">
     <!-- error -->
     <g transform="translate(431.363636 629.720312) scale(0.1 -0.1)">
      <use xlink:href="#DejaVuSans-65"/>
      <use xlink:href="#DejaVuSans-72" transform="translate(61.523438 0)"/>
      <use xlink:href="#DejaVuSans-72" transform="translate(100.886719 0)"/>
      <use xlink:href="#DejaVuSans-6f" transform="translate(139.75 0)"/>
      <use xlink:href="#DejaVuSans-72" transform="translate(200.931641 0)"/>
     </g>
    </g>
   </g>
  </g>
 </g>
 <defs>
  <clipPath id="p463db2cf58">
   <rect x="90" y="86.4" width="253.636364" height="252"/>
  </clipPath>
  <clipPath id="p5d8a6e67f3">
   <rect x="394.363636" y="86.4" width="253.636364" height="252"/>
  </clipPath>
  <clipPath id="p192ccf1e11">
   <rect x="90" y="388.8" width="253.636364" height="252"/>
  </clipPath>
  <clipPath id="p63eb9b22bc">
   <rect x="394.363636" y="388.8" width="253.636364" height="252"/>
  </clipPath>
 </defs>
</svg>
