<?xml version="1.0" encoding="utf-8" standalone="no"?>
<!DOCTYPE svg PUBLIC "-//W3C//DTD SVG 1.1//EN"
  "http://www.w3.org/Graphics/SVG/1.1/DTD/svg11.dtd">
<svg xmlns:xlink="http://www.w3.org/1999/xlink" width="720pt" height="432pt" viewBox="0 0 720 432" xmlns="http://www.w3.org/2000/svg" version="1.1">
 <metadata>
  <rdf:RDF xmlns:dc="http://purl.org/dc/elements/1.1/" xmlns:cc="http://creativecommons.org/ns#" xmlns:rdf="http://www.w3.org/1999/02/22-rdf-syntax-ns#">
   <cc:Work>
    <dc:type rdf:resource="http://purl.org/dc/dcmitype/StillImage"/>
    <dc:date>2025-11-18T11:48:11.489654</dc:date>
    <dc:format>image/svg+xml</dc:format>
    <dc:creator>
     <cc:Agent>
      <dc:title>Matplotlib v3.10.7, https://matplotlib.org/</dc:title>
     </cc:Agent>
    </dc:creator>
   </cc:Work>
  </rdf:RDF>
 </metadata>
 <defs>
  <style type="text/css">*{stroke-linejoin: round; stroke-linecap: butt}</style>
 </defs>
 <g id="figure_1">
  <g id="patch_1">
   <path d="M 0 432 
L 720 432 
L 720 0 
L 0 0 
z
" style="fill: #ffffff"/>
  </g>
  <g id="axes_1">
   <g id="patch_2">
    <path d="M 90 384.48 
L 648 384.48 
L 648 51.84 
L 90 51.84 
z
" style="fill: #ffffff"/>
   </g>
   <g id="matplotlib.axis_1">
    <g id="xtick_1">
     <g id="line2d_1">
      <path d="M 98.431028 384.48 
L 98.431028 51.84 
" clip-path="url(#p63abcb1891)" style="fill: none; stroke: #b0b0b0; stroke-width: 0.8; stroke-linecap: square"/>
     </g>
     <g id="line2d_2">
      <defs>
       <path id="mf1b44e0a61" d="M 0 0 
L 0 3.5 
" style="stroke: #000000; stroke-width: 0.8"/>
      </defs>
      <g>
       <use xlink:href="#mf1b44e0a61" x="98.431028" y="384.48" style="stroke: #000000; stroke-width: 0.8"/>
      </g>
     </g>
     <g id="text_1">
      <!-- 07.10 -->
      <g transform="translate(90.26063 417.096048) rotate(-45) scale(0.1 -0.1)">
       <defs>
        <path id="DejaVuSans-30" d="M 2034 4250 
Q 1547 4250 1301 3770 
Q 1056 3291 1056 2328 
Q 1056 1369 1301 889 
Q 1547 409 2034 409 
Q 2525 409 2770 889 
Q 3016 1369 3016 2328 
Q 3016 3291 2770 3770 
Q 2525 4250 2034 4250 
z
M 2034 4750 
Q 2819 4750 3233 4129 
Q 3647 3509 3647 2328 
Q 3647 1150 3233 529 
Q 2819 -91 2034 -91 
Q 1250 -91 836 529 
Q 422 1150 422 2328 
Q 422 3509 836 4129 
Q 1250 4750 2034 4750 
z
" transform="scale(0.015625)"/>
        <path id="DejaVuSans-37" d="M 525 4666 
L 3525 4666 
L 3525 4397 
L 1831 0 
L 1172 0 
L 2766 4134 
L 525 4134 
L 525 4666 
z
" transform="scale(0.015625)"/>
        <path id="DejaVuSans-2e" d="M 684 794 
L 1344 794 
L 1344 0 
L 684 0 
L 684 794 
z
" transform="scale(0.015625)"/>
        <path id="DejaVuSans-31" d="M 794 531 
L 1825 531 
L 1825 4091 
L 703 3866 
L 703 4441 
L 1819 4666 
L 2450 4666 
L 2450 531 
L 3481 531 
L 3481 0 
L 794 0 
L 794 531 
z
" transform="scale(0.015625)"/>
       </defs>
       <use xlink:href="#DejaVuSans-30"/>
       <use xlink:href="#DejaVuSans-37" transform="translate(63.623047 0)"/>
       <use xlink:href="#DejaVuSans-2e" transform="translate(127.246094 0)"/>
       <use xlink:href="#DejaVuSans-31" transform="translate(159.033203 0)"/>
       <use xlink:href="#DejaVuSans-30" transform="translate(222.65625 0)"/>
      </g>
     </g>
    </g>
    <g id="xtick_2">
     <g id="line2d_3">
      <path d="M 115.363636 384.48 
L 115.363636 51.84 
" clip-path="url(#p63abcb1891)" style="fill: none; stroke: #b0b0b0; stroke-width: 0.8; stroke-linecap: square"/>
     </g>
     <g id="line2d_4">
      <g>
       <use xlink:href="#mf1b44e0a61" x="115.363636" y="384.48" style="stroke: #000000; stroke-width: 0.8"/>
      </g>
     </g>
     <g id="text_2">
      <!-- 08.10 -->
      <g transform="translate(107.193238 417.096048) rotate(-45) scale(0.1 -0.1)">
       <defs>
        <path id="DejaVuSans-38" d="M 2034 2216 
Q 1584 2216 1326 1975 
Q 1069 1734 1069 1313 
Q 1069 891 1326 650 
Q 1584 409 2034 409 
Q 2484 409 2743 651 
Q 3003 894 3003 1313 
Q 3003 1734 2745 1975 
Q 2488 2216 2034 2216 
z
M 1403 2484 
Q 997 2584 770 2862 
Q 544 3141 544 3541 
Q 544 4100 942 4425 
Q 1341 4750 2034 4750 
Q 2731 4750 3128 4425 
Q 3525 4100 3525 3541 
Q 3525 3141 3298 2862 
Q 3072 2584 2669 2484 
Q 3125 2378 3379 2068 
Q 3634 1759 3634 1313 
Q 3634 634 3220 271 
Q 2806 -91 2034 -91 
Q 1263 -91 848 271 
Q 434 634 434 1313 
Q 434 1759 690 2068 
Q 947 2378 1403 2484 
z
M 1172 3481 
Q 1172 3119 1398 2916 
Q 1625 2713 2034 2713 
Q 2441 2713 2670 2916 
Q 2900 3119 2900 3481 
Q 2900 3844 2670 4047 
Q 2441 4250 2034 4250 
Q 1625 4250 1398 4047 
Q 1172 3844 1172 3481 
z
" transform="scale(0.015625)"/>
       </defs>
       <use xlink:href="#DejaVuSans-30"/>
       <use xlink:href="#DejaVuSans-38" transform="translate(63.623047 0)"/>
       <use xlink:href="#DejaVuSans-2e" transform="translate(127.246094 0)"/>
       <use xlink:href="#DejaVuSans-31" transform="translate(159.033203 0)"/>
       <use xlink:href="#DejaVuSans-30" transform="translate(222.65625 0)"/>
      </g>
     </g>
    </g>
    <g id="xtick_3">
     <g id="line2d_5">
      <path d="M 132.296245 384.48 
L 132.296245 51.84 
" clip-path="url(#p63abcb1891)" style="fill: none; stroke: #b0b0b0; stroke-width: 0.8; stroke-linecap: square"/>
     </g>
     <g id="line2d_6">
      <g>
       <use xlink:href="#mf1b44e0a61" x="132.296245" y="384.48" style="stroke: #000000; stroke-width: 0.8"/>
      </g>
     </g>
     <g id="text_3">
      <!-- 09.10 -->
      <g transform="translate(124.125847 417.096048) rotate(-45) scale(0.1 -0.1)">
       <defs>
        <path id="DejaVuSans-39" d="M 703 97 
L 703 672 
Q 941 559 1184 500 
Q 1428 441 1663 441 
Q 2288 441 2617 861 
Q 2947 1281 2994 2138 
Q 2813 1869 2534 1725 
Q 2256 1581 1919 1581 
Q 1219 1581 811 2004 
Q 403 2428 403 3163 
Q 403 3881 828 4315 
Q 1253 4750 1959 4750 
Q 2769 4750 3195 4129 
Q 3622 3509 3622 2328 
Q 3622 1225 3098 567 
Q 2575 -91 1691 -91 
Q 1453 -91 1209 -44 
Q 966 3 703 97 
z
M 1959 2075 
Q 2384 2075 2632 2365 
Q 2881 2656 2881 3163 
Q 2881 3666 2632 3958 
Q 2384 4250 1959 4250 
Q 1534 4250 1286 3958 
Q 1038 3666 1038 3163 
Q 1038 2656 1286 2365 
Q 1534 2075 1959 2075 
z
" transform="scale(0.015625)"/>
       </defs>
       <use xlink:href="#DejaVuSans-30"/>
       <use xlink:href="#DejaVuSans-39" transform="translate(63.623047 0)"/>
       <use xlink:href="#DejaVuSans-2e" transform="translate(127.246094 0)"/>
       <use xlink:href="#DejaVuSans-31" transform="translate(159.033203 0)"/>
       <use xlink:href="#DejaVuSans-30" transform="translate(222.65625 0)"/>
      </g>
     </g>
    </g>
    <g id="xtick_4">
     <g id="line2d_7">
      <path d="M 149.228853 384.48 
L 149.228853 51.84 
" clip-path="url(#p63abcb1891)" style="fill: none; stroke: #b0b0b0; stroke-width: 0.8; stroke-linecap: square"/>
     </g>
     <g id="line2d_8">
      <g>
       <use xlink:href="#mf1b44e0a61" x="149.228853" y="384.48" style="stroke: #000000; stroke-width: 0.8"/>
      </g>
     </g>
     <g id="text_4">
      <!-- 10.10 -->
      <g transform="translate(141.058455 417.096048) rotate(-45) scale(0.1 -0.1)">
       <use xlink:href="#DejaVuSans-31"/>
       <use xlink:href="#DejaVuSans-30" transform="translate(63.623047 0)"/>
       <use xlink:href="#DejaVuSans-2e" transform="translate(127.246094 0)"/>
       <use xlink:href="#DejaVuSans-31" transform="translate(159.033203 0)"/>
       <use xlink:href="#DejaVuSans-30" transform="translate(222.65625 0)"/>
      </g>
     </g>
    </g>
    <g id="xtick_5">
     <g id="line2d_9">
      <path d="M 166.161462 384.48 
L 166.161462 51.84 
" clip-path="url(#p63abcb1891)" style="fill: none; stroke: #b0b0b0; stroke-width: 0.8; stroke-linecap: square"/>
     </g>
     <g id="line2d_10">
      <g>
       <use xlink:href="#mf1b44e0a61" x="166.161462" y="384.48" style="stroke: #000000; stroke-width: 0.8"/>
      </g>
     </g>
     <g id="text_5">
      <!-- 11.10 -->
      <g transform="translate(157.991064 417.096048) rotate(-45) scale(0.1 -0.1)">
       <use xlink:href="#DejaVuSans-31"/>
       <use xlink:href="#DejaVuSans-31" transform="translate(63.623047 0)"/>
       <use xlink:href="#DejaVuSans-2e" transform="translate(127.246094 0)"/>
       <use xlink:href="#DejaVuSans-31" transform="translate(159.033203 0)"/>
       <use xlink:href="#DejaVuSans-30" transform="translate(222.65625 0)"/>
      </g>
     </g>
    </g>
    <g id="xtick_6">
     <g id="line2d_11">
      <path d="M 183.09407 384.48 
L 183.09407 51.84 
" clip-path="url(#p63abcb1891)" style="fill: none; stroke: #b0b0b0; stroke-width: 0.8; stroke-linecap: square"/>
     </g>
     <g id="line2d_12">
      <g>
       <use xlink:href="#mf1b44e0a61" x="183.09407" y="384.48" style="stroke: #000000; stroke-width: 0.8"/>
      </g>
     </g>
     <g id="text_6">
      <!-- 12.10 -->
      <g transform="translate(174.923672 417.096048) rotate(-45) scale(0.1 -0.1)">
       <defs>
        <path id="DejaVuSans-32" d="M 1228 531 
L 3431 531 
L 3431 0 
L 469 0 
L 469 531 
Q 828 903 1448 1529 
Q 2069 2156 2228 2338 
Q 2531 2678 2651 2914 
Q 2772 3150 2772 3378 
Q 2772 3750 2511 3984 
Q 2250 4219 1831 4219 
Q 1534 4219 1204 4116 
Q 875 4013 500 3803 
L 500 4441 
Q 881 4594 1212 4672 
Q 1544 4750 1819 4750 
Q 2544 4750 2975 4387 
Q 3406 4025 3406 3419 
Q 3406 3131 3298 2873 
Q 3191 2616 2906 2266 
Q 2828 2175 2409 1742 
Q 1991 1309 1228 531 
z
" transform="scale(0.015625)"/>
       </defs>
       <use xlink:href="#DejaVuSans-31"/>
       <use xlink:href="#DejaVuSans-32" transform="translate(63.623047 0)"/>
       <use xlink:href="#DejaVuSans-2e" transform="translate(127.246094 0)"/>
       <use xlink:href="#DejaVuSans-31" transform="translate(159.033203 0)"/>
       <use xlink:href="#DejaVuSans-30" transform="translate(222.65625 0)"/>
      </g>
     </g>
    </g>
    <g id="xtick_7">
     <g id="line2d_13">
      <path d="M 200.026678 384.48 
L 200.026678 51.84 
" clip-path="url(#p63abcb1891)" style="fill: none; stroke: #b0b0b0; stroke-width: 0.8; stroke-linecap: square"/>
     </g>
     <g id="line2d_14">
      <g>
       <use xlink:href="#mf1b44e0a61" x="200.026678" y="384.48" style="stroke: #000000; stroke-width: 0.8"/>
      </g>
     </g>
     <g id="text_7">
      <!-- 13.10 -->
      <g transform="translate(191.856281 417.096048) rotate(-45) scale(0.1 -0.1)">
       <defs>
        <path id="DejaVuSans-33" d="M 2597 2516 
Q 3050 2419 3304 2112 
Q 3559 1806 3559 1356 
Q 3559 666 3084 287 
Q 2609 -91 1734 -91 
Q 1441 -91 1130 -33 
Q 819 25 488 141 
L 488 750 
Q 750 597 1062 519 
Q 1375 441 1716 441 
Q 2309 441 2620 675 
Q 2931 909 2931 1356 
Q 2931 1769 2642 2001 
Q 2353 2234 1838 2234 
L 1294 2234 
L 1294 2753 
L 1863 2753 
Q 2328 2753 2575 2939 
Q 2822 3125 2822 3475 
Q 2822 3834 2567 4026 
Q 2313 4219 1838 4219 
Q 1578 4219 1281 4162 
Q 984 4106 628 3988 
L 628 4550 
Q 988 4650 1302 4700 
Q 1616 4750 1894 4750 
Q 2613 4750 3031 4423 
Q 3450 4097 3450 3541 
Q 3450 3153 3228 2886 
Q 3006 2619 2597 2516 
z
" transform="scale(0.015625)"/>
       </defs>
       <use xlink:href="#DejaVuSans-31"/>
       <use xlink:href="#DejaVuSans-33" transform="translate(63.623047 0)"/>
       <use xlink:href="#DejaVuSans-2e" transform="translate(127.246094 0)"/>
       <use xlink:href="#DejaVuSans-31" transform="translate(159.033203 0)"/>
       <use xlink:href="#DejaVuSans-30" transform="translate(222.65625 0)"/>
      </g>
     </g>
    </g>
    <g id="xtick_8">
     <g id="line2d_15">
      <path d="M 216.959287 384.48 
L 216.959287 51.84 
" clip-path="url(#p63abcb1891)" style="fill: none; stroke: #b0b0b0; stroke-width: 0.8; stroke-linecap: square"/>
     </g>
     <g id="line2d_16">
      <g>
       <use xlink:href="#mf1b44e0a61" x="216.959287" y="384.48" style="stroke: #000000; stroke-width: 0.8"/>
      </g>
     </g>
     <g id="text_8">
      <!-- 14.10 -->
      <g transform="translate(208.788889 417.096048) rotate(-45) scale(0.1 -0.1)">
       <defs>
        <path id="DejaVuSans-34" d="M 2419 4116 
L 825 1625 
L 2419 1625 
L 2419 4116 
z
M 2253 4666 
L 3047 4666 
L 3047 1625 
L 3713 1625 
L 3713 1100 
L 3047 1100 
L 3047 0 
L 2419 0 
L 2419 1100 
L 313 1100 
L 313 1709 
L 2253 4666 
z
" transform="scale(0.015625)"/>
       </defs>
       <use xlink:href="#DejaVuSans-31"/>
       <use xlink:href="#DejaVuSans-34" transform="translate(63.623047 0)"/>
       <use xlink:href="#DejaVuSans-2e" transform="translate(127.246094 0)"/>
       <use xlink:href="#DejaVuSans-31" transform="translate(159.033203 0)"/>
       <use xlink:href="#DejaVuSans-30" transform="translate(222.65625 0)"/>
      </g>
     </g>
    </g>
    <g id="xtick_9">
     <g id="line2d_17">
      <path d="M 233.891895 384.48 
L 233.891895 51.84 
" clip-path="url(#p63abcb1891)" style="fill: none; stroke: #b0b0b0; stroke-width: 0.8; stroke-linecap: square"/>
     </g>
     <g id="line2d_18">
      <g>
       <use xlink:href="#mf1b44e0a61" x="233.891895" y="384.48" style="stroke: #000000; stroke-width: 0.8"/>
      </g>
     </g>
     <g id="text_9">
      <!-- 15.10 -->
      <g transform="translate(225.721497 417.096048) rotate(-45) scale(0.1 -0.1)">
       <defs>
        <path id="DejaVuSans-35" d="M 691 4666 
L 3169 4666 
L 3169 4134 
L 1269 4134 
L 1269 2991 
Q 1406 3038 1543 3061 
Q 1681 3084 1819 3084 
Q 2600 3084 3056 2656 
Q 3513 2228 3513 1497 
Q 3513 744 3044 326 
Q 2575 -91 1722 -91 
Q 1428 -91 1123 -41 
Q 819 9 494 109 
L 494 744 
Q 775 591 1075 516 
Q 1375 441 1709 441 
Q 2250 441 2565 725 
Q 2881 1009 2881 1497 
Q 2881 1984 2565 2268 
Q 2250 2553 1709 2553 
Q 1456 2553 1204 2497 
Q 953 2441 691 2322 
L 691 4666 
z
" transform="scale(0.015625)"/>
       </defs>
       <use xlink:href="#DejaVuSans-31"/>
       <use xlink:href="#DejaVuSans-35" transform="translate(63.623047 0)"/>
       <use xlink:href="#DejaVuSans-2e" transform="translate(127.246094 0)"/>
       <use xlink:href="#DejaVuSans-31" transform="translate(159.033203 0)"/>
       <use xlink:href="#DejaVuSans-30" transform="translate(222.65625 0)"/>
      </g>
     </g>
    </g>
    <g id="xtick_10">
     <g id="line2d_19">
      <path d="M 250.824504 384.48 
L 250.824504 51.84 
" clip-path="url(#p63abcb1891)" style="fill: none; stroke: #b0b0b0; stroke-width: 0.8; stroke-linecap: square"/>
     </g>
     <g id="line2d_20">
      <g>
       <use xlink:href="#mf1b44e0a61" x="250.824504" y="384.48" style="stroke: #000000; stroke-width: 0.8"/>
      </g>
     </g>
     <g id="text_10">
      <!-- 16.10 -->
      <g transform="translate(242.654106 417.096048) rotate(-45) scale(0.1 -0.1)">
       <defs>
        <path id="DejaVuSans-36" d="M 2113 2584 
Q 1688 2584 1439 2293 
Q 1191 2003 1191 1497 
Q 1191 994 1439 701 
Q 1688 409 2113 409 
Q 2538 409 2786 701 
Q 3034 994 3034 1497 
Q 3034 2003 2786 2293 
Q 2538 2584 2113 2584 
z
M 3366 4563 
L 3366 3988 
Q 3128 4100 2886 4159 
Q 2644 4219 2406 4219 
Q 1781 4219 1451 3797 
Q 1122 3375 1075 2522 
Q 1259 2794 1537 2939 
Q 1816 3084 2150 3084 
Q 2853 3084 3261 2657 
Q 3669 2231 3669 1497 
Q 3669 778 3244 343 
Q 2819 -91 2113 -91 
Q 1303 -91 875 529 
Q 447 1150 447 2328 
Q 447 3434 972 4092 
Q 1497 4750 2381 4750 
Q 2619 4750 2861 4703 
Q 3103 4656 3366 4563 
z
" transform="scale(0.015625)"/>
       </defs>
       <use xlink:href="#DejaVuSans-31"/>
       <use xlink:href="#DejaVuSans-36" transform="translate(63.623047 0)"/>
       <use xlink:href="#DejaVuSans-2e" transform="translate(127.246094 0)"/>
       <use xlink:href="#DejaVuSans-31" transform="translate(159.033203 0)"/>
       <use xlink:href="#DejaVuSans-30" transform="translate(222.65625 0)"/>
      </g>
     </g>
    </g>
    <g id="xtick_11">
     <g id="line2d_21">
      <path d="M 267.757112 384.48 
L 267.757112 51.84 
" clip-path="url(#p63abcb1891)" style="fill: none; stroke: #b0b0b0; stroke-width: 0.8; stroke-linecap: square"/>
     </g>
     <g id="line2d_22">
      <g>
       <use xlink:href="#mf1b44e0a61" x="267.757112" y="384.48" style="stroke: #000000; stroke-width: 0.8"/>
      </g>
     </g>
     <g id="text_11">
      <!-- 17.10 -->
      <g transform="translate(259.586714 417.096048) rotate(-45) scale(0.1 -0.1)">
       <use xlink:href="#DejaVuSans-31"/>
       <use xlink:href="#DejaVuSans-37" transform="translate(63.623047 0)"/>
       <use xlink:href="#DejaVuSans-2e" transform="translate(127.246094 0)"/>
       <use xlink:href="#DejaVuSans-31" transform="translate(159.033203 0)"/>
       <use xlink:href="#DejaVuSans-30" transform="translate(222.65625 0)"/>
      </g>
     </g>
    </g>
    <g id="xtick_12">
     <g id="line2d_23">
      <path d="M 284.689721 384.48 
L 284.689721 51.84 
" clip-path="url(#p63abcb1891)" style="fill: none; stroke: #b0b0b0; stroke-width: 0.8; stroke-linecap: square"/>
     </g>
     <g id="line2d_24">
      <g>
       <use xlink:href="#mf1b44e0a61" x="284.689721" y="384.48" style="stroke: #000000; stroke-width: 0.8"/>
      </g>
     </g>
     <g id="text_12">
      <!-- 18.10 -->
      <g transform="translate(276.519323 417.096048) rotate(-45) scale(0.1 -0.1)">
       <use xlink:href="#DejaVuSans-31"/>
       <use xlink:href="#DejaVuSans-38" transform="translate(63.623047 0)"/>
       <use xlink:href="#DejaVuSans-2e" transform="translate(127.246094 0)"/>
       <use xlink:href="#DejaVuSans-31" transform="translate(159.033203 0)"/>
       <use xlink:href="#DejaVuSans-30" transform="translate(222.65625 0)"/>
      </g>
     </g>
    </g>
    <g id="xtick_13">
     <g id="line2d_25">
      <path d="M 301.622329 384.48 
L 301.622329 51.84 
" clip-path="url(#p63abcb1891)" style="fill: none; stroke: #b0b0b0; stroke-width: 0.8; stroke-linecap: square"/>
     </g>
     <g id="line2d_26">
      <g>
       <use xlink:href="#mf1b44e0a61" x="301.622329" y="384.48" style="stroke: #000000; stroke-width: 0.8"/>
      </g>
     </g>
     <g id="text_13">
      <!-- 19.10 -->
      <g transform="translate(293.451931 417.096048) rotate(-45) scale(0.1 -0.1)">
       <use xlink:href="#DejaVuSans-31"/>
       <use xlink:href="#DejaVuSans-39" transform="translate(63.623047 0)"/>
       <use xlink:href="#DejaVuSans-2e" transform="translate(127.246094 0)"/>
       <use xlink:href="#DejaVuSans-31" transform="translate(159.033203 0)"/>
       <use xlink:href="#DejaVuSans-30" transform="translate(222.65625 0)"/>
      </g>
     </g>
    </g>
    <g id="xtick_14">
     <g id="line2d_27">
      <path d="M 318.554937 384.48 
L 318.554937 51.84 
" clip-path="url(#p63abcb1891)" style="fill: none; stroke: #b0b0b0; stroke-width: 0.8; stroke-linecap: square"/>
     </g>
     <g id="line2d_28">
      <g>
       <use xlink:href="#mf1b44e0a61" x="318.554937" y="384.48" style="stroke: #000000; stroke-width: 0.8"/>
      </g>
     </g>
     <g id="text_14">
      <!-- 20.10 -->
      <g transform="translate(310.38454 417.096048) rotate(-45) scale(0.1 -0.1)">
       <use xlink:href="#DejaVuSans-32"/>
       <use xlink:href="#DejaVuSans-30" transform="translate(63.623047 0)"/>
       <use xlink:href="#DejaVuSans-2e" transform="translate(127.246094 0)"/>
       <use xlink:href="#DejaVuSans-31" transform="translate(159.033203 0)"/>
       <use xlink:href="#DejaVuSans-30" transform="translate(222.65625 0)"/>
      </g>
     </g>
    </g>
    <g id="xtick_15">
     <g id="line2d_29">
      <path d="M 335.487546 384.48 
L 335.487546 51.84 
" clip-path="url(#p63abcb1891)" style="fill: none; stroke: #b0b0b0; stroke-width: 0.8; stroke-linecap: square"/>
     </g>
     <g id="line2d_30">
      <g>
       <use xlink:href="#mf1b44e0a61" x="335.487546" y="384.48" style="stroke: #000000; stroke-width: 0.8"/>
      </g>
     </g>
     <g id="text_15">
      <!-- 21.10 -->
      <g transform="translate(327.317148 417.096048) rotate(-45) scale(0.1 -0.1)">
       <use xlink:href="#DejaVuSans-32"/>
       <use xlink:href="#DejaVuSans-31" transform="translate(63.623047 0)"/>
       <use xlink:href="#DejaVuSans-2e" transform="translate(127.246094 0)"/>
       <use xlink:href="#DejaVuSans-31" transform="translate(159.033203 0)"/>
       <use xlink:href="#DejaVuSans-30" transform="translate(222.65625 0)"/>
      </g>
     </g>
    </g>
    <g id="xtick_16">
     <g id="line2d_31">
      <path d="M 352.420154 384.48 
L 352.420154 51.84 
" clip-path="url(#p63abcb1891)" style="fill: none; stroke: #b0b0b0; stroke-width: 0.8; stroke-linecap: square"/>
     </g>
     <g id="line2d_32">
      <g>
       <use xlink:href="#mf1b44e0a61" x="352.420154" y="384.48" style="stroke: #000000; stroke-width: 0.8"/>
      </g>
     </g>
     <g id="text_16">
      <!-- 22.10 -->
      <g transform="translate(344.249756 417.096048) rotate(-45) scale(0.1 -0.1)">
       <use xlink:href="#DejaVuSans-32"/>
       <use xlink:href="#DejaVuSans-32" transform="translate(63.623047 0)"/>
       <use xlink:href="#DejaVuSans-2e" transform="translate(127.246094 0)"/>
       <use xlink:href="#DejaVuSans-31" transform="translate(159.033203 0)"/>
       <use xlink:href="#DejaVuSans-30" transform="translate(222.65625 0)"/>
      </g>
     </g>
    </g>
    <g id="xtick_17">
     <g id="line2d_33">
      <path d="M 369.352763 384.48 
L 369.352763 51.84 
" clip-path="url(#p63abcb1891)" style="fill: none; stroke: #b0b0b0; stroke-width: 0.8; stroke-linecap: square"/>
     </g>
     <g id="line2d_34">
      <g>
       <use xlink:href="#mf1b44e0a61" x="369.352763" y="384.48" style="stroke: #000000; stroke-width: 0.8"/>
      </g>
     </g>
     <g id="text_17">
      <!-- 23.10 -->
      <g transform="translate(361.182365 417.096048) rotate(-45) scale(0.1 -0.1)">
       <use xlink:href="#DejaVuSans-32"/>
       <use xlink:href="#DejaVuSans-33" transform="translate(63.623047 0)"/>
       <use xlink:href="#DejaVuSans-2e" transform="translate(127.246094 0)"/>
       <use xlink:href="#DejaVuSans-31" transform="translate(159.033203 0)"/>
       <use xlink:href="#DejaVuSans-30" transform="translate(222.65625 0)"/>
      </g>
     </g>
    </g>
    <g id="xtick_18">
     <g id="line2d_35">
      <path d="M 386.285371 384.48 
L 386.285371 51.84 
" clip-path="url(#p63abcb1891)" style="fill: none; stroke: #b0b0b0; stroke-width: 0.8; stroke-linecap: square"/>
     </g>
     <g id="line2d_36">
      <g>
       <use xlink:href="#mf1b44e0a61" x="386.285371" y="384.48" style="stroke: #000000; stroke-width: 0.8"/>
      </g>
     </g>
     <g id="text_18">
      <!-- 24.10 -->
      <g transform="translate(378.114973 417.096048) rotate(-45) scale(0.1 -0.1)">
       <use xlink:href="#DejaVuSans-32"/>
       <use xlink:href="#DejaVuSans-34" transform="translate(63.623047 0)"/>
       <use xlink:href="#DejaVuSans-2e" transform="translate(127.246094 0)"/>
       <use xlink:href="#DejaVuSans-31" transform="translate(159.033203 0)"/>
       <use xlink:href="#DejaVuSans-30" transform="translate(222.65625 0)"/>
      </g>
     </g>
    </g>
    <g id="xtick_19">
     <g id="line2d_37">
      <path d="M 403.21798 384.48 
L 403.21798 51.84 
" clip-path="url(#p63abcb1891)" style="fill: none; stroke: #b0b0b0; stroke-width: 0.8; stroke-linecap: square"/>
     </g>
     <g id="line2d_38">
      <g>
       <use xlink:href="#mf1b44e0a61" x="403.21798" y="384.48" style="stroke: #000000; stroke-width: 0.8"/>
      </g>
     </g>
     <g id="text_19">
      <!-- 25.10 -->
      <g transform="translate(395.047582 417.096048) rotate(-45) scale(0.1 -0.1)">
       <use xlink:href="#DejaVuSans-32"/>
       <use xlink:href="#DejaVuSans-35" transform="translate(63.623047 0)"/>
       <use xlink:href="#DejaVuSans-2e" transform="translate(127.246094 0)"/>
       <use xlink:href="#DejaVuSans-31" transform="translate(159.033203 0)"/>
       <use xlink:href="#DejaVuSans-30" transform="translate(222.65625 0)"/>
      </g>
     </g>
    </g>
    <g id="xtick_20">
     <g id="line2d_39">
      <path d="M 420.150588 384.48 
L 420.150588 51.84 
" clip-path="url(#p63abcb1891)" style="fill: none; stroke: #b0b0b0; stroke-width: 0.8; stroke-linecap: square"/>
     </g>
     <g id="line2d_40">
      <g>
       <use xlink:href="#mf1b44e0a61" x="420.150588" y="384.48" style="stroke: #000000; stroke-width: 0.8"/>
      </g>
     </g>
     <g id="text_20">
      <!-- 26.10 -->
      <g transform="translate(411.98019 417.096048) rotate(-45) scale(0.1 -0.1)">
       <use xlink:href="#DejaVuSans-32"/>
       <use xlink:href="#DejaVuSans-36" transform="translate(63.623047 0)"/>
       <use xlink:href="#DejaVuSans-2e" transform="translate(127.246094 0)"/>
       <use xlink:href="#DejaVuSans-31" transform="translate(159.033203 0)"/>
       <use xlink:href="#DejaVuSans-30" transform="translate(222.65625 0)"/>
      </g>
     </g>
    </g>
    <g id="xtick_21">
     <g id="line2d_41">
      <path d="M 437.083196 384.48 
L 437.083196 51.84 
" clip-path="url(#p63abcb1891)" style="fill: none; stroke: #b0b0b0; stroke-width: 0.8; stroke-linecap: square"/>
     </g>
     <g id="line2d_42">
      <g>
       <use xlink:href="#mf1b44e0a61" x="437.083196" y="384.48" style="stroke: #000000; stroke-width: 0.8"/>
      </g>
     </g>
     <g id="text_21">
      <!-- 27.10 -->
      <g transform="translate(428.912798 417.096048) rotate(-45) scale(0.1 -0.1)">
       <use xlink:href="#DejaVuSans-32"/>
       <use xlink:href="#DejaVuSans-37" transform="translate(63.623047 0)"/>
       <use xlink:href="#DejaVuSans-2e" transform="translate(127.246094 0)"/>
       <use xlink:href="#DejaVuSans-31" transform="translate(159.033203 0)"/>
       <use xlink:href="#DejaVuSans-30" transform="translate(222.65625 0)"/>
      </g>
     </g>
    </g>
    <g id="xtick_22">
     <g id="line2d_43">
      <path d="M 454.015805 384.48 
L 454.015805 51.84 
" clip-path="url(#p63abcb1891)" style="fill: none; stroke: #b0b0b0; stroke-width: 0.8; stroke-linecap: square"/>
     </g>
     <g id="line2d_44">
      <g>
       <use xlink:href="#mf1b44e0a61" x="454.015805" y="384.48" style="stroke: #000000; stroke-width: 0.8"/>
      </g>
     </g>
     <g id="text_22">
      <!-- 28.10 -->
      <g transform="translate(445.845407 417.096048) rotate(-45) scale(0.1 -0.1)">
       <use xlink:href="#DejaVuSans-32"/>
       <use xlink:href="#DejaVuSans-38" transform="translate(63.623047 0)"/>
       <use xlink:href="#DejaVuSans-2e" transform="translate(127.246094 0)"/>
       <use xlink:href="#DejaVuSans-31" transform="translate(159.033203 0)"/>
       <use xlink:href="#DejaVuSans-30" transform="translate(222.65625 0)"/>
      </g>
     </g>
    </g>
    <g id="xtick_23">
     <g id="line2d_45">
      <path d="M 470.948413 384.48 
L 470.948413 51.84 
" clip-path="url(#p63abcb1891)" style="fill: none; stroke: #b0b0b0; stroke-width: 0.8; stroke-linecap: square"/>
     </g>
     <g id="line2d_46">
      <g>
       <use xlink:href="#mf1b44e0a61" x="470.948413" y="384.48" style="stroke: #000000; stroke-width: 0.8"/>
      </g>
     </g>
     <g id="text_23">
      <!-- 29.10 -->
      <g transform="translate(462.778015 417.096048) rotate(-45) scale(0.1 -0.1)">
       <use xlink:href="#DejaVuSans-32"/>
       <use xlink:href="#DejaVuSans-39" transform="translate(63.623047 0)"/>
       <use xlink:href="#DejaVuSans-2e" transform="translate(127.246094 0)"/>
       <use xlink:href="#DejaVuSans-31" transform="translate(159.033203 0)"/>
       <use xlink:href="#DejaVuSans-30" transform="translate(222.65625 0)"/>
      </g>
     </g>
    </g>
    <g id="xtick_24">
     <g id="line2d_47">
      <path d="M 487.881022 384.48 
L 487.881022 51.84 
" clip-path="url(#p63abcb1891)" style="fill: none; stroke: #b0b0b0; stroke-width: 0.8; stroke-linecap: square"/>
     </g>
     <g id="line2d_48">
      <g>
       <use xlink:href="#mf1b44e0a61" x="487.881022" y="384.48" style="stroke: #000000; stroke-width: 0.8"/>
      </g>
     </g>
     <g id="text_24">
      <!-- 30.10 -->
      <g transform="translate(479.710624 417.096048) rotate(-45) scale(0.1 -0.1)">
       <use xlink:href="#DejaVuSans-33"/>
       <use xlink:href="#DejaVuSans-30" transform="translate(63.623047 0)"/>
       <use xlink:href="#DejaVuSans-2e" transform="translate(127.246094 0)"/>
       <use xlink:href="#DejaVuSans-31" transform="translate(159.033203 0)"/>
       <use xlink:href="#DejaVuSans-30" transform="translate(222.65625 0)"/>
      </g>
     </g>
    </g>
    <g id="xtick_25">
     <g id="line2d_49">
      <path d="M 504.81363 384.48 
L 504.81363 51.84 
" clip-path="url(#p63abcb1891)" style="fill: none; stroke: #b0b0b0; stroke-width: 0.8; stroke-linecap: square"/>
     </g>
     <g id="line2d_50">
      <g>
       <use xlink:href="#mf1b44e0a61" x="504.81363" y="384.48" style="stroke: #000000; stroke-width: 0.8"/>
      </g>
     </g>
     <g id="text_25">
      <!-- 31.10 -->
      <g transform="translate(496.643232 417.096048) rotate(-45) scale(0.1 -0.1)">
       <use xlink:href="#DejaVuSans-33"/>
       <use xlink:href="#DejaVuSans-31" transform="translate(63.623047 0)"/>
       <use xlink:href="#DejaVuSans-2e" transform="translate(127.246094 0)"/>
       <use xlink:href="#DejaVuSans-31" transform="translate(159.033203 0)"/>
       <use xlink:href="#DejaVuSans-30" transform="translate(222.65625 0)"/>
      </g>
     </g>
    </g>
    <g id="xtick_26">
     <g id="line2d_51">
      <path d="M 521.746238 384.48 
L 521.746238 51.84 
" clip-path="url(#p63abcb1891)" style="fill: none; stroke: #b0b0b0; stroke-width: 0.8; stroke-linecap: square"/>
     </g>
     <g id="line2d_52">
      <g>
       <use xlink:href="#mf1b44e0a61" x="521.746238" y="384.48" style="stroke: #000000; stroke-width: 0.8"/>
      </g>
     </g>
     <g id="text_26">
      <!-- 01.11 -->
      <g transform="translate(513.575841 417.096048) rotate(-45) scale(0.1 -0.1)">
       <use xlink:href="#DejaVuSans-30"/>
       <use xlink:href="#DejaVuSans-31" transform="translate(63.623047 0)"/>
       <use xlink:href="#DejaVuSans-2e" transform="translate(127.246094 0)"/>
       <use xlink:href="#DejaVuSans-31" transform="translate(159.033203 0)"/>
       <use xlink:href="#DejaVuSans-31" transform="translate(222.65625 0)"/>
      </g>
     </g>
    </g>
    <g id="xtick_27">
     <g id="line2d_53">
      <path d="M 538.678847 384.48 
L 538.678847 51.84 
" clip-path="url(#p63abcb1891)" style="fill: none; stroke: #b0b0b0; stroke-width: 0.8; stroke-linecap: square"/>
     </g>
     <g id="line2d_54">
      <g>
       <use xlink:href="#mf1b44e0a61" x="538.678847" y="384.48" style="stroke: #000000; stroke-width: 0.8"/>
      </g>
     </g>
     <g id="text_27">
      <!-- 02.11 -->
      <g transform="translate(530.508449 417.096048) rotate(-45) scale(0.1 -0.1)">
       <use xlink:href="#DejaVuSans-30"/>
       <use xlink:href="#DejaVuSans-32" transform="translate(63.623047 0)"/>
       <use xlink:href="#DejaVuSans-2e" transform="translate(127.246094 0)"/>
       <use xlink:href="#DejaVuSans-31" transform="translate(159.033203 0)"/>
       <use xlink:href="#DejaVuSans-31" transform="translate(222.65625 0)"/>
      </g>
     </g>
    </g>
    <g id="xtick_28">
     <g id="line2d_55">
      <path d="M 555.611455 384.48 
L 555.611455 51.84 
" clip-path="url(#p63abcb1891)" style="fill: none; stroke: #b0b0b0; stroke-width: 0.8; stroke-linecap: square"/>
     </g>
     <g id="line2d_56">
      <g>
       <use xlink:href="#mf1b44e0a61" x="555.611455" y="384.48" style="stroke: #000000; stroke-width: 0.8"/>
      </g>
     </g>
     <g id="text_28">
      <!-- 03.11 -->
      <g transform="translate(547.441057 417.096048) rotate(-45) scale(0.1 -0.1)">
       <use xlink:href="#DejaVuSans-30"/>
       <use xlink:href="#DejaVuSans-33" transform="translate(63.623047 0)"/>
       <use xlink:href="#DejaVuSans-2e" transform="translate(127.246094 0)"/>
       <use xlink:href="#DejaVuSans-31" transform="translate(159.033203 0)"/>
       <use xlink:href="#DejaVuSans-31" transform="translate(222.65625 0)"/>
      </g>
     </g>
    </g>
    <g id="xtick_29">
     <g id="line2d_57">
      <path d="M 572.544064 384.48 
L 572.544064 51.84 
" clip-path="url(#p63abcb1891)" style="fill: none; stroke: #b0b0b0; stroke-width: 0.8; stroke-linecap: square"/>
     </g>
     <g id="line2d_58">
      <g>
       <use xlink:href="#mf1b44e0a61" x="572.544064" y="384.48" style="stroke: #000000; stroke-width: 0.8"/>
      </g>
     </g>
     <g id="text_29">
      <!-- 04.11 -->
      <g transform="translate(564.373666 417.096048) rotate(-45) scale(0.1 -0.1)">
       <use xlink:href="#DejaVuSans-30"/>
       <use xlink:href="#DejaVuSans-34" transform="translate(63.623047 0)"/>
       <use xlink:href="#DejaVuSans-2e" transform="translate(127.246094 0)"/>
       <use xlink:href="#DejaVuSans-31" transform="translate(159.033203 0)"/>
       <use xlink:href="#DejaVuSans-31" transform="translate(222.65625 0)"/>
      </g>
     </g>
    </g>
    <g id="xtick_30">
     <g id="line2d_59">
      <path d="M 589.476672 384.48 
L 589.476672 51.84 
" clip-path="url(#p63abcb1891)" style="fill: none; stroke: #b0b0b0; stroke-width: 0.8; stroke-linecap: square"/>
     </g>
     <g id="line2d_60">
      <g>
       <use xlink:href="#mf1b44e0a61" x="589.476672" y="384.48" style="stroke: #000000; stroke-width: 0.8"/>
      </g>
     </g>
     <g id="text_30">
      <!-- 05.11 -->
      <g transform="translate(581.306274 417.096048) rotate(-45) scale(0.1 -0.1)">
       <use xlink:href="#DejaVuSans-30"/>
       <use xlink:href="#DejaVuSans-35" transform="translate(63.623047 0)"/>
       <use xlink:href="#DejaVuSans-2e" transform="translate(127.246094 0)"/>
       <use xlink:href="#DejaVuSans-31" transform="translate(159.033203 0)"/>
       <use xlink:href="#DejaVuSans-31" transform="translate(222.65625 0)"/>
      </g>
     </g>
    </g>
    <g id="xtick_31">
     <g id="line2d_61">
      <path d="M 606.409281 384.48 
L 606.409281 51.84 
" clip-path="url(#p63abcb1891)" style="fill: none; stroke: #b0b0b0; stroke-width: 0.8; stroke-linecap: square"/>
     </g>
     <g id="line2d_62">
      <g>
       <use xlink:href="#mf1b44e0a61" x="606.409281" y="384.48" style="stroke: #000000; stroke-width: 0.8"/>
      </g>
     </g>
     <g id="text_31">
      <!-- 06.11 -->
      <g transform="translate(598.238883 417.096048) rotate(-45) scale(0.1 -0.1)">
       <use xlink:href="#DejaVuSans-30"/>
       <use xlink:href="#DejaVuSans-36" transform="translate(63.623047 0)"/>
       <use xlink:href="#DejaVuSans-2e" transform="translate(127.246094 0)"/>
       <use xlink:href="#DejaVuSans-31" transform="translate(159.033203 0)"/>
       <use xlink:href="#DejaVuSans-31" transform="translate(222.65625 0)"/>
      </g>
     </g>
    </g>
    <g id="xtick_32">
     <g id="line2d_63">
      <path d="M 623.341889 384.48 
L 623.341889 51.84 
" clip-path="url(#p63abcb1891)" style="fill: none; stroke: #b0b0b0; stroke-width: 0.8; stroke-linecap: square"/>
     </g>
     <g id="line2d_64">
      <g>
       <use xlink:href="#mf1b44e0a61" x="623.341889" y="384.48" style="stroke: #000000; stroke-width: 0.8"/>
      </g>
     </g>
     <g id="text_32">
      <!-- 07.11 -->
      <g transform="translate(615.171491 417.096048) rotate(-45) scale(0.1 -0.1)">
       <use xlink:href="#DejaVuSans-30"/>
       <use xlink:href="#DejaVuSans-37" transform="translate(63.623047 0)"/>
       <use xlink:href="#DejaVuSans-2e" transform="translate(127.246094 0)"/>
       <use xlink:href="#DejaVuSans-31" transform="translate(159.033203 0)"/>
       <use xlink:href="#DejaVuSans-31" transform="translate(222.65625 0)"/>
      </g>
     </g>
    </g>
    <g id="xtick_33">
     <g id="line2d_65">
      <path d="M 640.274497 384.48 
L 640.274497 51.84 
" clip-path="url(#p63abcb1891)" style="fill: none; stroke: #b0b0b0; stroke-width: 0.8; stroke-linecap: square"/>
     </g>
     <g id="line2d_66">
      <g>
       <use xlink:href="#mf1b44e0a61" x="640.274497" y="384.48" style="stroke: #000000; stroke-width: 0.8"/>
      </g>
     </g>
     <g id="text_33">
      <!-- 08.11 -->
      <g transform="translate(632.1041 417.096048) rotate(-45) scale(0.1 -0.1)">
       <use xlink:href="#DejaVuSans-30"/>
       <use xlink:href="#DejaVuSans-38" transform="translate(63.623047 0)"/>
       <use xlink:href="#DejaVuSans-2e" transform="translate(127.246094 0)"/>
       <use xlink:href="#DejaVuSans-31" transform="translate(159.033203 0)"/>
       <use xlink:href="#DejaVuSans-31" transform="translate(222.65625 0)"/>
      </g>
     </g>
    </g>
    <g id="text_34">
     <!-- Data calendaristică -->
     <g transform="translate(320.575 430.165047) scale(0.1 -0.1)">
      <defs>
       <path id="DejaVuSans-44" d="M 1259 4147 
L 1259 519 
L 2022 519 
Q 2988 519 3436 956 
Q 3884 1394 3884 2338 
Q 3884 3275 3436 3711 
Q 2988 4147 2022 4147 
L 1259 4147 
z
M 628 4666 
L 1925 4666 
Q 3281 4666 3915 4102 
Q 4550 3538 4550 2338 
Q 4550 1131 3912 565 
Q 3275 0 1925 0 
L 628 0 
L 628 4666 
z
" transform="scale(0.015625)"/>
       <path id="DejaVuSans-61" d="M 2194 1759 
Q 1497 1759 1228 1600 
Q 959 1441 959 1056 
Q 959 750 1161 570 
Q 1363 391 1709 391 
Q 2188 391 2477 730 
Q 2766 1069 2766 1631 
L 2766 1759 
L 2194 1759 
z
M 3341 1997 
L 3341 0 
L 2766 0 
L 2766 531 
Q 2569 213 2275 61 
Q 1981 -91 1556 -91 
Q 1019 -91 701 211 
Q 384 513 384 1019 
Q 384 1609 779 1909 
Q 1175 2209 1959 2209 
L 2766 2209 
L 2766 2266 
Q 2766 2663 2505 2880 
Q 2244 3097 1772 3097 
Q 1472 3097 1187 3025 
Q 903 2953 641 2809 
L 641 3341 
Q 956 3463 1253 3523 
Q 1550 3584 1831 3584 
Q 2591 3584 2966 3190 
Q 3341 2797 3341 1997 
z
" transform="scale(0.015625)"/>
       <path id="DejaVuSans-74" d="M 1172 4494 
L 1172 3500 
L 2356 3500 
L 2356 3053 
L 1172 3053 
L 1172 1153 
Q 1172 725 1289 603 
Q 1406 481 1766 481 
L 2356 481 
L 2356 0 
L 1766 0 
Q 1100 0 847 248 
Q 594 497 594 1153 
L 594 3053 
L 172 3053 
L 172 3500 
L 594 3500 
L 594 4494 
L 1172 4494 
z
" transform="scale(0.015625)"/>
       <path id="DejaVuSans-20" transform="scale(0.015625)"/>
       <path id="DejaVuSans-63" d="M 3122 3366 
L 3122 2828 
Q 2878 2963 2633 3030 
Q 2388 3097 2138 3097 
Q 1578 3097 1268 2742 
Q 959 2388 959 1747 
Q 959 1106 1268 751 
Q 1578 397 2138 397 
Q 2388 397 2633 464 
Q 2878 531 3122 666 
L 3122 134 
Q 2881 22 2623 -34 
Q 2366 -91 2075 -91 
Q 1284 -91 818 406 
Q 353 903 353 1747 
Q 353 2603 823 3093 
Q 1294 3584 2113 3584 
Q 2378 3584 2631 3529 
Q 2884 3475 3122 3366 
z
" transform="scale(0.015625)"/>
       <path id="DejaVuSans-6c" d="M 603 4863 
L 1178 4863 
L 1178 0 
L 603 0 
L 603 4863 
z
" transform="scale(0.015625)"/>
       <path id="DejaVuSans-65" d="M 3597 1894 
L 3597 1613 
L 953 1613 
Q 991 1019 1311 708 
Q 1631 397 2203 397 
Q 2534 397 2845 478 
Q 3156 559 3463 722 
L 3463 178 
Q 3153 47 2828 -22 
Q 2503 -91 2169 -91 
Q 1331 -91 842 396 
Q 353 884 353 1716 
Q 353 2575 817 3079 
Q 1281 3584 2069 3584 
Q 2775 3584 3186 3129 
Q 3597 2675 3597 1894 
z
M 3022 2063 
Q 3016 2534 2758 2815 
Q 2500 3097 2075 3097 
Q 1594 3097 1305 2825 
Q 1016 2553 972 2059 
L 3022 2063 
z
" transform="scale(0.015625)"/>
       <path id="DejaVuSans-6e" d="M 3513 2113 
L 3513 0 
L 2938 0 
L 2938 2094 
Q 2938 2591 2744 2837 
Q 2550 3084 2163 3084 
Q 1697 3084 1428 2787 
Q 1159 2491 1159 1978 
L 1159 0 
L 581 0 
L 581 3500 
L 1159 3500 
L 1159 2956 
Q 1366 3272 1645 3428 
Q 1925 3584 2291 3584 
Q 2894 3584 3203 3211 
Q 3513 2838 3513 2113 
z
" transform="scale(0.015625)"/>
       <path id="DejaVuSans-64" d="M 2906 2969 
L 2906 4863 
L 3481 4863 
L 3481 0 
L 2906 0 
L 2906 525 
Q 2725 213 2448 61 
Q 2172 -91 1784 -91 
Q 1150 -91 751 415 
Q 353 922 353 1747 
Q 353 2572 751 3078 
Q 1150 3584 1784 3584 
Q 2172 3584 2448 3432 
Q 2725 3281 2906 2969 
z
M 947 1747 
Q 947 1113 1208 752 
Q 1469 391 1925 391 
Q 2381 391 2643 752 
Q 2906 1113 2906 1747 
Q 2906 2381 2643 2742 
Q 2381 3103 1925 3103 
Q 1469 3103 1208 2742 
Q 947 2381 947 1747 
z
" transform="scale(0.015625)"/>
       <path id="DejaVuSans-72" d="M 2631 2963 
Q 2534 3019 2420 3045 
Q 2306 3072 2169 3072 
Q 1681 3072 1420 2755 
Q 1159 2438 1159 1844 
L 1159 0 
L 581 0 
L 581 3500 
L 1159 3500 
L 1159 2956 
Q 1341 3275 1631 3429 
Q 1922 3584 2338 3584 
Q 2397 3584 2469 3576 
Q 2541 3569 2628 3553 
L 2631 2963 
z
" transform="scale(0.015625)"/>
       <path id="DejaVuSans-69" d="M 603 3500 
L 1178 3500 
L 1178 0 
L 603 0 
L 603 3500 
z
M 603 4863 
L 1178 4863 
L 1178 4134 
L 603 4134 
L 603 4863 
z
" transform="scale(0.015625)"/>
       <path id="DejaVuSans-73" d="M 2834 3397 
L 2834 2853 
Q 2591 2978 2328 3040 
Q 2066 3103 1784 3103 
Q 1356 3103 1142 2972 
Q 928 2841 928 2578 
Q 928 2378 1081 2264 
Q 1234 2150 1697 2047 
L 1894 2003 
Q 2506 1872 2764 1633 
Q 3022 1394 3022 966 
Q 3022 478 2636 193 
Q 2250 -91 1575 -91 
Q 1294 -91 989 -36 
Q 684 19 347 128 
L 347 722 
Q 666 556 975 473 
Q 1284 391 1588 391 
Q 1994 391 2212 530 
Q 2431 669 2431 922 
Q 2431 1156 2273 1281 
Q 2116 1406 1581 1522 
L 1381 1569 
Q 847 1681 609 1914 
Q 372 2147 372 2553 
Q 372 3047 722 3315 
Q 1072 3584 1716 3584 
Q 2034 3584 2315 3537 
Q 2597 3491 2834 3397 
z
" transform="scale(0.015625)"/>
       <path id="DejaVuSans-103" d="M 870 4897 
L 1239 4897 
Q 1273 4663 1424 4545 
Q 1576 4428 1848 4428 
Q 2117 4428 2267 4544 
Q 2417 4660 2457 4897 
L 2826 4897 
Q 2795 4450 2548 4225 
Q 2301 4000 1848 4000 
Q 1395 4000 1148 4225 
Q 901 4450 870 4897 
z
M 2194 1759 
Q 1497 1759 1228 1600 
Q 959 1441 959 1056 
Q 959 750 1161 570 
Q 1363 391 1709 391 
Q 2188 391 2477 730 
Q 2766 1069 2766 1631 
L 2766 1759 
L 2194 1759 
z
M 3341 1997 
L 3341 0 
L 2766 0 
L 2766 531 
Q 2569 213 2275 61 
Q 1981 -91 1556 -91 
Q 1019 -91 701 211 
Q 384 513 384 1019 
Q 384 1609 779 1909 
Q 1175 2209 1959 2209 
L 2766 2209 
L 2766 2266 
Q 2766 2663 2505 2880 
Q 2244 3097 1772 3097 
Q 1472 3097 1187 3025 
Q 903 2953 641 2809 
L 641 3341 
Q 956 3463 1253 3523 
Q 1550 3584 1831 3584 
Q 2591 3584 2966 3190 
Q 3341 2797 3341 1997 
z
" transform="scale(0.015625)"/>
      </defs>
      <use xlink:href="#DejaVuSans-44"/>
      <use xlink:href="#DejaVuSans-61" transform="translate(77.001953 0)"/>
      <use xlink:href="#DejaVuSans-74" transform="translate(138.28125 0)"/>
      <use xlink:href="#DejaVuSans-61" transform="translate(177.490234 0)"/>
      <use xlink:href="#DejaVuSans-20" transform="translate(238.769531 0)"/>
      <use xlink:href="#DejaVuSans-63" transform="translate(270.556641 0)"/>
      <use xlink:href="#DejaVuSans-61" transform="translate(325.537109 0)"/>
      <use xlink:href="#DejaVuSans-6c" transform="translate(386.816406 0)"/>
      <use xlink:href="#DejaVuSans-65" transform="translate(414.599609 0)"/>
      <use xlink:href="#DejaVuSans-6e" transform="translate(476.123047 0)"/>
      <use xlink:href="#DejaVuSans-64" transform="translate(539.501953 0)"/>
      <use xlink:href="#DejaVuSans-61" transform="translate(602.978516 0)"/>
      <use xlink:href="#DejaVuSans-72" transform="translate(664.257812 0)"/>
      <use xlink:href="#DejaVuSans-69" transform="translate(705.371094 0)"/>
      <use xlink:href="#DejaVuSans-73" transform="translate(733.154297 0)"/>
      <use xlink:href="#DejaVuSans-74" transform="translate(785.253906 0)"/>
      <use xlink:href="#DejaVuSans-69" transform="translate(824.462891 0)"/>
      <use xlink:href="#DejaVuSans-63" transform="translate(852.246094 0)"/>
      <use xlink:href="#DejaVuSans-103" transform="translate(907.226562 0)"/>
     </g>
    </g>
   </g>
   <g id="matplotlib.axis_2">
    <g id="ytick_1">
     <g id="line2d_67">
      <path d="M 90 372.414545 
L 648 372.414545 
" clip-path="url(#p63abcb1891)" style="fill: none; stroke: #b0b0b0; stroke-width: 0.8; stroke-linecap: square"/>
     </g>
     <g id="line2d_68">
      <defs>
       <path id="mbd5301c60c" d="M 0 0 
L -3.5 0 
" style="stroke: #000000; stroke-width: 0.8"/>
      </defs>
      <g>
       <use xlink:href="#mbd5301c60c" x="90" y="372.414545" style="stroke: #000000; stroke-width: 0.8"/>
      </g>
     </g>
     <g id="text_35">
      <!-- 0 -->
      <g transform="translate(76.6375 376.213764) scale(0.1 -0.1)">
       <use xlink:href="#DejaVuSans-30"/>
      </g>
     </g>
    </g>
    <g id="ytick_2">
     <g id="line2d_69">
      <path d="M 90 334.232727 
L 648 334.232727 
" clip-path="url(#p63abcb1891)" style="fill: none; stroke: #b0b0b0; stroke-width: 0.8; stroke-linecap: square"/>
     </g>
     <g id="line2d_70">
      <g>
       <use xlink:href="#mbd5301c60c" x="90" y="334.232727" style="stroke: #000000; stroke-width: 0.8"/>
      </g>
     </g>
     <g id="text_36">
      <!-- 25 -->
      <g transform="translate(70.275 338.031946) scale(0.1 -0.1)">
       <use xlink:href="#DejaVuSans-32"/>
       <use xlink:href="#DejaVuSans-35" transform="translate(63.623047 0)"/>
      </g>
     </g>
    </g>
    <g id="ytick_3">
     <g id="line2d_71">
      <path d="M 90 296.050909 
L 648 296.050909 
" clip-path="url(#p63abcb1891)" style="fill: none; stroke: #b0b0b0; stroke-width: 0.8; stroke-linecap: square"/>
     </g>
     <g id="line2d_72">
      <g>
       <use xlink:href="#mbd5301c60c" x="90" y="296.050909" style="stroke: #000000; stroke-width: 0.8"/>
      </g>
     </g>
     <g id="text_37">
      <!-- 50 -->
      <g transform="translate(70.275 299.850128) scale(0.1 -0.1)">
       <use xlink:href="#DejaVuSans-35"/>
       <use xlink:href="#DejaVuSans-30" transform="translate(63.623047 0)"/>
      </g>
     </g>
    </g>
    <g id="ytick_4">
     <g id="line2d_73">
      <path d="M 90 257.869091 
L 648 257.869091 
" clip-path="url(#p63abcb1891)" style="fill: none; stroke: #b0b0b0; stroke-width: 0.8; stroke-linecap: square"/>
     </g>
     <g id="line2d_74">
      <g>
       <use xlink:href="#mbd5301c60c" x="90" y="257.869091" style="stroke: #000000; stroke-width: 0.8"/>
      </g>
     </g>
     <g id="text_38">
      <!-- 75 -->
      <g transform="translate(70.275 261.66831) scale(0.1 -0.1)">
       <use xlink:href="#DejaVuSans-37"/>
       <use xlink:href="#DejaVuSans-35" transform="translate(63.623047 0)"/>
      </g>
     </g>
    </g>
    <g id="ytick_5">
     <g id="line2d_75">
      <path d="M 90 219.687273 
L 648 219.687273 
" clip-path="url(#p63abcb1891)" style="fill: none; stroke: #b0b0b0; stroke-width: 0.8; stroke-linecap: square"/>
     </g>
     <g id="line2d_76">
      <g>
       <use xlink:href="#mbd5301c60c" x="90" y="219.687273" style="stroke: #000000; stroke-width: 0.8"/>
      </g>
     </g>
     <g id="text_39">
      <!-- 100 -->
      <g transform="translate(63.9125 223.486491) scale(0.1 -0.1)">
       <use xlink:href="#DejaVuSans-31"/>
       <use xlink:href="#DejaVuSans-30" transform="translate(63.623047 0)"/>
       <use xlink:href="#DejaVuSans-30" transform="translate(127.246094 0)"/>
      </g>
     </g>
    </g>
    <g id="ytick_6">
     <g id="line2d_77">
      <path d="M 90 181.505455 
L 648 181.505455 
" clip-path="url(#p63abcb1891)" style="fill: none; stroke: #b0b0b0; stroke-width: 0.8; stroke-linecap: square"/>
     </g>
     <g id="line2d_78">
      <g>
       <use xlink:href="#mbd5301c60c" x="90" y="181.505455" style="stroke: #000000; stroke-width: 0.8"/>
      </g>
     </g>
     <g id="text_40">
      <!-- 125 -->
      <g transform="translate(63.9125 185.304673) scale(0.1 -0.1)">
       <use xlink:href="#DejaVuSans-31"/>
       <use xlink:href="#DejaVuSans-32" transform="translate(63.623047 0)"/>
       <use xlink:href="#DejaVuSans-35" transform="translate(127.246094 0)"/>
      </g>
     </g>
    </g>
    <g id="ytick_7">
     <g id="line2d_79">
      <path d="M 90 143.323636 
L 648 143.323636 
" clip-path="url(#p63abcb1891)" style="fill: none; stroke: #b0b0b0; stroke-width: 0.8; stroke-linecap: square"/>
     </g>
     <g id="line2d_80">
      <g>
       <use xlink:href="#mbd5301c60c" x="90" y="143.323636" style="stroke: #000000; stroke-width: 0.8"/>
      </g>
     </g>
     <g id="text_41">
      <!-- 150 -->
      <g transform="translate(63.9125 147.122855) scale(0.1 -0.1)">
       <use xlink:href="#DejaVuSans-31"/>
       <use xlink:href="#DejaVuSans-35" transform="translate(63.623047 0)"/>
       <use xlink:href="#DejaVuSans-30" transform="translate(127.246094 0)"/>
      </g>
     </g>
    </g>
    <g id="ytick_8">
     <g id="line2d_81">
      <path d="M 90 105.141818 
L 648 105.141818 
" clip-path="url(#p63abcb1891)" style="fill: none; stroke: #b0b0b0; stroke-width: 0.8; stroke-linecap: square"/>
     </g>
     <g id="line2d_82">
      <g>
       <use xlink:href="#mbd5301c60c" x="90" y="105.141818" style="stroke: #000000; stroke-width: 0.8"/>
      </g>
     </g>
     <g id="text_42">
      <!-- 175 -->
      <g transform="translate(63.9125 108.941037) scale(0.1 -0.1)">
       <use xlink:href="#DejaVuSans-31"/>
       <use xlink:href="#DejaVuSans-37" transform="translate(63.623047 0)"/>
       <use xlink:href="#DejaVuSans-35" transform="translate(127.246094 0)"/>
      </g>
     </g>
    </g>
    <g id="ytick_9">
     <g id="line2d_83">
      <path d="M 90 66.96 
L 648 66.96 
" clip-path="url(#p63abcb1891)" style="fill: none; stroke: #b0b0b0; stroke-width: 0.8; stroke-linecap: square"/>
     </g>
     <g id="line2d_84">
      <g>
       <use xlink:href="#mbd5301c60c" x="90" y="66.96" style="stroke: #000000; stroke-width: 0.8"/>
      </g>
     </g>
     <g id="text_43">
      <!-- 200 -->
      <g transform="translate(63.9125 70.759219) scale(0.1 -0.1)">
       <use xlink:href="#DejaVuSans-32"/>
       <use xlink:href="#DejaVuSans-30" transform="translate(63.623047 0)"/>
       <use xlink:href="#DejaVuSans-30" transform="translate(127.246094 0)"/>
      </g>
     </g>
    </g>
    <g id="text_44">
     <!-- Nr Mașini -->
     <g transform="translate(57.509375 241.474844) rotate(-90) scale(0.1 -0.1)">
      <defs>
       <path id="DejaVuSans-4e" d="M 628 4666 
L 1478 4666 
L 3547 763 
L 3547 4666 
L 4159 4666 
L 4159 0 
L 3309 0 
L 1241 3903 
L 1241 0 
L 628 0 
L 628 4666 
z
" transform="scale(0.015625)"/>
       <path id="DejaVuSans-4d" d="M 628 4666 
L 1569 4666 
L 2759 1491 
L 3956 4666 
L 4897 4666 
L 4897 0 
L 4281 0 
L 4281 4097 
L 3078 897 
L 2444 897 
L 1241 4097 
L 1241 0 
L 628 0 
L 628 4666 
z
" transform="scale(0.015625)"/>
       <path id="DejaVuSans-219" d="M 1524 -538 
L 2183 -538 
L 1670 -1538 
L 1267 -1538 
L 1524 -538 
z
M 2834 3397 
L 2834 2853 
Q 2591 2978 2328 3040 
Q 2066 3103 1784 3103 
Q 1356 3103 1142 2972 
Q 928 2841 928 2578 
Q 928 2378 1081 2264 
Q 1234 2150 1697 2047 
L 1894 2003 
Q 2506 1872 2764 1633 
Q 3022 1394 3022 966 
Q 3022 478 2636 193 
Q 2250 -91 1575 -91 
Q 1294 -91 989 -36 
Q 684 19 347 128 
L 347 722 
Q 666 556 975 473 
Q 1284 391 1588 391 
Q 1994 391 2212 530 
Q 2431 669 2431 922 
Q 2431 1156 2273 1281 
Q 2116 1406 1581 1522 
L 1381 1569 
Q 847 1681 609 1914 
Q 372 2147 372 2553 
Q 372 3047 722 3315 
Q 1072 3584 1716 3584 
Q 2034 3584 2315 3537 
Q 2597 3491 2834 3397 
z
" transform="scale(0.015625)"/>
      </defs>
      <use xlink:href="#DejaVuSans-4e"/>
      <use xlink:href="#DejaVuSans-72" transform="translate(74.804688 0)"/>
      <use xlink:href="#DejaVuSans-20" transform="translate(115.917969 0)"/>
      <use xlink:href="#DejaVuSans-4d" transform="translate(147.705078 0)"/>
      <use xlink:href="#DejaVuSans-61" transform="translate(233.984375 0)"/>
      <use xlink:href="#DejaVuSans-219" transform="translate(295.263672 0)"/>
      <use xlink:href="#DejaVuSans-69" transform="translate(347.363281 0)"/>
      <use xlink:href="#DejaVuSans-6e" transform="translate(375.146484 0)"/>
      <use xlink:href="#DejaVuSans-69" transform="translate(438.525391 0)"/>
     </g>
    </g>
   </g>
   <g id="line2d_85">
    <path d="M 115.363636 366.305455 
L 116.069162 357.141818 
L 116.774687 366.305455 
L 117.480212 369.36 
L 118.185738 354.087273 
L 118.891263 366.305455 
L 119.596788 363.250909 
L 120.302314 347.978182 
L 121.007839 357.141818 
L 121.713365 344.923636 
L 122.41889 344.923636 
L 123.124415 323.541818 
L 123.829941 314.378182 
L 124.535466 335.76 
L 125.240991 344.923636 
L 125.946517 332.705455 
L 126.652042 335.76 
L 127.357567 341.869091 
L 128.063093 341.869091 
L 128.768618 314.378182 
L 129.474143 338.814545 
L 130.179669 344.923636 
L 131.590719 351.032727 
L 132.296245 344.923636 
L 133.707295 369.36 
L 134.412821 369.36 
L 135.823872 363.250909 
L 136.529397 366.305455 
L 137.234922 366.305455 
L 137.940448 360.196364 
L 138.645973 360.196364 
L 139.351498 366.305455 
L 140.762549 366.305455 
L 141.468074 369.36 
L 142.1736 369.36 
L 142.879125 363.250909 
L 143.58465 366.305455 
L 145.701226 357.141818 
L 146.406752 369.36 
L 147.112277 369.36 
L 147.817803 351.032727 
L 148.523328 363.250909 
L 151.345429 363.250909 
L 152.050955 366.305455 
L 154.167531 366.305455 
L 154.873056 347.978182 
L 155.578581 347.978182 
L 156.284107 302.16 
L 156.989632 320.487273 
L 157.695157 341.869091 
L 158.400683 332.705455 
L 159.106208 351.032727 
L 159.811733 360.196364 
L 160.517259 344.923636 
L 161.222784 341.869091 
L 161.92831 354.087273 
L 162.633835 329.650909 
L 163.33936 360.196364 
L 164.044886 357.141818 
L 164.750411 347.978182 
L 166.161462 366.305455 
L 167.572512 366.305455 
L 168.278038 369.36 
L 169.689088 363.250909 
L 170.394614 366.305455 
L 171.100139 363.250909 
L 171.805664 363.250909 
L 172.51119 369.36 
L 173.216715 363.250909 
L 173.92224 363.250909 
L 174.627766 354.087273 
L 175.333291 366.305455 
L 176.038817 360.196364 
L 176.744342 338.814545 
L 177.449867 363.250909 
L 178.860918 363.250909 
L 179.566443 335.76 
L 180.271969 366.305455 
L 180.977494 369.36 
L 181.683019 354.087273 
L 182.388545 354.087273 
L 183.09407 347.978182 
L 183.799595 366.305455 
L 184.505121 369.36 
L 185.210646 369.36 
L 185.916171 363.250909 
L 186.621697 369.36 
L 187.327222 363.250909 
L 188.738273 369.36 
L 189.443798 369.36 
L 190.149324 360.196364 
L 190.854849 369.36 
L 191.560374 363.250909 
L 192.2659 366.305455 
L 192.971425 363.250909 
L 193.67695 354.087273 
L 194.382476 366.305455 
L 195.088001 363.250909 
L 195.793526 366.305455 
L 196.499052 357.141818 
L 197.204577 354.087273 
L 197.910102 363.250909 
L 198.615628 323.541818 
L 199.321153 341.869091 
L 200.026678 347.978182 
L 200.732204 341.869091 
L 201.437729 357.141818 
L 202.143255 360.196364 
L 202.84878 366.305455 
L 203.554305 366.305455 
L 204.259831 360.196364 
L 204.965356 366.305455 
L 205.670881 357.141818 
L 206.376407 369.36 
L 207.081932 366.305455 
L 207.787457 360.196364 
L 208.492983 363.250909 
L 209.198508 369.36 
L 209.904033 360.196364 
L 210.609559 366.305455 
L 211.315084 366.305455 
L 212.020609 363.250909 
L 212.726135 369.36 
L 213.43166 360.196364 
L 214.137185 369.36 
L 214.842711 357.141818 
L 216.253762 363.250909 
L 216.959287 360.196364 
L 217.664812 369.36 
L 219.075863 363.250909 
L 219.781388 351.032727 
L 220.486914 369.36 
L 221.192439 369.36 
L 221.897964 366.305455 
L 222.60349 357.141818 
L 223.309015 357.141818 
L 224.01454 363.250909 
L 224.720066 351.032727 
L 225.425591 360.196364 
L 226.131116 360.196364 
L 226.836642 363.250909 
L 227.542167 351.032727 
L 228.247693 347.978182 
L 228.953218 335.76 
L 229.658743 344.923636 
L 230.364269 311.323636 
L 231.069794 317.432727 
L 231.775319 320.487273 
L 232.480845 335.76 
L 233.18637 341.869091 
L 233.891895 354.087273 
L 234.597421 332.705455 
L 235.302946 354.087273 
L 236.008471 357.141818 
L 236.713997 357.141818 
L 237.419522 366.305455 
L 238.830573 366.305455 
L 239.536098 357.141818 
L 240.241623 357.141818 
L 240.947149 332.705455 
L 241.652674 347.978182 
L 242.3582 338.814545 
L 243.063725 347.978182 
L 243.76925 347.978182 
L 244.474776 341.869091 
L 245.180301 363.250909 
L 245.885826 351.032727 
L 246.591352 354.087273 
L 247.296877 351.032727 
L 248.707928 351.032727 
L 249.413453 363.250909 
L 250.118978 335.76 
L 250.824504 347.978182 
L 251.530029 357.141818 
L 252.235554 347.978182 
L 252.94108 369.36 
L 254.35213 357.141818 
L 255.057656 366.305455 
L 255.763181 363.250909 
L 256.468707 354.087273 
L 257.174232 347.978182 
L 257.879757 329.650909 
L 258.585283 347.978182 
L 259.290808 344.923636 
L 259.996333 351.032727 
L 260.701859 351.032727 
L 261.407384 366.305455 
L 262.112909 323.541818 
L 262.818435 357.141818 
L 263.52396 347.978182 
L 264.935011 335.76 
L 265.640536 335.76 
L 266.346061 338.814545 
L 267.051587 363.250909 
L 267.757112 369.36 
L 269.168163 357.141818 
L 269.873688 366.305455 
L 271.284739 366.305455 
L 271.990264 369.36 
L 272.69579 363.250909 
L 273.401315 363.250909 
L 274.10684 369.36 
L 274.812366 351.032727 
L 275.517891 360.196364 
L 276.223416 363.250909 
L 276.928942 369.36 
L 277.634467 363.250909 
L 278.339992 363.250909 
L 279.045518 360.196364 
L 279.751043 363.250909 
L 280.456568 357.141818 
L 281.162094 363.250909 
L 281.867619 366.305455 
L 282.573145 360.196364 
L 283.984195 366.305455 
L 284.689721 363.250909 
L 285.395246 363.250909 
L 286.100771 354.087273 
L 286.806297 363.250909 
L 288.217347 363.250909 
L 288.922873 351.032727 
L 289.628398 363.250909 
L 290.333923 363.250909 
L 291.039449 344.923636 
L 291.744974 311.323636 
L 292.450499 335.76 
L 293.156025 347.978182 
L 293.86155 354.087273 
L 294.567075 357.141818 
L 295.272601 357.141818 
L 295.978126 360.196364 
L 296.683652 357.141818 
L 297.389177 357.141818 
L 298.094702 360.196364 
L 298.800228 357.141818 
L 299.505753 338.814545 
L 300.211278 357.141818 
L 300.916804 347.978182 
L 301.622329 363.250909 
L 302.327854 360.196364 
L 303.03338 369.36 
L 303.738905 363.250909 
L 304.44443 363.250909 
L 305.149956 369.36 
L 305.855481 360.196364 
L 306.561006 366.305455 
L 307.266532 357.141818 
L 308.677583 357.141818 
L 309.383108 335.76 
L 310.088633 366.305455 
L 310.794159 354.087273 
L 311.499684 357.141818 
L 312.205209 338.814545 
L 312.910735 268.56 
L 313.61626 302.16 
L 314.321785 292.996364 
L 315.027311 244.123636 
L 315.732836 286.887273 
L 316.438361 302.16 
L 317.143887 323.541818 
L 317.849412 323.541818 
L 318.554937 320.487273 
L 319.260463 357.141818 
L 320.671513 357.141818 
L 322.082564 363.250909 
L 322.78809 363.250909 
L 323.493615 360.196364 
L 324.19914 360.196364 
L 324.904666 347.978182 
L 325.610191 360.196364 
L 326.315716 363.250909 
L 327.021242 354.087273 
L 327.726767 347.978182 
L 328.432292 366.305455 
L 329.137818 351.032727 
L 329.843343 341.869091 
L 330.548868 335.76 
L 331.254394 341.869091 
L 331.959919 326.596364 
L 332.665444 305.214545 
L 333.37097 296.050909 
L 334.076495 329.650909 
L 334.78202 335.76 
L 335.487546 326.596364 
L 336.193071 357.141818 
L 336.898597 363.250909 
L 337.604122 366.305455 
L 338.309647 363.250909 
L 339.015173 357.141818 
L 339.720698 360.196364 
L 340.426223 366.305455 
L 341.131749 354.087273 
L 341.837274 338.814545 
L 342.542799 354.087273 
L 343.248325 332.705455 
L 343.95385 335.76 
L 344.659375 347.978182 
L 345.364901 341.869091 
L 346.070426 344.923636 
L 346.775951 360.196364 
L 347.481477 357.141818 
L 348.187002 335.76 
L 348.892528 338.814545 
L 349.598053 351.032727 
L 350.303578 341.869091 
L 351.009104 344.923636 
L 351.714629 335.76 
L 354.53673 360.196364 
L 355.242256 360.196364 
L 355.947781 347.978182 
L 356.653306 357.141818 
L 358.064357 351.032727 
L 358.769882 341.869091 
L 359.475408 338.814545 
L 360.180933 354.087273 
L 360.886458 335.76 
L 361.591984 347.978182 
L 362.297509 341.869091 
L 363.003035 338.814545 
L 363.70856 354.087273 
L 364.414085 344.923636 
L 365.119611 357.141818 
L 366.530661 338.814545 
L 367.236187 357.141818 
L 367.941712 338.814545 
L 368.647237 341.869091 
L 369.352763 347.978182 
L 370.058288 351.032727 
L 370.763813 347.978182 
L 371.469339 351.032727 
L 372.174864 366.305455 
L 372.880389 369.36 
L 373.585915 369.36 
L 374.29144 351.032727 
L 374.996965 360.196364 
L 375.702491 357.141818 
L 376.408016 351.032727 
L 377.113542 357.141818 
L 377.819067 354.087273 
L 378.524592 363.250909 
L 379.230118 360.196364 
L 379.935643 360.196364 
L 380.641168 357.141818 
L 381.346694 363.250909 
L 382.052219 357.141818 
L 382.757744 357.141818 
L 383.46327 351.032727 
L 384.168795 357.141818 
L 384.87432 344.923636 
L 385.579846 341.869091 
L 386.285371 341.869091 
L 386.990896 347.978182 
L 387.696422 366.305455 
L 388.401947 363.250909 
L 389.107472 366.305455 
L 389.812998 360.196364 
L 390.518523 363.250909 
L 391.224049 357.141818 
L 391.929574 366.305455 
L 392.635099 360.196364 
L 393.340625 366.305455 
L 394.04615 363.250909 
L 395.457201 351.032727 
L 396.162726 363.250909 
L 396.868251 344.923636 
L 397.573777 363.250909 
L 398.279302 344.923636 
L 398.984827 357.141818 
L 399.690353 347.978182 
L 400.395878 351.032727 
L 401.101403 360.196364 
L 401.806929 363.250909 
L 403.21798 357.141818 
L 403.923505 360.196364 
L 404.62903 347.978182 
L 405.334556 347.978182 
L 406.040081 357.141818 
L 407.451132 363.250909 
L 408.156657 363.250909 
L 408.862182 366.305455 
L 409.567708 360.196364 
L 410.273233 347.978182 
L 410.978758 357.141818 
L 411.684284 344.923636 
L 412.389809 363.250909 
L 413.095334 360.196364 
L 414.506385 366.305455 
L 415.21191 347.978182 
L 415.917436 357.141818 
L 416.622961 351.032727 
L 418.034012 363.250909 
L 418.739537 344.923636 
L 419.445063 329.650909 
L 420.150588 351.032727 
L 420.856113 354.087273 
L 421.561639 363.250909 
L 422.267164 360.196364 
L 423.678215 366.305455 
L 425.089265 366.305455 
L 425.794791 369.36 
L 426.500316 360.196364 
L 427.205841 366.305455 
L 427.911367 363.250909 
L 429.322417 351.032727 
L 430.733468 363.250909 
L 431.438994 354.087273 
L 432.144519 347.978182 
L 432.850044 335.76 
L 433.55557 347.978182 
L 434.261095 357.141818 
L 434.96662 347.978182 
L 435.672146 360.196364 
L 436.377671 354.087273 
L 437.083196 360.196364 
L 437.788722 360.196364 
L 438.494247 366.305455 
L 439.199772 366.305455 
L 439.905298 363.250909 
L 440.610823 363.250909 
L 441.316348 357.141818 
L 442.021874 369.36 
L 442.727399 369.36 
L 443.432925 363.250909 
L 444.13845 366.305455 
L 444.843975 366.305455 
L 445.549501 363.250909 
L 446.960551 369.36 
L 447.666077 363.250909 
L 448.371602 366.305455 
L 449.077127 354.087273 
L 449.782653 351.032727 
L 450.488178 360.196364 
L 451.193703 363.250909 
L 451.899229 363.250909 
L 452.604754 366.305455 
L 453.310279 366.305455 
L 454.015805 357.141818 
L 454.72133 357.141818 
L 455.426855 347.978182 
L 456.132381 366.305455 
L 457.543432 366.305455 
L 458.248957 357.141818 
L 458.954482 366.305455 
L 459.660008 360.196364 
L 460.365533 366.305455 
L 461.071058 354.087273 
L 461.776584 366.305455 
L 462.482109 366.305455 
L 463.187634 363.250909 
L 463.89316 363.250909 
L 464.598685 357.141818 
L 465.30421 363.250909 
L 466.009736 354.087273 
L 466.715261 351.032727 
L 467.420786 317.432727 
L 468.126312 344.923636 
L 468.831837 341.869091 
L 469.537362 329.650909 
L 470.242888 363.250909 
L 470.948413 354.087273 
L 471.653939 351.032727 
L 472.359464 363.250909 
L 473.064989 351.032727 
L 473.770515 369.36 
L 474.47604 366.305455 
L 475.181565 360.196364 
L 475.887091 366.305455 
L 476.592616 354.087273 
L 477.298141 338.814545 
L 478.003667 351.032727 
L 478.709192 341.869091 
L 479.414717 347.978182 
L 480.120243 363.250909 
L 480.825768 341.869091 
L 481.531293 338.814545 
L 482.236819 344.923636 
L 482.942344 341.869091 
L 483.64787 351.032727 
L 484.353395 335.76 
L 485.05892 335.76 
L 485.764446 341.869091 
L 486.469971 357.141818 
L 487.175496 347.978182 
L 487.881022 351.032727 
L 488.586547 360.196364 
L 489.292072 363.250909 
L 489.997598 369.36 
L 491.408648 363.250909 
L 492.114174 366.305455 
L 492.819699 363.250909 
L 493.525224 363.250909 
L 494.23075 354.087273 
L 494.936275 338.814545 
L 495.6418 357.141818 
L 496.347326 366.305455 
L 497.052851 351.032727 
L 498.463902 326.596364 
L 499.169427 332.705455 
L 499.874953 323.541818 
L 500.580478 357.141818 
L 501.286003 335.76 
L 501.991529 335.76 
L 503.402579 347.978182 
L 504.108105 317.432727 
L 504.81363 320.487273 
L 506.224681 357.141818 
L 508.341257 366.305455 
L 509.046782 360.196364 
L 509.752307 360.196364 
L 510.457833 354.087273 
L 511.163358 360.196364 
L 511.868884 311.323636 
L 512.574409 323.541818 
L 513.279934 323.541818 
L 514.690985 341.869091 
L 515.39651 341.869091 
L 516.102036 329.650909 
L 516.807561 344.923636 
L 517.513086 341.869091 
L 518.218612 357.141818 
L 518.924137 360.196364 
L 519.629662 338.814545 
L 520.335188 354.087273 
L 521.040713 351.032727 
L 521.746238 354.087273 
L 522.451764 360.196364 
L 523.157289 354.087273 
L 523.862815 369.36 
L 524.56834 363.250909 
L 525.979391 363.250909 
L 526.684916 357.141818 
L 527.390441 354.087273 
L 528.095967 354.087273 
L 528.801492 347.978182 
L 529.507017 363.250909 
L 530.212543 341.869091 
L 530.918068 347.978182 
L 531.623593 341.869091 
L 532.329119 354.087273 
L 533.034644 351.032727 
L 533.740169 335.76 
L 534.445695 360.196364 
L 535.15122 347.978182 
L 535.856745 347.978182 
L 536.562271 341.869091 
L 537.267796 354.087273 
L 537.973322 344.923636 
L 538.678847 347.978182 
L 539.384372 363.250909 
L 540.089898 366.305455 
L 540.795423 357.141818 
L 541.500948 363.250909 
L 542.206474 366.305455 
L 542.911999 366.305455 
L 543.617524 363.250909 
L 544.32305 369.36 
L 545.028575 357.141818 
L 545.7341 357.141818 
L 546.439626 347.978182 
L 547.145151 360.196364 
L 547.850676 357.141818 
L 549.261727 338.814545 
L 549.967252 250.232727 
L 550.672778 66.96 
L 551.378303 85.287273 
L 552.789354 222.741818 
L 553.494879 256.341818 
L 554.200405 195.250909 
L 554.90593 274.669091 
L 555.611455 283.832727 
L 557.022506 329.650909 
L 557.728031 326.596364 
L 558.433557 335.76 
L 559.139082 351.032727 
L 559.844607 347.978182 
L 560.550133 354.087273 
L 561.255658 341.869091 
L 561.961183 351.032727 
L 562.666709 351.032727 
L 563.372234 323.541818 
L 564.07776 357.141818 
L 564.783285 351.032727 
L 565.48881 357.141818 
L 566.194336 344.923636 
L 566.899861 344.923636 
L 567.605386 360.196364 
L 568.310912 335.76 
L 569.016437 347.978182 
L 569.721962 308.269091 
L 570.427488 283.832727 
L 571.133013 323.541818 
L 571.838538 329.650909 
L 572.544064 314.378182 
L 573.249589 332.705455 
L 573.955114 347.978182 
L 574.66064 335.76 
L 575.366165 351.032727 
L 576.07169 354.087273 
L 576.777216 366.305455 
L 577.482741 357.141818 
L 578.188267 354.087273 
L 578.893792 335.76 
L 579.599317 351.032727 
L 580.304843 360.196364 
L 581.010368 347.978182 
L 581.715893 360.196364 
L 582.421419 351.032727 
L 583.126944 363.250909 
L 583.832469 347.978182 
L 584.537995 354.087273 
L 585.24352 305.214545 
L 585.949045 332.705455 
L 586.654571 329.650909 
L 587.360096 335.76 
L 588.065621 323.541818 
L 588.771147 338.814545 
L 589.476672 329.650909 
L 590.182197 326.596364 
L 590.887723 338.814545 
L 591.593248 357.141818 
L 592.298774 347.978182 
L 593.004299 329.650909 
L 593.709824 338.814545 
L 594.41535 341.869091 
L 595.120875 347.978182 
L 595.8264 344.923636 
L 597.237451 332.705455 
L 597.942976 332.705455 
L 598.648502 320.487273 
L 599.354027 320.487273 
L 600.059552 338.814545 
L 600.765078 338.814545 
L 601.470603 320.487273 
L 602.176128 314.378182 
L 602.881654 329.650909 
L 603.587179 268.56 
L 604.292705 305.214545 
L 604.99823 323.541818 
L 605.703755 314.378182 
L 606.409281 329.650909 
L 607.820331 347.978182 
L 608.525857 360.196364 
L 609.231382 360.196364 
L 609.936907 354.087273 
L 610.642433 360.196364 
L 611.347958 363.250909 
L 612.053483 351.032727 
L 612.759009 335.76 
L 613.464534 308.269091 
L 614.170059 329.650909 
L 614.875585 344.923636 
L 616.286635 332.705455 
L 616.992161 344.923636 
L 617.697686 332.705455 
L 618.403212 338.814545 
L 619.108737 335.76 
L 619.814262 335.76 
L 620.519788 344.923636 
L 621.225313 351.032727 
L 621.930838 329.650909 
L 622.636364 344.923636 
L 622.636364 344.923636 
" clip-path="url(#p63abcb1891)" style="fill: none; stroke: #1f77b4; stroke-width: 1.5; stroke-linecap: square"/>
   </g>
   <g id="patch_3">
    <path d="M 90 384.48 
L 90 51.84 
" style="fill: none; stroke: #000000; stroke-width: 0.8; stroke-linejoin: miter; stroke-linecap: square"/>
   </g>
   <g id="patch_4">
    <path d="M 648 384.48 
L 648 51.84 
" style="fill: none; stroke: #000000; stroke-width: 0.8; stroke-linejoin: miter; stroke-linecap: square"/>
   </g>
   <g id="patch_5">
    <path d="M 90 384.48 
L 648 384.48 
" style="fill: none; stroke: #000000; stroke-width: 0.8; stroke-linejoin: miter; stroke-linecap: square"/>
   </g>
   <g id="patch_6">
    <path d="M 90 51.84 
L 648 51.84 
" style="fill: none; stroke: #000000; stroke-width: 0.8; stroke-linejoin: miter; stroke-linecap: square"/>
   </g>
   <g id="text_45">
    <!-- Trafic pe o lună (Start: 2012-10-08 00:00:00) -->
    <g transform="translate(234.259688 45.84) scale(0.12 -0.12)">
     <defs>
      <path id="DejaVuSans-54" d="M -19 4666 
L 3928 4666 
L 3928 4134 
L 2272 4134 
L 2272 0 
L 1638 0 
L 1638 4134 
L -19 4134 
L -19 4666 
z
" transform="scale(0.015625)"/>
      <path id="DejaVuSans-66" d="M 2375 4863 
L 2375 4384 
L 1825 4384 
Q 1516 4384 1395 4259 
Q 1275 4134 1275 3809 
L 1275 3500 
L 2222 3500 
L 2222 3053 
L 1275 3053 
L 1275 0 
L 697 0 
L 697 3053 
L 147 3053 
L 147 3500 
L 697 3500 
L 697 3744 
Q 697 4328 969 4595 
Q 1241 4863 1831 4863 
L 2375 4863 
z
" transform="scale(0.015625)"/>
      <path id="DejaVuSans-70" d="M 1159 525 
L 1159 -1331 
L 581 -1331 
L 581 3500 
L 1159 3500 
L 1159 2969 
Q 1341 3281 1617 3432 
Q 1894 3584 2278 3584 
Q 2916 3584 3314 3078 
Q 3713 2572 3713 1747 
Q 3713 922 3314 415 
Q 2916 -91 2278 -91 
Q 1894 -91 1617 61 
Q 1341 213 1159 525 
z
M 3116 1747 
Q 3116 2381 2855 2742 
Q 2594 3103 2138 3103 
Q 1681 3103 1420 2742 
Q 1159 2381 1159 1747 
Q 1159 1113 1420 752 
Q 1681 391 2138 391 
Q 2594 391 2855 752 
Q 3116 1113 3116 1747 
z
" transform="scale(0.015625)"/>
      <path id="DejaVuSans-6f" d="M 1959 3097 
Q 1497 3097 1228 2736 
Q 959 2375 959 1747 
Q 959 1119 1226 758 
Q 1494 397 1959 397 
Q 2419 397 2687 759 
Q 2956 1122 2956 1747 
Q 2956 2369 2687 2733 
Q 2419 3097 1959 3097 
z
M 1959 3584 
Q 2709 3584 3137 3096 
Q 3566 2609 3566 1747 
Q 3566 888 3137 398 
Q 2709 -91 1959 -91 
Q 1206 -91 779 398 
Q 353 888 353 1747 
Q 353 2609 779 3096 
Q 1206 3584 1959 3584 
z
" transform="scale(0.015625)"/>
      <path id="DejaVuSans-75" d="M 544 1381 
L 544 3500 
L 1119 3500 
L 1119 1403 
Q 1119 906 1312 657 
Q 1506 409 1894 409 
Q 2359 409 2629 706 
Q 2900 1003 2900 1516 
L 2900 3500 
L 3475 3500 
L 3475 0 
L 2900 0 
L 2900 538 
Q 2691 219 2414 64 
Q 2138 -91 1772 -91 
Q 1169 -91 856 284 
Q 544 659 544 1381 
z
M 1991 3584 
L 1991 3584 
z
" transform="scale(0.015625)"/>
      <path id="DejaVuSans-28" d="M 1984 4856 
Q 1566 4138 1362 3434 
Q 1159 2731 1159 2009 
Q 1159 1288 1364 580 
Q 1569 -128 1984 -844 
L 1484 -844 
Q 1016 -109 783 600 
Q 550 1309 550 2009 
Q 550 2706 781 3412 
Q 1013 4119 1484 4856 
L 1984 4856 
z
" transform="scale(0.015625)"/>
      <path id="DejaVuSans-53" d="M 3425 4513 
L 3425 3897 
Q 3066 4069 2747 4153 
Q 2428 4238 2131 4238 
Q 1616 4238 1336 4038 
Q 1056 3838 1056 3469 
Q 1056 3159 1242 3001 
Q 1428 2844 1947 2747 
L 2328 2669 
Q 3034 2534 3370 2195 
Q 3706 1856 3706 1288 
Q 3706 609 3251 259 
Q 2797 -91 1919 -91 
Q 1588 -91 1214 -16 
Q 841 59 441 206 
L 441 856 
Q 825 641 1194 531 
Q 1563 422 1919 422 
Q 2459 422 2753 634 
Q 3047 847 3047 1241 
Q 3047 1584 2836 1778 
Q 2625 1972 2144 2069 
L 1759 2144 
Q 1053 2284 737 2584 
Q 422 2884 422 3419 
Q 422 4038 858 4394 
Q 1294 4750 2059 4750 
Q 2388 4750 2728 4690 
Q 3069 4631 3425 4513 
z
" transform="scale(0.015625)"/>
      <path id="DejaVuSans-3a" d="M 750 794 
L 1409 794 
L 1409 0 
L 750 0 
L 750 794 
z
M 750 3309 
L 1409 3309 
L 1409 2516 
L 750 2516 
L 750 3309 
z
" transform="scale(0.015625)"/>
      <path id="DejaVuSans-2d" d="M 313 2009 
L 1997 2009 
L 1997 1497 
L 313 1497 
L 313 2009 
z
" transform="scale(0.015625)"/>
      <path id="DejaVuSans-29" d="M 513 4856 
L 1013 4856 
Q 1481 4119 1714 3412 
Q 1947 2706 1947 2009 
Q 1947 1309 1714 600 
Q 1481 -109 1013 -844 
L 513 -844 
Q 928 -128 1133 580 
Q 1338 1288 1338 2009 
Q 1338 2731 1133 3434 
Q 928 4138 513 4856 
z
" transform="scale(0.015625)"/>
     </defs>
     <use xlink:href="#DejaVuSans-54"/>
     <use xlink:href="#DejaVuSans-72" transform="translate(46.333984 0)"/>
     <use xlink:href="#DejaVuSans-61" transform="translate(87.447266 0)"/>
     <use xlink:href="#DejaVuSans-66" transform="translate(148.726562 0)"/>
     <use xlink:href="#DejaVuSans-69" transform="translate(183.931641 0)"/>
     <use xlink:href="#DejaVuSans-63" transform="translate(211.714844 0)"/>
     <use xlink:href="#DejaVuSans-20" transform="translate(266.695312 0)"/>
     <use xlink:href="#DejaVuSans-70" transform="translate(298.482422 0)"/>
     <use xlink:href="#DejaVuSans-65" transform="translate(361.958984 0)"/>
     <use xlink:href="#DejaVuSans-20" transform="translate(423.482422 0)"/>
     <use xlink:href="#DejaVuSans-6f" transform="translate(455.269531 0)"/>
     <use xlink:href="#DejaVuSans-20" transform="translate(516.451172 0)"/>
     <use xlink:href="#DejaVuSans-6c" transform="translate(548.238281 0)"/>
     <use xlink:href="#DejaVuSans-75" transform="translate(576.021484 0)"/>
     <use xlink:href="#DejaVuSans-6e" transform="translate(639.400391 0)"/>
     <use xlink:href="#DejaVuSans-103" transform="translate(702.779297 0)"/>
     <use xlink:href="#DejaVuSans-20" transform="translate(764.058594 0)"/>
     <use xlink:href="#DejaVuSans-28" transform="translate(795.845703 0)"/>
     <use xlink:href="#DejaVuSans-53" transform="translate(834.859375 0)"/>
     <use xlink:href="#DejaVuSans-74" transform="translate(898.335938 0)"/>
     <use xlink:href="#DejaVuSans-61" transform="translate(937.544922 0)"/>
     <use xlink:href="#DejaVuSans-72" transform="translate(998.824219 0)"/>
     <use xlink:href="#DejaVuSans-74" transform="translate(1039.9375 0)"/>
     <use xlink:href="#DejaVuSans-3a" transform="translate(1079.146484 0)"/>
     <use xlink:href="#DejaVuSans-20" transform="translate(1112.837891 0)"/>
     <use xlink:href="#DejaVuSans-32" transform="translate(1144.625 0)"/>
     <use xlink:href="#DejaVuSans-30" transform="translate(1208.248047 0)"/>
     <use xlink:href="#DejaVuSans-31" transform="translate(1271.871094 0)"/>
     <use xlink:href="#DejaVuSans-32" transform="translate(1335.494141 0)"/>
     <use xlink:href="#DejaVuSans-2d" transform="translate(1399.117188 0)"/>
     <use xlink:href="#DejaVuSans-31" transform="translate(1435.201172 0)"/>
     <use xlink:href="#DejaVuSans-30" transform="translate(1498.824219 0)"/>
     <use xlink:href="#DejaVuSans-2d" transform="translate(1562.447266 0)"/>
     <use xlink:href="#DejaVuSans-30" transform="translate(1598.53125 0)"/>
     <use xlink:href="#DejaVuSans-38" transform="translate(1662.154297 0)"/>
     <use xlink:href="#DejaVuSans-20" transform="translate(1725.777344 0)"/>
     <use xlink:href="#DejaVuSans-30" transform="translate(1757.564453 0)"/>
     <use xlink:href="#DejaVuSans-30" transform="translate(1821.1875 0)"/>
     <use xlink:href="#DejaVuSans-3a" transform="translate(1884.810547 0)"/>
     <use xlink:href="#DejaVuSans-30" transform="translate(1918.501953 0)"/>
     <use xlink:href="#DejaVuSans-30" transform="translate(1982.125 0)"/>
     <use xlink:href="#DejaVuSans-3a" transform="translate(2045.748047 0)"/>
     <use xlink:href="#DejaVuSans-30" transform="translate(2079.439453 0)"/>
     <use xlink:href="#DejaVuSans-30" transform="translate(2143.0625 0)"/>
     <use xlink:href="#DejaVuSans-29" transform="translate(2206.685547 0)"/>
    </g>
   </g>
  </g>
 </g>
 <defs>
  <clipPath id="p63abcb1891">
   <rect x="90" y="51.84" width="558" height="332.64"/>
  </clipPath>
 </defs>
</svg>
