<?xml version="1.0" encoding="utf-8" standalone="no"?>
<!DOCTYPE svg PUBLIC "-//W3C//DTD SVG 1.1//EN"
  "http://www.w3.org/Graphics/SVG/1.1/DTD/svg11.dtd">
<svg xmlns:xlink="http://www.w3.org/1999/xlink" width="720pt" height="432pt" viewBox="0 0 720 432" xmlns="http://www.w3.org/2000/svg" version="1.1">
 <metadata>
  <rdf:RDF xmlns:dc="http://purl.org/dc/elements/1.1/" xmlns:cc="http://creativecommons.org/ns#" xmlns:rdf="http://www.w3.org/1999/02/22-rdf-syntax-ns#">
   <cc:Work>
    <dc:type rdf:resource="http://purl.org/dc/dcmitype/StillImage"/>
    <dc:date>2025-11-18T12:14:02.879439</dc:date>
    <dc:format>image/svg+xml</dc:format>
    <dc:creator>
     <cc:Agent>
      <dc:title>Matplotlib v3.10.7, https://matplotlib.org/</dc:title>
     </cc:Agent>
    </dc:creator>
   </cc:Work>
  </rdf:RDF>
 </metadata>
 <defs>
  <style type="text/css">*{stroke-linejoin: round; stroke-linecap: butt}</style>
 </defs>
 <g id="figure_1">
  <g id="patch_1">
   <path d="M 0 432 
L 720 432 
L 720 0 
L 0 0 
z
" style="fill: #ffffff"/>
  </g>
  <g id="axes_1">
   <g id="patch_2">
    <path d="M 59.3525 191.90375 
L 696.555 191.90375 
L 696.555 26.88 
L 59.3525 26.88 
z
" style="fill: #ffffff"/>
   </g>
   <g id="matplotlib.axis_1">
    <g id="xtick_1">
     <g id="line2d_1">
      <defs>
       <path id="mcb18b5eb44" d="M 0 0 
L 0 3.5 
" style="stroke: #000000; stroke-width: 0.8"/>
      </defs>
      <g>
       <use xlink:href="#mcb18b5eb44" x="59.3525" y="191.90375" style="stroke: #000000; stroke-width: 0.8"/>
      </g>
     </g>
    </g>
    <g id="xtick_2">
     <g id="line2d_2">
      <g>
       <use xlink:href="#mcb18b5eb44" x="186.793" y="191.90375" style="stroke: #000000; stroke-width: 0.8"/>
      </g>
     </g>
    </g>
    <g id="xtick_3">
     <g id="line2d_3">
      <g>
       <use xlink:href="#mcb18b5eb44" x="314.2335" y="191.90375" style="stroke: #000000; stroke-width: 0.8"/>
      </g>
     </g>
    </g>
    <g id="xtick_4">
     <g id="line2d_4">
      <g>
       <use xlink:href="#mcb18b5eb44" x="441.674" y="191.90375" style="stroke: #000000; stroke-width: 0.8"/>
      </g>
     </g>
    </g>
    <g id="xtick_5">
     <g id="line2d_5">
      <g>
       <use xlink:href="#mcb18b5eb44" x="569.1145" y="191.90375" style="stroke: #000000; stroke-width: 0.8"/>
      </g>
     </g>
    </g>
    <g id="xtick_6">
     <g id="line2d_6">
      <g>
       <use xlink:href="#mcb18b5eb44" x="696.555" y="191.90375" style="stroke: #000000; stroke-width: 0.8"/>
      </g>
     </g>
    </g>
   </g>
   <g id="matplotlib.axis_2">
    <g id="ytick_1">
     <g id="line2d_7">
      <defs>
       <path id="m1c3522ff5a" d="M 0 0 
L -3.5 0 
" style="stroke: #000000; stroke-width: 0.8"/>
      </defs>
      <g>
       <use xlink:href="#m1c3522ff5a" x="59.3525" y="191.90375" style="stroke: #000000; stroke-width: 0.8"/>
      </g>
     </g>
     <g id="text_1">
      <!-- −100 -->
      <g transform="translate(24.885313 195.702969) scale(0.1 -0.1)">
       <defs>
        <path id="DejaVuSans-2212" d="M 678 2272 
L 4684 2272 
L 4684 1741 
L 678 1741 
L 678 2272 
z
" transform="scale(0.015625)"/>
        <path id="DejaVuSans-31" d="M 794 531 
L 1825 531 
L 1825 4091 
L 703 3866 
L 703 4441 
L 1819 4666 
L 2450 4666 
L 2450 531 
L 3481 531 
L 3481 0 
L 794 0 
L 794 531 
z
" transform="scale(0.015625)"/>
        <path id="DejaVuSans-30" d="M 2034 4250 
Q 1547 4250 1301 3770 
Q 1056 3291 1056 2328 
Q 1056 1369 1301 889 
Q 1547 409 2034 409 
Q 2525 409 2770 889 
Q 3016 1369 3016 2328 
Q 3016 3291 2770 3770 
Q 2525 4250 2034 4250 
z
M 2034 4750 
Q 2819 4750 3233 4129 
Q 3647 3509 3647 2328 
Q 3647 1150 3233 529 
Q 2819 -91 2034 -91 
Q 1250 -91 836 529 
Q 422 1150 422 2328 
Q 422 3509 836 4129 
Q 1250 4750 2034 4750 
z
" transform="scale(0.015625)"/>
       </defs>
       <use xlink:href="#DejaVuSans-2212"/>
       <use xlink:href="#DejaVuSans-31" transform="translate(83.789062 0)"/>
       <use xlink:href="#DejaVuSans-30" transform="translate(147.412109 0)"/>
       <use xlink:href="#DejaVuSans-30" transform="translate(211.035156 0)"/>
      </g>
     </g>
    </g>
    <g id="ytick_2">
     <g id="line2d_8">
      <g>
       <use xlink:href="#m1c3522ff5a" x="59.3525" y="164.399792" style="stroke: #000000; stroke-width: 0.8"/>
      </g>
     </g>
     <g id="text_2">
      <!-- −50 -->
      <g transform="translate(31.247813 168.19901) scale(0.1 -0.1)">
       <defs>
        <path id="DejaVuSans-35" d="M 691 4666 
L 3169 4666 
L 3169 4134 
L 1269 4134 
L 1269 2991 
Q 1406 3038 1543 3061 
Q 1681 3084 1819 3084 
Q 2600 3084 3056 2656 
Q 3513 2228 3513 1497 
Q 3513 744 3044 326 
Q 2575 -91 1722 -91 
Q 1428 -91 1123 -41 
Q 819 9 494 109 
L 494 744 
Q 775 591 1075 516 
Q 1375 441 1709 441 
Q 2250 441 2565 725 
Q 2881 1009 2881 1497 
Q 2881 1984 2565 2268 
Q 2250 2553 1709 2553 
Q 1456 2553 1204 2497 
Q 953 2441 691 2322 
L 691 4666 
z
" transform="scale(0.015625)"/>
       </defs>
       <use xlink:href="#DejaVuSans-2212"/>
       <use xlink:href="#DejaVuSans-35" transform="translate(83.789062 0)"/>
       <use xlink:href="#DejaVuSans-30" transform="translate(147.412109 0)"/>
      </g>
     </g>
    </g>
    <g id="ytick_3">
     <g id="line2d_9">
      <g>
       <use xlink:href="#m1c3522ff5a" x="59.3525" y="136.895833" style="stroke: #000000; stroke-width: 0.8"/>
      </g>
     </g>
     <g id="text_3">
      <!-- 0 -->
      <g transform="translate(45.99 140.695052) scale(0.1 -0.1)">
       <use xlink:href="#DejaVuSans-30"/>
      </g>
     </g>
    </g>
    <g id="ytick_4">
     <g id="line2d_10">
      <g>
       <use xlink:href="#m1c3522ff5a" x="59.3525" y="109.391875" style="stroke: #000000; stroke-width: 0.8"/>
      </g>
     </g>
     <g id="text_4">
      <!-- 50 -->
      <g transform="translate(39.6275 113.191094) scale(0.1 -0.1)">
       <use xlink:href="#DejaVuSans-35"/>
       <use xlink:href="#DejaVuSans-30" transform="translate(63.623047 0)"/>
      </g>
     </g>
    </g>
    <g id="ytick_5">
     <g id="line2d_11">
      <g>
       <use xlink:href="#m1c3522ff5a" x="59.3525" y="81.887917" style="stroke: #000000; stroke-width: 0.8"/>
      </g>
     </g>
     <g id="text_5">
      <!-- 100 -->
      <g transform="translate(33.265 85.687135) scale(0.1 -0.1)">
       <use xlink:href="#DejaVuSans-31"/>
       <use xlink:href="#DejaVuSans-30" transform="translate(63.623047 0)"/>
       <use xlink:href="#DejaVuSans-30" transform="translate(127.246094 0)"/>
      </g>
     </g>
    </g>
    <g id="ytick_6">
     <g id="line2d_12">
      <g>
       <use xlink:href="#m1c3522ff5a" x="59.3525" y="54.383958" style="stroke: #000000; stroke-width: 0.8"/>
      </g>
     </g>
     <g id="text_6">
      <!-- 150 -->
      <g transform="translate(33.265 58.183177) scale(0.1 -0.1)">
       <use xlink:href="#DejaVuSans-31"/>
       <use xlink:href="#DejaVuSans-35" transform="translate(63.623047 0)"/>
       <use xlink:href="#DejaVuSans-30" transform="translate(127.246094 0)"/>
      </g>
     </g>
    </g>
    <g id="ytick_7">
     <g id="line2d_13">
      <g>
       <use xlink:href="#m1c3522ff5a" x="59.3525" y="26.88" style="stroke: #000000; stroke-width: 0.8"/>
      </g>
     </g>
     <g id="text_7">
      <!-- 200 -->
      <g transform="translate(33.265 30.679219) scale(0.1 -0.1)">
       <defs>
        <path id="DejaVuSans-32" d="M 1228 531 
L 3431 531 
L 3431 0 
L 469 0 
L 469 531 
Q 828 903 1448 1529 
Q 2069 2156 2228 2338 
Q 2531 2678 2651 2914 
Q 2772 3150 2772 3378 
Q 2772 3750 2511 3984 
Q 2250 4219 1831 4219 
Q 1534 4219 1204 4116 
Q 875 4013 500 3803 
L 500 4441 
Q 881 4594 1212 4672 
Q 1544 4750 1819 4750 
Q 2544 4750 2975 4387 
Q 3406 4025 3406 3419 
Q 3406 3131 3298 2873 
Q 3191 2616 2906 2266 
Q 2828 2175 2409 1742 
Q 1991 1309 1228 531 
z
" transform="scale(0.015625)"/>
       </defs>
       <use xlink:href="#DejaVuSans-32"/>
       <use xlink:href="#DejaVuSans-30" transform="translate(63.623047 0)"/>
       <use xlink:href="#DejaVuSans-30" transform="translate(127.246094 0)"/>
      </g>
     </g>
    </g>
    <g id="text_8">
     <!-- Număr mașini -->
     <g transform="translate(18.482188 144.366094) rotate(-90) scale(0.1 -0.1)">
      <defs>
       <path id="DejaVuSans-4e" d="M 628 4666 
L 1478 4666 
L 3547 763 
L 3547 4666 
L 4159 4666 
L 4159 0 
L 3309 0 
L 1241 3903 
L 1241 0 
L 628 0 
L 628 4666 
z
" transform="scale(0.015625)"/>
       <path id="DejaVuSans-75" d="M 544 1381 
L 544 3500 
L 1119 3500 
L 1119 1403 
Q 1119 906 1312 657 
Q 1506 409 1894 409 
Q 2359 409 2629 706 
Q 2900 1003 2900 1516 
L 2900 3500 
L 3475 3500 
L 3475 0 
L 2900 0 
L 2900 538 
Q 2691 219 2414 64 
Q 2138 -91 1772 -91 
Q 1169 -91 856 284 
Q 544 659 544 1381 
z
M 1991 3584 
L 1991 3584 
z
" transform="scale(0.015625)"/>
       <path id="DejaVuSans-6d" d="M 3328 2828 
Q 3544 3216 3844 3400 
Q 4144 3584 4550 3584 
Q 5097 3584 5394 3201 
Q 5691 2819 5691 2113 
L 5691 0 
L 5113 0 
L 5113 2094 
Q 5113 2597 4934 2840 
Q 4756 3084 4391 3084 
Q 3944 3084 3684 2787 
Q 3425 2491 3425 1978 
L 3425 0 
L 2847 0 
L 2847 2094 
Q 2847 2600 2669 2842 
Q 2491 3084 2119 3084 
Q 1678 3084 1418 2786 
Q 1159 2488 1159 1978 
L 1159 0 
L 581 0 
L 581 3500 
L 1159 3500 
L 1159 2956 
Q 1356 3278 1631 3431 
Q 1906 3584 2284 3584 
Q 2666 3584 2933 3390 
Q 3200 3197 3328 2828 
z
" transform="scale(0.015625)"/>
       <path id="DejaVuSans-103" d="M 870 4897 
L 1239 4897 
Q 1273 4663 1424 4545 
Q 1576 4428 1848 4428 
Q 2117 4428 2267 4544 
Q 2417 4660 2457 4897 
L 2826 4897 
Q 2795 4450 2548 4225 
Q 2301 4000 1848 4000 
Q 1395 4000 1148 4225 
Q 901 4450 870 4897 
z
M 2194 1759 
Q 1497 1759 1228 1600 
Q 959 1441 959 1056 
Q 959 750 1161 570 
Q 1363 391 1709 391 
Q 2188 391 2477 730 
Q 2766 1069 2766 1631 
L 2766 1759 
L 2194 1759 
z
M 3341 1997 
L 3341 0 
L 2766 0 
L 2766 531 
Q 2569 213 2275 61 
Q 1981 -91 1556 -91 
Q 1019 -91 701 211 
Q 384 513 384 1019 
Q 384 1609 779 1909 
Q 1175 2209 1959 2209 
L 2766 2209 
L 2766 2266 
Q 2766 2663 2505 2880 
Q 2244 3097 1772 3097 
Q 1472 3097 1187 3025 
Q 903 2953 641 2809 
L 641 3341 
Q 956 3463 1253 3523 
Q 1550 3584 1831 3584 
Q 2591 3584 2966 3190 
Q 3341 2797 3341 1997 
z
" transform="scale(0.015625)"/>
       <path id="DejaVuSans-72" d="M 2631 2963 
Q 2534 3019 2420 3045 
Q 2306 3072 2169 3072 
Q 1681 3072 1420 2755 
Q 1159 2438 1159 1844 
L 1159 0 
L 581 0 
L 581 3500 
L 1159 3500 
L 1159 2956 
Q 1341 3275 1631 3429 
Q 1922 3584 2338 3584 
Q 2397 3584 2469 3576 
Q 2541 3569 2628 3553 
L 2631 2963 
z
" transform="scale(0.015625)"/>
       <path id="DejaVuSans-20" transform="scale(0.015625)"/>
       <path id="DejaVuSans-61" d="M 2194 1759 
Q 1497 1759 1228 1600 
Q 959 1441 959 1056 
Q 959 750 1161 570 
Q 1363 391 1709 391 
Q 2188 391 2477 730 
Q 2766 1069 2766 1631 
L 2766 1759 
L 2194 1759 
z
M 3341 1997 
L 3341 0 
L 2766 0 
L 2766 531 
Q 2569 213 2275 61 
Q 1981 -91 1556 -91 
Q 1019 -91 701 211 
Q 384 513 384 1019 
Q 384 1609 779 1909 
Q 1175 2209 1959 2209 
L 2766 2209 
L 2766 2266 
Q 2766 2663 2505 2880 
Q 2244 3097 1772 3097 
Q 1472 3097 1187 3025 
Q 903 2953 641 2809 
L 641 3341 
Q 956 3463 1253 3523 
Q 1550 3584 1831 3584 
Q 2591 3584 2966 3190 
Q 3341 2797 3341 1997 
z
" transform="scale(0.015625)"/>
       <path id="DejaVuSans-219" d="M 1524 -538 
L 2183 -538 
L 1670 -1538 
L 1267 -1538 
L 1524 -538 
z
M 2834 3397 
L 2834 2853 
Q 2591 2978 2328 3040 
Q 2066 3103 1784 3103 
Q 1356 3103 1142 2972 
Q 928 2841 928 2578 
Q 928 2378 1081 2264 
Q 1234 2150 1697 2047 
L 1894 2003 
Q 2506 1872 2764 1633 
Q 3022 1394 3022 966 
Q 3022 478 2636 193 
Q 2250 -91 1575 -91 
Q 1294 -91 989 -36 
Q 684 19 347 128 
L 347 722 
Q 666 556 975 473 
Q 1284 391 1588 391 
Q 1994 391 2212 530 
Q 2431 669 2431 922 
Q 2431 1156 2273 1281 
Q 2116 1406 1581 1522 
L 1381 1569 
Q 847 1681 609 1914 
Q 372 2147 372 2553 
Q 372 3047 722 3315 
Q 1072 3584 1716 3584 
Q 2034 3584 2315 3537 
Q 2597 3491 2834 3397 
z
" transform="scale(0.015625)"/>
       <path id="DejaVuSans-69" d="M 603 3500 
L 1178 3500 
L 1178 0 
L 603 0 
L 603 3500 
z
M 603 4863 
L 1178 4863 
L 1178 4134 
L 603 4134 
L 603 4863 
z
" transform="scale(0.015625)"/>
       <path id="DejaVuSans-6e" d="M 3513 2113 
L 3513 0 
L 2938 0 
L 2938 2094 
Q 2938 2591 2744 2837 
Q 2550 3084 2163 3084 
Q 1697 3084 1428 2787 
Q 1159 2491 1159 1978 
L 1159 0 
L 581 0 
L 581 3500 
L 1159 3500 
L 1159 2956 
Q 1366 3272 1645 3428 
Q 1925 3584 2291 3584 
Q 2894 3584 3203 3211 
Q 3513 2838 3513 2113 
z
" transform="scale(0.015625)"/>
      </defs>
      <use xlink:href="#DejaVuSans-4e"/>
      <use xlink:href="#DejaVuSans-75" transform="translate(74.804688 0)"/>
      <use xlink:href="#DejaVuSans-6d" transform="translate(138.183594 0)"/>
      <use xlink:href="#DejaVuSans-103" transform="translate(235.595703 0)"/>
      <use xlink:href="#DejaVuSans-72" transform="translate(296.875 0)"/>
      <use xlink:href="#DejaVuSans-20" transform="translate(337.988281 0)"/>
      <use xlink:href="#DejaVuSans-6d" transform="translate(369.775391 0)"/>
      <use xlink:href="#DejaVuSans-61" transform="translate(467.1875 0)"/>
      <use xlink:href="#DejaVuSans-219" transform="translate(528.466797 0)"/>
      <use xlink:href="#DejaVuSans-69" transform="translate(580.566406 0)"/>
      <use xlink:href="#DejaVuSans-6e" transform="translate(608.349609 0)"/>
      <use xlink:href="#DejaVuSans-69" transform="translate(671.728516 0)"/>
     </g>
    </g>
   </g>
   <g id="line2d_14">
    <path d="M 59.3525 132.4952 
L 59.989703 135.795675 
L 60.626905 133.595358 
L 61.264108 135.795675 
L 63.812918 135.795675 
L 64.45012 133.595358 
L 65.087323 135.795675 
L 65.724525 135.795675 
L 66.361728 133.595358 
L 67.636133 135.795675 
L 68.273335 133.595358 
L 68.910538 135.795675 
L 72.09655 135.795675 
L 72.733753 133.595358 
L 73.370955 135.795675 
L 74.008158 135.795675 
L 75.282563 133.595358 
L 75.919765 135.795675 
L 76.556968 134.695517 
L 77.19417 135.795675 
L 79.74298 135.795675 
L 80.380183 134.695517 
L 81.017385 135.795675 
L 81.654588 135.795675 
L 82.29179 132.4952 
L 82.928993 133.595358 
L 84.203398 133.595358 
L 84.8406 135.795675 
L 85.477803 134.695517 
L 86.752208 134.695517 
L 87.38941 135.795675 
L 88.026613 135.795675 
L 89.301018 133.595358 
L 89.93822 133.595358 
L 90.575423 135.795675 
L 93.124233 135.795675 
L 93.761435 134.695517 
L 94.398638 135.795675 
L 98.859055 135.795675 
L 99.496258 134.695517 
L 100.13346 135.795675 
L 100.770663 135.795675 
L 101.407865 134.695517 
L 102.045068 135.795675 
L 102.68227 134.695517 
L 103.319473 135.795675 
L 103.956675 135.795675 
L 104.593878 134.695517 
L 105.23108 135.795675 
L 109.691498 135.795675 
L 110.3287 134.695517 
L 110.965903 134.695517 
L 111.603105 135.795675 
L 115.42632 135.795675 
L 116.063523 134.695517 
L 116.700725 135.795675 
L 117.97513 135.795675 
L 118.612333 134.695517 
L 119.249535 134.695517 
L 119.886738 135.795675 
L 121.161143 133.595358 
L 121.798345 135.795675 
L 126.258763 135.795675 
L 126.895965 134.695517 
L 127.533168 135.795675 
L 128.807573 135.795675 
L 129.444775 134.695517 
L 130.081978 135.795675 
L 134.542395 135.795675 
L 135.179597 134.695517 
L 135.8168 135.795675 
L 136.454003 132.4952 
L 137.091205 134.695517 
L 137.728408 135.795675 
L 138.36561 134.695517 
L 139.002813 135.795675 
L 142.188825 135.795675 
L 142.826028 134.695517 
L 143.46323 135.795675 
L 144.737635 135.795675 
L 145.374838 134.695517 
L 146.01204 134.695517 
L 146.649243 135.795675 
L 147.286445 134.695517 
L 147.923648 135.795675 
L 148.56085 133.595358 
L 149.835255 135.795675 
L 151.10966 133.595358 
L 152.384065 135.795675 
L 154.932875 135.795675 
L 155.570078 133.595358 
L 156.20728 135.795675 
L 156.844483 135.795675 
L 157.481685 134.695517 
L 158.118888 135.795675 
L 158.75609 135.795675 
L 159.393293 134.695517 
L 160.030495 134.695517 
L 160.667698 135.795675 
L 162.579305 135.795675 
L 163.216508 134.695517 
L 163.85371 134.695517 
L 164.490913 135.795675 
L 165.128115 134.695517 
L 165.765318 131.395042 
L 166.40252 132.4952 
L 167.039723 134.695517 
L 167.676925 134.695517 
L 168.314128 135.795675 
L 169.588533 135.795675 
L 170.225735 134.695517 
L 170.862938 134.695517 
L 171.50014 135.795675 
L 172.137343 135.795675 
L 172.774545 132.4952 
L 173.411748 132.4952 
L 174.04895 133.595358 
L 175.960558 133.595358 
L 176.59776 134.695517 
L 177.234963 134.695517 
L 177.872165 132.4952 
L 178.509368 135.795675 
L 179.14657 133.595358 
L 179.783773 135.795675 
L 180.420975 134.695517 
L 181.058178 132.4952 
L 181.69538 131.395042 
L 182.332583 135.795675 
L 182.969785 134.695517 
L 183.606988 135.795675 
L 184.24419 133.595358 
L 185.518595 135.795675 
L 186.155798 134.695517 
L 186.793 134.695517 
L 187.430203 133.595358 
L 188.704608 135.795675 
L 189.979013 131.395042 
L 190.616215 133.595358 
L 191.253418 134.695517 
L 191.89062 133.595358 
L 192.527823 134.695517 
L 193.165025 134.695517 
L 193.802228 132.4952 
L 194.43943 134.695517 
L 195.076633 132.4952 
L 195.713835 134.695517 
L 196.98824 134.695517 
L 197.625443 135.795675 
L 198.262645 134.695517 
L 198.899848 134.695517 
L 199.53705 135.795675 
L 200.174253 134.695517 
L 200.811455 135.795675 
L 201.448658 133.595358 
L 202.08586 135.795675 
L 202.723063 135.795675 
L 203.360265 133.595358 
L 203.997468 132.4952 
L 204.63467 134.695517 
L 205.271873 135.795675 
L 205.909075 131.395042 
L 206.546278 134.695517 
L 207.18348 134.695517 
L 207.820683 132.4952 
L 208.457885 133.595358 
L 209.73229 133.595358 
L 210.369493 135.795675 
L 211.643898 133.595358 
L 212.2811 135.795675 
L 212.918303 134.695517 
L 213.555505 134.695517 
L 214.192708 135.795675 
L 217.37872 135.795675 
L 218.015923 134.695517 
L 218.653125 135.795675 
L 219.290328 135.795675 
L 219.92753 134.695517 
L 220.564733 135.795675 
L 221.201935 135.795675 
L 221.839138 134.695517 
L 222.47634 135.795675 
L 224.387948 135.795675 
L 225.02515 134.695517 
L 226.936758 134.695517 
L 227.57396 135.795675 
L 228.211163 134.695517 
L 228.848365 131.395042 
L 229.485568 134.695517 
L 230.12277 134.695517 
L 230.759973 135.795675 
L 232.67158 135.795675 
L 233.308783 134.695517 
L 233.945985 134.695517 
L 234.583188 135.795675 
L 235.22039 133.595358 
L 235.857593 135.795675 
L 236.494795 135.795675 
L 237.131998 134.695517 
L 237.7692 135.795675 
L 239.043605 135.795675 
L 239.680808 132.4952 
L 240.31801 134.695517 
L 240.955213 132.4952 
L 241.592415 129.194725 
L 242.229618 132.4952 
L 242.86682 133.595358 
L 243.504023 135.795675 
L 246.052833 135.795675 
L 247.327238 133.595358 
L 247.96444 135.795675 
L 248.601643 133.595358 
L 249.238845 135.795675 
L 249.876048 133.595358 
L 250.51325 132.4952 
L 251.150453 133.595358 
L 253.06206 133.595358 
L 253.699263 135.795675 
L 254.336465 134.695517 
L 254.973668 135.795675 
L 255.61087 133.595358 
L 256.248073 135.795675 
L 256.885275 133.595358 
L 257.522477 134.695517 
L 258.15968 134.695517 
L 258.796882 135.795675 
L 259.434085 134.695517 
L 260.071287 135.795675 
L 263.2573 135.795675 
L 263.894502 134.695517 
L 264.531705 134.695517 
L 265.168907 135.795675 
L 265.80611 134.695517 
L 266.443312 135.795675 
L 267.717717 135.795675 
L 268.992122 133.595358 
L 270.266527 135.795675 
L 270.90373 135.795675 
L 271.540932 134.695517 
L 272.178135 135.795675 
L 273.45254 135.795675 
L 274.089742 117.092983 
L 274.726945 135.795675 
L 275.364148 134.695517 
L 276.00135 135.795675 
L 280.461768 135.795675 
L 281.09897 134.695517 
L 282.373375 134.695517 
L 283.010578 135.795675 
L 283.64778 134.695517 
L 284.284983 135.795675 
L 284.922185 133.595358 
L 285.559388 135.795675 
L 286.19659 135.795675 
L 286.833793 134.695517 
L 287.470995 134.695517 
L 288.108198 135.795675 
L 293.84302 135.795675 
L 294.480223 134.695517 
L 295.117425 132.4952 
L 295.754628 134.695517 
L 296.39183 134.695517 
L 297.029033 133.595358 
L 297.666235 135.795675 
L 298.303438 134.695517 
L 298.94064 135.795675 
L 299.577843 135.795675 
L 300.215045 134.695517 
L 300.852248 135.795675 
L 311.047487 135.795675 
L 311.68469 134.695517 
L 312.321892 135.795675 
L 314.2335 135.795675 
L 314.870702 133.595358 
L 315.507905 135.795675 
L 316.78231 135.795675 
L 317.419512 134.695517 
L 318.056715 132.4952 
L 318.693917 134.695517 
L 319.33112 133.595358 
L 319.968322 135.795675 
L 323.154335 135.795675 
L 323.791538 134.695517 
L 324.42874 135.795675 
L 332.712373 135.795675 
L 333.349575 133.595358 
L 333.986778 135.795675 
L 334.62398 132.4952 
L 335.261183 135.795675 
L 339.084398 135.795675 
L 340.358803 133.595358 
L 340.996005 134.695517 
L 342.27041 134.695517 
L 342.907613 135.795675 
L 343.544815 135.795675 
L 344.81922 133.595358 
L 345.456423 135.795675 
L 346.093625 135.795675 
L 346.730828 134.695517 
L 347.36803 135.795675 
L 348.005233 133.595358 
L 348.642435 132.4952 
L 349.279638 135.795675 
L 349.91684 135.795675 
L 350.554043 133.595358 
L 351.191245 135.795675 
L 355.651663 135.795675 
L 356.288865 134.695517 
L 356.926068 135.795675 
L 357.56327 134.695517 
L 358.200473 135.795675 
L 359.474878 135.795675 
L 360.11208 134.695517 
L 360.749283 135.795675 
L 361.386485 134.695517 
L 362.66089 134.695517 
L 363.298092 135.795675 
L 363.935295 132.4952 
L 364.572497 134.695517 
L 365.2097 134.695517 
L 365.846902 135.795675 
L 370.944523 135.795675 
L 371.581725 132.4952 
L 372.218928 133.595358 
L 372.85613 135.795675 
L 374.130535 133.595358 
L 374.767738 134.695517 
L 375.40494 134.695517 
L 376.042143 135.795675 
L 377.316548 133.595358 
L 377.95375 134.695517 
L 380.50256 134.695517 
L 381.139763 132.4952 
L 381.776965 134.695517 
L 383.05137 134.695517 
L 383.688573 135.795675 
L 384.325775 135.795675 
L 385.60018 133.595358 
L 386.237383 135.795675 
L 386.874585 134.695517 
L 387.511788 132.4952 
L 388.14899 132.4952 
L 388.786193 134.695517 
L 389.423395 134.695517 
L 390.060598 135.795675 
L 392.609408 135.795675 
L 393.24661 134.695517 
L 393.883813 135.795675 
L 394.521015 134.695517 
L 395.79542 134.695517 
L 396.432623 135.795675 
L 400.89304 135.795675 
L 401.530243 134.695517 
L 402.167445 134.695517 
L 402.804648 132.4952 
L 403.44185 134.695517 
L 404.079053 135.795675 
L 405.99066 135.795675 
L 406.627863 133.595358 
L 407.265065 135.795675 
L 407.902268 135.795675 
L 408.53947 134.695517 
L 409.176672 135.795675 
L 409.813875 134.695517 
L 410.451077 135.795675 
L 411.08828 134.695517 
L 411.725482 135.795675 
L 416.1859 135.795675 
L 416.823103 134.695517 
L 417.460305 135.795675 
L 418.097508 134.695517 
L 418.73471 134.695517 
L 419.371913 135.795675 
L 420.009115 133.595358 
L 421.28352 133.595358 
L 421.920723 132.4952 
L 422.557925 135.795675 
L 423.195128 135.795675 
L 423.83233 134.695517 
L 424.469533 134.695517 
L 425.106735 132.4952 
L 425.743938 131.395042 
L 426.38114 132.4952 
L 427.018343 129.194725 
L 427.655545 135.795675 
L 428.292748 132.4952 
L 428.92995 135.795675 
L 430.204355 135.795675 
L 431.47876 131.395042 
L 432.115963 130.294883 
L 432.753165 133.595358 
L 434.664773 130.294883 
L 435.301975 130.294883 
L 435.939178 135.795675 
L 436.57638 134.695517 
L 437.213583 134.695517 
L 437.850785 132.4952 
L 438.487988 133.595358 
L 439.12519 133.595358 
L 439.762393 130.294883 
L 440.399595 130.294883 
L 441.036798 125.89425 
L 441.674 131.395042 
L 442.311203 128.094567 
L 442.948405 132.4952 
L 443.585608 134.695517 
L 444.22281 135.795675 
L 444.860013 135.795675 
L 445.497215 132.4952 
L 446.134418 135.795675 
L 446.77162 133.595358 
L 447.408823 133.595358 
L 448.046025 131.395042 
L 448.683228 132.4952 
L 449.32043 130.294883 
L 449.957633 135.795675 
L 450.594835 135.795675 
L 451.232038 132.4952 
L 451.86924 133.595358 
L 452.506443 131.395042 
L 453.143645 133.595358 
L 453.780848 134.695517 
L 454.41805 132.4952 
L 455.692455 134.695517 
L 456.329657 132.4952 
L 456.96686 134.695517 
L 457.604062 132.4952 
L 458.241265 134.695517 
L 458.878467 135.795675 
L 459.51567 135.795675 
L 460.152873 134.695517 
L 460.790075 135.795675 
L 461.427278 134.695517 
L 462.06448 135.795675 
L 462.701683 134.695517 
L 463.338885 135.795675 
L 463.976088 134.695517 
L 464.61329 135.795675 
L 465.250493 134.695517 
L 465.887695 135.795675 
L 466.524898 131.395042 
L 467.1621 134.695517 
L 467.799303 135.795675 
L 469.073708 135.795675 
L 469.71091 134.695517 
L 470.348113 135.795675 
L 470.985315 134.695517 
L 471.622518 134.695517 
L 472.25972 132.4952 
L 472.896923 133.595358 
L 473.534125 135.795675 
L 474.171328 134.695517 
L 474.80853 134.695517 
L 475.445733 135.795675 
L 477.35734 135.795675 
L 477.994543 134.695517 
L 478.631745 135.795675 
L 479.268948 134.695517 
L 479.90615 132.4952 
L 480.543353 134.695517 
L 481.180555 135.795675 
L 481.817758 134.695517 
L 482.45496 135.795675 
L 483.729365 135.795675 
L 484.366568 134.695517 
L 485.00377 135.795675 
L 485.640973 134.695517 
L 486.278175 132.4952 
L 486.915378 133.595358 
L 487.55258 132.4952 
L 488.189783 134.695517 
L 488.826985 135.795675 
L 489.464188 135.795675 
L 490.10139 134.695517 
L 491.375795 134.695517 
L 492.012998 135.795675 
L 492.6502 135.795675 
L 493.287403 134.695517 
L 493.924605 135.795675 
L 494.561808 133.595358 
L 495.19901 134.695517 
L 495.836213 134.695517 
L 496.473415 135.795675 
L 497.74782 135.795675 
L 498.385023 134.695517 
L 499.022225 135.795675 
L 500.29663 135.795675 
L 500.933833 134.695517 
L 501.571035 134.695517 
L 502.208237 135.795675 
L 502.84544 134.695517 
L 503.482642 134.695517 
L 504.119845 135.795675 
L 505.39425 133.595358 
L 506.031453 135.795675 
L 509.217465 135.795675 
L 509.854668 133.595358 
L 510.49187 135.795675 
L 511.129073 134.695517 
L 511.766275 134.695517 
L 512.403478 132.4952 
L 513.04068 134.695517 
L 513.677883 133.595358 
L 514.315085 133.595358 
L 515.58949 131.395042 
L 516.226693 134.695517 
L 516.863895 135.795675 
L 517.501098 133.595358 
L 518.775503 131.395042 
L 519.412705 132.4952 
L 520.049908 135.795675 
L 520.68711 135.795675 
L 521.324313 134.695517 
L 522.598718 134.695517 
L 523.23592 133.595358 
L 523.873123 131.395042 
L 524.510325 134.695517 
L 525.147528 133.595358 
L 525.78473 133.595358 
L 526.421933 132.4952 
L 527.059135 129.194725 
L 527.696338 133.595358 
L 528.33354 133.595358 
L 528.970743 135.795675 
L 530.245148 133.595358 
L 530.88235 129.194725 
L 531.519553 131.395042 
L 532.156755 130.294883 
L 532.793958 133.595358 
L 534.068363 129.194725 
L 534.705565 130.294883 
L 535.342768 135.795675 
L 535.97997 134.695517 
L 536.617173 135.795675 
L 537.891578 135.795675 
L 539.165983 133.595358 
L 539.803185 130.294883 
L 540.440388 131.395042 
L 541.07759 134.695517 
L 541.714793 134.695517 
L 542.989198 132.4952 
L 544.263603 134.695517 
L 544.900805 134.695517 
L 545.538008 129.194725 
L 546.17521 134.695517 
L 546.812413 131.395042 
L 547.449615 132.4952 
L 548.086818 132.4952 
L 548.72402 130.294883 
L 549.361222 133.595358 
L 549.998425 131.395042 
L 552.547235 135.795675 
L 553.184437 135.795675 
L 554.458842 133.595358 
L 555.733247 133.595358 
L 556.37045 132.4952 
L 557.007652 134.695517 
L 557.644855 135.795675 
L 558.282057 134.695517 
L 558.91926 135.795675 
L 559.556462 135.795675 
L 560.193665 134.695517 
L 561.46807 134.695517 
L 562.105272 135.795675 
L 562.742475 135.795675 
L 563.379677 132.4952 
L 564.01688 134.695517 
L 564.654082 135.795675 
L 565.291285 128.094567 
L 565.928487 133.595358 
L 566.56569 135.795675 
L 567.202892 133.595358 
L 567.840095 135.795675 
L 568.477297 135.795675 
L 569.1145 133.595358 
L 569.751702 134.695517 
L 571.026107 134.695517 
L 571.66331 135.795675 
L 572.300512 134.695517 
L 573.574917 134.695517 
L 574.21212 135.795675 
L 574.849322 134.695517 
L 575.486525 135.795675 
L 576.123727 135.795675 
L 576.76093 132.4952 
L 577.398132 134.695517 
L 578.035335 132.4952 
L 578.672537 135.795675 
L 580.584145 135.795675 
L 581.221347 134.695517 
L 581.85855 135.795675 
L 585.681765 135.795675 
L 586.318967 133.595358 
L 586.95617 135.795675 
L 587.593372 135.795675 
L 588.867777 133.595358 
L 590.779385 133.595358 
L 591.416587 135.795675 
L 592.05379 134.695517 
L 592.690992 134.695517 
L 593.328195 135.795675 
L 593.965397 134.695517 
L 594.6026 135.795675 
L 595.239802 135.795675 
L 595.877005 134.695517 
L 596.514207 135.795675 
L 597.15141 134.695517 
L 597.788612 135.795675 
L 598.425815 134.695517 
L 599.063018 135.795675 
L 599.70022 134.695517 
L 600.337423 135.795675 
L 600.974625 135.795675 
L 601.611828 134.695517 
L 602.24903 135.795675 
L 602.886233 134.695517 
L 603.523435 135.795675 
L 604.79784 135.795675 
L 605.435043 134.695517 
L 606.072245 135.795675 
L 609.258258 135.795675 
L 609.89546 134.695517 
L 610.532663 135.795675 
L 611.169865 133.595358 
L 611.807068 133.595358 
L 612.44427 135.795675 
L 614.355878 135.795675 
L 614.99308 133.595358 
L 615.630283 134.695517 
L 616.267485 132.4952 
L 616.904688 128.094567 
L 617.54189 120.393458 
L 618.179093 104.991242 
L 618.816295 120.393458 
L 619.453497 126.994408 
L 620.0907 126.994408 
L 620.727902 130.294883 
L 621.365105 123.693933 
L 622.002307 128.094567 
L 622.63951 125.89425 
L 623.276712 131.395042 
L 623.913915 121.493617 
L 624.551117 119.2933 
L 625.18832 124.794092 
L 625.825522 133.595358 
L 626.462725 132.4952 
L 627.099927 134.695517 
L 627.73713 131.395042 
L 629.648737 134.695517 
L 630.28594 130.294883 
L 630.923142 129.194725 
L 631.560345 125.89425 
L 632.197547 131.395042 
L 632.83475 130.294883 
L 633.471952 128.094567 
L 634.109155 134.695517 
L 634.746357 133.595358 
L 635.38356 133.595358 
L 636.020762 126.994408 
L 636.657965 132.4952 
L 637.295167 133.595358 
L 637.93237 130.294883 
L 638.569572 129.194725 
L 639.206775 132.4952 
L 640.48118 125.89425 
L 641.118382 131.395042 
L 641.755585 135.795675 
L 644.304395 135.795675 
L 645.5788 133.595358 
L 646.216002 130.294883 
L 646.853205 132.4952 
L 647.490407 131.395042 
L 648.12761 129.194725 
L 648.764812 131.395042 
L 649.402015 132.4952 
L 650.039217 134.695517 
L 650.67642 132.4952 
L 651.313622 135.795675 
L 652.588027 131.395042 
L 653.22523 134.695517 
L 653.862432 133.595358 
L 654.499635 130.294883 
L 655.136837 135.795675 
L 655.77404 133.595358 
L 656.411242 135.795675 
L 657.685647 135.795675 
L 658.32285 134.695517 
L 658.960052 135.795675 
L 659.597255 134.695517 
L 660.234457 135.795675 
L 660.87166 133.595358 
L 661.508862 134.695517 
L 662.146065 130.294883 
L 662.783267 132.4952 
L 663.42047 135.795675 
L 664.057672 133.595358 
L 664.694875 134.695517 
L 665.332077 134.695517 
L 665.96928 133.595358 
L 667.880887 133.595358 
L 668.51809 132.4952 
L 669.792495 134.695517 
L 670.429697 134.695517 
L 671.0669 135.795675 
L 671.704102 129.194725 
L 672.341305 133.595358 
L 672.978507 135.795675 
L 674.252912 135.795675 
L 674.890115 130.294883 
L 675.527317 134.695517 
L 676.16452 134.695517 
L 676.801722 131.395042 
L 677.438925 126.994408 
L 678.076127 125.89425 
L 678.71333 132.4952 
L 679.350532 134.695517 
L 679.987735 133.595358 
L 680.624937 133.595358 
L 681.26214 135.795675 
L 681.899342 132.4952 
L 682.536545 135.795675 
L 683.173747 131.395042 
L 683.81095 133.595358 
L 684.448152 134.695517 
L 685.722557 134.695517 
L 686.35976 132.4952 
L 686.996962 133.595358 
L 687.634165 135.795675 
L 690.182975 135.795675 
L 690.820177 132.4952 
L 692.731785 132.4952 
L 693.368988 131.395042 
L 694.00619 134.695517 
L 695.280595 130.294883 
L 695.917798 133.595358 
L 697.192203 133.595358 
L 697.192203 133.595358 
" clip-path="url(#p5e5b2e74fb)" style="fill: none; stroke: #1f77b4; stroke-width: 1.5; stroke-linecap: square"/>
   </g>
   <g id="patch_3">
    <path d="M 59.3525 191.90375 
L 59.3525 26.88 
" style="fill: none; stroke: #000000; stroke-width: 0.8; stroke-linejoin: miter; stroke-linecap: square"/>
   </g>
   <g id="patch_4">
    <path d="M 696.555 191.90375 
L 696.555 26.88 
" style="fill: none; stroke: #000000; stroke-width: 0.8; stroke-linejoin: miter; stroke-linecap: square"/>
   </g>
   <g id="patch_5">
    <path d="M 59.3525 191.90375 
L 696.555 191.90375 
" style="fill: none; stroke: #000000; stroke-width: 0.8; stroke-linejoin: miter; stroke-linecap: square"/>
   </g>
   <g id="patch_6">
    <path d="M 59.3525 26.88 
L 696.555 26.88 
" style="fill: none; stroke: #000000; stroke-width: 0.8; stroke-linejoin: miter; stroke-linecap: square"/>
   </g>
   <g id="text_9">
    <!-- Semnal inițial -->
    <g transform="translate(337.05625 20.88) scale(0.12 -0.12)">
     <defs>
      <path id="DejaVuSans-53" d="M 3425 4513 
L 3425 3897 
Q 3066 4069 2747 4153 
Q 2428 4238 2131 4238 
Q 1616 4238 1336 4038 
Q 1056 3838 1056 3469 
Q 1056 3159 1242 3001 
Q 1428 2844 1947 2747 
L 2328 2669 
Q 3034 2534 3370 2195 
Q 3706 1856 3706 1288 
Q 3706 609 3251 259 
Q 2797 -91 1919 -91 
Q 1588 -91 1214 -16 
Q 841 59 441 206 
L 441 856 
Q 825 641 1194 531 
Q 1563 422 1919 422 
Q 2459 422 2753 634 
Q 3047 847 3047 1241 
Q 3047 1584 2836 1778 
Q 2625 1972 2144 2069 
L 1759 2144 
Q 1053 2284 737 2584 
Q 422 2884 422 3419 
Q 422 4038 858 4394 
Q 1294 4750 2059 4750 
Q 2388 4750 2728 4690 
Q 3069 4631 3425 4513 
z
" transform="scale(0.015625)"/>
      <path id="DejaVuSans-65" d="M 3597 1894 
L 3597 1613 
L 953 1613 
Q 991 1019 1311 708 
Q 1631 397 2203 397 
Q 2534 397 2845 478 
Q 3156 559 3463 722 
L 3463 178 
Q 3153 47 2828 -22 
Q 2503 -91 2169 -91 
Q 1331 -91 842 396 
Q 353 884 353 1716 
Q 353 2575 817 3079 
Q 1281 3584 2069 3584 
Q 2775 3584 3186 3129 
Q 3597 2675 3597 1894 
z
M 3022 2063 
Q 3016 2534 2758 2815 
Q 2500 3097 2075 3097 
Q 1594 3097 1305 2825 
Q 1016 2553 972 2059 
L 3022 2063 
z
" transform="scale(0.015625)"/>
      <path id="DejaVuSans-6c" d="M 603 4863 
L 1178 4863 
L 1178 0 
L 603 0 
L 603 4863 
z
" transform="scale(0.015625)"/>
      <path id="DejaVuSans-21b" d="M 1388 -538 
L 2047 -538 
L 1534 -1538 
L 1131 -1538 
L 1388 -538 
z
M 1172 4494 
L 1172 3500 
L 2356 3500 
L 2356 3053 
L 1172 3053 
L 1172 1153 
Q 1172 725 1289 603 
Q 1406 481 1766 481 
L 2356 481 
L 2356 0 
L 1766 0 
Q 1100 0 847 248 
Q 594 497 594 1153 
L 594 3053 
L 172 3053 
L 172 3500 
L 594 3500 
L 594 4494 
L 1172 4494 
z
" transform="scale(0.015625)"/>
     </defs>
     <use xlink:href="#DejaVuSans-53"/>
     <use xlink:href="#DejaVuSans-65" transform="translate(63.476562 0)"/>
     <use xlink:href="#DejaVuSans-6d" transform="translate(125 0)"/>
     <use xlink:href="#DejaVuSans-6e" transform="translate(222.412109 0)"/>
     <use xlink:href="#DejaVuSans-61" transform="translate(285.791016 0)"/>
     <use xlink:href="#DejaVuSans-6c" transform="translate(347.070312 0)"/>
     <use xlink:href="#DejaVuSans-20" transform="translate(374.853516 0)"/>
     <use xlink:href="#DejaVuSans-69" transform="translate(406.640625 0)"/>
     <use xlink:href="#DejaVuSans-6e" transform="translate(434.423828 0)"/>
     <use xlink:href="#DejaVuSans-69" transform="translate(497.802734 0)"/>
     <use xlink:href="#DejaVuSans-21b" transform="translate(525.585938 0)"/>
     <use xlink:href="#DejaVuSans-69" transform="translate(564.794922 0)"/>
     <use xlink:href="#DejaVuSans-61" transform="translate(592.578125 0)"/>
     <use xlink:href="#DejaVuSans-6c" transform="translate(653.857422 0)"/>
    </g>
   </g>
   <g id="legend_1">
    <g id="patch_7">
     <path d="M 579.512812 49.558125 
L 689.555 49.558125 
Q 691.555 49.558125 691.555 47.558125 
L 691.555 33.88 
Q 691.555 31.88 689.555 31.88 
L 579.512812 31.88 
Q 577.512812 31.88 577.512812 33.88 
L 577.512812 47.558125 
Q 577.512812 49.558125 579.512812 49.558125 
z
" style="fill: #ffffff; opacity: 0.8; stroke: #cccccc; stroke-linejoin: miter"/>
    </g>
    <g id="line2d_15">
     <path d="M 581.512812 39.978438 
L 591.512812 39.978438 
L 601.512812 39.978438 
" style="fill: none; stroke: #1f77b4; stroke-width: 1.5; stroke-linecap: square"/>
    </g>
    <g id="text_10">
     <!-- Semnal original -->
     <g transform="translate(609.512812 43.478438) scale(0.1 -0.1)">
      <defs>
       <path id="DejaVuSans-6f" d="M 1959 3097 
Q 1497 3097 1228 2736 
Q 959 2375 959 1747 
Q 959 1119 1226 758 
Q 1494 397 1959 397 
Q 2419 397 2687 759 
Q 2956 1122 2956 1747 
Q 2956 2369 2687 2733 
Q 2419 3097 1959 3097 
z
M 1959 3584 
Q 2709 3584 3137 3096 
Q 3566 2609 3566 1747 
Q 3566 888 3137 398 
Q 2709 -91 1959 -91 
Q 1206 -91 779 398 
Q 353 888 353 1747 
Q 353 2609 779 3096 
Q 1206 3584 1959 3584 
z
" transform="scale(0.015625)"/>
       <path id="DejaVuSans-67" d="M 2906 1791 
Q 2906 2416 2648 2759 
Q 2391 3103 1925 3103 
Q 1463 3103 1205 2759 
Q 947 2416 947 1791 
Q 947 1169 1205 825 
Q 1463 481 1925 481 
Q 2391 481 2648 825 
Q 2906 1169 2906 1791 
z
M 3481 434 
Q 3481 -459 3084 -895 
Q 2688 -1331 1869 -1331 
Q 1566 -1331 1297 -1286 
Q 1028 -1241 775 -1147 
L 775 -588 
Q 1028 -725 1275 -790 
Q 1522 -856 1778 -856 
Q 2344 -856 2625 -561 
Q 2906 -266 2906 331 
L 2906 616 
Q 2728 306 2450 153 
Q 2172 0 1784 0 
Q 1141 0 747 490 
Q 353 981 353 1791 
Q 353 2603 747 3093 
Q 1141 3584 1784 3584 
Q 2172 3584 2450 3431 
Q 2728 3278 2906 2969 
L 2906 3500 
L 3481 3500 
L 3481 434 
z
" transform="scale(0.015625)"/>
      </defs>
      <use xlink:href="#DejaVuSans-53"/>
      <use xlink:href="#DejaVuSans-65" transform="translate(63.476562 0)"/>
      <use xlink:href="#DejaVuSans-6d" transform="translate(125 0)"/>
      <use xlink:href="#DejaVuSans-6e" transform="translate(222.412109 0)"/>
      <use xlink:href="#DejaVuSans-61" transform="translate(285.791016 0)"/>
      <use xlink:href="#DejaVuSans-6c" transform="translate(347.070312 0)"/>
      <use xlink:href="#DejaVuSans-20" transform="translate(374.853516 0)"/>
      <use xlink:href="#DejaVuSans-6f" transform="translate(406.640625 0)"/>
      <use xlink:href="#DejaVuSans-72" transform="translate(467.822266 0)"/>
      <use xlink:href="#DejaVuSans-69" transform="translate(508.935547 0)"/>
      <use xlink:href="#DejaVuSans-67" transform="translate(536.71875 0)"/>
      <use xlink:href="#DejaVuSans-69" transform="translate(600.195312 0)"/>
      <use xlink:href="#DejaVuSans-6e" transform="translate(627.978516 0)"/>
      <use xlink:href="#DejaVuSans-61" transform="translate(691.357422 0)"/>
      <use xlink:href="#DejaVuSans-6c" transform="translate(752.636719 0)"/>
     </g>
    </g>
   </g>
  </g>
  <g id="axes_2">
   <g id="patch_8">
    <path d="M 59.3525 389.9275 
L 696.555 389.9275 
L 696.555 224.90375 
L 59.3525 224.90375 
z
" style="fill: #ffffff"/>
   </g>
   <g id="matplotlib.axis_3">
    <g id="xtick_7">
     <g id="line2d_16">
      <g>
       <use xlink:href="#mcb18b5eb44" x="59.3525" y="389.9275" style="stroke: #000000; stroke-width: 0.8"/>
      </g>
     </g>
     <g id="text_11">
      <!-- 0 -->
      <g transform="translate(56.17125 404.525937) scale(0.1 -0.1)">
       <use xlink:href="#DejaVuSans-30"/>
      </g>
     </g>
    </g>
    <g id="xtick_8">
     <g id="line2d_17">
      <g>
       <use xlink:href="#mcb18b5eb44" x="186.793" y="389.9275" style="stroke: #000000; stroke-width: 0.8"/>
      </g>
     </g>
     <g id="text_12">
      <!-- 200 -->
      <g transform="translate(177.24925 404.525937) scale(0.1 -0.1)">
       <use xlink:href="#DejaVuSans-32"/>
       <use xlink:href="#DejaVuSans-30" transform="translate(63.623047 0)"/>
       <use xlink:href="#DejaVuSans-30" transform="translate(127.246094 0)"/>
      </g>
     </g>
    </g>
    <g id="xtick_9">
     <g id="line2d_18">
      <g>
       <use xlink:href="#mcb18b5eb44" x="314.2335" y="389.9275" style="stroke: #000000; stroke-width: 0.8"/>
      </g>
     </g>
     <g id="text_13">
      <!-- 400 -->
      <g transform="translate(304.68975 404.525937) scale(0.1 -0.1)">
       <defs>
        <path id="DejaVuSans-34" d="M 2419 4116 
L 825 1625 
L 2419 1625 
L 2419 4116 
z
M 2253 4666 
L 3047 4666 
L 3047 1625 
L 3713 1625 
L 3713 1100 
L 3047 1100 
L 3047 0 
L 2419 0 
L 2419 1100 
L 313 1100 
L 313 1709 
L 2253 4666 
z
" transform="scale(0.015625)"/>
       </defs>
       <use xlink:href="#DejaVuSans-34"/>
       <use xlink:href="#DejaVuSans-30" transform="translate(63.623047 0)"/>
       <use xlink:href="#DejaVuSans-30" transform="translate(127.246094 0)"/>
      </g>
     </g>
    </g>
    <g id="xtick_10">
     <g id="line2d_19">
      <g>
       <use xlink:href="#mcb18b5eb44" x="441.674" y="389.9275" style="stroke: #000000; stroke-width: 0.8"/>
      </g>
     </g>
     <g id="text_14">
      <!-- 600 -->
      <g transform="translate(432.13025 404.525937) scale(0.1 -0.1)">
       <defs>
        <path id="DejaVuSans-36" d="M 2113 2584 
Q 1688 2584 1439 2293 
Q 1191 2003 1191 1497 
Q 1191 994 1439 701 
Q 1688 409 2113 409 
Q 2538 409 2786 701 
Q 3034 994 3034 1497 
Q 3034 2003 2786 2293 
Q 2538 2584 2113 2584 
z
M 3366 4563 
L 3366 3988 
Q 3128 4100 2886 4159 
Q 2644 4219 2406 4219 
Q 1781 4219 1451 3797 
Q 1122 3375 1075 2522 
Q 1259 2794 1537 2939 
Q 1816 3084 2150 3084 
Q 2853 3084 3261 2657 
Q 3669 2231 3669 1497 
Q 3669 778 3244 343 
Q 2819 -91 2113 -91 
Q 1303 -91 875 529 
Q 447 1150 447 2328 
Q 447 3434 972 4092 
Q 1497 4750 2381 4750 
Q 2619 4750 2861 4703 
Q 3103 4656 3366 4563 
z
" transform="scale(0.015625)"/>
       </defs>
       <use xlink:href="#DejaVuSans-36"/>
       <use xlink:href="#DejaVuSans-30" transform="translate(63.623047 0)"/>
       <use xlink:href="#DejaVuSans-30" transform="translate(127.246094 0)"/>
      </g>
     </g>
    </g>
    <g id="xtick_11">
     <g id="line2d_20">
      <g>
       <use xlink:href="#mcb18b5eb44" x="569.1145" y="389.9275" style="stroke: #000000; stroke-width: 0.8"/>
      </g>
     </g>
     <g id="text_15">
      <!-- 800 -->
      <g transform="translate(559.57075 404.525937) scale(0.1 -0.1)">
       <defs>
        <path id="DejaVuSans-38" d="M 2034 2216 
Q 1584 2216 1326 1975 
Q 1069 1734 1069 1313 
Q 1069 891 1326 650 
Q 1584 409 2034 409 
Q 2484 409 2743 651 
Q 3003 894 3003 1313 
Q 3003 1734 2745 1975 
Q 2488 2216 2034 2216 
z
M 1403 2484 
Q 997 2584 770 2862 
Q 544 3141 544 3541 
Q 544 4100 942 4425 
Q 1341 4750 2034 4750 
Q 2731 4750 3128 4425 
Q 3525 4100 3525 3541 
Q 3525 3141 3298 2862 
Q 3072 2584 2669 2484 
Q 3125 2378 3379 2068 
Q 3634 1759 3634 1313 
Q 3634 634 3220 271 
Q 2806 -91 2034 -91 
Q 1263 -91 848 271 
Q 434 634 434 1313 
Q 434 1759 690 2068 
Q 947 2378 1403 2484 
z
M 1172 3481 
Q 1172 3119 1398 2916 
Q 1625 2713 2034 2713 
Q 2441 2713 2670 2916 
Q 2900 3119 2900 3481 
Q 2900 3844 2670 4047 
Q 2441 4250 2034 4250 
Q 1625 4250 1398 4047 
Q 1172 3844 1172 3481 
z
" transform="scale(0.015625)"/>
       </defs>
       <use xlink:href="#DejaVuSans-38"/>
       <use xlink:href="#DejaVuSans-30" transform="translate(63.623047 0)"/>
       <use xlink:href="#DejaVuSans-30" transform="translate(127.246094 0)"/>
      </g>
     </g>
    </g>
    <g id="xtick_12">
     <g id="line2d_21">
      <g>
       <use xlink:href="#mcb18b5eb44" x="696.555" y="389.9275" style="stroke: #000000; stroke-width: 0.8"/>
      </g>
     </g>
     <g id="text_16">
      <!-- 1000 -->
      <g transform="translate(683.83 404.525937) scale(0.1 -0.1)">
       <use xlink:href="#DejaVuSans-31"/>
       <use xlink:href="#DejaVuSans-30" transform="translate(63.623047 0)"/>
       <use xlink:href="#DejaVuSans-30" transform="translate(127.246094 0)"/>
       <use xlink:href="#DejaVuSans-30" transform="translate(190.869141 0)"/>
      </g>
     </g>
    </g>
    <g id="text_17">
     <!-- Eșantion -->
     <g transform="translate(356.379531 418.204062) scale(0.1 -0.1)">
      <defs>
       <path id="DejaVuSans-45" d="M 628 4666 
L 3578 4666 
L 3578 4134 
L 1259 4134 
L 1259 2753 
L 3481 2753 
L 3481 2222 
L 1259 2222 
L 1259 531 
L 3634 531 
L 3634 0 
L 628 0 
L 628 4666 
z
" transform="scale(0.015625)"/>
       <path id="DejaVuSans-74" d="M 1172 4494 
L 1172 3500 
L 2356 3500 
L 2356 3053 
L 1172 3053 
L 1172 1153 
Q 1172 725 1289 603 
Q 1406 481 1766 481 
L 2356 481 
L 2356 0 
L 1766 0 
Q 1100 0 847 248 
Q 594 497 594 1153 
L 594 3053 
L 172 3053 
L 172 3500 
L 594 3500 
L 594 4494 
L 1172 4494 
z
" transform="scale(0.015625)"/>
      </defs>
      <use xlink:href="#DejaVuSans-45"/>
      <use xlink:href="#DejaVuSans-219" transform="translate(63.183594 0)"/>
      <use xlink:href="#DejaVuSans-61" transform="translate(115.283203 0)"/>
      <use xlink:href="#DejaVuSans-6e" transform="translate(176.5625 0)"/>
      <use xlink:href="#DejaVuSans-74" transform="translate(239.941406 0)"/>
      <use xlink:href="#DejaVuSans-69" transform="translate(279.150391 0)"/>
      <use xlink:href="#DejaVuSans-6f" transform="translate(306.933594 0)"/>
      <use xlink:href="#DejaVuSans-6e" transform="translate(368.115234 0)"/>
     </g>
    </g>
   </g>
   <g id="matplotlib.axis_4">
    <g id="ytick_8">
     <g id="line2d_22">
      <g>
       <use xlink:href="#m1c3522ff5a" x="59.3525" y="389.9275" style="stroke: #000000; stroke-width: 0.8"/>
      </g>
     </g>
     <g id="text_18">
      <!-- −100 -->
      <g transform="translate(24.885313 393.726719) scale(0.1 -0.1)">
       <use xlink:href="#DejaVuSans-2212"/>
       <use xlink:href="#DejaVuSans-31" transform="translate(83.789062 0)"/>
       <use xlink:href="#DejaVuSans-30" transform="translate(147.412109 0)"/>
       <use xlink:href="#DejaVuSans-30" transform="translate(211.035156 0)"/>
      </g>
     </g>
    </g>
    <g id="ytick_9">
     <g id="line2d_23">
      <g>
       <use xlink:href="#m1c3522ff5a" x="59.3525" y="362.423542" style="stroke: #000000; stroke-width: 0.8"/>
      </g>
     </g>
     <g id="text_19">
      <!-- −50 -->
      <g transform="translate(31.247813 366.22276) scale(0.1 -0.1)">
       <use xlink:href="#DejaVuSans-2212"/>
       <use xlink:href="#DejaVuSans-35" transform="translate(83.789062 0)"/>
       <use xlink:href="#DejaVuSans-30" transform="translate(147.412109 0)"/>
      </g>
     </g>
    </g>
    <g id="ytick_10">
     <g id="line2d_24">
      <g>
       <use xlink:href="#m1c3522ff5a" x="59.3525" y="334.919583" style="stroke: #000000; stroke-width: 0.8"/>
      </g>
     </g>
     <g id="text_20">
      <!-- 0 -->
      <g transform="translate(45.99 338.718802) scale(0.1 -0.1)">
       <use xlink:href="#DejaVuSans-30"/>
      </g>
     </g>
    </g>
    <g id="ytick_11">
     <g id="line2d_25">
      <g>
       <use xlink:href="#m1c3522ff5a" x="59.3525" y="307.415625" style="stroke: #000000; stroke-width: 0.8"/>
      </g>
     </g>
     <g id="text_21">
      <!-- 50 -->
      <g transform="translate(39.6275 311.214844) scale(0.1 -0.1)">
       <use xlink:href="#DejaVuSans-35"/>
       <use xlink:href="#DejaVuSans-30" transform="translate(63.623047 0)"/>
      </g>
     </g>
    </g>
    <g id="ytick_12">
     <g id="line2d_26">
      <g>
       <use xlink:href="#m1c3522ff5a" x="59.3525" y="279.911667" style="stroke: #000000; stroke-width: 0.8"/>
      </g>
     </g>
     <g id="text_22">
      <!-- 100 -->
      <g transform="translate(33.265 283.710885) scale(0.1 -0.1)">
       <use xlink:href="#DejaVuSans-31"/>
       <use xlink:href="#DejaVuSans-30" transform="translate(63.623047 0)"/>
       <use xlink:href="#DejaVuSans-30" transform="translate(127.246094 0)"/>
      </g>
     </g>
    </g>
    <g id="ytick_13">
     <g id="line2d_27">
      <g>
       <use xlink:href="#m1c3522ff5a" x="59.3525" y="252.407708" style="stroke: #000000; stroke-width: 0.8"/>
      </g>
     </g>
     <g id="text_23">
      <!-- 150 -->
      <g transform="translate(33.265 256.206927) scale(0.1 -0.1)">
       <use xlink:href="#DejaVuSans-31"/>
       <use xlink:href="#DejaVuSans-35" transform="translate(63.623047 0)"/>
       <use xlink:href="#DejaVuSans-30" transform="translate(127.246094 0)"/>
      </g>
     </g>
    </g>
    <g id="ytick_14">
     <g id="line2d_28">
      <g>
       <use xlink:href="#m1c3522ff5a" x="59.3525" y="224.90375" style="stroke: #000000; stroke-width: 0.8"/>
      </g>
     </g>
     <g id="text_24">
      <!-- 200 -->
      <g transform="translate(33.265 228.702969) scale(0.1 -0.1)">
       <use xlink:href="#DejaVuSans-32"/>
       <use xlink:href="#DejaVuSans-30" transform="translate(63.623047 0)"/>
       <use xlink:href="#DejaVuSans-30" transform="translate(127.246094 0)"/>
      </g>
     </g>
    </g>
    <g id="text_25">
     <!-- Număr mașini -->
     <g transform="translate(18.482188 342.389844) rotate(-90) scale(0.1 -0.1)">
      <use xlink:href="#DejaVuSans-4e"/>
      <use xlink:href="#DejaVuSans-75" transform="translate(74.804688 0)"/>
      <use xlink:href="#DejaVuSans-6d" transform="translate(138.183594 0)"/>
      <use xlink:href="#DejaVuSans-103" transform="translate(235.595703 0)"/>
      <use xlink:href="#DejaVuSans-72" transform="translate(296.875 0)"/>
      <use xlink:href="#DejaVuSans-20" transform="translate(337.988281 0)"/>
      <use xlink:href="#DejaVuSans-6d" transform="translate(369.775391 0)"/>
      <use xlink:href="#DejaVuSans-61" transform="translate(467.1875 0)"/>
      <use xlink:href="#DejaVuSans-219" transform="translate(528.466797 0)"/>
      <use xlink:href="#DejaVuSans-69" transform="translate(580.566406 0)"/>
      <use xlink:href="#DejaVuSans-6e" transform="translate(608.349609 0)"/>
      <use xlink:href="#DejaVuSans-69" transform="translate(671.728516 0)"/>
     </g>
    </g>
   </g>
   <g id="line2d_29">
    <path d="M 59.3525 165.394417 
L 61.90131 337.181942 
L 62.538513 368.471468 
L 63.175715 387.689289 
L 63.812918 392.871096 
L 64.45012 384.359978 
L 65.087323 364.991487 
L 66.361728 314.373812 
L 66.99893 294.915291 
L 67.636133 285.592619 
L 68.273335 288.23664 
L 68.910538 301.800917 
L 70.822145 364.506096 
L 71.459348 375.188237 
L 72.09655 375.016758 
L 72.733753 364.281642 
L 74.64536 306.217348 
L 75.282563 294.996941 
L 75.919765 293.834509 
L 76.556968 302.855848 
L 77.19417 319.572324 
L 78.468575 357.584623 
L 79.105778 369.029056 
L 79.74298 371.006503 
L 80.380183 363.121024 
L 81.017385 347.533002 
L 82.29179 310.63555 
L 82.928993 298.899888 
L 83.566195 296.120636 
L 84.203398 302.892414 
L 84.8406 317.320021 
L 86.115005 352.754074 
L 86.752208 364.48396 
L 87.38941 367.744379 
L 88.026613 361.80243 
L 88.663815 348.3449 
L 89.93822 314.413112 
L 90.575423 302.926013 
L 91.212625 299.532541 
L 91.849828 305.05918 
L 92.48703 317.979385 
L 93.761435 351.175563 
L 94.398638 362.714284 
L 95.03584 366.476719 
L 95.673043 361.558592 
L 96.310245 349.346544 
L 97.58465 317.22436 
L 98.221853 305.811039 
L 98.859055 301.850958 
L 99.496258 306.308604 
L 100.13346 317.917999 
L 101.407865 348.9968 
L 102.045068 360.207141 
L 102.68227 364.241622 
L 103.319473 360.098392 
L 103.956675 348.949016 
L 105.23108 318.729406 
L 105.868283 307.70624 
L 106.505485 303.632491 
L 107.142688 307.535608 
L 107.77989 318.320817 
L 109.054295 347.863426 
L 109.691498 358.758611 
L 110.3287 362.902882 
L 110.965903 359.247193 
L 111.603105 348.818652 
L 112.87751 319.936814 
L 113.514713 309.176386 
L 114.151915 304.980217 
L 114.789118 308.413253 
L 115.42632 318.506039 
L 116.700725 346.710833 
L 117.337928 357.281182 
L 117.97513 361.438154 
L 118.612333 358.104956 
L 119.249535 348.202699 
L 120.52394 320.370191 
L 121.161143 309.857875 
L 121.798345 305.63646 
L 122.435548 308.801099 
L 123.07275 318.481391 
L 124.347155 345.983274 
L 124.984358 356.501958 
L 125.62156 360.874405 
L 126.258763 357.982338 
L 126.895965 348.641272 
L 128.17037 321.728622 
L 128.807573 311.336051 
L 129.444775 306.939742 
L 130.081978 309.674281 
L 130.71918 318.771673 
L 131.993585 345.200043 
L 132.630788 355.465514 
L 133.26799 359.845824 
L 133.905193 357.190976 
L 134.542395 348.224959 
L 136.454003 311.665022 
L 137.091205 307.123521 
L 137.728408 309.528617 
L 138.36561 318.210205 
L 140.277218 354.367547 
L 140.91442 359.065251 
L 141.551623 356.950415 
L 142.188825 348.634938 
L 144.100433 313.258463 
L 144.737635 308.518946 
L 145.374838 310.420915 
L 146.01204 318.395072 
L 147.923648 352.684087 
L 148.56085 357.252076 
L 149.198053 355.319414 
L 149.835255 347.434666 
L 151.746863 313.637482 
L 152.384065 309.14533 
L 153.021268 311.073719 
L 153.65847 318.890992 
L 155.570078 352.508532 
L 156.20728 357.074034 
L 156.844483 355.30583 
L 157.481685 347.712124 
L 159.393293 314.694254 
L 160.030495 310.161094 
L 160.667698 311.84504 
L 161.3049 319.251731 
L 163.216508 351.456623 
L 163.85371 355.76473 
L 164.490913 353.916995 
L 165.128115 346.405864 
L 167.039723 314.059588 
L 167.676925 309.696926 
L 168.314128 311.474272 
L 168.95133 318.908335 
L 170.862938 351.131135 
L 171.50014 355.510352 
L 172.137343 353.760299 
L 172.774545 346.33701 
L 174.686153 313.782536 
L 175.323355 309.141672 
L 175.960558 310.58515 
L 176.59776 317.699845 
L 178.509368 349.771193 
L 179.14657 354.488154 
L 179.783773 353.230574 
L 180.420975 346.374413 
L 182.332583 315.037042 
L 182.969785 310.431447 
L 183.606988 311.720203 
L 184.24419 318.549235 
L 186.155798 349.788656 
L 186.793 354.434599 
L 187.430203 353.220463 
L 188.067405 346.472073 
L 189.979013 315.149624 
L 190.616215 310.294197 
L 191.253418 311.221278 
L 191.89062 317.645714 
L 193.802228 348.311464 
L 194.43943 353.195033 
L 195.076633 352.439892 
L 195.713835 346.306186 
L 197.625443 316.752114 
L 198.262645 312.160313 
L 198.899848 313.120596 
L 199.53705 319.372826 
L 201.448658 348.953485 
L 202.08586 353.514849 
L 202.723063 352.517928 
L 203.360265 346.211977 
L 205.271873 316.177573 
L 205.909075 311.33177 
L 206.546278 311.996016 
L 207.18348 317.957287 
L 209.095088 347.352706 
L 209.73229 352.241602 
L 210.369493 351.766814 
L 211.006695 346.119229 
L 212.918303 317.976096 
L 213.555505 313.457524 
L 214.192708 314.231144 
L 214.82991 320.10368 
L 216.741518 348.656106 
L 217.37872 353.298638 
L 218.015923 352.663992 
L 218.653125 346.939749 
L 220.564733 318.699528 
L 221.201935 314.052611 
L 221.839138 314.616452 
L 222.47634 320.214103 
L 224.387948 347.958174 
L 225.02515 352.469544 
L 225.662353 351.798734 
L 226.299555 346.114195 
L 228.211163 318.065553 
L 228.848365 313.400951 
L 229.485568 313.901309 
L 230.12277 319.422689 
L 232.034378 347.342768 
L 232.67158 352.158516 
L 233.308783 351.902774 
L 233.945985 346.687214 
L 235.857593 319.540621 
L 236.494795 314.766113 
L 237.131998 314.904523 
L 237.7692 319.847581 
L 239.680808 345.59946 
L 240.31801 349.893714 
L 240.955213 349.354562 
L 241.592415 344.125383 
L 243.504023 318.292031 
L 244.141225 314.183704 
L 244.778428 314.969063 
L 245.41563 320.472721 
L 247.327238 347.020822 
L 247.96444 351.260374 
L 248.601643 350.529649 
L 249.238845 344.998618 
L 251.150453 317.93497 
L 251.787655 313.441395 
L 252.424858 313.92702 
L 253.06206 319.257267 
L 254.973668 346.26246 
L 255.61087 350.953052 
L 256.248073 350.753674 
L 256.885275 345.768056 
L 258.796882 319.780279 
L 259.434085 315.325876 
L 260.071287 315.68981 
L 260.70849 320.776095 
L 262.620097 346.875467 
L 263.2573 351.369067 
L 263.894502 351.062635 
L 264.531705 346.048827 
L 266.443312 320.126433 
L 267.080515 315.627291 
L 267.717717 315.877542 
L 268.35492 320.780805 
L 270.266527 346.058265 
L 270.90373 350.24786 
L 271.540932 349.646608 
L 272.178135 344.357475 
L 274.089742 317.877078 
L 274.726945 313.367977 
L 275.364148 313.754251 
L 276.00135 318.970164 
L 277.912958 346.251092 
L 278.55016 351.318689 
L 279.187363 351.557511 
L 279.824565 346.963316 
L 281.09897 329.261016 
L 281.736173 320.881396 
L 282.373375 315.868898 
L 283.010578 315.520505 
L 283.64778 319.885789 
L 284.284983 327.762921 
L 285.559388 345.20225 
L 286.19659 350.122928 
L 286.833793 350.50919 
L 287.470995 346.302209 
L 288.108198 338.672011 
L 289.382603 321.802185 
L 290.019805 317.107708 
L 290.657008 316.861454 
L 291.29421 321.107866 
L 292.568615 337.517821 
L 293.205818 345.221317 
L 293.84302 349.698338 
L 294.480223 349.724957 
L 295.117425 345.273791 
L 297.029033 320.70669 
L 297.666235 316.14071 
L 298.303438 316.063412 
L 298.94064 320.511022 
L 300.215045 337.42567 
L 300.852248 345.436872 
L 301.48945 350.248702 
L 302.126653 350.613949 
L 302.763855 346.469849 
L 303.401058 338.951107 
L 304.675462 322.243612 
L 305.312665 317.520484 
L 305.949867 317.164292 
L 306.58707 321.254118 
L 307.224272 328.681638 
L 308.498677 345.214469 
L 309.13588 349.899798 
L 309.773082 350.262261 
L 310.410285 346.213645 
L 311.047487 338.841535 
L 312.321892 322.353867 
L 312.959095 317.61132 
L 313.596297 317.123183 
L 314.2335 320.982664 
L 314.870702 328.11957 
L 316.145107 344.105033 
L 316.78231 348.635128 
L 317.419512 348.963261 
L 318.056715 345.004106 
L 318.693917 337.82569 
L 319.968322 321.889488 
L 320.605525 317.424738 
L 321.242728 317.17703 
L 321.87993 321.229588 
L 322.517133 328.51755 
L 323.791538 344.74398 
L 324.42874 349.394983 
L 325.065943 349.850204 
L 325.703145 346.012664 
L 326.340348 338.927737 
L 327.614753 322.986807 
L 328.251955 318.385829 
L 328.889158 317.911026 
L 329.52636 321.666298 
L 330.163563 328.622142 
L 331.437968 344.250993 
L 332.07517 348.71008 
L 332.712373 349.07037 
L 333.349575 345.231047 
L 333.986778 338.216744 
L 335.261183 322.50499 
L 335.898385 317.999607 
L 336.535588 317.581551 
L 337.17279 321.352792 
L 337.809993 328.295198 
L 339.084398 343.889076 
L 339.7216 348.362974 
L 340.358803 348.76928 
L 340.996005 344.999303 
L 341.633208 338.059487 
L 342.907613 322.421364 
L 343.544815 317.881445 
L 344.182018 317.377836 
L 344.81922 321.027451 
L 345.456423 327.838499 
L 346.730828 343.26538 
L 347.36803 347.753535 
L 348.005233 348.25207 
L 348.642435 344.642749 
L 349.279638 337.909423 
L 350.554043 322.702109 
L 351.191245 318.333687 
L 351.828448 317.95354 
L 352.46565 321.680556 
L 353.102853 328.535585 
L 354.377258 344.019953 
L 355.01446 348.546011 
L 355.651663 349.087552 
L 356.288865 345.510372 
L 356.926068 338.773703 
L 358.200473 323.352771 
L 358.837675 318.746256 
L 359.474878 318.048846 
L 360.11208 321.408716 
L 360.749283 327.89063 
L 362.023688 342.811855 
L 362.66089 347.232163 
L 363.298092 347.81375 
L 363.935295 344.416182 
L 364.572497 337.970935 
L 365.846902 323.285404 
L 366.484105 319.02149 
L 367.121308 318.59318 
L 367.75851 322.123676 
L 368.395713 328.669685 
L 369.670118 343.438383 
L 370.30732 347.682461 
L 370.944523 348.051164 
L 371.581725 344.422672 
L 372.218928 337.742031 
L 373.493333 322.608893 
L 374.130535 318.149765 
L 374.767738 317.560164 
L 375.40494 320.977854 
L 376.042143 327.474703 
L 377.316548 342.377243 
L 377.95375 346.803605 
L 378.590953 347.412166 
L 379.228155 344.053198 
L 379.865358 337.637489 
L 381.139763 322.888373 
L 381.776965 318.503661 
L 382.414168 317.903428 
L 383.05137 321.239451 
L 383.688573 327.609567 
L 384.962978 342.251311 
L 385.60018 346.599343 
L 386.237383 347.185247 
L 386.874585 343.859349 
L 387.511788 337.521517 
L 388.786193 322.991335 
L 389.423395 318.714704 
L 390.060598 318.210122 
L 390.6978 321.631126 
L 391.335003 328.083769 
L 392.609408 342.922432 
L 393.24661 347.393194 
L 393.883813 348.109332 
L 394.521015 344.903311 
L 395.158218 338.651534 
L 396.432623 324.103525 
L 397.069825 319.698954 
L 397.707028 318.992469 
L 398.34423 322.158656 
L 398.981433 328.334385 
L 400.255838 342.68708 
L 400.89304 347.000751 
L 401.530243 347.631397 
L 402.167445 344.404494 
L 402.804648 338.178075 
L 404.079053 323.724116 
L 404.716255 319.349571 
L 405.353458 318.652364 
L 405.99066 321.815101 
L 406.627863 327.992188 
L 407.902268 342.445602 
L 408.53947 346.887261 
L 409.176672 347.697562 
L 409.813875 344.684731 
L 410.451077 338.678511 
L 411.725482 324.551492 
L 412.362685 320.230201 
L 412.999887 319.497403 
L 413.63709 322.543449 
L 414.274293 328.544026 
L 415.548698 342.583219 
L 416.1859 346.840893 
L 416.823103 347.502005 
L 417.460305 344.371986 
L 418.097508 338.26505 
L 419.371913 323.892608 
L 420.009115 319.386288 
L 420.646318 318.417889 
L 421.28352 321.190266 
L 421.920723 326.906518 
L 423.195128 340.497107 
L 423.83233 344.663747 
L 424.469533 345.353317 
L 425.106735 342.371835 
L 425.743938 336.514183 
L 427.018343 322.787947 
L 427.655545 318.584555 
L 428.292748 317.849397 
L 428.92995 320.759601 
L 429.567153 326.511234 
L 430.841558 339.928233 
L 431.47876 343.9495 
L 432.115963 344.504186 
L 432.753165 341.429219 
L 433.390368 335.537885 
L 434.664773 321.919023 
L 435.301975 317.818613 
L 435.939178 317.178864 
L 436.57638 320.144906 
L 437.213583 325.88765 
L 438.487988 339.057964 
L 439.12519 342.864916 
L 439.762393 343.186441 
L 440.399595 339.904982 
L 441.036798 333.88335 
L 442.311203 320.405366 
L 442.948405 316.628083 
L 443.585608 316.480286 
L 444.22281 320.077585 
L 444.860013 326.538803 
L 446.134418 341.120495 
L 446.77162 345.46424 
L 447.408823 346.119136 
L 448.046025 342.925224 
L 448.683228 336.732997 
L 449.957633 322.255344 
L 450.594835 317.779328 
L 451.232038 316.917573 
L 451.86924 319.877646 
L 452.506443 325.857106 
L 453.780848 340.125616 
L 454.41805 344.647997 
L 455.055253 345.659284 
L 455.692455 342.936741 
L 456.329657 337.259006 
L 457.604062 323.680801 
L 458.241265 319.503204 
L 458.878467 318.819008 
L 459.51567 321.847217 
L 460.152873 327.810607 
L 461.427278 341.911535 
L 462.06448 346.325586 
L 462.701683 347.221648 
L 463.338885 344.369571 
L 463.976088 338.534008 
L 465.250493 324.506728 
L 465.887695 320.035558 
L 466.524898 319.03122 
L 467.1621 321.741642 
L 467.799303 327.424096 
L 469.073708 341.195397 
L 469.71091 345.593135 
L 470.348113 346.566701 
L 470.985315 343.862489 
L 471.622518 338.211533 
L 472.896923 324.523419 
L 473.534125 320.155982 
L 474.171328 319.200327 
L 474.80853 321.914445 
L 475.445733 327.576413 
L 476.720138 341.331531 
L 477.35734 345.768421 
L 477.994543 346.816689 
L 478.631745 344.209332 
L 479.268948 338.654048 
L 480.543353 325.046807 
L 481.180555 320.624368 
L 481.817758 319.542372 
L 482.45496 322.070221 
L 483.092163 327.508935 
L 484.366568 340.825013 
L 485.00377 345.10037 
L 485.640973 346.048596 
L 486.278175 343.406209 
L 486.915378 337.874486 
L 488.189783 324.436457 
L 488.826985 320.132042 
L 489.464188 319.17837 
L 490.10139 321.842657 
L 490.738593 327.427708 
L 492.012998 341.073995 
L 492.6502 345.52763 
L 493.287403 346.64913 
L 493.924605 344.157949 
L 494.561808 338.736538 
L 495.836213 325.339456 
L 496.473415 320.95836 
L 497.110618 319.876249 
L 497.74782 322.381784 
L 498.385023 327.803704 
L 499.659428 341.20226 
L 500.29663 345.595907 
L 500.933833 346.697126 
L 501.571035 344.210171 
L 502.208237 338.796997 
L 503.482642 325.357452 
L 504.119845 320.91211 
L 504.757047 319.747929 
L 505.39425 322.174511 
L 506.031453 327.545397 
L 507.305858 340.998318 
L 507.94306 345.500059 
L 508.580263 346.735918 
L 509.217465 344.370171 
L 509.854668 339.017385 
L 511.129073 325.35226 
L 511.766275 320.582819 
L 512.403478 318.97138 
L 513.04068 320.874895 
L 513.677883 325.714874 
L 514.952288 338.387547 
L 515.58949 342.768029 
L 516.226693 344.106884 
L 516.863895 342.061272 
L 517.501098 337.205818 
L 518.775503 324.789802 
L 519.412705 320.611871 
L 520.049908 319.475629 
L 520.68711 321.693439 
L 521.324313 326.670296 
L 522.598718 339.151062 
L 523.23592 343.282169 
L 523.873123 344.333447 
L 524.510325 342.003609 
L 525.147528 336.894925 
L 526.421933 324.093734 
L 527.059135 319.764415 
L 527.696338 318.48057 
L 528.33354 320.539363 
L 528.970743 325.339891 
L 530.245148 337.455224 
L 530.88235 341.445381 
L 531.519553 342.426519 
L 532.156755 340.128739 
L 532.793958 335.177551 
L 534.068363 323.092295 
L 534.705565 319.293451 
L 535.342768 318.611136 
L 535.97997 321.295466 
L 536.617173 326.693216 
L 537.891578 339.716863 
L 538.52878 343.937646 
L 539.165983 344.968596 
L 539.803185 342.536163 
L 540.440388 337.279007 
L 541.714793 324.193707 
L 542.351995 319.789564 
L 542.989198 318.498522 
L 543.6264 320.618469 
L 544.263603 325.536263 
L 545.538008 337.955714 
L 546.17521 342.071095 
L 546.812413 343.120859 
L 547.449615 340.815905 
L 548.086818 335.775528 
L 549.361222 323.315337 
L 549.998425 319.287884 
L 550.635627 318.399965 
L 551.27283 320.93874 
L 551.910032 326.27895 
L 553.184437 339.488671 
L 553.82164 343.93051 
L 554.458842 345.231223 
L 555.096045 343.083003 
L 555.733247 338.094131 
L 557.007652 325.432699 
L 557.644855 321.187169 
L 558.282057 320.040185 
L 558.91926 322.309975 
L 559.556462 327.397398 
L 560.830867 340.19982 
L 561.46807 344.478668 
L 562.105272 345.619535 
L 562.742475 343.291278 
L 563.379677 338.083724 
L 564.654082 324.861157 
L 565.291285 320.312835 
L 565.928487 318.900935 
L 566.56569 320.99322 
L 567.202892 326.036047 
L 568.477297 339.246494 
L 569.1145 343.963233 
L 569.751702 345.641878 
L 570.388905 343.881861 
L 571.026107 339.194398 
L 572.300512 326.589696 
L 572.937715 322.055752 
L 573.574917 320.458654 
L 574.21212 322.204274 
L 574.849322 326.801879 
L 576.123727 339.128907 
L 576.76093 343.543677 
L 577.398132 345.071633 
L 578.035335 343.321945 
L 578.672537 338.788687 
L 579.946942 326.760529 
L 580.584145 322.548356 
L 581.221347 321.234741 
L 581.85855 323.195023 
L 582.495752 327.92284 
L 583.770157 340.25532 
L 584.40736 344.561044 
L 585.044562 345.917499 
L 585.681765 343.939933 
L 586.318967 339.126458 
L 587.593372 326.406452 
L 588.230575 321.812435 
L 588.867777 320.129657 
L 589.50498 321.77282 
L 590.142182 326.279164 
L 591.416587 338.604067 
L 592.05379 343.159484 
L 592.690992 344.920255 
L 593.328195 343.459567 
L 593.965397 339.213306 
L 595.239802 327.488497 
L 595.877005 323.193985 
L 596.514207 321.62729 
L 597.15141 323.201563 
L 597.788612 327.483391 
L 599.063018 339.124009 
L 599.70022 343.357521 
L 600.337423 344.889557 
L 600.974625 343.326557 
L 601.611828 339.108706 
L 602.886233 327.714039 
L 603.523435 323.617486 
L 604.160638 322.195888 
L 604.79784 323.821075 
L 605.435043 328.041855 
L 606.709448 339.289316 
L 607.34665 343.279408 
L 607.983853 344.613778 
L 608.621055 342.950132 
L 609.258258 338.758838 
L 610.532663 327.760491 
L 611.169865 323.927683 
L 611.807068 322.694944 
L 612.44427 324.326677 
L 613.081473 328.268881 
L 614.355878 337.819166 
L 614.99308 340.354574 
L 615.630283 339.893841 
L 616.267485 336.209096 
L 616.904688 329.929086 
L 618.179093 315.306642 
L 618.816295 310.315497 
L 619.453497 308.566926 
L 620.0907 310.417672 
L 620.727902 315.339767 
L 622.002307 328.884189 
L 622.63951 334.152193 
L 623.276712 336.651624 
L 623.913915 335.933118 
L 624.551117 332.412969 
L 625.825522 322.014873 
L 626.462725 318.282276 
L 627.099927 317.186989 
L 627.73713 319.130269 
L 628.374332 323.672884 
L 629.648737 335.518661 
L 630.28594 339.713968 
L 630.923142 341.132032 
L 631.560345 339.396378 
L 632.197547 334.966769 
L 633.471952 323.122342 
L 634.109155 318.838187 
L 634.746357 317.287192 
L 635.38356 318.861288 
L 636.020762 323.120753 
L 637.295167 334.699679 
L 637.93237 338.943288 
L 638.569572 340.548987 
L 639.206775 339.14323 
L 639.843977 335.175092 
L 641.118382 324.529232 
L 641.755585 320.888814 
L 642.392787 319.934232 
L 643.02999 321.997116 
L 643.667192 326.583086 
L 644.941597 338.17469 
L 645.5788 342.075228 
L 646.216002 343.12328 
L 646.853205 340.988423 
L 647.490407 336.183624 
L 648.764812 323.867079 
L 649.402015 319.565356 
L 650.039217 318.16764 
L 650.67642 320.057562 
L 651.313622 324.763363 
L 652.588027 337.394708 
L 653.22523 342.096446 
L 653.862432 344.015076 
L 654.499635 342.719271 
L 655.136837 338.627504 
L 656.411242 327.087168 
L 657.048445 322.790524 
L 657.685647 321.160219 
L 658.32285 322.629261 
L 658.960052 326.792832 
L 660.234457 338.257474 
L 660.87166 342.448829 
L 661.508862 343.948959 
L 662.146065 342.331338 
L 662.783267 338.001441 
L 664.057672 326.142779 
L 664.694875 321.725242 
L 665.332077 319.989914 
L 665.96928 321.379619 
L 666.606482 325.510172 
L 667.880887 337.142917 
L 668.51809 341.564178 
L 669.155292 343.384011 
L 669.792495 342.145423 
L 670.429697 338.205733 
L 671.704102 326.924216 
L 672.341305 322.583741 
L 672.978507 320.737506 
L 673.61571 321.824309 
L 674.252912 325.484397 
L 675.527317 335.893212 
L 676.16452 339.707896 
L 676.801722 341.026286 
L 677.438925 339.454362 
L 678.076127 335.391909 
L 679.350532 324.541541 
L 679.987735 320.716988 
L 680.624937 319.529873 
L 681.26214 321.362195 
L 681.899342 325.794649 
L 683.173747 337.612115 
L 683.81095 341.977407 
L 684.448152 343.705652 
L 685.085355 342.388473 
L 685.722557 338.421576 
L 686.996962 327.310576 
L 687.634165 323.159173 
L 688.271367 321.541906 
L 688.90857 322.865845 
L 689.545772 326.738838 
L 690.820177 337.396858 
L 691.45738 341.217711 
L 692.094583 342.459879 
L 692.731785 340.738442 
L 693.368988 336.469681 
L 694.643393 325.125703 
L 695.280595 321.062732 
L 695.917798 319.672996 
L 696.555 321.355636 
L 697.192203 325.701611 
L 697.192203 325.701611 
" clip-path="url(#pe39d14caf3)" style="fill: none; stroke: #1f77b4; stroke-width: 1.5; stroke-linecap: square"/>
   </g>
   <g id="patch_9">
    <path d="M 59.3525 389.9275 
L 59.3525 224.90375 
" style="fill: none; stroke: #000000; stroke-width: 0.8; stroke-linejoin: miter; stroke-linecap: square"/>
   </g>
   <g id="patch_10">
    <path d="M 696.555 389.9275 
L 696.555 224.90375 
" style="fill: none; stroke: #000000; stroke-width: 0.8; stroke-linejoin: miter; stroke-linecap: square"/>
   </g>
   <g id="patch_11">
    <path d="M 59.3525 389.9275 
L 696.555 389.9275 
" style="fill: none; stroke: #000000; stroke-width: 0.8; stroke-linejoin: miter; stroke-linecap: square"/>
   </g>
   <g id="patch_12">
    <path d="M 59.3525 224.90375 
L 696.555 224.90375 
" style="fill: none; stroke: #000000; stroke-width: 0.8; stroke-linejoin: miter; stroke-linecap: square"/>
   </g>
   <g id="text_26">
    <!-- Semnal după filtrare -->
    <g transform="translate(316.585938 218.90375) scale(0.12 -0.12)">
     <defs>
      <path id="DejaVuSans-64" d="M 2906 2969 
L 2906 4863 
L 3481 4863 
L 3481 0 
L 2906 0 
L 2906 525 
Q 2725 213 2448 61 
Q 2172 -91 1784 -91 
Q 1150 -91 751 415 
Q 353 922 353 1747 
Q 353 2572 751 3078 
Q 1150 3584 1784 3584 
Q 2172 3584 2448 3432 
Q 2725 3281 2906 2969 
z
M 947 1747 
Q 947 1113 1208 752 
Q 1469 391 1925 391 
Q 2381 391 2643 752 
Q 2906 1113 2906 1747 
Q 2906 2381 2643 2742 
Q 2381 3103 1925 3103 
Q 1469 3103 1208 2742 
Q 947 2381 947 1747 
z
" transform="scale(0.015625)"/>
      <path id="DejaVuSans-70" d="M 1159 525 
L 1159 -1331 
L 581 -1331 
L 581 3500 
L 1159 3500 
L 1159 2969 
Q 1341 3281 1617 3432 
Q 1894 3584 2278 3584 
Q 2916 3584 3314 3078 
Q 3713 2572 3713 1747 
Q 3713 922 3314 415 
Q 2916 -91 2278 -91 
Q 1894 -91 1617 61 
Q 1341 213 1159 525 
z
M 3116 1747 
Q 3116 2381 2855 2742 
Q 2594 3103 2138 3103 
Q 1681 3103 1420 2742 
Q 1159 2381 1159 1747 
Q 1159 1113 1420 752 
Q 1681 391 2138 391 
Q 2594 391 2855 752 
Q 3116 1113 3116 1747 
z
" transform="scale(0.015625)"/>
      <path id="DejaVuSans-66" d="M 2375 4863 
L 2375 4384 
L 1825 4384 
Q 1516 4384 1395 4259 
Q 1275 4134 1275 3809 
L 1275 3500 
L 2222 3500 
L 2222 3053 
L 1275 3053 
L 1275 0 
L 697 0 
L 697 3053 
L 147 3053 
L 147 3500 
L 697 3500 
L 697 3744 
Q 697 4328 969 4595 
Q 1241 4863 1831 4863 
L 2375 4863 
z
" transform="scale(0.015625)"/>
     </defs>
     <use xlink:href="#DejaVuSans-53"/>
     <use xlink:href="#DejaVuSans-65" transform="translate(63.476562 0)"/>
     <use xlink:href="#DejaVuSans-6d" transform="translate(125 0)"/>
     <use xlink:href="#DejaVuSans-6e" transform="translate(222.412109 0)"/>
     <use xlink:href="#DejaVuSans-61" transform="translate(285.791016 0)"/>
     <use xlink:href="#DejaVuSans-6c" transform="translate(347.070312 0)"/>
     <use xlink:href="#DejaVuSans-20" transform="translate(374.853516 0)"/>
     <use xlink:href="#DejaVuSans-64" transform="translate(406.640625 0)"/>
     <use xlink:href="#DejaVuSans-75" transform="translate(470.117188 0)"/>
     <use xlink:href="#DejaVuSans-70" transform="translate(533.496094 0)"/>
     <use xlink:href="#DejaVuSans-103" transform="translate(596.972656 0)"/>
     <use xlink:href="#DejaVuSans-20" transform="translate(658.251953 0)"/>
     <use xlink:href="#DejaVuSans-66" transform="translate(690.039062 0)"/>
     <use xlink:href="#DejaVuSans-69" transform="translate(725.244141 0)"/>
     <use xlink:href="#DejaVuSans-6c" transform="translate(753.027344 0)"/>
     <use xlink:href="#DejaVuSans-74" transform="translate(780.810547 0)"/>
     <use xlink:href="#DejaVuSans-72" transform="translate(820.019531 0)"/>
     <use xlink:href="#DejaVuSans-61" transform="translate(861.132812 0)"/>
     <use xlink:href="#DejaVuSans-72" transform="translate(922.412109 0)"/>
     <use xlink:href="#DejaVuSans-65" transform="translate(961.275391 0)"/>
    </g>
   </g>
   <g id="legend_2">
    <g id="patch_13">
     <path d="M 589.734687 247.581875 
L 689.555 247.581875 
Q 691.555 247.581875 691.555 245.581875 
L 691.555 231.90375 
Q 691.555 229.90375 689.555 229.90375 
L 589.734687 229.90375 
Q 587.734687 229.90375 587.734687 231.90375 
L 587.734687 245.581875 
Q 587.734687 247.581875 589.734687 247.581875 
z
" style="fill: #ffffff; opacity: 0.8; stroke: #cccccc; stroke-linejoin: miter"/>
    </g>
    <g id="line2d_30">
     <path d="M 591.734687 238.002187 
L 601.734687 238.002187 
L 611.734687 238.002187 
" style="fill: none; stroke: #1f77b4; stroke-width: 1.5; stroke-linecap: square"/>
    </g>
    <g id="text_27">
     <!-- Semnal filtrat -->
     <g transform="translate(619.734687 241.502187) scale(0.1 -0.1)">
      <use xlink:href="#DejaVuSans-53"/>
      <use xlink:href="#DejaVuSans-65" transform="translate(63.476562 0)"/>
      <use xlink:href="#DejaVuSans-6d" transform="translate(125 0)"/>
      <use xlink:href="#DejaVuSans-6e" transform="translate(222.412109 0)"/>
      <use xlink:href="#DejaVuSans-61" transform="translate(285.791016 0)"/>
      <use xlink:href="#DejaVuSans-6c" transform="translate(347.070312 0)"/>
      <use xlink:href="#DejaVuSans-20" transform="translate(374.853516 0)"/>
      <use xlink:href="#DejaVuSans-66" transform="translate(406.640625 0)"/>
      <use xlink:href="#DejaVuSans-69" transform="translate(441.845703 0)"/>
      <use xlink:href="#DejaVuSans-6c" transform="translate(469.628906 0)"/>
      <use xlink:href="#DejaVuSans-74" transform="translate(497.412109 0)"/>
      <use xlink:href="#DejaVuSans-72" transform="translate(536.621094 0)"/>
      <use xlink:href="#DejaVuSans-61" transform="translate(577.734375 0)"/>
      <use xlink:href="#DejaVuSans-74" transform="translate(639.013672 0)"/>
     </g>
    </g>
   </g>
  </g>
 </g>
 <defs>
  <clipPath id="p5e5b2e74fb">
   <rect x="59.3525" y="26.88" width="637.2025" height="165.02375"/>
  </clipPath>
  <clipPath id="pe39d14caf3">
   <rect x="59.3525" y="224.90375" width="637.2025" height="165.02375"/>
  </clipPath>
 </defs>
</svg>
