<?xml version="1.0" encoding="utf-8" standalone="no"?>
<!DOCTYPE svg PUBLIC "-//W3C//DTD SVG 1.1//EN"
  "http://www.w3.org/Graphics/SVG/1.1/DTD/svg11.dtd">
<svg xmlns:xlink="http://www.w3.org/1999/xlink" width="720pt" height="432pt" viewBox="0 0 720 432" xmlns="http://www.w3.org/2000/svg" version="1.1">
 <metadata>
  <rdf:RDF xmlns:dc="http://purl.org/dc/elements/1.1/" xmlns:cc="http://creativecommons.org/ns#" xmlns:rdf="http://www.w3.org/1999/02/22-rdf-syntax-ns#">
   <cc:Work>
    <dc:type rdf:resource="http://purl.org/dc/dcmitype/StillImage"/>
    <dc:date>2025-11-18T17:31:56.934965</dc:date>
    <dc:format>image/svg+xml</dc:format>
    <dc:creator>
     <cc:Agent>
      <dc:title>Matplotlib v3.10.7, https://matplotlib.org/</dc:title>
     </cc:Agent>
    </dc:creator>
   </cc:Work>
  </rdf:RDF>
 </metadata>
 <defs>
  <style type="text/css">*{stroke-linejoin: round; stroke-linecap: butt}</style>
 </defs>
 <g id="figure_1">
  <g id="patch_1">
   <path d="M 0 432 
L 720 432 
L 720 0 
L 0 0 
z
" style="fill: #ffffff"/>
  </g>
  <g id="axes_1">
   <g id="patch_2">
    <path d="M 60.4325 192.885568 
L 696.555 192.885568 
L 696.555 26.88 
L 60.4325 26.88 
z
" style="fill: #ffffff"/>
   </g>
   <g id="matplotlib.axis_1">
    <g id="xtick_1">
     <g id="line2d_1">
      <defs>
       <path id="m4ce48913d4" d="M 0 0 
L 0 3.5 
" style="stroke: #000000; stroke-width: 0.8"/>
      </defs>
      <g>
       <use xlink:href="#m4ce48913d4" x="60.4325" y="192.885568" style="stroke: #000000; stroke-width: 0.8"/>
      </g>
     </g>
    </g>
    <g id="xtick_2">
     <g id="line2d_2">
      <g>
       <use xlink:href="#m4ce48913d4" x="187.657" y="192.885568" style="stroke: #000000; stroke-width: 0.8"/>
      </g>
     </g>
    </g>
    <g id="xtick_3">
     <g id="line2d_3">
      <g>
       <use xlink:href="#m4ce48913d4" x="314.8815" y="192.885568" style="stroke: #000000; stroke-width: 0.8"/>
      </g>
     </g>
    </g>
    <g id="xtick_4">
     <g id="line2d_4">
      <g>
       <use xlink:href="#m4ce48913d4" x="442.106" y="192.885568" style="stroke: #000000; stroke-width: 0.8"/>
      </g>
     </g>
    </g>
    <g id="xtick_5">
     <g id="line2d_5">
      <g>
       <use xlink:href="#m4ce48913d4" x="569.3305" y="192.885568" style="stroke: #000000; stroke-width: 0.8"/>
      </g>
     </g>
    </g>
    <g id="xtick_6">
     <g id="line2d_6">
      <g>
       <use xlink:href="#m4ce48913d4" x="696.555" y="192.885568" style="stroke: #000000; stroke-width: 0.8"/>
      </g>
     </g>
    </g>
   </g>
   <g id="matplotlib.axis_2">
    <g id="ytick_1">
     <g id="line2d_7">
      <defs>
       <path id="m4a8a94d29f" d="M 0 0 
L -3.5 0 
" style="stroke: #000000; stroke-width: 0.8"/>
      </defs>
      <g>
       <use xlink:href="#m4a8a94d29f" x="60.4325" y="190.729652" style="stroke: #000000; stroke-width: 0.8"/>
      </g>
     </g>
     <g id="text_1">
      <!-- 0 -->
      <g transform="translate(47.07 194.52887) scale(0.1 -0.1)">
       <defs>
        <path id="DejaVuSans-30" d="M 2034 4250 
Q 1547 4250 1301 3770 
Q 1056 3291 1056 2328 
Q 1056 1369 1301 889 
Q 1547 409 2034 409 
Q 2525 409 2770 889 
Q 3016 1369 3016 2328 
Q 3016 3291 2770 3770 
Q 2525 4250 2034 4250 
z
M 2034 4750 
Q 2819 4750 3233 4129 
Q 3647 3509 3647 2328 
Q 3647 1150 3233 529 
Q 2819 -91 2034 -91 
Q 1250 -91 836 529 
Q 422 1150 422 2328 
Q 422 3509 836 4129 
Q 1250 4750 2034 4750 
z
" transform="scale(0.015625)"/>
       </defs>
       <use xlink:href="#DejaVuSans-30"/>
      </g>
     </g>
    </g>
    <g id="ytick_2">
     <g id="line2d_8">
      <g>
       <use xlink:href="#m4a8a94d29f" x="60.4325" y="163.780696" style="stroke: #000000; stroke-width: 0.8"/>
      </g>
     </g>
     <g id="text_2">
      <!-- 10 -->
      <g transform="translate(40.7075 167.579915) scale(0.1 -0.1)">
       <defs>
        <path id="DejaVuSans-31" d="M 794 531 
L 1825 531 
L 1825 4091 
L 703 3866 
L 703 4441 
L 1819 4666 
L 2450 4666 
L 2450 531 
L 3481 531 
L 3481 0 
L 794 0 
L 794 531 
z
" transform="scale(0.015625)"/>
       </defs>
       <use xlink:href="#DejaVuSans-31"/>
       <use xlink:href="#DejaVuSans-30" transform="translate(63.623047 0)"/>
      </g>
     </g>
    </g>
    <g id="ytick_3">
     <g id="line2d_9">
      <g>
       <use xlink:href="#m4a8a94d29f" x="60.4325" y="136.83174" style="stroke: #000000; stroke-width: 0.8"/>
      </g>
     </g>
     <g id="text_3">
      <!-- 20 -->
      <g transform="translate(40.7075 140.630959) scale(0.1 -0.1)">
       <defs>
        <path id="DejaVuSans-32" d="M 1228 531 
L 3431 531 
L 3431 0 
L 469 0 
L 469 531 
Q 828 903 1448 1529 
Q 2069 2156 2228 2338 
Q 2531 2678 2651 2914 
Q 2772 3150 2772 3378 
Q 2772 3750 2511 3984 
Q 2250 4219 1831 4219 
Q 1534 4219 1204 4116 
Q 875 4013 500 3803 
L 500 4441 
Q 881 4594 1212 4672 
Q 1544 4750 1819 4750 
Q 2544 4750 2975 4387 
Q 3406 4025 3406 3419 
Q 3406 3131 3298 2873 
Q 3191 2616 2906 2266 
Q 2828 2175 2409 1742 
Q 1991 1309 1228 531 
z
" transform="scale(0.015625)"/>
       </defs>
       <use xlink:href="#DejaVuSans-32"/>
       <use xlink:href="#DejaVuSans-30" transform="translate(63.623047 0)"/>
      </g>
     </g>
    </g>
    <g id="ytick_4">
     <g id="line2d_10">
      <g>
       <use xlink:href="#m4a8a94d29f" x="60.4325" y="109.882784" style="stroke: #000000; stroke-width: 0.8"/>
      </g>
     </g>
     <g id="text_4">
      <!-- 30 -->
      <g transform="translate(40.7075 113.682003) scale(0.1 -0.1)">
       <defs>
        <path id="DejaVuSans-33" d="M 2597 2516 
Q 3050 2419 3304 2112 
Q 3559 1806 3559 1356 
Q 3559 666 3084 287 
Q 2609 -91 1734 -91 
Q 1441 -91 1130 -33 
Q 819 25 488 141 
L 488 750 
Q 750 597 1062 519 
Q 1375 441 1716 441 
Q 2309 441 2620 675 
Q 2931 909 2931 1356 
Q 2931 1769 2642 2001 
Q 2353 2234 1838 2234 
L 1294 2234 
L 1294 2753 
L 1863 2753 
Q 2328 2753 2575 2939 
Q 2822 3125 2822 3475 
Q 2822 3834 2567 4026 
Q 2313 4219 1838 4219 
Q 1578 4219 1281 4162 
Q 984 4106 628 3988 
L 628 4550 
Q 988 4650 1302 4700 
Q 1616 4750 1894 4750 
Q 2613 4750 3031 4423 
Q 3450 4097 3450 3541 
Q 3450 3153 3228 2886 
Q 3006 2619 2597 2516 
z
" transform="scale(0.015625)"/>
       </defs>
       <use xlink:href="#DejaVuSans-33"/>
       <use xlink:href="#DejaVuSans-30" transform="translate(63.623047 0)"/>
      </g>
     </g>
    </g>
    <g id="ytick_5">
     <g id="line2d_11">
      <g>
       <use xlink:href="#m4a8a94d29f" x="60.4325" y="82.933828" style="stroke: #000000; stroke-width: 0.8"/>
      </g>
     </g>
     <g id="text_5">
      <!-- 40 -->
      <g transform="translate(40.7075 86.733047) scale(0.1 -0.1)">
       <defs>
        <path id="DejaVuSans-34" d="M 2419 4116 
L 825 1625 
L 2419 1625 
L 2419 4116 
z
M 2253 4666 
L 3047 4666 
L 3047 1625 
L 3713 1625 
L 3713 1100 
L 3047 1100 
L 3047 0 
L 2419 0 
L 2419 1100 
L 313 1100 
L 313 1709 
L 2253 4666 
z
" transform="scale(0.015625)"/>
       </defs>
       <use xlink:href="#DejaVuSans-34"/>
       <use xlink:href="#DejaVuSans-30" transform="translate(63.623047 0)"/>
      </g>
     </g>
    </g>
    <g id="ytick_6">
     <g id="line2d_12">
      <g>
       <use xlink:href="#m4a8a94d29f" x="60.4325" y="55.984872" style="stroke: #000000; stroke-width: 0.8"/>
      </g>
     </g>
     <g id="text_6">
      <!-- 50 -->
      <g transform="translate(40.7075 59.784091) scale(0.1 -0.1)">
       <defs>
        <path id="DejaVuSans-35" d="M 691 4666 
L 3169 4666 
L 3169 4134 
L 1269 4134 
L 1269 2991 
Q 1406 3038 1543 3061 
Q 1681 3084 1819 3084 
Q 2600 3084 3056 2656 
Q 3513 2228 3513 1497 
Q 3513 744 3044 326 
Q 2575 -91 1722 -91 
Q 1428 -91 1123 -41 
Q 819 9 494 109 
L 494 744 
Q 775 591 1075 516 
Q 1375 441 1709 441 
Q 2250 441 2565 725 
Q 2881 1009 2881 1497 
Q 2881 1984 2565 2268 
Q 2250 2553 1709 2553 
Q 1456 2553 1204 2497 
Q 953 2441 691 2322 
L 691 4666 
z
" transform="scale(0.015625)"/>
       </defs>
       <use xlink:href="#DejaVuSans-35"/>
       <use xlink:href="#DejaVuSans-30" transform="translate(63.623047 0)"/>
      </g>
     </g>
    </g>
    <g id="ytick_7">
     <g id="line2d_13">
      <g>
       <use xlink:href="#m4a8a94d29f" x="60.4325" y="29.035916" style="stroke: #000000; stroke-width: 0.8"/>
      </g>
     </g>
     <g id="text_7">
      <!-- 60 -->
      <g transform="translate(40.7075 32.835135) scale(0.1 -0.1)">
       <defs>
        <path id="DejaVuSans-36" d="M 2113 2584 
Q 1688 2584 1439 2293 
Q 1191 2003 1191 1497 
Q 1191 994 1439 701 
Q 1688 409 2113 409 
Q 2538 409 2786 701 
Q 3034 994 3034 1497 
Q 3034 2003 2786 2293 
Q 2538 2584 2113 2584 
z
M 3366 4563 
L 3366 3988 
Q 3128 4100 2886 4159 
Q 2644 4219 2406 4219 
Q 1781 4219 1451 3797 
Q 1122 3375 1075 2522 
Q 1259 2794 1537 2939 
Q 1816 3084 2150 3084 
Q 2853 3084 3261 2657 
Q 3669 2231 3669 1497 
Q 3669 778 3244 343 
Q 2819 -91 2113 -91 
Q 1303 -91 875 529 
Q 447 1150 447 2328 
Q 447 3434 972 4092 
Q 1497 4750 2381 4750 
Q 2619 4750 2861 4703 
Q 3103 4656 3366 4563 
z
" transform="scale(0.015625)"/>
       </defs>
       <use xlink:href="#DejaVuSans-36"/>
       <use xlink:href="#DejaVuSans-30" transform="translate(63.623047 0)"/>
      </g>
     </g>
    </g>
    <g id="text_8">
     <!-- Număr mașini -->
     <g transform="translate(34.304375 144.857003) rotate(-90) scale(0.1 -0.1)">
      <defs>
       <path id="DejaVuSans-4e" d="M 628 4666 
L 1478 4666 
L 3547 763 
L 3547 4666 
L 4159 4666 
L 4159 0 
L 3309 0 
L 1241 3903 
L 1241 0 
L 628 0 
L 628 4666 
z
" transform="scale(0.015625)"/>
       <path id="DejaVuSans-75" d="M 544 1381 
L 544 3500 
L 1119 3500 
L 1119 1403 
Q 1119 906 1312 657 
Q 1506 409 1894 409 
Q 2359 409 2629 706 
Q 2900 1003 2900 1516 
L 2900 3500 
L 3475 3500 
L 3475 0 
L 2900 0 
L 2900 538 
Q 2691 219 2414 64 
Q 2138 -91 1772 -91 
Q 1169 -91 856 284 
Q 544 659 544 1381 
z
M 1991 3584 
L 1991 3584 
z
" transform="scale(0.015625)"/>
       <path id="DejaVuSans-6d" d="M 3328 2828 
Q 3544 3216 3844 3400 
Q 4144 3584 4550 3584 
Q 5097 3584 5394 3201 
Q 5691 2819 5691 2113 
L 5691 0 
L 5113 0 
L 5113 2094 
Q 5113 2597 4934 2840 
Q 4756 3084 4391 3084 
Q 3944 3084 3684 2787 
Q 3425 2491 3425 1978 
L 3425 0 
L 2847 0 
L 2847 2094 
Q 2847 2600 2669 2842 
Q 2491 3084 2119 3084 
Q 1678 3084 1418 2786 
Q 1159 2488 1159 1978 
L 1159 0 
L 581 0 
L 581 3500 
L 1159 3500 
L 1159 2956 
Q 1356 3278 1631 3431 
Q 1906 3584 2284 3584 
Q 2666 3584 2933 3390 
Q 3200 3197 3328 2828 
z
" transform="scale(0.015625)"/>
       <path id="DejaVuSans-103" d="M 870 4897 
L 1239 4897 
Q 1273 4663 1424 4545 
Q 1576 4428 1848 4428 
Q 2117 4428 2267 4544 
Q 2417 4660 2457 4897 
L 2826 4897 
Q 2795 4450 2548 4225 
Q 2301 4000 1848 4000 
Q 1395 4000 1148 4225 
Q 901 4450 870 4897 
z
M 2194 1759 
Q 1497 1759 1228 1600 
Q 959 1441 959 1056 
Q 959 750 1161 570 
Q 1363 391 1709 391 
Q 2188 391 2477 730 
Q 2766 1069 2766 1631 
L 2766 1759 
L 2194 1759 
z
M 3341 1997 
L 3341 0 
L 2766 0 
L 2766 531 
Q 2569 213 2275 61 
Q 1981 -91 1556 -91 
Q 1019 -91 701 211 
Q 384 513 384 1019 
Q 384 1609 779 1909 
Q 1175 2209 1959 2209 
L 2766 2209 
L 2766 2266 
Q 2766 2663 2505 2880 
Q 2244 3097 1772 3097 
Q 1472 3097 1187 3025 
Q 903 2953 641 2809 
L 641 3341 
Q 956 3463 1253 3523 
Q 1550 3584 1831 3584 
Q 2591 3584 2966 3190 
Q 3341 2797 3341 1997 
z
" transform="scale(0.015625)"/>
       <path id="DejaVuSans-72" d="M 2631 2963 
Q 2534 3019 2420 3045 
Q 2306 3072 2169 3072 
Q 1681 3072 1420 2755 
Q 1159 2438 1159 1844 
L 1159 0 
L 581 0 
L 581 3500 
L 1159 3500 
L 1159 2956 
Q 1341 3275 1631 3429 
Q 1922 3584 2338 3584 
Q 2397 3584 2469 3576 
Q 2541 3569 2628 3553 
L 2631 2963 
z
" transform="scale(0.015625)"/>
       <path id="DejaVuSans-20" transform="scale(0.015625)"/>
       <path id="DejaVuSans-61" d="M 2194 1759 
Q 1497 1759 1228 1600 
Q 959 1441 959 1056 
Q 959 750 1161 570 
Q 1363 391 1709 391 
Q 2188 391 2477 730 
Q 2766 1069 2766 1631 
L 2766 1759 
L 2194 1759 
z
M 3341 1997 
L 3341 0 
L 2766 0 
L 2766 531 
Q 2569 213 2275 61 
Q 1981 -91 1556 -91 
Q 1019 -91 701 211 
Q 384 513 384 1019 
Q 384 1609 779 1909 
Q 1175 2209 1959 2209 
L 2766 2209 
L 2766 2266 
Q 2766 2663 2505 2880 
Q 2244 3097 1772 3097 
Q 1472 3097 1187 3025 
Q 903 2953 641 2809 
L 641 3341 
Q 956 3463 1253 3523 
Q 1550 3584 1831 3584 
Q 2591 3584 2966 3190 
Q 3341 2797 3341 1997 
z
" transform="scale(0.015625)"/>
       <path id="DejaVuSans-219" d="M 1524 -538 
L 2183 -538 
L 1670 -1538 
L 1267 -1538 
L 1524 -538 
z
M 2834 3397 
L 2834 2853 
Q 2591 2978 2328 3040 
Q 2066 3103 1784 3103 
Q 1356 3103 1142 2972 
Q 928 2841 928 2578 
Q 928 2378 1081 2264 
Q 1234 2150 1697 2047 
L 1894 2003 
Q 2506 1872 2764 1633 
Q 3022 1394 3022 966 
Q 3022 478 2636 193 
Q 2250 -91 1575 -91 
Q 1294 -91 989 -36 
Q 684 19 347 128 
L 347 722 
Q 666 556 975 473 
Q 1284 391 1588 391 
Q 1994 391 2212 530 
Q 2431 669 2431 922 
Q 2431 1156 2273 1281 
Q 2116 1406 1581 1522 
L 1381 1569 
Q 847 1681 609 1914 
Q 372 2147 372 2553 
Q 372 3047 722 3315 
Q 1072 3584 1716 3584 
Q 2034 3584 2315 3537 
Q 2597 3491 2834 3397 
z
" transform="scale(0.015625)"/>
       <path id="DejaVuSans-69" d="M 603 3500 
L 1178 3500 
L 1178 0 
L 603 0 
L 603 3500 
z
M 603 4863 
L 1178 4863 
L 1178 4134 
L 603 4134 
L 603 4863 
z
" transform="scale(0.015625)"/>
       <path id="DejaVuSans-6e" d="M 3513 2113 
L 3513 0 
L 2938 0 
L 2938 2094 
Q 2938 2591 2744 2837 
Q 2550 3084 2163 3084 
Q 1697 3084 1428 2787 
Q 1159 2491 1159 1978 
L 1159 0 
L 581 0 
L 581 3500 
L 1159 3500 
L 1159 2956 
Q 1366 3272 1645 3428 
Q 1925 3584 2291 3584 
Q 2894 3584 3203 3211 
Q 3513 2838 3513 2113 
z
" transform="scale(0.015625)"/>
      </defs>
      <use xlink:href="#DejaVuSans-4e"/>
      <use xlink:href="#DejaVuSans-75" transform="translate(74.804688 0)"/>
      <use xlink:href="#DejaVuSans-6d" transform="translate(138.183594 0)"/>
      <use xlink:href="#DejaVuSans-103" transform="translate(235.595703 0)"/>
      <use xlink:href="#DejaVuSans-72" transform="translate(296.875 0)"/>
      <use xlink:href="#DejaVuSans-20" transform="translate(337.988281 0)"/>
      <use xlink:href="#DejaVuSans-6d" transform="translate(369.775391 0)"/>
      <use xlink:href="#DejaVuSans-61" transform="translate(467.1875 0)"/>
      <use xlink:href="#DejaVuSans-219" transform="translate(528.466797 0)"/>
      <use xlink:href="#DejaVuSans-69" transform="translate(580.566406 0)"/>
      <use xlink:href="#DejaVuSans-6e" transform="translate(608.349609 0)"/>
      <use xlink:href="#DejaVuSans-69" transform="translate(671.728516 0)"/>
     </g>
    </g>
   </g>
   <g id="line2d_14">
    <path d="M 60.4325 169.170487 
L 61.068623 185.339861 
L 61.704745 174.560278 
L 62.340868 185.339861 
L 64.885357 185.339861 
L 65.52148 174.560278 
L 66.157603 185.339861 
L 66.793725 185.339861 
L 67.429848 174.560278 
L 68.702093 185.339861 
L 69.338215 174.560278 
L 69.974338 185.339861 
L 73.15495 185.339861 
L 73.791072 174.560278 
L 74.427195 185.339861 
L 75.063318 185.339861 
L 76.335563 174.560278 
L 76.971685 185.339861 
L 77.607808 179.950069 
L 78.24393 185.339861 
L 80.78842 185.339861 
L 81.424543 179.950069 
L 82.060665 185.339861 
L 82.696787 185.339861 
L 83.33291 169.170487 
L 83.969032 174.560278 
L 85.241277 174.560278 
L 85.8774 185.339861 
L 86.513522 179.950069 
L 87.785768 179.950069 
L 88.42189 185.339861 
L 89.058013 185.339861 
L 90.330258 174.560278 
L 90.96638 174.560278 
L 91.602502 185.339861 
L 94.146993 185.339861 
L 94.783115 179.950069 
L 95.419238 185.339861 
L 99.872095 185.339861 
L 100.508218 179.950069 
L 101.14434 185.339861 
L 101.780462 185.339861 
L 102.416585 179.950069 
L 103.052707 185.339861 
L 103.68883 179.950069 
L 104.324952 185.339861 
L 104.961075 185.339861 
L 105.597197 179.950069 
L 106.23332 185.339861 
L 110.686177 185.339861 
L 111.3223 179.950069 
L 111.958422 179.950069 
L 112.594545 185.339861 
L 116.41128 185.339861 
L 117.047403 179.950069 
L 117.683525 185.339861 
L 118.95577 185.339861 
L 119.591893 179.950069 
L 120.228015 179.950069 
L 120.864137 185.339861 
L 122.136382 174.560278 
L 122.772505 185.339861 
L 127.225363 185.339861 
L 127.861485 179.950069 
L 128.497608 185.339861 
L 129.769853 185.339861 
L 130.405975 179.950069 
L 131.042098 185.339861 
L 135.494955 185.339861 
L 136.131078 179.950069 
L 136.7672 185.339861 
L 137.403323 169.170487 
L 138.039445 179.950069 
L 138.675567 185.339861 
L 139.31169 179.950069 
L 139.947812 185.339861 
L 143.128425 185.339861 
L 143.764547 179.950069 
L 144.40067 185.339861 
L 145.672915 185.339861 
L 146.309037 179.950069 
L 146.94516 179.950069 
L 147.581282 185.339861 
L 148.217405 179.950069 
L 148.853527 185.339861 
L 149.48965 174.560278 
L 150.761895 185.339861 
L 152.03414 174.560278 
L 153.306385 185.339861 
L 155.850875 185.339861 
L 156.486997 174.560278 
L 157.12312 185.339861 
L 157.759242 185.339861 
L 158.395365 179.950069 
L 159.031487 185.339861 
L 159.66761 185.339861 
L 160.303732 179.950069 
L 160.939855 179.950069 
L 161.575977 185.339861 
L 163.484345 185.339861 
L 164.120467 179.950069 
L 164.75659 179.950069 
L 165.392712 185.339861 
L 166.028835 179.950069 
L 166.664957 163.780696 
L 167.30108 169.170487 
L 167.937203 179.950069 
L 168.573325 179.950069 
L 169.209448 185.339861 
L 170.481693 185.339861 
L 171.117815 179.950069 
L 171.753938 179.950069 
L 172.39006 185.339861 
L 173.026183 185.339861 
L 173.662305 169.170487 
L 174.298428 169.170487 
L 174.93455 174.560278 
L 176.842917 174.560278 
L 177.47904 179.950069 
L 178.115162 179.950069 
L 178.751285 169.170487 
L 179.387407 185.339861 
L 180.02353 174.560278 
L 180.659652 185.339861 
L 181.295775 179.950069 
L 181.931897 169.170487 
L 182.56802 163.780696 
L 183.204142 185.339861 
L 183.840265 179.950069 
L 184.476387 185.339861 
L 185.11251 174.560278 
L 186.384755 185.339861 
L 187.020877 179.950069 
L 187.657 179.950069 
L 188.293122 174.560278 
L 189.565367 185.339861 
L 190.837612 163.780696 
L 191.473735 174.560278 
L 192.109857 179.950069 
L 192.74598 174.560278 
L 193.382103 179.950069 
L 194.018225 179.950069 
L 194.654348 169.170487 
L 195.29047 179.950069 
L 195.926592 169.170487 
L 196.562715 179.950069 
L 197.83496 179.950069 
L 198.471082 185.339861 
L 199.107205 179.950069 
L 199.743327 179.950069 
L 200.37945 185.339861 
L 201.015572 179.950069 
L 201.651695 185.339861 
L 202.287817 174.560278 
L 202.92394 185.339861 
L 203.560062 185.339861 
L 204.196185 174.560278 
L 204.832307 169.170487 
L 205.46843 179.950069 
L 206.104552 185.339861 
L 206.740675 163.780696 
L 207.376797 179.950069 
L 208.01292 179.950069 
L 208.649042 169.170487 
L 209.285165 174.560278 
L 210.55741 174.560278 
L 211.193532 185.339861 
L 212.465777 174.560278 
L 213.1019 185.339861 
L 213.738022 179.950069 
L 214.374145 179.950069 
L 215.010267 185.339861 
L 218.19088 185.339861 
L 218.827002 179.950069 
L 219.463125 185.339861 
L 220.099247 185.339861 
L 220.73537 179.950069 
L 221.371492 185.339861 
L 222.007615 185.339861 
L 222.643737 179.950069 
L 223.27986 185.339861 
L 225.188227 185.339861 
L 225.82435 179.950069 
L 227.732717 179.950069 
L 228.36884 185.339861 
L 229.004962 179.950069 
L 229.641085 163.780696 
L 230.277207 179.950069 
L 230.91333 179.950069 
L 231.549452 185.339861 
L 233.45782 185.339861 
L 234.093942 179.950069 
L 234.730065 179.950069 
L 235.366187 185.339861 
L 236.00231 174.560278 
L 236.638432 185.339861 
L 237.274555 185.339861 
L 237.910677 179.950069 
L 238.5468 185.339861 
L 239.819045 185.339861 
L 240.455167 169.170487 
L 241.09129 179.950069 
L 241.727412 169.170487 
L 242.363535 153.001113 
L 242.999657 169.170487 
L 243.63578 174.560278 
L 244.271902 185.339861 
L 246.816392 185.339861 
L 248.088637 174.560278 
L 248.72476 185.339861 
L 249.360882 174.560278 
L 249.997005 185.339861 
L 250.633127 174.560278 
L 251.26925 169.170487 
L 251.905372 174.560278 
L 253.81374 174.560278 
L 254.449862 185.339861 
L 255.085985 179.950069 
L 255.722107 185.339861 
L 256.35823 174.560278 
L 256.994352 185.339861 
L 257.630475 174.560278 
L 258.266597 179.950069 
L 258.90272 179.950069 
L 259.538842 185.339861 
L 260.174965 179.950069 
L 260.811087 185.339861 
L 263.9917 185.339861 
L 264.627822 179.950069 
L 265.263945 179.950069 
L 265.900067 185.339861 
L 266.53619 179.950069 
L 267.172312 185.339861 
L 268.444557 185.339861 
L 269.716802 174.560278 
L 270.989047 185.339861 
L 271.62517 185.339861 
L 272.261292 179.950069 
L 272.897415 185.339861 
L 274.16966 185.339861 
L 274.805782 93.713411 
L 275.441905 185.339861 
L 276.078027 179.950069 
L 276.71415 185.339861 
L 281.167007 185.339861 
L 281.80313 179.950069 
L 283.075375 179.950069 
L 283.711497 185.339861 
L 284.34762 179.950069 
L 284.983742 185.339861 
L 285.619865 174.560278 
L 286.255987 185.339861 
L 286.89211 185.339861 
L 287.528232 179.950069 
L 288.164355 179.950069 
L 288.800477 185.339861 
L 294.52558 185.339861 
L 295.161702 179.950069 
L 295.797825 169.170487 
L 296.433947 179.950069 
L 297.07007 179.950069 
L 297.706192 174.560278 
L 298.342315 185.339861 
L 298.978437 179.950069 
L 299.61456 185.339861 
L 300.250682 185.339861 
L 300.886805 179.950069 
L 301.522927 185.339861 
L 311.700887 185.339861 
L 312.33701 179.950069 
L 312.973132 185.339861 
L 314.8815 185.339861 
L 315.517623 174.560278 
L 316.153745 185.339861 
L 317.42599 185.339861 
L 318.062112 179.950069 
L 318.698235 169.170487 
L 319.334357 179.950069 
L 319.97048 174.560278 
L 320.606602 185.339861 
L 323.787215 185.339861 
L 324.423337 179.950069 
L 325.05946 185.339861 
L 333.329052 185.339861 
L 333.965175 174.560278 
L 334.601297 185.339861 
L 335.23742 169.170487 
L 335.873542 185.339861 
L 339.690277 185.339861 
L 340.962522 174.560278 
L 341.598645 179.950069 
L 342.87089 179.950069 
L 343.507012 185.339861 
L 344.143135 185.339861 
L 345.41538 174.560278 
L 346.051502 185.339861 
L 346.687625 185.339861 
L 347.323747 179.950069 
L 347.95987 185.339861 
L 348.595992 174.560278 
L 349.232115 169.170487 
L 349.868237 185.339861 
L 350.50436 185.339861 
L 351.140482 174.560278 
L 351.776605 185.339861 
L 356.229462 185.339861 
L 356.865585 179.950069 
L 357.501707 185.339861 
L 358.13783 179.950069 
L 358.773952 185.339861 
L 360.046197 185.339861 
L 360.68232 179.950069 
L 361.318442 185.339861 
L 361.954565 179.950069 
L 363.22681 179.950069 
L 363.862932 185.339861 
L 364.499055 169.170487 
L 365.135177 179.950069 
L 365.7713 179.950069 
L 366.407422 185.339861 
L 371.496402 185.339861 
L 372.132525 169.170487 
L 372.768647 174.560278 
L 373.40477 185.339861 
L 374.677015 174.560278 
L 375.313137 179.950069 
L 375.94926 179.950069 
L 376.585382 185.339861 
L 377.857627 174.560278 
L 378.49375 179.950069 
L 381.03824 179.950069 
L 381.674362 169.170487 
L 382.310485 179.950069 
L 383.58273 179.950069 
L 384.218852 185.339861 
L 384.854975 185.339861 
L 386.12722 174.560278 
L 386.763342 185.339861 
L 387.399465 179.950069 
L 388.035587 169.170487 
L 388.67171 169.170487 
L 389.307832 179.950069 
L 389.943955 179.950069 
L 390.580077 185.339861 
L 393.124567 185.339861 
L 393.76069 179.950069 
L 394.396812 185.339861 
L 395.032935 179.950069 
L 396.30518 179.950069 
L 396.941302 185.339861 
L 401.39416 185.339861 
L 402.030282 179.950069 
L 402.666405 179.950069 
L 403.302527 169.170487 
L 403.93865 179.950069 
L 404.574772 185.339861 
L 406.48314 185.339861 
L 407.119262 174.560278 
L 407.755385 185.339861 
L 408.391507 185.339861 
L 409.02763 179.950069 
L 409.663752 185.339861 
L 410.299875 179.950069 
L 410.935997 185.339861 
L 411.57212 179.950069 
L 412.208242 185.339861 
L 416.6611 185.339861 
L 417.297222 179.950069 
L 417.933345 185.339861 
L 418.569467 179.950069 
L 419.20559 179.950069 
L 419.841712 185.339861 
L 420.477835 174.560278 
L 421.75008 174.560278 
L 422.386202 169.170487 
L 423.022325 185.339861 
L 423.658447 185.339861 
L 424.29457 179.950069 
L 424.930692 179.950069 
L 425.566815 169.170487 
L 426.202937 163.780696 
L 426.83906 169.170487 
L 427.475182 153.001113 
L 428.111305 185.339861 
L 428.747427 169.170487 
L 429.38355 185.339861 
L 430.655795 185.339861 
L 431.92804 163.780696 
L 432.564162 158.390905 
L 433.200285 174.560278 
L 435.108652 158.390905 
L 435.744775 158.390905 
L 436.380897 185.339861 
L 437.01702 179.950069 
L 437.653142 179.950069 
L 438.289265 169.170487 
L 438.925387 174.560278 
L 439.56151 174.560278 
L 440.197632 158.390905 
L 440.833755 158.390905 
L 441.469877 136.83174 
L 442.106 163.780696 
L 442.742122 147.611322 
L 443.378245 169.170487 
L 444.014367 179.950069 
L 444.65049 185.339861 
L 445.286612 185.339861 
L 445.922735 169.170487 
L 446.558857 185.339861 
L 447.19498 174.560278 
L 447.831102 174.560278 
L 448.467225 163.780696 
L 449.103347 169.170487 
L 449.73947 158.390905 
L 450.375592 185.339861 
L 451.011715 185.339861 
L 451.647837 169.170487 
L 452.28396 174.560278 
L 452.920082 163.780696 
L 453.556205 174.560278 
L 454.192327 179.950069 
L 454.82845 169.170487 
L 456.100695 179.950069 
L 456.736817 169.170487 
L 457.37294 179.950069 
L 458.009062 169.170487 
L 458.645185 179.950069 
L 459.281307 185.339861 
L 459.91743 185.339861 
L 460.553552 179.950069 
L 461.189675 185.339861 
L 461.825797 179.950069 
L 462.46192 185.339861 
L 463.098042 179.950069 
L 463.734165 185.339861 
L 464.370287 179.950069 
L 465.00641 185.339861 
L 465.642532 179.950069 
L 466.278655 185.339861 
L 466.914777 163.780696 
L 467.5509 179.950069 
L 468.187022 185.339861 
L 469.459267 185.339861 
L 470.09539 179.950069 
L 470.731512 185.339861 
L 471.367635 179.950069 
L 472.003757 179.950069 
L 472.63988 169.170487 
L 473.276002 174.560278 
L 473.912125 185.339861 
L 474.548247 179.950069 
L 475.18437 179.950069 
L 475.820492 185.339861 
L 477.72886 185.339861 
L 478.364982 179.950069 
L 479.001105 185.339861 
L 479.637227 179.950069 
L 480.27335 169.170487 
L 480.909472 179.950069 
L 481.545595 185.339861 
L 482.181717 179.950069 
L 482.81784 185.339861 
L 484.090085 185.339861 
L 484.726207 179.950069 
L 485.36233 185.339861 
L 485.998452 179.950069 
L 486.634575 169.170487 
L 487.270697 174.560278 
L 487.90682 169.170487 
L 488.542942 179.950069 
L 489.179065 185.339861 
L 489.815187 185.339861 
L 490.45131 179.950069 
L 491.723555 179.950069 
L 492.359677 185.339861 
L 492.9958 185.339861 
L 493.631922 179.950069 
L 494.268045 185.339861 
L 494.904167 174.560278 
L 495.54029 179.950069 
L 496.176412 179.950069 
L 496.812535 185.339861 
L 498.08478 185.339861 
L 498.720902 179.950069 
L 499.357025 185.339861 
L 500.62927 185.339861 
L 501.265392 179.950069 
L 501.901515 179.950069 
L 502.537637 185.339861 
L 503.17376 179.950069 
L 503.809882 179.950069 
L 504.446005 185.339861 
L 505.71825 174.560278 
L 506.354372 185.339861 
L 509.534985 185.339861 
L 510.171107 174.560278 
L 510.80723 185.339861 
L 511.443352 179.950069 
L 512.079475 179.950069 
L 512.715597 169.170487 
L 513.35172 179.950069 
L 513.987842 174.560278 
L 514.623965 174.560278 
L 515.89621 163.780696 
L 516.532332 179.950069 
L 517.168455 185.339861 
L 517.804577 174.560278 
L 519.076822 163.780696 
L 519.712945 169.170487 
L 520.349067 185.339861 
L 520.98519 185.339861 
L 521.621312 179.950069 
L 522.893557 179.950069 
L 523.52968 174.560278 
L 524.165802 163.780696 
L 524.801925 179.950069 
L 525.438047 174.560278 
L 526.07417 174.560278 
L 526.710292 169.170487 
L 527.346415 153.001113 
L 527.982537 174.560278 
L 528.61866 174.560278 
L 529.254782 185.339861 
L 530.527028 174.560278 
L 531.16315 153.001113 
L 531.799272 163.780696 
L 532.435395 158.390905 
L 533.071518 174.560278 
L 534.343762 153.001113 
L 534.979885 158.390905 
L 535.616008 185.339861 
L 536.25213 179.950069 
L 536.888252 185.339861 
L 538.160498 185.339861 
L 539.432742 174.560278 
L 540.068865 158.390905 
L 540.704988 163.780696 
L 541.34111 179.950069 
L 541.977232 179.950069 
L 543.249478 169.170487 
L 544.521722 179.950069 
L 545.157845 179.950069 
L 545.793968 153.001113 
L 546.43009 179.950069 
L 547.066212 163.780696 
L 547.702335 169.170487 
L 548.338458 169.170487 
L 548.97458 158.390905 
L 549.610702 174.560278 
L 550.246825 163.780696 
L 552.791315 185.339861 
L 553.427437 185.339861 
L 554.699682 174.560278 
L 555.971927 174.560278 
L 556.60805 169.170487 
L 557.244172 179.950069 
L 557.880295 185.339861 
L 558.516417 179.950069 
L 559.15254 185.339861 
L 559.788662 185.339861 
L 560.424785 179.950069 
L 561.69703 179.950069 
L 562.333152 185.339861 
L 562.969275 185.339861 
L 563.605397 169.170487 
L 564.24152 179.950069 
L 564.877642 185.339861 
L 565.513765 147.611322 
L 566.149887 174.560278 
L 566.78601 185.339861 
L 567.422132 174.560278 
L 568.058255 185.339861 
L 568.694377 185.339861 
L 569.3305 174.560278 
L 569.966622 179.950069 
L 571.238867 179.950069 
L 571.87499 185.339861 
L 572.511112 179.950069 
L 573.783357 179.950069 
L 574.41948 185.339861 
L 575.055602 179.950069 
L 575.691725 185.339861 
L 576.327847 185.339861 
L 576.96397 169.170487 
L 577.600092 179.950069 
L 578.236215 169.170487 
L 578.872337 185.339861 
L 580.780705 185.339861 
L 581.416827 179.950069 
L 582.05295 185.339861 
L 585.869685 185.339861 
L 586.505807 174.560278 
L 587.14193 185.339861 
L 587.778052 185.339861 
L 589.050297 174.560278 
L 590.958665 174.560278 
L 591.594787 185.339861 
L 592.23091 179.950069 
L 592.867032 179.950069 
L 593.503155 185.339861 
L 594.139277 179.950069 
L 594.7754 185.339861 
L 595.411522 185.339861 
L 596.047645 179.950069 
L 596.683767 185.339861 
L 597.31989 179.950069 
L 597.956012 185.339861 
L 598.592135 179.950069 
L 599.228257 185.339861 
L 599.86438 179.950069 
L 600.500502 185.339861 
L 601.136625 185.339861 
L 601.772747 179.950069 
L 602.40887 185.339861 
L 603.044992 179.950069 
L 603.681115 185.339861 
L 604.95336 185.339861 
L 605.589482 179.950069 
L 606.225605 185.339861 
L 609.406217 185.339861 
L 610.04234 179.950069 
L 610.678462 185.339861 
L 611.314585 174.560278 
L 611.950707 174.560278 
L 612.58683 185.339861 
L 614.495197 185.339861 
L 615.13132 174.560278 
L 615.767442 179.950069 
L 616.403565 169.170487 
L 617.039687 147.611322 
L 617.67581 109.882784 
L 618.311932 34.425708 
L 618.948055 109.882784 
L 619.584177 142.221531 
L 620.2203 142.221531 
L 620.856422 158.390905 
L 621.492545 126.052158 
L 622.128667 147.611322 
L 622.76479 136.83174 
L 623.400912 163.780696 
L 624.037035 115.272575 
L 624.673157 104.492993 
L 625.30928 131.441949 
L 625.945402 174.560278 
L 626.581525 169.170487 
L 627.217647 179.950069 
L 627.85377 163.780696 
L 629.762137 179.950069 
L 630.39826 158.390905 
L 631.034382 153.001113 
L 631.670505 136.83174 
L 632.306627 163.780696 
L 632.94275 158.390905 
L 633.578872 147.611322 
L 634.214995 179.950069 
L 634.851117 174.560278 
L 635.48724 174.560278 
L 636.123362 142.221531 
L 636.759485 169.170487 
L 637.395607 174.560278 
L 638.03173 158.390905 
L 638.667852 153.001113 
L 639.303975 169.170487 
L 640.57622 136.83174 
L 641.212342 163.780696 
L 641.848465 185.339861 
L 644.392955 185.339861 
L 645.6652 174.560278 
L 646.301322 158.390905 
L 646.937445 169.170487 
L 647.573567 163.780696 
L 648.20969 153.001113 
L 648.845812 163.780696 
L 649.481935 169.170487 
L 650.118057 179.950069 
L 650.75418 169.170487 
L 651.390302 185.339861 
L 652.662547 163.780696 
L 653.29867 179.950069 
L 653.934792 174.560278 
L 654.570915 158.390905 
L 655.207037 185.339861 
L 655.84316 174.560278 
L 656.479282 185.339861 
L 657.751527 185.339861 
L 658.38765 179.950069 
L 659.023772 185.339861 
L 659.659895 179.950069 
L 660.296017 185.339861 
L 660.93214 174.560278 
L 661.568262 179.950069 
L 662.204385 158.390905 
L 662.840507 169.170487 
L 663.47663 185.339861 
L 664.112752 174.560278 
L 664.748875 179.950069 
L 665.384997 179.950069 
L 666.02112 174.560278 
L 667.929487 174.560278 
L 668.56561 169.170487 
L 669.837855 179.950069 
L 670.473977 179.950069 
L 671.1101 185.339861 
L 671.746222 153.001113 
L 672.382345 174.560278 
L 673.018467 185.339861 
L 674.290712 185.339861 
L 674.926835 158.390905 
L 675.562957 179.950069 
L 676.19908 179.950069 
L 676.835202 163.780696 
L 677.471325 142.221531 
L 678.107447 136.83174 
L 678.74357 169.170487 
L 679.379692 179.950069 
L 680.015815 174.560278 
L 680.651937 174.560278 
L 681.28806 185.339861 
L 681.924182 169.170487 
L 682.560305 185.339861 
L 683.196427 163.780696 
L 683.83255 174.560278 
L 684.468672 179.950069 
L 685.740917 179.950069 
L 686.37704 169.170487 
L 687.013162 174.560278 
L 687.649285 185.339861 
L 690.193775 185.339861 
L 690.829897 169.170487 
L 692.738265 169.170487 
L 693.374387 163.780696 
L 694.01051 179.950069 
L 695.282755 158.390905 
L 695.918877 174.560278 
L 696.555 174.560278 
L 696.555 174.560278 
" clip-path="url(#p334a87dac9)" style="fill: none; stroke: #1f77b4; stroke-width: 1.5; stroke-linecap: square"/>
   </g>
   <g id="patch_3">
    <path d="M 60.4325 192.885568 
L 60.4325 26.88 
" style="fill: none; stroke: #000000; stroke-width: 0.8; stroke-linejoin: miter; stroke-linecap: square"/>
   </g>
   <g id="patch_4">
    <path d="M 696.555 192.885568 
L 696.555 26.88 
" style="fill: none; stroke: #000000; stroke-width: 0.8; stroke-linejoin: miter; stroke-linecap: square"/>
   </g>
   <g id="patch_5">
    <path d="M 60.4325 192.885568 
L 696.555 192.885568 
" style="fill: none; stroke: #000000; stroke-width: 0.8; stroke-linejoin: miter; stroke-linecap: square"/>
   </g>
   <g id="patch_6">
    <path d="M 60.4325 26.88 
L 696.555 26.88 
" style="fill: none; stroke: #000000; stroke-width: 0.8; stroke-linejoin: miter; stroke-linecap: square"/>
   </g>
   <g id="text_9">
    <!-- Semnal inițial -->
    <g transform="translate(337.59625 20.88) scale(0.12 -0.12)">
     <defs>
      <path id="DejaVuSans-53" d="M 3425 4513 
L 3425 3897 
Q 3066 4069 2747 4153 
Q 2428 4238 2131 4238 
Q 1616 4238 1336 4038 
Q 1056 3838 1056 3469 
Q 1056 3159 1242 3001 
Q 1428 2844 1947 2747 
L 2328 2669 
Q 3034 2534 3370 2195 
Q 3706 1856 3706 1288 
Q 3706 609 3251 259 
Q 2797 -91 1919 -91 
Q 1588 -91 1214 -16 
Q 841 59 441 206 
L 441 856 
Q 825 641 1194 531 
Q 1563 422 1919 422 
Q 2459 422 2753 634 
Q 3047 847 3047 1241 
Q 3047 1584 2836 1778 
Q 2625 1972 2144 2069 
L 1759 2144 
Q 1053 2284 737 2584 
Q 422 2884 422 3419 
Q 422 4038 858 4394 
Q 1294 4750 2059 4750 
Q 2388 4750 2728 4690 
Q 3069 4631 3425 4513 
z
" transform="scale(0.015625)"/>
      <path id="DejaVuSans-65" d="M 3597 1894 
L 3597 1613 
L 953 1613 
Q 991 1019 1311 708 
Q 1631 397 2203 397 
Q 2534 397 2845 478 
Q 3156 559 3463 722 
L 3463 178 
Q 3153 47 2828 -22 
Q 2503 -91 2169 -91 
Q 1331 -91 842 396 
Q 353 884 353 1716 
Q 353 2575 817 3079 
Q 1281 3584 2069 3584 
Q 2775 3584 3186 3129 
Q 3597 2675 3597 1894 
z
M 3022 2063 
Q 3016 2534 2758 2815 
Q 2500 3097 2075 3097 
Q 1594 3097 1305 2825 
Q 1016 2553 972 2059 
L 3022 2063 
z
" transform="scale(0.015625)"/>
      <path id="DejaVuSans-6c" d="M 603 4863 
L 1178 4863 
L 1178 0 
L 603 0 
L 603 4863 
z
" transform="scale(0.015625)"/>
      <path id="DejaVuSans-21b" d="M 1388 -538 
L 2047 -538 
L 1534 -1538 
L 1131 -1538 
L 1388 -538 
z
M 1172 4494 
L 1172 3500 
L 2356 3500 
L 2356 3053 
L 1172 3053 
L 1172 1153 
Q 1172 725 1289 603 
Q 1406 481 1766 481 
L 2356 481 
L 2356 0 
L 1766 0 
Q 1100 0 847 248 
Q 594 497 594 1153 
L 594 3053 
L 172 3053 
L 172 3500 
L 594 3500 
L 594 4494 
L 1172 4494 
z
" transform="scale(0.015625)"/>
     </defs>
     <use xlink:href="#DejaVuSans-53"/>
     <use xlink:href="#DejaVuSans-65" transform="translate(63.476562 0)"/>
     <use xlink:href="#DejaVuSans-6d" transform="translate(125 0)"/>
     <use xlink:href="#DejaVuSans-6e" transform="translate(222.412109 0)"/>
     <use xlink:href="#DejaVuSans-61" transform="translate(285.791016 0)"/>
     <use xlink:href="#DejaVuSans-6c" transform="translate(347.070312 0)"/>
     <use xlink:href="#DejaVuSans-20" transform="translate(374.853516 0)"/>
     <use xlink:href="#DejaVuSans-69" transform="translate(406.640625 0)"/>
     <use xlink:href="#DejaVuSans-6e" transform="translate(434.423828 0)"/>
     <use xlink:href="#DejaVuSans-69" transform="translate(497.802734 0)"/>
     <use xlink:href="#DejaVuSans-21b" transform="translate(525.585938 0)"/>
     <use xlink:href="#DejaVuSans-69" transform="translate(564.794922 0)"/>
     <use xlink:href="#DejaVuSans-61" transform="translate(592.578125 0)"/>
     <use xlink:href="#DejaVuSans-6c" transform="translate(653.857422 0)"/>
    </g>
   </g>
   <g id="legend_1">
    <g id="patch_7">
     <path d="M 67.4325 49.558125 
L 177.474688 49.558125 
Q 179.474688 49.558125 179.474688 47.558125 
L 179.474688 33.88 
Q 179.474688 31.88 177.474688 31.88 
L 67.4325 31.88 
Q 65.4325 31.88 65.4325 33.88 
L 65.4325 47.558125 
Q 65.4325 49.558125 67.4325 49.558125 
z
" style="fill: #ffffff; opacity: 0.8; stroke: #cccccc; stroke-linejoin: miter"/>
    </g>
    <g id="line2d_15">
     <path d="M 69.4325 39.978438 
L 79.4325 39.978438 
L 89.4325 39.978438 
" style="fill: none; stroke: #1f77b4; stroke-width: 1.5; stroke-linecap: square"/>
    </g>
    <g id="text_10">
     <!-- Semnal original -->
     <g transform="translate(97.4325 43.478438) scale(0.1 -0.1)">
      <defs>
       <path id="DejaVuSans-6f" d="M 1959 3097 
Q 1497 3097 1228 2736 
Q 959 2375 959 1747 
Q 959 1119 1226 758 
Q 1494 397 1959 397 
Q 2419 397 2687 759 
Q 2956 1122 2956 1747 
Q 2956 2369 2687 2733 
Q 2419 3097 1959 3097 
z
M 1959 3584 
Q 2709 3584 3137 3096 
Q 3566 2609 3566 1747 
Q 3566 888 3137 398 
Q 2709 -91 1959 -91 
Q 1206 -91 779 398 
Q 353 888 353 1747 
Q 353 2609 779 3096 
Q 1206 3584 1959 3584 
z
" transform="scale(0.015625)"/>
       <path id="DejaVuSans-67" d="M 2906 1791 
Q 2906 2416 2648 2759 
Q 2391 3103 1925 3103 
Q 1463 3103 1205 2759 
Q 947 2416 947 1791 
Q 947 1169 1205 825 
Q 1463 481 1925 481 
Q 2391 481 2648 825 
Q 2906 1169 2906 1791 
z
M 3481 434 
Q 3481 -459 3084 -895 
Q 2688 -1331 1869 -1331 
Q 1566 -1331 1297 -1286 
Q 1028 -1241 775 -1147 
L 775 -588 
Q 1028 -725 1275 -790 
Q 1522 -856 1778 -856 
Q 2344 -856 2625 -561 
Q 2906 -266 2906 331 
L 2906 616 
Q 2728 306 2450 153 
Q 2172 0 1784 0 
Q 1141 0 747 490 
Q 353 981 353 1791 
Q 353 2603 747 3093 
Q 1141 3584 1784 3584 
Q 2172 3584 2450 3431 
Q 2728 3278 2906 2969 
L 2906 3500 
L 3481 3500 
L 3481 434 
z
" transform="scale(0.015625)"/>
      </defs>
      <use xlink:href="#DejaVuSans-53"/>
      <use xlink:href="#DejaVuSans-65" transform="translate(63.476562 0)"/>
      <use xlink:href="#DejaVuSans-6d" transform="translate(125 0)"/>
      <use xlink:href="#DejaVuSans-6e" transform="translate(222.412109 0)"/>
      <use xlink:href="#DejaVuSans-61" transform="translate(285.791016 0)"/>
      <use xlink:href="#DejaVuSans-6c" transform="translate(347.070312 0)"/>
      <use xlink:href="#DejaVuSans-20" transform="translate(374.853516 0)"/>
      <use xlink:href="#DejaVuSans-6f" transform="translate(406.640625 0)"/>
      <use xlink:href="#DejaVuSans-72" transform="translate(467.822266 0)"/>
      <use xlink:href="#DejaVuSans-69" transform="translate(508.935547 0)"/>
      <use xlink:href="#DejaVuSans-67" transform="translate(536.71875 0)"/>
      <use xlink:href="#DejaVuSans-69" transform="translate(600.195312 0)"/>
      <use xlink:href="#DejaVuSans-6e" transform="translate(627.978516 0)"/>
      <use xlink:href="#DejaVuSans-61" transform="translate(691.357422 0)"/>
      <use xlink:href="#DejaVuSans-6c" transform="translate(752.636719 0)"/>
     </g>
    </g>
   </g>
  </g>
  <g id="axes_2">
   <g id="patch_8">
    <path d="M 60.4325 389.9275 
L 696.555 389.9275 
L 696.555 223.921932 
L 60.4325 223.921932 
z
" style="fill: #ffffff"/>
   </g>
   <g id="matplotlib.axis_3">
    <g id="xtick_7">
     <g id="line2d_16">
      <g>
       <use xlink:href="#m4ce48913d4" x="60.4325" y="389.9275" style="stroke: #000000; stroke-width: 0.8"/>
      </g>
     </g>
     <g id="text_11">
      <!-- 0 -->
      <g transform="translate(57.25125 404.525938) scale(0.1 -0.1)">
       <use xlink:href="#DejaVuSans-30"/>
      </g>
     </g>
    </g>
    <g id="xtick_8">
     <g id="line2d_17">
      <g>
       <use xlink:href="#m4ce48913d4" x="187.657" y="389.9275" style="stroke: #000000; stroke-width: 0.8"/>
      </g>
     </g>
     <g id="text_12">
      <!-- 200 -->
      <g transform="translate(178.11325 404.525938) scale(0.1 -0.1)">
       <use xlink:href="#DejaVuSans-32"/>
       <use xlink:href="#DejaVuSans-30" transform="translate(63.623047 0)"/>
       <use xlink:href="#DejaVuSans-30" transform="translate(127.246094 0)"/>
      </g>
     </g>
    </g>
    <g id="xtick_9">
     <g id="line2d_18">
      <g>
       <use xlink:href="#m4ce48913d4" x="314.8815" y="389.9275" style="stroke: #000000; stroke-width: 0.8"/>
      </g>
     </g>
     <g id="text_13">
      <!-- 400 -->
      <g transform="translate(305.33775 404.525938) scale(0.1 -0.1)">
       <use xlink:href="#DejaVuSans-34"/>
       <use xlink:href="#DejaVuSans-30" transform="translate(63.623047 0)"/>
       <use xlink:href="#DejaVuSans-30" transform="translate(127.246094 0)"/>
      </g>
     </g>
    </g>
    <g id="xtick_10">
     <g id="line2d_19">
      <g>
       <use xlink:href="#m4ce48913d4" x="442.106" y="389.9275" style="stroke: #000000; stroke-width: 0.8"/>
      </g>
     </g>
     <g id="text_14">
      <!-- 600 -->
      <g transform="translate(432.56225 404.525938) scale(0.1 -0.1)">
       <use xlink:href="#DejaVuSans-36"/>
       <use xlink:href="#DejaVuSans-30" transform="translate(63.623047 0)"/>
       <use xlink:href="#DejaVuSans-30" transform="translate(127.246094 0)"/>
      </g>
     </g>
    </g>
    <g id="xtick_11">
     <g id="line2d_20">
      <g>
       <use xlink:href="#m4ce48913d4" x="569.3305" y="389.9275" style="stroke: #000000; stroke-width: 0.8"/>
      </g>
     </g>
     <g id="text_15">
      <!-- 800 -->
      <g transform="translate(559.78675 404.525938) scale(0.1 -0.1)">
       <defs>
        <path id="DejaVuSans-38" d="M 2034 2216 
Q 1584 2216 1326 1975 
Q 1069 1734 1069 1313 
Q 1069 891 1326 650 
Q 1584 409 2034 409 
Q 2484 409 2743 651 
Q 3003 894 3003 1313 
Q 3003 1734 2745 1975 
Q 2488 2216 2034 2216 
z
M 1403 2484 
Q 997 2584 770 2862 
Q 544 3141 544 3541 
Q 544 4100 942 4425 
Q 1341 4750 2034 4750 
Q 2731 4750 3128 4425 
Q 3525 4100 3525 3541 
Q 3525 3141 3298 2862 
Q 3072 2584 2669 2484 
Q 3125 2378 3379 2068 
Q 3634 1759 3634 1313 
Q 3634 634 3220 271 
Q 2806 -91 2034 -91 
Q 1263 -91 848 271 
Q 434 634 434 1313 
Q 434 1759 690 2068 
Q 947 2378 1403 2484 
z
M 1172 3481 
Q 1172 3119 1398 2916 
Q 1625 2713 2034 2713 
Q 2441 2713 2670 2916 
Q 2900 3119 2900 3481 
Q 2900 3844 2670 4047 
Q 2441 4250 2034 4250 
Q 1625 4250 1398 4047 
Q 1172 3844 1172 3481 
z
" transform="scale(0.015625)"/>
       </defs>
       <use xlink:href="#DejaVuSans-38"/>
       <use xlink:href="#DejaVuSans-30" transform="translate(63.623047 0)"/>
       <use xlink:href="#DejaVuSans-30" transform="translate(127.246094 0)"/>
      </g>
     </g>
    </g>
    <g id="xtick_12">
     <g id="line2d_21">
      <g>
       <use xlink:href="#m4ce48913d4" x="696.555" y="389.9275" style="stroke: #000000; stroke-width: 0.8"/>
      </g>
     </g>
     <g id="text_16">
      <!-- 1000 -->
      <g transform="translate(683.83 404.525938) scale(0.1 -0.1)">
       <use xlink:href="#DejaVuSans-31"/>
       <use xlink:href="#DejaVuSans-30" transform="translate(63.623047 0)"/>
       <use xlink:href="#DejaVuSans-30" transform="translate(127.246094 0)"/>
       <use xlink:href="#DejaVuSans-30" transform="translate(190.869141 0)"/>
      </g>
     </g>
    </g>
    <g id="text_17">
     <!-- Eșantion -->
     <g transform="translate(356.919531 418.204063) scale(0.1 -0.1)">
      <defs>
       <path id="DejaVuSans-45" d="M 628 4666 
L 3578 4666 
L 3578 4134 
L 1259 4134 
L 1259 2753 
L 3481 2753 
L 3481 2222 
L 1259 2222 
L 1259 531 
L 3634 531 
L 3634 0 
L 628 0 
L 628 4666 
z
" transform="scale(0.015625)"/>
       <path id="DejaVuSans-74" d="M 1172 4494 
L 1172 3500 
L 2356 3500 
L 2356 3053 
L 1172 3053 
L 1172 1153 
Q 1172 725 1289 603 
Q 1406 481 1766 481 
L 2356 481 
L 2356 0 
L 1766 0 
Q 1100 0 847 248 
Q 594 497 594 1153 
L 594 3053 
L 172 3053 
L 172 3500 
L 594 3500 
L 594 4494 
L 1172 4494 
z
" transform="scale(0.015625)"/>
      </defs>
      <use xlink:href="#DejaVuSans-45"/>
      <use xlink:href="#DejaVuSans-219" transform="translate(63.183594 0)"/>
      <use xlink:href="#DejaVuSans-61" transform="translate(115.283203 0)"/>
      <use xlink:href="#DejaVuSans-6e" transform="translate(176.5625 0)"/>
      <use xlink:href="#DejaVuSans-74" transform="translate(239.941406 0)"/>
      <use xlink:href="#DejaVuSans-69" transform="translate(279.150391 0)"/>
      <use xlink:href="#DejaVuSans-6f" transform="translate(306.933594 0)"/>
      <use xlink:href="#DejaVuSans-6e" transform="translate(368.115234 0)"/>
     </g>
    </g>
   </g>
   <g id="matplotlib.axis_4">
    <g id="ytick_8">
     <g id="line2d_22">
      <g>
       <use xlink:href="#m4a8a94d29f" x="60.4325" y="383.9372" style="stroke: #000000; stroke-width: 0.8"/>
      </g>
     </g>
     <g id="text_18">
      <!-- 0.000 -->
      <g transform="translate(24.804375 387.736419) scale(0.1 -0.1)">
       <defs>
        <path id="DejaVuSans-2e" d="M 684 794 
L 1344 794 
L 1344 0 
L 684 0 
L 684 794 
z
" transform="scale(0.015625)"/>
       </defs>
       <use xlink:href="#DejaVuSans-30"/>
       <use xlink:href="#DejaVuSans-2e" transform="translate(63.623047 0)"/>
       <use xlink:href="#DejaVuSans-30" transform="translate(95.410156 0)"/>
       <use xlink:href="#DejaVuSans-30" transform="translate(159.033203 0)"/>
       <use xlink:href="#DejaVuSans-30" transform="translate(222.65625 0)"/>
      </g>
     </g>
    </g>
    <g id="ytick_9">
     <g id="line2d_23">
      <g>
       <use xlink:href="#m4a8a94d29f" x="60.4325" y="354.935558" style="stroke: #000000; stroke-width: 0.8"/>
      </g>
     </g>
     <g id="text_19">
      <!-- 0.005 -->
      <g transform="translate(24.804375 358.734777) scale(0.1 -0.1)">
       <use xlink:href="#DejaVuSans-30"/>
       <use xlink:href="#DejaVuSans-2e" transform="translate(63.623047 0)"/>
       <use xlink:href="#DejaVuSans-30" transform="translate(95.410156 0)"/>
       <use xlink:href="#DejaVuSans-30" transform="translate(159.033203 0)"/>
       <use xlink:href="#DejaVuSans-35" transform="translate(222.65625 0)"/>
      </g>
     </g>
    </g>
    <g id="ytick_10">
     <g id="line2d_24">
      <g>
       <use xlink:href="#m4a8a94d29f" x="60.4325" y="325.933916" style="stroke: #000000; stroke-width: 0.8"/>
      </g>
     </g>
     <g id="text_20">
      <!-- 0.010 -->
      <g transform="translate(24.804375 329.733135) scale(0.1 -0.1)">
       <use xlink:href="#DejaVuSans-30"/>
       <use xlink:href="#DejaVuSans-2e" transform="translate(63.623047 0)"/>
       <use xlink:href="#DejaVuSans-30" transform="translate(95.410156 0)"/>
       <use xlink:href="#DejaVuSans-31" transform="translate(159.033203 0)"/>
       <use xlink:href="#DejaVuSans-30" transform="translate(222.65625 0)"/>
      </g>
     </g>
    </g>
    <g id="ytick_11">
     <g id="line2d_25">
      <g>
       <use xlink:href="#m4a8a94d29f" x="60.4325" y="296.932274" style="stroke: #000000; stroke-width: 0.8"/>
      </g>
     </g>
     <g id="text_21">
      <!-- 0.015 -->
      <g transform="translate(24.804375 300.731492) scale(0.1 -0.1)">
       <use xlink:href="#DejaVuSans-30"/>
       <use xlink:href="#DejaVuSans-2e" transform="translate(63.623047 0)"/>
       <use xlink:href="#DejaVuSans-30" transform="translate(95.410156 0)"/>
       <use xlink:href="#DejaVuSans-31" transform="translate(159.033203 0)"/>
       <use xlink:href="#DejaVuSans-35" transform="translate(222.65625 0)"/>
      </g>
     </g>
    </g>
    <g id="ytick_12">
     <g id="line2d_26">
      <g>
       <use xlink:href="#m4a8a94d29f" x="60.4325" y="267.930632" style="stroke: #000000; stroke-width: 0.8"/>
      </g>
     </g>
     <g id="text_22">
      <!-- 0.020 -->
      <g transform="translate(24.804375 271.72985) scale(0.1 -0.1)">
       <use xlink:href="#DejaVuSans-30"/>
       <use xlink:href="#DejaVuSans-2e" transform="translate(63.623047 0)"/>
       <use xlink:href="#DejaVuSans-30" transform="translate(95.410156 0)"/>
       <use xlink:href="#DejaVuSans-32" transform="translate(159.033203 0)"/>
       <use xlink:href="#DejaVuSans-30" transform="translate(222.65625 0)"/>
      </g>
     </g>
    </g>
    <g id="ytick_13">
     <g id="line2d_27">
      <g>
       <use xlink:href="#m4a8a94d29f" x="60.4325" y="238.928989" style="stroke: #000000; stroke-width: 0.8"/>
      </g>
     </g>
     <g id="text_23">
      <!-- 0.025 -->
      <g transform="translate(24.804375 242.728208) scale(0.1 -0.1)">
       <use xlink:href="#DejaVuSans-30"/>
       <use xlink:href="#DejaVuSans-2e" transform="translate(63.623047 0)"/>
       <use xlink:href="#DejaVuSans-30" transform="translate(95.410156 0)"/>
       <use xlink:href="#DejaVuSans-32" transform="translate(159.033203 0)"/>
       <use xlink:href="#DejaVuSans-35" transform="translate(222.65625 0)"/>
      </g>
     </g>
    </g>
    <g id="text_24">
     <!-- Număr mașini -->
     <g transform="translate(18.40125 341.898935) rotate(-90) scale(0.1 -0.1)">
      <use xlink:href="#DejaVuSans-4e"/>
      <use xlink:href="#DejaVuSans-75" transform="translate(74.804688 0)"/>
      <use xlink:href="#DejaVuSans-6d" transform="translate(138.183594 0)"/>
      <use xlink:href="#DejaVuSans-103" transform="translate(235.595703 0)"/>
      <use xlink:href="#DejaVuSans-72" transform="translate(296.875 0)"/>
      <use xlink:href="#DejaVuSans-20" transform="translate(337.988281 0)"/>
      <use xlink:href="#DejaVuSans-6d" transform="translate(369.775391 0)"/>
      <use xlink:href="#DejaVuSans-61" transform="translate(467.1875 0)"/>
      <use xlink:href="#DejaVuSans-219" transform="translate(528.466797 0)"/>
      <use xlink:href="#DejaVuSans-69" transform="translate(580.566406 0)"/>
      <use xlink:href="#DejaVuSans-6e" transform="translate(608.349609 0)"/>
      <use xlink:href="#DejaVuSans-69" transform="translate(671.728516 0)"/>
     </g>
    </g>
   </g>
   <g id="line2d_28">
    <path d="M 60.4325 353.105978 
L 61.068623 363.772514 
L 61.704745 372.088941 
L 62.340868 376.782205 
L 62.97699 377.411873 
L 63.613113 374.43337 
L 65.52148 357.708905 
L 66.157603 354.748938 
L 66.793725 354.711338 
L 67.429848 357.49499 
L 69.338215 372.697298 
L 69.974338 375.720113 
L 70.61046 376.231711 
L 71.246583 374.224036 
L 71.882705 370.321898 
L 73.15495 361.300814 
L 73.791072 358.506661 
L 74.427195 357.884334 
L 75.063318 359.529162 
L 75.69944 362.96428 
L 76.971685 371.385629 
L 77.607808 374.269657 
L 78.24393 375.26074 
L 78.880053 374.165644 
L 79.516175 371.290235 
L 81.424543 359.690694 
L 82.060665 357.454609 
L 82.696787 356.695698 
L 83.33291 357.237452 
L 85.241277 361.277015 
L 85.8774 361.656767 
L 86.513522 361.218055 
L 87.785768 359.123885 
L 88.42189 358.481237 
L 89.058013 358.722995 
L 89.694135 360.044101 
L 90.330258 362.335194 
L 92.238625 370.443492 
L 92.874747 371.803138 
L 93.51087 372.02099 
L 94.146993 371.248122 
L 95.419238 368.544492 
L 96.05536 367.71748 
L 96.691483 367.782428 
L 97.327605 368.81019 
L 99.235973 374.065443 
L 99.872095 374.668114 
L 100.508218 373.998031 
L 101.14434 372.073961 
L 103.052707 363.732344 
L 103.68883 362.432681 
L 104.324952 362.739377 
L 104.961075 364.663296 
L 106.23332 371.439003 
L 106.869442 374.69716 
L 107.505565 376.780458 
L 108.141687 377.16939 
L 108.77781 375.762514 
L 109.413933 372.910763 
L 110.686177 365.951009 
L 111.3223 363.631161 
L 111.958422 362.98714 
L 112.594545 364.20603 
L 113.230667 366.99707 
L 114.502913 374.252281 
L 115.139035 376.834254 
L 115.775158 377.695939 
L 116.41128 376.542254 
L 117.047403 373.568727 
L 118.95577 361.343078 
L 119.591893 359.218662 
L 120.228015 359.069538 
L 120.864137 360.854137 
L 121.50026 364.078403 
L 122.772505 371.481395 
L 123.408627 373.93474 
L 124.04475 374.803916 
L 124.680872 374.03052 
L 125.316995 371.980587 
L 126.58924 366.89832 
L 127.225363 365.390855 
L 127.861485 365.255647 
L 128.497608 366.552168 
L 129.13373 368.948601 
L 130.405975 374.402022 
L 131.042098 376.021097 
L 131.67822 376.237024 
L 132.314343 374.964797 
L 132.950465 372.483066 
L 134.22271 366.258463 
L 134.858833 363.842026 
L 135.494955 362.531887 
L 136.131078 362.454246 
L 136.7672 363.422208 
L 138.675567 367.998677 
L 139.31169 368.640032 
L 139.947812 368.590307 
L 141.220057 367.463624 
L 141.85618 367.1818 
L 142.492302 367.519029 
L 143.128425 368.541733 
L 144.40067 371.59847 
L 145.036792 372.650977 
L 145.672915 372.699765 
L 146.309037 371.443742 
L 146.94516 368.896863 
L 148.853527 358.394242 
L 149.48965 356.362781 
L 150.125772 356.054079 
L 150.761895 357.581105 
L 151.398017 360.633318 
L 152.670262 368.415886 
L 153.306385 371.394811 
L 153.942507 372.826241 
L 154.57863 372.450606 
L 155.214752 370.466609 
L 157.12312 362.043591 
L 157.759242 361.198235 
L 158.395365 362.157431 
L 159.031487 364.756606 
L 160.303732 372.081621 
L 160.939855 374.858374 
L 161.575977 375.857365 
L 162.2121 374.616676 
L 162.848222 371.187425 
L 165.392712 351.48131 
L 166.028835 350.009469 
L 166.664957 350.995293 
L 167.30108 354.112673 
L 169.209448 367.20826 
L 169.84557 369.410487 
L 170.481693 369.438066 
L 171.117815 367.316995 
L 171.753938 363.539166 
L 173.026183 354.414805 
L 173.662305 350.848628 
L 174.298428 348.778031 
L 174.93455 348.363892 
L 175.570673 349.374175 
L 177.47904 355.140856 
L 178.115162 356.057287 
L 178.751285 356.033133 
L 179.387407 355.247694 
L 180.659652 353.127765 
L 181.295775 352.756545 
L 181.931897 353.271101 
L 182.56802 354.691608 
L 184.476387 361.204743 
L 185.11251 362.600083 
L 185.748632 363.031025 
L 186.384755 362.448837 
L 187.020877 361.026544 
L 188.929245 355.247891 
L 189.565367 353.892026 
L 190.20149 353.035204 
L 190.837612 352.571486 
L 192.109857 352.034138 
L 194.018225 350.747339 
L 194.654348 350.676817 
L 195.29047 351.236911 
L 195.926592 352.634866 
L 196.562715 354.912209 
L 197.83496 361.233793 
L 198.471082 364.415361 
L 199.107205 366.926587 
L 199.743327 368.34643 
L 200.37945 368.451902 
L 201.015572 367.27149 
L 201.651695 365.076624 
L 203.560062 357.050407 
L 204.196185 355.282076 
L 204.832307 354.247094 
L 205.46843 353.798095 
L 206.740675 353.460716 
L 207.376797 353.003199 
L 208.01292 352.202474 
L 209.285165 350.332754 
L 209.921287 350.023281 
L 210.55741 350.677184 
L 211.193532 352.54313 
L 211.829655 355.619553 
L 214.374145 371.381747 
L 215.010267 373.230658 
L 215.64639 373.521266 
L 216.282512 372.413642 
L 218.19088 366.160648 
L 218.827002 365.227835 
L 219.463125 365.531569 
L 220.099247 366.997208 
L 222.007615 373.418628 
L 222.643737 374.135416 
L 223.27986 373.437921 
L 223.915982 371.36137 
L 226.460472 359.191103 
L 227.096595 358.060117 
L 227.732717 358.194698 
L 228.36884 359.324616 
L 229.641085 362.539357 
L 230.277207 363.597074 
L 230.91333 363.897311 
L 231.549452 363.501812 
L 232.821697 362.138931 
L 233.45782 362.184911 
L 234.093942 363.222336 
L 234.730065 365.279599 
L 236.00231 370.787695 
L 236.638432 372.749408 
L 237.274555 373.102585 
L 237.910677 371.296461 
L 238.5468 367.209869 
L 239.819045 354.244774 
L 240.455167 347.428061 
L 241.09129 342.052862 
L 241.727412 339.18389 
L 242.363535 339.436998 
L 242.999657 342.824575 
L 243.63578 348.732111 
L 244.908025 363.330085 
L 245.544147 369.233361 
L 246.18027 372.670396 
L 246.816392 373.098496 
L 247.452515 370.606997 
L 248.088637 365.875534 
L 249.360882 354.246215 
L 249.997005 349.741823 
L 250.633127 347.259723 
L 251.26925 347.061376 
L 251.905372 348.881899 
L 253.81374 358.778699 
L 254.449862 360.852233 
L 255.085985 361.601504 
L 255.722107 361.199034 
L 256.994352 359.178863 
L 257.630475 358.917599 
L 258.266597 359.817553 
L 258.90272 361.969534 
L 260.811087 371.678105 
L 261.44721 373.72464 
L 262.083332 374.255852 
L 262.719455 373.184555 
L 263.355577 370.819394 
L 264.627822 364.903306 
L 265.263945 362.911942 
L 265.900067 362.344044 
L 266.53619 363.346666 
L 267.172312 365.637856 
L 268.444557 371.234463 
L 269.08068 372.753805 
L 269.716802 372.410677 
L 270.352925 369.864863 
L 270.989047 365.236883 
L 273.533537 341.334262 
L 274.16966 338.834781 
L 274.805782 338.981695 
L 275.441905 341.709001 
L 276.078027 346.538581 
L 278.622517 370.167675 
L 279.25864 373.369991 
L 279.894762 374.77619 
L 280.530885 374.523936 
L 281.167007 372.960573 
L 282.439252 367.789149 
L 283.711497 362.900896 
L 284.34762 361.377017 
L 284.983742 360.687611 
L 285.619865 360.8759 
L 286.255987 361.901947 
L 286.89211 363.650687 
L 288.164355 368.505065 
L 289.4366 373.244132 
L 290.072722 374.761083 
L 290.708845 375.34762 
L 291.344967 374.86306 
L 291.98109 373.319062 
L 292.617212 370.892378 
L 294.52558 361.947907 
L 295.161702 359.80015 
L 295.797825 358.589459 
L 296.433947 358.40161 
L 297.07007 359.1478 
L 297.706192 360.597757 
L 299.61456 366.127388 
L 300.250682 367.583592 
L 300.886805 368.721122 
L 302.15905 370.415593 
L 305.339662 374.261253 
L 305.975785 374.353846 
L 306.611907 373.946028 
L 307.24803 373.076129 
L 309.156397 369.75973 
L 309.79252 369.317311 
L 310.428642 369.498263 
L 311.064765 370.248262 
L 312.33701 372.385475 
L 312.973132 372.986594 
L 313.609255 372.77791 
L 314.245377 371.560201 
L 314.8815 369.361847 
L 316.789867 360.466134 
L 317.42599 358.485257 
L 318.062112 357.736009 
L 318.698235 358.350069 
L 319.334357 360.178405 
L 321.242725 368.363934 
L 321.878847 370.236423 
L 322.51497 371.13126 
L 323.151092 371.089244 
L 323.787215 370.398752 
L 324.423337 369.508442 
L 325.05946 368.897932 
L 325.695583 368.940557 
L 326.331705 369.794762 
L 326.967827 371.353579 
L 328.240072 375.029413 
L 328.876195 376.118598 
L 329.512317 376.135495 
L 330.14844 374.921896 
L 330.784562 372.615207 
L 332.69293 364.014935 
L 333.329052 362.530802 
L 333.965175 362.360242 
L 334.601297 363.449008 
L 336.509665 369.754928 
L 337.145787 370.886801 
L 337.78191 370.830766 
L 338.418032 369.5773 
L 339.690277 364.901832 
L 340.3264 362.618269 
L 340.962522 361.11089 
L 341.598645 360.697586 
L 342.234767 361.394837 
L 342.87089 362.91491 
L 344.143135 366.284865 
L 344.779257 367.01461 
L 345.41538 366.635001 
L 346.051502 365.15588 
L 347.95987 358.390382 
L 348.595992 357.364052 
L 349.232115 357.700576 
L 349.868237 359.432481 
L 350.50436 362.262476 
L 351.776605 368.889263 
L 352.412727 371.401736 
L 353.04885 372.765336 
L 353.684972 372.873007 
L 354.321095 371.935316 
L 355.59334 368.866348 
L 356.229462 367.818898 
L 356.865585 367.580338 
L 357.501707 368.170058 
L 358.773952 370.488713 
L 359.410075 371.13784 
L 360.046197 370.774631 
L 360.68232 369.170609 
L 361.318442 366.438795 
L 362.590687 359.657674 
L 363.22681 357.093972 
L 363.862932 356.009512 
L 364.499055 356.776454 
L 365.135177 359.360699 
L 366.407422 367.8339 
L 367.043545 371.998363 
L 367.679667 374.921436 
L 368.31579 375.988336 
L 368.951912 374.991862 
L 369.588035 372.176783 
L 371.496402 360.076593 
L 372.132525 357.550011 
L 372.768647 356.609183 
L 373.40477 357.180545 
L 374.040892 358.816908 
L 375.313137 362.493998 
L 375.94926 363.221342 
L 376.585382 362.738144 
L 377.221505 361.14033 
L 378.49375 356.546957 
L 379.129872 354.87104 
L 379.765995 354.346766 
L 380.402117 355.179539 
L 381.03824 357.204071 
L 382.310485 362.629348 
L 382.946607 364.603763 
L 383.58273 365.296153 
L 384.218852 364.481591 
L 384.854975 362.325664 
L 386.12722 356.300939 
L 386.763342 353.967875 
L 387.399465 352.977842 
L 388.035587 353.640496 
L 388.67171 355.871167 
L 391.2162 368.756594 
L 391.852322 369.789019 
L 392.488445 369.477172 
L 393.124567 368.18605 
L 394.396812 365.15284 
L 395.032935 364.632954 
L 395.669057 365.236946 
L 396.30518 366.89007 
L 397.577425 371.505378 
L 398.213547 373.173962 
L 398.84967 373.662873 
L 399.485792 372.731301 
L 400.121915 370.50048 
L 402.030282 361.534169 
L 402.666405 360.021981 
L 403.302527 359.951908 
L 403.93865 361.247386 
L 405.847017 368.192148 
L 406.48314 369.407304 
L 407.119262 369.419705 
L 407.755385 368.328726 
L 409.02763 364.770328 
L 409.663752 363.613965 
L 410.299875 363.603694 
L 410.935997 364.934754 
L 411.57212 367.423892 
L 412.844365 373.565381 
L 413.480487 375.726913 
L 414.11661 376.45675 
L 414.752732 375.51731 
L 415.388855 373.074105 
L 417.297222 362.905289 
L 417.933345 360.92562 
L 418.569467 360.298867 
L 419.20559 360.837462 
L 420.477835 362.969068 
L 421.113957 363.019179 
L 421.75008 361.592404 
L 422.386202 358.544378 
L 424.930692 341.592313 
L 425.566815 340.459621 
L 426.202937 341.58243 
L 426.83906 344.627685 
L 428.111305 352.855418 
L 428.747427 355.723847 
L 429.38355 356.45839 
L 430.019672 354.649614 
L 430.655795 350.51255 
L 432.564162 333.940278 
L 433.200285 331.121405 
L 433.836407 331.03246 
L 434.47253 333.598827 
L 436.380897 347.381548 
L 437.01702 349.397859 
L 437.653142 348.343037 
L 438.289265 344.071333 
L 438.925387 337.217445 
L 440.197632 321.324581 
L 440.833755 315.644568 
L 441.469877 313.344602 
L 442.106 315.059464 
L 442.742122 320.604688 
L 444.014367 338.770449 
L 444.65049 348.114956 
L 445.286612 355.458123 
L 445.922735 359.699572 
L 446.558857 360.442641 
L 447.19498 358.038209 
L 447.831102 353.45703 
L 449.103347 343.109974 
L 449.73947 339.779997 
L 450.375592 338.609499 
L 451.011715 339.580072 
L 451.647837 342.149939 
L 452.920082 348.527016 
L 453.556205 350.642987 
L 454.192327 351.430213 
L 454.82845 350.988229 
L 456.100695 348.70644 
L 456.736817 348.403882 
L 457.37294 349.492689 
L 458.009062 352.172478 
L 458.645185 356.206522 
L 459.91743 365.64177 
L 460.553552 369.349565 
L 461.189675 371.455617 
L 461.825797 371.681421 
L 462.46192 370.177745 
L 465.00641 359.854104 
L 465.642532 359.448516 
L 466.278655 360.311248 
L 468.187022 365.517317 
L 468.823145 366.11115 
L 469.459267 365.548197 
L 470.09539 363.950868 
L 471.367635 359.541518 
L 472.003757 357.959179 
L 472.63988 357.461368 
L 473.276002 358.227087 
L 473.912125 360.104986 
L 475.820492 367.356375 
L 476.456615 368.445053 
L 477.092737 368.366515 
L 477.72886 367.258531 
L 479.001105 363.722014 
L 479.637227 362.388301 
L 480.27335 361.902128 
L 480.909472 362.368792 
L 481.545595 363.591011 
L 482.81784 366.395519 
L 483.453962 366.875771 
L 484.090085 366.222498 
L 484.726207 364.390245 
L 486.634575 355.779416 
L 487.270697 353.948202 
L 487.90682 353.508856 
L 488.542942 354.591901 
L 489.179065 356.982366 
L 491.087432 366.246382 
L 491.723555 367.943218 
L 492.359677 368.348901 
L 492.9958 367.567349 
L 494.904167 362.804643 
L 495.54029 362.256554 
L 496.176412 362.779469 
L 496.812535 364.288443 
L 498.720902 370.429772 
L 499.357025 371.286889 
L 499.993147 371.013742 
L 500.62927 369.673376 
L 502.537637 363.220542 
L 503.17376 361.936121 
L 503.809882 361.665956 
L 504.446005 362.425681 
L 505.082127 363.994346 
L 506.354372 367.928161 
L 506.990495 369.417525 
L 507.626617 370.158228 
L 508.26274 370.028356 
L 508.898862 369.068527 
L 509.534985 367.433852 
L 510.80723 362.91763 
L 512.715597 354.751497 
L 514.623965 346.135448 
L 515.260087 343.929592 
L 515.89621 342.59293 
L 516.532332 342.428793 
L 517.168455 343.595612 
L 517.804577 346.026035 
L 520.349067 359.016683 
L 520.98519 359.946132 
L 521.621312 359.140221 
L 522.257435 356.738771 
L 524.165802 345.854285 
L 524.801925 343.464335 
L 525.438047 342.538354 
L 526.07417 343.048867 
L 527.982537 347.503318 
L 528.61866 347.316614 
L 529.254782 345.337389 
L 529.890905 341.591979 
L 531.799272 326.790901 
L 532.435395 324.183375 
L 533.071518 324.236865 
L 533.70764 327.212962 
L 534.343762 332.781903 
L 536.25213 354.81596 
L 536.888252 359.803082 
L 537.524375 362.122236 
L 538.160498 361.647606 
L 538.79662 358.832762 
L 540.704988 346.164663 
L 541.34111 343.798841 
L 541.977232 343.169349 
L 542.613355 344.019764 
L 543.8856 347.225701 
L 544.521722 347.823944 
L 545.157845 346.890544 
L 545.793968 344.303452 
L 547.702335 332.339619 
L 548.338458 330.119451 
L 548.97458 330.164648 
L 549.610702 332.715479 
L 550.246825 337.469048 
L 552.155192 355.854414 
L 552.791315 359.849642 
L 553.427437 361.646416 
L 554.06356 361.289984 
L 554.699682 359.329993 
L 555.971927 354.337075 
L 556.60805 353.215012 
L 557.244172 353.830943 
L 557.880295 356.223613 
L 559.788662 367.842308 
L 560.424785 370.107973 
L 561.060907 370.320909 
L 561.69703 368.310593 
L 562.333152 364.395968 
L 564.24152 349.529629 
L 564.877642 346.632281 
L 565.513765 345.772862 
L 566.149887 346.967148 
L 566.78601 349.833065 
L 568.694377 361.451805 
L 569.3305 364.116128 
L 569.966622 365.597413 
L 570.602745 365.968356 
L 571.238867 365.515783 
L 573.147235 362.902586 
L 573.783357 362.414307 
L 576.327847 361.378036 
L 577.600092 360.548416 
L 578.236215 360.504135 
L 578.872337 361.036252 
L 579.50846 362.304086 
L 580.144582 364.310016 
L 582.05295 372.15883 
L 582.689072 373.994677 
L 583.325195 374.797603 
L 583.961317 374.402069 
L 584.59744 372.857152 
L 585.233562 370.41004 
L 587.14193 361.625754 
L 587.778052 359.424256 
L 588.414175 357.902861 
L 589.050297 357.045685 
L 589.68642 356.749304 
L 590.322542 356.887021 
L 590.958665 357.366648 
L 591.594787 358.161742 
L 592.23091 359.305728 
L 592.867032 360.851315 
L 594.139277 365.095395 
L 595.411522 369.669902 
L 596.047645 371.245315 
L 596.683767 371.87733 
L 597.31989 371.374669 
L 597.956012 369.780499 
L 599.86438 362.601477 
L 600.500502 361.471053 
L 601.136625 361.832812 
L 601.772747 363.784539 
L 602.40887 367.025889 
L 603.681115 374.497266 
L 604.317237 376.924552 
L 604.95336 377.477706 
L 605.589482 375.873364 
L 606.225605 372.355847 
L 607.49785 362.988238 
L 608.133972 359.508281 
L 608.770095 358.289811 
L 609.406217 359.887854 
L 610.04234 364.164085 
L 611.314585 376.554019 
L 611.950707 381.238725 
L 612.58683 382.381792 
L 613.222952 378.477348 
L 613.859075 368.750233 
L 614.495197 353.35481 
L 615.767442 310.732741 
L 617.039687 266.661275 
L 617.67581 249.612578 
L 618.311932 237.879956 
L 618.948055 231.946778 
L 619.584177 231.467639 
L 620.2203 235.441907 
L 620.856422 242.497719 
L 624.037035 285.217917 
L 627.217647 321.317105 
L 627.85377 326.795543 
L 628.489892 330.498383 
L 629.126015 332.059459 
L 629.762137 331.464489 
L 630.39826 329.098894 
L 632.306627 319.288769 
L 632.94275 317.790128 
L 633.578872 317.852151 
L 634.214995 319.253297 
L 635.48724 323.532103 
L 636.123362 324.906728 
L 636.759485 325.079497 
L 637.395607 324.036085 
L 638.667852 320.520574 
L 639.303975 319.894165 
L 639.940097 321.2559 
L 640.57622 325.126782 
L 641.212342 331.459996 
L 643.12071 356.125965 
L 643.756832 361.60943 
L 644.392955 363.672761 
L 645.029077 361.870609 
L 645.6652 356.516916 
L 648.20969 325.786133 
L 648.845812 323.236258 
L 649.481935 324.332749 
L 650.118057 328.672172 
L 651.390302 342.67831 
L 652.026425 349.603041 
L 652.662547 354.926978 
L 653.29867 358.076677 
L 653.934792 359.075729 
L 654.570915 358.473694 
L 655.84316 356.032244 
L 656.479282 355.854608 
L 657.115405 356.93796 
L 657.751527 359.128015 
L 659.023772 364.303715 
L 659.659895 365.663505 
L 660.296017 365.353565 
L 660.93214 363.197676 
L 661.568262 359.480839 
L 662.840507 350.300123 
L 663.47663 346.627459 
L 664.112752 344.523173 
L 664.748875 344.256648 
L 665.384997 345.655803 
L 667.293365 353.529351 
L 667.929487 355.053065 
L 668.56561 355.403104 
L 669.201732 354.72892 
L 670.473977 352.18613 
L 671.1101 351.365993 
L 671.746222 351.240842 
L 673.018467 352.259131 
L 673.65459 352.273132 
L 674.290712 351.05424 
L 674.926835 348.145719 
L 675.562957 343.500947 
L 677.471325 325.759961 
L 678.107447 322.258917 
L 678.74357 321.674329 
L 679.379692 324.393131 
L 680.015815 330.145044 
L 682.560305 360.52038 
L 683.196427 363.556643 
L 683.83255 363.596921 
L 684.468672 361.206836 
L 685.740917 353.844487 
L 686.37704 351.502256 
L 687.013162 351.293012 
L 687.649285 353.368587 
L 689.557652 364.952178 
L 690.193775 366.136642 
L 690.829897 364.152486 
L 691.46602 358.828421 
L 692.738265 341.529067 
L 693.374387 332.76475 
L 694.01051 326.387291 
L 694.646632 323.855786 
L 695.282755 325.887644 
L 695.918877 332.278875 
L 696.555 341.934886 
L 696.555 341.934886 
" clip-path="url(#p2df98909ab)" style="fill: none; stroke: #1f77b4; stroke-width: 1.5; stroke-linecap: square"/>
   </g>
   <g id="patch_9">
    <path d="M 60.4325 389.9275 
L 60.4325 223.921932 
" style="fill: none; stroke: #000000; stroke-width: 0.8; stroke-linejoin: miter; stroke-linecap: square"/>
   </g>
   <g id="patch_10">
    <path d="M 696.555 389.9275 
L 696.555 223.921932 
" style="fill: none; stroke: #000000; stroke-width: 0.8; stroke-linejoin: miter; stroke-linecap: square"/>
   </g>
   <g id="patch_11">
    <path d="M 60.4325 389.9275 
L 696.555 389.9275 
" style="fill: none; stroke: #000000; stroke-width: 0.8; stroke-linejoin: miter; stroke-linecap: square"/>
   </g>
   <g id="patch_12">
    <path d="M 60.4325 223.921932 
L 696.555 223.921932 
" style="fill: none; stroke: #000000; stroke-width: 0.8; stroke-linejoin: miter; stroke-linecap: square"/>
   </g>
   <g id="text_25">
    <!-- Semnal după filtrare -->
    <g transform="translate(317.125937 217.921932) scale(0.12 -0.12)">
     <defs>
      <path id="DejaVuSans-64" d="M 2906 2969 
L 2906 4863 
L 3481 4863 
L 3481 0 
L 2906 0 
L 2906 525 
Q 2725 213 2448 61 
Q 2172 -91 1784 -91 
Q 1150 -91 751 415 
Q 353 922 353 1747 
Q 353 2572 751 3078 
Q 1150 3584 1784 3584 
Q 2172 3584 2448 3432 
Q 2725 3281 2906 2969 
z
M 947 1747 
Q 947 1113 1208 752 
Q 1469 391 1925 391 
Q 2381 391 2643 752 
Q 2906 1113 2906 1747 
Q 2906 2381 2643 2742 
Q 2381 3103 1925 3103 
Q 1469 3103 1208 2742 
Q 947 2381 947 1747 
z
" transform="scale(0.015625)"/>
      <path id="DejaVuSans-70" d="M 1159 525 
L 1159 -1331 
L 581 -1331 
L 581 3500 
L 1159 3500 
L 1159 2969 
Q 1341 3281 1617 3432 
Q 1894 3584 2278 3584 
Q 2916 3584 3314 3078 
Q 3713 2572 3713 1747 
Q 3713 922 3314 415 
Q 2916 -91 2278 -91 
Q 1894 -91 1617 61 
Q 1341 213 1159 525 
z
M 3116 1747 
Q 3116 2381 2855 2742 
Q 2594 3103 2138 3103 
Q 1681 3103 1420 2742 
Q 1159 2381 1159 1747 
Q 1159 1113 1420 752 
Q 1681 391 2138 391 
Q 2594 391 2855 752 
Q 3116 1113 3116 1747 
z
" transform="scale(0.015625)"/>
      <path id="DejaVuSans-66" d="M 2375 4863 
L 2375 4384 
L 1825 4384 
Q 1516 4384 1395 4259 
Q 1275 4134 1275 3809 
L 1275 3500 
L 2222 3500 
L 2222 3053 
L 1275 3053 
L 1275 0 
L 697 0 
L 697 3053 
L 147 3053 
L 147 3500 
L 697 3500 
L 697 3744 
Q 697 4328 969 4595 
Q 1241 4863 1831 4863 
L 2375 4863 
z
" transform="scale(0.015625)"/>
     </defs>
     <use xlink:href="#DejaVuSans-53"/>
     <use xlink:href="#DejaVuSans-65" transform="translate(63.476562 0)"/>
     <use xlink:href="#DejaVuSans-6d" transform="translate(125 0)"/>
     <use xlink:href="#DejaVuSans-6e" transform="translate(222.412109 0)"/>
     <use xlink:href="#DejaVuSans-61" transform="translate(285.791016 0)"/>
     <use xlink:href="#DejaVuSans-6c" transform="translate(347.070312 0)"/>
     <use xlink:href="#DejaVuSans-20" transform="translate(374.853516 0)"/>
     <use xlink:href="#DejaVuSans-64" transform="translate(406.640625 0)"/>
     <use xlink:href="#DejaVuSans-75" transform="translate(470.117188 0)"/>
     <use xlink:href="#DejaVuSans-70" transform="translate(533.496094 0)"/>
     <use xlink:href="#DejaVuSans-103" transform="translate(596.972656 0)"/>
     <use xlink:href="#DejaVuSans-20" transform="translate(658.251953 0)"/>
     <use xlink:href="#DejaVuSans-66" transform="translate(690.039062 0)"/>
     <use xlink:href="#DejaVuSans-69" transform="translate(725.244141 0)"/>
     <use xlink:href="#DejaVuSans-6c" transform="translate(753.027344 0)"/>
     <use xlink:href="#DejaVuSans-74" transform="translate(780.810547 0)"/>
     <use xlink:href="#DejaVuSans-72" transform="translate(820.019531 0)"/>
     <use xlink:href="#DejaVuSans-61" transform="translate(861.132812 0)"/>
     <use xlink:href="#DejaVuSans-72" transform="translate(922.412109 0)"/>
     <use xlink:href="#DejaVuSans-65" transform="translate(961.275391 0)"/>
    </g>
   </g>
   <g id="legend_2">
    <g id="patch_13">
     <path d="M 67.4325 246.600057 
L 167.252813 246.600057 
Q 169.252813 246.600057 169.252813 244.600057 
L 169.252813 230.921932 
Q 169.252813 228.921932 167.252813 228.921932 
L 67.4325 228.921932 
Q 65.4325 228.921932 65.4325 230.921932 
L 65.4325 244.600057 
Q 65.4325 246.600057 67.4325 246.600057 
z
" style="fill: #ffffff; opacity: 0.8; stroke: #cccccc; stroke-linejoin: miter"/>
    </g>
    <g id="line2d_29">
     <path d="M 69.4325 237.020369 
L 79.4325 237.020369 
L 89.4325 237.020369 
" style="fill: none; stroke: #1f77b4; stroke-width: 1.5; stroke-linecap: square"/>
    </g>
    <g id="text_26">
     <!-- Semnal filtrat -->
     <g transform="translate(97.4325 240.520369) scale(0.1 -0.1)">
      <use xlink:href="#DejaVuSans-53"/>
      <use xlink:href="#DejaVuSans-65" transform="translate(63.476562 0)"/>
      <use xlink:href="#DejaVuSans-6d" transform="translate(125 0)"/>
      <use xlink:href="#DejaVuSans-6e" transform="translate(222.412109 0)"/>
      <use xlink:href="#DejaVuSans-61" transform="translate(285.791016 0)"/>
      <use xlink:href="#DejaVuSans-6c" transform="translate(347.070312 0)"/>
      <use xlink:href="#DejaVuSans-20" transform="translate(374.853516 0)"/>
      <use xlink:href="#DejaVuSans-66" transform="translate(406.640625 0)"/>
      <use xlink:href="#DejaVuSans-69" transform="translate(441.845703 0)"/>
      <use xlink:href="#DejaVuSans-6c" transform="translate(469.628906 0)"/>
      <use xlink:href="#DejaVuSans-74" transform="translate(497.412109 0)"/>
      <use xlink:href="#DejaVuSans-72" transform="translate(536.621094 0)"/>
      <use xlink:href="#DejaVuSans-61" transform="translate(577.734375 0)"/>
      <use xlink:href="#DejaVuSans-74" transform="translate(639.013672 0)"/>
     </g>
    </g>
   </g>
  </g>
 </g>
 <defs>
  <clipPath id="p334a87dac9">
   <rect x="60.4325" y="26.88" width="636.1225" height="166.005568"/>
  </clipPath>
  <clipPath id="p2df98909ab">
   <rect x="60.4325" y="223.921932" width="636.1225" height="166.005568"/>
  </clipPath>
 </defs>
</svg>
