<?xml version="1.0" encoding="utf-8" standalone="no"?>
<!DOCTYPE svg PUBLIC "-//W3C//DTD SVG 1.1//EN"
  "http://www.w3.org/Graphics/SVG/1.1/DTD/svg11.dtd">
<svg xmlns:xlink="http://www.w3.org/1999/xlink" width="720pt" height="432pt" viewBox="0 0 720 432" xmlns="http://www.w3.org/2000/svg" version="1.1">
 <metadata>
  <rdf:RDF xmlns:dc="http://purl.org/dc/elements/1.1/" xmlns:cc="http://creativecommons.org/ns#" xmlns:rdf="http://www.w3.org/1999/02/22-rdf-syntax-ns#">
   <cc:Work>
    <dc:type rdf:resource="http://purl.org/dc/dcmitype/StillImage"/>
    <dc:date>2025-11-18T17:45:20.874944</dc:date>
    <dc:format>image/svg+xml</dc:format>
    <dc:creator>
     <cc:Agent>
      <dc:title>Matplotlib v3.10.7, https://matplotlib.org/</dc:title>
     </cc:Agent>
    </dc:creator>
   </cc:Work>
  </rdf:RDF>
 </metadata>
 <defs>
  <style type="text/css">*{stroke-linejoin: round; stroke-linecap: butt}</style>
 </defs>
 <g id="figure_1">
  <g id="patch_1">
   <path d="M 0 432 
L 720 432 
L 720 0 
L 0 0 
z
" style="fill: #ffffff"/>
  </g>
  <g id="axes_1">
   <g id="patch_2">
    <path d="M 44.6825 192.885568 
L 696.555 192.885568 
L 696.555 26.88 
L 44.6825 26.88 
z
" style="fill: #ffffff"/>
   </g>
   <g id="matplotlib.axis_1">
    <g id="xtick_1">
     <g id="line2d_1">
      <defs>
       <path id="m75729d54b9" d="M 0 0 
L 0 3.5 
" style="stroke: #000000; stroke-width: 0.8"/>
      </defs>
      <g>
       <use xlink:href="#m75729d54b9" x="44.6825" y="192.885568" style="stroke: #000000; stroke-width: 0.8"/>
      </g>
     </g>
    </g>
    <g id="xtick_2">
     <g id="line2d_2">
      <g>
       <use xlink:href="#m75729d54b9" x="175.057" y="192.885568" style="stroke: #000000; stroke-width: 0.8"/>
      </g>
     </g>
    </g>
    <g id="xtick_3">
     <g id="line2d_3">
      <g>
       <use xlink:href="#m75729d54b9" x="305.4315" y="192.885568" style="stroke: #000000; stroke-width: 0.8"/>
      </g>
     </g>
    </g>
    <g id="xtick_4">
     <g id="line2d_4">
      <g>
       <use xlink:href="#m75729d54b9" x="435.806" y="192.885568" style="stroke: #000000; stroke-width: 0.8"/>
      </g>
     </g>
    </g>
    <g id="xtick_5">
     <g id="line2d_5">
      <g>
       <use xlink:href="#m75729d54b9" x="566.1805" y="192.885568" style="stroke: #000000; stroke-width: 0.8"/>
      </g>
     </g>
    </g>
    <g id="xtick_6">
     <g id="line2d_6">
      <g>
       <use xlink:href="#m75729d54b9" x="696.555" y="192.885568" style="stroke: #000000; stroke-width: 0.8"/>
      </g>
     </g>
    </g>
   </g>
   <g id="matplotlib.axis_2">
    <g id="ytick_1">
     <g id="line2d_7">
      <defs>
       <path id="m84206a6213" d="M 0 0 
L -3.5 0 
" style="stroke: #000000; stroke-width: 0.8"/>
      </defs>
      <g>
       <use xlink:href="#m84206a6213" x="44.6825" y="190.729652" style="stroke: #000000; stroke-width: 0.8"/>
      </g>
     </g>
     <g id="text_1">
      <!-- 0 -->
      <g transform="translate(31.32 194.52887) scale(0.1 -0.1)">
       <defs>
        <path id="DejaVuSans-30" d="M 2034 4250 
Q 1547 4250 1301 3770 
Q 1056 3291 1056 2328 
Q 1056 1369 1301 889 
Q 1547 409 2034 409 
Q 2525 409 2770 889 
Q 3016 1369 3016 2328 
Q 3016 3291 2770 3770 
Q 2525 4250 2034 4250 
z
M 2034 4750 
Q 2819 4750 3233 4129 
Q 3647 3509 3647 2328 
Q 3647 1150 3233 529 
Q 2819 -91 2034 -91 
Q 1250 -91 836 529 
Q 422 1150 422 2328 
Q 422 3509 836 4129 
Q 1250 4750 2034 4750 
z
" transform="scale(0.015625)"/>
       </defs>
       <use xlink:href="#DejaVuSans-30"/>
      </g>
     </g>
    </g>
    <g id="ytick_2">
     <g id="line2d_8">
      <g>
       <use xlink:href="#m84206a6213" x="44.6825" y="163.780696" style="stroke: #000000; stroke-width: 0.8"/>
      </g>
     </g>
     <g id="text_2">
      <!-- 10 -->
      <g transform="translate(24.9575 167.579915) scale(0.1 -0.1)">
       <defs>
        <path id="DejaVuSans-31" d="M 794 531 
L 1825 531 
L 1825 4091 
L 703 3866 
L 703 4441 
L 1819 4666 
L 2450 4666 
L 2450 531 
L 3481 531 
L 3481 0 
L 794 0 
L 794 531 
z
" transform="scale(0.015625)"/>
       </defs>
       <use xlink:href="#DejaVuSans-31"/>
       <use xlink:href="#DejaVuSans-30" transform="translate(63.623047 0)"/>
      </g>
     </g>
    </g>
    <g id="ytick_3">
     <g id="line2d_9">
      <g>
       <use xlink:href="#m84206a6213" x="44.6825" y="136.83174" style="stroke: #000000; stroke-width: 0.8"/>
      </g>
     </g>
     <g id="text_3">
      <!-- 20 -->
      <g transform="translate(24.9575 140.630959) scale(0.1 -0.1)">
       <defs>
        <path id="DejaVuSans-32" d="M 1228 531 
L 3431 531 
L 3431 0 
L 469 0 
L 469 531 
Q 828 903 1448 1529 
Q 2069 2156 2228 2338 
Q 2531 2678 2651 2914 
Q 2772 3150 2772 3378 
Q 2772 3750 2511 3984 
Q 2250 4219 1831 4219 
Q 1534 4219 1204 4116 
Q 875 4013 500 3803 
L 500 4441 
Q 881 4594 1212 4672 
Q 1544 4750 1819 4750 
Q 2544 4750 2975 4387 
Q 3406 4025 3406 3419 
Q 3406 3131 3298 2873 
Q 3191 2616 2906 2266 
Q 2828 2175 2409 1742 
Q 1991 1309 1228 531 
z
" transform="scale(0.015625)"/>
       </defs>
       <use xlink:href="#DejaVuSans-32"/>
       <use xlink:href="#DejaVuSans-30" transform="translate(63.623047 0)"/>
      </g>
     </g>
    </g>
    <g id="ytick_4">
     <g id="line2d_10">
      <g>
       <use xlink:href="#m84206a6213" x="44.6825" y="109.882784" style="stroke: #000000; stroke-width: 0.8"/>
      </g>
     </g>
     <g id="text_4">
      <!-- 30 -->
      <g transform="translate(24.9575 113.682003) scale(0.1 -0.1)">
       <defs>
        <path id="DejaVuSans-33" d="M 2597 2516 
Q 3050 2419 3304 2112 
Q 3559 1806 3559 1356 
Q 3559 666 3084 287 
Q 2609 -91 1734 -91 
Q 1441 -91 1130 -33 
Q 819 25 488 141 
L 488 750 
Q 750 597 1062 519 
Q 1375 441 1716 441 
Q 2309 441 2620 675 
Q 2931 909 2931 1356 
Q 2931 1769 2642 2001 
Q 2353 2234 1838 2234 
L 1294 2234 
L 1294 2753 
L 1863 2753 
Q 2328 2753 2575 2939 
Q 2822 3125 2822 3475 
Q 2822 3834 2567 4026 
Q 2313 4219 1838 4219 
Q 1578 4219 1281 4162 
Q 984 4106 628 3988 
L 628 4550 
Q 988 4650 1302 4700 
Q 1616 4750 1894 4750 
Q 2613 4750 3031 4423 
Q 3450 4097 3450 3541 
Q 3450 3153 3228 2886 
Q 3006 2619 2597 2516 
z
" transform="scale(0.015625)"/>
       </defs>
       <use xlink:href="#DejaVuSans-33"/>
       <use xlink:href="#DejaVuSans-30" transform="translate(63.623047 0)"/>
      </g>
     </g>
    </g>
    <g id="ytick_5">
     <g id="line2d_11">
      <g>
       <use xlink:href="#m84206a6213" x="44.6825" y="82.933828" style="stroke: #000000; stroke-width: 0.8"/>
      </g>
     </g>
     <g id="text_5">
      <!-- 40 -->
      <g transform="translate(24.9575 86.733047) scale(0.1 -0.1)">
       <defs>
        <path id="DejaVuSans-34" d="M 2419 4116 
L 825 1625 
L 2419 1625 
L 2419 4116 
z
M 2253 4666 
L 3047 4666 
L 3047 1625 
L 3713 1625 
L 3713 1100 
L 3047 1100 
L 3047 0 
L 2419 0 
L 2419 1100 
L 313 1100 
L 313 1709 
L 2253 4666 
z
" transform="scale(0.015625)"/>
       </defs>
       <use xlink:href="#DejaVuSans-34"/>
       <use xlink:href="#DejaVuSans-30" transform="translate(63.623047 0)"/>
      </g>
     </g>
    </g>
    <g id="ytick_6">
     <g id="line2d_12">
      <g>
       <use xlink:href="#m84206a6213" x="44.6825" y="55.984872" style="stroke: #000000; stroke-width: 0.8"/>
      </g>
     </g>
     <g id="text_6">
      <!-- 50 -->
      <g transform="translate(24.9575 59.784091) scale(0.1 -0.1)">
       <defs>
        <path id="DejaVuSans-35" d="M 691 4666 
L 3169 4666 
L 3169 4134 
L 1269 4134 
L 1269 2991 
Q 1406 3038 1543 3061 
Q 1681 3084 1819 3084 
Q 2600 3084 3056 2656 
Q 3513 2228 3513 1497 
Q 3513 744 3044 326 
Q 2575 -91 1722 -91 
Q 1428 -91 1123 -41 
Q 819 9 494 109 
L 494 744 
Q 775 591 1075 516 
Q 1375 441 1709 441 
Q 2250 441 2565 725 
Q 2881 1009 2881 1497 
Q 2881 1984 2565 2268 
Q 2250 2553 1709 2553 
Q 1456 2553 1204 2497 
Q 953 2441 691 2322 
L 691 4666 
z
" transform="scale(0.015625)"/>
       </defs>
       <use xlink:href="#DejaVuSans-35"/>
       <use xlink:href="#DejaVuSans-30" transform="translate(63.623047 0)"/>
      </g>
     </g>
    </g>
    <g id="ytick_7">
     <g id="line2d_13">
      <g>
       <use xlink:href="#m84206a6213" x="44.6825" y="29.035916" style="stroke: #000000; stroke-width: 0.8"/>
      </g>
     </g>
     <g id="text_7">
      <!-- 60 -->
      <g transform="translate(24.9575 32.835135) scale(0.1 -0.1)">
       <defs>
        <path id="DejaVuSans-36" d="M 2113 2584 
Q 1688 2584 1439 2293 
Q 1191 2003 1191 1497 
Q 1191 994 1439 701 
Q 1688 409 2113 409 
Q 2538 409 2786 701 
Q 3034 994 3034 1497 
Q 3034 2003 2786 2293 
Q 2538 2584 2113 2584 
z
M 3366 4563 
L 3366 3988 
Q 3128 4100 2886 4159 
Q 2644 4219 2406 4219 
Q 1781 4219 1451 3797 
Q 1122 3375 1075 2522 
Q 1259 2794 1537 2939 
Q 1816 3084 2150 3084 
Q 2853 3084 3261 2657 
Q 3669 2231 3669 1497 
Q 3669 778 3244 343 
Q 2819 -91 2113 -91 
Q 1303 -91 875 529 
Q 447 1150 447 2328 
Q 447 3434 972 4092 
Q 1497 4750 2381 4750 
Q 2619 4750 2861 4703 
Q 3103 4656 3366 4563 
z
" transform="scale(0.015625)"/>
       </defs>
       <use xlink:href="#DejaVuSans-36"/>
       <use xlink:href="#DejaVuSans-30" transform="translate(63.623047 0)"/>
      </g>
     </g>
    </g>
    <g id="text_8">
     <!-- Număr mașini -->
     <g transform="translate(18.554375 144.857003) rotate(-90) scale(0.1 -0.1)">
      <defs>
       <path id="DejaVuSans-4e" d="M 628 4666 
L 1478 4666 
L 3547 763 
L 3547 4666 
L 4159 4666 
L 4159 0 
L 3309 0 
L 1241 3903 
L 1241 0 
L 628 0 
L 628 4666 
z
" transform="scale(0.015625)"/>
       <path id="DejaVuSans-75" d="M 544 1381 
L 544 3500 
L 1119 3500 
L 1119 1403 
Q 1119 906 1312 657 
Q 1506 409 1894 409 
Q 2359 409 2629 706 
Q 2900 1003 2900 1516 
L 2900 3500 
L 3475 3500 
L 3475 0 
L 2900 0 
L 2900 538 
Q 2691 219 2414 64 
Q 2138 -91 1772 -91 
Q 1169 -91 856 284 
Q 544 659 544 1381 
z
M 1991 3584 
L 1991 3584 
z
" transform="scale(0.015625)"/>
       <path id="DejaVuSans-6d" d="M 3328 2828 
Q 3544 3216 3844 3400 
Q 4144 3584 4550 3584 
Q 5097 3584 5394 3201 
Q 5691 2819 5691 2113 
L 5691 0 
L 5113 0 
L 5113 2094 
Q 5113 2597 4934 2840 
Q 4756 3084 4391 3084 
Q 3944 3084 3684 2787 
Q 3425 2491 3425 1978 
L 3425 0 
L 2847 0 
L 2847 2094 
Q 2847 2600 2669 2842 
Q 2491 3084 2119 3084 
Q 1678 3084 1418 2786 
Q 1159 2488 1159 1978 
L 1159 0 
L 581 0 
L 581 3500 
L 1159 3500 
L 1159 2956 
Q 1356 3278 1631 3431 
Q 1906 3584 2284 3584 
Q 2666 3584 2933 3390 
Q 3200 3197 3328 2828 
z
" transform="scale(0.015625)"/>
       <path id="DejaVuSans-103" d="M 870 4897 
L 1239 4897 
Q 1273 4663 1424 4545 
Q 1576 4428 1848 4428 
Q 2117 4428 2267 4544 
Q 2417 4660 2457 4897 
L 2826 4897 
Q 2795 4450 2548 4225 
Q 2301 4000 1848 4000 
Q 1395 4000 1148 4225 
Q 901 4450 870 4897 
z
M 2194 1759 
Q 1497 1759 1228 1600 
Q 959 1441 959 1056 
Q 959 750 1161 570 
Q 1363 391 1709 391 
Q 2188 391 2477 730 
Q 2766 1069 2766 1631 
L 2766 1759 
L 2194 1759 
z
M 3341 1997 
L 3341 0 
L 2766 0 
L 2766 531 
Q 2569 213 2275 61 
Q 1981 -91 1556 -91 
Q 1019 -91 701 211 
Q 384 513 384 1019 
Q 384 1609 779 1909 
Q 1175 2209 1959 2209 
L 2766 2209 
L 2766 2266 
Q 2766 2663 2505 2880 
Q 2244 3097 1772 3097 
Q 1472 3097 1187 3025 
Q 903 2953 641 2809 
L 641 3341 
Q 956 3463 1253 3523 
Q 1550 3584 1831 3584 
Q 2591 3584 2966 3190 
Q 3341 2797 3341 1997 
z
" transform="scale(0.015625)"/>
       <path id="DejaVuSans-72" d="M 2631 2963 
Q 2534 3019 2420 3045 
Q 2306 3072 2169 3072 
Q 1681 3072 1420 2755 
Q 1159 2438 1159 1844 
L 1159 0 
L 581 0 
L 581 3500 
L 1159 3500 
L 1159 2956 
Q 1341 3275 1631 3429 
Q 1922 3584 2338 3584 
Q 2397 3584 2469 3576 
Q 2541 3569 2628 3553 
L 2631 2963 
z
" transform="scale(0.015625)"/>
       <path id="DejaVuSans-20" transform="scale(0.015625)"/>
       <path id="DejaVuSans-61" d="M 2194 1759 
Q 1497 1759 1228 1600 
Q 959 1441 959 1056 
Q 959 750 1161 570 
Q 1363 391 1709 391 
Q 2188 391 2477 730 
Q 2766 1069 2766 1631 
L 2766 1759 
L 2194 1759 
z
M 3341 1997 
L 3341 0 
L 2766 0 
L 2766 531 
Q 2569 213 2275 61 
Q 1981 -91 1556 -91 
Q 1019 -91 701 211 
Q 384 513 384 1019 
Q 384 1609 779 1909 
Q 1175 2209 1959 2209 
L 2766 2209 
L 2766 2266 
Q 2766 2663 2505 2880 
Q 2244 3097 1772 3097 
Q 1472 3097 1187 3025 
Q 903 2953 641 2809 
L 641 3341 
Q 956 3463 1253 3523 
Q 1550 3584 1831 3584 
Q 2591 3584 2966 3190 
Q 3341 2797 3341 1997 
z
" transform="scale(0.015625)"/>
       <path id="DejaVuSans-219" d="M 1524 -538 
L 2183 -538 
L 1670 -1538 
L 1267 -1538 
L 1524 -538 
z
M 2834 3397 
L 2834 2853 
Q 2591 2978 2328 3040 
Q 2066 3103 1784 3103 
Q 1356 3103 1142 2972 
Q 928 2841 928 2578 
Q 928 2378 1081 2264 
Q 1234 2150 1697 2047 
L 1894 2003 
Q 2506 1872 2764 1633 
Q 3022 1394 3022 966 
Q 3022 478 2636 193 
Q 2250 -91 1575 -91 
Q 1294 -91 989 -36 
Q 684 19 347 128 
L 347 722 
Q 666 556 975 473 
Q 1284 391 1588 391 
Q 1994 391 2212 530 
Q 2431 669 2431 922 
Q 2431 1156 2273 1281 
Q 2116 1406 1581 1522 
L 1381 1569 
Q 847 1681 609 1914 
Q 372 2147 372 2553 
Q 372 3047 722 3315 
Q 1072 3584 1716 3584 
Q 2034 3584 2315 3537 
Q 2597 3491 2834 3397 
z
" transform="scale(0.015625)"/>
       <path id="DejaVuSans-69" d="M 603 3500 
L 1178 3500 
L 1178 0 
L 603 0 
L 603 3500 
z
M 603 4863 
L 1178 4863 
L 1178 4134 
L 603 4134 
L 603 4863 
z
" transform="scale(0.015625)"/>
       <path id="DejaVuSans-6e" d="M 3513 2113 
L 3513 0 
L 2938 0 
L 2938 2094 
Q 2938 2591 2744 2837 
Q 2550 3084 2163 3084 
Q 1697 3084 1428 2787 
Q 1159 2491 1159 1978 
L 1159 0 
L 581 0 
L 581 3500 
L 1159 3500 
L 1159 2956 
Q 1366 3272 1645 3428 
Q 1925 3584 2291 3584 
Q 2894 3584 3203 3211 
Q 3513 2838 3513 2113 
z
" transform="scale(0.015625)"/>
      </defs>
      <use xlink:href="#DejaVuSans-4e"/>
      <use xlink:href="#DejaVuSans-75" transform="translate(74.804688 0)"/>
      <use xlink:href="#DejaVuSans-6d" transform="translate(138.183594 0)"/>
      <use xlink:href="#DejaVuSans-103" transform="translate(235.595703 0)"/>
      <use xlink:href="#DejaVuSans-72" transform="translate(296.875 0)"/>
      <use xlink:href="#DejaVuSans-20" transform="translate(337.988281 0)"/>
      <use xlink:href="#DejaVuSans-6d" transform="translate(369.775391 0)"/>
      <use xlink:href="#DejaVuSans-61" transform="translate(467.1875 0)"/>
      <use xlink:href="#DejaVuSans-219" transform="translate(528.466797 0)"/>
      <use xlink:href="#DejaVuSans-69" transform="translate(580.566406 0)"/>
      <use xlink:href="#DejaVuSans-6e" transform="translate(608.349609 0)"/>
      <use xlink:href="#DejaVuSans-69" transform="translate(671.728516 0)"/>
     </g>
    </g>
   </g>
   <g id="line2d_14">
    <path d="M 44.6825 169.170487 
L 45.334373 185.339861 
L 45.986245 174.560278 
L 46.638118 185.339861 
L 49.245608 185.339861 
L 49.89748 174.560278 
L 50.549353 185.339861 
L 51.201225 185.339861 
L 51.853098 174.560278 
L 53.156843 185.339861 
L 53.808715 174.560278 
L 54.460588 185.339861 
L 57.71995 185.339861 
L 58.371823 174.560278 
L 59.023695 185.339861 
L 59.675568 185.339861 
L 60.979313 174.560278 
L 61.631185 185.339861 
L 62.283058 179.950069 
L 62.93493 185.339861 
L 65.54242 185.339861 
L 66.194293 179.950069 
L 66.846165 185.339861 
L 67.498038 185.339861 
L 68.14991 169.170487 
L 68.801783 174.560278 
L 70.105528 174.560278 
L 70.7574 185.339861 
L 71.409273 179.950069 
L 72.713018 179.950069 
L 73.36489 185.339861 
L 74.016763 185.339861 
L 75.320508 174.560278 
L 75.97238 174.560278 
L 76.624253 185.339861 
L 79.231743 185.339861 
L 79.883615 179.950069 
L 80.535488 185.339861 
L 85.098595 185.339861 
L 85.750468 179.950069 
L 86.40234 185.339861 
L 87.054213 185.339861 
L 87.706085 179.950069 
L 88.357958 185.339861 
L 89.00983 179.950069 
L 89.661703 185.339861 
L 90.313575 185.339861 
L 90.965448 179.950069 
L 91.61732 185.339861 
L 96.180428 185.339861 
L 96.8323 179.950069 
L 97.484172 179.950069 
L 98.136045 185.339861 
L 102.04728 185.339861 
L 102.699153 179.950069 
L 103.351025 185.339861 
L 104.65477 185.339861 
L 105.306643 179.950069 
L 105.958515 179.950069 
L 106.610388 185.339861 
L 107.914133 174.560278 
L 108.566005 185.339861 
L 113.129113 185.339861 
L 113.780985 179.950069 
L 114.432858 185.339861 
L 115.736603 185.339861 
L 116.388475 179.950069 
L 117.040347 185.339861 
L 121.603455 185.339861 
L 122.255328 179.950069 
L 122.9072 185.339861 
L 123.559073 169.170487 
L 124.210945 179.950069 
L 124.862818 185.339861 
L 125.51469 179.950069 
L 126.166562 185.339861 
L 129.425925 185.339861 
L 130.077798 179.950069 
L 130.72967 185.339861 
L 132.033415 185.339861 
L 132.685288 179.950069 
L 133.33716 179.950069 
L 133.989033 185.339861 
L 134.640905 179.950069 
L 135.292777 185.339861 
L 135.94465 174.560278 
L 137.248395 185.339861 
L 138.55214 174.560278 
L 139.855885 185.339861 
L 142.463375 185.339861 
L 143.115248 174.560278 
L 143.76712 185.339861 
L 144.418993 185.339861 
L 145.070865 179.950069 
L 145.722737 185.339861 
L 146.37461 185.339861 
L 147.026483 179.950069 
L 147.678355 179.950069 
L 148.330228 185.339861 
L 150.285845 185.339861 
L 150.937718 179.950069 
L 151.58959 179.950069 
L 152.241463 185.339861 
L 152.893335 179.950069 
L 153.545208 163.780696 
L 154.19708 169.170487 
L 154.848952 179.950069 
L 155.500825 179.950069 
L 156.152698 185.339861 
L 157.456443 185.339861 
L 158.108315 179.950069 
L 158.760188 179.950069 
L 159.41206 185.339861 
L 160.063932 185.339861 
L 160.715805 169.170487 
L 161.367678 169.170487 
L 162.01955 174.560278 
L 163.975167 174.560278 
L 164.62704 179.950069 
L 165.278913 179.950069 
L 165.930785 169.170487 
L 166.582658 185.339861 
L 167.23453 174.560278 
L 167.886403 185.339861 
L 168.538275 179.950069 
L 169.190147 169.170487 
L 169.84202 163.780696 
L 170.493893 185.339861 
L 171.145765 179.950069 
L 171.797638 185.339861 
L 172.44951 174.560278 
L 173.753255 185.339861 
L 174.405127 179.950069 
L 175.057 179.950069 
L 175.708872 174.560278 
L 177.012618 185.339861 
L 178.316362 163.780696 
L 178.968235 174.560278 
L 179.620107 179.950069 
L 180.27198 174.560278 
L 180.923853 179.950069 
L 181.575725 179.950069 
L 182.227598 169.170487 
L 182.87947 179.950069 
L 183.531342 169.170487 
L 184.183215 179.950069 
L 185.48696 179.950069 
L 186.138833 185.339861 
L 186.790705 179.950069 
L 187.442577 179.950069 
L 188.09445 185.339861 
L 188.746322 179.950069 
L 189.398195 185.339861 
L 190.050067 174.560278 
L 190.70194 185.339861 
L 191.353813 185.339861 
L 192.005685 174.560278 
L 192.657557 169.170487 
L 193.30943 179.950069 
L 193.961302 185.339861 
L 194.613175 163.780696 
L 195.265048 179.950069 
L 195.91692 179.950069 
L 196.568793 169.170487 
L 197.220665 174.560278 
L 198.52441 174.560278 
L 199.176282 185.339861 
L 200.480028 174.560278 
L 201.1319 185.339861 
L 201.783772 179.950069 
L 202.435645 179.950069 
L 203.087517 185.339861 
L 206.34688 185.339861 
L 206.998752 179.950069 
L 207.650625 185.339861 
L 208.302497 185.339861 
L 208.95437 179.950069 
L 209.606243 185.339861 
L 210.258115 185.339861 
L 210.909987 179.950069 
L 211.56186 185.339861 
L 213.517477 185.339861 
L 214.16935 179.950069 
L 216.124967 179.950069 
L 216.77684 185.339861 
L 217.428712 179.950069 
L 218.080585 163.780696 
L 218.732458 179.950069 
L 219.38433 179.950069 
L 220.036203 185.339861 
L 221.99182 185.339861 
L 222.643692 179.950069 
L 223.295565 179.950069 
L 223.947438 185.339861 
L 224.59931 174.560278 
L 225.251182 185.339861 
L 225.903055 185.339861 
L 226.554927 179.950069 
L 227.2068 185.339861 
L 228.510545 185.339861 
L 229.162418 169.170487 
L 229.81429 179.950069 
L 230.466162 169.170487 
L 231.118035 153.001113 
L 231.769907 169.170487 
L 232.42178 174.560278 
L 233.073653 185.339861 
L 235.681142 185.339861 
L 236.984887 174.560278 
L 237.63676 185.339861 
L 238.288633 174.560278 
L 238.940505 185.339861 
L 239.592377 174.560278 
L 240.24425 169.170487 
L 240.896122 174.560278 
L 242.85174 174.560278 
L 243.503613 185.339861 
L 244.155485 179.950069 
L 244.807357 185.339861 
L 245.45923 174.560278 
L 246.111102 185.339861 
L 246.762975 174.560278 
L 247.414848 179.950069 
L 248.06672 179.950069 
L 248.718592 185.339861 
L 249.370465 179.950069 
L 250.022337 185.339861 
L 253.2817 185.339861 
L 253.933572 179.950069 
L 254.585445 179.950069 
L 255.237317 185.339861 
L 255.88919 179.950069 
L 256.541063 185.339861 
L 257.844808 185.339861 
L 259.148552 174.560278 
L 260.452297 185.339861 
L 261.10417 185.339861 
L 261.756043 179.950069 
L 262.407915 185.339861 
L 263.71166 185.339861 
L 264.363533 93.713411 
L 265.015405 185.339861 
L 265.667278 179.950069 
L 266.31915 185.339861 
L 270.882257 185.339861 
L 271.53413 179.950069 
L 272.837875 179.950069 
L 273.489748 185.339861 
L 274.14162 179.950069 
L 274.793493 185.339861 
L 275.445365 174.560278 
L 276.097238 185.339861 
L 276.74911 185.339861 
L 277.400982 179.950069 
L 278.052855 179.950069 
L 278.704727 185.339861 
L 284.57158 185.339861 
L 285.223453 179.950069 
L 285.875325 169.170487 
L 286.527197 179.950069 
L 287.17907 179.950069 
L 287.830942 174.560278 
L 288.482815 185.339861 
L 289.134687 179.950069 
L 289.78656 185.339861 
L 290.438433 185.339861 
L 291.090305 179.950069 
L 291.742178 185.339861 
L 302.172138 185.339861 
L 302.82401 179.950069 
L 303.475883 185.339861 
L 305.4315 185.339861 
L 306.083372 174.560278 
L 306.735245 185.339861 
L 308.03899 185.339861 
L 308.690862 179.950069 
L 309.342735 169.170487 
L 309.994607 179.950069 
L 310.64648 174.560278 
L 311.298352 185.339861 
L 314.557715 185.339861 
L 315.209587 179.950069 
L 315.86146 185.339861 
L 324.335802 185.339861 
L 324.987675 174.560278 
L 325.639547 185.339861 
L 326.29142 169.170487 
L 326.943292 185.339861 
L 330.854528 185.339861 
L 332.158273 174.560278 
L 332.810145 179.950069 
L 334.11389 179.950069 
L 334.765762 185.339861 
L 335.417635 185.339861 
L 336.72138 174.560278 
L 337.373252 185.339861 
L 338.025125 185.339861 
L 338.676997 179.950069 
L 339.32887 185.339861 
L 339.980742 174.560278 
L 340.632615 169.170487 
L 341.284488 185.339861 
L 341.93636 185.339861 
L 342.588233 174.560278 
L 343.240105 185.339861 
L 347.803212 185.339861 
L 348.455085 179.950069 
L 349.106957 185.339861 
L 349.75883 179.950069 
L 350.410703 185.339861 
L 351.714448 185.339861 
L 352.36632 179.950069 
L 353.018192 185.339861 
L 353.670065 179.950069 
L 354.97381 179.950069 
L 355.625682 185.339861 
L 356.277555 169.170487 
L 356.929427 179.950069 
L 357.5813 179.950069 
L 358.233172 185.339861 
L 363.448152 185.339861 
L 364.100025 169.170487 
L 364.751897 174.560278 
L 365.40377 185.339861 
L 366.707515 174.560278 
L 367.359387 179.950069 
L 368.01126 179.950069 
L 368.663132 185.339861 
L 369.966878 174.560278 
L 370.61875 179.950069 
L 373.22624 179.950069 
L 373.878112 169.170487 
L 374.529985 179.950069 
L 375.83373 179.950069 
L 376.485602 185.339861 
L 377.137475 185.339861 
L 378.44122 174.560278 
L 379.093093 185.339861 
L 379.744965 179.950069 
L 380.396838 169.170487 
L 381.04871 169.170487 
L 381.700582 179.950069 
L 382.352455 179.950069 
L 383.004327 185.339861 
L 385.611817 185.339861 
L 386.26369 179.950069 
L 386.915562 185.339861 
L 387.567435 179.950069 
L 388.87118 179.950069 
L 389.523053 185.339861 
L 394.08616 185.339861 
L 394.738032 179.950069 
L 395.389905 179.950069 
L 396.041777 169.170487 
L 396.69365 179.950069 
L 397.345522 185.339861 
L 399.30114 185.339861 
L 399.953012 174.560278 
L 400.604885 185.339861 
L 401.256757 185.339861 
L 401.90863 179.950069 
L 402.560502 185.339861 
L 403.212375 179.950069 
L 403.864247 185.339861 
L 404.51612 179.950069 
L 405.167992 185.339861 
L 409.7311 185.339861 
L 410.382972 179.950069 
L 411.034845 185.339861 
L 411.686717 179.950069 
L 412.33859 179.950069 
L 412.990462 185.339861 
L 413.642335 174.560278 
L 414.94608 174.560278 
L 415.597952 169.170487 
L 416.249825 185.339861 
L 416.901698 185.339861 
L 417.55357 179.950069 
L 418.205443 179.950069 
L 418.857315 169.170487 
L 419.509187 163.780696 
L 420.16106 169.170487 
L 420.812932 153.001113 
L 421.464805 185.339861 
L 422.116677 169.170487 
L 422.76855 185.339861 
L 424.072295 185.339861 
L 425.37604 163.780696 
L 426.027912 158.390905 
L 426.679785 174.560278 
L 428.635402 158.390905 
L 429.287275 158.390905 
L 429.939147 185.339861 
L 430.59102 179.950069 
L 431.242892 179.950069 
L 431.894765 169.170487 
L 432.546637 174.560278 
L 433.19851 174.560278 
L 433.850382 158.390905 
L 434.502255 158.390905 
L 435.154127 136.83174 
L 435.806 163.780696 
L 436.457873 147.611322 
L 437.109745 169.170487 
L 437.761617 179.950069 
L 438.41349 185.339861 
L 439.065362 185.339861 
L 439.717235 169.170487 
L 440.369107 185.339861 
L 441.02098 174.560278 
L 441.672852 174.560278 
L 442.324725 163.780696 
L 442.976597 169.170487 
L 443.62847 158.390905 
L 444.280342 185.339861 
L 444.932215 185.339861 
L 445.584088 169.170487 
L 446.23596 174.560278 
L 446.887833 163.780696 
L 447.539705 174.560278 
L 448.191577 179.950069 
L 448.84345 169.170487 
L 450.147195 179.950069 
L 450.799067 169.170487 
L 451.45094 179.950069 
L 452.102812 169.170487 
L 452.754685 179.950069 
L 453.406557 185.339861 
L 454.05843 185.339861 
L 454.710302 179.950069 
L 455.362175 185.339861 
L 456.014048 179.950069 
L 456.66592 185.339861 
L 457.317792 179.950069 
L 457.969665 185.339861 
L 458.621537 179.950069 
L 459.27341 185.339861 
L 459.925282 179.950069 
L 460.577155 185.339861 
L 461.229027 163.780696 
L 461.8809 179.950069 
L 462.532772 185.339861 
L 463.836517 185.339861 
L 464.48839 179.950069 
L 465.140263 185.339861 
L 465.792135 179.950069 
L 466.444007 179.950069 
L 467.09588 169.170487 
L 467.747752 174.560278 
L 468.399625 185.339861 
L 469.051497 179.950069 
L 469.70337 179.950069 
L 470.355242 185.339861 
L 472.31086 185.339861 
L 472.962732 179.950069 
L 473.614605 185.339861 
L 474.266478 179.950069 
L 474.91835 169.170487 
L 475.570222 179.950069 
L 476.222095 185.339861 
L 476.873967 179.950069 
L 477.52584 185.339861 
L 478.829585 185.339861 
L 479.481457 179.950069 
L 480.13333 185.339861 
L 480.785202 179.950069 
L 481.437075 169.170487 
L 482.088947 174.560278 
L 482.74082 169.170487 
L 483.392693 179.950069 
L 484.044565 185.339861 
L 484.696438 185.339861 
L 485.34831 179.950069 
L 486.652055 179.950069 
L 487.303927 185.339861 
L 487.9558 185.339861 
L 488.607672 179.950069 
L 489.259545 185.339861 
L 489.911417 174.560278 
L 490.56329 179.950069 
L 491.215162 179.950069 
L 491.867035 185.339861 
L 493.17078 185.339861 
L 493.822653 179.950069 
L 494.474525 185.339861 
L 495.77827 185.339861 
L 496.430142 179.950069 
L 497.082015 179.950069 
L 497.733887 185.339861 
L 498.38576 179.950069 
L 499.037632 179.950069 
L 499.689505 185.339861 
L 500.99325 174.560278 
L 501.645122 185.339861 
L 504.904485 185.339861 
L 505.556357 174.560278 
L 506.20823 185.339861 
L 506.860102 179.950069 
L 507.511975 179.950069 
L 508.163847 169.170487 
L 508.81572 179.950069 
L 509.467592 174.560278 
L 510.119465 174.560278 
L 511.42321 163.780696 
L 512.075083 179.950069 
L 512.726955 185.339861 
L 513.378828 174.560278 
L 514.682572 163.780696 
L 515.334445 169.170487 
L 515.986318 185.339861 
L 516.63819 185.339861 
L 517.290062 179.950069 
L 518.593808 179.950069 
L 519.24568 174.560278 
L 519.897552 163.780696 
L 520.549425 179.950069 
L 521.201298 174.560278 
L 521.85317 174.560278 
L 522.505043 169.170487 
L 523.156915 153.001113 
L 523.808787 174.560278 
L 524.46066 174.560278 
L 525.112533 185.339861 
L 526.416277 174.560278 
L 527.06815 153.001113 
L 527.720023 163.780696 
L 528.371895 158.390905 
L 529.023767 174.560278 
L 530.327513 153.001113 
L 530.979385 158.390905 
L 531.631258 185.339861 
L 532.28313 179.950069 
L 532.935002 185.339861 
L 534.238748 185.339861 
L 535.542492 174.560278 
L 536.194365 158.390905 
L 536.846238 163.780696 
L 537.49811 179.950069 
L 538.149982 179.950069 
L 539.453728 169.170487 
L 540.757473 179.950069 
L 541.409345 179.950069 
L 542.061217 153.001113 
L 542.71309 179.950069 
L 543.364963 163.780696 
L 544.016835 169.170487 
L 544.668707 169.170487 
L 545.32058 158.390905 
L 545.972453 174.560278 
L 546.624325 163.780696 
L 549.231815 185.339861 
L 549.883687 185.339861 
L 551.187432 174.560278 
L 552.491178 174.560278 
L 553.14305 169.170487 
L 553.794922 179.950069 
L 554.446795 185.339861 
L 555.098668 179.950069 
L 555.75054 185.339861 
L 556.402412 185.339861 
L 557.054285 179.950069 
L 558.35803 179.950069 
L 559.009902 185.339861 
L 559.661775 185.339861 
L 560.313648 169.170487 
L 560.96552 179.950069 
L 561.617392 185.339861 
L 562.269265 147.611322 
L 562.921137 174.560278 
L 563.57301 185.339861 
L 564.224882 174.560278 
L 564.876755 185.339861 
L 565.528627 185.339861 
L 566.1805 174.560278 
L 566.832373 179.950069 
L 568.136117 179.950069 
L 568.78799 185.339861 
L 569.439863 179.950069 
L 570.743607 179.950069 
L 571.39548 185.339861 
L 572.047352 179.950069 
L 572.699225 185.339861 
L 573.351097 185.339861 
L 574.00297 169.170487 
L 574.654842 179.950069 
L 575.306715 169.170487 
L 575.958588 185.339861 
L 577.914205 185.339861 
L 578.566078 179.950069 
L 579.21795 185.339861 
L 583.129185 185.339861 
L 583.781057 174.560278 
L 584.43293 185.339861 
L 585.084803 185.339861 
L 586.388547 174.560278 
L 588.344165 174.560278 
L 588.996037 185.339861 
L 589.64791 179.950069 
L 590.299782 179.950069 
L 590.951655 185.339861 
L 591.603527 179.950069 
L 592.2554 185.339861 
L 592.907272 185.339861 
L 593.559145 179.950069 
L 594.211018 185.339861 
L 594.86289 179.950069 
L 595.514762 185.339861 
L 596.166635 179.950069 
L 596.818508 185.339861 
L 597.47038 179.950069 
L 598.122252 185.339861 
L 598.774125 185.339861 
L 599.425997 179.950069 
L 600.07787 185.339861 
L 600.729742 179.950069 
L 601.381615 185.339861 
L 602.68536 185.339861 
L 603.337233 179.950069 
L 603.989105 185.339861 
L 607.248467 185.339861 
L 607.90034 179.950069 
L 608.552212 185.339861 
L 609.204085 174.560278 
L 609.855957 174.560278 
L 610.50783 185.339861 
L 612.463448 185.339861 
L 613.11532 174.560278 
L 613.767192 179.950069 
L 614.419065 169.170487 
L 615.070938 147.611322 
L 615.72281 109.882784 
L 616.374682 34.425708 
L 617.026555 109.882784 
L 617.678427 142.221531 
L 618.3303 142.221531 
L 618.982172 158.390905 
L 619.634045 126.052158 
L 620.285917 147.611322 
L 620.93779 136.83174 
L 621.589662 163.780696 
L 622.241535 115.272575 
L 622.893407 104.492993 
L 623.54528 131.441949 
L 624.197153 174.560278 
L 624.849025 169.170487 
L 625.500897 179.950069 
L 626.15277 163.780696 
L 628.108387 179.950069 
L 628.76026 158.390905 
L 629.412132 153.001113 
L 630.064005 136.83174 
L 630.715877 163.780696 
L 631.36775 158.390905 
L 632.019622 147.611322 
L 632.671495 179.950069 
L 633.323368 174.560278 
L 633.97524 174.560278 
L 634.627112 142.221531 
L 635.278985 169.170487 
L 635.930858 174.560278 
L 636.58273 158.390905 
L 637.234602 153.001113 
L 637.886475 169.170487 
L 639.19022 136.83174 
L 639.842092 163.780696 
L 640.493965 185.339861 
L 643.101455 185.339861 
L 644.4052 174.560278 
L 645.057073 158.390905 
L 645.708945 169.170487 
L 646.360817 163.780696 
L 647.01269 153.001113 
L 647.664562 163.780696 
L 648.316435 169.170487 
L 648.968307 179.950069 
L 649.62018 169.170487 
L 650.272052 185.339861 
L 651.575798 163.780696 
L 652.22767 179.950069 
L 652.879542 174.560278 
L 653.531415 158.390905 
L 654.183288 185.339861 
L 654.83516 174.560278 
L 655.487032 185.339861 
L 656.790777 185.339861 
L 657.44265 179.950069 
L 658.094522 185.339861 
L 658.746395 179.950069 
L 659.398267 185.339861 
L 660.05014 174.560278 
L 660.702013 179.950069 
L 661.353885 158.390905 
L 662.005757 169.170487 
L 662.65763 185.339861 
L 663.309503 174.560278 
L 663.961375 179.950069 
L 664.613247 179.950069 
L 665.26512 174.560278 
L 667.220737 174.560278 
L 667.87261 169.170487 
L 669.176355 179.950069 
L 669.828228 179.950069 
L 670.4801 185.339861 
L 671.131972 153.001113 
L 671.783845 174.560278 
L 672.435718 185.339861 
L 673.739462 185.339861 
L 674.391335 158.390905 
L 675.043207 179.950069 
L 675.69508 179.950069 
L 676.346952 163.780696 
L 676.998825 142.221531 
L 677.650697 136.83174 
L 678.30257 169.170487 
L 678.954443 179.950069 
L 679.606315 174.560278 
L 680.258187 174.560278 
L 680.91006 185.339861 
L 681.561933 169.170487 
L 682.213805 185.339861 
L 682.865677 163.780696 
L 683.51755 174.560278 
L 684.169422 179.950069 
L 685.473167 179.950069 
L 686.12504 169.170487 
L 686.776912 174.560278 
L 687.428785 185.339861 
L 690.036275 185.339861 
L 690.688148 169.170487 
L 692.643765 169.170487 
L 693.295637 163.780696 
L 693.94751 179.950069 
L 695.251255 158.390905 
L 695.903127 174.560278 
L 696.555 174.560278 
L 696.555 174.560278 
" clip-path="url(#pd92fd876d4)" style="fill: none; stroke: #1f77b4; stroke-width: 1.5; stroke-linecap: square"/>
   </g>
   <g id="patch_3">
    <path d="M 44.6825 192.885568 
L 44.6825 26.88 
" style="fill: none; stroke: #000000; stroke-width: 0.8; stroke-linejoin: miter; stroke-linecap: square"/>
   </g>
   <g id="patch_4">
    <path d="M 696.555 192.885568 
L 696.555 26.88 
" style="fill: none; stroke: #000000; stroke-width: 0.8; stroke-linejoin: miter; stroke-linecap: square"/>
   </g>
   <g id="patch_5">
    <path d="M 44.6825 192.885568 
L 696.555 192.885568 
" style="fill: none; stroke: #000000; stroke-width: 0.8; stroke-linejoin: miter; stroke-linecap: square"/>
   </g>
   <g id="patch_6">
    <path d="M 44.6825 26.88 
L 696.555 26.88 
" style="fill: none; stroke: #000000; stroke-width: 0.8; stroke-linejoin: miter; stroke-linecap: square"/>
   </g>
   <g id="text_9">
    <!-- Semnal inițial -->
    <g transform="translate(329.72125 20.88) scale(0.12 -0.12)">
     <defs>
      <path id="DejaVuSans-53" d="M 3425 4513 
L 3425 3897 
Q 3066 4069 2747 4153 
Q 2428 4238 2131 4238 
Q 1616 4238 1336 4038 
Q 1056 3838 1056 3469 
Q 1056 3159 1242 3001 
Q 1428 2844 1947 2747 
L 2328 2669 
Q 3034 2534 3370 2195 
Q 3706 1856 3706 1288 
Q 3706 609 3251 259 
Q 2797 -91 1919 -91 
Q 1588 -91 1214 -16 
Q 841 59 441 206 
L 441 856 
Q 825 641 1194 531 
Q 1563 422 1919 422 
Q 2459 422 2753 634 
Q 3047 847 3047 1241 
Q 3047 1584 2836 1778 
Q 2625 1972 2144 2069 
L 1759 2144 
Q 1053 2284 737 2584 
Q 422 2884 422 3419 
Q 422 4038 858 4394 
Q 1294 4750 2059 4750 
Q 2388 4750 2728 4690 
Q 3069 4631 3425 4513 
z
" transform="scale(0.015625)"/>
      <path id="DejaVuSans-65" d="M 3597 1894 
L 3597 1613 
L 953 1613 
Q 991 1019 1311 708 
Q 1631 397 2203 397 
Q 2534 397 2845 478 
Q 3156 559 3463 722 
L 3463 178 
Q 3153 47 2828 -22 
Q 2503 -91 2169 -91 
Q 1331 -91 842 396 
Q 353 884 353 1716 
Q 353 2575 817 3079 
Q 1281 3584 2069 3584 
Q 2775 3584 3186 3129 
Q 3597 2675 3597 1894 
z
M 3022 2063 
Q 3016 2534 2758 2815 
Q 2500 3097 2075 3097 
Q 1594 3097 1305 2825 
Q 1016 2553 972 2059 
L 3022 2063 
z
" transform="scale(0.015625)"/>
      <path id="DejaVuSans-6c" d="M 603 4863 
L 1178 4863 
L 1178 0 
L 603 0 
L 603 4863 
z
" transform="scale(0.015625)"/>
      <path id="DejaVuSans-21b" d="M 1388 -538 
L 2047 -538 
L 1534 -1538 
L 1131 -1538 
L 1388 -538 
z
M 1172 4494 
L 1172 3500 
L 2356 3500 
L 2356 3053 
L 1172 3053 
L 1172 1153 
Q 1172 725 1289 603 
Q 1406 481 1766 481 
L 2356 481 
L 2356 0 
L 1766 0 
Q 1100 0 847 248 
Q 594 497 594 1153 
L 594 3053 
L 172 3053 
L 172 3500 
L 594 3500 
L 594 4494 
L 1172 4494 
z
" transform="scale(0.015625)"/>
     </defs>
     <use xlink:href="#DejaVuSans-53"/>
     <use xlink:href="#DejaVuSans-65" transform="translate(63.476562 0)"/>
     <use xlink:href="#DejaVuSans-6d" transform="translate(125 0)"/>
     <use xlink:href="#DejaVuSans-6e" transform="translate(222.412109 0)"/>
     <use xlink:href="#DejaVuSans-61" transform="translate(285.791016 0)"/>
     <use xlink:href="#DejaVuSans-6c" transform="translate(347.070312 0)"/>
     <use xlink:href="#DejaVuSans-20" transform="translate(374.853516 0)"/>
     <use xlink:href="#DejaVuSans-69" transform="translate(406.640625 0)"/>
     <use xlink:href="#DejaVuSans-6e" transform="translate(434.423828 0)"/>
     <use xlink:href="#DejaVuSans-69" transform="translate(497.802734 0)"/>
     <use xlink:href="#DejaVuSans-21b" transform="translate(525.585938 0)"/>
     <use xlink:href="#DejaVuSans-69" transform="translate(564.794922 0)"/>
     <use xlink:href="#DejaVuSans-61" transform="translate(592.578125 0)"/>
     <use xlink:href="#DejaVuSans-6c" transform="translate(653.857422 0)"/>
    </g>
   </g>
   <g id="legend_1">
    <g id="patch_7">
     <path d="M 51.6825 49.558125 
L 161.724688 49.558125 
Q 163.724688 49.558125 163.724688 47.558125 
L 163.724688 33.88 
Q 163.724688 31.88 161.724688 31.88 
L 51.6825 31.88 
Q 49.6825 31.88 49.6825 33.88 
L 49.6825 47.558125 
Q 49.6825 49.558125 51.6825 49.558125 
z
" style="fill: #ffffff; opacity: 0.8; stroke: #cccccc; stroke-linejoin: miter"/>
    </g>
    <g id="line2d_15">
     <path d="M 53.6825 39.978438 
L 63.6825 39.978438 
L 73.6825 39.978438 
" style="fill: none; stroke: #1f77b4; stroke-width: 1.5; stroke-linecap: square"/>
    </g>
    <g id="text_10">
     <!-- Semnal original -->
     <g transform="translate(81.6825 43.478438) scale(0.1 -0.1)">
      <defs>
       <path id="DejaVuSans-6f" d="M 1959 3097 
Q 1497 3097 1228 2736 
Q 959 2375 959 1747 
Q 959 1119 1226 758 
Q 1494 397 1959 397 
Q 2419 397 2687 759 
Q 2956 1122 2956 1747 
Q 2956 2369 2687 2733 
Q 2419 3097 1959 3097 
z
M 1959 3584 
Q 2709 3584 3137 3096 
Q 3566 2609 3566 1747 
Q 3566 888 3137 398 
Q 2709 -91 1959 -91 
Q 1206 -91 779 398 
Q 353 888 353 1747 
Q 353 2609 779 3096 
Q 1206 3584 1959 3584 
z
" transform="scale(0.015625)"/>
       <path id="DejaVuSans-67" d="M 2906 1791 
Q 2906 2416 2648 2759 
Q 2391 3103 1925 3103 
Q 1463 3103 1205 2759 
Q 947 2416 947 1791 
Q 947 1169 1205 825 
Q 1463 481 1925 481 
Q 2391 481 2648 825 
Q 2906 1169 2906 1791 
z
M 3481 434 
Q 3481 -459 3084 -895 
Q 2688 -1331 1869 -1331 
Q 1566 -1331 1297 -1286 
Q 1028 -1241 775 -1147 
L 775 -588 
Q 1028 -725 1275 -790 
Q 1522 -856 1778 -856 
Q 2344 -856 2625 -561 
Q 2906 -266 2906 331 
L 2906 616 
Q 2728 306 2450 153 
Q 2172 0 1784 0 
Q 1141 0 747 490 
Q 353 981 353 1791 
Q 353 2603 747 3093 
Q 1141 3584 1784 3584 
Q 2172 3584 2450 3431 
Q 2728 3278 2906 2969 
L 2906 3500 
L 3481 3500 
L 3481 434 
z
" transform="scale(0.015625)"/>
      </defs>
      <use xlink:href="#DejaVuSans-53"/>
      <use xlink:href="#DejaVuSans-65" transform="translate(63.476562 0)"/>
      <use xlink:href="#DejaVuSans-6d" transform="translate(125 0)"/>
      <use xlink:href="#DejaVuSans-6e" transform="translate(222.412109 0)"/>
      <use xlink:href="#DejaVuSans-61" transform="translate(285.791016 0)"/>
      <use xlink:href="#DejaVuSans-6c" transform="translate(347.070312 0)"/>
      <use xlink:href="#DejaVuSans-20" transform="translate(374.853516 0)"/>
      <use xlink:href="#DejaVuSans-6f" transform="translate(406.640625 0)"/>
      <use xlink:href="#DejaVuSans-72" transform="translate(467.822266 0)"/>
      <use xlink:href="#DejaVuSans-69" transform="translate(508.935547 0)"/>
      <use xlink:href="#DejaVuSans-67" transform="translate(536.71875 0)"/>
      <use xlink:href="#DejaVuSans-69" transform="translate(600.195312 0)"/>
      <use xlink:href="#DejaVuSans-6e" transform="translate(627.978516 0)"/>
      <use xlink:href="#DejaVuSans-61" transform="translate(691.357422 0)"/>
      <use xlink:href="#DejaVuSans-6c" transform="translate(752.636719 0)"/>
     </g>
    </g>
   </g>
  </g>
  <g id="axes_2">
   <g id="patch_8">
    <path d="M 44.6825 389.9275 
L 696.555 389.9275 
L 696.555 223.921932 
L 44.6825 223.921932 
z
" style="fill: #ffffff"/>
   </g>
   <g id="matplotlib.axis_3">
    <g id="xtick_7">
     <g id="line2d_16">
      <g>
       <use xlink:href="#m75729d54b9" x="44.6825" y="389.9275" style="stroke: #000000; stroke-width: 0.8"/>
      </g>
     </g>
     <g id="text_11">
      <!-- 0 -->
      <g transform="translate(41.50125 404.525938) scale(0.1 -0.1)">
       <use xlink:href="#DejaVuSans-30"/>
      </g>
     </g>
    </g>
    <g id="xtick_8">
     <g id="line2d_17">
      <g>
       <use xlink:href="#m75729d54b9" x="175.057" y="389.9275" style="stroke: #000000; stroke-width: 0.8"/>
      </g>
     </g>
     <g id="text_12">
      <!-- 200 -->
      <g transform="translate(165.51325 404.525938) scale(0.1 -0.1)">
       <use xlink:href="#DejaVuSans-32"/>
       <use xlink:href="#DejaVuSans-30" transform="translate(63.623047 0)"/>
       <use xlink:href="#DejaVuSans-30" transform="translate(127.246094 0)"/>
      </g>
     </g>
    </g>
    <g id="xtick_9">
     <g id="line2d_18">
      <g>
       <use xlink:href="#m75729d54b9" x="305.4315" y="389.9275" style="stroke: #000000; stroke-width: 0.8"/>
      </g>
     </g>
     <g id="text_13">
      <!-- 400 -->
      <g transform="translate(295.88775 404.525938) scale(0.1 -0.1)">
       <use xlink:href="#DejaVuSans-34"/>
       <use xlink:href="#DejaVuSans-30" transform="translate(63.623047 0)"/>
       <use xlink:href="#DejaVuSans-30" transform="translate(127.246094 0)"/>
      </g>
     </g>
    </g>
    <g id="xtick_10">
     <g id="line2d_19">
      <g>
       <use xlink:href="#m75729d54b9" x="435.806" y="389.9275" style="stroke: #000000; stroke-width: 0.8"/>
      </g>
     </g>
     <g id="text_14">
      <!-- 600 -->
      <g transform="translate(426.26225 404.525938) scale(0.1 -0.1)">
       <use xlink:href="#DejaVuSans-36"/>
       <use xlink:href="#DejaVuSans-30" transform="translate(63.623047 0)"/>
       <use xlink:href="#DejaVuSans-30" transform="translate(127.246094 0)"/>
      </g>
     </g>
    </g>
    <g id="xtick_11">
     <g id="line2d_20">
      <g>
       <use xlink:href="#m75729d54b9" x="566.1805" y="389.9275" style="stroke: #000000; stroke-width: 0.8"/>
      </g>
     </g>
     <g id="text_15">
      <!-- 800 -->
      <g transform="translate(556.63675 404.525938) scale(0.1 -0.1)">
       <defs>
        <path id="DejaVuSans-38" d="M 2034 2216 
Q 1584 2216 1326 1975 
Q 1069 1734 1069 1313 
Q 1069 891 1326 650 
Q 1584 409 2034 409 
Q 2484 409 2743 651 
Q 3003 894 3003 1313 
Q 3003 1734 2745 1975 
Q 2488 2216 2034 2216 
z
M 1403 2484 
Q 997 2584 770 2862 
Q 544 3141 544 3541 
Q 544 4100 942 4425 
Q 1341 4750 2034 4750 
Q 2731 4750 3128 4425 
Q 3525 4100 3525 3541 
Q 3525 3141 3298 2862 
Q 3072 2584 2669 2484 
Q 3125 2378 3379 2068 
Q 3634 1759 3634 1313 
Q 3634 634 3220 271 
Q 2806 -91 2034 -91 
Q 1263 -91 848 271 
Q 434 634 434 1313 
Q 434 1759 690 2068 
Q 947 2378 1403 2484 
z
M 1172 3481 
Q 1172 3119 1398 2916 
Q 1625 2713 2034 2713 
Q 2441 2713 2670 2916 
Q 2900 3119 2900 3481 
Q 2900 3844 2670 4047 
Q 2441 4250 2034 4250 
Q 1625 4250 1398 4047 
Q 1172 3844 1172 3481 
z
" transform="scale(0.015625)"/>
       </defs>
       <use xlink:href="#DejaVuSans-38"/>
       <use xlink:href="#DejaVuSans-30" transform="translate(63.623047 0)"/>
       <use xlink:href="#DejaVuSans-30" transform="translate(127.246094 0)"/>
      </g>
     </g>
    </g>
    <g id="xtick_12">
     <g id="line2d_21">
      <g>
       <use xlink:href="#m75729d54b9" x="696.555" y="389.9275" style="stroke: #000000; stroke-width: 0.8"/>
      </g>
     </g>
     <g id="text_16">
      <!-- 1000 -->
      <g transform="translate(683.83 404.525938) scale(0.1 -0.1)">
       <use xlink:href="#DejaVuSans-31"/>
       <use xlink:href="#DejaVuSans-30" transform="translate(63.623047 0)"/>
       <use xlink:href="#DejaVuSans-30" transform="translate(127.246094 0)"/>
       <use xlink:href="#DejaVuSans-30" transform="translate(190.869141 0)"/>
      </g>
     </g>
    </g>
    <g id="text_17">
     <!-- Eșantion -->
     <g transform="translate(349.044531 418.204063) scale(0.1 -0.1)">
      <defs>
       <path id="DejaVuSans-45" d="M 628 4666 
L 3578 4666 
L 3578 4134 
L 1259 4134 
L 1259 2753 
L 3481 2753 
L 3481 2222 
L 1259 2222 
L 1259 531 
L 3634 531 
L 3634 0 
L 628 0 
L 628 4666 
z
" transform="scale(0.015625)"/>
       <path id="DejaVuSans-74" d="M 1172 4494 
L 1172 3500 
L 2356 3500 
L 2356 3053 
L 1172 3053 
L 1172 1153 
Q 1172 725 1289 603 
Q 1406 481 1766 481 
L 2356 481 
L 2356 0 
L 1766 0 
Q 1100 0 847 248 
Q 594 497 594 1153 
L 594 3053 
L 172 3053 
L 172 3500 
L 594 3500 
L 594 4494 
L 1172 4494 
z
" transform="scale(0.015625)"/>
      </defs>
      <use xlink:href="#DejaVuSans-45"/>
      <use xlink:href="#DejaVuSans-219" transform="translate(63.183594 0)"/>
      <use xlink:href="#DejaVuSans-61" transform="translate(115.283203 0)"/>
      <use xlink:href="#DejaVuSans-6e" transform="translate(176.5625 0)"/>
      <use xlink:href="#DejaVuSans-74" transform="translate(239.941406 0)"/>
      <use xlink:href="#DejaVuSans-69" transform="translate(279.150391 0)"/>
      <use xlink:href="#DejaVuSans-6f" transform="translate(306.933594 0)"/>
      <use xlink:href="#DejaVuSans-6e" transform="translate(368.115234 0)"/>
     </g>
    </g>
   </g>
   <g id="matplotlib.axis_4">
    <g id="ytick_8">
     <g id="line2d_22">
      <g>
       <use xlink:href="#m84206a6213" x="44.6825" y="383.9372" style="stroke: #000000; stroke-width: 0.8"/>
      </g>
     </g>
     <g id="text_18">
      <!-- 0 -->
      <g transform="translate(31.32 387.736419) scale(0.1 -0.1)">
       <use xlink:href="#DejaVuSans-30"/>
      </g>
     </g>
    </g>
    <g id="ytick_9">
     <g id="line2d_23">
      <g>
       <use xlink:href="#m84206a6213" x="44.6825" y="354.964531" style="stroke: #000000; stroke-width: 0.8"/>
      </g>
     </g>
     <g id="text_19">
      <!-- 5 -->
      <g transform="translate(31.32 358.76375) scale(0.1 -0.1)">
       <use xlink:href="#DejaVuSans-35"/>
      </g>
     </g>
    </g>
    <g id="ytick_10">
     <g id="line2d_24">
      <g>
       <use xlink:href="#m84206a6213" x="44.6825" y="325.991861" style="stroke: #000000; stroke-width: 0.8"/>
      </g>
     </g>
     <g id="text_20">
      <!-- 10 -->
      <g transform="translate(24.9575 329.79108) scale(0.1 -0.1)">
       <use xlink:href="#DejaVuSans-31"/>
       <use xlink:href="#DejaVuSans-30" transform="translate(63.623047 0)"/>
      </g>
     </g>
    </g>
    <g id="ytick_11">
     <g id="line2d_25">
      <g>
       <use xlink:href="#m84206a6213" x="44.6825" y="297.019192" style="stroke: #000000; stroke-width: 0.8"/>
      </g>
     </g>
     <g id="text_21">
      <!-- 15 -->
      <g transform="translate(24.9575 300.818411) scale(0.1 -0.1)">
       <use xlink:href="#DejaVuSans-31"/>
       <use xlink:href="#DejaVuSans-35" transform="translate(63.623047 0)"/>
      </g>
     </g>
    </g>
    <g id="ytick_12">
     <g id="line2d_26">
      <g>
       <use xlink:href="#m84206a6213" x="44.6825" y="268.046522" style="stroke: #000000; stroke-width: 0.8"/>
      </g>
     </g>
     <g id="text_22">
      <!-- 20 -->
      <g transform="translate(24.9575 271.845741) scale(0.1 -0.1)">
       <use xlink:href="#DejaVuSans-32"/>
       <use xlink:href="#DejaVuSans-30" transform="translate(63.623047 0)"/>
      </g>
     </g>
    </g>
    <g id="ytick_13">
     <g id="line2d_27">
      <g>
       <use xlink:href="#m84206a6213" x="44.6825" y="239.073853" style="stroke: #000000; stroke-width: 0.8"/>
      </g>
     </g>
     <g id="text_23">
      <!-- 25 -->
      <g transform="translate(24.9575 242.873071) scale(0.1 -0.1)">
       <use xlink:href="#DejaVuSans-32"/>
       <use xlink:href="#DejaVuSans-35" transform="translate(63.623047 0)"/>
      </g>
     </g>
    </g>
    <g id="text_24">
     <!-- Număr mașini -->
     <g transform="translate(18.554375 341.898935) rotate(-90) scale(0.1 -0.1)">
      <use xlink:href="#DejaVuSans-4e"/>
      <use xlink:href="#DejaVuSans-75" transform="translate(74.804688 0)"/>
      <use xlink:href="#DejaVuSans-6d" transform="translate(138.183594 0)"/>
      <use xlink:href="#DejaVuSans-103" transform="translate(235.595703 0)"/>
      <use xlink:href="#DejaVuSans-72" transform="translate(296.875 0)"/>
      <use xlink:href="#DejaVuSans-20" transform="translate(337.988281 0)"/>
      <use xlink:href="#DejaVuSans-6d" transform="translate(369.775391 0)"/>
      <use xlink:href="#DejaVuSans-61" transform="translate(467.1875 0)"/>
      <use xlink:href="#DejaVuSans-219" transform="translate(528.466797 0)"/>
      <use xlink:href="#DejaVuSans-69" transform="translate(580.566406 0)"/>
      <use xlink:href="#DejaVuSans-6e" transform="translate(608.349609 0)"/>
      <use xlink:href="#DejaVuSans-69" transform="translate(671.728516 0)"/>
     </g>
    </g>
   </g>
   <g id="line2d_28">
    <path d="M 44.6825 353.105978 
L 45.334373 363.772514 
L 45.986245 372.088941 
L 46.638118 376.782205 
L 47.28999 377.411873 
L 47.941863 374.43337 
L 49.89748 357.708905 
L 50.549353 354.748938 
L 51.201225 354.711338 
L 51.853098 357.49499 
L 53.808715 372.697298 
L 54.460588 375.720113 
L 55.11246 376.231711 
L 55.764333 374.224036 
L 56.416205 370.321898 
L 57.71995 361.300814 
L 58.371823 358.506661 
L 59.023695 357.884334 
L 59.675568 359.529162 
L 60.32744 362.96428 
L 61.631185 371.385629 
L 62.283058 374.269657 
L 62.93493 375.26074 
L 63.586803 374.165644 
L 64.238675 371.290235 
L 66.194293 359.690694 
L 66.846165 357.454609 
L 67.498038 356.695698 
L 68.14991 357.237452 
L 70.105528 361.277015 
L 70.7574 361.656767 
L 71.409273 361.218055 
L 72.713018 359.123885 
L 73.36489 358.481237 
L 74.016763 358.722995 
L 74.668635 360.044101 
L 75.320508 362.335194 
L 76.624253 368.102496 
L 77.276125 370.443492 
L 77.927998 371.803138 
L 78.57987 372.02099 
L 79.231743 371.248122 
L 80.535488 368.544492 
L 81.18736 367.71748 
L 81.839233 367.782428 
L 82.491105 368.81019 
L 84.446723 374.065443 
L 85.098595 374.668114 
L 85.750468 373.998031 
L 86.40234 372.073961 
L 88.357958 363.732344 
L 89.00983 362.432681 
L 89.661703 362.739377 
L 90.313575 364.663296 
L 91.61732 371.439003 
L 92.269193 374.69716 
L 92.921065 376.780458 
L 93.572938 377.16939 
L 94.22481 375.762514 
L 94.876683 372.910763 
L 96.180428 365.951009 
L 96.8323 363.631161 
L 97.484172 362.98714 
L 98.136045 364.20603 
L 98.787918 366.99707 
L 100.091663 374.252281 
L 100.743535 376.834254 
L 101.395408 377.695939 
L 102.04728 376.542254 
L 102.699153 373.568727 
L 104.65477 361.343078 
L 105.306643 359.218662 
L 105.958515 359.069538 
L 106.610388 360.854137 
L 107.26226 364.078403 
L 108.566005 371.481395 
L 109.217878 373.93474 
L 109.86975 374.803916 
L 110.521623 374.03052 
L 111.173495 371.980587 
L 112.47724 366.89832 
L 113.129113 365.390855 
L 113.780985 365.255647 
L 114.432858 366.552168 
L 115.08473 368.948601 
L 116.388475 374.402022 
L 117.040347 376.021097 
L 117.69222 376.237024 
L 118.344093 374.964797 
L 118.995965 372.483066 
L 120.29971 366.258463 
L 120.951583 363.842026 
L 121.603455 362.531887 
L 122.255328 362.454246 
L 122.9072 363.422208 
L 124.862818 367.998677 
L 125.51469 368.640032 
L 126.166562 368.590307 
L 127.470308 367.463624 
L 128.12218 367.1818 
L 128.774053 367.519029 
L 129.425925 368.541733 
L 130.72967 371.59847 
L 131.381542 372.650977 
L 132.033415 372.699765 
L 132.685288 371.443742 
L 133.33716 368.896863 
L 135.292777 358.394242 
L 135.94465 356.362781 
L 136.596523 356.054079 
L 137.248395 357.581105 
L 137.900268 360.633318 
L 139.204013 368.415886 
L 139.855885 371.394811 
L 140.507757 372.826241 
L 141.15963 372.450606 
L 141.811503 370.466609 
L 143.115248 364.374951 
L 143.76712 362.043591 
L 144.418993 361.198235 
L 145.070865 362.157431 
L 145.722737 364.756606 
L 147.026483 372.081621 
L 147.678355 374.858374 
L 148.330228 375.857365 
L 148.9821 374.616676 
L 149.633972 371.187425 
L 152.241463 351.48131 
L 152.893335 350.009469 
L 153.545208 350.995293 
L 154.19708 354.112673 
L 156.152698 367.20826 
L 156.80457 369.410487 
L 157.456443 369.438066 
L 158.108315 367.316995 
L 158.760188 363.539166 
L 160.063932 354.414805 
L 160.715805 350.848628 
L 161.367678 348.778031 
L 162.01955 348.363892 
L 162.671423 349.374175 
L 164.62704 355.140856 
L 165.278913 356.057287 
L 165.930785 356.033133 
L 166.582658 355.247694 
L 167.886403 353.127765 
L 168.538275 352.756545 
L 169.190147 353.271101 
L 169.84202 354.691608 
L 171.797638 361.204743 
L 172.44951 362.600083 
L 173.101382 363.031025 
L 173.753255 362.448837 
L 174.405127 361.026544 
L 176.360745 355.247891 
L 177.012618 353.892026 
L 177.66449 353.035204 
L 178.316362 352.571486 
L 179.620107 352.034138 
L 181.575725 350.747339 
L 182.227598 350.676817 
L 182.87947 351.236911 
L 183.531342 352.634866 
L 184.183215 354.912209 
L 185.48696 361.233793 
L 186.138833 364.415361 
L 186.790705 366.926587 
L 187.442577 368.34643 
L 188.09445 368.451902 
L 188.746322 367.27149 
L 189.398195 365.076624 
L 191.353813 357.050407 
L 192.005685 355.282076 
L 192.657557 354.247094 
L 193.30943 353.798095 
L 194.613175 353.460716 
L 195.265048 353.003199 
L 195.91692 352.202474 
L 197.220665 350.332754 
L 197.872537 350.023281 
L 198.52441 350.677184 
L 199.176282 352.54313 
L 199.828155 355.619553 
L 202.435645 371.381747 
L 203.087517 373.230658 
L 203.73939 373.521266 
L 204.391262 372.413642 
L 206.34688 366.160648 
L 206.998752 365.227835 
L 207.650625 365.531569 
L 208.302497 366.997208 
L 210.258115 373.418628 
L 210.909987 374.135416 
L 211.56186 373.437921 
L 212.213732 371.36137 
L 213.517477 364.772449 
L 214.16935 361.547547 
L 214.821223 359.191103 
L 215.473095 358.060117 
L 216.124967 358.194698 
L 216.77684 359.324616 
L 218.080585 362.539357 
L 218.732458 363.597074 
L 219.38433 363.897311 
L 220.036203 363.501812 
L 221.339947 362.138931 
L 221.99182 362.184911 
L 222.643692 363.222336 
L 223.295565 365.279599 
L 224.59931 370.787695 
L 225.251182 372.749408 
L 225.903055 373.102585 
L 226.554927 371.296461 
L 227.2068 367.209869 
L 228.510545 354.244774 
L 229.162418 347.428061 
L 229.81429 342.052862 
L 230.466162 339.18389 
L 231.118035 339.436998 
L 231.769907 342.824575 
L 232.42178 348.732111 
L 233.725525 363.330085 
L 234.377398 369.233361 
L 235.02927 372.670396 
L 235.681142 373.098496 
L 236.333015 370.606997 
L 236.984887 365.875534 
L 238.288633 354.246215 
L 238.940505 349.741823 
L 239.592377 347.259723 
L 240.24425 347.061376 
L 240.896122 348.881899 
L 242.85174 358.778699 
L 243.503613 360.852233 
L 244.155485 361.601504 
L 244.807357 361.199034 
L 246.111102 359.178863 
L 246.762975 358.917599 
L 247.414848 359.817553 
L 248.06672 361.969534 
L 250.022337 371.678105 
L 250.67421 373.72464 
L 251.326082 374.255852 
L 251.977955 373.184555 
L 252.629828 370.819394 
L 253.933572 364.903306 
L 254.585445 362.911942 
L 255.237317 362.344044 
L 255.88919 363.346666 
L 256.541063 365.637856 
L 257.844808 371.234463 
L 258.49668 372.753805 
L 259.148552 372.410677 
L 259.800425 369.864863 
L 260.452297 365.236883 
L 263.059788 341.334262 
L 263.71166 338.834781 
L 264.363533 338.981695 
L 265.015405 341.709001 
L 265.667278 346.538581 
L 268.274767 370.167675 
L 268.92664 373.369991 
L 269.578512 374.77619 
L 270.230385 374.523936 
L 270.882257 372.960573 
L 272.186003 367.789149 
L 273.489748 362.900896 
L 274.14162 361.377017 
L 274.793493 360.687611 
L 275.445365 360.8759 
L 276.097238 361.901947 
L 276.74911 363.650687 
L 278.052855 368.505065 
L 279.3566 373.244132 
L 280.008472 374.761083 
L 280.660345 375.34762 
L 281.312218 374.86306 
L 281.96409 373.319062 
L 282.615963 370.892378 
L 284.57158 361.947907 
L 285.223453 359.80015 
L 285.875325 358.589459 
L 286.527197 358.40161 
L 287.17907 359.1478 
L 287.830942 360.597757 
L 289.78656 366.127388 
L 290.438433 367.583592 
L 291.090305 368.721122 
L 292.39405 370.415593 
L 295.653413 374.261253 
L 296.305285 374.353846 
L 296.957157 373.946028 
L 297.60903 373.076129 
L 299.564647 369.75973 
L 300.21652 369.317311 
L 300.868392 369.498263 
L 301.520265 370.248262 
L 302.82401 372.385475 
L 303.475883 372.986594 
L 304.127755 372.77791 
L 304.779628 371.560201 
L 305.4315 369.361847 
L 307.387117 360.466134 
L 308.03899 358.485257 
L 308.690862 357.736009 
L 309.342735 358.350069 
L 309.994607 360.178405 
L 311.950225 368.363934 
L 312.602098 370.236423 
L 313.25397 371.13126 
L 313.905843 371.089244 
L 314.557715 370.398752 
L 315.209587 369.508442 
L 315.86146 368.897932 
L 316.513332 368.940557 
L 317.165205 369.794762 
L 317.817077 371.353579 
L 319.120822 375.029413 
L 319.772695 376.118598 
L 320.424567 376.135495 
L 321.07644 374.921896 
L 321.728313 372.615207 
L 323.68393 364.014935 
L 324.335802 362.530802 
L 324.987675 362.360242 
L 325.639547 363.449008 
L 327.595165 369.754928 
L 328.247037 370.886801 
L 328.89891 370.830766 
L 329.550782 369.5773 
L 330.854528 364.901832 
L 331.5064 362.618269 
L 332.158273 361.11089 
L 332.810145 360.697586 
L 333.462018 361.394837 
L 334.11389 362.91491 
L 335.417635 366.284865 
L 336.069507 367.01461 
L 336.72138 366.635001 
L 337.373252 365.15588 
L 339.32887 358.390382 
L 339.980742 357.364052 
L 340.632615 357.700576 
L 341.284488 359.432481 
L 341.93636 362.262476 
L 343.240105 368.889263 
L 343.891977 371.401736 
L 344.54385 372.765336 
L 345.195722 372.873007 
L 345.847595 371.935316 
L 347.15134 368.866348 
L 347.803212 367.818898 
L 348.455085 367.580338 
L 349.106957 368.170058 
L 350.410703 370.488713 
L 351.062575 371.13784 
L 351.714448 370.774631 
L 352.36632 369.170609 
L 353.018192 366.438795 
L 354.321937 359.657674 
L 354.97381 357.093972 
L 355.625682 356.009512 
L 356.277555 356.776454 
L 356.929427 359.360699 
L 358.233172 367.8339 
L 358.885045 371.998363 
L 359.536918 374.921436 
L 360.18879 375.988336 
L 360.840663 374.991862 
L 361.492535 372.176783 
L 363.448152 360.076593 
L 364.100025 357.550011 
L 364.751897 356.609183 
L 365.40377 357.180545 
L 366.055642 358.816908 
L 367.359387 362.493998 
L 368.01126 363.221342 
L 368.663132 362.738144 
L 369.315005 361.14033 
L 370.61875 356.546957 
L 371.270623 354.87104 
L 371.922495 354.346766 
L 372.574367 355.179539 
L 373.22624 357.204071 
L 374.529985 362.629348 
L 375.181857 364.603763 
L 375.83373 365.296153 
L 376.485602 364.481591 
L 377.137475 362.325664 
L 378.44122 356.300939 
L 379.093093 353.967875 
L 379.744965 352.977842 
L 380.396838 353.640496 
L 381.04871 355.871167 
L 383.6562 368.756594 
L 384.308072 369.789019 
L 384.959945 369.477172 
L 385.611817 368.18605 
L 386.915562 365.15284 
L 387.567435 364.632954 
L 388.219308 365.236946 
L 388.87118 366.89007 
L 390.174925 371.505378 
L 390.826797 373.173962 
L 391.47867 373.662873 
L 392.130542 372.731301 
L 392.782415 370.50048 
L 394.738032 361.534169 
L 395.389905 360.021981 
L 396.041777 359.951908 
L 396.69365 361.247386 
L 398.649268 368.192148 
L 399.30114 369.407304 
L 399.953012 369.419705 
L 400.604885 368.328726 
L 401.90863 364.770328 
L 402.560502 363.613965 
L 403.212375 363.603694 
L 403.864247 364.934754 
L 404.51612 367.423892 
L 405.819865 373.565381 
L 406.471737 375.726913 
L 407.12361 376.45675 
L 407.775483 375.51731 
L 408.427355 373.074105 
L 410.382972 362.905289 
L 411.034845 360.92562 
L 411.686717 360.298867 
L 412.33859 360.837462 
L 413.642335 362.969068 
L 414.294207 363.019179 
L 414.94608 361.592404 
L 415.597952 358.544378 
L 418.205443 341.592313 
L 418.857315 340.459621 
L 419.509187 341.58243 
L 420.16106 344.627685 
L 421.464805 352.855418 
L 422.116677 355.723847 
L 422.76855 356.45839 
L 423.420422 354.649614 
L 424.072295 350.51255 
L 426.027912 333.940278 
L 426.679785 331.121405 
L 427.331658 331.03246 
L 427.98353 333.598827 
L 429.939147 347.381548 
L 430.59102 349.397859 
L 431.242892 348.343037 
L 431.894765 344.071333 
L 432.546637 337.217445 
L 433.850382 321.324581 
L 434.502255 315.644568 
L 435.154127 313.344602 
L 435.806 315.059464 
L 436.457873 320.604688 
L 437.761617 338.770449 
L 438.41349 348.114956 
L 439.065362 355.458123 
L 439.717235 359.699572 
L 440.369107 360.442641 
L 441.02098 358.038209 
L 441.672852 353.45703 
L 442.976597 343.109974 
L 443.62847 339.779997 
L 444.280342 338.609499 
L 444.932215 339.580072 
L 445.584088 342.149939 
L 446.887833 348.527016 
L 447.539705 350.642987 
L 448.191577 351.430213 
L 448.84345 350.988229 
L 450.147195 348.70644 
L 450.799067 348.403882 
L 451.45094 349.492689 
L 452.102812 352.172478 
L 452.754685 356.206522 
L 454.05843 365.64177 
L 454.710302 369.349565 
L 455.362175 371.455617 
L 456.014048 371.681421 
L 456.66592 370.177745 
L 457.969665 364.346544 
L 458.621537 361.592983 
L 459.27341 359.854104 
L 459.925282 359.448516 
L 460.577155 360.311248 
L 462.532772 365.517317 
L 463.184645 366.11115 
L 463.836517 365.548197 
L 464.48839 363.950868 
L 465.792135 359.541518 
L 466.444007 357.959179 
L 467.09588 357.461368 
L 467.747752 358.227087 
L 468.399625 360.104986 
L 470.355242 367.356375 
L 471.007115 368.445053 
L 471.658987 368.366515 
L 472.31086 367.258531 
L 473.614605 363.722014 
L 474.266478 362.388301 
L 474.91835 361.902128 
L 475.570222 362.368792 
L 476.222095 363.591011 
L 477.52584 366.395519 
L 478.177712 366.875771 
L 478.829585 366.222498 
L 479.481457 364.390245 
L 481.437075 355.779416 
L 482.088947 353.948202 
L 482.74082 353.508856 
L 483.392693 354.591901 
L 484.044565 356.982366 
L 486.000182 366.246382 
L 486.652055 367.943218 
L 487.303927 368.348901 
L 487.9558 367.567349 
L 489.911417 362.804643 
L 490.56329 362.256554 
L 491.215162 362.779469 
L 491.867035 364.288443 
L 493.822653 370.429772 
L 494.474525 371.286889 
L 495.126397 371.013742 
L 495.77827 369.673376 
L 497.733887 363.220542 
L 498.38576 361.936121 
L 499.037632 361.665956 
L 499.689505 362.425681 
L 500.341377 363.994346 
L 501.645122 367.928161 
L 502.296995 369.417525 
L 502.948868 370.158228 
L 503.60074 370.028356 
L 504.252612 369.068527 
L 504.904485 367.433852 
L 506.20823 362.91763 
L 508.163847 354.751497 
L 510.119465 346.135448 
L 510.771337 343.929592 
L 511.42321 342.59293 
L 512.075083 342.428793 
L 512.726955 343.595612 
L 513.378828 346.026035 
L 515.986318 359.016683 
L 516.63819 359.946132 
L 517.290062 359.140221 
L 517.941935 356.738771 
L 519.897552 345.854285 
L 520.549425 343.464335 
L 521.201298 342.538354 
L 521.85317 343.048867 
L 523.808787 347.503318 
L 524.46066 347.316614 
L 525.112533 345.337389 
L 525.764405 341.591979 
L 527.720023 326.790901 
L 528.371895 324.183375 
L 529.023767 324.236865 
L 529.67564 327.212962 
L 530.327513 332.781903 
L 532.28313 354.81596 
L 532.935002 359.803082 
L 533.586875 362.122236 
L 534.238748 361.647606 
L 534.89062 358.832762 
L 536.846238 346.164663 
L 537.49811 343.798841 
L 538.149982 343.169349 
L 538.801855 344.019764 
L 540.1056 347.225701 
L 540.757473 347.823944 
L 541.409345 346.890544 
L 542.061217 344.303452 
L 544.016835 332.339619 
L 544.668707 330.119451 
L 545.32058 330.164648 
L 545.972453 332.715479 
L 546.624325 337.469048 
L 548.579943 355.854414 
L 549.231815 359.849642 
L 549.883687 361.646416 
L 550.53556 361.289984 
L 551.187432 359.329993 
L 552.491178 354.337075 
L 553.14305 353.215012 
L 553.794922 353.830943 
L 554.446795 356.223613 
L 556.402412 367.842308 
L 557.054285 370.107973 
L 557.706158 370.320909 
L 558.35803 368.310593 
L 559.009902 364.395968 
L 560.96552 349.529629 
L 561.617392 346.632281 
L 562.269265 345.772862 
L 562.921137 346.967148 
L 563.57301 349.833065 
L 565.528627 361.451805 
L 566.1805 364.116128 
L 566.832373 365.597413 
L 567.484245 365.968356 
L 568.136117 365.515783 
L 570.091735 362.902586 
L 570.743607 362.414307 
L 573.351097 361.378036 
L 574.654842 360.548416 
L 575.306715 360.504135 
L 575.958588 361.036252 
L 576.61046 362.304086 
L 577.262332 364.310016 
L 579.21795 372.15883 
L 579.869822 373.994677 
L 580.521695 374.797603 
L 581.173567 374.402069 
L 581.82544 372.857152 
L 582.477312 370.41004 
L 584.43293 361.625754 
L 585.084803 359.424256 
L 585.736675 357.902861 
L 586.388547 357.045685 
L 587.04042 356.749304 
L 587.692293 356.887021 
L 588.344165 357.366648 
L 588.996037 358.161742 
L 589.64791 359.305728 
L 590.299782 360.851315 
L 591.603527 365.095395 
L 592.907272 369.669902 
L 593.559145 371.245315 
L 594.211018 371.87733 
L 594.86289 371.374669 
L 595.514762 369.780499 
L 597.47038 362.601477 
L 598.122252 361.471053 
L 598.774125 361.832812 
L 599.425997 363.784539 
L 600.07787 367.025889 
L 601.381615 374.497266 
L 602.033487 376.924552 
L 602.68536 377.477706 
L 603.337233 375.873364 
L 603.989105 372.355847 
L 605.29285 362.988238 
L 605.944723 359.508281 
L 606.596595 358.289811 
L 607.248467 359.887854 
L 607.90034 364.164085 
L 609.204085 376.554019 
L 609.855957 381.238725 
L 610.50783 382.381792 
L 611.159702 378.477348 
L 611.811575 368.750233 
L 612.463448 353.35481 
L 613.767192 310.732741 
L 615.070938 266.661275 
L 615.72281 249.612578 
L 616.374682 237.879956 
L 617.026555 231.946778 
L 617.678427 231.467639 
L 618.3303 235.441907 
L 618.982172 242.497719 
L 622.241535 285.217917 
L 625.500897 321.317105 
L 626.15277 326.795543 
L 626.804642 330.498383 
L 627.456515 332.059459 
L 628.108387 331.464489 
L 628.76026 329.098894 
L 630.715877 319.288769 
L 631.36775 317.790128 
L 632.019622 317.852151 
L 632.671495 319.253297 
L 633.97524 323.532103 
L 634.627112 324.906728 
L 635.278985 325.079497 
L 635.930858 324.036085 
L 637.234602 320.520574 
L 637.886475 319.894165 
L 638.538347 321.2559 
L 639.19022 325.126782 
L 639.842092 331.459996 
L 641.79771 356.125965 
L 642.449583 361.60943 
L 643.101455 363.672761 
L 643.753327 361.870609 
L 644.4052 356.516916 
L 647.01269 325.786133 
L 647.664562 323.236258 
L 648.316435 324.332749 
L 648.968307 328.672172 
L 650.272052 342.67831 
L 650.923925 349.603041 
L 651.575798 354.926978 
L 652.22767 358.076677 
L 652.879542 359.075729 
L 653.531415 358.473694 
L 654.83516 356.032244 
L 655.487032 355.854608 
L 656.138905 356.93796 
L 656.790777 359.128015 
L 658.094522 364.303715 
L 658.746395 365.663505 
L 659.398267 365.353565 
L 660.05014 363.197676 
L 660.702013 359.480839 
L 662.005757 350.300123 
L 662.65763 346.627459 
L 663.309503 344.523173 
L 663.961375 344.256648 
L 664.613247 345.655803 
L 666.568865 353.529351 
L 667.220737 355.053065 
L 667.87261 355.403104 
L 668.524482 354.72892 
L 669.828228 352.18613 
L 670.4801 351.365993 
L 671.131972 351.240842 
L 672.435718 352.259131 
L 673.08759 352.273132 
L 673.739462 351.05424 
L 674.391335 348.145719 
L 675.043207 343.500947 
L 676.998825 325.759961 
L 677.650697 322.258917 
L 678.30257 321.674329 
L 678.954443 324.393131 
L 679.606315 330.145044 
L 682.213805 360.52038 
L 682.865677 363.556643 
L 683.51755 363.596921 
L 684.169422 361.206836 
L 685.473167 353.844487 
L 686.12504 351.502256 
L 686.776912 351.293012 
L 687.428785 353.368587 
L 689.384402 364.952178 
L 690.036275 366.136642 
L 690.688148 364.152486 
L 691.34002 358.828421 
L 692.643765 341.529067 
L 693.295637 332.76475 
L 693.94751 326.387291 
L 694.599382 323.855786 
L 695.251255 325.887644 
L 695.903127 332.278875 
L 696.555 341.934886 
L 696.555 341.934886 
" clip-path="url(#paaef3f6470)" style="fill: none; stroke: #1f77b4; stroke-width: 1.5; stroke-linecap: square"/>
   </g>
   <g id="patch_9">
    <path d="M 44.6825 389.9275 
L 44.6825 223.921932 
" style="fill: none; stroke: #000000; stroke-width: 0.8; stroke-linejoin: miter; stroke-linecap: square"/>
   </g>
   <g id="patch_10">
    <path d="M 696.555 389.9275 
L 696.555 223.921932 
" style="fill: none; stroke: #000000; stroke-width: 0.8; stroke-linejoin: miter; stroke-linecap: square"/>
   </g>
   <g id="patch_11">
    <path d="M 44.6825 389.9275 
L 696.555 389.9275 
" style="fill: none; stroke: #000000; stroke-width: 0.8; stroke-linejoin: miter; stroke-linecap: square"/>
   </g>
   <g id="patch_12">
    <path d="M 44.6825 223.921932 
L 696.555 223.921932 
" style="fill: none; stroke: #000000; stroke-width: 0.8; stroke-linejoin: miter; stroke-linecap: square"/>
   </g>
   <g id="text_25">
    <!-- Semnal după filtrare -->
    <g transform="translate(309.250937 217.921932) scale(0.12 -0.12)">
     <defs>
      <path id="DejaVuSans-64" d="M 2906 2969 
L 2906 4863 
L 3481 4863 
L 3481 0 
L 2906 0 
L 2906 525 
Q 2725 213 2448 61 
Q 2172 -91 1784 -91 
Q 1150 -91 751 415 
Q 353 922 353 1747 
Q 353 2572 751 3078 
Q 1150 3584 1784 3584 
Q 2172 3584 2448 3432 
Q 2725 3281 2906 2969 
z
M 947 1747 
Q 947 1113 1208 752 
Q 1469 391 1925 391 
Q 2381 391 2643 752 
Q 2906 1113 2906 1747 
Q 2906 2381 2643 2742 
Q 2381 3103 1925 3103 
Q 1469 3103 1208 2742 
Q 947 2381 947 1747 
z
" transform="scale(0.015625)"/>
      <path id="DejaVuSans-70" d="M 1159 525 
L 1159 -1331 
L 581 -1331 
L 581 3500 
L 1159 3500 
L 1159 2969 
Q 1341 3281 1617 3432 
Q 1894 3584 2278 3584 
Q 2916 3584 3314 3078 
Q 3713 2572 3713 1747 
Q 3713 922 3314 415 
Q 2916 -91 2278 -91 
Q 1894 -91 1617 61 
Q 1341 213 1159 525 
z
M 3116 1747 
Q 3116 2381 2855 2742 
Q 2594 3103 2138 3103 
Q 1681 3103 1420 2742 
Q 1159 2381 1159 1747 
Q 1159 1113 1420 752 
Q 1681 391 2138 391 
Q 2594 391 2855 752 
Q 3116 1113 3116 1747 
z
" transform="scale(0.015625)"/>
      <path id="DejaVuSans-66" d="M 2375 4863 
L 2375 4384 
L 1825 4384 
Q 1516 4384 1395 4259 
Q 1275 4134 1275 3809 
L 1275 3500 
L 2222 3500 
L 2222 3053 
L 1275 3053 
L 1275 0 
L 697 0 
L 697 3053 
L 147 3053 
L 147 3500 
L 697 3500 
L 697 3744 
Q 697 4328 969 4595 
Q 1241 4863 1831 4863 
L 2375 4863 
z
" transform="scale(0.015625)"/>
     </defs>
     <use xlink:href="#DejaVuSans-53"/>
     <use xlink:href="#DejaVuSans-65" transform="translate(63.476562 0)"/>
     <use xlink:href="#DejaVuSans-6d" transform="translate(125 0)"/>
     <use xlink:href="#DejaVuSans-6e" transform="translate(222.412109 0)"/>
     <use xlink:href="#DejaVuSans-61" transform="translate(285.791016 0)"/>
     <use xlink:href="#DejaVuSans-6c" transform="translate(347.070312 0)"/>
     <use xlink:href="#DejaVuSans-20" transform="translate(374.853516 0)"/>
     <use xlink:href="#DejaVuSans-64" transform="translate(406.640625 0)"/>
     <use xlink:href="#DejaVuSans-75" transform="translate(470.117188 0)"/>
     <use xlink:href="#DejaVuSans-70" transform="translate(533.496094 0)"/>
     <use xlink:href="#DejaVuSans-103" transform="translate(596.972656 0)"/>
     <use xlink:href="#DejaVuSans-20" transform="translate(658.251953 0)"/>
     <use xlink:href="#DejaVuSans-66" transform="translate(690.039062 0)"/>
     <use xlink:href="#DejaVuSans-69" transform="translate(725.244141 0)"/>
     <use xlink:href="#DejaVuSans-6c" transform="translate(753.027344 0)"/>
     <use xlink:href="#DejaVuSans-74" transform="translate(780.810547 0)"/>
     <use xlink:href="#DejaVuSans-72" transform="translate(820.019531 0)"/>
     <use xlink:href="#DejaVuSans-61" transform="translate(861.132812 0)"/>
     <use xlink:href="#DejaVuSans-72" transform="translate(922.412109 0)"/>
     <use xlink:href="#DejaVuSans-65" transform="translate(961.275391 0)"/>
    </g>
   </g>
   <g id="legend_2">
    <g id="patch_13">
     <path d="M 51.6825 246.600057 
L 151.502813 246.600057 
Q 153.502813 246.600057 153.502813 244.600057 
L 153.502813 230.921932 
Q 153.502813 228.921932 151.502813 228.921932 
L 51.6825 228.921932 
Q 49.6825 228.921932 49.6825 230.921932 
L 49.6825 244.600057 
Q 49.6825 246.600057 51.6825 246.600057 
z
" style="fill: #ffffff; opacity: 0.8; stroke: #cccccc; stroke-linejoin: miter"/>
    </g>
    <g id="line2d_29">
     <path d="M 53.6825 237.020369 
L 63.6825 237.020369 
L 73.6825 237.020369 
" style="fill: none; stroke: #1f77b4; stroke-width: 1.5; stroke-linecap: square"/>
    </g>
    <g id="text_26">
     <!-- Semnal filtrat -->
     <g transform="translate(81.6825 240.520369) scale(0.1 -0.1)">
      <use xlink:href="#DejaVuSans-53"/>
      <use xlink:href="#DejaVuSans-65" transform="translate(63.476562 0)"/>
      <use xlink:href="#DejaVuSans-6d" transform="translate(125 0)"/>
      <use xlink:href="#DejaVuSans-6e" transform="translate(222.412109 0)"/>
      <use xlink:href="#DejaVuSans-61" transform="translate(285.791016 0)"/>
      <use xlink:href="#DejaVuSans-6c" transform="translate(347.070312 0)"/>
      <use xlink:href="#DejaVuSans-20" transform="translate(374.853516 0)"/>
      <use xlink:href="#DejaVuSans-66" transform="translate(406.640625 0)"/>
      <use xlink:href="#DejaVuSans-69" transform="translate(441.845703 0)"/>
      <use xlink:href="#DejaVuSans-6c" transform="translate(469.628906 0)"/>
      <use xlink:href="#DejaVuSans-74" transform="translate(497.412109 0)"/>
      <use xlink:href="#DejaVuSans-72" transform="translate(536.621094 0)"/>
      <use xlink:href="#DejaVuSans-61" transform="translate(577.734375 0)"/>
      <use xlink:href="#DejaVuSans-74" transform="translate(639.013672 0)"/>
     </g>
    </g>
   </g>
  </g>
 </g>
 <defs>
  <clipPath id="pd92fd876d4">
   <rect x="44.6825" y="26.88" width="651.8725" height="166.005568"/>
  </clipPath>
  <clipPath id="paaef3f6470">
   <rect x="44.6825" y="223.921932" width="651.8725" height="166.005568"/>
  </clipPath>
 </defs>
</svg>
