<?xml version="1.0" encoding="utf-8" standalone="no"?>
<!DOCTYPE svg PUBLIC "-//W3C//DTD SVG 1.1//EN"
  "http://www.w3.org/Graphics/SVG/1.1/DTD/svg11.dtd">
<svg xmlns:xlink="http://www.w3.org/1999/xlink" width="460.8pt" height="345.6pt" viewBox="0 0 460.8 345.6" xmlns="http://www.w3.org/2000/svg" version="1.1">
 <metadata>
  <rdf:RDF xmlns:dc="http://purl.org/dc/elements/1.1/" xmlns:cc="http://creativecommons.org/ns#" xmlns:rdf="http://www.w3.org/1999/02/22-rdf-syntax-ns#">
   <cc:Work>
    <dc:type rdf:resource="http://purl.org/dc/dcmitype/StillImage"/>
    <dc:date>2025-11-25T19:15:06.634673</dc:date>
    <dc:format>image/svg+xml</dc:format>
    <dc:creator>
     <cc:Agent>
      <dc:title>Matplotlib v3.10.7, https://matplotlib.org/</dc:title>
     </cc:Agent>
    </dc:creator>
   </cc:Work>
  </rdf:RDF>
 </metadata>
 <defs>
  <style type="text/css">*{stroke-linejoin: round; stroke-linecap: butt}</style>
 </defs>
 <g id="figure_1">
  <g id="patch_1">
   <path d="M 0 345.6 
L 460.8 345.6 
L 460.8 0 
L 0 0 
z
" style="fill: #ffffff"/>
  </g>
  <g id="axes_1">
   <g id="patch_2">
    <path d="M 57.6 307.584 
L 414.72 307.584 
L 414.72 41.472 
L 57.6 41.472 
z
" style="fill: #ffffff"/>
   </g>
   <g id="matplotlib.axis_1">
    <g id="xtick_1">
     <g id="line2d_1">
      <defs>
       <path id="m46447270a8" d="M 0 0 
L 0 3.5 
" style="stroke: #000000; stroke-width: 0.8"/>
      </defs>
      <g>
       <use xlink:href="#m46447270a8" x="125.365195" y="307.584" style="stroke: #000000; stroke-width: 0.8"/>
      </g>
     </g>
     <g id="text_1">
      <!-- 2000 -->
      <g transform="translate(112.640195 322.182437) scale(0.1 -0.1)">
       <defs>
        <path id="DejaVuSans-32" d="M 1228 531 
L 3431 531 
L 3431 0 
L 469 0 
L 469 531 
Q 828 903 1448 1529 
Q 2069 2156 2228 2338 
Q 2531 2678 2651 2914 
Q 2772 3150 2772 3378 
Q 2772 3750 2511 3984 
Q 2250 4219 1831 4219 
Q 1534 4219 1204 4116 
Q 875 4013 500 3803 
L 500 4441 
Q 881 4594 1212 4672 
Q 1544 4750 1819 4750 
Q 2544 4750 2975 4387 
Q 3406 4025 3406 3419 
Q 3406 3131 3298 2873 
Q 3191 2616 2906 2266 
Q 2828 2175 2409 1742 
Q 1991 1309 1228 531 
z
" transform="scale(0.015625)"/>
        <path id="DejaVuSans-30" d="M 2034 4250 
Q 1547 4250 1301 3770 
Q 1056 3291 1056 2328 
Q 1056 1369 1301 889 
Q 1547 409 2034 409 
Q 2525 409 2770 889 
Q 3016 1369 3016 2328 
Q 3016 3291 2770 3770 
Q 2525 4250 2034 4250 
z
M 2034 4750 
Q 2819 4750 3233 4129 
Q 3647 3509 3647 2328 
Q 3647 1150 3233 529 
Q 2819 -91 2034 -91 
Q 1250 -91 836 529 
Q 422 1150 422 2328 
Q 422 3509 836 4129 
Q 1250 4750 2034 4750 
z
" transform="scale(0.015625)"/>
       </defs>
       <use xlink:href="#DejaVuSans-32"/>
       <use xlink:href="#DejaVuSans-30" transform="translate(63.623047 0)"/>
       <use xlink:href="#DejaVuSans-30" transform="translate(127.246094 0)"/>
       <use xlink:href="#DejaVuSans-30" transform="translate(190.869141 0)"/>
      </g>
     </g>
    </g>
    <g id="xtick_2">
     <g id="line2d_2">
      <g>
       <use xlink:href="#m46447270a8" x="194.075152" y="307.584" style="stroke: #000000; stroke-width: 0.8"/>
      </g>
     </g>
     <g id="text_2">
      <!-- 4000 -->
      <g transform="translate(181.350152 322.182437) scale(0.1 -0.1)">
       <defs>
        <path id="DejaVuSans-34" d="M 2419 4116 
L 825 1625 
L 2419 1625 
L 2419 4116 
z
M 2253 4666 
L 3047 4666 
L 3047 1625 
L 3713 1625 
L 3713 1100 
L 3047 1100 
L 3047 0 
L 2419 0 
L 2419 1100 
L 313 1100 
L 313 1709 
L 2253 4666 
z
" transform="scale(0.015625)"/>
       </defs>
       <use xlink:href="#DejaVuSans-34"/>
       <use xlink:href="#DejaVuSans-30" transform="translate(63.623047 0)"/>
       <use xlink:href="#DejaVuSans-30" transform="translate(127.246094 0)"/>
       <use xlink:href="#DejaVuSans-30" transform="translate(190.869141 0)"/>
      </g>
     </g>
    </g>
    <g id="xtick_3">
     <g id="line2d_3">
      <g>
       <use xlink:href="#m46447270a8" x="262.785108" y="307.584" style="stroke: #000000; stroke-width: 0.8"/>
      </g>
     </g>
     <g id="text_3">
      <!-- 6000 -->
      <g transform="translate(250.060108 322.182437) scale(0.1 -0.1)">
       <defs>
        <path id="DejaVuSans-36" d="M 2113 2584 
Q 1688 2584 1439 2293 
Q 1191 2003 1191 1497 
Q 1191 994 1439 701 
Q 1688 409 2113 409 
Q 2538 409 2786 701 
Q 3034 994 3034 1497 
Q 3034 2003 2786 2293 
Q 2538 2584 2113 2584 
z
M 3366 4563 
L 3366 3988 
Q 3128 4100 2886 4159 
Q 2644 4219 2406 4219 
Q 1781 4219 1451 3797 
Q 1122 3375 1075 2522 
Q 1259 2794 1537 2939 
Q 1816 3084 2150 3084 
Q 2853 3084 3261 2657 
Q 3669 2231 3669 1497 
Q 3669 778 3244 343 
Q 2819 -91 2113 -91 
Q 1303 -91 875 529 
Q 447 1150 447 2328 
Q 447 3434 972 4092 
Q 1497 4750 2381 4750 
Q 2619 4750 2861 4703 
Q 3103 4656 3366 4563 
z
" transform="scale(0.015625)"/>
       </defs>
       <use xlink:href="#DejaVuSans-36"/>
       <use xlink:href="#DejaVuSans-30" transform="translate(63.623047 0)"/>
       <use xlink:href="#DejaVuSans-30" transform="translate(127.246094 0)"/>
       <use xlink:href="#DejaVuSans-30" transform="translate(190.869141 0)"/>
      </g>
     </g>
    </g>
    <g id="xtick_4">
     <g id="line2d_4">
      <g>
       <use xlink:href="#m46447270a8" x="331.495065" y="307.584" style="stroke: #000000; stroke-width: 0.8"/>
      </g>
     </g>
     <g id="text_4">
      <!-- 8000 -->
      <g transform="translate(318.770065 322.182437) scale(0.1 -0.1)">
       <defs>
        <path id="DejaVuSans-38" d="M 2034 2216 
Q 1584 2216 1326 1975 
Q 1069 1734 1069 1313 
Q 1069 891 1326 650 
Q 1584 409 2034 409 
Q 2484 409 2743 651 
Q 3003 894 3003 1313 
Q 3003 1734 2745 1975 
Q 2488 2216 2034 2216 
z
M 1403 2484 
Q 997 2584 770 2862 
Q 544 3141 544 3541 
Q 544 4100 942 4425 
Q 1341 4750 2034 4750 
Q 2731 4750 3128 4425 
Q 3525 4100 3525 3541 
Q 3525 3141 3298 2862 
Q 3072 2584 2669 2484 
Q 3125 2378 3379 2068 
Q 3634 1759 3634 1313 
Q 3634 634 3220 271 
Q 2806 -91 2034 -91 
Q 1263 -91 848 271 
Q 434 634 434 1313 
Q 434 1759 690 2068 
Q 947 2378 1403 2484 
z
M 1172 3481 
Q 1172 3119 1398 2916 
Q 1625 2713 2034 2713 
Q 2441 2713 2670 2916 
Q 2900 3119 2900 3481 
Q 2900 3844 2670 4047 
Q 2441 4250 2034 4250 
Q 1625 4250 1398 4047 
Q 1172 3844 1172 3481 
z
" transform="scale(0.015625)"/>
       </defs>
       <use xlink:href="#DejaVuSans-38"/>
       <use xlink:href="#DejaVuSans-30" transform="translate(63.623047 0)"/>
       <use xlink:href="#DejaVuSans-30" transform="translate(127.246094 0)"/>
       <use xlink:href="#DejaVuSans-30" transform="translate(190.869141 0)"/>
      </g>
     </g>
    </g>
    <g id="xtick_5">
     <g id="line2d_5">
      <g>
       <use xlink:href="#m46447270a8" x="400.205022" y="307.584" style="stroke: #000000; stroke-width: 0.8"/>
      </g>
     </g>
     <g id="text_5">
      <!-- 10000 -->
      <g transform="translate(384.298772 322.182437) scale(0.1 -0.1)">
       <defs>
        <path id="DejaVuSans-31" d="M 794 531 
L 1825 531 
L 1825 4091 
L 703 3866 
L 703 4441 
L 1819 4666 
L 2450 4666 
L 2450 531 
L 3481 531 
L 3481 0 
L 794 0 
L 794 531 
z
" transform="scale(0.015625)"/>
       </defs>
       <use xlink:href="#DejaVuSans-31"/>
       <use xlink:href="#DejaVuSans-30" transform="translate(63.623047 0)"/>
       <use xlink:href="#DejaVuSans-30" transform="translate(127.246094 0)"/>
       <use xlink:href="#DejaVuSans-30" transform="translate(190.869141 0)"/>
       <use xlink:href="#DejaVuSans-30" transform="translate(254.492188 0)"/>
      </g>
     </g>
    </g>
   </g>
   <g id="matplotlib.axis_2">
    <g id="ytick_1">
     <g id="line2d_6">
      <defs>
       <path id="m8e6471558e" d="M 0 0 
L -3.5 0 
" style="stroke: #000000; stroke-width: 0.8"/>
      </defs>
      <g>
       <use xlink:href="#m8e6471558e" x="57.6" y="296.247686" style="stroke: #000000; stroke-width: 0.8"/>
      </g>
     </g>
     <g id="text_6">
      <!-- 0.00 -->
      <g transform="translate(28.334375 300.046905) scale(0.1 -0.1)">
       <defs>
        <path id="DejaVuSans-2e" d="M 684 794 
L 1344 794 
L 1344 0 
L 684 0 
L 684 794 
z
" transform="scale(0.015625)"/>
       </defs>
       <use xlink:href="#DejaVuSans-30"/>
       <use xlink:href="#DejaVuSans-2e" transform="translate(63.623047 0)"/>
       <use xlink:href="#DejaVuSans-30" transform="translate(95.410156 0)"/>
       <use xlink:href="#DejaVuSans-30" transform="translate(159.033203 0)"/>
      </g>
     </g>
    </g>
    <g id="ytick_2">
     <g id="line2d_7">
      <g>
       <use xlink:href="#m8e6471558e" x="57.6" y="255.59992" style="stroke: #000000; stroke-width: 0.8"/>
      </g>
     </g>
     <g id="text_7">
      <!-- 0.01 -->
      <g transform="translate(28.334375 259.399139) scale(0.1 -0.1)">
       <use xlink:href="#DejaVuSans-30"/>
       <use xlink:href="#DejaVuSans-2e" transform="translate(63.623047 0)"/>
       <use xlink:href="#DejaVuSans-30" transform="translate(95.410156 0)"/>
       <use xlink:href="#DejaVuSans-31" transform="translate(159.033203 0)"/>
      </g>
     </g>
    </g>
    <g id="ytick_3">
     <g id="line2d_8">
      <g>
       <use xlink:href="#m8e6471558e" x="57.6" y="214.952154" style="stroke: #000000; stroke-width: 0.8"/>
      </g>
     </g>
     <g id="text_8">
      <!-- 0.02 -->
      <g transform="translate(28.334375 218.751373) scale(0.1 -0.1)">
       <use xlink:href="#DejaVuSans-30"/>
       <use xlink:href="#DejaVuSans-2e" transform="translate(63.623047 0)"/>
       <use xlink:href="#DejaVuSans-30" transform="translate(95.410156 0)"/>
       <use xlink:href="#DejaVuSans-32" transform="translate(159.033203 0)"/>
      </g>
     </g>
    </g>
    <g id="ytick_4">
     <g id="line2d_9">
      <g>
       <use xlink:href="#m8e6471558e" x="57.6" y="174.304389" style="stroke: #000000; stroke-width: 0.8"/>
      </g>
     </g>
     <g id="text_9">
      <!-- 0.03 -->
      <g transform="translate(28.334375 178.103607) scale(0.1 -0.1)">
       <defs>
        <path id="DejaVuSans-33" d="M 2597 2516 
Q 3050 2419 3304 2112 
Q 3559 1806 3559 1356 
Q 3559 666 3084 287 
Q 2609 -91 1734 -91 
Q 1441 -91 1130 -33 
Q 819 25 488 141 
L 488 750 
Q 750 597 1062 519 
Q 1375 441 1716 441 
Q 2309 441 2620 675 
Q 2931 909 2931 1356 
Q 2931 1769 2642 2001 
Q 2353 2234 1838 2234 
L 1294 2234 
L 1294 2753 
L 1863 2753 
Q 2328 2753 2575 2939 
Q 2822 3125 2822 3475 
Q 2822 3834 2567 4026 
Q 2313 4219 1838 4219 
Q 1578 4219 1281 4162 
Q 984 4106 628 3988 
L 628 4550 
Q 988 4650 1302 4700 
Q 1616 4750 1894 4750 
Q 2613 4750 3031 4423 
Q 3450 4097 3450 3541 
Q 3450 3153 3228 2886 
Q 3006 2619 2597 2516 
z
" transform="scale(0.015625)"/>
       </defs>
       <use xlink:href="#DejaVuSans-30"/>
       <use xlink:href="#DejaVuSans-2e" transform="translate(63.623047 0)"/>
       <use xlink:href="#DejaVuSans-30" transform="translate(95.410156 0)"/>
       <use xlink:href="#DejaVuSans-33" transform="translate(159.033203 0)"/>
      </g>
     </g>
    </g>
    <g id="ytick_5">
     <g id="line2d_10">
      <g>
       <use xlink:href="#m8e6471558e" x="57.6" y="133.656623" style="stroke: #000000; stroke-width: 0.8"/>
      </g>
     </g>
     <g id="text_10">
      <!-- 0.04 -->
      <g transform="translate(28.334375 137.455841) scale(0.1 -0.1)">
       <use xlink:href="#DejaVuSans-30"/>
       <use xlink:href="#DejaVuSans-2e" transform="translate(63.623047 0)"/>
       <use xlink:href="#DejaVuSans-30" transform="translate(95.410156 0)"/>
       <use xlink:href="#DejaVuSans-34" transform="translate(159.033203 0)"/>
      </g>
     </g>
    </g>
    <g id="ytick_6">
     <g id="line2d_11">
      <g>
       <use xlink:href="#m8e6471558e" x="57.6" y="93.008857" style="stroke: #000000; stroke-width: 0.8"/>
      </g>
     </g>
     <g id="text_11">
      <!-- 0.05 -->
      <g transform="translate(28.334375 96.808075) scale(0.1 -0.1)">
       <defs>
        <path id="DejaVuSans-35" d="M 691 4666 
L 3169 4666 
L 3169 4134 
L 1269 4134 
L 1269 2991 
Q 1406 3038 1543 3061 
Q 1681 3084 1819 3084 
Q 2600 3084 3056 2656 
Q 3513 2228 3513 1497 
Q 3513 744 3044 326 
Q 2575 -91 1722 -91 
Q 1428 -91 1123 -41 
Q 819 9 494 109 
L 494 744 
Q 775 591 1075 516 
Q 1375 441 1709 441 
Q 2250 441 2565 725 
Q 2881 1009 2881 1497 
Q 2881 1984 2565 2268 
Q 2250 2553 1709 2553 
Q 1456 2553 1204 2497 
Q 953 2441 691 2322 
L 691 4666 
z
" transform="scale(0.015625)"/>
       </defs>
       <use xlink:href="#DejaVuSans-30"/>
       <use xlink:href="#DejaVuSans-2e" transform="translate(63.623047 0)"/>
       <use xlink:href="#DejaVuSans-30" transform="translate(95.410156 0)"/>
       <use xlink:href="#DejaVuSans-35" transform="translate(159.033203 0)"/>
      </g>
     </g>
    </g>
    <g id="ytick_7">
     <g id="line2d_12">
      <g>
       <use xlink:href="#m8e6471558e" x="57.6" y="52.361091" style="stroke: #000000; stroke-width: 0.8"/>
      </g>
     </g>
     <g id="text_12">
      <!-- 0.06 -->
      <g transform="translate(28.334375 56.160309) scale(0.1 -0.1)">
       <use xlink:href="#DejaVuSans-30"/>
       <use xlink:href="#DejaVuSans-2e" transform="translate(63.623047 0)"/>
       <use xlink:href="#DejaVuSans-30" transform="translate(95.410156 0)"/>
       <use xlink:href="#DejaVuSans-36" transform="translate(159.033203 0)"/>
      </g>
     </g>
    </g>
   </g>
   <g id="line2d_13">
    <path d="M 73.832727 295.442202 
L 75.550476 295.151237 
L 77.268225 295.468375 
L 84.139221 295.445722 
L 89.292468 295.343131 
L 91.010216 295.387482 
L 92.727965 294.651054 
L 94.445714 294.986667 
L 97.881212 294.965566 
L 104.752208 294.87317 
L 108.187706 294.988264 
L 111.623203 294.896571 
L 113.340952 294.703173 
L 115.058701 294.889937 
L 116.77645 294.81093 
L 121.929697 294.849428 
L 123.647446 294.832595 
L 125.365195 294.63875 
L 127.082944 292.487756 
L 128.800693 292.898221 
L 132.23619 293.057499 
L 133.953939 292.945755 
L 135.671688 292.994906 
L 137.389437 293.668732 
L 139.107186 293.8005 
L 140.824935 293.173589 
L 142.542684 292.818348 
L 144.260433 293.737284 
L 145.978182 293.5023 
L 147.695931 292.836319 
L 149.41368 293.479956 
L 151.131429 292.930353 
L 152.849177 293.429215 
L 154.566926 292.808483 
L 156.284675 293.657542 
L 159.720173 293.635315 
L 161.437922 293.201758 
L 163.155671 292.471696 
L 164.87342 293.611736 
L 166.591169 293.323945 
L 168.308918 292.64425 
L 170.026667 293.536871 
L 171.744416 293.229297 
L 173.462165 292.511685 
L 175.179913 293.407082 
L 183.768658 293.49802 
L 185.486407 293.508604 
L 188.921905 293.375686 
L 190.639654 293.462119 
L 194.075152 293.354285 
L 195.7929 293.399567 
L 197.510649 287.946754 
L 199.228398 284.492531 
L 200.946147 287.846289 
L 202.663896 289.071502 
L 204.381645 288.523765 
L 206.099394 288.952697 
L 207.817143 290.623767 
L 209.534892 290.122292 
L 211.252641 288.799565 
L 212.97039 290.501125 
L 214.688139 288.54426 
L 216.405887 289.067303 
L 218.123636 288.034053 
L 219.841385 290.487585 
L 221.559134 288.418703 
L 224.994632 288.591107 
L 226.712381 288.562499 
L 228.43013 290.467729 
L 231.865628 290.182987 
L 233.583377 288.463196 
L 235.301126 290.339765 
L 237.018874 288.348366 
L 238.736623 290.340599 
L 240.454372 288.41687 
L 242.172121 290.28159 
L 243.88987 288.345627 
L 245.607619 290.121999 
L 247.325368 288.353976 
L 249.043117 289.463131 
L 250.760866 288.235089 
L 252.478615 290.120243 
L 254.196364 288.365686 
L 255.914113 290.180654 
L 257.631861 288.304296 
L 259.34961 290.108065 
L 261.067359 288.352943 
L 262.785108 290.105614 
L 264.502857 288.381348 
L 266.220606 290.09396 
L 267.938355 288.339733 
L 269.656104 290.106915 
L 271.373853 288.389461 
L 273.091602 289.849204 
L 274.809351 288.162643 
L 276.5271 289.943344 
L 278.244848 288.098362 
L 279.962597 290.028753 
L 281.680346 288.207867 
L 283.398095 289.971306 
L 285.115844 288.336107 
L 286.833593 290.050695 
L 288.551342 288.106171 
L 290.269091 289.937332 
L 291.98684 288.211546 
L 293.704589 289.900241 
L 295.422338 288.226968 
L 297.140087 289.846484 
L 298.857835 288.170382 
L 300.575584 289.86024 
L 302.293333 288.06449 
L 304.011082 289.521892 
L 305.728831 286.86658 
L 307.44658 289.206071 
L 309.164329 287.870832 
L 310.882078 289.45588 
L 312.599827 287.990182 
L 314.317576 289.618442 
L 316.035325 287.679946 
L 317.753074 289.557625 
L 319.470823 287.886575 
L 321.188571 289.374637 
L 322.90632 287.849508 
L 324.624069 289.507393 
L 326.341818 287.348594 
L 328.059567 289.407777 
L 329.777316 287.782277 
L 331.495065 289.489922 
L 333.212814 287.777355 
L 334.930563 288.81432 
L 336.648312 287.390014 
L 338.366061 277.955297 
L 340.08381 278.996336 
L 341.801558 282.39455 
L 343.519307 280.559401 
L 345.237056 279.212801 
L 346.954805 276.932039 
L 348.672554 279.460395 
L 350.390303 280.081562 
L 352.108052 278.285292 
L 353.825801 279.680535 
L 355.54355 282.795357 
L 357.261299 280.600955 
L 358.979048 278.850373 
L 360.696797 282.819542 
L 362.414545 280.809551 
L 364.132294 278.444465 
L 365.850043 282.458765 
L 367.567792 280.793698 
L 369.285541 278.921223 
L 371.00329 282.760745 
L 374.438788 278.879892 
L 376.156537 282.720073 
L 377.874286 280.637034 
L 379.592035 277.571757 
L 381.309784 282.173304 
L 383.027532 280.498632 
L 384.745281 278.617356 
L 386.46303 282.73695 
L 388.180779 280.589529 
L 389.898528 278.081338 
L 391.616277 282.399342 
L 393.334026 280.162162 
L 395.051775 278.540284 
L 396.769524 282.618251 
L 398.487273 280.579664 
L 398.487273 280.579664 
" clip-path="url(#p041b4e5e5b)" style="fill: none; stroke: #1f77b4; stroke-width: 1.5; stroke-linecap: square"/>
   </g>
   <g id="line2d_14">
    <path d="M 73.832727 295.470737 
L 75.550476 295.446572 
L 85.85697 294.366906 
L 87.574719 294.107484 
L 91.010216 293.754836 
L 96.163463 292.877324 
L 97.881212 292.678353 
L 101.31671 291.823519 
L 103.034459 291.711034 
L 109.905455 290.300069 
L 113.340952 289.457136 
L 115.058701 288.824949 
L 116.77645 288.640924 
L 123.647446 286.833745 
L 125.365195 286.179979 
L 128.800693 285.386429 
L 132.23619 284.273261 
L 133.953939 283.485434 
L 140.824935 281.465862 
L 145.978182 279.567502 
L 147.695931 278.817274 
L 151.131429 277.520102 
L 158.002424 274.927214 
L 159.720173 273.806795 
L 161.437922 273.045958 
L 163.155671 272.643435 
L 164.87342 271.754074 
L 170.026667 269.600466 
L 171.744416 268.469873 
L 175.179913 266.935123 
L 176.897662 265.955955 
L 182.050909 263.588373 
L 183.768658 262.494818 
L 185.486407 261.798095 
L 188.921905 259.515825 
L 190.639654 259.036831 
L 192.357403 258.046416 
L 194.075152 256.873789 
L 195.7929 256.09649 
L 197.510649 254.966055 
L 199.228398 244.76497 
L 200.946147 252.558203 
L 202.663896 251.734196 
L 206.099394 249.275091 
L 207.817143 248.515206 
L 209.534892 247.630458 
L 212.97039 245.100033 
L 214.688139 244.275733 
L 218.123636 241.830876 
L 224.994632 237.460314 
L 226.712381 235.665602 
L 228.43013 234.630892 
L 230.147879 233.14403 
L 231.865628 232.395952 
L 233.583377 230.994759 
L 235.301126 229.149131 
L 237.018874 228.345394 
L 238.736623 227.176023 
L 240.454372 225.268984 
L 242.172121 223.710634 
L 243.88987 222.885785 
L 245.607619 221.474686 
L 247.325368 220.215272 
L 249.043117 218.447147 
L 250.760866 217.506167 
L 252.478615 216.337894 
L 255.914113 213.319464 
L 257.631861 212.048668 
L 261.067359 209.16299 
L 264.502857 206.276588 
L 271.373853 200.191191 
L 273.091602 198.481127 
L 276.5271 195.382751 
L 281.680346 190.61387 
L 283.398095 189.230179 
L 288.551342 184.308117 
L 290.269091 182.855886 
L 291.98684 180.899086 
L 293.704589 179.37358 
L 295.422338 177.585529 
L 297.140087 176.536341 
L 298.857835 173.961651 
L 300.575584 172.238011 
L 302.293333 169.950574 
L 304.011082 166.069216 
L 305.728831 165.549998 
L 307.44658 165.469145 
L 309.164329 162.350897 
L 310.882078 162.03999 
L 312.599827 159.899788 
L 314.317576 157.447935 
L 316.035325 156.08808 
L 319.470823 152.060256 
L 321.188571 150.814276 
L 322.90632 148.943341 
L 324.624069 146.291342 
L 328.059567 143.12732 
L 329.777316 141.139157 
L 331.495065 139.327283 
L 333.212814 135.333814 
L 334.930563 135.066958 
L 336.648312 133.333302 
L 338.366061 130.781789 
L 340.08381 128.859296 
L 341.801558 127.1407 
L 343.519307 124.908618 
L 345.237056 121.354531 
L 346.954805 120.795816 
L 357.261299 108.423908 
L 358.979048 106.228437 
L 360.696797 104.458019 
L 362.414545 101.910368 
L 365.850043 97.692812 
L 367.567792 95.331031 
L 369.285541 93.395616 
L 371.00329 90.943304 
L 376.156537 84.422569 
L 377.874286 80.143863 
L 379.592035 79.527871 
L 381.309784 77.516774 
L 383.027532 74.83733 
L 384.745281 72.81429 
L 388.180779 67.6899 
L 389.898528 65.803282 
L 391.616277 63.458878 
L 395.051775 58.459507 
L 396.769524 56.17342 
L 398.487273 53.568 
L 398.487273 53.568 
" clip-path="url(#p041b4e5e5b)" style="fill: none; stroke: #ff7f0e; stroke-width: 1.5; stroke-linecap: square"/>
   </g>
   <g id="patch_3">
    <path d="M 57.6 307.584 
L 57.6 41.472 
" style="fill: none; stroke: #000000; stroke-width: 0.8; stroke-linejoin: miter; stroke-linecap: square"/>
   </g>
   <g id="patch_4">
    <path d="M 414.72 307.584 
L 414.72 41.472 
" style="fill: none; stroke: #000000; stroke-width: 0.8; stroke-linejoin: miter; stroke-linecap: square"/>
   </g>
   <g id="patch_5">
    <path d="M 57.6 307.584 
L 414.72 307.584 
" style="fill: none; stroke: #000000; stroke-width: 0.8; stroke-linejoin: miter; stroke-linecap: square"/>
   </g>
   <g id="patch_6">
    <path d="M 57.6 41.472 
L 414.72 41.472 
" style="fill: none; stroke: #000000; stroke-width: 0.8; stroke-linejoin: miter; stroke-linecap: square"/>
   </g>
   <g id="legend_1">
    <g id="patch_7">
     <path d="M 64.6 78.82825 
L 154.8625 78.82825 
Q 156.8625 78.82825 156.8625 76.82825 
L 156.8625 48.472 
Q 156.8625 46.472 154.8625 46.472 
L 64.6 46.472 
Q 62.6 46.472 62.6 48.472 
L 62.6 76.82825 
Q 62.6 78.82825 64.6 78.82825 
z
" style="fill: #ffffff; opacity: 0.8; stroke: #cccccc; stroke-linejoin: miter"/>
    </g>
    <g id="line2d_15">
     <path d="M 66.6 54.570437 
L 76.6 54.570437 
L 86.6 54.570437 
" style="fill: none; stroke: #1f77b4; stroke-width: 1.5; stroke-linecap: square"/>
    </g>
    <g id="text_13">
     <!-- fft -->
     <g transform="translate(94.6 58.070437) scale(0.1 -0.1)">
      <defs>
       <path id="DejaVuSans-66" d="M 2375 4863 
L 2375 4384 
L 1825 4384 
Q 1516 4384 1395 4259 
Q 1275 4134 1275 3809 
L 1275 3500 
L 2222 3500 
L 2222 3053 
L 1275 3053 
L 1275 0 
L 697 0 
L 697 3053 
L 147 3053 
L 147 3500 
L 697 3500 
L 697 3744 
Q 697 4328 969 4595 
Q 1241 4863 1831 4863 
L 2375 4863 
z
" transform="scale(0.015625)"/>
       <path id="DejaVuSans-74" d="M 1172 4494 
L 1172 3500 
L 2356 3500 
L 2356 3053 
L 1172 3053 
L 1172 1153 
Q 1172 725 1289 603 
Q 1406 481 1766 481 
L 2356 481 
L 2356 0 
L 1766 0 
Q 1100 0 847 248 
Q 594 497 594 1153 
L 594 3053 
L 172 3053 
L 172 3500 
L 594 3500 
L 594 4494 
L 1172 4494 
z
" transform="scale(0.015625)"/>
      </defs>
      <use xlink:href="#DejaVuSans-66"/>
      <use xlink:href="#DejaVuSans-66" transform="translate(35.205078 0)"/>
      <use xlink:href="#DejaVuSans-74" transform="translate(68.660156 0)"/>
     </g>
    </g>
    <g id="line2d_16">
     <path d="M 66.6 69.248562 
L 76.6 69.248562 
L 86.6 69.248562 
" style="fill: none; stroke: #ff7f0e; stroke-width: 1.5; stroke-linecap: square"/>
    </g>
    <g id="text_14">
     <!-- convolution -->
     <g transform="translate(94.6 72.748562) scale(0.1 -0.1)">
      <defs>
       <path id="DejaVuSans-63" d="M 3122 3366 
L 3122 2828 
Q 2878 2963 2633 3030 
Q 2388 3097 2138 3097 
Q 1578 3097 1268 2742 
Q 959 2388 959 1747 
Q 959 1106 1268 751 
Q 1578 397 2138 397 
Q 2388 397 2633 464 
Q 2878 531 3122 666 
L 3122 134 
Q 2881 22 2623 -34 
Q 2366 -91 2075 -91 
Q 1284 -91 818 406 
Q 353 903 353 1747 
Q 353 2603 823 3093 
Q 1294 3584 2113 3584 
Q 2378 3584 2631 3529 
Q 2884 3475 3122 3366 
z
" transform="scale(0.015625)"/>
       <path id="DejaVuSans-6f" d="M 1959 3097 
Q 1497 3097 1228 2736 
Q 959 2375 959 1747 
Q 959 1119 1226 758 
Q 1494 397 1959 397 
Q 2419 397 2687 759 
Q 2956 1122 2956 1747 
Q 2956 2369 2687 2733 
Q 2419 3097 1959 3097 
z
M 1959 3584 
Q 2709 3584 3137 3096 
Q 3566 2609 3566 1747 
Q 3566 888 3137 398 
Q 2709 -91 1959 -91 
Q 1206 -91 779 398 
Q 353 888 353 1747 
Q 353 2609 779 3096 
Q 1206 3584 1959 3584 
z
" transform="scale(0.015625)"/>
       <path id="DejaVuSans-6e" d="M 3513 2113 
L 3513 0 
L 2938 0 
L 2938 2094 
Q 2938 2591 2744 2837 
Q 2550 3084 2163 3084 
Q 1697 3084 1428 2787 
Q 1159 2491 1159 1978 
L 1159 0 
L 581 0 
L 581 3500 
L 1159 3500 
L 1159 2956 
Q 1366 3272 1645 3428 
Q 1925 3584 2291 3584 
Q 2894 3584 3203 3211 
Q 3513 2838 3513 2113 
z
" transform="scale(0.015625)"/>
       <path id="DejaVuSans-76" d="M 191 3500 
L 800 3500 
L 1894 563 
L 2988 3500 
L 3597 3500 
L 2284 0 
L 1503 0 
L 191 3500 
z
" transform="scale(0.015625)"/>
       <path id="DejaVuSans-6c" d="M 603 4863 
L 1178 4863 
L 1178 0 
L 603 0 
L 603 4863 
z
" transform="scale(0.015625)"/>
       <path id="DejaVuSans-75" d="M 544 1381 
L 544 3500 
L 1119 3500 
L 1119 1403 
Q 1119 906 1312 657 
Q 1506 409 1894 409 
Q 2359 409 2629 706 
Q 2900 1003 2900 1516 
L 2900 3500 
L 3475 3500 
L 3475 0 
L 2900 0 
L 2900 538 
Q 2691 219 2414 64 
Q 2138 -91 1772 -91 
Q 1169 -91 856 284 
Q 544 659 544 1381 
z
M 1991 3584 
L 1991 3584 
z
" transform="scale(0.015625)"/>
       <path id="DejaVuSans-69" d="M 603 3500 
L 1178 3500 
L 1178 0 
L 603 0 
L 603 3500 
z
M 603 4863 
L 1178 4863 
L 1178 4134 
L 603 4134 
L 603 4863 
z
" transform="scale(0.015625)"/>
      </defs>
      <use xlink:href="#DejaVuSans-63"/>
      <use xlink:href="#DejaVuSans-6f" transform="translate(54.980469 0)"/>
      <use xlink:href="#DejaVuSans-6e" transform="translate(116.162109 0)"/>
      <use xlink:href="#DejaVuSans-76" transform="translate(179.541016 0)"/>
      <use xlink:href="#DejaVuSans-6f" transform="translate(238.720703 0)"/>
      <use xlink:href="#DejaVuSans-6c" transform="translate(299.902344 0)"/>
      <use xlink:href="#DejaVuSans-75" transform="translate(327.685547 0)"/>
      <use xlink:href="#DejaVuSans-74" transform="translate(391.064453 0)"/>
      <use xlink:href="#DejaVuSans-69" transform="translate(430.273438 0)"/>
      <use xlink:href="#DejaVuSans-6f" transform="translate(458.056641 0)"/>
      <use xlink:href="#DejaVuSans-6e" transform="translate(519.238281 0)"/>
     </g>
    </g>
   </g>
  </g>
 </g>
 <defs>
  <clipPath id="p041b4e5e5b">
   <rect x="57.6" y="41.472" width="357.12" height="266.112"/>
  </clipPath>
 </defs>
</svg>
