<?xml version="1.0" encoding="utf-8" standalone="no"?>
<!DOCTYPE svg PUBLIC "-//W3C//DTD SVG 1.1//EN"
  "http://www.w3.org/Graphics/SVG/1.1/DTD/svg11.dtd">
<svg xmlns:xlink="http://www.w3.org/1999/xlink" width="720pt" height="720pt" viewBox="0 0 720 720" xmlns="http://www.w3.org/2000/svg" version="1.1">
 <metadata>
  <rdf:RDF xmlns:dc="http://purl.org/dc/elements/1.1/" xmlns:cc="http://creativecommons.org/ns#" xmlns:rdf="http://www.w3.org/1999/02/22-rdf-syntax-ns#">
   <cc:Work>
    <dc:type rdf:resource="http://purl.org/dc/dcmitype/StillImage"/>
    <dc:date>2025-11-25T21:35:07.216845</dc:date>
    <dc:format>image/svg+xml</dc:format>
    <dc:creator>
     <cc:Agent>
      <dc:title>Matplotlib v3.10.7, https://matplotlib.org/</dc:title>
     </cc:Agent>
    </dc:creator>
   </cc:Work>
  </rdf:RDF>
 </metadata>
 <defs>
  <style type="text/css">*{stroke-linejoin: round; stroke-linecap: butt}</style>
 </defs>
 <g id="figure_1">
  <g id="patch_1">
   <path d="M 0 720 
L 720 720 
L 720 0 
L 0 0 
z
" style="fill: #ffffff"/>
  </g>
  <g id="axes_1">
   <g id="patch_2">
    <path d="M 90 640.8 
L 648 640.8 
L 648 86.4 
L 90 86.4 
z
" style="fill: #ffffff"/>
   </g>
   <g id="matplotlib.axis_1">
    <g id="xtick_1">
     <g id="line2d_1">
      <defs>
       <path id="m527825f5f7" d="M 0 0 
L 0 3.5 
" style="stroke: #000000; stroke-width: 0.8"/>
      </defs>
      <g>
       <use xlink:href="#m527825f5f7" x="115.363636" y="640.8" style="stroke: #000000; stroke-width: 0.8"/>
      </g>
     </g>
     <g id="text_1">
      <!-- 0.00 -->
      <g transform="translate(104.230824 655.398438) scale(0.1 -0.1)">
       <defs>
        <path id="DejaVuSans-30" d="M 2034 4250 
Q 1547 4250 1301 3770 
Q 1056 3291 1056 2328 
Q 1056 1369 1301 889 
Q 1547 409 2034 409 
Q 2525 409 2770 889 
Q 3016 1369 3016 2328 
Q 3016 3291 2770 3770 
Q 2525 4250 2034 4250 
z
M 2034 4750 
Q 2819 4750 3233 4129 
Q 3647 3509 3647 2328 
Q 3647 1150 3233 529 
Q 2819 -91 2034 -91 
Q 1250 -91 836 529 
Q 422 1150 422 2328 
Q 422 3509 836 4129 
Q 1250 4750 2034 4750 
z
" transform="scale(0.015625)"/>
        <path id="DejaVuSans-2e" d="M 684 794 
L 1344 794 
L 1344 0 
L 684 0 
L 684 794 
z
" transform="scale(0.015625)"/>
       </defs>
       <use xlink:href="#DejaVuSans-30"/>
       <use xlink:href="#DejaVuSans-2e" transform="translate(63.623047 0)"/>
       <use xlink:href="#DejaVuSans-30" transform="translate(95.410156 0)"/>
       <use xlink:href="#DejaVuSans-30" transform="translate(159.033203 0)"/>
      </g>
     </g>
    </g>
    <g id="xtick_2">
     <g id="line2d_2">
      <g>
       <use xlink:href="#m527825f5f7" x="217.328004" y="640.8" style="stroke: #000000; stroke-width: 0.8"/>
      </g>
     </g>
     <g id="text_2">
      <!-- 0.02 -->
      <g transform="translate(206.195191 655.398438) scale(0.1 -0.1)">
       <defs>
        <path id="DejaVuSans-32" d="M 1228 531 
L 3431 531 
L 3431 0 
L 469 0 
L 469 531 
Q 828 903 1448 1529 
Q 2069 2156 2228 2338 
Q 2531 2678 2651 2914 
Q 2772 3150 2772 3378 
Q 2772 3750 2511 3984 
Q 2250 4219 1831 4219 
Q 1534 4219 1204 4116 
Q 875 4013 500 3803 
L 500 4441 
Q 881 4594 1212 4672 
Q 1544 4750 1819 4750 
Q 2544 4750 2975 4387 
Q 3406 4025 3406 3419 
Q 3406 3131 3298 2873 
Q 3191 2616 2906 2266 
Q 2828 2175 2409 1742 
Q 1991 1309 1228 531 
z
" transform="scale(0.015625)"/>
       </defs>
       <use xlink:href="#DejaVuSans-30"/>
       <use xlink:href="#DejaVuSans-2e" transform="translate(63.623047 0)"/>
       <use xlink:href="#DejaVuSans-30" transform="translate(95.410156 0)"/>
       <use xlink:href="#DejaVuSans-32" transform="translate(159.033203 0)"/>
      </g>
     </g>
    </g>
    <g id="xtick_3">
     <g id="line2d_3">
      <g>
       <use xlink:href="#m527825f5f7" x="319.292371" y="640.8" style="stroke: #000000; stroke-width: 0.8"/>
      </g>
     </g>
     <g id="text_3">
      <!-- 0.04 -->
      <g transform="translate(308.159558 655.398438) scale(0.1 -0.1)">
       <defs>
        <path id="DejaVuSans-34" d="M 2419 4116 
L 825 1625 
L 2419 1625 
L 2419 4116 
z
M 2253 4666 
L 3047 4666 
L 3047 1625 
L 3713 1625 
L 3713 1100 
L 3047 1100 
L 3047 0 
L 2419 0 
L 2419 1100 
L 313 1100 
L 313 1709 
L 2253 4666 
z
" transform="scale(0.015625)"/>
       </defs>
       <use xlink:href="#DejaVuSans-30"/>
       <use xlink:href="#DejaVuSans-2e" transform="translate(63.623047 0)"/>
       <use xlink:href="#DejaVuSans-30" transform="translate(95.410156 0)"/>
       <use xlink:href="#DejaVuSans-34" transform="translate(159.033203 0)"/>
      </g>
     </g>
    </g>
    <g id="xtick_4">
     <g id="line2d_4">
      <g>
       <use xlink:href="#m527825f5f7" x="421.256738" y="640.8" style="stroke: #000000; stroke-width: 0.8"/>
      </g>
     </g>
     <g id="text_4">
      <!-- 0.06 -->
      <g transform="translate(410.123926 655.398438) scale(0.1 -0.1)">
       <defs>
        <path id="DejaVuSans-36" d="M 2113 2584 
Q 1688 2584 1439 2293 
Q 1191 2003 1191 1497 
Q 1191 994 1439 701 
Q 1688 409 2113 409 
Q 2538 409 2786 701 
Q 3034 994 3034 1497 
Q 3034 2003 2786 2293 
Q 2538 2584 2113 2584 
z
M 3366 4563 
L 3366 3988 
Q 3128 4100 2886 4159 
Q 2644 4219 2406 4219 
Q 1781 4219 1451 3797 
Q 1122 3375 1075 2522 
Q 1259 2794 1537 2939 
Q 1816 3084 2150 3084 
Q 2853 3084 3261 2657 
Q 3669 2231 3669 1497 
Q 3669 778 3244 343 
Q 2819 -91 2113 -91 
Q 1303 -91 875 529 
Q 447 1150 447 2328 
Q 447 3434 972 4092 
Q 1497 4750 2381 4750 
Q 2619 4750 2861 4703 
Q 3103 4656 3366 4563 
z
" transform="scale(0.015625)"/>
       </defs>
       <use xlink:href="#DejaVuSans-30"/>
       <use xlink:href="#DejaVuSans-2e" transform="translate(63.623047 0)"/>
       <use xlink:href="#DejaVuSans-30" transform="translate(95.410156 0)"/>
       <use xlink:href="#DejaVuSans-36" transform="translate(159.033203 0)"/>
      </g>
     </g>
    </g>
    <g id="xtick_5">
     <g id="line2d_5">
      <g>
       <use xlink:href="#m527825f5f7" x="523.221106" y="640.8" style="stroke: #000000; stroke-width: 0.8"/>
      </g>
     </g>
     <g id="text_5">
      <!-- 0.08 -->
      <g transform="translate(512.088293 655.398438) scale(0.1 -0.1)">
       <defs>
        <path id="DejaVuSans-38" d="M 2034 2216 
Q 1584 2216 1326 1975 
Q 1069 1734 1069 1313 
Q 1069 891 1326 650 
Q 1584 409 2034 409 
Q 2484 409 2743 651 
Q 3003 894 3003 1313 
Q 3003 1734 2745 1975 
Q 2488 2216 2034 2216 
z
M 1403 2484 
Q 997 2584 770 2862 
Q 544 3141 544 3541 
Q 544 4100 942 4425 
Q 1341 4750 2034 4750 
Q 2731 4750 3128 4425 
Q 3525 4100 3525 3541 
Q 3525 3141 3298 2862 
Q 3072 2584 2669 2484 
Q 3125 2378 3379 2068 
Q 3634 1759 3634 1313 
Q 3634 634 3220 271 
Q 2806 -91 2034 -91 
Q 1263 -91 848 271 
Q 434 634 434 1313 
Q 434 1759 690 2068 
Q 947 2378 1403 2484 
z
M 1172 3481 
Q 1172 3119 1398 2916 
Q 1625 2713 2034 2713 
Q 2441 2713 2670 2916 
Q 2900 3119 2900 3481 
Q 2900 3844 2670 4047 
Q 2441 4250 2034 4250 
Q 1625 4250 1398 4047 
Q 1172 3844 1172 3481 
z
" transform="scale(0.015625)"/>
       </defs>
       <use xlink:href="#DejaVuSans-30"/>
       <use xlink:href="#DejaVuSans-2e" transform="translate(63.623047 0)"/>
       <use xlink:href="#DejaVuSans-30" transform="translate(95.410156 0)"/>
       <use xlink:href="#DejaVuSans-38" transform="translate(159.033203 0)"/>
      </g>
     </g>
    </g>
    <g id="xtick_6">
     <g id="line2d_6">
      <g>
       <use xlink:href="#m527825f5f7" x="625.185473" y="640.8" style="stroke: #000000; stroke-width: 0.8"/>
      </g>
     </g>
     <g id="text_6">
      <!-- 0.10 -->
      <g transform="translate(614.05266 655.398438) scale(0.1 -0.1)">
       <defs>
        <path id="DejaVuSans-31" d="M 794 531 
L 1825 531 
L 1825 4091 
L 703 3866 
L 703 4441 
L 1819 4666 
L 2450 4666 
L 2450 531 
L 3481 531 
L 3481 0 
L 794 0 
L 794 531 
z
" transform="scale(0.015625)"/>
       </defs>
       <use xlink:href="#DejaVuSans-30"/>
       <use xlink:href="#DejaVuSans-2e" transform="translate(63.623047 0)"/>
       <use xlink:href="#DejaVuSans-31" transform="translate(95.410156 0)"/>
       <use xlink:href="#DejaVuSans-30" transform="translate(159.033203 0)"/>
      </g>
     </g>
    </g>
   </g>
   <g id="matplotlib.axis_2">
    <g id="ytick_1">
     <g id="line2d_7">
      <defs>
       <path id="m51c9ec2147" d="M 0 0 
L -3.5 0 
" style="stroke: #000000; stroke-width: 0.8"/>
      </defs>
      <g>
       <use xlink:href="#m51c9ec2147" x="90" y="615.6" style="stroke: #000000; stroke-width: 0.8"/>
      </g>
     </g>
     <g id="text_7">
      <!-- −1.00 -->
      <g transform="translate(52.354687 619.399219) scale(0.1 -0.1)">
       <defs>
        <path id="DejaVuSans-2212" d="M 678 2272 
L 4684 2272 
L 4684 1741 
L 678 1741 
L 678 2272 
z
" transform="scale(0.015625)"/>
       </defs>
       <use xlink:href="#DejaVuSans-2212"/>
       <use xlink:href="#DejaVuSans-31" transform="translate(83.789062 0)"/>
       <use xlink:href="#DejaVuSans-2e" transform="translate(147.412109 0)"/>
       <use xlink:href="#DejaVuSans-30" transform="translate(179.199219 0)"/>
       <use xlink:href="#DejaVuSans-30" transform="translate(242.822266 0)"/>
      </g>
     </g>
    </g>
    <g id="ytick_2">
     <g id="line2d_8">
      <g>
       <use xlink:href="#m51c9ec2147" x="90" y="552.6" style="stroke: #000000; stroke-width: 0.8"/>
      </g>
     </g>
     <g id="text_8">
      <!-- −0.75 -->
      <g transform="translate(52.354687 556.399219) scale(0.1 -0.1)">
       <defs>
        <path id="DejaVuSans-37" d="M 525 4666 
L 3525 4666 
L 3525 4397 
L 1831 0 
L 1172 0 
L 2766 4134 
L 525 4134 
L 525 4666 
z
" transform="scale(0.015625)"/>
        <path id="DejaVuSans-35" d="M 691 4666 
L 3169 4666 
L 3169 4134 
L 1269 4134 
L 1269 2991 
Q 1406 3038 1543 3061 
Q 1681 3084 1819 3084 
Q 2600 3084 3056 2656 
Q 3513 2228 3513 1497 
Q 3513 744 3044 326 
Q 2575 -91 1722 -91 
Q 1428 -91 1123 -41 
Q 819 9 494 109 
L 494 744 
Q 775 591 1075 516 
Q 1375 441 1709 441 
Q 2250 441 2565 725 
Q 2881 1009 2881 1497 
Q 2881 1984 2565 2268 
Q 2250 2553 1709 2553 
Q 1456 2553 1204 2497 
Q 953 2441 691 2322 
L 691 4666 
z
" transform="scale(0.015625)"/>
       </defs>
       <use xlink:href="#DejaVuSans-2212"/>
       <use xlink:href="#DejaVuSans-30" transform="translate(83.789062 0)"/>
       <use xlink:href="#DejaVuSans-2e" transform="translate(147.412109 0)"/>
       <use xlink:href="#DejaVuSans-37" transform="translate(179.199219 0)"/>
       <use xlink:href="#DejaVuSans-35" transform="translate(242.822266 0)"/>
      </g>
     </g>
    </g>
    <g id="ytick_3">
     <g id="line2d_9">
      <g>
       <use xlink:href="#m51c9ec2147" x="90" y="489.6" style="stroke: #000000; stroke-width: 0.8"/>
      </g>
     </g>
     <g id="text_9">
      <!-- −0.50 -->
      <g transform="translate(52.354687 493.399219) scale(0.1 -0.1)">
       <use xlink:href="#DejaVuSans-2212"/>
       <use xlink:href="#DejaVuSans-30" transform="translate(83.789062 0)"/>
       <use xlink:href="#DejaVuSans-2e" transform="translate(147.412109 0)"/>
       <use xlink:href="#DejaVuSans-35" transform="translate(179.199219 0)"/>
       <use xlink:href="#DejaVuSans-30" transform="translate(242.822266 0)"/>
      </g>
     </g>
    </g>
    <g id="ytick_4">
     <g id="line2d_10">
      <g>
       <use xlink:href="#m51c9ec2147" x="90" y="426.6" style="stroke: #000000; stroke-width: 0.8"/>
      </g>
     </g>
     <g id="text_10">
      <!-- −0.25 -->
      <g transform="translate(52.354687 430.399219) scale(0.1 -0.1)">
       <use xlink:href="#DejaVuSans-2212"/>
       <use xlink:href="#DejaVuSans-30" transform="translate(83.789062 0)"/>
       <use xlink:href="#DejaVuSans-2e" transform="translate(147.412109 0)"/>
       <use xlink:href="#DejaVuSans-32" transform="translate(179.199219 0)"/>
       <use xlink:href="#DejaVuSans-35" transform="translate(242.822266 0)"/>
      </g>
     </g>
    </g>
    <g id="ytick_5">
     <g id="line2d_11">
      <g>
       <use xlink:href="#m51c9ec2147" x="90" y="363.6" style="stroke: #000000; stroke-width: 0.8"/>
      </g>
     </g>
     <g id="text_11">
      <!-- 0.00 -->
      <g transform="translate(60.734375 367.399219) scale(0.1 -0.1)">
       <use xlink:href="#DejaVuSans-30"/>
       <use xlink:href="#DejaVuSans-2e" transform="translate(63.623047 0)"/>
       <use xlink:href="#DejaVuSans-30" transform="translate(95.410156 0)"/>
       <use xlink:href="#DejaVuSans-30" transform="translate(159.033203 0)"/>
      </g>
     </g>
    </g>
    <g id="ytick_6">
     <g id="line2d_12">
      <g>
       <use xlink:href="#m51c9ec2147" x="90" y="300.6" style="stroke: #000000; stroke-width: 0.8"/>
      </g>
     </g>
     <g id="text_12">
      <!-- 0.25 -->
      <g transform="translate(60.734375 304.399219) scale(0.1 -0.1)">
       <use xlink:href="#DejaVuSans-30"/>
       <use xlink:href="#DejaVuSans-2e" transform="translate(63.623047 0)"/>
       <use xlink:href="#DejaVuSans-32" transform="translate(95.410156 0)"/>
       <use xlink:href="#DejaVuSans-35" transform="translate(159.033203 0)"/>
      </g>
     </g>
    </g>
    <g id="ytick_7">
     <g id="line2d_13">
      <g>
       <use xlink:href="#m51c9ec2147" x="90" y="237.6" style="stroke: #000000; stroke-width: 0.8"/>
      </g>
     </g>
     <g id="text_13">
      <!-- 0.50 -->
      <g transform="translate(60.734375 241.399219) scale(0.1 -0.1)">
       <use xlink:href="#DejaVuSans-30"/>
       <use xlink:href="#DejaVuSans-2e" transform="translate(63.623047 0)"/>
       <use xlink:href="#DejaVuSans-35" transform="translate(95.410156 0)"/>
       <use xlink:href="#DejaVuSans-30" transform="translate(159.033203 0)"/>
      </g>
     </g>
    </g>
    <g id="ytick_8">
     <g id="line2d_14">
      <g>
       <use xlink:href="#m51c9ec2147" x="90" y="174.6" style="stroke: #000000; stroke-width: 0.8"/>
      </g>
     </g>
     <g id="text_14">
      <!-- 0.75 -->
      <g transform="translate(60.734375 178.399219) scale(0.1 -0.1)">
       <use xlink:href="#DejaVuSans-30"/>
       <use xlink:href="#DejaVuSans-2e" transform="translate(63.623047 0)"/>
       <use xlink:href="#DejaVuSans-37" transform="translate(95.410156 0)"/>
       <use xlink:href="#DejaVuSans-35" transform="translate(159.033203 0)"/>
      </g>
     </g>
    </g>
    <g id="ytick_9">
     <g id="line2d_15">
      <g>
       <use xlink:href="#m51c9ec2147" x="90" y="111.6" style="stroke: #000000; stroke-width: 0.8"/>
      </g>
     </g>
     <g id="text_15">
      <!-- 1.00 -->
      <g transform="translate(60.734375 115.399219) scale(0.1 -0.1)">
       <use xlink:href="#DejaVuSans-31"/>
       <use xlink:href="#DejaVuSans-2e" transform="translate(63.623047 0)"/>
       <use xlink:href="#DejaVuSans-30" transform="translate(95.410156 0)"/>
       <use xlink:href="#DejaVuSans-30" transform="translate(159.033203 0)"/>
      </g>
     </g>
    </g>
   </g>
   <g id="line2d_16">
    <path d="M 115.363636 363.6 
L 117.912746 285.727717 
L 120.461855 215.478116 
L 123.010964 159.727717 
L 125.560073 123.933758 
L 128.109182 111.6 
L 130.658291 123.933758 
L 133.207401 159.727717 
L 135.75651 215.478116 
L 138.305619 285.727717 
L 143.403837 441.472283 
L 145.952947 511.721884 
L 148.502056 567.472283 
L 151.051165 603.266242 
L 153.600274 615.6 
L 156.149383 603.266242 
L 158.698492 567.472283 
L 161.247602 511.721884 
L 163.796711 441.472283 
L 168.894929 285.727717 
L 171.444038 215.478116 
L 173.993148 159.727717 
L 176.542257 123.933758 
L 179.091366 111.6 
L 181.640475 123.933758 
L 184.189584 159.727717 
L 186.738693 215.478116 
L 189.287803 285.727717 
L 194.386021 441.472283 
L 196.93513 511.721884 
L 199.484239 567.472283 
L 202.033349 603.266242 
L 204.582458 615.6 
L 207.131567 603.266242 
L 209.680676 567.472283 
L 212.229785 511.721884 
L 214.778894 441.472283 
L 219.877113 285.727717 
L 222.426222 215.478116 
L 224.975331 159.727717 
L 227.52444 123.933758 
L 230.07355 111.6 
L 232.622659 123.933758 
L 235.171768 159.727717 
L 237.720877 215.478116 
L 240.269986 285.727717 
L 245.368205 441.472283 
L 247.917314 511.721884 
L 250.466423 567.472283 
L 253.015532 603.266242 
L 255.564641 615.6 
L 258.113751 603.266242 
L 260.66286 567.472283 
L 263.211969 511.721884 
L 265.761078 441.472283 
L 270.859296 285.727717 
L 273.408406 215.478116 
L 275.957515 159.727717 
L 278.506624 123.933758 
L 281.055733 111.6 
L 283.604842 123.933758 
L 286.153952 159.727717 
L 288.703061 215.478116 
L 291.25217 285.727717 
L 296.350388 441.472283 
L 298.899497 511.721884 
L 301.448607 567.472283 
L 303.997716 603.266242 
L 306.546825 615.6 
L 309.095934 603.266242 
L 311.645043 567.472283 
L 314.194153 511.721884 
L 316.743262 441.472283 
L 321.84148 285.727717 
L 324.390589 215.478116 
L 326.939698 159.727717 
L 329.488808 123.933758 
L 332.037917 111.6 
L 334.587026 123.933758 
L 337.136135 159.727717 
L 339.685244 215.478116 
L 342.234354 285.727717 
L 347.332572 441.472283 
L 349.881681 511.721884 
L 352.43079 567.472283 
L 354.979899 603.266242 
L 357.529009 615.6 
L 360.078118 603.266242 
L 362.627227 567.472283 
L 365.176336 511.721884 
L 367.725445 441.472283 
L 372.823664 285.727717 
L 375.372773 215.478116 
L 377.921882 159.727717 
L 380.470991 123.933758 
L 383.020101 111.6 
L 385.56921 123.933758 
L 388.118319 159.727717 
L 390.667428 215.478116 
L 393.216537 285.727717 
L 398.314756 441.472283 
L 400.863865 511.721884 
L 403.412974 567.472283 
L 405.962083 603.266242 
L 408.511192 615.6 
L 411.060302 603.266242 
L 413.609411 567.472283 
L 416.15852 511.721884 
L 418.707629 441.472283 
L 423.805847 285.727717 
L 426.354957 215.478116 
L 428.904066 159.727717 
L 431.453175 123.933758 
L 434.002284 111.6 
L 436.551393 123.933758 
L 439.100503 159.727717 
L 441.649612 215.478116 
L 444.198721 285.727717 
L 449.296939 441.472283 
L 451.846048 511.721884 
L 454.395158 567.472283 
L 456.944267 603.266242 
L 459.493376 615.6 
L 462.042485 603.266242 
L 464.591594 567.472283 
L 467.140704 511.721884 
L 469.689813 441.472283 
L 474.788031 285.727717 
L 477.33714 215.478116 
L 479.886249 159.727717 
L 482.435359 123.933758 
L 484.984468 111.6 
L 487.533577 123.933758 
L 490.082686 159.727717 
L 492.631795 215.478116 
L 495.180905 285.727717 
L 500.279123 441.472283 
L 502.828232 511.721884 
L 505.377341 567.472283 
L 507.92645 603.266242 
L 510.47556 615.6 
L 513.024669 603.266242 
L 515.573778 567.472283 
L 518.122887 511.721884 
L 520.671996 441.472283 
L 525.770215 285.727717 
L 528.319324 215.478116 
L 530.868433 159.727717 
L 533.417542 123.933758 
L 535.966651 111.6 
L 538.515761 123.933758 
L 541.06487 159.727717 
L 543.613979 215.478116 
L 546.163088 285.727717 
L 551.261307 441.472283 
L 553.810416 511.721884 
L 556.359525 567.472283 
L 558.908634 603.266242 
L 561.457743 615.6 
L 564.006852 603.266242 
L 566.555962 567.472283 
L 569.105071 511.721884 
L 571.65418 441.472283 
L 576.752398 285.727717 
L 579.301508 215.478116 
L 581.850617 159.727717 
L 584.399726 123.933758 
L 586.948835 111.6 
L 589.497944 123.933758 
L 592.047053 159.727717 
L 594.596163 215.478116 
L 597.145272 285.727717 
L 602.24349 441.472283 
L 604.792599 511.721884 
L 607.341709 567.472283 
L 609.890818 603.266242 
L 612.439927 615.6 
L 614.989036 603.266242 
L 617.538145 567.472283 
L 620.087254 511.721884 
L 622.636364 441.472283 
L 622.636364 441.472283 
" clip-path="url(#p8d4d9066af)" style="fill: none; stroke: #1f77b4; stroke-width: 1.5; stroke-linecap: square"/>
   </g>
   <g id="line2d_17">
    <path d="M 115.363636 363.6 
L 117.912746 285.727717 
L 120.461855 215.478116 
L 123.010964 159.727717 
L 125.560073 123.933758 
L 128.109182 111.6 
L 130.658291 123.933758 
L 133.207401 159.727717 
L 135.75651 215.478116 
L 138.305619 285.727717 
L 143.403837 441.472283 
L 145.952947 511.721884 
L 148.502056 567.472283 
L 151.051165 603.266242 
L 153.600274 615.6 
L 156.149383 603.266242 
L 158.698492 567.472283 
L 161.247602 511.721884 
L 163.796711 441.472283 
L 168.894929 285.727717 
L 171.444038 215.478116 
L 173.993148 159.727717 
L 176.542257 123.933758 
L 179.091366 111.6 
L 181.640475 123.933758 
L 184.189584 159.727717 
L 186.738693 215.478116 
L 189.287803 285.727717 
L 194.386021 441.472283 
L 196.93513 511.721884 
L 199.484239 567.472283 
L 202.033349 603.266242 
L 204.582458 615.6 
L 207.131567 603.266242 
L 209.680676 567.472283 
L 212.229785 511.721884 
L 214.778894 441.472283 
L 219.877113 285.727717 
L 222.426222 215.478116 
L 224.975331 159.727717 
L 227.52444 123.933758 
L 230.07355 111.6 
L 232.622659 123.933758 
L 235.171768 159.727717 
L 237.720877 215.478116 
L 240.269986 285.727717 
L 245.368205 441.472283 
L 247.917314 511.721884 
L 250.466423 567.472283 
L 253.015532 603.266242 
L 255.564641 615.6 
L 258.113751 603.266242 
L 260.66286 567.472283 
L 263.211969 511.721884 
L 265.761078 441.472283 
L 270.859296 285.727717 
L 273.408406 215.478116 
L 275.957515 159.727717 
L 278.506624 123.933758 
L 281.055733 111.6 
L 283.604842 123.933758 
L 286.153952 159.727717 
L 288.703061 215.478116 
L 291.25217 285.727717 
L 296.350388 441.472283 
L 298.899497 511.721884 
L 301.448607 567.472283 
L 303.997716 603.266242 
L 306.546825 615.6 
L 309.095934 603.266242 
L 311.645043 567.472283 
L 314.194153 511.721884 
L 316.743262 441.472283 
L 321.84148 285.727717 
L 324.390589 215.478116 
L 326.939698 159.727717 
L 329.488808 123.933758 
L 332.037917 111.6 
L 334.587026 123.933758 
L 337.136135 159.727717 
L 339.685244 215.478116 
L 342.234354 285.727717 
L 347.332572 441.472283 
L 349.881681 511.721884 
L 352.43079 567.472283 
L 354.979899 603.266242 
L 357.529009 615.6 
L 360.078118 603.266242 
L 362.627227 567.472283 
L 365.176336 511.721884 
L 367.725445 441.472283 
L 372.823664 285.727717 
L 375.372773 215.478116 
L 377.921882 159.727717 
L 380.470991 123.933758 
L 383.020101 111.6 
L 385.56921 123.933758 
L 388.118319 159.727717 
L 390.667428 215.478116 
L 393.216537 285.727717 
L 398.314756 441.472283 
L 400.863865 511.721884 
L 403.412974 567.472283 
L 405.962083 603.266242 
L 408.511192 615.6 
L 411.060302 603.266242 
L 413.609411 567.472283 
L 416.15852 511.721884 
L 418.707629 441.472283 
L 423.805847 285.727717 
L 426.354957 215.478116 
L 428.904066 159.727717 
L 431.453175 123.933758 
L 434.002284 111.6 
L 436.551393 123.933758 
L 439.100503 159.727717 
L 441.649612 215.478116 
L 444.198721 285.727717 
L 449.296939 441.472283 
L 451.846048 511.721884 
L 454.395158 567.472283 
L 456.944267 603.266242 
L 459.493376 615.6 
L 462.042485 603.266242 
L 464.591594 567.472283 
L 467.140704 511.721884 
L 469.689813 441.472283 
L 474.788031 285.727717 
L 477.33714 215.478116 
L 479.886249 159.727717 
L 482.435359 123.933758 
L 484.984468 111.6 
L 487.533577 123.933758 
L 490.082686 159.727717 
L 492.631795 215.478116 
L 495.180905 285.727717 
L 500.279123 441.472283 
L 502.828232 511.721884 
L 505.377341 567.472283 
L 507.92645 603.266242 
L 510.47556 615.6 
L 513.024669 603.266242 
L 515.573778 567.472283 
L 518.122887 511.721884 
L 520.671996 441.472283 
L 525.770215 285.727717 
L 528.319324 215.478116 
L 530.868433 159.727717 
L 533.417542 123.933758 
L 535.966651 111.6 
L 538.515761 123.933758 
L 541.06487 159.727717 
L 543.613979 215.478116 
L 546.163088 285.727717 
L 551.261307 441.472283 
L 553.810416 511.721884 
L 556.359525 567.472283 
L 558.908634 603.266242 
L 561.457743 615.6 
L 564.006852 603.266242 
L 566.555962 567.472283 
L 569.105071 511.721884 
L 571.65418 441.472283 
L 576.752398 285.727717 
L 579.301508 215.478116 
L 581.850617 159.727717 
L 584.399726 123.933758 
L 586.948835 111.6 
L 589.497944 123.933758 
L 592.047053 159.727717 
L 594.596163 215.478116 
L 597.145272 285.727717 
L 602.24349 441.472283 
L 604.792599 511.721884 
L 607.341709 567.472283 
L 609.890818 603.266242 
L 612.439927 615.6 
L 614.989036 603.266242 
L 617.538145 567.472283 
L 620.087254 511.721884 
L 622.636364 441.472283 
L 622.636364 441.472283 
" clip-path="url(#p8d4d9066af)" style="fill: none; stroke: #ff7f0e; stroke-width: 1.5; stroke-linecap: square"/>
   </g>
   <g id="line2d_18">
    <path d="M 115.363636 363.6 
L 120.461855 363.453858 
L 123.010964 363.147604 
L 125.560073 362.65508 
L 130.658291 361.477426 
L 133.207401 361.145048 
L 135.75651 361.273239 
L 138.305619 362.053989 
L 140.854728 363.6 
L 143.403837 365.901875 
L 145.952947 368.80082 
L 151.051165 375.004871 
L 153.600274 377.333178 
L 156.149383 378.422557 
L 158.698492 377.79542 
L 161.247602 375.12922 
L 163.796711 370.332815 
L 166.34582 363.6 
L 168.894929 355.429446 
L 173.993148 338.127287 
L 176.542257 331.121465 
L 179.091366 326.695454 
L 181.640475 325.798295 
L 184.189584 329.075438 
L 186.738693 336.747279 
L 189.287803 348.528094 
L 191.836912 363.6 
L 196.93513 397.977105 
L 199.484239 413.646424 
L 202.033349 425.703075 
L 204.582458 432.397197 
L 207.131567 432.41066 
L 209.680676 425.052418 
L 212.229785 410.397291 
L 214.778894 389.346994 
L 217.328004 363.6 
L 222.426222 307.957265 
L 224.975331 283.900539 
L 227.52444 266.221367 
L 230.07355 257.310743 
L 232.622659 258.785951 
L 235.171768 271.256897 
L 237.720877 294.189383 
L 240.269986 325.886872 
L 242.819095 363.6 
L 247.917314 442.311267 
L 250.466423 475.12918 
L 253.015532 498.452194 
L 255.564641 509.310743 
L 258.113751 505.887609 
L 260.66286 487.772822 
L 263.211969 456.079149 
L 265.761078 413.398978 
L 268.310187 363.6 
L 270.859296 311.474711 
L 273.408406 262.275407 
L 275.957515 221.180135 
L 278.506624 192.744418 
L 281.055733 180.397197 
L 283.604842 186.036833 
L 286.153952 209.774141 
L 288.703061 249.855221 
L 291.25217 302.778501 
L 298.899497 484.869163 
L 301.448607 532.947721 
L 303.997716 565.464537 
L 306.546825 578.695454 
L 309.095934 570.787707 
L 311.645043 541.999569 
L 314.194153 494.725878 
L 316.743262 433.301728 
L 324.390589 227.007337 
L 326.939698 173.923138 
L 329.488808 138.756314 
L 332.037917 125.333178 
L 334.587026 135.338629 
L 337.136135 168.111494 
L 339.685244 220.678936 
L 342.234354 288.029592 
L 347.332572 439.926272 
L 349.881681 509.395123 
L 352.43079 565.01733 
L 354.979899 601.143668 
L 357.529009 614.048731 
L 360.078118 602.321322 
L 362.627227 567.019886 
L 365.176336 511.575741 
L 367.725445 441.45307 
L 372.823664 285.74693 
L 375.372773 215.624259 
L 377.921882 160.180114 
L 380.470991 124.878678 
L 383.020101 113.151269 
L 385.56921 126.056332 
L 388.118319 162.18267 
L 390.667428 217.804877 
L 393.216537 287.273728 
L 398.314756 439.170408 
L 400.863865 506.521064 
L 403.412974 559.088506 
L 405.962083 591.861371 
L 408.511192 601.866822 
L 411.060302 588.443686 
L 413.609411 553.276862 
L 416.15852 500.192663 
L 418.707629 434.739467 
L 423.805847 293.898272 
L 426.354957 232.474122 
L 428.904066 185.200431 
L 431.453175 156.412293 
L 434.002284 148.504546 
L 436.551393 161.735463 
L 439.100503 194.252279 
L 441.649612 242.330837 
L 444.198721 300.799623 
L 449.296939 424.421499 
L 451.846048 477.344779 
L 454.395158 517.425859 
L 456.944267 541.163167 
L 459.493376 546.802803 
L 462.042485 534.455582 
L 464.591594 506.019865 
L 467.140704 464.924593 
L 469.689813 415.725289 
L 472.238922 363.6 
L 474.788031 313.801022 
L 477.33714 271.120851 
L 479.886249 239.427178 
L 482.435359 221.312391 
L 484.984468 217.889257 
L 487.533577 228.747806 
L 490.082686 252.07082 
L 492.631795 284.888733 
L 500.279123 401.313128 
L 502.828232 433.010617 
L 505.377341 455.943103 
L 507.92645 468.414049 
L 510.47556 469.889257 
L 513.024669 460.978633 
L 515.573778 443.299461 
L 518.122887 419.242735 
L 523.221106 363.6 
L 525.770215 337.853006 
L 528.319324 316.802709 
L 530.868433 302.147582 
L 533.417542 294.78934 
L 535.966651 294.802803 
L 538.515761 301.496925 
L 541.06487 313.553576 
L 543.613979 329.222895 
L 548.712197 363.6 
L 551.261307 378.671906 
L 553.810416 390.452721 
L 556.359525 398.124562 
L 558.908634 401.401705 
L 561.457743 400.504546 
L 564.006852 396.078535 
L 566.555962 389.072713 
L 574.203289 363.6 
L 576.752398 356.867185 
L 579.301508 352.07078 
L 581.850617 349.40458 
L 584.399726 348.777443 
L 586.948835 349.866822 
L 589.497944 352.195129 
L 597.145272 361.298125 
L 599.694381 363.6 
L 602.24349 365.146011 
L 604.792599 365.926761 
L 607.341709 366.054952 
L 609.890818 365.722574 
L 617.538145 364.052396 
L 620.087254 363.746142 
L 622.636364 363.619213 
L 622.636364 363.619213 
" clip-path="url(#p8d4d9066af)" style="fill: none; stroke: #2ca02c; stroke-width: 1.5; stroke-linecap: square"/>
   </g>
   <g id="patch_3">
    <path d="M 90 640.8 
L 90 86.4 
" style="fill: none; stroke: #000000; stroke-width: 0.8; stroke-linejoin: miter; stroke-linecap: square"/>
   </g>
   <g id="patch_4">
    <path d="M 648 640.8 
L 648 86.4 
" style="fill: none; stroke: #000000; stroke-width: 0.8; stroke-linejoin: miter; stroke-linecap: square"/>
   </g>
   <g id="patch_5">
    <path d="M 90 640.8 
L 648 640.8 
" style="fill: none; stroke: #000000; stroke-width: 0.8; stroke-linejoin: miter; stroke-linecap: square"/>
   </g>
   <g id="patch_6">
    <path d="M 90 86.4 
L 648 86.4 
" style="fill: none; stroke: #000000; stroke-width: 0.8; stroke-linejoin: miter; stroke-linecap: square"/>
   </g>
   <g id="legend_1">
    <g id="patch_7">
     <path d="M 551.373438 138.434375 
L 641 138.434375 
Q 643 138.434375 643 136.434375 
L 643 93.4 
Q 643 91.4 641 91.4 
L 551.373438 91.4 
Q 549.373438 91.4 549.373438 93.4 
L 549.373438 136.434375 
Q 549.373438 138.434375 551.373438 138.434375 
z
" style="fill: #ffffff; opacity: 0.8; stroke: #cccccc; stroke-linejoin: miter"/>
    </g>
    <g id="line2d_19">
     <path d="M 553.373438 99.498437 
L 563.373438 99.498437 
L 573.373438 99.498437 
" style="fill: none; stroke: #1f77b4; stroke-width: 1.5; stroke-linecap: square"/>
    </g>
    <g id="text_16">
     <!-- pure -->
     <g transform="translate(581.373438 102.998437) scale(0.1 -0.1)">
      <defs>
       <path id="DejaVuSans-70" d="M 1159 525 
L 1159 -1331 
L 581 -1331 
L 581 3500 
L 1159 3500 
L 1159 2969 
Q 1341 3281 1617 3432 
Q 1894 3584 2278 3584 
Q 2916 3584 3314 3078 
Q 3713 2572 3713 1747 
Q 3713 922 3314 415 
Q 2916 -91 2278 -91 
Q 1894 -91 1617 61 
Q 1341 213 1159 525 
z
M 3116 1747 
Q 3116 2381 2855 2742 
Q 2594 3103 2138 3103 
Q 1681 3103 1420 2742 
Q 1159 2381 1159 1747 
Q 1159 1113 1420 752 
Q 1681 391 2138 391 
Q 2594 391 2855 752 
Q 3116 1113 3116 1747 
z
" transform="scale(0.015625)"/>
       <path id="DejaVuSans-75" d="M 544 1381 
L 544 3500 
L 1119 3500 
L 1119 1403 
Q 1119 906 1312 657 
Q 1506 409 1894 409 
Q 2359 409 2629 706 
Q 2900 1003 2900 1516 
L 2900 3500 
L 3475 3500 
L 3475 0 
L 2900 0 
L 2900 538 
Q 2691 219 2414 64 
Q 2138 -91 1772 -91 
Q 1169 -91 856 284 
Q 544 659 544 1381 
z
M 1991 3584 
L 1991 3584 
z
" transform="scale(0.015625)"/>
       <path id="DejaVuSans-72" d="M 2631 2963 
Q 2534 3019 2420 3045 
Q 2306 3072 2169 3072 
Q 1681 3072 1420 2755 
Q 1159 2438 1159 1844 
L 1159 0 
L 581 0 
L 581 3500 
L 1159 3500 
L 1159 2956 
Q 1341 3275 1631 3429 
Q 1922 3584 2338 3584 
Q 2397 3584 2469 3576 
Q 2541 3569 2628 3553 
L 2631 2963 
z
" transform="scale(0.015625)"/>
       <path id="DejaVuSans-65" d="M 3597 1894 
L 3597 1613 
L 953 1613 
Q 991 1019 1311 708 
Q 1631 397 2203 397 
Q 2534 397 2845 478 
Q 3156 559 3463 722 
L 3463 178 
Q 3153 47 2828 -22 
Q 2503 -91 2169 -91 
Q 1331 -91 842 396 
Q 353 884 353 1716 
Q 353 2575 817 3079 
Q 1281 3584 2069 3584 
Q 2775 3584 3186 3129 
Q 3597 2675 3597 1894 
z
M 3022 2063 
Q 3016 2534 2758 2815 
Q 2500 3097 2075 3097 
Q 1594 3097 1305 2825 
Q 1016 2553 972 2059 
L 3022 2063 
z
" transform="scale(0.015625)"/>
      </defs>
      <use xlink:href="#DejaVuSans-70"/>
      <use xlink:href="#DejaVuSans-75" transform="translate(63.476562 0)"/>
      <use xlink:href="#DejaVuSans-72" transform="translate(126.855469 0)"/>
      <use xlink:href="#DejaVuSans-65" transform="translate(165.71875 0)"/>
     </g>
    </g>
    <g id="line2d_20">
     <path d="M 553.373438 114.176562 
L 563.373438 114.176562 
L 573.373438 114.176562 
" style="fill: none; stroke: #ff7f0e; stroke-width: 1.5; stroke-linecap: square"/>
    </g>
    <g id="text_17">
     <!-- rectangular -->
     <g transform="translate(581.373438 117.676562) scale(0.1 -0.1)">
      <defs>
       <path id="DejaVuSans-63" d="M 3122 3366 
L 3122 2828 
Q 2878 2963 2633 3030 
Q 2388 3097 2138 3097 
Q 1578 3097 1268 2742 
Q 959 2388 959 1747 
Q 959 1106 1268 751 
Q 1578 397 2138 397 
Q 2388 397 2633 464 
Q 2878 531 3122 666 
L 3122 134 
Q 2881 22 2623 -34 
Q 2366 -91 2075 -91 
Q 1284 -91 818 406 
Q 353 903 353 1747 
Q 353 2603 823 3093 
Q 1294 3584 2113 3584 
Q 2378 3584 2631 3529 
Q 2884 3475 3122 3366 
z
" transform="scale(0.015625)"/>
       <path id="DejaVuSans-74" d="M 1172 4494 
L 1172 3500 
L 2356 3500 
L 2356 3053 
L 1172 3053 
L 1172 1153 
Q 1172 725 1289 603 
Q 1406 481 1766 481 
L 2356 481 
L 2356 0 
L 1766 0 
Q 1100 0 847 248 
Q 594 497 594 1153 
L 594 3053 
L 172 3053 
L 172 3500 
L 594 3500 
L 594 4494 
L 1172 4494 
z
" transform="scale(0.015625)"/>
       <path id="DejaVuSans-61" d="M 2194 1759 
Q 1497 1759 1228 1600 
Q 959 1441 959 1056 
Q 959 750 1161 570 
Q 1363 391 1709 391 
Q 2188 391 2477 730 
Q 2766 1069 2766 1631 
L 2766 1759 
L 2194 1759 
z
M 3341 1997 
L 3341 0 
L 2766 0 
L 2766 531 
Q 2569 213 2275 61 
Q 1981 -91 1556 -91 
Q 1019 -91 701 211 
Q 384 513 384 1019 
Q 384 1609 779 1909 
Q 1175 2209 1959 2209 
L 2766 2209 
L 2766 2266 
Q 2766 2663 2505 2880 
Q 2244 3097 1772 3097 
Q 1472 3097 1187 3025 
Q 903 2953 641 2809 
L 641 3341 
Q 956 3463 1253 3523 
Q 1550 3584 1831 3584 
Q 2591 3584 2966 3190 
Q 3341 2797 3341 1997 
z
" transform="scale(0.015625)"/>
       <path id="DejaVuSans-6e" d="M 3513 2113 
L 3513 0 
L 2938 0 
L 2938 2094 
Q 2938 2591 2744 2837 
Q 2550 3084 2163 3084 
Q 1697 3084 1428 2787 
Q 1159 2491 1159 1978 
L 1159 0 
L 581 0 
L 581 3500 
L 1159 3500 
L 1159 2956 
Q 1366 3272 1645 3428 
Q 1925 3584 2291 3584 
Q 2894 3584 3203 3211 
Q 3513 2838 3513 2113 
z
" transform="scale(0.015625)"/>
       <path id="DejaVuSans-67" d="M 2906 1791 
Q 2906 2416 2648 2759 
Q 2391 3103 1925 3103 
Q 1463 3103 1205 2759 
Q 947 2416 947 1791 
Q 947 1169 1205 825 
Q 1463 481 1925 481 
Q 2391 481 2648 825 
Q 2906 1169 2906 1791 
z
M 3481 434 
Q 3481 -459 3084 -895 
Q 2688 -1331 1869 -1331 
Q 1566 -1331 1297 -1286 
Q 1028 -1241 775 -1147 
L 775 -588 
Q 1028 -725 1275 -790 
Q 1522 -856 1778 -856 
Q 2344 -856 2625 -561 
Q 2906 -266 2906 331 
L 2906 616 
Q 2728 306 2450 153 
Q 2172 0 1784 0 
Q 1141 0 747 490 
Q 353 981 353 1791 
Q 353 2603 747 3093 
Q 1141 3584 1784 3584 
Q 2172 3584 2450 3431 
Q 2728 3278 2906 2969 
L 2906 3500 
L 3481 3500 
L 3481 434 
z
" transform="scale(0.015625)"/>
       <path id="DejaVuSans-6c" d="M 603 4863 
L 1178 4863 
L 1178 0 
L 603 0 
L 603 4863 
z
" transform="scale(0.015625)"/>
      </defs>
      <use xlink:href="#DejaVuSans-72"/>
      <use xlink:href="#DejaVuSans-65" transform="translate(38.863281 0)"/>
      <use xlink:href="#DejaVuSans-63" transform="translate(100.386719 0)"/>
      <use xlink:href="#DejaVuSans-74" transform="translate(155.367188 0)"/>
      <use xlink:href="#DejaVuSans-61" transform="translate(194.576172 0)"/>
      <use xlink:href="#DejaVuSans-6e" transform="translate(255.855469 0)"/>
      <use xlink:href="#DejaVuSans-67" transform="translate(319.234375 0)"/>
      <use xlink:href="#DejaVuSans-75" transform="translate(382.710938 0)"/>
      <use xlink:href="#DejaVuSans-6c" transform="translate(446.089844 0)"/>
      <use xlink:href="#DejaVuSans-61" transform="translate(473.873047 0)"/>
      <use xlink:href="#DejaVuSans-72" transform="translate(535.152344 0)"/>
     </g>
    </g>
    <g id="line2d_21">
     <path d="M 553.373438 128.854687 
L 563.373438 128.854687 
L 573.373438 128.854687 
" style="fill: none; stroke: #2ca02c; stroke-width: 1.5; stroke-linecap: square"/>
    </g>
    <g id="text_18">
     <!-- hanning -->
     <g transform="translate(581.373438 132.354687) scale(0.1 -0.1)">
      <defs>
       <path id="DejaVuSans-68" d="M 3513 2113 
L 3513 0 
L 2938 0 
L 2938 2094 
Q 2938 2591 2744 2837 
Q 2550 3084 2163 3084 
Q 1697 3084 1428 2787 
Q 1159 2491 1159 1978 
L 1159 0 
L 581 0 
L 581 4863 
L 1159 4863 
L 1159 2956 
Q 1366 3272 1645 3428 
Q 1925 3584 2291 3584 
Q 2894 3584 3203 3211 
Q 3513 2838 3513 2113 
z
" transform="scale(0.015625)"/>
       <path id="DejaVuSans-69" d="M 603 3500 
L 1178 3500 
L 1178 0 
L 603 0 
L 603 3500 
z
M 603 4863 
L 1178 4863 
L 1178 4134 
L 603 4134 
L 603 4863 
z
" transform="scale(0.015625)"/>
      </defs>
      <use xlink:href="#DejaVuSans-68"/>
      <use xlink:href="#DejaVuSans-61" transform="translate(63.378906 0)"/>
      <use xlink:href="#DejaVuSans-6e" transform="translate(124.658203 0)"/>
      <use xlink:href="#DejaVuSans-6e" transform="translate(188.037109 0)"/>
      <use xlink:href="#DejaVuSans-69" transform="translate(251.416016 0)"/>
      <use xlink:href="#DejaVuSans-6e" transform="translate(279.199219 0)"/>
      <use xlink:href="#DejaVuSans-67" transform="translate(342.578125 0)"/>
     </g>
    </g>
   </g>
  </g>
 </g>
 <defs>
  <clipPath id="p8d4d9066af">
   <rect x="90" y="86.4" width="558" height="554.4"/>
  </clipPath>
 </defs>
</svg>
