<?xml version="1.0" encoding="utf-8" standalone="no"?>
<!DOCTYPE svg PUBLIC "-//W3C//DTD SVG 1.1//EN"
  "http://www.w3.org/Graphics/SVG/1.1/DTD/svg11.dtd">
<svg xmlns:xlink="http://www.w3.org/1999/xlink" width="720pt" height="576pt" viewBox="0 0 720 576" xmlns="http://www.w3.org/2000/svg" version="1.1">
 <metadata>
  <rdf:RDF xmlns:dc="http://purl.org/dc/elements/1.1/" xmlns:cc="http://creativecommons.org/ns#" xmlns:rdf="http://www.w3.org/1999/02/22-rdf-syntax-ns#">
   <cc:Work>
    <dc:type rdf:resource="http://purl.org/dc/dcmitype/StillImage"/>
    <dc:date>2025-11-25T23:36:32.992310</dc:date>
    <dc:format>image/svg+xml</dc:format>
    <dc:creator>
     <cc:Agent>
      <dc:title>Matplotlib v3.10.7, https://matplotlib.org/</dc:title>
     </cc:Agent>
    </dc:creator>
   </cc:Work>
  </rdf:RDF>
 </metadata>
 <defs>
  <style type="text/css">*{stroke-linejoin: round; stroke-linecap: butt}</style>
 </defs>
 <g id="figure_1">
  <g id="patch_1">
   <path d="M 0 576 
L 720 576 
L 720 0 
L 0 0 
z
" style="fill: #ffffff"/>
  </g>
  <g id="axes_1">
   <g id="patch_2">
    <path d="M 90 512.64 
L 648 512.64 
L 648 69.12 
L 90 69.12 
z
" style="fill: #ffffff"/>
   </g>
   <g id="matplotlib.axis_1">
    <g id="xtick_1">
     <g id="line2d_1">
      <defs>
       <path id="m30fc312b63" d="M 0 0 
L 0 3.5 
" style="stroke: #000000; stroke-width: 0.8"/>
      </defs>
      <g>
       <use xlink:href="#m30fc312b63" x="115.363636" y="512.64" style="stroke: #000000; stroke-width: 0.8"/>
      </g>
     </g>
     <g id="text_1">
      <!-- 0 -->
      <g transform="translate(112.182386 527.238438) scale(0.1 -0.1)">
       <defs>
        <path id="DejaVuSans-30" d="M 2034 4250 
Q 1547 4250 1301 3770 
Q 1056 3291 1056 2328 
Q 1056 1369 1301 889 
Q 1547 409 2034 409 
Q 2525 409 2770 889 
Q 3016 1369 3016 2328 
Q 3016 3291 2770 3770 
Q 2525 4250 2034 4250 
z
M 2034 4750 
Q 2819 4750 3233 4129 
Q 3647 3509 3647 2328 
Q 3647 1150 3233 529 
Q 2819 -91 2034 -91 
Q 1250 -91 836 529 
Q 422 1150 422 2328 
Q 422 3509 836 4129 
Q 1250 4750 2034 4750 
z
" transform="scale(0.015625)"/>
       </defs>
       <use xlink:href="#DejaVuSans-30"/>
      </g>
     </g>
    </g>
    <g id="xtick_2">
     <g id="line2d_2">
      <g>
       <use xlink:href="#m30fc312b63" x="186.810499" y="512.64" style="stroke: #000000; stroke-width: 0.8"/>
      </g>
     </g>
     <g id="text_2">
      <!-- 10 -->
      <g transform="translate(180.447999 527.238438) scale(0.1 -0.1)">
       <defs>
        <path id="DejaVuSans-31" d="M 794 531 
L 1825 531 
L 1825 4091 
L 703 3866 
L 703 4441 
L 1819 4666 
L 2450 4666 
L 2450 531 
L 3481 531 
L 3481 0 
L 794 0 
L 794 531 
z
" transform="scale(0.015625)"/>
       </defs>
       <use xlink:href="#DejaVuSans-31"/>
       <use xlink:href="#DejaVuSans-30" transform="translate(63.623047 0)"/>
      </g>
     </g>
    </g>
    <g id="xtick_3">
     <g id="line2d_3">
      <g>
       <use xlink:href="#m30fc312b63" x="258.257362" y="512.64" style="stroke: #000000; stroke-width: 0.8"/>
      </g>
     </g>
     <g id="text_3">
      <!-- 20 -->
      <g transform="translate(251.894862 527.238438) scale(0.1 -0.1)">
       <defs>
        <path id="DejaVuSans-32" d="M 1228 531 
L 3431 531 
L 3431 0 
L 469 0 
L 469 531 
Q 828 903 1448 1529 
Q 2069 2156 2228 2338 
Q 2531 2678 2651 2914 
Q 2772 3150 2772 3378 
Q 2772 3750 2511 3984 
Q 2250 4219 1831 4219 
Q 1534 4219 1204 4116 
Q 875 4013 500 3803 
L 500 4441 
Q 881 4594 1212 4672 
Q 1544 4750 1819 4750 
Q 2544 4750 2975 4387 
Q 3406 4025 3406 3419 
Q 3406 3131 3298 2873 
Q 3191 2616 2906 2266 
Q 2828 2175 2409 1742 
Q 1991 1309 1228 531 
z
" transform="scale(0.015625)"/>
       </defs>
       <use xlink:href="#DejaVuSans-32"/>
       <use xlink:href="#DejaVuSans-30" transform="translate(63.623047 0)"/>
      </g>
     </g>
    </g>
    <g id="xtick_4">
     <g id="line2d_4">
      <g>
       <use xlink:href="#m30fc312b63" x="329.704225" y="512.64" style="stroke: #000000; stroke-width: 0.8"/>
      </g>
     </g>
     <g id="text_4">
      <!-- 30 -->
      <g transform="translate(323.341725 527.238438) scale(0.1 -0.1)">
       <defs>
        <path id="DejaVuSans-33" d="M 2597 2516 
Q 3050 2419 3304 2112 
Q 3559 1806 3559 1356 
Q 3559 666 3084 287 
Q 2609 -91 1734 -91 
Q 1441 -91 1130 -33 
Q 819 25 488 141 
L 488 750 
Q 750 597 1062 519 
Q 1375 441 1716 441 
Q 2309 441 2620 675 
Q 2931 909 2931 1356 
Q 2931 1769 2642 2001 
Q 2353 2234 1838 2234 
L 1294 2234 
L 1294 2753 
L 1863 2753 
Q 2328 2753 2575 2939 
Q 2822 3125 2822 3475 
Q 2822 3834 2567 4026 
Q 2313 4219 1838 4219 
Q 1578 4219 1281 4162 
Q 984 4106 628 3988 
L 628 4550 
Q 988 4650 1302 4700 
Q 1616 4750 1894 4750 
Q 2613 4750 3031 4423 
Q 3450 4097 3450 3541 
Q 3450 3153 3228 2886 
Q 3006 2619 2597 2516 
z
" transform="scale(0.015625)"/>
       </defs>
       <use xlink:href="#DejaVuSans-33"/>
       <use xlink:href="#DejaVuSans-30" transform="translate(63.623047 0)"/>
      </g>
     </g>
    </g>
    <g id="xtick_5">
     <g id="line2d_5">
      <g>
       <use xlink:href="#m30fc312b63" x="401.151088" y="512.64" style="stroke: #000000; stroke-width: 0.8"/>
      </g>
     </g>
     <g id="text_5">
      <!-- 40 -->
      <g transform="translate(394.788588 527.238438) scale(0.1 -0.1)">
       <defs>
        <path id="DejaVuSans-34" d="M 2419 4116 
L 825 1625 
L 2419 1625 
L 2419 4116 
z
M 2253 4666 
L 3047 4666 
L 3047 1625 
L 3713 1625 
L 3713 1100 
L 3047 1100 
L 3047 0 
L 2419 0 
L 2419 1100 
L 313 1100 
L 313 1709 
L 2253 4666 
z
" transform="scale(0.015625)"/>
       </defs>
       <use xlink:href="#DejaVuSans-34"/>
       <use xlink:href="#DejaVuSans-30" transform="translate(63.623047 0)"/>
      </g>
     </g>
    </g>
    <g id="xtick_6">
     <g id="line2d_6">
      <g>
       <use xlink:href="#m30fc312b63" x="472.597951" y="512.64" style="stroke: #000000; stroke-width: 0.8"/>
      </g>
     </g>
     <g id="text_6">
      <!-- 50 -->
      <g transform="translate(466.235451 527.238438) scale(0.1 -0.1)">
       <defs>
        <path id="DejaVuSans-35" d="M 691 4666 
L 3169 4666 
L 3169 4134 
L 1269 4134 
L 1269 2991 
Q 1406 3038 1543 3061 
Q 1681 3084 1819 3084 
Q 2600 3084 3056 2656 
Q 3513 2228 3513 1497 
Q 3513 744 3044 326 
Q 2575 -91 1722 -91 
Q 1428 -91 1123 -41 
Q 819 9 494 109 
L 494 744 
Q 775 591 1075 516 
Q 1375 441 1709 441 
Q 2250 441 2565 725 
Q 2881 1009 2881 1497 
Q 2881 1984 2565 2268 
Q 2250 2553 1709 2553 
Q 1456 2553 1204 2497 
Q 953 2441 691 2322 
L 691 4666 
z
" transform="scale(0.015625)"/>
       </defs>
       <use xlink:href="#DejaVuSans-35"/>
       <use xlink:href="#DejaVuSans-30" transform="translate(63.623047 0)"/>
      </g>
     </g>
    </g>
    <g id="xtick_7">
     <g id="line2d_7">
      <g>
       <use xlink:href="#m30fc312b63" x="544.044814" y="512.64" style="stroke: #000000; stroke-width: 0.8"/>
      </g>
     </g>
     <g id="text_7">
      <!-- 60 -->
      <g transform="translate(537.682314 527.238438) scale(0.1 -0.1)">
       <defs>
        <path id="DejaVuSans-36" d="M 2113 2584 
Q 1688 2584 1439 2293 
Q 1191 2003 1191 1497 
Q 1191 994 1439 701 
Q 1688 409 2113 409 
Q 2538 409 2786 701 
Q 3034 994 3034 1497 
Q 3034 2003 2786 2293 
Q 2538 2584 2113 2584 
z
M 3366 4563 
L 3366 3988 
Q 3128 4100 2886 4159 
Q 2644 4219 2406 4219 
Q 1781 4219 1451 3797 
Q 1122 3375 1075 2522 
Q 1259 2794 1537 2939 
Q 1816 3084 2150 3084 
Q 2853 3084 3261 2657 
Q 3669 2231 3669 1497 
Q 3669 778 3244 343 
Q 2819 -91 2113 -91 
Q 1303 -91 875 529 
Q 447 1150 447 2328 
Q 447 3434 972 4092 
Q 1497 4750 2381 4750 
Q 2619 4750 2861 4703 
Q 3103 4656 3366 4563 
z
" transform="scale(0.015625)"/>
       </defs>
       <use xlink:href="#DejaVuSans-36"/>
       <use xlink:href="#DejaVuSans-30" transform="translate(63.623047 0)"/>
      </g>
     </g>
    </g>
    <g id="xtick_8">
     <g id="line2d_8">
      <g>
       <use xlink:href="#m30fc312b63" x="615.491677" y="512.64" style="stroke: #000000; stroke-width: 0.8"/>
      </g>
     </g>
     <g id="text_8">
      <!-- 70 -->
      <g transform="translate(609.129177 527.238438) scale(0.1 -0.1)">
       <defs>
        <path id="DejaVuSans-37" d="M 525 4666 
L 3525 4666 
L 3525 4397 
L 1831 0 
L 1172 0 
L 2766 4134 
L 525 4134 
L 525 4666 
z
" transform="scale(0.015625)"/>
       </defs>
       <use xlink:href="#DejaVuSans-37"/>
       <use xlink:href="#DejaVuSans-30" transform="translate(63.623047 0)"/>
      </g>
     </g>
    </g>
   </g>
   <g id="matplotlib.axis_2">
    <g id="ytick_1">
     <g id="line2d_9">
      <defs>
       <path id="ma4640562fe" d="M 0 0 
L -3.5 0 
" style="stroke: #000000; stroke-width: 0.8"/>
      </defs>
      <g>
       <use xlink:href="#ma4640562fe" x="90" y="466.467097" style="stroke: #000000; stroke-width: 0.8"/>
      </g>
     </g>
     <g id="text_9">
      <!-- 10 -->
      <g transform="translate(70.275 470.266316) scale(0.1 -0.1)">
       <use xlink:href="#DejaVuSans-31"/>
       <use xlink:href="#DejaVuSans-30" transform="translate(63.623047 0)"/>
      </g>
     </g>
    </g>
    <g id="ytick_2">
     <g id="line2d_10">
      <g>
       <use xlink:href="#ma4640562fe" x="90" y="401.434839" style="stroke: #000000; stroke-width: 0.8"/>
      </g>
     </g>
     <g id="text_10">
      <!-- 20 -->
      <g transform="translate(70.275 405.234057) scale(0.1 -0.1)">
       <use xlink:href="#DejaVuSans-32"/>
       <use xlink:href="#DejaVuSans-30" transform="translate(63.623047 0)"/>
      </g>
     </g>
    </g>
    <g id="ytick_3">
     <g id="line2d_11">
      <g>
       <use xlink:href="#ma4640562fe" x="90" y="336.402581" style="stroke: #000000; stroke-width: 0.8"/>
      </g>
     </g>
     <g id="text_11">
      <!-- 30 -->
      <g transform="translate(70.275 340.201799) scale(0.1 -0.1)">
       <use xlink:href="#DejaVuSans-33"/>
       <use xlink:href="#DejaVuSans-30" transform="translate(63.623047 0)"/>
      </g>
     </g>
    </g>
    <g id="ytick_4">
     <g id="line2d_12">
      <g>
       <use xlink:href="#ma4640562fe" x="90" y="271.370323" style="stroke: #000000; stroke-width: 0.8"/>
      </g>
     </g>
     <g id="text_12">
      <!-- 40 -->
      <g transform="translate(70.275 275.169541) scale(0.1 -0.1)">
       <use xlink:href="#DejaVuSans-34"/>
       <use xlink:href="#DejaVuSans-30" transform="translate(63.623047 0)"/>
      </g>
     </g>
    </g>
    <g id="ytick_5">
     <g id="line2d_13">
      <g>
       <use xlink:href="#ma4640562fe" x="90" y="206.338065" style="stroke: #000000; stroke-width: 0.8"/>
      </g>
     </g>
     <g id="text_13">
      <!-- 50 -->
      <g transform="translate(70.275 210.137283) scale(0.1 -0.1)">
       <use xlink:href="#DejaVuSans-35"/>
       <use xlink:href="#DejaVuSans-30" transform="translate(63.623047 0)"/>
      </g>
     </g>
    </g>
    <g id="ytick_6">
     <g id="line2d_14">
      <g>
       <use xlink:href="#ma4640562fe" x="90" y="141.305806" style="stroke: #000000; stroke-width: 0.8"/>
      </g>
     </g>
     <g id="text_14">
      <!-- 60 -->
      <g transform="translate(70.275 145.105025) scale(0.1 -0.1)">
       <use xlink:href="#DejaVuSans-36"/>
       <use xlink:href="#DejaVuSans-30" transform="translate(63.623047 0)"/>
      </g>
     </g>
    </g>
    <g id="ytick_7">
     <g id="line2d_15">
      <g>
       <use xlink:href="#ma4640562fe" x="90" y="76.273548" style="stroke: #000000; stroke-width: 0.8"/>
      </g>
     </g>
     <g id="text_15">
      <!-- 70 -->
      <g transform="translate(70.275 80.072767) scale(0.1 -0.1)">
       <use xlink:href="#DejaVuSans-37"/>
       <use xlink:href="#DejaVuSans-30" transform="translate(63.623047 0)"/>
      </g>
     </g>
    </g>
   </g>
   <g id="line2d_16">
    <path d="M 115.363636 414.44129 
L 122.508323 440.454194 
L 129.653009 427.447742 
L 136.797695 375.421935 
L 143.942382 414.44129 
L 151.087068 297.383226 
L 158.231754 349.409032 
L 165.37644 180.325161 
L 172.521127 297.383226 
L 179.665813 323.396129 
L 186.810499 310.389677 
L 193.955186 297.383226 
L 201.099872 232.350968 
L 208.244558 310.389677 
L 215.389245 245.357419 
L 222.533931 167.31871 
L 229.678617 89.28 
L 236.823303 284.376774 
L 243.96799 232.350968 
L 251.112676 141.305806 
L 258.257362 245.357419 
L 265.402049 284.376774 
L 272.546735 336.402581 
L 279.691421 401.434839 
L 286.836108 492.48 
L 293.980794 427.447742 
L 301.12548 414.44129 
L 308.270166 453.460645 
L 315.414853 375.421935 
L 322.559539 349.409032 
L 329.704225 323.396129 
L 336.848912 206.338065 
L 343.993598 271.370323 
L 351.138284 297.383226 
L 358.282971 219.344516 
L 365.427657 284.376774 
L 372.572343 271.370323 
L 379.717029 258.363871 
L 386.861716 323.396129 
L 394.006402 180.325161 
L 401.151088 193.331613 
L 408.295775 271.370323 
L 415.440461 115.292903 
L 422.585147 219.344516 
L 429.729834 232.350968 
L 436.87452 167.31871 
L 444.019206 193.331613 
L 451.163892 284.376774 
L 458.308579 375.421935 
L 465.453265 453.460645 
L 472.597951 388.428387 
L 479.742638 401.434839 
L 486.887324 414.44129 
L 494.03201 375.421935 
L 501.176697 310.389677 
L 508.321383 284.376774 
L 515.466069 297.383226 
L 522.610755 284.376774 
L 529.755442 336.402581 
L 536.900128 388.428387 
L 544.044814 271.370323 
L 551.189501 362.415484 
L 558.334187 414.44129 
L 565.478873 271.370323 
L 572.62356 154.312258 
L 579.768246 375.421935 
L 586.912932 271.370323 
L 594.057618 297.383226 
L 601.202305 310.389677 
L 608.346991 453.460645 
L 615.491677 453.460645 
L 622.636364 401.434839 
" clip-path="url(#p938e3a8f1b)" style="fill: none; stroke-dasharray: 5.55,2.4; stroke-dashoffset: 0; stroke: #808080; stroke-opacity: 0.7; stroke-width: 1.5"/>
   </g>
   <g id="line2d_17">
    <path d="M 143.942382 414.44129 
L 151.087068 391.029677 
L 158.231754 372.820645 
L 165.37644 323.396129 
L 172.521127 307.788387 
L 179.665813 289.579355 
L 186.810499 292.180645 
L 193.955186 281.775484 
L 201.099872 292.180645 
L 208.244558 294.781935 
L 215.389245 279.174194 
L 222.533931 250.56 
L 229.678617 208.939355 
L 236.823303 219.344516 
L 243.96799 203.736774 
L 251.112676 182.926452 
L 258.257362 198.534194 
L 265.402049 237.553548 
L 272.546735 247.95871 
L 279.691421 281.775484 
L 286.836108 352.010323 
L 293.980794 388.428387 
L 301.12548 414.44129 
L 308.270166 437.852903 
L 315.414853 432.650323 
L 322.559539 404.036129 
L 329.704225 383.225806 
L 336.848912 341.605161 
L 343.993598 305.187097 
L 351.138284 289.579355 
L 358.282971 263.566452 
L 365.427657 255.762581 
L 372.572343 268.769032 
L 379.717029 266.167742 
L 386.861716 271.370323 
L 394.006402 263.566452 
L 401.151088 245.357419 
L 408.295775 245.357419 
L 415.440461 216.743226 
L 422.585147 195.932903 
L 429.729834 206.338065 
L 436.87452 201.135484 
L 444.019206 185.527742 
L 451.163892 219.344516 
L 458.308579 250.56 
L 465.453265 294.781935 
L 472.597951 339.003871 
L 479.742638 380.624516 
L 486.887324 406.637419 
L 494.03201 406.637419 
L 501.176697 378.023226 
L 508.321383 357.212903 
L 515.466069 336.402581 
L 522.610755 310.389677 
L 529.755442 302.585806 
L 536.900128 318.193548 
L 544.044814 315.592258 
L 551.189501 328.59871 
L 558.334187 354.611613 
L 565.478873 341.605161 
L 572.62356 294.781935 
L 579.768246 315.592258 
L 586.912932 297.383226 
L 594.057618 273.971613 
L 601.202305 281.775484 
L 608.346991 341.605161 
L 615.491677 357.212903 
L 622.636364 383.225806 
" clip-path="url(#p938e3a8f1b)" style="fill: none; stroke: #1f77b4; stroke-width: 1.5; stroke-linecap: square"/>
   </g>
   <g id="line2d_18">
    <path d="M 172.521127 355.189677 
L 179.665813 345.073548 
L 186.810499 330.621935 
L 193.955186 316.170323 
L 201.099872 300.273548 
L 208.244558 288.712258 
L 215.389245 282.931613 
L 222.533931 262.699355 
L 229.678617 252.583226 
L 236.823303 251.138065 
L 243.96799 241.021935 
L 251.112676 222.234839 
L 258.257362 216.454194 
L 265.402049 222.234839 
L 272.546735 225.125161 
L 279.691421 242.467097 
L 286.836108 278.596129 
L 293.980794 316.170323 
L 301.12548 330.621935 
L 308.270166 355.189677 
L 315.414853 381.202581 
L 322.559539 392.763871 
L 329.704225 397.099355 
L 336.848912 382.647742 
L 343.993598 368.196129 
L 351.138284 346.51871 
L 358.282971 323.396129 
L 365.427657 308.944516 
L 372.572343 288.712258 
L 379.717029 275.705806 
L 386.861716 272.815484 
L 394.006402 256.91871 
L 401.151088 255.473548 
L 408.295775 255.473548 
L 415.440461 235.24129 
L 422.585147 235.24129 
L 429.729834 229.460645 
L 436.87452 217.899355 
L 444.019206 210.673548 
L 451.163892 206.338065 
L 458.308579 228.015484 
L 465.453265 256.91871 
L 472.597951 269.925161 
L 479.742638 301.71871 
L 486.887324 323.396129 
L 494.03201 339.292903 
L 501.176697 355.189677 
L 508.321383 365.305806 
L 515.466069 366.750968 
L 522.610755 356.634839 
L 529.755442 343.628387 
L 536.900128 343.628387 
L 544.044814 329.176774 
L 551.189501 323.396129 
L 558.334187 327.731613 
L 565.478873 323.396129 
L 572.62356 308.944516 
L 579.768246 317.615484 
L 586.912932 316.170323 
L 594.057618 311.834839 
L 601.202305 303.163871 
L 608.346991 323.396129 
L 615.491677 333.512258 
L 622.636364 332.067097 
" clip-path="url(#p938e3a8f1b)" style="fill: none; stroke: #ff7f0e; stroke-width: 1.5; stroke-linecap: square"/>
   </g>
   <g id="line2d_19">
    <path d="M 201.099872 335.402084 
L 208.244558 327.398114 
L 215.389245 312.39067 
L 222.533931 292.380744 
L 229.678617 270.369826 
L 236.823303 260.364864 
L 243.96799 255.362382 
L 251.112676 239.354442 
L 258.257362 244.356923 
L 265.402049 243.356427 
L 272.546735 244.356923 
L 279.691421 251.360397 
L 286.836108 266.367841 
L 293.980794 281.375285 
L 301.12548 289.379256 
L 308.270166 305.387196 
L 315.414853 321.395136 
L 322.559539 341.405062 
L 329.704225 344.406551 
L 336.848912 342.405558 
L 343.993598 352.410521 
L 351.138284 356.412506 
L 358.282971 351.410025 
L 365.427657 347.40804 
L 372.572343 337.403077 
L 379.717029 319.394144 
L 386.861716 311.390174 
L 394.006402 293.381241 
L 401.151088 273.371315 
L 408.295775 265.367345 
L 415.440461 247.358412 
L 422.585147 239.354442 
L 429.729834 241.355434 
L 436.87452 233.351464 
L 444.019206 225.347494 
L 451.163892 230.349975 
L 458.308579 237.353449 
L 465.453265 251.360397 
L 472.597951 261.36536 
L 479.742638 267.368337 
L 486.887324 285.37727 
L 494.03201 299.384218 
L 501.176697 302.385707 
L 508.321383 315.392159 
L 515.466069 321.395136 
L 522.610755 325.397122 
L 529.755442 338.403573 
L 536.900128 353.411017 
L 544.044814 352.410521 
L 551.189501 351.410025 
L 558.334187 348.408536 
L 565.478873 339.404069 
L 572.62356 320.39464 
L 579.768246 317.393151 
L 586.912932 309.389181 
L 594.057618 308.388685 
L 601.202305 310.389677 
L 608.346991 322.395633 
L 615.491677 335.402084 
L 622.636364 340.404566 
" clip-path="url(#p938e3a8f1b)" style="fill: none; stroke: #2ca02c; stroke-width: 1.5; stroke-linecap: square"/>
   </g>
   <g id="line2d_20">
    <path d="M 229.678617 304.268994 
L 236.823303 296.61814 
L 243.96799 284.376774 
L 251.112676 267.544896 
L 258.257362 259.894042 
L 265.402049 252.243188 
L 272.546735 254.538444 
L 279.691421 257.598786 
L 286.836108 275.960835 
L 293.980794 283.611689 
L 301.12548 288.967287 
L 308.270166 297.383226 
L 315.414853 301.973738 
L 322.559539 308.859507 
L 329.704225 309.624592 
L 336.848912 307.329336 
L 343.993598 313.450019 
L 351.138284 325.691385 
L 358.282971 321.865958 
L 365.427657 324.9263 
L 372.572343 332.577154 
L 379.717029 333.342239 
L 386.861716 335.637495 
L 394.006402 326.456471 
L 401.151088 314.215104 
L 408.295775 301.208653 
L 415.440461 282.846603 
L 422.585147 271.370323 
L 429.729834 258.363871 
L 436.87452 246.122505 
L 444.019206 236.94148 
L 451.163892 234.646224 
L 458.308579 244.592334 
L 465.453265 255.303529 
L 472.597951 260.659127 
L 479.742638 271.370323 
L 486.887324 279.021176 
L 494.03201 285.14186 
L 501.176697 288.202201 
L 508.321383 285.906945 
L 515.466069 292.792713 
L 522.610755 298.148311 
L 529.755442 301.973738 
L 536.900128 318.040531 
L 544.044814 321.100873 
L 551.189501 328.751727 
L 558.334187 343.288349 
L 565.478873 347.878861 
L 572.62356 340.228008 
L 579.768246 340.228008 
L 586.912932 329.516812 
L 594.057618 324.161214 
L 601.202305 318.805617 
L 608.346991 321.100873 
L 615.491677 325.691385 
L 622.636364 331.046983 
" clip-path="url(#p938e3a8f1b)" style="fill: none; stroke: #d62728; stroke-width: 1.5; stroke-linecap: square"/>
   </g>
   <g id="patch_3">
    <path d="M 90 512.64 
L 90 69.12 
" style="fill: none; stroke: #000000; stroke-width: 0.8; stroke-linejoin: miter; stroke-linecap: square"/>
   </g>
   <g id="patch_4">
    <path d="M 648 512.64 
L 648 69.12 
" style="fill: none; stroke: #000000; stroke-width: 0.8; stroke-linejoin: miter; stroke-linecap: square"/>
   </g>
   <g id="patch_5">
    <path d="M 90 512.64 
L 648 512.64 
" style="fill: none; stroke: #000000; stroke-width: 0.8; stroke-linejoin: miter; stroke-linecap: square"/>
   </g>
   <g id="patch_6">
    <path d="M 90 69.12 
L 648 69.12 
" style="fill: none; stroke: #000000; stroke-width: 0.8; stroke-linejoin: miter; stroke-linecap: square"/>
   </g>
   <g id="legend_1">
    <g id="patch_7">
     <path d="M 521.842188 150.510625 
L 641 150.510625 
Q 643 150.510625 643 148.510625 
L 643 76.12 
Q 643 74.12 641 74.12 
L 521.842188 74.12 
Q 519.842188 74.12 519.842188 76.12 
L 519.842188 148.510625 
Q 519.842188 150.510625 521.842188 150.510625 
z
" style="fill: #ffffff; opacity: 0.8; stroke: #cccccc; stroke-linejoin: miter"/>
    </g>
    <g id="line2d_21">
     <path d="M 523.842188 82.218437 
L 533.842188 82.218437 
L 543.842188 82.218437 
" style="fill: none; stroke-dasharray: 5.55,2.4; stroke-dashoffset: 0; stroke: #808080; stroke-opacity: 0.7; stroke-width: 1.5"/>
    </g>
    <g id="text_16">
     <!-- Semnalul original -->
     <g transform="translate(551.842188 85.718437) scale(0.1 -0.1)">
      <defs>
       <path id="DejaVuSans-53" d="M 3425 4513 
L 3425 3897 
Q 3066 4069 2747 4153 
Q 2428 4238 2131 4238 
Q 1616 4238 1336 4038 
Q 1056 3838 1056 3469 
Q 1056 3159 1242 3001 
Q 1428 2844 1947 2747 
L 2328 2669 
Q 3034 2534 3370 2195 
Q 3706 1856 3706 1288 
Q 3706 609 3251 259 
Q 2797 -91 1919 -91 
Q 1588 -91 1214 -16 
Q 841 59 441 206 
L 441 856 
Q 825 641 1194 531 
Q 1563 422 1919 422 
Q 2459 422 2753 634 
Q 3047 847 3047 1241 
Q 3047 1584 2836 1778 
Q 2625 1972 2144 2069 
L 1759 2144 
Q 1053 2284 737 2584 
Q 422 2884 422 3419 
Q 422 4038 858 4394 
Q 1294 4750 2059 4750 
Q 2388 4750 2728 4690 
Q 3069 4631 3425 4513 
z
" transform="scale(0.015625)"/>
       <path id="DejaVuSans-65" d="M 3597 1894 
L 3597 1613 
L 953 1613 
Q 991 1019 1311 708 
Q 1631 397 2203 397 
Q 2534 397 2845 478 
Q 3156 559 3463 722 
L 3463 178 
Q 3153 47 2828 -22 
Q 2503 -91 2169 -91 
Q 1331 -91 842 396 
Q 353 884 353 1716 
Q 353 2575 817 3079 
Q 1281 3584 2069 3584 
Q 2775 3584 3186 3129 
Q 3597 2675 3597 1894 
z
M 3022 2063 
Q 3016 2534 2758 2815 
Q 2500 3097 2075 3097 
Q 1594 3097 1305 2825 
Q 1016 2553 972 2059 
L 3022 2063 
z
" transform="scale(0.015625)"/>
       <path id="DejaVuSans-6d" d="M 3328 2828 
Q 3544 3216 3844 3400 
Q 4144 3584 4550 3584 
Q 5097 3584 5394 3201 
Q 5691 2819 5691 2113 
L 5691 0 
L 5113 0 
L 5113 2094 
Q 5113 2597 4934 2840 
Q 4756 3084 4391 3084 
Q 3944 3084 3684 2787 
Q 3425 2491 3425 1978 
L 3425 0 
L 2847 0 
L 2847 2094 
Q 2847 2600 2669 2842 
Q 2491 3084 2119 3084 
Q 1678 3084 1418 2786 
Q 1159 2488 1159 1978 
L 1159 0 
L 581 0 
L 581 3500 
L 1159 3500 
L 1159 2956 
Q 1356 3278 1631 3431 
Q 1906 3584 2284 3584 
Q 2666 3584 2933 3390 
Q 3200 3197 3328 2828 
z
" transform="scale(0.015625)"/>
       <path id="DejaVuSans-6e" d="M 3513 2113 
L 3513 0 
L 2938 0 
L 2938 2094 
Q 2938 2591 2744 2837 
Q 2550 3084 2163 3084 
Q 1697 3084 1428 2787 
Q 1159 2491 1159 1978 
L 1159 0 
L 581 0 
L 581 3500 
L 1159 3500 
L 1159 2956 
Q 1366 3272 1645 3428 
Q 1925 3584 2291 3584 
Q 2894 3584 3203 3211 
Q 3513 2838 3513 2113 
z
" transform="scale(0.015625)"/>
       <path id="DejaVuSans-61" d="M 2194 1759 
Q 1497 1759 1228 1600 
Q 959 1441 959 1056 
Q 959 750 1161 570 
Q 1363 391 1709 391 
Q 2188 391 2477 730 
Q 2766 1069 2766 1631 
L 2766 1759 
L 2194 1759 
z
M 3341 1997 
L 3341 0 
L 2766 0 
L 2766 531 
Q 2569 213 2275 61 
Q 1981 -91 1556 -91 
Q 1019 -91 701 211 
Q 384 513 384 1019 
Q 384 1609 779 1909 
Q 1175 2209 1959 2209 
L 2766 2209 
L 2766 2266 
Q 2766 2663 2505 2880 
Q 2244 3097 1772 3097 
Q 1472 3097 1187 3025 
Q 903 2953 641 2809 
L 641 3341 
Q 956 3463 1253 3523 
Q 1550 3584 1831 3584 
Q 2591 3584 2966 3190 
Q 3341 2797 3341 1997 
z
" transform="scale(0.015625)"/>
       <path id="DejaVuSans-6c" d="M 603 4863 
L 1178 4863 
L 1178 0 
L 603 0 
L 603 4863 
z
" transform="scale(0.015625)"/>
       <path id="DejaVuSans-75" d="M 544 1381 
L 544 3500 
L 1119 3500 
L 1119 1403 
Q 1119 906 1312 657 
Q 1506 409 1894 409 
Q 2359 409 2629 706 
Q 2900 1003 2900 1516 
L 2900 3500 
L 3475 3500 
L 3475 0 
L 2900 0 
L 2900 538 
Q 2691 219 2414 64 
Q 2138 -91 1772 -91 
Q 1169 -91 856 284 
Q 544 659 544 1381 
z
M 1991 3584 
L 1991 3584 
z
" transform="scale(0.015625)"/>
       <path id="DejaVuSans-20" transform="scale(0.015625)"/>
       <path id="DejaVuSans-6f" d="M 1959 3097 
Q 1497 3097 1228 2736 
Q 959 2375 959 1747 
Q 959 1119 1226 758 
Q 1494 397 1959 397 
Q 2419 397 2687 759 
Q 2956 1122 2956 1747 
Q 2956 2369 2687 2733 
Q 2419 3097 1959 3097 
z
M 1959 3584 
Q 2709 3584 3137 3096 
Q 3566 2609 3566 1747 
Q 3566 888 3137 398 
Q 2709 -91 1959 -91 
Q 1206 -91 779 398 
Q 353 888 353 1747 
Q 353 2609 779 3096 
Q 1206 3584 1959 3584 
z
" transform="scale(0.015625)"/>
       <path id="DejaVuSans-72" d="M 2631 2963 
Q 2534 3019 2420 3045 
Q 2306 3072 2169 3072 
Q 1681 3072 1420 2755 
Q 1159 2438 1159 1844 
L 1159 0 
L 581 0 
L 581 3500 
L 1159 3500 
L 1159 2956 
Q 1341 3275 1631 3429 
Q 1922 3584 2338 3584 
Q 2397 3584 2469 3576 
Q 2541 3569 2628 3553 
L 2631 2963 
z
" transform="scale(0.015625)"/>
       <path id="DejaVuSans-69" d="M 603 3500 
L 1178 3500 
L 1178 0 
L 603 0 
L 603 3500 
z
M 603 4863 
L 1178 4863 
L 1178 4134 
L 603 4134 
L 603 4863 
z
" transform="scale(0.015625)"/>
       <path id="DejaVuSans-67" d="M 2906 1791 
Q 2906 2416 2648 2759 
Q 2391 3103 1925 3103 
Q 1463 3103 1205 2759 
Q 947 2416 947 1791 
Q 947 1169 1205 825 
Q 1463 481 1925 481 
Q 2391 481 2648 825 
Q 2906 1169 2906 1791 
z
M 3481 434 
Q 3481 -459 3084 -895 
Q 2688 -1331 1869 -1331 
Q 1566 -1331 1297 -1286 
Q 1028 -1241 775 -1147 
L 775 -588 
Q 1028 -725 1275 -790 
Q 1522 -856 1778 -856 
Q 2344 -856 2625 -561 
Q 2906 -266 2906 331 
L 2906 616 
Q 2728 306 2450 153 
Q 2172 0 1784 0 
Q 1141 0 747 490 
Q 353 981 353 1791 
Q 353 2603 747 3093 
Q 1141 3584 1784 3584 
Q 2172 3584 2450 3431 
Q 2728 3278 2906 2969 
L 2906 3500 
L 3481 3500 
L 3481 434 
z
" transform="scale(0.015625)"/>
      </defs>
      <use xlink:href="#DejaVuSans-53"/>
      <use xlink:href="#DejaVuSans-65" transform="translate(63.476562 0)"/>
      <use xlink:href="#DejaVuSans-6d" transform="translate(125 0)"/>
      <use xlink:href="#DejaVuSans-6e" transform="translate(222.412109 0)"/>
      <use xlink:href="#DejaVuSans-61" transform="translate(285.791016 0)"/>
      <use xlink:href="#DejaVuSans-6c" transform="translate(347.070312 0)"/>
      <use xlink:href="#DejaVuSans-75" transform="translate(374.853516 0)"/>
      <use xlink:href="#DejaVuSans-6c" transform="translate(438.232422 0)"/>
      <use xlink:href="#DejaVuSans-20" transform="translate(466.015625 0)"/>
      <use xlink:href="#DejaVuSans-6f" transform="translate(497.802734 0)"/>
      <use xlink:href="#DejaVuSans-72" transform="translate(558.984375 0)"/>
      <use xlink:href="#DejaVuSans-69" transform="translate(600.097656 0)"/>
      <use xlink:href="#DejaVuSans-67" transform="translate(627.880859 0)"/>
      <use xlink:href="#DejaVuSans-69" transform="translate(691.357422 0)"/>
      <use xlink:href="#DejaVuSans-6e" transform="translate(719.140625 0)"/>
      <use xlink:href="#DejaVuSans-61" transform="translate(782.519531 0)"/>
      <use xlink:href="#DejaVuSans-6c" transform="translate(843.798828 0)"/>
     </g>
    </g>
    <g id="line2d_22">
     <path d="M 523.842188 96.896563 
L 533.842188 96.896563 
L 543.842188 96.896563 
" style="fill: none; stroke: #1f77b4; stroke-width: 1.5; stroke-linecap: square"/>
    </g>
    <g id="text_17">
     <!-- w = 5 -->
     <g transform="translate(551.842188 100.396563) scale(0.1 -0.1)">
      <defs>
       <path id="DejaVuSans-77" d="M 269 3500 
L 844 3500 
L 1563 769 
L 2278 3500 
L 2956 3500 
L 3675 769 
L 4391 3500 
L 4966 3500 
L 4050 0 
L 3372 0 
L 2619 2869 
L 1863 0 
L 1184 0 
L 269 3500 
z
" transform="scale(0.015625)"/>
       <path id="DejaVuSans-3d" d="M 678 2906 
L 4684 2906 
L 4684 2381 
L 678 2381 
L 678 2906 
z
M 678 1631 
L 4684 1631 
L 4684 1100 
L 678 1100 
L 678 1631 
z
" transform="scale(0.015625)"/>
      </defs>
      <use xlink:href="#DejaVuSans-77"/>
      <use xlink:href="#DejaVuSans-20" transform="translate(81.787109 0)"/>
      <use xlink:href="#DejaVuSans-3d" transform="translate(113.574219 0)"/>
      <use xlink:href="#DejaVuSans-20" transform="translate(197.363281 0)"/>
      <use xlink:href="#DejaVuSans-35" transform="translate(229.150391 0)"/>
     </g>
    </g>
    <g id="line2d_23">
     <path d="M 523.842188 111.574687 
L 533.842188 111.574687 
L 543.842188 111.574687 
" style="fill: none; stroke: #ff7f0e; stroke-width: 1.5; stroke-linecap: square"/>
    </g>
    <g id="text_18">
     <!-- w = 9 -->
     <g transform="translate(551.842188 115.074687) scale(0.1 -0.1)">
      <defs>
       <path id="DejaVuSans-39" d="M 703 97 
L 703 672 
Q 941 559 1184 500 
Q 1428 441 1663 441 
Q 2288 441 2617 861 
Q 2947 1281 2994 2138 
Q 2813 1869 2534 1725 
Q 2256 1581 1919 1581 
Q 1219 1581 811 2004 
Q 403 2428 403 3163 
Q 403 3881 828 4315 
Q 1253 4750 1959 4750 
Q 2769 4750 3195 4129 
Q 3622 3509 3622 2328 
Q 3622 1225 3098 567 
Q 2575 -91 1691 -91 
Q 1453 -91 1209 -44 
Q 966 3 703 97 
z
M 1959 2075 
Q 2384 2075 2632 2365 
Q 2881 2656 2881 3163 
Q 2881 3666 2632 3958 
Q 2384 4250 1959 4250 
Q 1534 4250 1286 3958 
Q 1038 3666 1038 3163 
Q 1038 2656 1286 2365 
Q 1534 2075 1959 2075 
z
" transform="scale(0.015625)"/>
      </defs>
      <use xlink:href="#DejaVuSans-77"/>
      <use xlink:href="#DejaVuSans-20" transform="translate(81.787109 0)"/>
      <use xlink:href="#DejaVuSans-3d" transform="translate(113.574219 0)"/>
      <use xlink:href="#DejaVuSans-20" transform="translate(197.363281 0)"/>
      <use xlink:href="#DejaVuSans-39" transform="translate(229.150391 0)"/>
     </g>
    </g>
    <g id="line2d_24">
     <path d="M 523.842188 126.252813 
L 533.842188 126.252813 
L 543.842188 126.252813 
" style="fill: none; stroke: #2ca02c; stroke-width: 1.5; stroke-linecap: square"/>
    </g>
    <g id="text_19">
     <!-- w = 13 -->
     <g transform="translate(551.842188 129.752813) scale(0.1 -0.1)">
      <use xlink:href="#DejaVuSans-77"/>
      <use xlink:href="#DejaVuSans-20" transform="translate(81.787109 0)"/>
      <use xlink:href="#DejaVuSans-3d" transform="translate(113.574219 0)"/>
      <use xlink:href="#DejaVuSans-20" transform="translate(197.363281 0)"/>
      <use xlink:href="#DejaVuSans-31" transform="translate(229.150391 0)"/>
      <use xlink:href="#DejaVuSans-33" transform="translate(292.773438 0)"/>
     </g>
    </g>
    <g id="line2d_25">
     <path d="M 523.842188 140.930938 
L 533.842188 140.930938 
L 543.842188 140.930938 
" style="fill: none; stroke: #d62728; stroke-width: 1.5; stroke-linecap: square"/>
    </g>
    <g id="text_20">
     <!-- w = 17 -->
     <g transform="translate(551.842188 144.430938) scale(0.1 -0.1)">
      <use xlink:href="#DejaVuSans-77"/>
      <use xlink:href="#DejaVuSans-20" transform="translate(81.787109 0)"/>
      <use xlink:href="#DejaVuSans-3d" transform="translate(113.574219 0)"/>
      <use xlink:href="#DejaVuSans-20" transform="translate(197.363281 0)"/>
      <use xlink:href="#DejaVuSans-31" transform="translate(229.150391 0)"/>
      <use xlink:href="#DejaVuSans-37" transform="translate(292.773438 0)"/>
     </g>
    </g>
   </g>
  </g>
 </g>
 <defs>
  <clipPath id="p938e3a8f1b">
   <rect x="90" y="69.12" width="558" height="443.52"/>
  </clipPath>
 </defs>
</svg>
