<?xml version="1.0" encoding="utf-8" standalone="no"?>
<!DOCTYPE svg PUBLIC "-//W3C//DTD SVG 1.1//EN"
  "http://www.w3.org/Graphics/SVG/1.1/DTD/svg11.dtd">
<svg xmlns:xlink="http://www.w3.org/1999/xlink" width="1080pt" height="576pt" viewBox="0 0 1080 576" xmlns="http://www.w3.org/2000/svg" version="1.1">
 <metadata>
  <rdf:RDF xmlns:dc="http://purl.org/dc/elements/1.1/" xmlns:cc="http://creativecommons.org/ns#" xmlns:rdf="http://www.w3.org/1999/02/22-rdf-syntax-ns#">
   <cc:Work>
    <dc:type rdf:resource="http://purl.org/dc/dcmitype/StillImage"/>
    <dc:date>2025-12-16T21:41:23.173657</dc:date>
    <dc:format>image/svg+xml</dc:format>
    <dc:creator>
     <cc:Agent>
      <dc:title>Matplotlib v3.10.8, https://matplotlib.org/</dc:title>
     </cc:Agent>
    </dc:creator>
   </cc:Work>
  </rdf:RDF>
 </metadata>
 <defs>
  <style type="text/css">*{stroke-linejoin: round; stroke-linecap: butt}</style>
 </defs>
 <g id="figure_1">
  <g id="patch_1">
   <path d="M 0 576 
L 1080 576 
L 1080 0 
L 0 0 
z
" style="fill: #ffffff"/>
  </g>
  <g id="axes_1">
   <g id="patch_2">
    <path d="M 30.49 171.32 
L 528.965724 171.32 
L 528.965724 10.8 
L 30.49 10.8 
z
" style="fill: #ffffff"/>
   </g>
   <g id="matplotlib.axis_1">
    <g id="xtick_1">
     <g id="line2d_1">
      <defs>
       <path id="m1db50d03fd" d="M 0 0 
L 0 3.5 
" style="stroke: #000000; stroke-width: 0.8"/>
      </defs>
      <g>
       <use xlink:href="#m1db50d03fd" x="53.147987" y="171.32" style="stroke: #000000; stroke-width: 0.8"/>
      </g>
     </g>
     <g id="text_1">
      <!-- 0 -->
      <g transform="translate(49.966737 185.918438) scale(0.1 -0.1)">
       <defs>
        <path id="DejaVuSans-30" d="M 2034 4250 
Q 1547 4250 1301 3770 
Q 1056 3291 1056 2328 
Q 1056 1369 1301 889 
Q 1547 409 2034 409 
Q 2525 409 2770 889 
Q 3016 1369 3016 2328 
Q 3016 3291 2770 3770 
Q 2525 4250 2034 4250 
z
M 2034 4750 
Q 2819 4750 3233 4129 
Q 3647 3509 3647 2328 
Q 3647 1150 3233 529 
Q 2819 -91 2034 -91 
Q 1250 -91 836 529 
Q 422 1150 422 2328 
Q 422 3509 836 4129 
Q 1250 4750 2034 4750 
z
" transform="scale(0.015625)"/>
       </defs>
       <use xlink:href="#DejaVuSans-30"/>
      </g>
     </g>
    </g>
    <g id="xtick_2">
     <g id="line2d_2">
      <g>
       <use xlink:href="#m1db50d03fd" x="144.695411" y="171.32" style="stroke: #000000; stroke-width: 0.8"/>
      </g>
     </g>
     <g id="text_2">
      <!-- 20 -->
      <g transform="translate(138.332911 185.918438) scale(0.1 -0.1)">
       <defs>
        <path id="DejaVuSans-32" d="M 1228 531 
L 3431 531 
L 3431 0 
L 469 0 
L 469 531 
Q 828 903 1448 1529 
Q 2069 2156 2228 2338 
Q 2531 2678 2651 2914 
Q 2772 3150 2772 3378 
Q 2772 3750 2511 3984 
Q 2250 4219 1831 4219 
Q 1534 4219 1204 4116 
Q 875 4013 500 3803 
L 500 4441 
Q 881 4594 1212 4672 
Q 1544 4750 1819 4750 
Q 2544 4750 2975 4387 
Q 3406 4025 3406 3419 
Q 3406 3131 3298 2873 
Q 3191 2616 2906 2266 
Q 2828 2175 2409 1742 
Q 1991 1309 1228 531 
z
" transform="scale(0.015625)"/>
       </defs>
       <use xlink:href="#DejaVuSans-32"/>
       <use xlink:href="#DejaVuSans-30" transform="translate(63.623047 0)"/>
      </g>
     </g>
    </g>
    <g id="xtick_3">
     <g id="line2d_3">
      <g>
       <use xlink:href="#m1db50d03fd" x="236.242835" y="171.32" style="stroke: #000000; stroke-width: 0.8"/>
      </g>
     </g>
     <g id="text_3">
      <!-- 40 -->
      <g transform="translate(229.880335 185.918438) scale(0.1 -0.1)">
       <defs>
        <path id="DejaVuSans-34" d="M 2419 4116 
L 825 1625 
L 2419 1625 
L 2419 4116 
z
M 2253 4666 
L 3047 4666 
L 3047 1625 
L 3713 1625 
L 3713 1100 
L 3047 1100 
L 3047 0 
L 2419 0 
L 2419 1100 
L 313 1100 
L 313 1709 
L 2253 4666 
z
" transform="scale(0.015625)"/>
       </defs>
       <use xlink:href="#DejaVuSans-34"/>
       <use xlink:href="#DejaVuSans-30" transform="translate(63.623047 0)"/>
      </g>
     </g>
    </g>
    <g id="xtick_4">
     <g id="line2d_4">
      <g>
       <use xlink:href="#m1db50d03fd" x="327.790259" y="171.32" style="stroke: #000000; stroke-width: 0.8"/>
      </g>
     </g>
     <g id="text_4">
      <!-- 60 -->
      <g transform="translate(321.427759 185.918438) scale(0.1 -0.1)">
       <defs>
        <path id="DejaVuSans-36" d="M 2113 2584 
Q 1688 2584 1439 2293 
Q 1191 2003 1191 1497 
Q 1191 994 1439 701 
Q 1688 409 2113 409 
Q 2538 409 2786 701 
Q 3034 994 3034 1497 
Q 3034 2003 2786 2293 
Q 2538 2584 2113 2584 
z
M 3366 4563 
L 3366 3988 
Q 3128 4100 2886 4159 
Q 2644 4219 2406 4219 
Q 1781 4219 1451 3797 
Q 1122 3375 1075 2522 
Q 1259 2794 1537 2939 
Q 1816 3084 2150 3084 
Q 2853 3084 3261 2657 
Q 3669 2231 3669 1497 
Q 3669 778 3244 343 
Q 2819 -91 2113 -91 
Q 1303 -91 875 529 
Q 447 1150 447 2328 
Q 447 3434 972 4092 
Q 1497 4750 2381 4750 
Q 2619 4750 2861 4703 
Q 3103 4656 3366 4563 
z
" transform="scale(0.015625)"/>
       </defs>
       <use xlink:href="#DejaVuSans-36"/>
       <use xlink:href="#DejaVuSans-30" transform="translate(63.623047 0)"/>
      </g>
     </g>
    </g>
    <g id="xtick_5">
     <g id="line2d_5">
      <g>
       <use xlink:href="#m1db50d03fd" x="419.337683" y="171.32" style="stroke: #000000; stroke-width: 0.8"/>
      </g>
     </g>
     <g id="text_5">
      <!-- 80 -->
      <g transform="translate(412.975183 185.918438) scale(0.1 -0.1)">
       <defs>
        <path id="DejaVuSans-38" d="M 2034 2216 
Q 1584 2216 1326 1975 
Q 1069 1734 1069 1313 
Q 1069 891 1326 650 
Q 1584 409 2034 409 
Q 2484 409 2743 651 
Q 3003 894 3003 1313 
Q 3003 1734 2745 1975 
Q 2488 2216 2034 2216 
z
M 1403 2484 
Q 997 2584 770 2862 
Q 544 3141 544 3541 
Q 544 4100 942 4425 
Q 1341 4750 2034 4750 
Q 2731 4750 3128 4425 
Q 3525 4100 3525 3541 
Q 3525 3141 3298 2862 
Q 3072 2584 2669 2484 
Q 3125 2378 3379 2068 
Q 3634 1759 3634 1313 
Q 3634 634 3220 271 
Q 2806 -91 2034 -91 
Q 1263 -91 848 271 
Q 434 634 434 1313 
Q 434 1759 690 2068 
Q 947 2378 1403 2484 
z
M 1172 3481 
Q 1172 3119 1398 2916 
Q 1625 2713 2034 2713 
Q 2441 2713 2670 2916 
Q 2900 3119 2900 3481 
Q 2900 3844 2670 4047 
Q 2441 4250 2034 4250 
Q 1625 4250 1398 4047 
Q 1172 3844 1172 3481 
z
" transform="scale(0.015625)"/>
       </defs>
       <use xlink:href="#DejaVuSans-38"/>
       <use xlink:href="#DejaVuSans-30" transform="translate(63.623047 0)"/>
      </g>
     </g>
    </g>
    <g id="xtick_6">
     <g id="line2d_6">
      <g>
       <use xlink:href="#m1db50d03fd" x="510.885107" y="171.32" style="stroke: #000000; stroke-width: 0.8"/>
      </g>
     </g>
     <g id="text_6">
      <!-- 100 -->
      <g transform="translate(501.341357 185.918438) scale(0.1 -0.1)">
       <defs>
        <path id="DejaVuSans-31" d="M 794 531 
L 1825 531 
L 1825 4091 
L 703 3866 
L 703 4441 
L 1819 4666 
L 2450 4666 
L 2450 531 
L 3481 531 
L 3481 0 
L 794 0 
L 794 531 
z
" transform="scale(0.015625)"/>
       </defs>
       <use xlink:href="#DejaVuSans-31"/>
       <use xlink:href="#DejaVuSans-30" transform="translate(63.623047 0)"/>
       <use xlink:href="#DejaVuSans-30" transform="translate(127.246094 0)"/>
      </g>
     </g>
    </g>
   </g>
   <g id="matplotlib.axis_2">
    <g id="ytick_1">
     <g id="line2d_7">
      <defs>
       <path id="m64ed14e1b2" d="M 0 0 
L -3.5 0 
" style="stroke: #000000; stroke-width: 0.8"/>
      </defs>
      <g>
       <use xlink:href="#m64ed14e1b2" x="30.49" y="152.982214" style="stroke: #000000; stroke-width: 0.8"/>
      </g>
     </g>
     <g id="text_7">
      <!-- 0 -->
      <g transform="translate(17.1275 156.781432) scale(0.1 -0.1)">
       <use xlink:href="#DejaVuSans-30"/>
      </g>
     </g>
    </g>
    <g id="ytick_2">
     <g id="line2d_8">
      <g>
       <use xlink:href="#m64ed14e1b2" x="30.49" y="115.038779" style="stroke: #000000; stroke-width: 0.8"/>
      </g>
     </g>
     <g id="text_8">
      <!-- 20 -->
      <g transform="translate(10.765 118.837998) scale(0.1 -0.1)">
       <use xlink:href="#DejaVuSans-32"/>
       <use xlink:href="#DejaVuSans-30" transform="translate(63.623047 0)"/>
      </g>
     </g>
    </g>
    <g id="ytick_3">
     <g id="line2d_9">
      <g>
       <use xlink:href="#m64ed14e1b2" x="30.49" y="77.095345" style="stroke: #000000; stroke-width: 0.8"/>
      </g>
     </g>
     <g id="text_9">
      <!-- 40 -->
      <g transform="translate(10.765 80.894563) scale(0.1 -0.1)">
       <use xlink:href="#DejaVuSans-34"/>
       <use xlink:href="#DejaVuSans-30" transform="translate(63.623047 0)"/>
      </g>
     </g>
    </g>
    <g id="ytick_4">
     <g id="line2d_10">
      <g>
       <use xlink:href="#m64ed14e1b2" x="30.49" y="39.15191" style="stroke: #000000; stroke-width: 0.8"/>
      </g>
     </g>
     <g id="text_10">
      <!-- 60 -->
      <g transform="translate(10.765 42.951129) scale(0.1 -0.1)">
       <use xlink:href="#DejaVuSans-36"/>
       <use xlink:href="#DejaVuSans-30" transform="translate(63.623047 0)"/>
      </g>
     </g>
    </g>
   </g>
   <g id="line2d_11">
    <path d="M 53.147987 150.873031 
L 57.725359 140.917472 
L 62.30273 146.041659 
L 66.880101 152.615129 
L 71.457472 145.380862 
L 76.034843 159.280566 
L 80.612215 125.934692 
L 85.189586 131.415187 
L 89.766957 164.023636 
L 94.344328 153.867235 
L 98.921699 158.525075 
L 103.499071 151.167734 
L 108.076442 128.33087 
L 112.653813 144.165614 
L 117.231184 156.3971 
L 121.808555 137.729701 
L 126.385927 117.602851 
L 130.963298 140.242101 
L 135.540669 158.808312 
L 140.11804 149.441891 
L 144.695411 142.24918 
L 149.272783 129.698126 
L 153.850154 101.099732 
L 158.427525 132.716771 
L 163.004896 154.753148 
L 167.582267 142.419347 
L 172.159639 155.237272 
L 176.73701 136.281273 
L 181.314381 132.908445 
L 185.891752 144.619385 
L 190.469123 128.384348 
L 195.046495 110.640935 
L 199.623866 121.973619 
L 204.201237 157.076221 
L 208.778608 145.81034 
L 213.355979 128.612779 
L 217.933351 124.047162 
L 222.510722 126.581874 
L 227.088093 137.97392 
L 231.665464 140.343406 
L 236.242835 129.406229 
L 240.820207 107.168668 
L 245.397578 118.989273 
L 249.974949 123.828655 
L 254.55232 120.208783 
L 259.129691 122.755861 
L 263.707063 99.592094 
L 268.284434 113.519922 
L 272.861805 117.373174 
L 277.439176 132.143602 
L 282.016547 126.742427 
L 286.593919 112.198144 
L 291.17129 105.743708 
L 295.748661 140.649935 
L 300.326032 119.005018 
L 304.903403 107.442218 
L 309.480775 112.068281 
L 314.058146 119.522848 
L 318.635517 112.615105 
L 323.212888 123.673924 
L 327.790259 110.080096 
L 332.367631 89.971616 
L 336.945002 96.572388 
L 341.522373 92.820224 
L 346.099744 100.001165 
L 350.677115 126.281815 
L 355.254487 96.323211 
L 359.831858 85.037418 
L 364.409229 104.707772 
L 368.9866 109.463209 
L 373.563971 71.800617 
L 378.141343 79.645177 
L 382.718714 89.016878 
L 387.296085 80.375009 
L 391.873456 99.040445 
L 396.450827 80.355724 
L 401.028199 66.60916 
L 405.60557 72.69531 
L 410.182941 80.76582 
L 414.760312 68.992811 
L 419.337683 80.583777 
L 423.915055 62.366882 
L 428.492426 62.678667 
L 433.069797 85.38817 
L 437.647168 73.455371 
L 442.224539 68.895701 
L 446.801911 66.947302 
L 451.379282 56.485295 
L 455.956653 62.781344 
L 460.534024 95.057428 
L 465.111395 58.020456 
L 469.688767 29.046527 
L 474.266138 50.087762 
L 478.843509 71.150738 
L 483.42088 54.542677 
L 487.998251 59.250681 
L 492.575623 27.043666 
L 497.152994 18.096364 
L 501.730365 49.485664 
L 506.307736 55.923168 
" clip-path="url(#p70cabb4124)" style="fill: none; stroke: #1f77b4; stroke-width: 1.5; stroke-linecap: square"/>
   </g>
   <g id="line2d_12">
    <path d="M 57.725359 150.873031 
L 62.30273 148.211176 
L 66.880101 147.631104 
L 71.457472 148.963701 
L 76.034843 148.005744 
L 80.612215 151.020335 
L 85.189586 144.313093 
L 89.766957 140.864532 
L 94.344328 147.056668 
L 98.921699 148.877635 
L 103.499071 151.457107 
L 108.076442 151.379736 
L 112.653813 145.217075 
L 117.231184 144.935942 
L 121.808555 148.000354 
L 126.385927 145.254251 
L 130.963298 137.860993 
L 135.540669 138.497639 
L 140.11804 143.928179 
L 144.695411 145.402401 
L 149.272783 144.559313 
L 153.850154 140.585822 
L 158.427525 130.028278 
L 163.004896 130.74711 
L 167.582267 137.165694 
L 172.159639 138.570383 
L 176.73701 143.026672 
L 181.314381 141.223129 
L 185.891752 139.000001 
L 190.469123 140.502477 
L 195.046495 137.262407 
L 199.623866 130.144525 
L 204.201237 127.959839 
L 208.778608 135.744795 
L 213.355979 138.436057 
L 217.933351 135.809571 
L 222.510722 132.664612 
L 227.088093 131.038247 
L 231.665464 132.892664 
L 236.242835 134.884797 
L 240.820207 133.419971 
L 245.397578 126.401062 
L 249.974949 124.419344 
L 254.55232 124.26141 
L 259.129691 123.177844 
L 263.707063 123.065016 
L 268.284434 116.788973 
L 272.861805 115.914915 
L 277.439176 116.304815 
L 282.016547 120.539691 
L 286.593919 122.19814 
L 291.17129 119.524403 
L 295.748661 115.839807 
L 300.326032 122.473384 
L 304.903403 121.546034 
L 309.480775 117.775044 
L 314.058146 116.249206 
L 318.635517 117.124492 
L 323.212888 115.9188 
L 327.790259 117.992317 
L 332.367631 115.876797 
L 336.945002 108.950432 
L 341.522373 105.640868 
L 346.099744 102.212964 
L 350.677115 101.621587 
L 355.254487 108.215085 
L 359.831858 105.03551 
L 364.409229 99.688545 
L 368.9866 101.030555 
L 373.563971 103.285225 
L 378.141343 94.867067 
L 382.718714 90.797134 
L 387.296085 90.32114 
L 391.873456 87.661806 
L 396.450827 90.704155 
L 401.028199 87.937256 
L 405.60557 82.234683 
L 410.182941 79.684106 
L 414.760312 79.973328 
L 419.337683 77.037426 
L 423.915055 77.985627 
L 428.492426 73.809585 
L 433.069797 70.83347 
L 437.647168 74.725014 
L 442.224539 74.385545 
L 446.801911 72.917705 
L 451.379282 71.321376 
L 455.956653 67.354598 
L 460.534024 66.13183 
L 465.111395 73.865775 
L 469.688767 69.629153 
L 474.266138 58.778424 
L 478.843509 56.45477 
L 483.42088 60.384086 
L 487.998251 58.822246 
L 492.575623 58.936799 
L 497.152994 50.409413 
L 501.730365 41.769752 
L 506.307736 43.832784 
" clip-path="url(#p70cabb4124)" style="fill: none; stroke: #ff7f0e; stroke-width: 1.5; stroke-linecap: square"/>
   </g>
   <g id="patch_3">
    <path d="M 30.49 171.32 
L 30.49 10.8 
" style="fill: none; stroke: #000000; stroke-width: 0.8; stroke-linejoin: miter; stroke-linecap: square"/>
   </g>
   <g id="patch_4">
    <path d="M 528.965724 171.32 
L 528.965724 10.8 
" style="fill: none; stroke: #000000; stroke-width: 0.8; stroke-linejoin: miter; stroke-linecap: square"/>
   </g>
   <g id="patch_5">
    <path d="M 30.49 171.32 
L 528.965724 171.32 
" style="fill: none; stroke: #000000; stroke-width: 0.8; stroke-linejoin: miter; stroke-linecap: square"/>
   </g>
   <g id="patch_6">
    <path d="M 30.49 10.8 
L 528.965724 10.8 
" style="fill: none; stroke: #000000; stroke-width: 0.8; stroke-linejoin: miter; stroke-linecap: square"/>
   </g>
   <g id="legend_1">
    <g id="patch_7">
     <path d="M 36.321 51.245534 
L 189.838995 51.245534 
Q 191.504995 51.245534 191.504995 49.579534 
L 191.504995 16.631 
Q 191.504995 14.965 189.838995 14.965 
L 36.321 14.965 
Q 34.655 14.965 34.655 16.631 
L 34.655 49.579534 
Q 34.655 51.245534 36.321 51.245534 
z
" style="fill: #ffffff; opacity: 0.8; stroke: #cccccc; stroke-linejoin: miter"/>
    </g>
    <g id="line2d_13">
     <path d="M 37.987 27.241077 
L 46.317 27.241077 
L 54.647 27.241077 
" style="fill: none; stroke: #1f77b4; stroke-width: 1.5; stroke-linecap: square"/>
    </g>
    <g id="text_11">
     <!-- Noisy series -->
     <g transform="translate(61.311 24.626498) scale(0.0833 -0.0833)">
      <defs>
       <path id="DejaVuSans-4e" d="M 628 4666 
L 1478 4666 
L 3547 763 
L 3547 4666 
L 4159 4666 
L 4159 0 
L 3309 0 
L 1241 3903 
L 1241 0 
L 628 0 
L 628 4666 
z
" transform="scale(0.015625)"/>
       <path id="DejaVuSans-6f" d="M 1959 3097 
Q 1497 3097 1228 2736 
Q 959 2375 959 1747 
Q 959 1119 1226 758 
Q 1494 397 1959 397 
Q 2419 397 2687 759 
Q 2956 1122 2956 1747 
Q 2956 2369 2687 2733 
Q 2419 3097 1959 3097 
z
M 1959 3584 
Q 2709 3584 3137 3096 
Q 3566 2609 3566 1747 
Q 3566 888 3137 398 
Q 2709 -91 1959 -91 
Q 1206 -91 779 398 
Q 353 888 353 1747 
Q 353 2609 779 3096 
Q 1206 3584 1959 3584 
z
" transform="scale(0.015625)"/>
       <path id="DejaVuSans-69" d="M 603 3500 
L 1178 3500 
L 1178 0 
L 603 0 
L 603 3500 
z
M 603 4863 
L 1178 4863 
L 1178 4134 
L 603 4134 
L 603 4863 
z
" transform="scale(0.015625)"/>
       <path id="DejaVuSans-73" d="M 2834 3397 
L 2834 2853 
Q 2591 2978 2328 3040 
Q 2066 3103 1784 3103 
Q 1356 3103 1142 2972 
Q 928 2841 928 2578 
Q 928 2378 1081 2264 
Q 1234 2150 1697 2047 
L 1894 2003 
Q 2506 1872 2764 1633 
Q 3022 1394 3022 966 
Q 3022 478 2636 193 
Q 2250 -91 1575 -91 
Q 1294 -91 989 -36 
Q 684 19 347 128 
L 347 722 
Q 666 556 975 473 
Q 1284 391 1588 391 
Q 1994 391 2212 530 
Q 2431 669 2431 922 
Q 2431 1156 2273 1281 
Q 2116 1406 1581 1522 
L 1381 1569 
Q 847 1681 609 1914 
Q 372 2147 372 2553 
Q 372 3047 722 3315 
Q 1072 3584 1716 3584 
Q 2034 3584 2315 3537 
Q 2597 3491 2834 3397 
z
" transform="scale(0.015625)"/>
       <path id="DejaVuSans-79" d="M 2059 -325 
Q 1816 -950 1584 -1140 
Q 1353 -1331 966 -1331 
L 506 -1331 
L 506 -850 
L 844 -850 
Q 1081 -850 1212 -737 
Q 1344 -625 1503 -206 
L 1606 56 
L 191 3500 
L 800 3500 
L 1894 763 
L 2988 3500 
L 3597 3500 
L 2059 -325 
z
" transform="scale(0.015625)"/>
       <path id="DejaVuSans-20" transform="scale(0.015625)"/>
       <path id="DejaVuSans-65" d="M 3597 1894 
L 3597 1613 
L 953 1613 
Q 991 1019 1311 708 
Q 1631 397 2203 397 
Q 2534 397 2845 478 
Q 3156 559 3463 722 
L 3463 178 
Q 3153 47 2828 -22 
Q 2503 -91 2169 -91 
Q 1331 -91 842 396 
Q 353 884 353 1716 
Q 353 2575 817 3079 
Q 1281 3584 2069 3584 
Q 2775 3584 3186 3129 
Q 3597 2675 3597 1894 
z
M 3022 2063 
Q 3016 2534 2758 2815 
Q 2500 3097 2075 3097 
Q 1594 3097 1305 2825 
Q 1016 2553 972 2059 
L 3022 2063 
z
" transform="scale(0.015625)"/>
       <path id="DejaVuSans-72" d="M 2631 2963 
Q 2534 3019 2420 3045 
Q 2306 3072 2169 3072 
Q 1681 3072 1420 2755 
Q 1159 2438 1159 1844 
L 1159 0 
L 581 0 
L 581 3500 
L 1159 3500 
L 1159 2956 
Q 1341 3275 1631 3429 
Q 1922 3584 2338 3584 
Q 2397 3584 2469 3576 
Q 2541 3569 2628 3553 
L 2631 2963 
z
" transform="scale(0.015625)"/>
      </defs>
      <use xlink:href="#DejaVuSans-4e"/>
      <use xlink:href="#DejaVuSans-6f" transform="translate(74.804688 0)"/>
      <use xlink:href="#DejaVuSans-69" transform="translate(135.986328 0)"/>
      <use xlink:href="#DejaVuSans-73" transform="translate(163.769531 0)"/>
      <use xlink:href="#DejaVuSans-79" transform="translate(215.869141 0)"/>
      <use xlink:href="#DejaVuSans-20" transform="translate(275.048828 0)"/>
      <use xlink:href="#DejaVuSans-73" transform="translate(306.835938 0)"/>
      <use xlink:href="#DejaVuSans-65" transform="translate(358.935547 0)"/>
      <use xlink:href="#DejaVuSans-72" transform="translate(420.458984 0)"/>
      <use xlink:href="#DejaVuSans-69" transform="translate(461.572266 0)"/>
      <use xlink:href="#DejaVuSans-65" transform="translate(489.355469 0)"/>
      <use xlink:href="#DejaVuSans-73" transform="translate(550.878906 0)"/>
     </g>
     <!-- $\alpha = 0.27$ -->
     <g transform="translate(61.311 33.954276) scale(0.0833 -0.0833)">
      <defs>
       <path id="DejaVuSans-Oblique-3b1" d="M 2619 1628 
L 2622 2350 
Q 2625 3088 2069 3091 
Q 1653 3094 1394 2747 
Q 1069 2319 959 1747 
Q 825 1059 994 731 
Q 1169 397 1547 397 
Q 1966 397 2319 1063 
L 2619 1628 
z
M 2166 3578 
Q 3141 3594 3128 2584 
Q 3128 2584 3616 3500 
L 4128 3500 
L 3119 1603 
L 3109 919 
Q 3109 766 3194 638 
Q 3291 488 3391 488 
L 3669 488 
L 3575 0 
L 3228 0 
Q 2934 0 2722 263 
Q 2622 394 2619 669 
Q 2416 334 2066 50 
Q 1900 -81 1453 -78 
Q 722 -72 456 397 
Q 184 884 353 1747 
Q 534 2675 1009 3097 
Q 1544 3569 2166 3578 
z
" transform="scale(0.015625)"/>
       <path id="DejaVuSans-3d" d="M 678 2906 
L 4684 2906 
L 4684 2381 
L 678 2381 
L 678 2906 
z
M 678 1631 
L 4684 1631 
L 4684 1100 
L 678 1100 
L 678 1631 
z
" transform="scale(0.015625)"/>
       <path id="DejaVuSans-2e" d="M 684 794 
L 1344 794 
L 1344 0 
L 684 0 
L 684 794 
z
" transform="scale(0.015625)"/>
       <path id="DejaVuSans-37" d="M 525 4666 
L 3525 4666 
L 3525 4397 
L 1831 0 
L 1172 0 
L 2766 4134 
L 525 4134 
L 525 4666 
z
" transform="scale(0.015625)"/>
      </defs>
      <use xlink:href="#DejaVuSans-Oblique-3b1" transform="translate(0 0.78125)"/>
      <use xlink:href="#DejaVuSans-3d" transform="translate(85.400391 0.78125)"/>
      <use xlink:href="#DejaVuSans-30" transform="translate(188.671875 0.78125)"/>
      <use xlink:href="#DejaVuSans-2e" transform="translate(252.294922 0.78125)"/>
      <use xlink:href="#DejaVuSans-32" transform="translate(278.582031 0.78125)"/>
      <use xlink:href="#DejaVuSans-37" transform="translate(342.205078 0.78125)"/>
     </g>
    </g>
    <g id="line2d_14">
     <path d="M 37.987 43.265654 
L 46.317 43.265654 
L 54.647 43.265654 
" style="fill: none; stroke: #ff7f0e; stroke-width: 1.5; stroke-linecap: square"/>
    </g>
    <g id="text_12">
     <!-- Predicted with Exponential MA -->
     <g transform="translate(61.311 46.181154) scale(0.0833 -0.0833)">
      <defs>
       <path id="DejaVuSans-50" d="M 1259 4147 
L 1259 2394 
L 2053 2394 
Q 2494 2394 2734 2622 
Q 2975 2850 2975 3272 
Q 2975 3691 2734 3919 
Q 2494 4147 2053 4147 
L 1259 4147 
z
M 628 4666 
L 2053 4666 
Q 2838 4666 3239 4311 
Q 3641 3956 3641 3272 
Q 3641 2581 3239 2228 
Q 2838 1875 2053 1875 
L 1259 1875 
L 1259 0 
L 628 0 
L 628 4666 
z
" transform="scale(0.015625)"/>
       <path id="DejaVuSans-64" d="M 2906 2969 
L 2906 4863 
L 3481 4863 
L 3481 0 
L 2906 0 
L 2906 525 
Q 2725 213 2448 61 
Q 2172 -91 1784 -91 
Q 1150 -91 751 415 
Q 353 922 353 1747 
Q 353 2572 751 3078 
Q 1150 3584 1784 3584 
Q 2172 3584 2448 3432 
Q 2725 3281 2906 2969 
z
M 947 1747 
Q 947 1113 1208 752 
Q 1469 391 1925 391 
Q 2381 391 2643 752 
Q 2906 1113 2906 1747 
Q 2906 2381 2643 2742 
Q 2381 3103 1925 3103 
Q 1469 3103 1208 2742 
Q 947 2381 947 1747 
z
" transform="scale(0.015625)"/>
       <path id="DejaVuSans-63" d="M 3122 3366 
L 3122 2828 
Q 2878 2963 2633 3030 
Q 2388 3097 2138 3097 
Q 1578 3097 1268 2742 
Q 959 2388 959 1747 
Q 959 1106 1268 751 
Q 1578 397 2138 397 
Q 2388 397 2633 464 
Q 2878 531 3122 666 
L 3122 134 
Q 2881 22 2623 -34 
Q 2366 -91 2075 -91 
Q 1284 -91 818 406 
Q 353 903 353 1747 
Q 353 2603 823 3093 
Q 1294 3584 2113 3584 
Q 2378 3584 2631 3529 
Q 2884 3475 3122 3366 
z
" transform="scale(0.015625)"/>
       <path id="DejaVuSans-74" d="M 1172 4494 
L 1172 3500 
L 2356 3500 
L 2356 3053 
L 1172 3053 
L 1172 1153 
Q 1172 725 1289 603 
Q 1406 481 1766 481 
L 2356 481 
L 2356 0 
L 1766 0 
Q 1100 0 847 248 
Q 594 497 594 1153 
L 594 3053 
L 172 3053 
L 172 3500 
L 594 3500 
L 594 4494 
L 1172 4494 
z
" transform="scale(0.015625)"/>
       <path id="DejaVuSans-77" d="M 269 3500 
L 844 3500 
L 1563 769 
L 2278 3500 
L 2956 3500 
L 3675 769 
L 4391 3500 
L 4966 3500 
L 4050 0 
L 3372 0 
L 2619 2869 
L 1863 0 
L 1184 0 
L 269 3500 
z
" transform="scale(0.015625)"/>
       <path id="DejaVuSans-68" d="M 3513 2113 
L 3513 0 
L 2938 0 
L 2938 2094 
Q 2938 2591 2744 2837 
Q 2550 3084 2163 3084 
Q 1697 3084 1428 2787 
Q 1159 2491 1159 1978 
L 1159 0 
L 581 0 
L 581 4863 
L 1159 4863 
L 1159 2956 
Q 1366 3272 1645 3428 
Q 1925 3584 2291 3584 
Q 2894 3584 3203 3211 
Q 3513 2838 3513 2113 
z
" transform="scale(0.015625)"/>
       <path id="DejaVuSans-45" d="M 628 4666 
L 3578 4666 
L 3578 4134 
L 1259 4134 
L 1259 2753 
L 3481 2753 
L 3481 2222 
L 1259 2222 
L 1259 531 
L 3634 531 
L 3634 0 
L 628 0 
L 628 4666 
z
" transform="scale(0.015625)"/>
       <path id="DejaVuSans-78" d="M 3513 3500 
L 2247 1797 
L 3578 0 
L 2900 0 
L 1881 1375 
L 863 0 
L 184 0 
L 1544 1831 
L 300 3500 
L 978 3500 
L 1906 2253 
L 2834 3500 
L 3513 3500 
z
" transform="scale(0.015625)"/>
       <path id="DejaVuSans-70" d="M 1159 525 
L 1159 -1331 
L 581 -1331 
L 581 3500 
L 1159 3500 
L 1159 2969 
Q 1341 3281 1617 3432 
Q 1894 3584 2278 3584 
Q 2916 3584 3314 3078 
Q 3713 2572 3713 1747 
Q 3713 922 3314 415 
Q 2916 -91 2278 -91 
Q 1894 -91 1617 61 
Q 1341 213 1159 525 
z
M 3116 1747 
Q 3116 2381 2855 2742 
Q 2594 3103 2138 3103 
Q 1681 3103 1420 2742 
Q 1159 2381 1159 1747 
Q 1159 1113 1420 752 
Q 1681 391 2138 391 
Q 2594 391 2855 752 
Q 3116 1113 3116 1747 
z
" transform="scale(0.015625)"/>
       <path id="DejaVuSans-6e" d="M 3513 2113 
L 3513 0 
L 2938 0 
L 2938 2094 
Q 2938 2591 2744 2837 
Q 2550 3084 2163 3084 
Q 1697 3084 1428 2787 
Q 1159 2491 1159 1978 
L 1159 0 
L 581 0 
L 581 3500 
L 1159 3500 
L 1159 2956 
Q 1366 3272 1645 3428 
Q 1925 3584 2291 3584 
Q 2894 3584 3203 3211 
Q 3513 2838 3513 2113 
z
" transform="scale(0.015625)"/>
       <path id="DejaVuSans-61" d="M 2194 1759 
Q 1497 1759 1228 1600 
Q 959 1441 959 1056 
Q 959 750 1161 570 
Q 1363 391 1709 391 
Q 2188 391 2477 730 
Q 2766 1069 2766 1631 
L 2766 1759 
L 2194 1759 
z
M 3341 1997 
L 3341 0 
L 2766 0 
L 2766 531 
Q 2569 213 2275 61 
Q 1981 -91 1556 -91 
Q 1019 -91 701 211 
Q 384 513 384 1019 
Q 384 1609 779 1909 
Q 1175 2209 1959 2209 
L 2766 2209 
L 2766 2266 
Q 2766 2663 2505 2880 
Q 2244 3097 1772 3097 
Q 1472 3097 1187 3025 
Q 903 2953 641 2809 
L 641 3341 
Q 956 3463 1253 3523 
Q 1550 3584 1831 3584 
Q 2591 3584 2966 3190 
Q 3341 2797 3341 1997 
z
" transform="scale(0.015625)"/>
       <path id="DejaVuSans-6c" d="M 603 4863 
L 1178 4863 
L 1178 0 
L 603 0 
L 603 4863 
z
" transform="scale(0.015625)"/>
       <path id="DejaVuSans-4d" d="M 628 4666 
L 1569 4666 
L 2759 1491 
L 3956 4666 
L 4897 4666 
L 4897 0 
L 4281 0 
L 4281 4097 
L 3078 897 
L 2444 897 
L 1241 4097 
L 1241 0 
L 628 0 
L 628 4666 
z
" transform="scale(0.015625)"/>
       <path id="DejaVuSans-41" d="M 2188 4044 
L 1331 1722 
L 3047 1722 
L 2188 4044 
z
M 1831 4666 
L 2547 4666 
L 4325 0 
L 3669 0 
L 3244 1197 
L 1141 1197 
L 716 0 
L 50 0 
L 1831 4666 
z
" transform="scale(0.015625)"/>
      </defs>
      <use xlink:href="#DejaVuSans-50"/>
      <use xlink:href="#DejaVuSans-72" transform="translate(58.552734 0)"/>
      <use xlink:href="#DejaVuSans-65" transform="translate(97.416016 0)"/>
      <use xlink:href="#DejaVuSans-64" transform="translate(158.939453 0)"/>
      <use xlink:href="#DejaVuSans-69" transform="translate(222.416016 0)"/>
      <use xlink:href="#DejaVuSans-63" transform="translate(250.199219 0)"/>
      <use xlink:href="#DejaVuSans-74" transform="translate(305.179688 0)"/>
      <use xlink:href="#DejaVuSans-65" transform="translate(344.388672 0)"/>
      <use xlink:href="#DejaVuSans-64" transform="translate(405.912109 0)"/>
      <use xlink:href="#DejaVuSans-20" transform="translate(469.388672 0)"/>
      <use xlink:href="#DejaVuSans-77" transform="translate(501.175781 0)"/>
      <use xlink:href="#DejaVuSans-69" transform="translate(582.962891 0)"/>
      <use xlink:href="#DejaVuSans-74" transform="translate(610.746094 0)"/>
      <use xlink:href="#DejaVuSans-68" transform="translate(649.955078 0)"/>
      <use xlink:href="#DejaVuSans-20" transform="translate(713.333984 0)"/>
      <use xlink:href="#DejaVuSans-45" transform="translate(745.121094 0)"/>
      <use xlink:href="#DejaVuSans-78" transform="translate(808.304688 0)"/>
      <use xlink:href="#DejaVuSans-70" transform="translate(867.484375 0)"/>
      <use xlink:href="#DejaVuSans-6f" transform="translate(930.960938 0)"/>
      <use xlink:href="#DejaVuSans-6e" transform="translate(992.142578 0)"/>
      <use xlink:href="#DejaVuSans-65" transform="translate(1055.521484 0)"/>
      <use xlink:href="#DejaVuSans-6e" transform="translate(1117.044922 0)"/>
      <use xlink:href="#DejaVuSans-74" transform="translate(1180.423828 0)"/>
      <use xlink:href="#DejaVuSans-69" transform="translate(1219.632812 0)"/>
      <use xlink:href="#DejaVuSans-61" transform="translate(1247.416016 0)"/>
      <use xlink:href="#DejaVuSans-6c" transform="translate(1308.695312 0)"/>
      <use xlink:href="#DejaVuSans-20" transform="translate(1336.478516 0)"/>
      <use xlink:href="#DejaVuSans-4d" transform="translate(1368.265625 0)"/>
      <use xlink:href="#DejaVuSans-41" transform="translate(1454.544922 0)"/>
     </g>
    </g>
   </g>
  </g>
  <g id="axes_2">
   <g id="patch_8">
    <path d="M 567.825724 171.32 
L 1066.301447 171.32 
L 1066.301447 10.8 
L 567.825724 10.8 
z
" style="fill: #ffffff"/>
   </g>
   <g id="matplotlib.axis_3">
    <g id="xtick_7">
     <g id="line2d_15">
      <g>
       <use xlink:href="#m1db50d03fd" x="590.483711" y="171.32" style="stroke: #000000; stroke-width: 0.8"/>
      </g>
     </g>
     <g id="text_13">
      <!-- 0 -->
      <g transform="translate(587.302461 185.918438) scale(0.1 -0.1)">
       <use xlink:href="#DejaVuSans-30"/>
      </g>
     </g>
    </g>
    <g id="xtick_8">
     <g id="line2d_16">
      <g>
       <use xlink:href="#m1db50d03fd" x="682.965292" y="171.32" style="stroke: #000000; stroke-width: 0.8"/>
      </g>
     </g>
     <g id="text_14">
      <!-- 20 -->
      <g transform="translate(676.602792 185.918438) scale(0.1 -0.1)">
       <use xlink:href="#DejaVuSans-32"/>
       <use xlink:href="#DejaVuSans-30" transform="translate(63.623047 0)"/>
      </g>
     </g>
    </g>
    <g id="xtick_9">
     <g id="line2d_17">
      <g>
       <use xlink:href="#m1db50d03fd" x="775.446874" y="171.32" style="stroke: #000000; stroke-width: 0.8"/>
      </g>
     </g>
     <g id="text_15">
      <!-- 40 -->
      <g transform="translate(769.084374 185.918438) scale(0.1 -0.1)">
       <use xlink:href="#DejaVuSans-34"/>
       <use xlink:href="#DejaVuSans-30" transform="translate(63.623047 0)"/>
      </g>
     </g>
    </g>
    <g id="xtick_10">
     <g id="line2d_18">
      <g>
       <use xlink:href="#m1db50d03fd" x="867.928455" y="171.32" style="stroke: #000000; stroke-width: 0.8"/>
      </g>
     </g>
     <g id="text_16">
      <!-- 60 -->
      <g transform="translate(861.565955 185.918438) scale(0.1 -0.1)">
       <use xlink:href="#DejaVuSans-36"/>
       <use xlink:href="#DejaVuSans-30" transform="translate(63.623047 0)"/>
      </g>
     </g>
    </g>
    <g id="xtick_11">
     <g id="line2d_19">
      <g>
       <use xlink:href="#m1db50d03fd" x="960.410036" y="171.32" style="stroke: #000000; stroke-width: 0.8"/>
      </g>
     </g>
     <g id="text_17">
      <!-- 80 -->
      <g transform="translate(954.047536 185.918438) scale(0.1 -0.1)">
       <use xlink:href="#DejaVuSans-38"/>
       <use xlink:href="#DejaVuSans-30" transform="translate(63.623047 0)"/>
      </g>
     </g>
    </g>
    <g id="xtick_12">
     <g id="line2d_20">
      <g>
       <use xlink:href="#m1db50d03fd" x="1052.891618" y="171.32" style="stroke: #000000; stroke-width: 0.8"/>
      </g>
     </g>
     <g id="text_18">
      <!-- 100 -->
      <g transform="translate(1043.347868 185.918438) scale(0.1 -0.1)">
       <use xlink:href="#DejaVuSans-31"/>
       <use xlink:href="#DejaVuSans-30" transform="translate(63.623047 0)"/>
       <use xlink:href="#DejaVuSans-30" transform="translate(127.246094 0)"/>
      </g>
     </g>
    </g>
   </g>
   <g id="matplotlib.axis_4">
    <g id="ytick_5">
     <g id="line2d_21">
      <g>
       <use xlink:href="#m64ed14e1b2" x="567.825724" y="142.783976" style="stroke: #000000; stroke-width: 0.8"/>
      </g>
     </g>
     <g id="text_19">
      <!-- −10 -->
      <g transform="translate(539.721036 146.583195) scale(0.1 -0.1)">
       <defs>
        <path id="DejaVuSans-2212" d="M 678 2272 
L 4684 2272 
L 4684 1741 
L 678 1741 
L 678 2272 
z
" transform="scale(0.015625)"/>
       </defs>
       <use xlink:href="#DejaVuSans-2212"/>
       <use xlink:href="#DejaVuSans-31" transform="translate(83.789062 0)"/>
       <use xlink:href="#DejaVuSans-30" transform="translate(147.412109 0)"/>
      </g>
     </g>
    </g>
    <g id="ytick_6">
     <g id="line2d_22">
      <g>
       <use xlink:href="#m64ed14e1b2" x="567.825724" y="103.063311" style="stroke: #000000; stroke-width: 0.8"/>
      </g>
     </g>
     <g id="text_20">
      <!-- 0 -->
      <g transform="translate(554.463224 106.86253) scale(0.1 -0.1)">
       <use xlink:href="#DejaVuSans-30"/>
      </g>
     </g>
    </g>
    <g id="ytick_7">
     <g id="line2d_23">
      <g>
       <use xlink:href="#m64ed14e1b2" x="567.825724" y="63.342646" style="stroke: #000000; stroke-width: 0.8"/>
      </g>
     </g>
     <g id="text_21">
      <!-- 10 -->
      <g transform="translate(548.100724 67.141865) scale(0.1 -0.1)">
       <use xlink:href="#DejaVuSans-31"/>
       <use xlink:href="#DejaVuSans-30" transform="translate(63.623047 0)"/>
      </g>
     </g>
    </g>
    <g id="ytick_8">
     <g id="line2d_24">
      <g>
       <use xlink:href="#m64ed14e1b2" x="567.825724" y="23.621981" style="stroke: #000000; stroke-width: 0.8"/>
      </g>
     </g>
     <g id="text_22">
      <!-- 20 -->
      <g transform="translate(548.100724 27.421199) scale(0.1 -0.1)">
       <use xlink:href="#DejaVuSans-32"/>
       <use xlink:href="#DejaVuSans-30" transform="translate(63.623047 0)"/>
      </g>
     </g>
    </g>
   </g>
   <g id="line2d_25">
    <path d="M 590.483711 82.219577 
L 595.10779 98.521041 
L 599.731869 113.498254 
L 604.355948 95.561999 
L 608.980027 126.669156 
L 613.604106 50.542055 
L 618.228185 76.059249 
L 622.852264 151.551017 
L 627.476344 117.322445 
L 632.100423 123.261944 
L 636.724502 102.457458 
L 641.348581 54.806408 
L 645.97266 100.86189 
L 650.596739 127.059284 
L 655.220818 81.559871 
L 659.844897 45.170185 
L 664.468976 108.048584 
L 669.093055 145.587319 
L 673.717134 114.607247 
L 678.341213 96.461482 
L 682.965292 71.948772 
L 687.589371 20.392158 
L 692.213451 108.692148 
L 696.83753 153.324221 
L 701.461609 114.062768 
L 706.085688 137.958409 
L 710.709767 88.94062 
L 715.333846 85.655039 
L 719.957925 114.828491 
L 724.582004 77.691853 
L 729.206083 47.326523 
L 733.830162 85.956067 
L 738.454241 164.023636 
L 743.07832 124.13732 
L 747.702399 82.49653 
L 752.326478 78.436615 
L 756.950557 90.328019 
L 761.574637 117.584375 
L 766.198716 118.662764 
L 770.822795 91.592954 
L 775.446874 48.101536 
L 780.070953 87.545412 
L 784.695032 101.826598 
L 789.319111 94.578415 
L 793.94319 102.179815 
L 798.567269 53.918572 
L 803.191348 96.218969 
L 807.815427 106.116436 
L 812.439506 136.22463 
L 817.063585 116.049843 
L 821.687664 82.126542 
L 826.311743 74.210974 
L 830.935823 155.007727 
L 835.559902 95.80167 
L 840.183981 73.534463 
L 844.80806 91.115188 
L 849.432139 109.917263 
L 854.056218 93.622109 
L 858.680297 119.300042 
L 863.304376 86.497669 
L 867.928455 48.826208 
L 872.552534 77.147675 
L 877.176613 76.221011 
L 881.800692 98.432515 
L 886.424771 154.693886 
L 891.04885 78.165557 
L 895.67293 61.193748 
L 900.297009 113.571954 
L 904.921088 120.718573 
L 909.545167 37.144683 
L 914.169246 71.193576 
L 918.793325 99.336029 
L 923.417404 82.239315 
L 928.041483 126.886516 
L 932.665562 81.39703 
L 937.289641 58.409146 
L 941.91372 83.090935 
L 946.537799 105.328072 
L 951.161878 80.073647 
L 955.785957 110.488227 
L 960.410036 70.36269 
L 965.034116 79.758755 
L 969.658195 133.536165 
L 974.282274 100.405087 
L 978.906353 91.569346 
L 983.530432 90.563211 
L 988.154511 72.001336 
L 992.77859 93.48839 
L 997.402669 163.624196 
L 1002.026748 69.888317 
L 1006.650827 18.096364 
L 1011.274906 84.867864 
L 1015.898985 133.831935 
L 1020.523064 90.833283 
L 1025.147143 103.960316 
L 1029.771222 36.289364 
L 1034.395302 35.410194 
L 1039.019381 119.217946 
L 1043.64346 128.37668 
" clip-path="url(#pd1b1cb8070)" style="fill: none; stroke: #1f77b4; stroke-width: 1.5; stroke-linecap: square"/>
   </g>
   <g id="patch_9">
    <path d="M 567.825724 171.32 
L 567.825724 10.8 
" style="fill: none; stroke: #000000; stroke-width: 0.8; stroke-linejoin: miter; stroke-linecap: square"/>
   </g>
   <g id="patch_10">
    <path d="M 1066.301447 171.32 
L 1066.301447 10.8 
" style="fill: none; stroke: #000000; stroke-width: 0.8; stroke-linejoin: miter; stroke-linecap: square"/>
   </g>
   <g id="patch_11">
    <path d="M 567.825724 171.32 
L 1066.301447 171.32 
" style="fill: none; stroke: #000000; stroke-width: 0.8; stroke-linejoin: miter; stroke-linecap: square"/>
   </g>
   <g id="patch_12">
    <path d="M 567.825724 10.8 
L 1066.301447 10.8 
" style="fill: none; stroke: #000000; stroke-width: 0.8; stroke-linejoin: miter; stroke-linecap: square"/>
   </g>
   <g id="legend_2">
    <g id="patch_13">
     <path d="M 1013.513977 29.690878 
L 1060.470447 29.690878 
Q 1062.136447 29.690878 1062.136447 28.024878 
L 1062.136447 16.631 
Q 1062.136447 14.965 1060.470447 14.965 
L 1013.513977 14.965 
Q 1011.847977 14.965 1011.847977 16.631 
L 1011.847977 28.024878 
Q 1011.847977 29.690878 1013.513977 29.690878 
z
" style="fill: #ffffff; opacity: 0.8; stroke: #cccccc; stroke-linejoin: miter"/>
    </g>
    <g id="line2d_26">
     <path d="M 1015.179977 21.710998 
L 1023.509977 21.710998 
L 1031.839977 21.710998 
" style="fill: none; stroke: #1f77b4; stroke-width: 1.5; stroke-linecap: square"/>
    </g>
    <g id="text_23">
     <!-- Error -->
     <g transform="translate(1038.503977 24.626498) scale(0.0833 -0.0833)">
      <use xlink:href="#DejaVuSans-45"/>
      <use xlink:href="#DejaVuSans-72" transform="translate(63.183594 0)"/>
      <use xlink:href="#DejaVuSans-72" transform="translate(102.546875 0)"/>
      <use xlink:href="#DejaVuSans-6f" transform="translate(141.410156 0)"/>
      <use xlink:href="#DejaVuSans-72" transform="translate(202.591797 0)"/>
     </g>
    </g>
   </g>
  </g>
  <g id="axes_3">
   <g id="patch_14">
    <path d="M 30.49 359.72 
L 528.965724 359.72 
L 528.965724 199.2 
L 30.49 199.2 
z
" style="fill: #ffffff"/>
   </g>
   <g id="matplotlib.axis_5">
    <g id="xtick_13">
     <g id="line2d_27">
      <g>
       <use xlink:href="#m1db50d03fd" x="53.147987" y="359.72" style="stroke: #000000; stroke-width: 0.8"/>
      </g>
     </g>
     <g id="text_24">
      <!-- 0 -->
      <g transform="translate(49.966737 374.318437) scale(0.1 -0.1)">
       <use xlink:href="#DejaVuSans-30"/>
      </g>
     </g>
    </g>
    <g id="xtick_14">
     <g id="line2d_28">
      <g>
       <use xlink:href="#m1db50d03fd" x="144.695411" y="359.72" style="stroke: #000000; stroke-width: 0.8"/>
      </g>
     </g>
     <g id="text_25">
      <!-- 20 -->
      <g transform="translate(138.332911 374.318437) scale(0.1 -0.1)">
       <use xlink:href="#DejaVuSans-32"/>
       <use xlink:href="#DejaVuSans-30" transform="translate(63.623047 0)"/>
      </g>
     </g>
    </g>
    <g id="xtick_15">
     <g id="line2d_29">
      <g>
       <use xlink:href="#m1db50d03fd" x="236.242835" y="359.72" style="stroke: #000000; stroke-width: 0.8"/>
      </g>
     </g>
     <g id="text_26">
      <!-- 40 -->
      <g transform="translate(229.880335 374.318437) scale(0.1 -0.1)">
       <use xlink:href="#DejaVuSans-34"/>
       <use xlink:href="#DejaVuSans-30" transform="translate(63.623047 0)"/>
      </g>
     </g>
    </g>
    <g id="xtick_16">
     <g id="line2d_30">
      <g>
       <use xlink:href="#m1db50d03fd" x="327.790259" y="359.72" style="stroke: #000000; stroke-width: 0.8"/>
      </g>
     </g>
     <g id="text_27">
      <!-- 60 -->
      <g transform="translate(321.427759 374.318437) scale(0.1 -0.1)">
       <use xlink:href="#DejaVuSans-36"/>
       <use xlink:href="#DejaVuSans-30" transform="translate(63.623047 0)"/>
      </g>
     </g>
    </g>
    <g id="xtick_17">
     <g id="line2d_31">
      <g>
       <use xlink:href="#m1db50d03fd" x="419.337683" y="359.72" style="stroke: #000000; stroke-width: 0.8"/>
      </g>
     </g>
     <g id="text_28">
      <!-- 80 -->
      <g transform="translate(412.975183 374.318437) scale(0.1 -0.1)">
       <use xlink:href="#DejaVuSans-38"/>
       <use xlink:href="#DejaVuSans-30" transform="translate(63.623047 0)"/>
      </g>
     </g>
    </g>
    <g id="xtick_18">
     <g id="line2d_32">
      <g>
       <use xlink:href="#m1db50d03fd" x="510.885107" y="359.72" style="stroke: #000000; stroke-width: 0.8"/>
      </g>
     </g>
     <g id="text_29">
      <!-- 100 -->
      <g transform="translate(501.341357 374.318437) scale(0.1 -0.1)">
       <use xlink:href="#DejaVuSans-31"/>
       <use xlink:href="#DejaVuSans-30" transform="translate(63.623047 0)"/>
       <use xlink:href="#DejaVuSans-30" transform="translate(127.246094 0)"/>
      </g>
     </g>
    </g>
   </g>
   <g id="matplotlib.axis_6">
    <g id="ytick_9">
     <g id="line2d_33">
      <g>
       <use xlink:href="#m64ed14e1b2" x="30.49" y="341.382214" style="stroke: #000000; stroke-width: 0.8"/>
      </g>
     </g>
     <g id="text_30">
      <!-- 0 -->
      <g transform="translate(17.1275 345.181432) scale(0.1 -0.1)">
       <use xlink:href="#DejaVuSans-30"/>
      </g>
     </g>
    </g>
    <g id="ytick_10">
     <g id="line2d_34">
      <g>
       <use xlink:href="#m64ed14e1b2" x="30.49" y="303.438779" style="stroke: #000000; stroke-width: 0.8"/>
      </g>
     </g>
     <g id="text_31">
      <!-- 20 -->
      <g transform="translate(10.765 307.237998) scale(0.1 -0.1)">
       <use xlink:href="#DejaVuSans-32"/>
       <use xlink:href="#DejaVuSans-30" transform="translate(63.623047 0)"/>
      </g>
     </g>
    </g>
    <g id="ytick_11">
     <g id="line2d_35">
      <g>
       <use xlink:href="#m64ed14e1b2" x="30.49" y="265.495345" style="stroke: #000000; stroke-width: 0.8"/>
      </g>
     </g>
     <g id="text_32">
      <!-- 40 -->
      <g transform="translate(10.765 269.294563) scale(0.1 -0.1)">
       <use xlink:href="#DejaVuSans-34"/>
       <use xlink:href="#DejaVuSans-30" transform="translate(63.623047 0)"/>
      </g>
     </g>
    </g>
    <g id="ytick_12">
     <g id="line2d_36">
      <g>
       <use xlink:href="#m64ed14e1b2" x="30.49" y="227.55191" style="stroke: #000000; stroke-width: 0.8"/>
      </g>
     </g>
     <g id="text_33">
      <!-- 60 -->
      <g transform="translate(10.765 231.351129) scale(0.1 -0.1)">
       <use xlink:href="#DejaVuSans-36"/>
       <use xlink:href="#DejaVuSans-30" transform="translate(63.623047 0)"/>
      </g>
     </g>
    </g>
   </g>
   <g id="line2d_37">
    <path d="M 53.147987 339.273031 
L 57.725359 329.317472 
L 62.30273 334.441659 
L 66.880101 341.015129 
L 71.457472 333.780862 
L 76.034843 347.680566 
L 80.612215 314.334692 
L 85.189586 319.815187 
L 89.766957 352.423636 
L 94.344328 342.267235 
L 98.921699 346.925075 
L 103.499071 339.567734 
L 108.076442 316.73087 
L 112.653813 332.565614 
L 117.231184 344.7971 
L 121.808555 326.129701 
L 126.385927 306.002851 
L 130.963298 328.642101 
L 135.540669 347.208312 
L 140.11804 337.841891 
L 144.695411 330.64918 
L 149.272783 318.098126 
L 153.850154 289.499732 
L 158.427525 321.116771 
L 163.004896 343.153148 
L 167.582267 330.819347 
L 172.159639 343.637272 
L 176.73701 324.681273 
L 181.314381 321.308445 
L 185.891752 333.019385 
L 190.469123 316.784348 
L 195.046495 299.040935 
L 199.623866 310.373619 
L 204.201237 345.476221 
L 208.778608 334.21034 
L 213.355979 317.012779 
L 217.933351 312.447162 
L 222.510722 314.981874 
L 227.088093 326.37392 
L 231.665464 328.743406 
L 236.242835 317.806229 
L 240.820207 295.568668 
L 245.397578 307.389273 
L 249.974949 312.228655 
L 254.55232 308.608783 
L 259.129691 311.155861 
L 263.707063 287.992094 
L 268.284434 301.919922 
L 272.861805 305.773174 
L 277.439176 320.543602 
L 282.016547 315.142427 
L 286.593919 300.598144 
L 291.17129 294.143708 
L 295.748661 329.049935 
L 300.326032 307.405018 
L 304.903403 295.842218 
L 309.480775 300.468281 
L 314.058146 307.922848 
L 318.635517 301.015105 
L 323.212888 312.073924 
L 327.790259 298.480096 
L 332.367631 278.371616 
L 336.945002 284.972388 
L 341.522373 281.220224 
L 346.099744 288.401165 
L 350.677115 314.681815 
L 355.254487 284.723211 
L 359.831858 273.437418 
L 364.409229 293.107772 
L 368.9866 297.863209 
L 373.563971 260.200617 
L 378.141343 268.045177 
L 382.718714 277.416878 
L 387.296085 268.775009 
L 391.873456 287.440445 
L 396.450827 268.755724 
L 401.028199 255.00916 
L 405.60557 261.09531 
L 410.182941 269.16582 
L 414.760312 257.392811 
L 419.337683 268.983777 
L 423.915055 250.766882 
L 428.492426 251.078667 
L 433.069797 273.78817 
L 437.647168 261.855371 
L 442.224539 257.295701 
L 446.801911 255.347302 
L 451.379282 244.885295 
L 455.956653 251.181344 
L 460.534024 283.457428 
L 465.111395 246.420456 
L 469.688767 217.446527 
L 474.266138 238.487762 
L 478.843509 259.550738 
L 483.42088 242.942677 
L 487.998251 247.650681 
L 492.575623 215.443666 
L 497.152994 206.496364 
L 501.730365 237.885664 
L 506.307736 244.323168 
" clip-path="url(#pb14b547af0)" style="fill: none; stroke: #1f77b4; stroke-width: 1.5; stroke-linecap: square"/>
   </g>
   <g id="line2d_38">
    <path d="M 62.30273 319.361913 
L 66.880101 314.636766 
L 71.457472 314.741965 
L 76.034843 313.895775 
L 80.612215 319.31491 
L 85.189586 313.330345 
L 89.766957 311.021434 
L 94.344328 321.215558 
L 98.921699 326.853445 
L 103.499071 333.423763 
L 108.076442 336.376398 
L 112.653813 330.755282 
L 117.231184 331.388761 
L 121.808555 336.154427 
L 126.385927 333.602729 
L 130.963298 324.349193 
L 135.540669 324.489541 
L 140.11804 331.280366 
L 144.695411 333.840168 
L 149.272783 333.413887 
L 153.850154 328.589263 
L 158.427525 314.59302 
L 163.004896 314.055184 
L 167.582267 321.741512 
L 172.159639 324.242534 
L 176.73701 330.870639 
L 181.314381 329.797109 
L 185.891752 327.551982 
L 190.469123 329.634466 
L 195.046495 325.693964 
L 199.623866 316.18926 
L 204.201237 312.301101 
L 208.778608 321.585397 
L 213.355979 325.746961 
L 217.933351 323.26316 
L 222.510722 319.529388 
L 227.088093 317.316123 
L 231.665464 319.54701 
L 236.242835 322.373423 
L 240.820207 320.981762 
L 245.397578 312.083656 
L 249.974949 308.835873 
L 254.55232 308.109397 
L 259.129691 306.584405 
L 263.707063 306.501995 
L 268.284434 298.69011 
L 272.861805 297.299912 
L 277.439176 297.923614 
L 282.016547 303.966234 
L 286.593919 307.406722 
L 291.17129 305.284677 
L 295.748661 301.248432 
L 300.326032 310.046031 
L 304.903403 309.964958 
L 309.480775 305.741824 
L 314.058146 303.734458 
L 318.635517 304.690233 
L 323.212888 303.171691 
L 327.790259 305.793484 
L 332.367631 303.328937 
L 336.945002 294.302568 
L 341.522373 289.188058 
L 346.099744 283.982162 
L 350.677115 282.591067 
L 355.254487 291.065006 
L 359.831858 288.148173 
L 364.409229 281.945267 
L 368.9866 283.827389 
L 373.563971 287.380781 
L 378.141343 277.486727 
L 382.718714 272.102547 
L 387.296085 271.2658 
L 391.873456 268.043043 
L 396.450827 272.261666 
L 401.028199 269.708638 
L 405.60557 263.061231 
L 410.182941 259.942025 
L 414.760312 260.585154 
L 419.337683 257.479229 
L 423.915055 259.277978 
L 428.492426 254.829632 
L 433.069797 251.517928 
L 437.647168 257.004976 
L 442.224539 257.795958 
L 446.801911 257.024223 
L 451.379282 255.814127 
L 455.956653 251.293651 
L 460.534024 249.864351 
L 465.111395 260.118981 
L 469.688767 256.000873 
L 474.266138 242.433582 
L 478.843509 238.540043 
L 483.42088 243.064191 
L 487.998251 241.528512 
L 492.575623 242.151112 
L 497.152994 231.756778 
L 501.730365 220.250151 
L 506.307736 222.095247 
" clip-path="url(#pb14b547af0)" style="fill: none; stroke: #ff7f0e; stroke-width: 1.5; stroke-linecap: square"/>
   </g>
   <g id="patch_15">
    <path d="M 30.49 359.72 
L 30.49 199.2 
" style="fill: none; stroke: #000000; stroke-width: 0.8; stroke-linejoin: miter; stroke-linecap: square"/>
   </g>
   <g id="patch_16">
    <path d="M 528.965724 359.72 
L 528.965724 199.2 
" style="fill: none; stroke: #000000; stroke-width: 0.8; stroke-linejoin: miter; stroke-linecap: square"/>
   </g>
   <g id="patch_17">
    <path d="M 30.49 359.72 
L 528.965724 359.72 
" style="fill: none; stroke: #000000; stroke-width: 0.8; stroke-linejoin: miter; stroke-linecap: square"/>
   </g>
   <g id="patch_18">
    <path d="M 30.49 199.2 
L 528.965724 199.2 
" style="fill: none; stroke: #000000; stroke-width: 0.8; stroke-linejoin: miter; stroke-linecap: square"/>
   </g>
   <g id="legend_3">
    <g id="patch_19">
     <path d="M 36.321 249.091754 
L 159.936898 249.091754 
Q 161.602898 249.091754 161.602898 247.425754 
L 161.602898 205.031 
Q 161.602898 203.365 159.936898 203.365 
L 36.321 203.365 
Q 34.655 203.365 34.655 205.031 
L 34.655 247.425754 
Q 34.655 249.091754 36.321 249.091754 
z
" style="fill: #ffffff; opacity: 0.8; stroke: #cccccc; stroke-linejoin: miter"/>
    </g>
    <g id="line2d_39">
     <path d="M 37.987 220.364187 
L 46.317 220.364187 
L 54.647 220.364187 
" style="fill: none; stroke: #1f77b4; stroke-width: 1.5; stroke-linecap: square"/>
    </g>
    <g id="text_34">
     <!-- Noisy series -->
     <g transform="translate(61.311 213.026498) scale(0.0833 -0.0833)">
      <use xlink:href="#DejaVuSans-4e"/>
      <use xlink:href="#DejaVuSans-6f" transform="translate(74.804688 0)"/>
      <use xlink:href="#DejaVuSans-69" transform="translate(135.986328 0)"/>
      <use xlink:href="#DejaVuSans-73" transform="translate(163.769531 0)"/>
      <use xlink:href="#DejaVuSans-79" transform="translate(215.869141 0)"/>
      <use xlink:href="#DejaVuSans-20" transform="translate(275.048828 0)"/>
      <use xlink:href="#DejaVuSans-73" transform="translate(306.835938 0)"/>
      <use xlink:href="#DejaVuSans-65" transform="translate(358.935547 0)"/>
      <use xlink:href="#DejaVuSans-72" transform="translate(420.458984 0)"/>
      <use xlink:href="#DejaVuSans-69" transform="translate(461.572266 0)"/>
      <use xlink:href="#DejaVuSans-65" transform="translate(489.355469 0)"/>
      <use xlink:href="#DejaVuSans-73" transform="translate(550.878906 0)"/>
     </g>
     <!-- $\alpha = 0.29$ -->
     <g transform="translate(61.311 222.354276) scale(0.0833 -0.0833)">
      <defs>
       <path id="DejaVuSans-39" d="M 703 97 
L 703 672 
Q 941 559 1184 500 
Q 1428 441 1663 441 
Q 2288 441 2617 861 
Q 2947 1281 2994 2138 
Q 2813 1869 2534 1725 
Q 2256 1581 1919 1581 
Q 1219 1581 811 2004 
Q 403 2428 403 3163 
Q 403 3881 828 4315 
Q 1253 4750 1959 4750 
Q 2769 4750 3195 4129 
Q 3622 3509 3622 2328 
Q 3622 1225 3098 567 
Q 2575 -91 1691 -91 
Q 1453 -91 1209 -44 
Q 966 3 703 97 
z
M 1959 2075 
Q 2384 2075 2632 2365 
Q 2881 2656 2881 3163 
Q 2881 3666 2632 3958 
Q 2384 4250 1959 4250 
Q 1534 4250 1286 3958 
Q 1038 3666 1038 3163 
Q 1038 2656 1286 2365 
Q 1534 2075 1959 2075 
z
" transform="scale(0.015625)"/>
      </defs>
      <use xlink:href="#DejaVuSans-Oblique-3b1" transform="translate(0 0.78125)"/>
      <use xlink:href="#DejaVuSans-3d" transform="translate(85.400391 0.78125)"/>
      <use xlink:href="#DejaVuSans-30" transform="translate(188.671875 0.78125)"/>
      <use xlink:href="#DejaVuSans-2e" transform="translate(252.294922 0.78125)"/>
      <use xlink:href="#DejaVuSans-32" transform="translate(278.582031 0.78125)"/>
      <use xlink:href="#DejaVuSans-39" transform="translate(340.455078 0.78125)"/>
     </g>
     <!-- $\beta=0.21$ -->
     <g transform="translate(61.311 231.783576) scale(0.0833 -0.0833)">
      <defs>
       <path id="DejaVuSans-Oblique-3b2" d="M 872 216 
L 572 -1331 
L -6 -1331 
L 928 3478 
Q 1206 4903 2538 4903 
Q 3888 4903 3659 3700 
Q 3503 2844 2894 2531 
Q 3713 2250 3553 1416 
Q 3272 -69 1759 -66 
Q 1097 -63 872 216 
z
M 1019 966 
Q 1259 422 1875 425 
Q 2775 425 2966 1406 
Q 3138 2288 1675 2219 
L 1778 2750 
Q 2909 2731 3106 3750 
Q 3241 4438 2509 4434 
Q 1691 4434 1503 3459 
L 1019 966 
z
" transform="scale(0.015625)"/>
      </defs>
      <use xlink:href="#DejaVuSans-Oblique-3b2" transform="translate(0 0.390625)"/>
      <use xlink:href="#DejaVuSans-3d" transform="translate(83.300781 0.390625)"/>
      <use xlink:href="#DejaVuSans-30" transform="translate(186.572266 0.390625)"/>
      <use xlink:href="#DejaVuSans-2e" transform="translate(250.195312 0.390625)"/>
      <use xlink:href="#DejaVuSans-32" transform="translate(276.482422 0.390625)"/>
      <use xlink:href="#DejaVuSans-31" transform="translate(340.105469 0.390625)"/>
     </g>
    </g>
    <g id="line2d_40">
     <path d="M 37.987 241.111874 
L 46.317 241.111874 
L 54.647 241.111874 
" style="fill: none; stroke: #ff7f0e; stroke-width: 1.5; stroke-linecap: square"/>
    </g>
    <g id="text_35">
     <!-- Double Exponential MA -->
     <g transform="translate(61.311 244.027374) scale(0.0833 -0.0833)">
      <defs>
       <path id="DejaVuSans-44" d="M 1259 4147 
L 1259 519 
L 2022 519 
Q 2988 519 3436 956 
Q 3884 1394 3884 2338 
Q 3884 3275 3436 3711 
Q 2988 4147 2022 4147 
L 1259 4147 
z
M 628 4666 
L 1925 4666 
Q 3281 4666 3915 4102 
Q 4550 3538 4550 2338 
Q 4550 1131 3912 565 
Q 3275 0 1925 0 
L 628 0 
L 628 4666 
z
" transform="scale(0.015625)"/>
       <path id="DejaVuSans-75" d="M 544 1381 
L 544 3500 
L 1119 3500 
L 1119 1403 
Q 1119 906 1312 657 
Q 1506 409 1894 409 
Q 2359 409 2629 706 
Q 2900 1003 2900 1516 
L 2900 3500 
L 3475 3500 
L 3475 0 
L 2900 0 
L 2900 538 
Q 2691 219 2414 64 
Q 2138 -91 1772 -91 
Q 1169 -91 856 284 
Q 544 659 544 1381 
z
M 1991 3584 
L 1991 3584 
z
" transform="scale(0.015625)"/>
       <path id="DejaVuSans-62" d="M 3116 1747 
Q 3116 2381 2855 2742 
Q 2594 3103 2138 3103 
Q 1681 3103 1420 2742 
Q 1159 2381 1159 1747 
Q 1159 1113 1420 752 
Q 1681 391 2138 391 
Q 2594 391 2855 752 
Q 3116 1113 3116 1747 
z
M 1159 2969 
Q 1341 3281 1617 3432 
Q 1894 3584 2278 3584 
Q 2916 3584 3314 3078 
Q 3713 2572 3713 1747 
Q 3713 922 3314 415 
Q 2916 -91 2278 -91 
Q 1894 -91 1617 61 
Q 1341 213 1159 525 
L 1159 0 
L 581 0 
L 581 4863 
L 1159 4863 
L 1159 2969 
z
" transform="scale(0.015625)"/>
      </defs>
      <use xlink:href="#DejaVuSans-44"/>
      <use xlink:href="#DejaVuSans-6f" transform="translate(77.001953 0)"/>
      <use xlink:href="#DejaVuSans-75" transform="translate(138.183594 0)"/>
      <use xlink:href="#DejaVuSans-62" transform="translate(201.5625 0)"/>
      <use xlink:href="#DejaVuSans-6c" transform="translate(265.039062 0)"/>
      <use xlink:href="#DejaVuSans-65" transform="translate(292.822266 0)"/>
      <use xlink:href="#DejaVuSans-20" transform="translate(354.345703 0)"/>
      <use xlink:href="#DejaVuSans-45" transform="translate(386.132812 0)"/>
      <use xlink:href="#DejaVuSans-78" transform="translate(449.316406 0)"/>
      <use xlink:href="#DejaVuSans-70" transform="translate(508.496094 0)"/>
      <use xlink:href="#DejaVuSans-6f" transform="translate(571.972656 0)"/>
      <use xlink:href="#DejaVuSans-6e" transform="translate(633.154297 0)"/>
      <use xlink:href="#DejaVuSans-65" transform="translate(696.533203 0)"/>
      <use xlink:href="#DejaVuSans-6e" transform="translate(758.056641 0)"/>
      <use xlink:href="#DejaVuSans-74" transform="translate(821.435547 0)"/>
      <use xlink:href="#DejaVuSans-69" transform="translate(860.644531 0)"/>
      <use xlink:href="#DejaVuSans-61" transform="translate(888.427734 0)"/>
      <use xlink:href="#DejaVuSans-6c" transform="translate(949.707031 0)"/>
      <use xlink:href="#DejaVuSans-20" transform="translate(977.490234 0)"/>
      <use xlink:href="#DejaVuSans-4d" transform="translate(1009.277344 0)"/>
      <use xlink:href="#DejaVuSans-41" transform="translate(1095.556641 0)"/>
     </g>
    </g>
   </g>
  </g>
  <g id="axes_4">
   <g id="patch_20">
    <path d="M 567.825724 359.72 
L 1066.301447 359.72 
L 1066.301447 199.2 
L 567.825724 199.2 
z
" style="fill: #ffffff"/>
   </g>
   <g id="matplotlib.axis_7">
    <g id="xtick_19">
     <g id="line2d_41">
      <g>
       <use xlink:href="#m1db50d03fd" x="590.483711" y="359.72" style="stroke: #000000; stroke-width: 0.8"/>
      </g>
     </g>
     <g id="text_36">
      <!-- 0 -->
      <g transform="translate(587.302461 374.318437) scale(0.1 -0.1)">
       <use xlink:href="#DejaVuSans-30"/>
      </g>
     </g>
    </g>
    <g id="xtick_20">
     <g id="line2d_42">
      <g>
       <use xlink:href="#m1db50d03fd" x="683.918711" y="359.72" style="stroke: #000000; stroke-width: 0.8"/>
      </g>
     </g>
     <g id="text_37">
      <!-- 20 -->
      <g transform="translate(677.556211 374.318437) scale(0.1 -0.1)">
       <use xlink:href="#DejaVuSans-32"/>
       <use xlink:href="#DejaVuSans-30" transform="translate(63.623047 0)"/>
      </g>
     </g>
    </g>
    <g id="xtick_21">
     <g id="line2d_43">
      <g>
       <use xlink:href="#m1db50d03fd" x="777.35371" y="359.72" style="stroke: #000000; stroke-width: 0.8"/>
      </g>
     </g>
     <g id="text_38">
      <!-- 40 -->
      <g transform="translate(770.99121 374.318437) scale(0.1 -0.1)">
       <use xlink:href="#DejaVuSans-34"/>
       <use xlink:href="#DejaVuSans-30" transform="translate(63.623047 0)"/>
      </g>
     </g>
    </g>
    <g id="xtick_22">
     <g id="line2d_44">
      <g>
       <use xlink:href="#m1db50d03fd" x="870.78871" y="359.72" style="stroke: #000000; stroke-width: 0.8"/>
      </g>
     </g>
     <g id="text_39">
      <!-- 60 -->
      <g transform="translate(864.42621 374.318437) scale(0.1 -0.1)">
       <use xlink:href="#DejaVuSans-36"/>
       <use xlink:href="#DejaVuSans-30" transform="translate(63.623047 0)"/>
      </g>
     </g>
    </g>
    <g id="xtick_23">
     <g id="line2d_45">
      <g>
       <use xlink:href="#m1db50d03fd" x="964.22371" y="359.72" style="stroke: #000000; stroke-width: 0.8"/>
      </g>
     </g>
     <g id="text_40">
      <!-- 80 -->
      <g transform="translate(957.86121 374.318437) scale(0.1 -0.1)">
       <use xlink:href="#DejaVuSans-38"/>
       <use xlink:href="#DejaVuSans-30" transform="translate(63.623047 0)"/>
      </g>
     </g>
    </g>
    <g id="xtick_24">
     <g id="line2d_46">
      <g>
       <use xlink:href="#m1db50d03fd" x="1057.65871" y="359.72" style="stroke: #000000; stroke-width: 0.8"/>
      </g>
     </g>
     <g id="text_41">
      <!-- 100 -->
      <g transform="translate(1048.11496 374.318437) scale(0.1 -0.1)">
       <use xlink:href="#DejaVuSans-31"/>
       <use xlink:href="#DejaVuSans-30" transform="translate(63.623047 0)"/>
       <use xlink:href="#DejaVuSans-30" transform="translate(127.246094 0)"/>
      </g>
     </g>
    </g>
   </g>
   <g id="matplotlib.axis_8">
    <g id="ytick_13">
     <g id="line2d_47">
      <g>
       <use xlink:href="#m64ed14e1b2" x="567.825724" y="346.153072" style="stroke: #000000; stroke-width: 0.8"/>
      </g>
     </g>
     <g id="text_42">
      <!-- −20 -->
      <g transform="translate(539.721036 349.95229) scale(0.1 -0.1)">
       <use xlink:href="#DejaVuSans-2212"/>
       <use xlink:href="#DejaVuSans-32" transform="translate(83.789062 0)"/>
       <use xlink:href="#DejaVuSans-30" transform="translate(147.412109 0)"/>
      </g>
     </g>
    </g>
    <g id="ytick_14">
     <g id="line2d_48">
      <g>
       <use xlink:href="#m64ed14e1b2" x="567.825724" y="311.758348" style="stroke: #000000; stroke-width: 0.8"/>
      </g>
     </g>
     <g id="text_43">
      <!-- −10 -->
      <g transform="translate(539.721036 315.557567) scale(0.1 -0.1)">
       <use xlink:href="#DejaVuSans-2212"/>
       <use xlink:href="#DejaVuSans-31" transform="translate(83.789062 0)"/>
       <use xlink:href="#DejaVuSans-30" transform="translate(147.412109 0)"/>
      </g>
     </g>
    </g>
    <g id="ytick_15">
     <g id="line2d_49">
      <g>
       <use xlink:href="#m64ed14e1b2" x="567.825724" y="277.363624" style="stroke: #000000; stroke-width: 0.8"/>
      </g>
     </g>
     <g id="text_44">
      <!-- 0 -->
      <g transform="translate(554.463224 281.162843) scale(0.1 -0.1)">
       <use xlink:href="#DejaVuSans-30"/>
      </g>
     </g>
    </g>
    <g id="ytick_16">
     <g id="line2d_50">
      <g>
       <use xlink:href="#m64ed14e1b2" x="567.825724" y="242.968901" style="stroke: #000000; stroke-width: 0.8"/>
      </g>
     </g>
     <g id="text_45">
      <!-- 10 -->
      <g transform="translate(548.100724 246.768119) scale(0.1 -0.1)">
       <use xlink:href="#DejaVuSans-31"/>
       <use xlink:href="#DejaVuSans-30" transform="translate(63.623047 0)"/>
      </g>
     </g>
    </g>
    <g id="ytick_17">
     <g id="line2d_51">
      <g>
       <use xlink:href="#m64ed14e1b2" x="567.825724" y="208.574177" style="stroke: #000000; stroke-width: 0.8"/>
      </g>
     </g>
     <g id="text_46">
      <!-- 20 -->
      <g transform="translate(548.100724 212.373396) scale(0.1 -0.1)">
       <use xlink:href="#DejaVuSans-32"/>
       <use xlink:href="#DejaVuSans-30" transform="translate(63.623047 0)"/>
      </g>
     </g>
    </g>
   </g>
   <g id="line2d_52">
    <path d="M 590.483711 304.702409 
L 595.155461 325.186206 
L 599.827211 311.88014 
L 604.498961 338.613669 
L 609.170711 268.334753 
L 613.842461 289.120301 
L 618.514211 352.423636 
L 623.185961 315.529206 
L 627.857711 313.752433 
L 632.529461 288.50232 
L 637.201211 241.747316 
L 641.872961 280.645659 
L 646.544711 301.672236 
L 651.216461 259.189324 
L 655.888211 227.3265 
L 660.559961 285.14644 
L 665.231711 318.551559 
L 669.903461 289.259324 
L 674.575211 271.578532 
L 679.246961 249.596956 
L 683.918711 206.496364 
L 688.590461 289.19084 
L 693.262211 330.1167 
L 697.933961 293.821261 
L 702.605711 312.525263 
L 707.277461 266.142631 
L 711.949211 261.974123 
L 716.620961 287.275737 
L 721.292711 254.067038 
L 725.964461 229.043088 
L 730.636211 266.820175 
L 735.307961 337.50837 
L 739.979711 300.251982 
L 744.651461 261.529012 
L 749.323211 257.754789 
L 753.994961 269.119222 
L 758.666711 293.784933 
L 763.338461 294.036204 
L 768.01021 269.083541 
L 772.68196 231.291023 
L 777.35371 268.852955 
L 782.02546 283.514559 
L 786.69721 278.268983 
L 791.36896 285.651432 
L 796.04071 243.80615 
L 800.71246 283.219103 
L 805.38421 292.725202 
L 810.05596 318.372471 
L 814.72771 297.625473 
L 819.39946 265.020031 
L 824.07121 257.165634 
L 828.74296 327.766284 
L 833.41471 272.575608 
L 838.08646 251.759842 
L 842.75821 267.80297 
L 847.42996 284.956954 
L 852.10171 270.700812 
L 856.77346 293.502904 
L 861.44521 264.104837 
L 866.11696 232.117317 
L 870.78871 260.448499 
L 875.46046 262.918361 
L 880.13221 285.375044 
L 884.80396 335.54246 
L 889.47571 265.866283 
L 894.14746 250.693801 
L 898.81921 297.600657 
L 903.49096 302.809826 
L 908.16271 228.087418 
L 912.83446 260.246593 
L 917.50621 286.998227 
L 922.17796 272.84795 
L 926.84971 312.530091 
L 931.52146 271.007536 
L 936.19321 250.714244 
L 940.86496 273.799513 
L 945.53671 294.085877 
L 950.20846 271.576075 
L 954.88021 298.220762 
L 959.55196 261.933456 
L 964.22371 270.563323 
L 968.89546 317.7384 
L 973.56721 286.157136 
L 978.23896 276.456684 
L 982.91071 274.323455 
L 987.58246 257.550228 
L 992.25421 277.160017 
L 996.92596 338.266102 
L 1001.59771 252.528921 
L 1006.26946 207.466626 
L 1010.94121 270.21006 
L 1015.61296 315.454906 
L 1020.28471 277.143327 
L 1024.95646 288.462794 
L 1029.62821 228.944431 
L 1034.29996 231.567824 
L 1038.97171 309.33588 
L 1043.64346 317.661673 
" clip-path="url(#p7251c57b74)" style="fill: none; stroke: #1f77b4; stroke-width: 1.5; stroke-linecap: square"/>
   </g>
   <g id="patch_21">
    <path d="M 567.825724 359.72 
L 567.825724 199.2 
" style="fill: none; stroke: #000000; stroke-width: 0.8; stroke-linejoin: miter; stroke-linecap: square"/>
   </g>
   <g id="patch_22">
    <path d="M 1066.301447 359.72 
L 1066.301447 199.2 
" style="fill: none; stroke: #000000; stroke-width: 0.8; stroke-linejoin: miter; stroke-linecap: square"/>
   </g>
   <g id="patch_23">
    <path d="M 567.825724 359.72 
L 1066.301447 359.72 
" style="fill: none; stroke: #000000; stroke-width: 0.8; stroke-linejoin: miter; stroke-linecap: square"/>
   </g>
   <g id="patch_24">
    <path d="M 567.825724 199.2 
L 1066.301447 199.2 
" style="fill: none; stroke: #000000; stroke-width: 0.8; stroke-linejoin: miter; stroke-linecap: square"/>
   </g>
   <g id="legend_4">
    <g id="patch_25">
     <path d="M 1013.513977 218.090878 
L 1060.470447 218.090878 
Q 1062.136447 218.090878 1062.136447 216.424878 
L 1062.136447 205.031 
Q 1062.136447 203.365 1060.470447 203.365 
L 1013.513977 203.365 
Q 1011.847977 203.365 1011.847977 205.031 
L 1011.847977 216.424878 
Q 1011.847977 218.090878 1013.513977 218.090878 
z
" style="fill: #ffffff; opacity: 0.8; stroke: #cccccc; stroke-linejoin: miter"/>
    </g>
    <g id="line2d_53">
     <path d="M 1015.179977 210.110998 
L 1023.509977 210.110998 
L 1031.839977 210.110998 
" style="fill: none; stroke: #1f77b4; stroke-width: 1.5; stroke-linecap: square"/>
    </g>
    <g id="text_47">
     <!-- Error -->
     <g transform="translate(1038.503977 213.026498) scale(0.0833 -0.0833)">
      <use xlink:href="#DejaVuSans-45"/>
      <use xlink:href="#DejaVuSans-72" transform="translate(63.183594 0)"/>
      <use xlink:href="#DejaVuSans-72" transform="translate(102.546875 0)"/>
      <use xlink:href="#DejaVuSans-6f" transform="translate(141.410156 0)"/>
      <use xlink:href="#DejaVuSans-72" transform="translate(202.591797 0)"/>
     </g>
    </g>
   </g>
  </g>
  <g id="axes_5">
   <g id="patch_26">
    <path d="M 30.49 548.12 
L 528.965724 548.12 
L 528.965724 387.6 
L 30.49 387.6 
z
" style="fill: #ffffff"/>
   </g>
   <g id="matplotlib.axis_9">
    <g id="xtick_25">
     <g id="line2d_54">
      <g>
       <use xlink:href="#m1db50d03fd" x="80.121782" y="548.12" style="stroke: #000000; stroke-width: 0.8"/>
      </g>
     </g>
     <g id="text_48">
      <!-- 20 -->
      <g transform="translate(73.759282 562.718437) scale(0.1 -0.1)">
       <use xlink:href="#DejaVuSans-32"/>
       <use xlink:href="#DejaVuSans-30" transform="translate(63.623047 0)"/>
      </g>
     </g>
    </g>
    <g id="xtick_26">
     <g id="line2d_55">
      <g>
       <use xlink:href="#m1db50d03fd" x="188.01696" y="548.12" style="stroke: #000000; stroke-width: 0.8"/>
      </g>
     </g>
     <g id="text_49">
      <!-- 40 -->
      <g transform="translate(181.65446 562.718437) scale(0.1 -0.1)">
       <use xlink:href="#DejaVuSans-34"/>
       <use xlink:href="#DejaVuSans-30" transform="translate(63.623047 0)"/>
      </g>
     </g>
    </g>
    <g id="xtick_27">
     <g id="line2d_56">
      <g>
       <use xlink:href="#m1db50d03fd" x="295.912139" y="548.12" style="stroke: #000000; stroke-width: 0.8"/>
      </g>
     </g>
     <g id="text_50">
      <!-- 60 -->
      <g transform="translate(289.549639 562.718437) scale(0.1 -0.1)">
       <use xlink:href="#DejaVuSans-36"/>
       <use xlink:href="#DejaVuSans-30" transform="translate(63.623047 0)"/>
      </g>
     </g>
    </g>
    <g id="xtick_28">
     <g id="line2d_57">
      <g>
       <use xlink:href="#m1db50d03fd" x="403.807317" y="548.12" style="stroke: #000000; stroke-width: 0.8"/>
      </g>
     </g>
     <g id="text_51">
      <!-- 80 -->
      <g transform="translate(397.444817 562.718437) scale(0.1 -0.1)">
       <use xlink:href="#DejaVuSans-38"/>
       <use xlink:href="#DejaVuSans-30" transform="translate(63.623047 0)"/>
      </g>
     </g>
    </g>
    <g id="xtick_29">
     <g id="line2d_58">
      <g>
       <use xlink:href="#m1db50d03fd" x="511.702495" y="548.12" style="stroke: #000000; stroke-width: 0.8"/>
      </g>
     </g>
     <g id="text_52">
      <!-- 100 -->
      <g transform="translate(502.158745 562.718437) scale(0.1 -0.1)">
       <use xlink:href="#DejaVuSans-31"/>
       <use xlink:href="#DejaVuSans-30" transform="translate(63.623047 0)"/>
       <use xlink:href="#DejaVuSans-30" transform="translate(127.246094 0)"/>
      </g>
     </g>
    </g>
   </g>
   <g id="matplotlib.axis_10">
    <g id="ytick_18">
     <g id="line2d_59">
      <g>
       <use xlink:href="#m64ed14e1b2" x="30.49" y="534.7816" style="stroke: #000000; stroke-width: 0.8"/>
      </g>
     </g>
     <g id="text_53">
      <!-- 0 -->
      <g transform="translate(17.1275 538.580819) scale(0.1 -0.1)">
       <use xlink:href="#DejaVuSans-30"/>
      </g>
     </g>
    </g>
    <g id="ytick_19">
     <g id="line2d_60">
      <g>
       <use xlink:href="#m64ed14e1b2" x="30.49" y="495.431837" style="stroke: #000000; stroke-width: 0.8"/>
      </g>
     </g>
     <g id="text_54">
      <!-- 20 -->
      <g transform="translate(10.765 499.231055) scale(0.1 -0.1)">
       <use xlink:href="#DejaVuSans-32"/>
       <use xlink:href="#DejaVuSans-30" transform="translate(63.623047 0)"/>
      </g>
     </g>
    </g>
    <g id="ytick_20">
     <g id="line2d_61">
      <g>
       <use xlink:href="#m64ed14e1b2" x="30.49" y="456.082073" style="stroke: #000000; stroke-width: 0.8"/>
      </g>
     </g>
     <g id="text_55">
      <!-- 40 -->
      <g transform="translate(10.765 459.881292) scale(0.1 -0.1)">
       <use xlink:href="#DejaVuSans-34"/>
       <use xlink:href="#DejaVuSans-30" transform="translate(63.623047 0)"/>
      </g>
     </g>
    </g>
    <g id="ytick_21">
     <g id="line2d_62">
      <g>
       <use xlink:href="#m64ed14e1b2" x="30.49" y="416.732309" style="stroke: #000000; stroke-width: 0.8"/>
      </g>
     </g>
     <g id="text_56">
      <!-- 60 -->
      <g transform="translate(10.765 420.531528) scale(0.1 -0.1)">
       <use xlink:href="#DejaVuSans-36"/>
       <use xlink:href="#DejaVuSans-30" transform="translate(63.623047 0)"/>
      </g>
     </g>
    </g>
   </g>
   <g id="line2d_63">
    <path d="M 53.147987 518.963771 
L 58.542746 498.090943 
L 63.937505 521.56929 
L 69.332264 540.823636 
L 74.727023 531.11006 
L 80.121782 523.650759 
L 85.516541 510.634515 
L 90.9113 480.976155 
L 96.306059 513.765042 
L 101.700818 536.618172 
L 107.095577 523.827234 
L 112.490335 537.12024 
L 117.885094 517.461659 
L 123.279853 513.96382 
L 128.674612 526.108813 
L 134.069371 509.272043 
L 139.46413 490.870992 
L 144.858889 502.623709 
L 150.253648 539.027347 
L 155.648407 527.343909 
L 161.043166 509.508941 
L 166.437925 504.774104 
L 171.832684 507.402763 
L 177.227442 519.217042 
L 182.622201 521.674349 
L 188.01696 510.331799 
L 193.411719 487.270029 
L 198.806478 499.528751 
L 204.201237 504.547499 
L 209.595996 500.79346 
L 214.990755 503.434943 
L 220.385514 479.412638 
L 225.780273 493.856684 
L 231.175032 497.852753 
L 236.56979 513.17063 
L 241.964549 507.569267 
L 247.359308 492.485917 
L 252.754067 485.792255 
L 258.148826 521.99224 
L 263.543585 499.54508 
L 268.938344 487.553718 
L 274.333103 492.351241 
L 279.727862 500.082102 
L 285.122621 492.918332 
L 290.51738 504.387033 
L 295.912139 490.289366 
L 301.306897 469.435589 
L 306.701656 476.28101 
L 312.096415 472.389776 
L 317.491174 479.83687 
L 322.885933 507.091583 
L 328.280692 476.022597 
L 333.675451 464.31851 
L 339.07021 484.717922 
L 344.464969 489.649614 
L 349.859728 450.591102 
L 355.254487 458.726412 
L 360.649245 468.445464 
L 366.044004 459.483294 
L 371.438763 478.840543 
L 376.833522 459.463295 
L 382.228281 445.20723 
L 387.62304 451.518956 
L 393.017799 459.88859 
L 398.412558 447.679229 
L 403.807317 459.6998 
L 409.202076 440.807717 
L 414.596835 441.131058 
L 419.991594 464.682262 
L 425.386352 452.307188 
L 430.781111 447.578519 
L 436.17587 445.557905 
L 441.570629 434.708136 
L 446.965388 441.23754 
L 452.360147 474.7099 
L 457.754906 436.300196 
L 463.149665 406.252382 
L 468.544424 428.073486 
L 473.939183 449.917136 
L 479.333942 432.693517 
L 484.7287 437.576018 
L 490.123459 404.175287 
L 495.518218 394.896364 
L 500.912977 427.449072 
L 506.307736 434.125174 
" clip-path="url(#p8a36c8b3db)" style="fill: none; stroke: #1f77b4; stroke-width: 1.5; stroke-linecap: square"/>
   </g>
   <g id="line2d_64">
    <path d="M 53.147987 531.685545 
L 58.542746 519.400993 
L 63.937505 521.938461 
L 69.332264 527.530342 
L 74.727023 519.928655 
L 80.121782 534.181446 
L 85.516541 497.737287 
L 90.9113 503.406083 
L 96.306059 534.397325 
L 101.700818 520.998728 
L 107.095577 525.785814 
L 112.490335 516.791051 
L 117.885094 493.568391 
L 123.279853 510.916044 
L 128.674612 523.005069 
L 134.069371 513.480579 
L 139.46413 499.681139 
L 144.858889 509.250593 
L 150.253648 518.374589 
L 155.648407 511.003563 
L 161.043166 519.97965 
L 166.437925 490.354478 
L 171.832684 486.739686 
L 177.227442 522.19792 
L 182.622201 521.000983 
L 188.01696 520.54344 
L 193.411719 517.743801 
L 198.806478 491.923498 
L 204.201237 502.374022 
L 209.595996 514.505516 
L 214.990755 501.67139 
L 220.385514 487.06819 
L 225.780273 497.364198 
L 231.175032 514.286188 
L 236.56979 502.65673 
L 241.964549 503.466609 
L 247.359308 481.603748 
L 252.754067 479.184576 
L 258.148826 506.700935 
L 263.543585 507.685155 
L 268.938344 503.314689 
L 274.333103 494.245033 
L 279.727862 481.030598 
L 285.122621 490.844956 
L 290.51738 498.619718 
L 295.912139 491.714168 
L 301.306897 474.442049 
L 306.701656 486.281022 
L 312.096415 499.30484 
L 317.491174 494.395693 
L 322.885933 491.386682 
L 328.280692 472.17017 
L 333.675451 467.896902 
L 339.07021 496.815122 
L 344.464969 488.836454 
L 349.859728 482.684626 
L 355.254487 475.750382 
L 360.649245 466.546234 
L 366.044004 469.590344 
L 371.438763 476.591523 
L 376.833522 466.52151 
L 382.228281 446.891887 
L 387.62304 456.686541 
L 393.017799 464.551277 
L 398.412558 464.05894 
L 403.807317 468.560452 
L 409.202076 443.29647 
L 414.596835 435.521442 
L 419.991594 461.887129 
L 425.386352 457.821676 
L 430.781111 441.316656 
L 436.17587 440.950562 
L 441.570629 438.2775 
L 446.965388 437.238048 
L 452.360147 448.460214 
L 457.754906 437.556243 
L 463.149665 419.852894 
L 468.544424 427.708275 
L 473.939183 436.081394 
L 479.333942 433.85149 
L 484.7287 441.821859 
L 490.123459 418.943728 
L 495.518218 412.656298 
L 500.912977 436.467228 
L 506.307736 429.100736 
" clip-path="url(#p8a36c8b3db)" style="fill: none; stroke: #ff7f0e; stroke-width: 1.5; stroke-linecap: square"/>
   </g>
   <g id="patch_27">
    <path d="M 30.49 548.12 
L 30.49 387.6 
" style="fill: none; stroke: #000000; stroke-width: 0.8; stroke-linejoin: miter; stroke-linecap: square"/>
   </g>
   <g id="patch_28">
    <path d="M 528.965724 548.12 
L 528.965724 387.6 
" style="fill: none; stroke: #000000; stroke-width: 0.8; stroke-linejoin: miter; stroke-linecap: square"/>
   </g>
   <g id="patch_29">
    <path d="M 30.49 548.12 
L 528.965724 548.12 
" style="fill: none; stroke: #000000; stroke-width: 0.8; stroke-linejoin: miter; stroke-linecap: square"/>
   </g>
   <g id="patch_30">
    <path d="M 30.49 387.6 
L 528.965724 387.6 
" style="fill: none; stroke: #000000; stroke-width: 0.8; stroke-linejoin: miter; stroke-linecap: square"/>
   </g>
   <g id="legend_5">
    <g id="patch_31">
     <path d="M 34.69 430.267312 
L 118.548437 430.267312 
Q 119.748437 430.267312 119.748437 429.067312 
L 119.748437 391.8 
Q 119.748437 390.6 118.548437 390.6 
L 34.69 390.6 
Q 33.49 390.6 33.49 391.8 
L 33.49 429.067312 
Q 33.49 430.267312 34.69 430.267312 
z
" style="fill: #ffffff; opacity: 0.8; stroke: #cccccc; stroke-linejoin: miter"/>
    </g>
    <g id="line2d_65">
     <path d="M 35.89 406.20975 
L 41.89 406.20975 
L 47.89 406.20975 
" style="fill: none; stroke: #1f77b4; stroke-width: 1.5; stroke-linecap: square"/>
    </g>
    <g id="text_57">
     <!-- Noisy series -->
     <g transform="translate(52.69 397.559062) scale(0.06 -0.06)">
      <use xlink:href="#DejaVuSans-4e"/>
      <use xlink:href="#DejaVuSans-6f" transform="translate(74.804688 0)"/>
      <use xlink:href="#DejaVuSans-69" transform="translate(135.986328 0)"/>
      <use xlink:href="#DejaVuSans-73" transform="translate(163.769531 0)"/>
      <use xlink:href="#DejaVuSans-79" transform="translate(215.869141 0)"/>
      <use xlink:href="#DejaVuSans-20" transform="translate(275.048828 0)"/>
      <use xlink:href="#DejaVuSans-73" transform="translate(306.835938 0)"/>
      <use xlink:href="#DejaVuSans-65" transform="translate(358.935547 0)"/>
      <use xlink:href="#DejaVuSans-72" transform="translate(420.458984 0)"/>
      <use xlink:href="#DejaVuSans-69" transform="translate(461.572266 0)"/>
      <use xlink:href="#DejaVuSans-65" transform="translate(489.355469 0)"/>
      <use xlink:href="#DejaVuSans-73" transform="translate(550.878906 0)"/>
     </g>
     <!-- $\alpha=0.29$ -->
     <g transform="translate(52.69 404.27775) scale(0.06 -0.06)">
      <use xlink:href="#DejaVuSans-Oblique-3b1" transform="translate(0 0.78125)"/>
      <use xlink:href="#DejaVuSans-3d" transform="translate(85.400391 0.78125)"/>
      <use xlink:href="#DejaVuSans-30" transform="translate(188.671875 0.78125)"/>
      <use xlink:href="#DejaVuSans-2e" transform="translate(252.294922 0.78125)"/>
      <use xlink:href="#DejaVuSans-32" transform="translate(278.582031 0.78125)"/>
      <use xlink:href="#DejaVuSans-39" transform="translate(340.455078 0.78125)"/>
     </g>
     <!-- $\beta=0.11$ -->
     <g transform="translate(52.69 411.069562) scale(0.06 -0.06)">
      <use xlink:href="#DejaVuSans-Oblique-3b2" transform="translate(0 0.390625)"/>
      <use xlink:href="#DejaVuSans-3d" transform="translate(83.300781 0.390625)"/>
      <use xlink:href="#DejaVuSans-30" transform="translate(186.572266 0.390625)"/>
      <use xlink:href="#DejaVuSans-2e" transform="translate(250.195312 0.390625)"/>
      <use xlink:href="#DejaVuSans-31" transform="translate(281.982422 0.390625)"/>
      <use xlink:href="#DejaVuSans-31" transform="translate(345.605469 0.390625)"/>
     </g>
     <!-- $\gamma=0.30$ -->
     <g transform="translate(52.69 417.800437) scale(0.06 -0.06)">
      <defs>
       <path id="DejaVuSans-Oblique-3b3" d="M 1491 2950 
L 1838 788 
L 3456 3500 
L 4066 3500 
L 1972 0 
L 1713 -1331 
L 1138 -1331 
L 1397 0 
L 988 2613 
Q 925 3006 628 3006 
L 475 3006 
L 569 3500 
L 788 3500 
Q 1403 3500 1491 2950 
z
" transform="scale(0.015625)"/>
       <path id="DejaVuSans-33" d="M 2597 2516 
Q 3050 2419 3304 2112 
Q 3559 1806 3559 1356 
Q 3559 666 3084 287 
Q 2609 -91 1734 -91 
Q 1441 -91 1130 -33 
Q 819 25 488 141 
L 488 750 
Q 750 597 1062 519 
Q 1375 441 1716 441 
Q 2309 441 2620 675 
Q 2931 909 2931 1356 
Q 2931 1769 2642 2001 
Q 2353 2234 1838 2234 
L 1294 2234 
L 1294 2753 
L 1863 2753 
Q 2328 2753 2575 2939 
Q 2822 3125 2822 3475 
Q 2822 3834 2567 4026 
Q 2313 4219 1838 4219 
Q 1578 4219 1281 4162 
Q 984 4106 628 3988 
L 628 4550 
Q 988 4650 1302 4700 
Q 1616 4750 1894 4750 
Q 2613 4750 3031 4423 
Q 3450 4097 3450 3541 
Q 3450 3153 3228 2886 
Q 3006 2619 2597 2516 
z
" transform="scale(0.015625)"/>
      </defs>
      <use xlink:href="#DejaVuSans-Oblique-3b3" transform="translate(0 0.78125)"/>
      <use xlink:href="#DejaVuSans-3d" transform="translate(78.662109 0.78125)"/>
      <use xlink:href="#DejaVuSans-30" transform="translate(181.933594 0.78125)"/>
      <use xlink:href="#DejaVuSans-2e" transform="translate(245.556641 0.78125)"/>
      <use xlink:href="#DejaVuSans-33" transform="translate(277.34375 0.78125)"/>
      <use xlink:href="#DejaVuSans-30" transform="translate(340.966797 0.78125)"/>
     </g>
    </g>
    <g id="line2d_66">
     <path d="M 35.89 424.5195 
L 41.89 424.5195 
L 47.89 424.5195 
" style="fill: none; stroke: #ff7f0e; stroke-width: 1.5; stroke-linecap: square"/>
    </g>
    <g id="text_58">
     <!-- Triple Exponential MA -->
     <g transform="translate(52.69 426.6195) scale(0.06 -0.06)">
      <defs>
       <path id="DejaVuSans-54" d="M -19 4666 
L 3928 4666 
L 3928 4134 
L 2272 4134 
L 2272 0 
L 1638 0 
L 1638 4134 
L -19 4134 
L -19 4666 
z
" transform="scale(0.015625)"/>
      </defs>
      <use xlink:href="#DejaVuSans-54"/>
      <use xlink:href="#DejaVuSans-72" transform="translate(46.333984 0)"/>
      <use xlink:href="#DejaVuSans-69" transform="translate(87.447266 0)"/>
      <use xlink:href="#DejaVuSans-70" transform="translate(115.230469 0)"/>
      <use xlink:href="#DejaVuSans-6c" transform="translate(178.707031 0)"/>
      <use xlink:href="#DejaVuSans-65" transform="translate(206.490234 0)"/>
      <use xlink:href="#DejaVuSans-20" transform="translate(268.013672 0)"/>
      <use xlink:href="#DejaVuSans-45" transform="translate(299.800781 0)"/>
      <use xlink:href="#DejaVuSans-78" transform="translate(362.984375 0)"/>
      <use xlink:href="#DejaVuSans-70" transform="translate(422.164062 0)"/>
      <use xlink:href="#DejaVuSans-6f" transform="translate(485.640625 0)"/>
      <use xlink:href="#DejaVuSans-6e" transform="translate(546.822266 0)"/>
      <use xlink:href="#DejaVuSans-65" transform="translate(610.201172 0)"/>
      <use xlink:href="#DejaVuSans-6e" transform="translate(671.724609 0)"/>
      <use xlink:href="#DejaVuSans-74" transform="translate(735.103516 0)"/>
      <use xlink:href="#DejaVuSans-69" transform="translate(774.3125 0)"/>
      <use xlink:href="#DejaVuSans-61" transform="translate(802.095703 0)"/>
      <use xlink:href="#DejaVuSans-6c" transform="translate(863.375 0)"/>
      <use xlink:href="#DejaVuSans-20" transform="translate(891.158203 0)"/>
      <use xlink:href="#DejaVuSans-4d" transform="translate(922.945312 0)"/>
      <use xlink:href="#DejaVuSans-41" transform="translate(1009.224609 0)"/>
     </g>
    </g>
   </g>
  </g>
  <g id="axes_6">
   <g id="patch_32">
    <path d="M 567.825724 548.12 
L 1066.301447 548.12 
L 1066.301447 387.6 
L 567.825724 387.6 
z
" style="fill: #ffffff"/>
   </g>
   <g id="matplotlib.axis_11">
    <g id="xtick_30">
     <g id="line2d_67">
      <g>
       <use xlink:href="#m1db50d03fd" x="617.457506" y="548.12" style="stroke: #000000; stroke-width: 0.8"/>
      </g>
     </g>
     <g id="text_59">
      <!-- 20 -->
      <g transform="translate(611.095006 562.718437) scale(0.1 -0.1)">
       <use xlink:href="#DejaVuSans-32"/>
       <use xlink:href="#DejaVuSans-30" transform="translate(63.623047 0)"/>
      </g>
     </g>
    </g>
    <g id="xtick_31">
     <g id="line2d_68">
      <g>
       <use xlink:href="#m1db50d03fd" x="725.352684" y="548.12" style="stroke: #000000; stroke-width: 0.8"/>
      </g>
     </g>
     <g id="text_60">
      <!-- 40 -->
      <g transform="translate(718.990184 562.718437) scale(0.1 -0.1)">
       <use xlink:href="#DejaVuSans-34"/>
       <use xlink:href="#DejaVuSans-30" transform="translate(63.623047 0)"/>
      </g>
     </g>
    </g>
    <g id="xtick_32">
     <g id="line2d_69">
      <g>
       <use xlink:href="#m1db50d03fd" x="833.247862" y="548.12" style="stroke: #000000; stroke-width: 0.8"/>
      </g>
     </g>
     <g id="text_61">
      <!-- 60 -->
      <g transform="translate(826.885362 562.718437) scale(0.1 -0.1)">
       <use xlink:href="#DejaVuSans-36"/>
       <use xlink:href="#DejaVuSans-30" transform="translate(63.623047 0)"/>
      </g>
     </g>
    </g>
    <g id="xtick_33">
     <g id="line2d_70">
      <g>
       <use xlink:href="#m1db50d03fd" x="941.14304" y="548.12" style="stroke: #000000; stroke-width: 0.8"/>
      </g>
     </g>
     <g id="text_62">
      <!-- 80 -->
      <g transform="translate(934.78054 562.718437) scale(0.1 -0.1)">
       <use xlink:href="#DejaVuSans-38"/>
       <use xlink:href="#DejaVuSans-30" transform="translate(63.623047 0)"/>
      </g>
     </g>
    </g>
    <g id="xtick_34">
     <g id="line2d_71">
      <g>
       <use xlink:href="#m1db50d03fd" x="1049.038219" y="548.12" style="stroke: #000000; stroke-width: 0.8"/>
      </g>
     </g>
     <g id="text_63">
      <!-- 100 -->
      <g transform="translate(1039.494469 562.718437) scale(0.1 -0.1)">
       <use xlink:href="#DejaVuSans-31"/>
       <use xlink:href="#DejaVuSans-30" transform="translate(63.623047 0)"/>
       <use xlink:href="#DejaVuSans-30" transform="translate(127.246094 0)"/>
      </g>
     </g>
    </g>
   </g>
   <g id="matplotlib.axis_12">
    <g id="ytick_22">
     <g id="line2d_72">
      <g>
       <use xlink:href="#m64ed14e1b2" x="567.825724" y="524.378824" style="stroke: #000000; stroke-width: 0.8"/>
      </g>
     </g>
     <g id="text_64">
      <!-- −10 -->
      <g transform="translate(539.721036 528.178042) scale(0.1 -0.1)">
       <use xlink:href="#DejaVuSans-2212"/>
       <use xlink:href="#DejaVuSans-31" transform="translate(83.789062 0)"/>
       <use xlink:href="#DejaVuSans-30" transform="translate(147.412109 0)"/>
      </g>
     </g>
    </g>
    <g id="ytick_23">
     <g id="line2d_73">
      <g>
       <use xlink:href="#m64ed14e1b2" x="567.825724" y="499.773545" style="stroke: #000000; stroke-width: 0.8"/>
      </g>
     </g>
     <g id="text_65">
      <!-- −5 -->
      <g transform="translate(546.083536 503.572764) scale(0.1 -0.1)">
       <defs>
        <path id="DejaVuSans-35" d="M 691 4666 
L 3169 4666 
L 3169 4134 
L 1269 4134 
L 1269 2991 
Q 1406 3038 1543 3061 
Q 1681 3084 1819 3084 
Q 2600 3084 3056 2656 
Q 3513 2228 3513 1497 
Q 3513 744 3044 326 
Q 2575 -91 1722 -91 
Q 1428 -91 1123 -41 
Q 819 9 494 109 
L 494 744 
Q 775 591 1075 516 
Q 1375 441 1709 441 
Q 2250 441 2565 725 
Q 2881 1009 2881 1497 
Q 2881 1984 2565 2268 
Q 2250 2553 1709 2553 
Q 1456 2553 1204 2497 
Q 953 2441 691 2322 
L 691 4666 
z
" transform="scale(0.015625)"/>
       </defs>
       <use xlink:href="#DejaVuSans-2212"/>
       <use xlink:href="#DejaVuSans-35" transform="translate(83.789062 0)"/>
      </g>
     </g>
    </g>
    <g id="ytick_24">
     <g id="line2d_74">
      <g>
       <use xlink:href="#m64ed14e1b2" x="567.825724" y="475.168266" style="stroke: #000000; stroke-width: 0.8"/>
      </g>
     </g>
     <g id="text_66">
      <!-- 0 -->
      <g transform="translate(554.463224 478.967485) scale(0.1 -0.1)">
       <use xlink:href="#DejaVuSans-30"/>
      </g>
     </g>
    </g>
    <g id="ytick_25">
     <g id="line2d_75">
      <g>
       <use xlink:href="#m64ed14e1b2" x="567.825724" y="450.562987" style="stroke: #000000; stroke-width: 0.8"/>
      </g>
     </g>
     <g id="text_67">
      <!-- 5 -->
      <g transform="translate(554.463224 454.362206) scale(0.1 -0.1)">
       <use xlink:href="#DejaVuSans-35"/>
      </g>
     </g>
    </g>
    <g id="ytick_26">
     <g id="line2d_76">
      <g>
       <use xlink:href="#m64ed14e1b2" x="567.825724" y="425.957708" style="stroke: #000000; stroke-width: 0.8"/>
      </g>
     </g>
     <g id="text_68">
      <!-- 10 -->
      <g transform="translate(548.100724 429.756927) scale(0.1 -0.1)">
       <use xlink:href="#DejaVuSans-31"/>
       <use xlink:href="#DejaVuSans-30" transform="translate(63.623047 0)"/>
      </g>
     </g>
    </g>
    <g id="ytick_27">
     <g id="line2d_77">
      <g>
       <use xlink:href="#m64ed14e1b2" x="567.825724" y="401.35243" style="stroke: #000000; stroke-width: 0.8"/>
      </g>
     </g>
     <g id="text_69">
      <!-- 15 -->
      <g transform="translate(548.100724 405.151648) scale(0.1 -0.1)">
       <use xlink:href="#DejaVuSans-31"/>
       <use xlink:href="#DejaVuSans-35" transform="translate(63.623047 0)"/>
      </g>
     </g>
    </g>
   </g>
   <g id="line2d_78">
    <path d="M 590.483711 443.348731 
L 595.87847 421.867845 
L 601.273229 474.244901 
L 606.667988 508.417281 
L 612.062747 503.13505 
L 617.457506 448.829049 
L 622.852264 507.426643 
L 628.247023 419.066823 
L 633.641782 423.563069 
L 639.036541 514.235416 
L 644.4313 470.269489 
L 649.826059 526.015369 
L 655.220818 534.929797 
L 660.615577 482.791324 
L 666.010336 482.931312 
L 671.405095 464.641931 
L 676.799854 453.13244 
L 682.194613 458.59319 
L 687.589371 526.824676 
L 692.98413 516.038526 
L 698.378889 448.979065 
L 703.773648 511.234449 
L 709.168407 526.850485 
L 714.563166 467.712532 
L 719.957925 476.852481 
L 725.352684 449.627042 
L 730.747443 398.947665 
L 736.142202 494.190425 
L 741.536961 480.60454 
L 746.931719 440.871851 
L 752.326478 479.579241 
L 757.721237 456.0203 
L 763.115996 466.395318 
L 768.510755 434.065173 
L 773.905514 501.465496 
L 779.300273 485.42978 
L 784.695032 502.386605 
L 790.089791 491.695305 
L 795.48455 513.41468 
L 800.879309 454.808417 
L 806.274068 435.747132 
L 811.668826 470.431537 
L 817.063585 522.81964 
L 822.458344 480.354168 
L 827.853103 489.593399 
L 833.247862 471.604568 
L 838.642621 462.646173 
L 844.03738 450.156367 
L 849.432139 407.84866 
L 854.826898 438.753929 
L 860.221657 514.44916 
L 865.616416 484.803906 
L 871.011174 466.218037 
L 876.405933 444.910908 
L 881.800692 477.20213 
L 887.195451 394.896364 
L 892.59021 432.588134 
L 897.984969 479.918595 
L 903.379728 449.888645 
L 908.774487 480.793485 
L 914.169246 457.51435 
L 919.564005 470.954622 
L 924.958764 462.24317 
L 930.353523 463.506014 
L 935.748281 434.199546 
L 941.14304 453.006118 
L 946.537799 468.94343 
L 951.932558 489.198966 
L 957.327317 482.159418 
L 962.722076 461.3755 
L 968.116835 490.830357 
L 973.511594 486.692093 
L 978.906353 466.240621 
L 984.301112 485.171743 
L 989.695871 540.823636 
L 995.090629 472.026656 
L 1000.485388 441.150843 
L 1005.880147 476.081727 
L 1011.274906 509.774044 
L 1016.669665 472.27196 
L 1022.064424 464.548624 
L 1027.459183 438.229635 
L 1032.853942 430.747351 
L 1038.248701 452.612173 
L 1043.64346 487.735325 
" clip-path="url(#pf9dd09c89f)" style="fill: none; stroke: #1f77b4; stroke-width: 1.5; stroke-linecap: square"/>
   </g>
   <g id="patch_33">
    <path d="M 567.825724 548.12 
L 567.825724 387.6 
" style="fill: none; stroke: #000000; stroke-width: 0.8; stroke-linejoin: miter; stroke-linecap: square"/>
   </g>
   <g id="patch_34">
    <path d="M 1066.301447 548.12 
L 1066.301447 387.6 
" style="fill: none; stroke: #000000; stroke-width: 0.8; stroke-linejoin: miter; stroke-linecap: square"/>
   </g>
   <g id="patch_35">
    <path d="M 567.825724 548.12 
L 1066.301447 548.12 
" style="fill: none; stroke: #000000; stroke-width: 0.8; stroke-linejoin: miter; stroke-linecap: square"/>
   </g>
   <g id="patch_36">
    <path d="M 567.825724 387.6 
L 1066.301447 387.6 
" style="fill: none; stroke: #000000; stroke-width: 0.8; stroke-linejoin: miter; stroke-linecap: square"/>
   </g>
   <g id="legend_6">
    <g id="patch_37">
     <path d="M 1013.513977 406.490878 
L 1060.470447 406.490878 
Q 1062.136447 406.490878 1062.136447 404.824878 
L 1062.136447 393.431 
Q 1062.136447 391.765 1060.470447 391.765 
L 1013.513977 391.765 
Q 1011.847977 391.765 1011.847977 393.431 
L 1011.847977 404.824878 
Q 1011.847977 406.490878 1013.513977 406.490878 
z
" style="fill: #ffffff; opacity: 0.8; stroke: #cccccc; stroke-linejoin: miter"/>
    </g>
    <g id="line2d_79">
     <path d="M 1015.179977 398.510998 
L 1023.509977 398.510998 
L 1031.839977 398.510998 
" style="fill: none; stroke: #1f77b4; stroke-width: 1.5; stroke-linecap: square"/>
    </g>
    <g id="text_70">
     <!-- Error -->
     <g transform="translate(1038.503977 401.426498) scale(0.0833 -0.0833)">
      <use xlink:href="#DejaVuSans-45"/>
      <use xlink:href="#DejaVuSans-72" transform="translate(63.183594 0)"/>
      <use xlink:href="#DejaVuSans-72" transform="translate(102.546875 0)"/>
      <use xlink:href="#DejaVuSans-6f" transform="translate(141.410156 0)"/>
      <use xlink:href="#DejaVuSans-72" transform="translate(202.591797 0)"/>
     </g>
    </g>
   </g>
  </g>
 </g>
 <defs>
  <clipPath id="p70cabb4124">
   <rect x="30.49" y="10.8" width="498.475724" height="160.52"/>
  </clipPath>
  <clipPath id="pd1b1cb8070">
   <rect x="567.825724" y="10.8" width="498.475724" height="160.52"/>
  </clipPath>
  <clipPath id="pb14b547af0">
   <rect x="30.49" y="199.2" width="498.475724" height="160.52"/>
  </clipPath>
  <clipPath id="p7251c57b74">
   <rect x="567.825724" y="199.2" width="498.475724" height="160.52"/>
  </clipPath>
  <clipPath id="p8a36c8b3db">
   <rect x="30.49" y="387.6" width="498.475724" height="160.52"/>
  </clipPath>
  <clipPath id="pf9dd09c89f">
   <rect x="567.825724" y="387.6" width="498.475724" height="160.52"/>
  </clipPath>
 </defs>
</svg>
