<?xml version="1.0" encoding="utf-8" standalone="no"?>
<!DOCTYPE svg PUBLIC "-//W3C//DTD SVG 1.1//EN"
  "http://www.w3.org/Graphics/SVG/1.1/DTD/svg11.dtd">
<svg xmlns:xlink="http://www.w3.org/1999/xlink" width="1080pt" height="576pt" viewBox="0 0 1080 576" xmlns="http://www.w3.org/2000/svg" version="1.1">
 <metadata>
  <rdf:RDF xmlns:dc="http://purl.org/dc/elements/1.1/" xmlns:cc="http://creativecommons.org/ns#" xmlns:rdf="http://www.w3.org/1999/02/22-rdf-syntax-ns#">
   <cc:Work>
    <dc:type rdf:resource="http://purl.org/dc/dcmitype/StillImage"/>
    <dc:date>2025-12-16T21:37:25.414539</dc:date>
    <dc:format>image/svg+xml</dc:format>
    <dc:creator>
     <cc:Agent>
      <dc:title>Matplotlib v3.10.8, https://matplotlib.org/</dc:title>
     </cc:Agent>
    </dc:creator>
   </cc:Work>
  </rdf:RDF>
 </metadata>
 <defs>
  <style type="text/css">*{stroke-linejoin: round; stroke-linecap: butt}</style>
 </defs>
 <g id="figure_1">
  <g id="patch_1">
   <path d="M 0 576 
L 1080 576 
L 1080 0 
L 0 0 
z
" style="fill: #ffffff"/>
  </g>
  <g id="axes_1">
   <g id="patch_2">
    <path d="M 135 199.567059 
L 515.454545 199.567059 
L 515.454545 69.12 
L 135 69.12 
z
" style="fill: #ffffff"/>
   </g>
   <g id="matplotlib.axis_1">
    <g id="xtick_1">
     <g id="line2d_1">
      <defs>
       <path id="mc08c6d7d8c" d="M 0 0 
L 0 3.5 
" style="stroke: #000000; stroke-width: 0.8"/>
      </defs>
      <g>
       <use xlink:href="#mc08c6d7d8c" x="152.293388" y="199.567059" style="stroke: #000000; stroke-width: 0.8"/>
      </g>
     </g>
     <g id="text_1">
      <!-- 0 -->
      <g transform="translate(149.112138 214.165496) scale(0.1 -0.1)">
       <defs>
        <path id="DejaVuSans-30" d="M 2034 4250 
Q 1547 4250 1301 3770 
Q 1056 3291 1056 2328 
Q 1056 1369 1301 889 
Q 1547 409 2034 409 
Q 2525 409 2770 889 
Q 3016 1369 3016 2328 
Q 3016 3291 2770 3770 
Q 2525 4250 2034 4250 
z
M 2034 4750 
Q 2819 4750 3233 4129 
Q 3647 3509 3647 2328 
Q 3647 1150 3233 529 
Q 2819 -91 2034 -91 
Q 1250 -91 836 529 
Q 422 1150 422 2328 
Q 422 3509 836 4129 
Q 1250 4750 2034 4750 
z
" transform="scale(0.015625)"/>
       </defs>
       <use xlink:href="#DejaVuSans-30"/>
      </g>
     </g>
    </g>
    <g id="xtick_2">
     <g id="line2d_2">
      <g>
       <use xlink:href="#mc08c6d7d8c" x="222.165665" y="199.567059" style="stroke: #000000; stroke-width: 0.8"/>
      </g>
     </g>
     <g id="text_2">
      <!-- 20 -->
      <g transform="translate(215.803165 214.165496) scale(0.1 -0.1)">
       <defs>
        <path id="DejaVuSans-32" d="M 1228 531 
L 3431 531 
L 3431 0 
L 469 0 
L 469 531 
Q 828 903 1448 1529 
Q 2069 2156 2228 2338 
Q 2531 2678 2651 2914 
Q 2772 3150 2772 3378 
Q 2772 3750 2511 3984 
Q 2250 4219 1831 4219 
Q 1534 4219 1204 4116 
Q 875 4013 500 3803 
L 500 4441 
Q 881 4594 1212 4672 
Q 1544 4750 1819 4750 
Q 2544 4750 2975 4387 
Q 3406 4025 3406 3419 
Q 3406 3131 3298 2873 
Q 3191 2616 2906 2266 
Q 2828 2175 2409 1742 
Q 1991 1309 1228 531 
z
" transform="scale(0.015625)"/>
       </defs>
       <use xlink:href="#DejaVuSans-32"/>
       <use xlink:href="#DejaVuSans-30" transform="translate(63.623047 0)"/>
      </g>
     </g>
    </g>
    <g id="xtick_3">
     <g id="line2d_3">
      <g>
       <use xlink:href="#mc08c6d7d8c" x="292.037941" y="199.567059" style="stroke: #000000; stroke-width: 0.8"/>
      </g>
     </g>
     <g id="text_3">
      <!-- 40 -->
      <g transform="translate(285.675441 214.165496) scale(0.1 -0.1)">
       <defs>
        <path id="DejaVuSans-34" d="M 2419 4116 
L 825 1625 
L 2419 1625 
L 2419 4116 
z
M 2253 4666 
L 3047 4666 
L 3047 1625 
L 3713 1625 
L 3713 1100 
L 3047 1100 
L 3047 0 
L 2419 0 
L 2419 1100 
L 313 1100 
L 313 1709 
L 2253 4666 
z
" transform="scale(0.015625)"/>
       </defs>
       <use xlink:href="#DejaVuSans-34"/>
       <use xlink:href="#DejaVuSans-30" transform="translate(63.623047 0)"/>
      </g>
     </g>
    </g>
    <g id="xtick_4">
     <g id="line2d_4">
      <g>
       <use xlink:href="#mc08c6d7d8c" x="361.910218" y="199.567059" style="stroke: #000000; stroke-width: 0.8"/>
      </g>
     </g>
     <g id="text_4">
      <!-- 60 -->
      <g transform="translate(355.547718 214.165496) scale(0.1 -0.1)">
       <defs>
        <path id="DejaVuSans-36" d="M 2113 2584 
Q 1688 2584 1439 2293 
Q 1191 2003 1191 1497 
Q 1191 994 1439 701 
Q 1688 409 2113 409 
Q 2538 409 2786 701 
Q 3034 994 3034 1497 
Q 3034 2003 2786 2293 
Q 2538 2584 2113 2584 
z
M 3366 4563 
L 3366 3988 
Q 3128 4100 2886 4159 
Q 2644 4219 2406 4219 
Q 1781 4219 1451 3797 
Q 1122 3375 1075 2522 
Q 1259 2794 1537 2939 
Q 1816 3084 2150 3084 
Q 2853 3084 3261 2657 
Q 3669 2231 3669 1497 
Q 3669 778 3244 343 
Q 2819 -91 2113 -91 
Q 1303 -91 875 529 
Q 447 1150 447 2328 
Q 447 3434 972 4092 
Q 1497 4750 2381 4750 
Q 2619 4750 2861 4703 
Q 3103 4656 3366 4563 
z
" transform="scale(0.015625)"/>
       </defs>
       <use xlink:href="#DejaVuSans-36"/>
       <use xlink:href="#DejaVuSans-30" transform="translate(63.623047 0)"/>
      </g>
     </g>
    </g>
    <g id="xtick_5">
     <g id="line2d_5">
      <g>
       <use xlink:href="#mc08c6d7d8c" x="431.782494" y="199.567059" style="stroke: #000000; stroke-width: 0.8"/>
      </g>
     </g>
     <g id="text_5">
      <!-- 80 -->
      <g transform="translate(425.419994 214.165496) scale(0.1 -0.1)">
       <defs>
        <path id="DejaVuSans-38" d="M 2034 2216 
Q 1584 2216 1326 1975 
Q 1069 1734 1069 1313 
Q 1069 891 1326 650 
Q 1584 409 2034 409 
Q 2484 409 2743 651 
Q 3003 894 3003 1313 
Q 3003 1734 2745 1975 
Q 2488 2216 2034 2216 
z
M 1403 2484 
Q 997 2584 770 2862 
Q 544 3141 544 3541 
Q 544 4100 942 4425 
Q 1341 4750 2034 4750 
Q 2731 4750 3128 4425 
Q 3525 4100 3525 3541 
Q 3525 3141 3298 2862 
Q 3072 2584 2669 2484 
Q 3125 2378 3379 2068 
Q 3634 1759 3634 1313 
Q 3634 634 3220 271 
Q 2806 -91 2034 -91 
Q 1263 -91 848 271 
Q 434 634 434 1313 
Q 434 1759 690 2068 
Q 947 2378 1403 2484 
z
M 1172 3481 
Q 1172 3119 1398 2916 
Q 1625 2713 2034 2713 
Q 2441 2713 2670 2916 
Q 2900 3119 2900 3481 
Q 2900 3844 2670 4047 
Q 2441 4250 2034 4250 
Q 1625 4250 1398 4047 
Q 1172 3844 1172 3481 
z
" transform="scale(0.015625)"/>
       </defs>
       <use xlink:href="#DejaVuSans-38"/>
       <use xlink:href="#DejaVuSans-30" transform="translate(63.623047 0)"/>
      </g>
     </g>
    </g>
    <g id="xtick_6">
     <g id="line2d_6">
      <g>
       <use xlink:href="#mc08c6d7d8c" x="501.654771" y="199.567059" style="stroke: #000000; stroke-width: 0.8"/>
      </g>
     </g>
     <g id="text_6">
      <!-- 100 -->
      <g transform="translate(492.111021 214.165496) scale(0.1 -0.1)">
       <defs>
        <path id="DejaVuSans-31" d="M 794 531 
L 1825 531 
L 1825 4091 
L 703 3866 
L 703 4441 
L 1819 4666 
L 2450 4666 
L 2450 531 
L 3481 531 
L 3481 0 
L 794 0 
L 794 531 
z
" transform="scale(0.015625)"/>
       </defs>
       <use xlink:href="#DejaVuSans-31"/>
       <use xlink:href="#DejaVuSans-30" transform="translate(63.623047 0)"/>
       <use xlink:href="#DejaVuSans-30" transform="translate(127.246094 0)"/>
      </g>
     </g>
    </g>
   </g>
   <g id="matplotlib.axis_2">
    <g id="ytick_1">
     <g id="line2d_7">
      <defs>
       <path id="m50d34a51b7" d="M 0 0 
L -3.5 0 
" style="stroke: #000000; stroke-width: 0.8"/>
      </defs>
      <g>
       <use xlink:href="#m50d34a51b7" x="135" y="180.376261" style="stroke: #000000; stroke-width: 0.8"/>
      </g>
     </g>
     <g id="text_7">
      <!-- 0 -->
      <g transform="translate(121.6375 184.17548) scale(0.1 -0.1)">
       <use xlink:href="#DejaVuSans-30"/>
      </g>
     </g>
    </g>
    <g id="ytick_2">
     <g id="line2d_8">
      <g>
       <use xlink:href="#m50d34a51b7" x="135" y="150.505566" style="stroke: #000000; stroke-width: 0.8"/>
      </g>
     </g>
     <g id="text_8">
      <!-- 20 -->
      <g transform="translate(115.275 154.304785) scale(0.1 -0.1)">
       <use xlink:href="#DejaVuSans-32"/>
       <use xlink:href="#DejaVuSans-30" transform="translate(63.623047 0)"/>
      </g>
     </g>
    </g>
    <g id="ytick_3">
     <g id="line2d_9">
      <g>
       <use xlink:href="#m50d34a51b7" x="135" y="120.634872" style="stroke: #000000; stroke-width: 0.8"/>
      </g>
     </g>
     <g id="text_9">
      <!-- 40 -->
      <g transform="translate(115.275 124.434091) scale(0.1 -0.1)">
       <use xlink:href="#DejaVuSans-34"/>
       <use xlink:href="#DejaVuSans-30" transform="translate(63.623047 0)"/>
      </g>
     </g>
    </g>
    <g id="ytick_4">
     <g id="line2d_10">
      <g>
       <use xlink:href="#m50d34a51b7" x="135" y="90.764177" style="stroke: #000000; stroke-width: 0.8"/>
      </g>
     </g>
     <g id="text_10">
      <!-- 60 -->
      <g transform="translate(115.275 94.563396) scale(0.1 -0.1)">
       <use xlink:href="#DejaVuSans-36"/>
       <use xlink:href="#DejaVuSans-30" transform="translate(63.623047 0)"/>
      </g>
     </g>
    </g>
   </g>
   <g id="line2d_11">
    <path d="M 152.293388 174.485021 
L 155.787002 170.022165 
L 159.280616 163.726286 
L 162.77423 174.024907 
L 166.267844 174.110791 
L 169.761458 177.972698 
L 173.255071 166.931704 
L 176.748685 161.309159 
L 180.242299 170.750117 
L 183.735913 193.637647 
L 187.229527 167.316446 
L 190.72314 177.557649 
L 194.216754 177.682736 
L 197.710368 174.781147 
L 201.203982 179.063355 
L 204.697596 168.210583 
L 208.19121 163.84548 
L 211.684823 173.145406 
L 215.178437 183.562084 
L 218.672051 165.96099 
L 222.165665 192.610335 
L 225.659279 159.974174 
L 229.152893 160.032857 
L 232.646506 168.061201 
L 236.14012 187.509976 
L 239.633734 164.6072 
L 243.127348 170.64849 
L 246.620962 162.956541 
L 250.114576 160.931022 
L 253.608189 186.682764 
L 257.101803 161.879195 
L 260.595417 141.411067 
L 264.089031 172.199305 
L 267.582645 154.867335 
L 271.076258 163.010994 
L 274.569872 179.908272 
L 278.063486 135.138154 
L 281.5571 139.836458 
L 285.050714 169.957649 
L 288.544328 172.987668 
L 292.037941 148.493971 
L 295.531555 171.946615 
L 299.025169 155.843797 
L 302.518783 160.284684 
L 306.012397 166.974146 
L 309.506011 161.743603 
L 312.999624 130.502098 
L 316.493238 157.473021 
L 319.986852 160.896964 
L 323.480466 168.127215 
L 326.97408 153.949097 
L 330.467693 140.549047 
L 333.961307 136.205017 
L 337.454921 152.652014 
L 340.948535 156.694323 
L 344.442149 148.409495 
L 347.935763 131.5187 
L 351.429376 145.11392 
L 354.92299 138.713213 
L 358.416604 155.396342 
L 361.910218 153.183186 
L 365.403832 128.278187 
L 368.897446 135.515161 
L 372.391059 149.482385 
L 375.884673 136.977202 
L 379.378287 137.590367 
L 382.871901 129.540523 
L 386.365515 142.76965 
L 389.859128 127.581701 
L 393.352742 148.721228 
L 396.846356 126.256918 
L 400.33997 131.909037 
L 403.833584 144.000414 
L 407.327198 140.565825 
L 410.820811 137.296395 
L 414.314425 118.74993 
L 417.808039 108.554355 
L 421.301653 128.167301 
L 424.795267 125.378399 
L 428.288881 116.789995 
L 431.782494 126.422598 
L 435.276108 113.204879 
L 438.769722 106.189653 
L 442.263336 114.752508 
L 445.75695 107.188004 
L 449.250563 116.349857 
L 452.744177 102.312642 
L 456.237791 103.433097 
L 459.731405 88.236144 
L 463.225019 118.468078 
L 466.718633 112.386176 
L 470.212246 95.229252 
L 473.70586 108.349688 
L 477.199474 110.895285 
L 480.693088 94.826643 
L 484.186702 101.220282 
L 487.680316 93.166324 
L 491.173929 75.049412 
L 494.667543 90.94048 
L 498.161157 96.440269 
" clip-path="url(#pafefea49a8)" style="fill: none; stroke: #1f77b4; stroke-width: 1.5; stroke-linecap: square"/>
   </g>
   <g id="line2d_12">
    <path d="M 155.787002 174.485021 
L 159.280616 173.335948 
L 162.77423 170.861703 
L 166.267844 171.676148 
L 169.761458 172.303007 
L 173.255071 173.762809 
L 176.748685 172.003972 
L 180.242299 169.250328 
L 183.735913 169.636486 
L 187.229527 175.816179 
L 190.72314 173.627712 
L 194.216754 174.639572 
L 197.710368 175.42311 
L 201.203982 175.257821 
L 204.697596 176.23765 
L 208.19121 174.170883 
L 211.684823 171.512352 
L 215.178437 171.932822 
L 218.672051 174.927064 
L 222.165665 172.618526 
L 225.659279 177.765912 
L 229.152893 173.184989 
L 232.646506 169.798647 
L 236.14012 169.351299 
L 239.633734 174.0267 
L 243.127348 171.601416 
L 246.620962 171.356062 
L 250.114576 169.193397 
L 253.608189 167.066044 
L 257.101803 172.116854 
L 260.595417 169.480915 
L 264.089031 162.253638 
L 267.582645 164.814396 
L 271.076258 162.253279 
L 274.569872 162.448372 
L 278.063486 166.943855 
L 281.5571 158.75469 
L 285.050714 153.883723 
L 288.544328 158.022353 
L 292.037941 161.875544 
L 295.531555 158.430127 
L 299.025169 161.910281 
L 302.518783 160.348315 
L 306.012397 160.331931 
L 309.506011 162.042134 
L 312.999624 161.96527 
L 316.493238 153.864297 
L 319.986852 154.793453 
L 323.480466 156.364953 
L 326.97408 159.393438 
L 330.467693 157.991658 
L 333.961307 153.500626 
L 337.454921 149.047443 
L 340.948535 149.975529 
L 344.442149 151.705449 
L 347.935763 150.856824 
L 351.429376 145.877745 
L 354.92299 145.68108 
L 358.416604 143.88703 
L 361.910218 146.850387 
L 365.403832 148.480923 
L 368.897446 143.279228 
L 372.391059 141.280177 
L 375.884673 143.392039 
L 379.378287 141.74038 
L 382.871901 140.671857 
L 386.365515 137.805819 
L 389.859128 139.08388 
L 393.352742 136.12236 
L 396.846356 139.36625 
L 400.33997 135.990928 
L 403.833584 134.939944 
L 407.327198 137.272786 
L 410.820811 138.120661 
L 414.314425 137.908433 
L 417.808039 132.975602 
L 421.301653 126.687748 
L 424.795267 127.068695 
L 428.288881 126.633487 
L 431.782494 124.099036 
L 435.276108 124.697295 
L 438.769722 121.738288 
L 442.263336 117.734907 
L 445.75695 116.967014 
L 449.250563 114.449166 
L 452.744177 114.938546 
L 456.237791 111.687695 
L 459.731405 109.562344 
L 463.225019 104.071386 
L 466.718633 107.778171 
L 470.212246 108.964616 
L 473.70586 105.428106 
L 477.199474 106.18034 
L 480.693088 107.394319 
L 484.186702 104.15846 
L 487.680316 103.401953 
L 491.173929 100.766537 
L 494.667543 94.145027 
L 498.161157 93.319937 
" clip-path="url(#pafefea49a8)" style="fill: none; stroke: #ff7f0e; stroke-width: 1.5; stroke-linecap: square"/>
   </g>
   <g id="patch_3">
    <path d="M 135 199.567059 
L 135 69.12 
" style="fill: none; stroke: #000000; stroke-width: 0.8; stroke-linejoin: miter; stroke-linecap: square"/>
   </g>
   <g id="patch_4">
    <path d="M 515.454545 199.567059 
L 515.454545 69.12 
" style="fill: none; stroke: #000000; stroke-width: 0.8; stroke-linejoin: miter; stroke-linecap: square"/>
   </g>
   <g id="patch_5">
    <path d="M 135 199.567059 
L 515.454545 199.567059 
" style="fill: none; stroke: #000000; stroke-width: 0.8; stroke-linejoin: miter; stroke-linecap: square"/>
   </g>
   <g id="patch_6">
    <path d="M 135 69.12 
L 515.454545 69.12 
" style="fill: none; stroke: #000000; stroke-width: 0.8; stroke-linejoin: miter; stroke-linecap: square"/>
   </g>
   <g id="legend_1">
    <g id="patch_7">
     <path d="M 140.831 109.565534 
L 294.348995 109.565534 
Q 296.014995 109.565534 296.014995 107.899534 
L 296.014995 74.951 
Q 296.014995 73.285 294.348995 73.285 
L 140.831 73.285 
Q 139.165 73.285 139.165 74.951 
L 139.165 107.899534 
Q 139.165 109.565534 140.831 109.565534 
z
" style="fill: #ffffff; opacity: 0.8; stroke: #cccccc; stroke-linejoin: miter"/>
    </g>
    <g id="line2d_13">
     <path d="M 142.497 85.561077 
L 150.827 85.561077 
L 159.157 85.561077 
" style="fill: none; stroke: #1f77b4; stroke-width: 1.5; stroke-linecap: square"/>
    </g>
    <g id="text_11">
     <!-- Noisy series -->
     <g transform="translate(165.821 82.946498) scale(0.0833 -0.0833)">
      <defs>
       <path id="DejaVuSans-4e" d="M 628 4666 
L 1478 4666 
L 3547 763 
L 3547 4666 
L 4159 4666 
L 4159 0 
L 3309 0 
L 1241 3903 
L 1241 0 
L 628 0 
L 628 4666 
z
" transform="scale(0.015625)"/>
       <path id="DejaVuSans-6f" d="M 1959 3097 
Q 1497 3097 1228 2736 
Q 959 2375 959 1747 
Q 959 1119 1226 758 
Q 1494 397 1959 397 
Q 2419 397 2687 759 
Q 2956 1122 2956 1747 
Q 2956 2369 2687 2733 
Q 2419 3097 1959 3097 
z
M 1959 3584 
Q 2709 3584 3137 3096 
Q 3566 2609 3566 1747 
Q 3566 888 3137 398 
Q 2709 -91 1959 -91 
Q 1206 -91 779 398 
Q 353 888 353 1747 
Q 353 2609 779 3096 
Q 1206 3584 1959 3584 
z
" transform="scale(0.015625)"/>
       <path id="DejaVuSans-69" d="M 603 3500 
L 1178 3500 
L 1178 0 
L 603 0 
L 603 3500 
z
M 603 4863 
L 1178 4863 
L 1178 4134 
L 603 4134 
L 603 4863 
z
" transform="scale(0.015625)"/>
       <path id="DejaVuSans-73" d="M 2834 3397 
L 2834 2853 
Q 2591 2978 2328 3040 
Q 2066 3103 1784 3103 
Q 1356 3103 1142 2972 
Q 928 2841 928 2578 
Q 928 2378 1081 2264 
Q 1234 2150 1697 2047 
L 1894 2003 
Q 2506 1872 2764 1633 
Q 3022 1394 3022 966 
Q 3022 478 2636 193 
Q 2250 -91 1575 -91 
Q 1294 -91 989 -36 
Q 684 19 347 128 
L 347 722 
Q 666 556 975 473 
Q 1284 391 1588 391 
Q 1994 391 2212 530 
Q 2431 669 2431 922 
Q 2431 1156 2273 1281 
Q 2116 1406 1581 1522 
L 1381 1569 
Q 847 1681 609 1914 
Q 372 2147 372 2553 
Q 372 3047 722 3315 
Q 1072 3584 1716 3584 
Q 2034 3584 2315 3537 
Q 2597 3491 2834 3397 
z
" transform="scale(0.015625)"/>
       <path id="DejaVuSans-79" d="M 2059 -325 
Q 1816 -950 1584 -1140 
Q 1353 -1331 966 -1331 
L 506 -1331 
L 506 -850 
L 844 -850 
Q 1081 -850 1212 -737 
Q 1344 -625 1503 -206 
L 1606 56 
L 191 3500 
L 800 3500 
L 1894 763 
L 2988 3500 
L 3597 3500 
L 2059 -325 
z
" transform="scale(0.015625)"/>
       <path id="DejaVuSans-20" transform="scale(0.015625)"/>
       <path id="DejaVuSans-65" d="M 3597 1894 
L 3597 1613 
L 953 1613 
Q 991 1019 1311 708 
Q 1631 397 2203 397 
Q 2534 397 2845 478 
Q 3156 559 3463 722 
L 3463 178 
Q 3153 47 2828 -22 
Q 2503 -91 2169 -91 
Q 1331 -91 842 396 
Q 353 884 353 1716 
Q 353 2575 817 3079 
Q 1281 3584 2069 3584 
Q 2775 3584 3186 3129 
Q 3597 2675 3597 1894 
z
M 3022 2063 
Q 3016 2534 2758 2815 
Q 2500 3097 2075 3097 
Q 1594 3097 1305 2825 
Q 1016 2553 972 2059 
L 3022 2063 
z
" transform="scale(0.015625)"/>
       <path id="DejaVuSans-72" d="M 2631 2963 
Q 2534 3019 2420 3045 
Q 2306 3072 2169 3072 
Q 1681 3072 1420 2755 
Q 1159 2438 1159 1844 
L 1159 0 
L 581 0 
L 581 3500 
L 1159 3500 
L 1159 2956 
Q 1341 3275 1631 3429 
Q 1922 3584 2338 3584 
Q 2397 3584 2469 3576 
Q 2541 3569 2628 3553 
L 2631 2963 
z
" transform="scale(0.015625)"/>
      </defs>
      <use xlink:href="#DejaVuSans-4e"/>
      <use xlink:href="#DejaVuSans-6f" transform="translate(74.804688 0)"/>
      <use xlink:href="#DejaVuSans-69" transform="translate(135.986328 0)"/>
      <use xlink:href="#DejaVuSans-73" transform="translate(163.769531 0)"/>
      <use xlink:href="#DejaVuSans-79" transform="translate(215.869141 0)"/>
      <use xlink:href="#DejaVuSans-20" transform="translate(275.048828 0)"/>
      <use xlink:href="#DejaVuSans-73" transform="translate(306.835938 0)"/>
      <use xlink:href="#DejaVuSans-65" transform="translate(358.935547 0)"/>
      <use xlink:href="#DejaVuSans-72" transform="translate(420.458984 0)"/>
      <use xlink:href="#DejaVuSans-69" transform="translate(461.572266 0)"/>
      <use xlink:href="#DejaVuSans-65" transform="translate(489.355469 0)"/>
      <use xlink:href="#DejaVuSans-73" transform="translate(550.878906 0)"/>
     </g>
     <!-- $\alpha = 0.26$ -->
     <g transform="translate(165.821 92.274276) scale(0.0833 -0.0833)">
      <defs>
       <path id="DejaVuSans-Oblique-3b1" d="M 2619 1628 
L 2622 2350 
Q 2625 3088 2069 3091 
Q 1653 3094 1394 2747 
Q 1069 2319 959 1747 
Q 825 1059 994 731 
Q 1169 397 1547 397 
Q 1966 397 2319 1063 
L 2619 1628 
z
M 2166 3578 
Q 3141 3594 3128 2584 
Q 3128 2584 3616 3500 
L 4128 3500 
L 3119 1603 
L 3109 919 
Q 3109 766 3194 638 
Q 3291 488 3391 488 
L 3669 488 
L 3575 0 
L 3228 0 
Q 2934 0 2722 263 
Q 2622 394 2619 669 
Q 2416 334 2066 50 
Q 1900 -81 1453 -78 
Q 722 -72 456 397 
Q 184 884 353 1747 
Q 534 2675 1009 3097 
Q 1544 3569 2166 3578 
z
" transform="scale(0.015625)"/>
       <path id="DejaVuSans-3d" d="M 678 2906 
L 4684 2906 
L 4684 2381 
L 678 2381 
L 678 2906 
z
M 678 1631 
L 4684 1631 
L 4684 1100 
L 678 1100 
L 678 1631 
z
" transform="scale(0.015625)"/>
       <path id="DejaVuSans-2e" d="M 684 794 
L 1344 794 
L 1344 0 
L 684 0 
L 684 794 
z
" transform="scale(0.015625)"/>
      </defs>
      <use xlink:href="#DejaVuSans-Oblique-3b1" transform="translate(0 0.78125)"/>
      <use xlink:href="#DejaVuSans-3d" transform="translate(85.400391 0.78125)"/>
      <use xlink:href="#DejaVuSans-30" transform="translate(188.671875 0.78125)"/>
      <use xlink:href="#DejaVuSans-2e" transform="translate(252.294922 0.78125)"/>
      <use xlink:href="#DejaVuSans-32" transform="translate(278.582031 0.78125)"/>
      <use xlink:href="#DejaVuSans-36" transform="translate(342.205078 0.78125)"/>
     </g>
    </g>
    <g id="line2d_14">
     <path d="M 142.497 101.585654 
L 150.827 101.585654 
L 159.157 101.585654 
" style="fill: none; stroke: #ff7f0e; stroke-width: 1.5; stroke-linecap: square"/>
    </g>
    <g id="text_12">
     <!-- Predicted with Exponential MA -->
     <g transform="translate(165.821 104.501154) scale(0.0833 -0.0833)">
      <defs>
       <path id="DejaVuSans-50" d="M 1259 4147 
L 1259 2394 
L 2053 2394 
Q 2494 2394 2734 2622 
Q 2975 2850 2975 3272 
Q 2975 3691 2734 3919 
Q 2494 4147 2053 4147 
L 1259 4147 
z
M 628 4666 
L 2053 4666 
Q 2838 4666 3239 4311 
Q 3641 3956 3641 3272 
Q 3641 2581 3239 2228 
Q 2838 1875 2053 1875 
L 1259 1875 
L 1259 0 
L 628 0 
L 628 4666 
z
" transform="scale(0.015625)"/>
       <path id="DejaVuSans-64" d="M 2906 2969 
L 2906 4863 
L 3481 4863 
L 3481 0 
L 2906 0 
L 2906 525 
Q 2725 213 2448 61 
Q 2172 -91 1784 -91 
Q 1150 -91 751 415 
Q 353 922 353 1747 
Q 353 2572 751 3078 
Q 1150 3584 1784 3584 
Q 2172 3584 2448 3432 
Q 2725 3281 2906 2969 
z
M 947 1747 
Q 947 1113 1208 752 
Q 1469 391 1925 391 
Q 2381 391 2643 752 
Q 2906 1113 2906 1747 
Q 2906 2381 2643 2742 
Q 2381 3103 1925 3103 
Q 1469 3103 1208 2742 
Q 947 2381 947 1747 
z
" transform="scale(0.015625)"/>
       <path id="DejaVuSans-63" d="M 3122 3366 
L 3122 2828 
Q 2878 2963 2633 3030 
Q 2388 3097 2138 3097 
Q 1578 3097 1268 2742 
Q 959 2388 959 1747 
Q 959 1106 1268 751 
Q 1578 397 2138 397 
Q 2388 397 2633 464 
Q 2878 531 3122 666 
L 3122 134 
Q 2881 22 2623 -34 
Q 2366 -91 2075 -91 
Q 1284 -91 818 406 
Q 353 903 353 1747 
Q 353 2603 823 3093 
Q 1294 3584 2113 3584 
Q 2378 3584 2631 3529 
Q 2884 3475 3122 3366 
z
" transform="scale(0.015625)"/>
       <path id="DejaVuSans-74" d="M 1172 4494 
L 1172 3500 
L 2356 3500 
L 2356 3053 
L 1172 3053 
L 1172 1153 
Q 1172 725 1289 603 
Q 1406 481 1766 481 
L 2356 481 
L 2356 0 
L 1766 0 
Q 1100 0 847 248 
Q 594 497 594 1153 
L 594 3053 
L 172 3053 
L 172 3500 
L 594 3500 
L 594 4494 
L 1172 4494 
z
" transform="scale(0.015625)"/>
       <path id="DejaVuSans-77" d="M 269 3500 
L 844 3500 
L 1563 769 
L 2278 3500 
L 2956 3500 
L 3675 769 
L 4391 3500 
L 4966 3500 
L 4050 0 
L 3372 0 
L 2619 2869 
L 1863 0 
L 1184 0 
L 269 3500 
z
" transform="scale(0.015625)"/>
       <path id="DejaVuSans-68" d="M 3513 2113 
L 3513 0 
L 2938 0 
L 2938 2094 
Q 2938 2591 2744 2837 
Q 2550 3084 2163 3084 
Q 1697 3084 1428 2787 
Q 1159 2491 1159 1978 
L 1159 0 
L 581 0 
L 581 4863 
L 1159 4863 
L 1159 2956 
Q 1366 3272 1645 3428 
Q 1925 3584 2291 3584 
Q 2894 3584 3203 3211 
Q 3513 2838 3513 2113 
z
" transform="scale(0.015625)"/>
       <path id="DejaVuSans-45" d="M 628 4666 
L 3578 4666 
L 3578 4134 
L 1259 4134 
L 1259 2753 
L 3481 2753 
L 3481 2222 
L 1259 2222 
L 1259 531 
L 3634 531 
L 3634 0 
L 628 0 
L 628 4666 
z
" transform="scale(0.015625)"/>
       <path id="DejaVuSans-78" d="M 3513 3500 
L 2247 1797 
L 3578 0 
L 2900 0 
L 1881 1375 
L 863 0 
L 184 0 
L 1544 1831 
L 300 3500 
L 978 3500 
L 1906 2253 
L 2834 3500 
L 3513 3500 
z
" transform="scale(0.015625)"/>
       <path id="DejaVuSans-70" d="M 1159 525 
L 1159 -1331 
L 581 -1331 
L 581 3500 
L 1159 3500 
L 1159 2969 
Q 1341 3281 1617 3432 
Q 1894 3584 2278 3584 
Q 2916 3584 3314 3078 
Q 3713 2572 3713 1747 
Q 3713 922 3314 415 
Q 2916 -91 2278 -91 
Q 1894 -91 1617 61 
Q 1341 213 1159 525 
z
M 3116 1747 
Q 3116 2381 2855 2742 
Q 2594 3103 2138 3103 
Q 1681 3103 1420 2742 
Q 1159 2381 1159 1747 
Q 1159 1113 1420 752 
Q 1681 391 2138 391 
Q 2594 391 2855 752 
Q 3116 1113 3116 1747 
z
" transform="scale(0.015625)"/>
       <path id="DejaVuSans-6e" d="M 3513 2113 
L 3513 0 
L 2938 0 
L 2938 2094 
Q 2938 2591 2744 2837 
Q 2550 3084 2163 3084 
Q 1697 3084 1428 2787 
Q 1159 2491 1159 1978 
L 1159 0 
L 581 0 
L 581 3500 
L 1159 3500 
L 1159 2956 
Q 1366 3272 1645 3428 
Q 1925 3584 2291 3584 
Q 2894 3584 3203 3211 
Q 3513 2838 3513 2113 
z
" transform="scale(0.015625)"/>
       <path id="DejaVuSans-61" d="M 2194 1759 
Q 1497 1759 1228 1600 
Q 959 1441 959 1056 
Q 959 750 1161 570 
Q 1363 391 1709 391 
Q 2188 391 2477 730 
Q 2766 1069 2766 1631 
L 2766 1759 
L 2194 1759 
z
M 3341 1997 
L 3341 0 
L 2766 0 
L 2766 531 
Q 2569 213 2275 61 
Q 1981 -91 1556 -91 
Q 1019 -91 701 211 
Q 384 513 384 1019 
Q 384 1609 779 1909 
Q 1175 2209 1959 2209 
L 2766 2209 
L 2766 2266 
Q 2766 2663 2505 2880 
Q 2244 3097 1772 3097 
Q 1472 3097 1187 3025 
Q 903 2953 641 2809 
L 641 3341 
Q 956 3463 1253 3523 
Q 1550 3584 1831 3584 
Q 2591 3584 2966 3190 
Q 3341 2797 3341 1997 
z
" transform="scale(0.015625)"/>
       <path id="DejaVuSans-6c" d="M 603 4863 
L 1178 4863 
L 1178 0 
L 603 0 
L 603 4863 
z
" transform="scale(0.015625)"/>
       <path id="DejaVuSans-4d" d="M 628 4666 
L 1569 4666 
L 2759 1491 
L 3956 4666 
L 4897 4666 
L 4897 0 
L 4281 0 
L 4281 4097 
L 3078 897 
L 2444 897 
L 1241 4097 
L 1241 0 
L 628 0 
L 628 4666 
z
" transform="scale(0.015625)"/>
       <path id="DejaVuSans-41" d="M 2188 4044 
L 1331 1722 
L 3047 1722 
L 2188 4044 
z
M 1831 4666 
L 2547 4666 
L 4325 0 
L 3669 0 
L 3244 1197 
L 1141 1197 
L 716 0 
L 50 0 
L 1831 4666 
z
" transform="scale(0.015625)"/>
      </defs>
      <use xlink:href="#DejaVuSans-50"/>
      <use xlink:href="#DejaVuSans-72" transform="translate(58.552734 0)"/>
      <use xlink:href="#DejaVuSans-65" transform="translate(97.416016 0)"/>
      <use xlink:href="#DejaVuSans-64" transform="translate(158.939453 0)"/>
      <use xlink:href="#DejaVuSans-69" transform="translate(222.416016 0)"/>
      <use xlink:href="#DejaVuSans-63" transform="translate(250.199219 0)"/>
      <use xlink:href="#DejaVuSans-74" transform="translate(305.179688 0)"/>
      <use xlink:href="#DejaVuSans-65" transform="translate(344.388672 0)"/>
      <use xlink:href="#DejaVuSans-64" transform="translate(405.912109 0)"/>
      <use xlink:href="#DejaVuSans-20" transform="translate(469.388672 0)"/>
      <use xlink:href="#DejaVuSans-77" transform="translate(501.175781 0)"/>
      <use xlink:href="#DejaVuSans-69" transform="translate(582.962891 0)"/>
      <use xlink:href="#DejaVuSans-74" transform="translate(610.746094 0)"/>
      <use xlink:href="#DejaVuSans-68" transform="translate(649.955078 0)"/>
      <use xlink:href="#DejaVuSans-20" transform="translate(713.333984 0)"/>
      <use xlink:href="#DejaVuSans-45" transform="translate(745.121094 0)"/>
      <use xlink:href="#DejaVuSans-78" transform="translate(808.304688 0)"/>
      <use xlink:href="#DejaVuSans-70" transform="translate(867.484375 0)"/>
      <use xlink:href="#DejaVuSans-6f" transform="translate(930.960938 0)"/>
      <use xlink:href="#DejaVuSans-6e" transform="translate(992.142578 0)"/>
      <use xlink:href="#DejaVuSans-65" transform="translate(1055.521484 0)"/>
      <use xlink:href="#DejaVuSans-6e" transform="translate(1117.044922 0)"/>
      <use xlink:href="#DejaVuSans-74" transform="translate(1180.423828 0)"/>
      <use xlink:href="#DejaVuSans-69" transform="translate(1219.632812 0)"/>
      <use xlink:href="#DejaVuSans-61" transform="translate(1247.416016 0)"/>
      <use xlink:href="#DejaVuSans-6c" transform="translate(1308.695312 0)"/>
      <use xlink:href="#DejaVuSans-20" transform="translate(1336.478516 0)"/>
      <use xlink:href="#DejaVuSans-4d" transform="translate(1368.265625 0)"/>
      <use xlink:href="#DejaVuSans-41" transform="translate(1454.544922 0)"/>
     </g>
    </g>
   </g>
  </g>
  <g id="axes_2">
   <g id="patch_8">
    <path d="M 591.545455 199.567059 
L 972 199.567059 
L 972 69.12 
L 591.545455 69.12 
z
" style="fill: #ffffff"/>
   </g>
   <g id="matplotlib.axis_3">
    <g id="xtick_7">
     <g id="line2d_15">
      <g>
       <use xlink:href="#mc08c6d7d8c" x="608.838843" y="199.567059" style="stroke: #000000; stroke-width: 0.8"/>
      </g>
     </g>
     <g id="text_13">
      <!-- 0 -->
      <g transform="translate(605.657593 214.165496) scale(0.1 -0.1)">
       <use xlink:href="#DejaVuSans-30"/>
      </g>
     </g>
    </g>
    <g id="xtick_8">
     <g id="line2d_16">
      <g>
       <use xlink:href="#mc08c6d7d8c" x="679.424102" y="199.567059" style="stroke: #000000; stroke-width: 0.8"/>
      </g>
     </g>
     <g id="text_14">
      <!-- 20 -->
      <g transform="translate(673.061602 214.165496) scale(0.1 -0.1)">
       <use xlink:href="#DejaVuSans-32"/>
       <use xlink:href="#DejaVuSans-30" transform="translate(63.623047 0)"/>
      </g>
     </g>
    </g>
    <g id="xtick_9">
     <g id="line2d_17">
      <g>
       <use xlink:href="#mc08c6d7d8c" x="750.009361" y="199.567059" style="stroke: #000000; stroke-width: 0.8"/>
      </g>
     </g>
     <g id="text_15">
      <!-- 40 -->
      <g transform="translate(743.646861 214.165496) scale(0.1 -0.1)">
       <use xlink:href="#DejaVuSans-34"/>
       <use xlink:href="#DejaVuSans-30" transform="translate(63.623047 0)"/>
      </g>
     </g>
    </g>
    <g id="xtick_10">
     <g id="line2d_18">
      <g>
       <use xlink:href="#mc08c6d7d8c" x="820.59462" y="199.567059" style="stroke: #000000; stroke-width: 0.8"/>
      </g>
     </g>
     <g id="text_16">
      <!-- 60 -->
      <g transform="translate(814.23212 214.165496) scale(0.1 -0.1)">
       <use xlink:href="#DejaVuSans-36"/>
       <use xlink:href="#DejaVuSans-30" transform="translate(63.623047 0)"/>
      </g>
     </g>
    </g>
    <g id="xtick_11">
     <g id="line2d_19">
      <g>
       <use xlink:href="#mc08c6d7d8c" x="891.179879" y="199.567059" style="stroke: #000000; stroke-width: 0.8"/>
      </g>
     </g>
     <g id="text_17">
      <!-- 80 -->
      <g transform="translate(884.817379 214.165496) scale(0.1 -0.1)">
       <use xlink:href="#DejaVuSans-38"/>
       <use xlink:href="#DejaVuSans-30" transform="translate(63.623047 0)"/>
      </g>
     </g>
    </g>
    <g id="xtick_12">
     <g id="line2d_20">
      <g>
       <use xlink:href="#mc08c6d7d8c" x="961.765137" y="199.567059" style="stroke: #000000; stroke-width: 0.8"/>
      </g>
     </g>
     <g id="text_18">
      <!-- 100 -->
      <g transform="translate(952.221387 214.165496) scale(0.1 -0.1)">
       <use xlink:href="#DejaVuSans-31"/>
       <use xlink:href="#DejaVuSans-30" transform="translate(63.623047 0)"/>
       <use xlink:href="#DejaVuSans-30" transform="translate(127.246094 0)"/>
      </g>
     </g>
    </g>
   </g>
   <g id="matplotlib.axis_4">
    <g id="ytick_5">
     <g id="line2d_21">
      <g>
       <use xlink:href="#m50d34a51b7" x="591.545455" y="174.373011" style="stroke: #000000; stroke-width: 0.8"/>
      </g>
     </g>
     <g id="text_19">
      <!-- −10 -->
      <g transform="translate(563.440767 178.17223) scale(0.1 -0.1)">
       <defs>
        <path id="DejaVuSans-2212" d="M 678 2272 
L 4684 2272 
L 4684 1741 
L 678 1741 
L 678 2272 
z
" transform="scale(0.015625)"/>
       </defs>
       <use xlink:href="#DejaVuSans-2212"/>
       <use xlink:href="#DejaVuSans-31" transform="translate(83.789062 0)"/>
       <use xlink:href="#DejaVuSans-30" transform="translate(147.412109 0)"/>
      </g>
     </g>
    </g>
    <g id="ytick_6">
     <g id="line2d_22">
      <g>
       <use xlink:href="#m50d34a51b7" x="591.545455" y="142.635759" style="stroke: #000000; stroke-width: 0.8"/>
      </g>
     </g>
     <g id="text_20">
      <!-- 0 -->
      <g transform="translate(578.182955 146.434978) scale(0.1 -0.1)">
       <use xlink:href="#DejaVuSans-30"/>
      </g>
     </g>
    </g>
    <g id="ytick_7">
     <g id="line2d_23">
      <g>
       <use xlink:href="#m50d34a51b7" x="591.545455" y="110.898506" style="stroke: #000000; stroke-width: 0.8"/>
      </g>
     </g>
     <g id="text_21">
      <!-- 10 -->
      <g transform="translate(571.820455 114.697725) scale(0.1 -0.1)">
       <use xlink:href="#DejaVuSans-31"/>
       <use xlink:href="#DejaVuSans-30" transform="translate(63.623047 0)"/>
      </g>
     </g>
    </g>
    <g id="ytick_8">
     <g id="line2d_24">
      <g>
       <use xlink:href="#m50d34a51b7" x="591.545455" y="79.161254" style="stroke: #000000; stroke-width: 0.8"/>
      </g>
     </g>
     <g id="text_22">
      <!-- 20 -->
      <g transform="translate(571.820455 82.960473) scale(0.1 -0.1)">
       <use xlink:href="#DejaVuSans-32"/>
       <use xlink:href="#DejaVuSans-30" transform="translate(63.623047 0)"/>
      </g>
     </g>
    </g>
   </g>
   <g id="line2d_25">
    <path d="M 608.838843 133.152299 
L 612.368106 122.215458 
L 615.897369 149.357491 
L 619.426632 147.809317 
L 622.955895 154.683716 
L 626.485158 128.119824 
L 630.014421 119.90954 
L 633.543684 145.822774 
L 637.072947 193.637647 
L 640.602209 124.574032 
L 644.131472 150.98678 
L 647.660735 149.10241 
L 651.189998 141.271603 
L 654.719261 150.722428 
L 658.248524 125.578435 
L 661.777787 120.694528 
L 665.30705 146.105958 
L 668.836313 167.34766 
L 672.365576 123.58307 
L 675.894839 185.11787 
L 679.424102 104.828744 
L 682.953365 114.687797 
L 686.482628 138.943729 
L 690.011891 181.22251 
L 693.541154 122.619549 
L 697.070417 140.610814 
L 700.59968 124.78698 
L 704.128942 125.078411 
L 707.658205 184.320814 
L 711.187468 120.880979 
L 714.716731 82.988008 
L 718.245994 163.770061 
L 721.775257 121.498493 
L 725.30452 144.245885 
L 728.833783 179.737624 
L 732.363046 75.049412 
L 735.892309 102.434972 
L 739.421572 176.792464 
L 742.950835 174.436691 
L 746.480098 114.20024 
L 750.009361 171.35797 
L 753.538624 129.744626 
L 757.067887 142.500546 
L 760.59715 156.750305 
L 764.126413 142.001387 
L 767.655675 75.777278 
L 771.184938 150.30421 
L 774.714201 155.605573 
L 778.243464 167.630282 
L 781.772727 131.066665 
L 785.30199 105.570631 
L 788.831253 105.883007 
L 792.360516 150.295385 
L 795.889779 156.913033 
L 799.419042 135.631936 
L 802.948305 101.542711 
L 806.477568 141.012649 
L 810.006831 127.829211 
L 813.536094 167.092769 
L 817.065357 156.092803 
L 820.59462 99.705432 
L 824.123883 126.137302 
L 827.653146 160.065253 
L 831.182409 129.004386 
L 834.711671 133.817082 
L 838.240934 118.981943 
L 841.770197 153.183779 
L 845.29946 118.193906 
L 848.828723 169.40805 
L 852.357986 114.778745 
L 855.887249 133.961838 
L 859.416512 161.889038 
L 862.945775 149.633387 
L 866.475038 140.884213 
L 870.004301 101.924403 
L 873.533564 90.741199 
L 877.062827 145.779773 
L 880.59209 139.04392 
L 884.121353 121.718576 
L 887.650616 147.573272 
L 891.179879 118.214652 
L 894.709142 109.595285 
L 898.238404 136.298232 
L 901.767667 121.855598 
L 905.29693 146.674681 
L 908.826193 115.806017 
L 912.355456 125.094938 
L 915.884719 97.318099 
L 919.413982 173.228381 
L 922.943245 152.427658 
L 926.472508 113.448442 
L 930.001771 148.84405 
L 933.531034 152.654902 
L 937.060297 115.92975 
L 940.58956 136.392202 
L 944.118823 120.885294 
L 947.648086 87.987488 
L 951.177349 135.826174 
L 954.706612 149.266388 
" clip-path="url(#p8809f55a97)" style="fill: none; stroke: #1f77b4; stroke-width: 1.5; stroke-linecap: square"/>
   </g>
   <g id="patch_9">
    <path d="M 591.545455 199.567059 
L 591.545455 69.12 
" style="fill: none; stroke: #000000; stroke-width: 0.8; stroke-linejoin: miter; stroke-linecap: square"/>
   </g>
   <g id="patch_10">
    <path d="M 972 199.567059 
L 972 69.12 
" style="fill: none; stroke: #000000; stroke-width: 0.8; stroke-linejoin: miter; stroke-linecap: square"/>
   </g>
   <g id="patch_11">
    <path d="M 591.545455 199.567059 
L 972 199.567059 
" style="fill: none; stroke: #000000; stroke-width: 0.8; stroke-linejoin: miter; stroke-linecap: square"/>
   </g>
   <g id="patch_12">
    <path d="M 591.545455 69.12 
L 972 69.12 
" style="fill: none; stroke: #000000; stroke-width: 0.8; stroke-linejoin: miter; stroke-linecap: square"/>
   </g>
   <g id="legend_2">
    <g id="patch_13">
     <path d="M 597.376455 88.010878 
L 644.332925 88.010878 
Q 645.998925 88.010878 645.998925 86.344878 
L 645.998925 74.951 
Q 645.998925 73.285 644.332925 73.285 
L 597.376455 73.285 
Q 595.710455 73.285 595.710455 74.951 
L 595.710455 86.344878 
Q 595.710455 88.010878 597.376455 88.010878 
z
" style="fill: #ffffff; opacity: 0.8; stroke: #cccccc; stroke-linejoin: miter"/>
    </g>
    <g id="line2d_26">
     <path d="M 599.042455 80.030998 
L 607.372455 80.030998 
L 615.702455 80.030998 
" style="fill: none; stroke: #1f77b4; stroke-width: 1.5; stroke-linecap: square"/>
    </g>
    <g id="text_23">
     <!-- Error -->
     <g transform="translate(622.366455 82.946498) scale(0.0833 -0.0833)">
      <use xlink:href="#DejaVuSans-45"/>
      <use xlink:href="#DejaVuSans-72" transform="translate(63.183594 0)"/>
      <use xlink:href="#DejaVuSans-72" transform="translate(102.546875 0)"/>
      <use xlink:href="#DejaVuSans-6f" transform="translate(141.410156 0)"/>
      <use xlink:href="#DejaVuSans-72" transform="translate(202.591797 0)"/>
     </g>
    </g>
   </g>
  </g>
  <g id="axes_3">
   <g id="patch_14">
    <path d="M 135 356.103529 
L 515.454545 356.103529 
L 515.454545 225.656471 
L 135 225.656471 
z
" style="fill: #ffffff"/>
   </g>
   <g id="matplotlib.axis_5">
    <g id="xtick_13">
     <g id="line2d_27">
      <g>
       <use xlink:href="#mc08c6d7d8c" x="152.293388" y="356.103529" style="stroke: #000000; stroke-width: 0.8"/>
      </g>
     </g>
     <g id="text_24">
      <!-- 0 -->
      <g transform="translate(149.112138 370.701967) scale(0.1 -0.1)">
       <use xlink:href="#DejaVuSans-30"/>
      </g>
     </g>
    </g>
    <g id="xtick_14">
     <g id="line2d_28">
      <g>
       <use xlink:href="#mc08c6d7d8c" x="222.165665" y="356.103529" style="stroke: #000000; stroke-width: 0.8"/>
      </g>
     </g>
     <g id="text_25">
      <!-- 20 -->
      <g transform="translate(215.803165 370.701967) scale(0.1 -0.1)">
       <use xlink:href="#DejaVuSans-32"/>
       <use xlink:href="#DejaVuSans-30" transform="translate(63.623047 0)"/>
      </g>
     </g>
    </g>
    <g id="xtick_15">
     <g id="line2d_29">
      <g>
       <use xlink:href="#mc08c6d7d8c" x="292.037941" y="356.103529" style="stroke: #000000; stroke-width: 0.8"/>
      </g>
     </g>
     <g id="text_26">
      <!-- 40 -->
      <g transform="translate(285.675441 370.701967) scale(0.1 -0.1)">
       <use xlink:href="#DejaVuSans-34"/>
       <use xlink:href="#DejaVuSans-30" transform="translate(63.623047 0)"/>
      </g>
     </g>
    </g>
    <g id="xtick_16">
     <g id="line2d_30">
      <g>
       <use xlink:href="#mc08c6d7d8c" x="361.910218" y="356.103529" style="stroke: #000000; stroke-width: 0.8"/>
      </g>
     </g>
     <g id="text_27">
      <!-- 60 -->
      <g transform="translate(355.547718 370.701967) scale(0.1 -0.1)">
       <use xlink:href="#DejaVuSans-36"/>
       <use xlink:href="#DejaVuSans-30" transform="translate(63.623047 0)"/>
      </g>
     </g>
    </g>
    <g id="xtick_17">
     <g id="line2d_31">
      <g>
       <use xlink:href="#mc08c6d7d8c" x="431.782494" y="356.103529" style="stroke: #000000; stroke-width: 0.8"/>
      </g>
     </g>
     <g id="text_28">
      <!-- 80 -->
      <g transform="translate(425.419994 370.701967) scale(0.1 -0.1)">
       <use xlink:href="#DejaVuSans-38"/>
       <use xlink:href="#DejaVuSans-30" transform="translate(63.623047 0)"/>
      </g>
     </g>
    </g>
    <g id="xtick_18">
     <g id="line2d_32">
      <g>
       <use xlink:href="#mc08c6d7d8c" x="501.654771" y="356.103529" style="stroke: #000000; stroke-width: 0.8"/>
      </g>
     </g>
     <g id="text_29">
      <!-- 100 -->
      <g transform="translate(492.111021 370.701967) scale(0.1 -0.1)">
       <use xlink:href="#DejaVuSans-31"/>
       <use xlink:href="#DejaVuSans-30" transform="translate(63.623047 0)"/>
       <use xlink:href="#DejaVuSans-30" transform="translate(127.246094 0)"/>
      </g>
     </g>
    </g>
   </g>
   <g id="matplotlib.axis_6">
    <g id="ytick_9">
     <g id="line2d_33">
      <g>
       <use xlink:href="#m50d34a51b7" x="135" y="336.912732" style="stroke: #000000; stroke-width: 0.8"/>
      </g>
     </g>
     <g id="text_30">
      <!-- 0 -->
      <g transform="translate(121.6375 340.71195) scale(0.1 -0.1)">
       <use xlink:href="#DejaVuSans-30"/>
      </g>
     </g>
    </g>
    <g id="ytick_10">
     <g id="line2d_34">
      <g>
       <use xlink:href="#m50d34a51b7" x="135" y="307.042037" style="stroke: #000000; stroke-width: 0.8"/>
      </g>
     </g>
     <g id="text_31">
      <!-- 20 -->
      <g transform="translate(115.275 310.841256) scale(0.1 -0.1)">
       <use xlink:href="#DejaVuSans-32"/>
       <use xlink:href="#DejaVuSans-30" transform="translate(63.623047 0)"/>
      </g>
     </g>
    </g>
    <g id="ytick_11">
     <g id="line2d_35">
      <g>
       <use xlink:href="#m50d34a51b7" x="135" y="277.171342" style="stroke: #000000; stroke-width: 0.8"/>
      </g>
     </g>
     <g id="text_32">
      <!-- 40 -->
      <g transform="translate(115.275 280.970561) scale(0.1 -0.1)">
       <use xlink:href="#DejaVuSans-34"/>
       <use xlink:href="#DejaVuSans-30" transform="translate(63.623047 0)"/>
      </g>
     </g>
    </g>
    <g id="ytick_12">
     <g id="line2d_36">
      <g>
       <use xlink:href="#m50d34a51b7" x="135" y="247.300648" style="stroke: #000000; stroke-width: 0.8"/>
      </g>
     </g>
     <g id="text_33">
      <!-- 60 -->
      <g transform="translate(115.275 251.099866) scale(0.1 -0.1)">
       <use xlink:href="#DejaVuSans-36"/>
       <use xlink:href="#DejaVuSans-30" transform="translate(63.623047 0)"/>
      </g>
     </g>
    </g>
   </g>
   <g id="line2d_37">
    <path d="M 152.293388 331.021491 
L 155.787002 326.558636 
L 159.280616 320.262756 
L 162.77423 330.561377 
L 166.267844 330.647262 
L 169.761458 334.509169 
L 173.255071 323.468174 
L 176.748685 317.84563 
L 180.242299 327.286588 
L 183.735913 350.174118 
L 187.229527 323.852917 
L 190.72314 334.09412 
L 194.216754 334.219207 
L 197.710368 331.317618 
L 201.203982 335.599826 
L 204.697596 324.747053 
L 208.19121 320.381951 
L 211.684823 329.681876 
L 215.178437 340.098555 
L 218.672051 322.497461 
L 222.165665 349.146806 
L 225.659279 316.510644 
L 229.152893 316.569328 
L 232.646506 324.597672 
L 236.14012 344.046447 
L 239.633734 321.14367 
L 243.127348 327.184961 
L 246.620962 319.493012 
L 250.114576 317.467493 
L 253.608189 343.219235 
L 257.101803 318.415665 
L 260.595417 297.947537 
L 264.089031 328.735776 
L 267.582645 311.403805 
L 271.076258 319.547465 
L 274.569872 336.444742 
L 278.063486 291.674624 
L 281.5571 296.372928 
L 285.050714 326.49412 
L 288.544328 329.524138 
L 292.037941 305.030442 
L 295.531555 328.483086 
L 299.025169 312.380267 
L 302.518783 316.821155 
L 306.012397 323.510617 
L 309.506011 318.280073 
L 312.999624 287.038568 
L 316.493238 314.009492 
L 319.986852 317.433435 
L 323.480466 324.663686 
L 326.97408 310.485568 
L 330.467693 297.085517 
L 333.961307 292.741488 
L 337.454921 309.188485 
L 340.948535 313.230794 
L 344.442149 304.945966 
L 347.935763 288.05517 
L 351.429376 301.650391 
L 354.92299 295.249684 
L 358.416604 311.932813 
L 361.910218 309.719656 
L 365.403832 284.814657 
L 368.897446 292.051631 
L 372.391059 306.018856 
L 375.884673 293.513673 
L 379.378287 294.126838 
L 382.871901 286.076993 
L 386.365515 299.30612 
L 389.859128 284.118172 
L 393.352742 305.257699 
L 396.846356 282.793389 
L 400.33997 288.445507 
L 403.833584 300.536885 
L 407.327198 297.102296 
L 410.820811 293.832865 
L 414.314425 275.286401 
L 417.808039 265.090826 
L 421.301653 284.703771 
L 424.795267 281.91487 
L 428.288881 273.326465 
L 431.782494 282.959069 
L 435.276108 269.741349 
L 438.769722 262.726124 
L 442.263336 271.288978 
L 445.75695 263.724475 
L 449.250563 272.886328 
L 452.744177 258.849112 
L 456.237791 259.969568 
L 459.731405 244.772615 
L 463.225019 275.004549 
L 466.718633 268.922646 
L 470.212246 251.765722 
L 473.70586 264.886159 
L 477.199474 267.431755 
L 480.693088 251.363113 
L 484.186702 257.756753 
L 487.680316 249.702795 
L 491.173929 231.585882 
L 494.667543 247.476951 
L 498.161157 252.976739 
" clip-path="url(#pe05f740373)" style="fill: none; stroke: #1f77b4; stroke-width: 1.5; stroke-linecap: square"/>
   </g>
   <g id="line2d_38">
    <path d="M 159.280616 322.09578 
L 162.77423 317.154762 
L 166.267844 316.097811 
L 169.761458 316.007092 
L 173.255071 317.67252 
L 176.748685 316.945391 
L 180.242299 315.230067 
L 183.735913 316.469835 
L 187.229527 323.957473 
L 190.72314 324.305368 
L 194.216754 327.228823 
L 197.710368 329.910113 
L 201.203982 331.483414 
L 204.697596 333.833504 
L 208.19121 332.944632 
L 211.684823 330.696131 
L 215.178437 330.8341 
L 218.672051 333.602829 
L 222.165665 331.519573 
L 225.659279 336.378077 
L 229.152893 332.334161 
L 232.646506 328.370366 
L 236.14012 326.74921 
L 239.633734 330.436348 
L 243.127348 328.049237 
L 246.620962 327.397664 
L 250.114576 324.866466 
L 253.608189 322.073256 
L 257.101803 326.357561 
L 260.595417 324.107799 
L 264.089031 316.709811 
L 267.582645 317.969403 
L 271.076258 314.978506 
L 274.569872 314.564978 
L 278.063486 318.894841 
L 281.5571 311.506842 
L 285.050714 305.915172 
L 288.544328 308.885374 
L 292.037941 312.896721 
L 295.531555 310.500761 
L 299.025169 314.45566 
L 302.518783 314.074439 
L 306.012397 314.847689 
L 309.506011 317.301124 
L 312.999624 318.181827 
L 316.493238 310.731912 
L 319.986852 310.709013 
L 323.480466 311.748595 
L 326.97408 314.738183 
L 330.467693 313.893019 
L 333.961307 309.560857 
L 337.454921 304.388006 
L 340.948535 304.016727 
L 344.442149 305.036007 
L 347.935763 304.087394 
L 351.429376 298.975614 
L 354.92299 297.944787 
L 358.416604 295.646468 
L 361.910218 298.165344 
L 365.403832 300.261443 
L 368.897446 295.889835 
L 372.391059 293.77666 
L 375.884673 295.666946 
L 379.378287 294.412111 
L 382.871901 293.537256 
L 386.365515 290.776516 
L 389.859128 291.815116 
L 393.352742 289.045925 
L 396.846356 292.129992 
L 400.33997 289.357412 
L 403.833584 288.317215 
L 407.327198 290.657078 
L 410.820811 292.099578 
L 414.314425 292.634117 
L 417.808039 288.27756 
L 421.301653 281.533321 
L 424.795267 280.509122 
L 428.288881 279.18258 
L 431.782494 276.031762 
L 435.276108 275.923793 
L 438.769722 272.741231 
L 442.263336 268.250781 
L 445.75695 266.66632 
L 449.250563 263.673311 
L 452.744177 263.704416 
L 456.237791 260.524783 
L 459.731405 258.22491 
L 463.225019 252.533034 
L 466.718633 255.54186 
L 470.212246 257.299134 
L 473.70586 254.789272 
L 477.199474 256.080978 
L 480.693088 258.202947 
L 484.186702 256.145371 
L 487.680316 255.951521 
L 491.173929 253.787584 
L 494.667543 247.150749 
L 498.161157 245.284136 
" clip-path="url(#pe05f740373)" style="fill: none; stroke: #ff7f0e; stroke-width: 1.5; stroke-linecap: square"/>
   </g>
   <g id="patch_15">
    <path d="M 135 356.103529 
L 135 225.656471 
" style="fill: none; stroke: #000000; stroke-width: 0.8; stroke-linejoin: miter; stroke-linecap: square"/>
   </g>
   <g id="patch_16">
    <path d="M 515.454545 356.103529 
L 515.454545 225.656471 
" style="fill: none; stroke: #000000; stroke-width: 0.8; stroke-linejoin: miter; stroke-linecap: square"/>
   </g>
   <g id="patch_17">
    <path d="M 135 356.103529 
L 515.454545 356.103529 
" style="fill: none; stroke: #000000; stroke-width: 0.8; stroke-linejoin: miter; stroke-linecap: square"/>
   </g>
   <g id="patch_18">
    <path d="M 135 225.656471 
L 515.454545 225.656471 
" style="fill: none; stroke: #000000; stroke-width: 0.8; stroke-linejoin: miter; stroke-linecap: square"/>
   </g>
   <g id="legend_3">
    <g id="patch_19">
     <path d="M 140.831 275.548225 
L 264.446898 275.548225 
Q 266.112898 275.548225 266.112898 273.882225 
L 266.112898 231.487471 
Q 266.112898 229.821471 264.446898 229.821471 
L 140.831 229.821471 
Q 139.165 229.821471 139.165 231.487471 
L 139.165 273.882225 
Q 139.165 275.548225 140.831 275.548225 
z
" style="fill: #ffffff; opacity: 0.8; stroke: #cccccc; stroke-linejoin: miter"/>
    </g>
    <g id="line2d_39">
     <path d="M 142.497 246.820658 
L 150.827 246.820658 
L 159.157 246.820658 
" style="fill: none; stroke: #1f77b4; stroke-width: 1.5; stroke-linecap: square"/>
    </g>
    <g id="text_34">
     <!-- Noisy series -->
     <g transform="translate(165.821 239.482969) scale(0.0833 -0.0833)">
      <use xlink:href="#DejaVuSans-4e"/>
      <use xlink:href="#DejaVuSans-6f" transform="translate(74.804688 0)"/>
      <use xlink:href="#DejaVuSans-69" transform="translate(135.986328 0)"/>
      <use xlink:href="#DejaVuSans-73" transform="translate(163.769531 0)"/>
      <use xlink:href="#DejaVuSans-79" transform="translate(215.869141 0)"/>
      <use xlink:href="#DejaVuSans-20" transform="translate(275.048828 0)"/>
      <use xlink:href="#DejaVuSans-73" transform="translate(306.835938 0)"/>
      <use xlink:href="#DejaVuSans-65" transform="translate(358.935547 0)"/>
      <use xlink:href="#DejaVuSans-72" transform="translate(420.458984 0)"/>
      <use xlink:href="#DejaVuSans-69" transform="translate(461.572266 0)"/>
      <use xlink:href="#DejaVuSans-65" transform="translate(489.355469 0)"/>
      <use xlink:href="#DejaVuSans-73" transform="translate(550.878906 0)"/>
     </g>
     <!-- $\alpha = 0.21$ -->
     <g transform="translate(165.821 248.810747) scale(0.0833 -0.0833)">
      <use xlink:href="#DejaVuSans-Oblique-3b1" transform="translate(0 0.78125)"/>
      <use xlink:href="#DejaVuSans-3d" transform="translate(85.400391 0.78125)"/>
      <use xlink:href="#DejaVuSans-30" transform="translate(188.671875 0.78125)"/>
      <use xlink:href="#DejaVuSans-2e" transform="translate(252.294922 0.78125)"/>
      <use xlink:href="#DejaVuSans-32" transform="translate(278.582031 0.78125)"/>
      <use xlink:href="#DejaVuSans-31" transform="translate(342.205078 0.78125)"/>
     </g>
     <!-- $\beta=0.24$ -->
     <g transform="translate(165.821 258.240047) scale(0.0833 -0.0833)">
      <defs>
       <path id="DejaVuSans-Oblique-3b2" d="M 872 216 
L 572 -1331 
L -6 -1331 
L 928 3478 
Q 1206 4903 2538 4903 
Q 3888 4903 3659 3700 
Q 3503 2844 2894 2531 
Q 3713 2250 3553 1416 
Q 3272 -69 1759 -66 
Q 1097 -63 872 216 
z
M 1019 966 
Q 1259 422 1875 425 
Q 2775 425 2966 1406 
Q 3138 2288 1675 2219 
L 1778 2750 
Q 2909 2731 3106 3750 
Q 3241 4438 2509 4434 
Q 1691 4434 1503 3459 
L 1019 966 
z
" transform="scale(0.015625)"/>
      </defs>
      <use xlink:href="#DejaVuSans-Oblique-3b2" transform="translate(0 0.390625)"/>
      <use xlink:href="#DejaVuSans-3d" transform="translate(83.300781 0.390625)"/>
      <use xlink:href="#DejaVuSans-30" transform="translate(186.572266 0.390625)"/>
      <use xlink:href="#DejaVuSans-2e" transform="translate(250.195312 0.390625)"/>
      <use xlink:href="#DejaVuSans-32" transform="translate(276.482422 0.390625)"/>
      <use xlink:href="#DejaVuSans-34" transform="translate(340.105469 0.390625)"/>
     </g>
    </g>
    <g id="line2d_40">
     <path d="M 142.497 267.568345 
L 150.827 267.568345 
L 159.157 267.568345 
" style="fill: none; stroke: #ff7f0e; stroke-width: 1.5; stroke-linecap: square"/>
    </g>
    <g id="text_35">
     <!-- Double Exponential MA -->
     <g transform="translate(165.821 270.483845) scale(0.0833 -0.0833)">
      <defs>
       <path id="DejaVuSans-44" d="M 1259 4147 
L 1259 519 
L 2022 519 
Q 2988 519 3436 956 
Q 3884 1394 3884 2338 
Q 3884 3275 3436 3711 
Q 2988 4147 2022 4147 
L 1259 4147 
z
M 628 4666 
L 1925 4666 
Q 3281 4666 3915 4102 
Q 4550 3538 4550 2338 
Q 4550 1131 3912 565 
Q 3275 0 1925 0 
L 628 0 
L 628 4666 
z
" transform="scale(0.015625)"/>
       <path id="DejaVuSans-75" d="M 544 1381 
L 544 3500 
L 1119 3500 
L 1119 1403 
Q 1119 906 1312 657 
Q 1506 409 1894 409 
Q 2359 409 2629 706 
Q 2900 1003 2900 1516 
L 2900 3500 
L 3475 3500 
L 3475 0 
L 2900 0 
L 2900 538 
Q 2691 219 2414 64 
Q 2138 -91 1772 -91 
Q 1169 -91 856 284 
Q 544 659 544 1381 
z
M 1991 3584 
L 1991 3584 
z
" transform="scale(0.015625)"/>
       <path id="DejaVuSans-62" d="M 3116 1747 
Q 3116 2381 2855 2742 
Q 2594 3103 2138 3103 
Q 1681 3103 1420 2742 
Q 1159 2381 1159 1747 
Q 1159 1113 1420 752 
Q 1681 391 2138 391 
Q 2594 391 2855 752 
Q 3116 1113 3116 1747 
z
M 1159 2969 
Q 1341 3281 1617 3432 
Q 1894 3584 2278 3584 
Q 2916 3584 3314 3078 
Q 3713 2572 3713 1747 
Q 3713 922 3314 415 
Q 2916 -91 2278 -91 
Q 1894 -91 1617 61 
Q 1341 213 1159 525 
L 1159 0 
L 581 0 
L 581 4863 
L 1159 4863 
L 1159 2969 
z
" transform="scale(0.015625)"/>
      </defs>
      <use xlink:href="#DejaVuSans-44"/>
      <use xlink:href="#DejaVuSans-6f" transform="translate(77.001953 0)"/>
      <use xlink:href="#DejaVuSans-75" transform="translate(138.183594 0)"/>
      <use xlink:href="#DejaVuSans-62" transform="translate(201.5625 0)"/>
      <use xlink:href="#DejaVuSans-6c" transform="translate(265.039062 0)"/>
      <use xlink:href="#DejaVuSans-65" transform="translate(292.822266 0)"/>
      <use xlink:href="#DejaVuSans-20" transform="translate(354.345703 0)"/>
      <use xlink:href="#DejaVuSans-45" transform="translate(386.132812 0)"/>
      <use xlink:href="#DejaVuSans-78" transform="translate(449.316406 0)"/>
      <use xlink:href="#DejaVuSans-70" transform="translate(508.496094 0)"/>
      <use xlink:href="#DejaVuSans-6f" transform="translate(571.972656 0)"/>
      <use xlink:href="#DejaVuSans-6e" transform="translate(633.154297 0)"/>
      <use xlink:href="#DejaVuSans-65" transform="translate(696.533203 0)"/>
      <use xlink:href="#DejaVuSans-6e" transform="translate(758.056641 0)"/>
      <use xlink:href="#DejaVuSans-74" transform="translate(821.435547 0)"/>
      <use xlink:href="#DejaVuSans-69" transform="translate(860.644531 0)"/>
      <use xlink:href="#DejaVuSans-61" transform="translate(888.427734 0)"/>
      <use xlink:href="#DejaVuSans-6c" transform="translate(949.707031 0)"/>
      <use xlink:href="#DejaVuSans-20" transform="translate(977.490234 0)"/>
      <use xlink:href="#DejaVuSans-4d" transform="translate(1009.277344 0)"/>
      <use xlink:href="#DejaVuSans-41" transform="translate(1095.556641 0)"/>
     </g>
    </g>
   </g>
  </g>
  <g id="axes_4">
   <g id="patch_20">
    <path d="M 591.545455 356.103529 
L 972 356.103529 
L 972 225.656471 
L 591.545455 225.656471 
z
" style="fill: #ffffff"/>
   </g>
   <g id="matplotlib.axis_7">
    <g id="xtick_19">
     <g id="line2d_41">
      <g>
       <use xlink:href="#mc08c6d7d8c" x="608.838843" y="356.103529" style="stroke: #000000; stroke-width: 0.8"/>
      </g>
     </g>
     <g id="text_36">
      <!-- 0 -->
      <g transform="translate(605.657593 370.701967) scale(0.1 -0.1)">
       <use xlink:href="#DejaVuSans-30"/>
      </g>
     </g>
    </g>
    <g id="xtick_20">
     <g id="line2d_42">
      <g>
       <use xlink:href="#mc08c6d7d8c" x="680.151785" y="356.103529" style="stroke: #000000; stroke-width: 0.8"/>
      </g>
     </g>
     <g id="text_37">
      <!-- 20 -->
      <g transform="translate(673.789285 370.701967) scale(0.1 -0.1)">
       <use xlink:href="#DejaVuSans-32"/>
       <use xlink:href="#DejaVuSans-30" transform="translate(63.623047 0)"/>
      </g>
     </g>
    </g>
    <g id="xtick_21">
     <g id="line2d_43">
      <g>
       <use xlink:href="#mc08c6d7d8c" x="751.464727" y="356.103529" style="stroke: #000000; stroke-width: 0.8"/>
      </g>
     </g>
     <g id="text_38">
      <!-- 40 -->
      <g transform="translate(745.102227 370.701967) scale(0.1 -0.1)">
       <use xlink:href="#DejaVuSans-34"/>
       <use xlink:href="#DejaVuSans-30" transform="translate(63.623047 0)"/>
      </g>
     </g>
    </g>
    <g id="xtick_22">
     <g id="line2d_44">
      <g>
       <use xlink:href="#mc08c6d7d8c" x="822.777669" y="356.103529" style="stroke: #000000; stroke-width: 0.8"/>
      </g>
     </g>
     <g id="text_39">
      <!-- 60 -->
      <g transform="translate(816.415169 370.701967) scale(0.1 -0.1)">
       <use xlink:href="#DejaVuSans-36"/>
       <use xlink:href="#DejaVuSans-30" transform="translate(63.623047 0)"/>
      </g>
     </g>
    </g>
    <g id="xtick_23">
     <g id="line2d_45">
      <g>
       <use xlink:href="#mc08c6d7d8c" x="894.090611" y="356.103529" style="stroke: #000000; stroke-width: 0.8"/>
      </g>
     </g>
     <g id="text_40">
      <!-- 80 -->
      <g transform="translate(887.728111 370.701967) scale(0.1 -0.1)">
       <use xlink:href="#DejaVuSans-38"/>
       <use xlink:href="#DejaVuSans-30" transform="translate(63.623047 0)"/>
      </g>
     </g>
    </g>
    <g id="xtick_24">
     <g id="line2d_46">
      <g>
       <use xlink:href="#mc08c6d7d8c" x="965.403553" y="356.103529" style="stroke: #000000; stroke-width: 0.8"/>
      </g>
     </g>
     <g id="text_41">
      <!-- 100 -->
      <g transform="translate(955.859803 370.701967) scale(0.1 -0.1)">
       <use xlink:href="#DejaVuSans-31"/>
       <use xlink:href="#DejaVuSans-30" transform="translate(63.623047 0)"/>
       <use xlink:href="#DejaVuSans-30" transform="translate(127.246094 0)"/>
      </g>
     </g>
    </g>
   </g>
   <g id="matplotlib.axis_8">
    <g id="ytick_13">
     <g id="line2d_47">
      <g>
       <use xlink:href="#m50d34a51b7" x="591.545455" y="343.163545" style="stroke: #000000; stroke-width: 0.8"/>
      </g>
     </g>
     <g id="text_42">
      <!-- −20 -->
      <g transform="translate(563.440767 346.962764) scale(0.1 -0.1)">
       <use xlink:href="#DejaVuSans-2212"/>
       <use xlink:href="#DejaVuSans-32" transform="translate(83.789062 0)"/>
       <use xlink:href="#DejaVuSans-30" transform="translate(147.412109 0)"/>
      </g>
     </g>
    </g>
    <g id="ytick_14">
     <g id="line2d_48">
      <g>
       <use xlink:href="#m50d34a51b7" x="591.545455" y="315.850922" style="stroke: #000000; stroke-width: 0.8"/>
      </g>
     </g>
     <g id="text_43">
      <!-- −10 -->
      <g transform="translate(563.440767 319.65014) scale(0.1 -0.1)">
       <use xlink:href="#DejaVuSans-2212"/>
       <use xlink:href="#DejaVuSans-31" transform="translate(83.789062 0)"/>
       <use xlink:href="#DejaVuSans-30" transform="translate(147.412109 0)"/>
      </g>
     </g>
    </g>
    <g id="ytick_15">
     <g id="line2d_49">
      <g>
       <use xlink:href="#m50d34a51b7" x="591.545455" y="288.538298" style="stroke: #000000; stroke-width: 0.8"/>
      </g>
     </g>
     <g id="text_44">
      <!-- 0 -->
      <g transform="translate(578.182955 292.337517) scale(0.1 -0.1)">
       <use xlink:href="#DejaVuSans-30"/>
      </g>
     </g>
    </g>
    <g id="ytick_16">
     <g id="line2d_50">
      <g>
       <use xlink:href="#m50d34a51b7" x="591.545455" y="261.225675" style="stroke: #000000; stroke-width: 0.8"/>
      </g>
     </g>
     <g id="text_45">
      <!-- 10 -->
      <g transform="translate(571.820455 265.024894) scale(0.1 -0.1)">
       <use xlink:href="#DejaVuSans-31"/>
       <use xlink:href="#DejaVuSans-30" transform="translate(63.623047 0)"/>
      </g>
     </g>
    </g>
    <g id="ytick_17">
     <g id="line2d_51">
      <g>
       <use xlink:href="#m50d34a51b7" x="591.545455" y="233.913051" style="stroke: #000000; stroke-width: 0.8"/>
      </g>
     </g>
     <g id="text_46">
      <!-- 20 -->
      <g transform="translate(571.820455 237.71227) scale(0.1 -0.1)">
       <use xlink:href="#DejaVuSans-32"/>
       <use xlink:href="#DejaVuSans-30" transform="translate(63.623047 0)"/>
      </g>
     </g>
    </g>
   </g>
   <g id="line2d_52">
    <path d="M 608.838843 285.186203 
L 612.40449 313.055294 
L 615.970137 315.145224 
L 619.535784 322.373485 
L 623.101431 299.136948 
L 626.667078 290.184586 
L 630.232726 310.586343 
L 633.798373 350.174118 
L 637.36402 288.347093 
L 640.929667 306.43922 
L 644.495314 301.321779 
L 648.060961 291.112236 
L 651.626608 296.066078 
L 655.192255 271.921691 
L 658.757902 265.564625 
L 662.323549 286.683506 
L 665.889197 305.480427 
L 669.454844 268.229648 
L 673.020491 320.773636 
L 676.586138 252.206253 
L 680.151785 259.708774 
L 683.717432 281.639083 
L 687.283079 320.170166 
L 690.848726 271.544558 
L 694.414373 286.957776 
L 697.98002 274.082874 
L 701.545668 275.00762 
L 705.111315 327.208451 
L 708.676962 274.014764 
L 712.242609 240.698408 
L 715.808256 310.530466 
L 719.373903 276.531633 
L 722.93955 296.893662 
L 726.505197 328.550342 
L 730.070844 238.760044 
L 733.636491 260.862551 
L 737.202139 326.171507 
L 740.767786 326.280895 
L 744.333433 274.153047 
L 747.89908 321.423001 
L 751.464727 284.742979 
L 755.030374 293.561282 
L 758.596021 304.3804 
L 762.161668 290.328526 
L 765.727315 231.585882 
L 769.292962 294.532086 
L 772.85861 300.835407 
L 776.424257 312.156431 
L 779.989904 280.761439 
L 783.555551 257.802022 
L 787.121198 257.780318 
L 790.686845 297.317047 
L 794.252492 305.388279 
L 797.818139 288.373637 
L 801.383786 259.21979 
L 804.949433 293.429726 
L 808.515081 283.609699 
L 812.080728 318.321522 
L 815.646375 309.667943 
L 819.212022 260.290395 
L 822.777669 281.519285 
L 826.343316 310.925892 
L 829.908963 284.600556 
L 833.47461 288.016612 
L 837.040257 274.895538 
L 840.605904 304.136589 
L 844.171552 274.462714 
L 847.737199 318.185153 
L 851.302846 271.464231 
L 854.868493 286.870677 
L 858.43414 310.884698 
L 861.999787 300.324821 
L 865.565434 291.708002 
L 869.131081 256.814119 
L 872.696728 246.136168 
L 876.262375 294.336176 
L 879.828022 291.109023 
L 883.39367 277.829083 
L 886.959317 301.206428 
L 890.524964 277.232317 
L 894.090611 270.223434 
L 897.656258 294.094322 
L 901.221905 283.158477 
L 904.787552 305.38636 
L 908.353199 279.659289 
L 911.918846 287.522963 
L 915.484493 263.937767 
L 919.050141 329.63249 
L 922.615788 313.008059 
L 926.181435 278.419218 
L 929.747082 307.002714 
L 933.312729 309.295733 
L 936.878376 276.030132 
L 940.444023 291.48507 
L 944.00967 277.111104 
L 947.575317 247.937521 
L 951.140964 289.134831 
L 954.706612 302.605945 
" clip-path="url(#p661dbb83d9)" style="fill: none; stroke: #1f77b4; stroke-width: 1.5; stroke-linecap: square"/>
   </g>
   <g id="patch_21">
    <path d="M 591.545455 356.103529 
L 591.545455 225.656471 
" style="fill: none; stroke: #000000; stroke-width: 0.8; stroke-linejoin: miter; stroke-linecap: square"/>
   </g>
   <g id="patch_22">
    <path d="M 972 356.103529 
L 972 225.656471 
" style="fill: none; stroke: #000000; stroke-width: 0.8; stroke-linejoin: miter; stroke-linecap: square"/>
   </g>
   <g id="patch_23">
    <path d="M 591.545455 356.103529 
L 972 356.103529 
" style="fill: none; stroke: #000000; stroke-width: 0.8; stroke-linejoin: miter; stroke-linecap: square"/>
   </g>
   <g id="patch_24">
    <path d="M 591.545455 225.656471 
L 972 225.656471 
" style="fill: none; stroke: #000000; stroke-width: 0.8; stroke-linejoin: miter; stroke-linecap: square"/>
   </g>
   <g id="legend_4">
    <g id="patch_25">
     <path d="M 919.21253 244.547349 
L 966.169 244.547349 
Q 967.835 244.547349 967.835 242.881349 
L 967.835 231.487471 
Q 967.835 229.821471 966.169 229.821471 
L 919.21253 229.821471 
Q 917.54653 229.821471 917.54653 231.487471 
L 917.54653 242.881349 
Q 917.54653 244.547349 919.21253 244.547349 
z
" style="fill: #ffffff; opacity: 0.8; stroke: #cccccc; stroke-linejoin: miter"/>
    </g>
    <g id="line2d_53">
     <path d="M 920.87853 236.567469 
L 929.20853 236.567469 
L 937.53853 236.567469 
" style="fill: none; stroke: #1f77b4; stroke-width: 1.5; stroke-linecap: square"/>
    </g>
    <g id="text_47">
     <!-- Error -->
     <g transform="translate(944.20253 239.482969) scale(0.0833 -0.0833)">
      <use xlink:href="#DejaVuSans-45"/>
      <use xlink:href="#DejaVuSans-72" transform="translate(63.183594 0)"/>
      <use xlink:href="#DejaVuSans-72" transform="translate(102.546875 0)"/>
      <use xlink:href="#DejaVuSans-6f" transform="translate(141.410156 0)"/>
      <use xlink:href="#DejaVuSans-72" transform="translate(202.591797 0)"/>
     </g>
    </g>
   </g>
  </g>
  <g id="axes_5">
   <g id="patch_26">
    <path d="M 135 512.64 
L 515.454545 512.64 
L 515.454545 382.192941 
L 135 382.192941 
z
" style="fill: #ffffff"/>
   </g>
   <g id="matplotlib.axis_9">
    <g id="xtick_25">
     <g id="line2d_54">
      <g>
       <use xlink:href="#mc08c6d7d8c" x="172.880756" y="512.64" style="stroke: #000000; stroke-width: 0.8"/>
      </g>
     </g>
     <g id="text_48">
      <!-- 20 -->
      <g transform="translate(166.518256 527.238438) scale(0.1 -0.1)">
       <use xlink:href="#DejaVuSans-32"/>
       <use xlink:href="#DejaVuSans-30" transform="translate(63.623047 0)"/>
      </g>
     </g>
    </g>
    <g id="xtick_26">
     <g id="line2d_55">
      <g>
       <use xlink:href="#mc08c6d7d8c" x="255.230224" y="512.64" style="stroke: #000000; stroke-width: 0.8"/>
      </g>
     </g>
     <g id="text_49">
      <!-- 40 -->
      <g transform="translate(248.867724 527.238438) scale(0.1 -0.1)">
       <use xlink:href="#DejaVuSans-34"/>
       <use xlink:href="#DejaVuSans-30" transform="translate(63.623047 0)"/>
      </g>
     </g>
    </g>
    <g id="xtick_27">
     <g id="line2d_56">
      <g>
       <use xlink:href="#mc08c6d7d8c" x="337.579693" y="512.64" style="stroke: #000000; stroke-width: 0.8"/>
      </g>
     </g>
     <g id="text_50">
      <!-- 60 -->
      <g transform="translate(331.217193 527.238438) scale(0.1 -0.1)">
       <use xlink:href="#DejaVuSans-36"/>
       <use xlink:href="#DejaVuSans-30" transform="translate(63.623047 0)"/>
      </g>
     </g>
    </g>
    <g id="xtick_28">
     <g id="line2d_57">
      <g>
       <use xlink:href="#mc08c6d7d8c" x="419.929162" y="512.64" style="stroke: #000000; stroke-width: 0.8"/>
      </g>
     </g>
     <g id="text_51">
      <!-- 80 -->
      <g transform="translate(413.566662 527.238438) scale(0.1 -0.1)">
       <use xlink:href="#DejaVuSans-38"/>
       <use xlink:href="#DejaVuSans-30" transform="translate(63.623047 0)"/>
      </g>
     </g>
    </g>
    <g id="xtick_29">
     <g id="line2d_58">
      <g>
       <use xlink:href="#mc08c6d7d8c" x="502.27863" y="512.64" style="stroke: #000000; stroke-width: 0.8"/>
      </g>
     </g>
     <g id="text_52">
      <!-- 100 -->
      <g transform="translate(492.73488 527.238438) scale(0.1 -0.1)">
       <use xlink:href="#DejaVuSans-31"/>
       <use xlink:href="#DejaVuSans-30" transform="translate(63.623047 0)"/>
       <use xlink:href="#DejaVuSans-30" transform="translate(127.246094 0)"/>
      </g>
     </g>
    </g>
   </g>
   <g id="matplotlib.axis_10">
    <g id="ytick_18">
     <g id="line2d_59">
      <g>
       <use xlink:href="#m50d34a51b7" x="135" y="494.369606" style="stroke: #000000; stroke-width: 0.8"/>
      </g>
     </g>
     <g id="text_53">
      <!-- 0 -->
      <g transform="translate(121.6375 498.168825) scale(0.1 -0.1)">
       <use xlink:href="#DejaVuSans-30"/>
      </g>
     </g>
    </g>
    <g id="ytick_19">
     <g id="line2d_60">
      <g>
       <use xlink:href="#m50d34a51b7" x="135" y="464.237885" style="stroke: #000000; stroke-width: 0.8"/>
      </g>
     </g>
     <g id="text_54">
      <!-- 20 -->
      <g transform="translate(115.275 468.037104) scale(0.1 -0.1)">
       <use xlink:href="#DejaVuSans-32"/>
       <use xlink:href="#DejaVuSans-30" transform="translate(63.623047 0)"/>
      </g>
     </g>
    </g>
    <g id="ytick_20">
     <g id="line2d_61">
      <g>
       <use xlink:href="#m50d34a51b7" x="135" y="434.106164" style="stroke: #000000; stroke-width: 0.8"/>
      </g>
     </g>
     <g id="text_55">
      <!-- 40 -->
      <g transform="translate(115.275 437.905383) scale(0.1 -0.1)">
       <use xlink:href="#DejaVuSans-34"/>
       <use xlink:href="#DejaVuSans-30" transform="translate(63.623047 0)"/>
      </g>
     </g>
    </g>
    <g id="ytick_21">
     <g id="line2d_62">
      <g>
       <use xlink:href="#m50d34a51b7" x="135" y="403.974443" style="stroke: #000000; stroke-width: 0.8"/>
      </g>
     </g>
     <g id="text_56">
      <!-- 60 -->
      <g transform="translate(115.275 407.773661) scale(0.1 -0.1)">
       <use xlink:href="#DejaVuSans-36"/>
       <use xlink:href="#DejaVuSans-30" transform="translate(63.623047 0)"/>
      </g>
     </g>
    </g>
   </g>
   <g id="line2d_63">
    <path d="M 152.293388 482.097617 
L 156.410862 477.69437 
L 160.528335 487.075564 
L 164.645809 497.583269 
L 168.763282 479.828367 
L 172.880756 506.710588 
L 176.998229 473.789234 
L 181.115702 473.84843 
L 185.233176 481.946931 
L 189.350649 501.56566 
L 193.468123 478.462746 
L 197.585596 484.556829 
L 201.70307 476.797663 
L 205.820543 474.754444 
L 209.938017 500.731219 
L 214.05549 475.710902 
L 218.172963 455.063913 
L 222.290437 486.121196 
L 226.40791 468.637769 
L 230.525384 476.852592 
L 234.642857 493.897527 
L 238.760331 448.736183 
L 242.877804 453.475544 
L 246.995277 483.859951 
L 251.112751 486.916447 
L 255.230224 462.208711 
L 259.347698 485.866297 
L 263.465171 469.622764 
L 267.582645 474.102458 
L 271.700118 480.850376 
L 275.817591 475.574125 
L 279.935065 444.059615 
L 284.052538 471.266225 
L 288.170012 474.720088 
L 292.287485 482.013521 
L 296.404959 467.711507 
L 300.522432 454.19436 
L 304.639906 449.812369 
L 308.757379 466.40309 
L 312.874852 470.480722 
L 316.992326 462.123497 
L 321.109799 445.0851 
L 325.227273 458.799124 
L 329.344746 452.342484 
L 333.46222 469.171399 
L 337.579693 466.938903 
L 341.697166 441.81627 
L 345.81464 449.116485 
L 349.932113 463.205763 
L 354.049587 450.591302 
L 358.16706 451.209826 
L 362.284534 443.089637 
L 366.402007 456.434368 
L 370.519481 441.113699 
L 374.636954 462.437954 
L 378.754427 439.777339 
L 382.871901 445.478849 
L 386.989374 457.675887 
L 391.106848 454.211285 
L 395.224321 450.913284 
L 399.341795 432.204751 
L 403.459268 421.920081 
L 407.576741 441.704415 
L 411.694215 438.891143 
L 415.811688 430.227688 
L 419.929162 439.944467 
L 424.046635 426.611243 
L 428.164109 419.534715 
L 432.281582 428.172396 
L 436.399055 420.54179 
L 440.516529 429.783704 
L 444.634002 415.623824 
L 448.751476 416.754071 
L 452.868949 401.424318 
L 456.986423 431.920436 
L 461.103896 425.785386 
L 465.22137 408.478536 
L 469.338843 421.713626 
L 473.456316 424.281467 
L 477.57379 408.072408 
L 481.691263 414.521919 
L 485.808737 406.397581 
L 489.92621 388.122353 
L 494.043684 404.152286 
L 498.161157 409.700135 
" clip-path="url(#p996ba16adf)" style="fill: none; stroke: #1f77b4; stroke-width: 1.5; stroke-linecap: square"/>
   </g>
   <g id="line2d_64">
    <path d="M 152.293388 488.004934 
L 156.410862 482.79579 
L 160.528335 475.718212 
L 164.645809 486.124783 
L 168.763282 486.346381 
L 172.880756 489.621813 
L 176.998229 478.94003 
L 181.115702 472.818529 
L 185.233176 482.139854 
L 189.350649 504.976358 
L 193.468123 478.016787 
L 197.585596 488.091737 
L 201.70307 487.774287 
L 205.820543 484.009362 
L 209.938017 487.465807 
L 214.05549 481.70209 
L 218.172963 476.736901 
L 222.290437 472.763973 
L 226.40791 483.144492 
L 230.525384 477.781962 
L 234.642857 486.506944 
L 238.760331 469.815325 
L 242.877804 463.985742 
L 246.995277 471.907817 
L 251.112751 493.911683 
L 255.230224 467.141418 
L 259.347698 475.441848 
L 263.465171 473.431216 
L 267.582645 469.943285 
L 271.700118 478.908052 
L 275.817591 467.768146 
L 279.935065 459.410416 
L 284.052538 463.714897 
L 288.170012 467.059827 
L 292.287485 465.711974 
L 296.404959 477.170206 
L 300.522432 453.113893 
L 304.639906 450.83361 
L 308.757379 464.667194 
L 312.874852 481.988367 
L 316.992326 455.667943 
L 321.109799 468.24522 
L 325.227273 461.496143 
L 329.344746 459.839061 
L 333.46222 467.628568 
L 337.579693 457.63669 
L 341.697166 443.715166 
L 345.81464 453.872898 
L 349.932113 456.575291 
L 354.049587 457.002866 
L 358.16706 461.114714 
L 362.284534 439.112463 
L 366.402007 436.062401 
L 370.519481 451.189338 
L 374.636954 464.663402 
L 378.754427 442.72649 
L 382.871901 447.708587 
L 386.989374 446.516932 
L 391.106848 444.326319 
L 395.224321 455.13664 
L 399.341795 446.898093 
L 403.459268 429.340605 
L 407.576741 438.49555 
L 411.694215 444.129488 
L 415.811688 440.870061 
L 419.929162 443.810595 
L 424.046635 425.162294 
L 428.164109 425.666177 
L 432.281582 432.172296 
L 436.399055 447.365178 
L 440.516529 423.701914 
L 444.634002 428.678334 
L 448.751476 429.571602 
L 452.868949 425.263311 
L 456.986423 430.250639 
L 461.103896 418.654328 
L 465.22137 402.740414 
L 469.338843 414.103168 
L 473.456316 417.165952 
L 477.57379 412.494755 
L 481.691263 416.710086 
L 485.808737 398.820688 
L 489.92621 397.287087 
L 494.043684 403.662697 
L 498.161157 413.218547 
" clip-path="url(#p996ba16adf)" style="fill: none; stroke: #ff7f0e; stroke-width: 1.5; stroke-linecap: square"/>
   </g>
   <g id="patch_27">
    <path d="M 135 512.64 
L 135 382.192941 
" style="fill: none; stroke: #000000; stroke-width: 0.8; stroke-linejoin: miter; stroke-linecap: square"/>
   </g>
   <g id="patch_28">
    <path d="M 515.454545 512.64 
L 515.454545 382.192941 
" style="fill: none; stroke: #000000; stroke-width: 0.8; stroke-linejoin: miter; stroke-linecap: square"/>
   </g>
   <g id="patch_29">
    <path d="M 135 512.64 
L 515.454545 512.64 
" style="fill: none; stroke: #000000; stroke-width: 0.8; stroke-linejoin: miter; stroke-linecap: square"/>
   </g>
   <g id="patch_30">
    <path d="M 135 382.192941 
L 515.454545 382.192941 
" style="fill: none; stroke: #000000; stroke-width: 0.8; stroke-linejoin: miter; stroke-linecap: square"/>
   </g>
   <g id="legend_5">
    <g id="patch_31">
     <path d="M 139.2 424.860254 
L 223.058438 424.860254 
Q 224.258438 424.860254 224.258438 423.660254 
L 224.258438 386.392941 
Q 224.258438 385.192941 223.058438 385.192941 
L 139.2 385.192941 
Q 138 385.192941 138 386.392941 
L 138 423.660254 
Q 138 424.860254 139.2 424.860254 
z
" style="fill: #ffffff; opacity: 0.8; stroke: #cccccc; stroke-linejoin: miter"/>
    </g>
    <g id="line2d_65">
     <path d="M 140.4 400.802691 
L 146.4 400.802691 
L 152.4 400.802691 
" style="fill: none; stroke: #1f77b4; stroke-width: 1.5; stroke-linecap: square"/>
    </g>
    <g id="text_57">
     <!-- Noisy series -->
     <g transform="translate(157.2 392.152004) scale(0.06 -0.06)">
      <use xlink:href="#DejaVuSans-4e"/>
      <use xlink:href="#DejaVuSans-6f" transform="translate(74.804688 0)"/>
      <use xlink:href="#DejaVuSans-69" transform="translate(135.986328 0)"/>
      <use xlink:href="#DejaVuSans-73" transform="translate(163.769531 0)"/>
      <use xlink:href="#DejaVuSans-79" transform="translate(215.869141 0)"/>
      <use xlink:href="#DejaVuSans-20" transform="translate(275.048828 0)"/>
      <use xlink:href="#DejaVuSans-73" transform="translate(306.835938 0)"/>
      <use xlink:href="#DejaVuSans-65" transform="translate(358.935547 0)"/>
      <use xlink:href="#DejaVuSans-72" transform="translate(420.458984 0)"/>
      <use xlink:href="#DejaVuSans-69" transform="translate(461.572266 0)"/>
      <use xlink:href="#DejaVuSans-65" transform="translate(489.355469 0)"/>
      <use xlink:href="#DejaVuSans-73" transform="translate(550.878906 0)"/>
     </g>
     <!-- $\alpha=0.21$ -->
     <g transform="translate(157.2 398.870691) scale(0.06 -0.06)">
      <use xlink:href="#DejaVuSans-Oblique-3b1" transform="translate(0 0.78125)"/>
      <use xlink:href="#DejaVuSans-3d" transform="translate(85.400391 0.78125)"/>
      <use xlink:href="#DejaVuSans-30" transform="translate(188.671875 0.78125)"/>
      <use xlink:href="#DejaVuSans-2e" transform="translate(252.294922 0.78125)"/>
      <use xlink:href="#DejaVuSans-32" transform="translate(278.582031 0.78125)"/>
      <use xlink:href="#DejaVuSans-31" transform="translate(342.205078 0.78125)"/>
     </g>
     <!-- $\beta=0.26$ -->
     <g transform="translate(157.2 405.662504) scale(0.06 -0.06)">
      <use xlink:href="#DejaVuSans-Oblique-3b2" transform="translate(0 0.390625)"/>
      <use xlink:href="#DejaVuSans-3d" transform="translate(83.300781 0.390625)"/>
      <use xlink:href="#DejaVuSans-30" transform="translate(186.572266 0.390625)"/>
      <use xlink:href="#DejaVuSans-2e" transform="translate(250.195312 0.390625)"/>
      <use xlink:href="#DejaVuSans-32" transform="translate(276.482422 0.390625)"/>
      <use xlink:href="#DejaVuSans-36" transform="translate(340.105469 0.390625)"/>
     </g>
     <!-- $\gamma=0.24$ -->
     <g transform="translate(157.2 412.393379) scale(0.06 -0.06)">
      <defs>
       <path id="DejaVuSans-Oblique-3b3" d="M 1491 2950 
L 1838 788 
L 3456 3500 
L 4066 3500 
L 1972 0 
L 1713 -1331 
L 1138 -1331 
L 1397 0 
L 988 2613 
Q 925 3006 628 3006 
L 475 3006 
L 569 3500 
L 788 3500 
Q 1403 3500 1491 2950 
z
" transform="scale(0.015625)"/>
      </defs>
      <use xlink:href="#DejaVuSans-Oblique-3b3" transform="translate(0 0.78125)"/>
      <use xlink:href="#DejaVuSans-3d" transform="translate(78.662109 0.78125)"/>
      <use xlink:href="#DejaVuSans-30" transform="translate(181.933594 0.78125)"/>
      <use xlink:href="#DejaVuSans-2e" transform="translate(245.556641 0.78125)"/>
      <use xlink:href="#DejaVuSans-32" transform="translate(271.84375 0.78125)"/>
      <use xlink:href="#DejaVuSans-34" transform="translate(335.466797 0.78125)"/>
     </g>
    </g>
    <g id="line2d_66">
     <path d="M 140.4 419.112441 
L 146.4 419.112441 
L 152.4 419.112441 
" style="fill: none; stroke: #ff7f0e; stroke-width: 1.5; stroke-linecap: square"/>
    </g>
    <g id="text_58">
     <!-- Triple Exponential MA -->
     <g transform="translate(157.2 421.212441) scale(0.06 -0.06)">
      <defs>
       <path id="DejaVuSans-54" d="M -19 4666 
L 3928 4666 
L 3928 4134 
L 2272 4134 
L 2272 0 
L 1638 0 
L 1638 4134 
L -19 4134 
L -19 4666 
z
" transform="scale(0.015625)"/>
      </defs>
      <use xlink:href="#DejaVuSans-54"/>
      <use xlink:href="#DejaVuSans-72" transform="translate(46.333984 0)"/>
      <use xlink:href="#DejaVuSans-69" transform="translate(87.447266 0)"/>
      <use xlink:href="#DejaVuSans-70" transform="translate(115.230469 0)"/>
      <use xlink:href="#DejaVuSans-6c" transform="translate(178.707031 0)"/>
      <use xlink:href="#DejaVuSans-65" transform="translate(206.490234 0)"/>
      <use xlink:href="#DejaVuSans-20" transform="translate(268.013672 0)"/>
      <use xlink:href="#DejaVuSans-45" transform="translate(299.800781 0)"/>
      <use xlink:href="#DejaVuSans-78" transform="translate(362.984375 0)"/>
      <use xlink:href="#DejaVuSans-70" transform="translate(422.164062 0)"/>
      <use xlink:href="#DejaVuSans-6f" transform="translate(485.640625 0)"/>
      <use xlink:href="#DejaVuSans-6e" transform="translate(546.822266 0)"/>
      <use xlink:href="#DejaVuSans-65" transform="translate(610.201172 0)"/>
      <use xlink:href="#DejaVuSans-6e" transform="translate(671.724609 0)"/>
      <use xlink:href="#DejaVuSans-74" transform="translate(735.103516 0)"/>
      <use xlink:href="#DejaVuSans-69" transform="translate(774.3125 0)"/>
      <use xlink:href="#DejaVuSans-61" transform="translate(802.095703 0)"/>
      <use xlink:href="#DejaVuSans-6c" transform="translate(863.375 0)"/>
      <use xlink:href="#DejaVuSans-20" transform="translate(891.158203 0)"/>
      <use xlink:href="#DejaVuSans-4d" transform="translate(922.945312 0)"/>
      <use xlink:href="#DejaVuSans-41" transform="translate(1009.224609 0)"/>
     </g>
    </g>
   </g>
  </g>
  <g id="axes_6">
   <g id="patch_32">
    <path d="M 591.545455 512.64 
L 972 512.64 
L 972 382.192941 
L 591.545455 382.192941 
z
" style="fill: #ffffff"/>
   </g>
   <g id="matplotlib.axis_11">
    <g id="xtick_30">
     <g id="line2d_67">
      <g>
       <use xlink:href="#mc08c6d7d8c" x="629.42621" y="512.64" style="stroke: #000000; stroke-width: 0.8"/>
      </g>
     </g>
     <g id="text_59">
      <!-- 20 -->
      <g transform="translate(623.06371 527.238438) scale(0.1 -0.1)">
       <use xlink:href="#DejaVuSans-32"/>
       <use xlink:href="#DejaVuSans-30" transform="translate(63.623047 0)"/>
      </g>
     </g>
    </g>
    <g id="xtick_31">
     <g id="line2d_68">
      <g>
       <use xlink:href="#mc08c6d7d8c" x="711.775679" y="512.64" style="stroke: #000000; stroke-width: 0.8"/>
      </g>
     </g>
     <g id="text_60">
      <!-- 40 -->
      <g transform="translate(705.413179 527.238438) scale(0.1 -0.1)">
       <use xlink:href="#DejaVuSans-34"/>
       <use xlink:href="#DejaVuSans-30" transform="translate(63.623047 0)"/>
      </g>
     </g>
    </g>
    <g id="xtick_32">
     <g id="line2d_69">
      <g>
       <use xlink:href="#mc08c6d7d8c" x="794.125148" y="512.64" style="stroke: #000000; stroke-width: 0.8"/>
      </g>
     </g>
     <g id="text_61">
      <!-- 60 -->
      <g transform="translate(787.762648 527.238438) scale(0.1 -0.1)">
       <use xlink:href="#DejaVuSans-36"/>
       <use xlink:href="#DejaVuSans-30" transform="translate(63.623047 0)"/>
      </g>
     </g>
    </g>
    <g id="xtick_33">
     <g id="line2d_70">
      <g>
       <use xlink:href="#mc08c6d7d8c" x="876.474616" y="512.64" style="stroke: #000000; stroke-width: 0.8"/>
      </g>
     </g>
     <g id="text_62">
      <!-- 80 -->
      <g transform="translate(870.112116 527.238438) scale(0.1 -0.1)">
       <use xlink:href="#DejaVuSans-38"/>
       <use xlink:href="#DejaVuSans-30" transform="translate(63.623047 0)"/>
      </g>
     </g>
    </g>
    <g id="xtick_34">
     <g id="line2d_71">
      <g>
       <use xlink:href="#mc08c6d7d8c" x="958.824085" y="512.64" style="stroke: #000000; stroke-width: 0.8"/>
      </g>
     </g>
     <g id="text_63">
      <!-- 100 -->
      <g transform="translate(949.280335 527.238438) scale(0.1 -0.1)">
       <use xlink:href="#DejaVuSans-31"/>
       <use xlink:href="#DejaVuSans-30" transform="translate(63.623047 0)"/>
       <use xlink:href="#DejaVuSans-30" transform="translate(127.246094 0)"/>
      </g>
     </g>
    </g>
   </g>
   <g id="matplotlib.axis_12">
    <g id="ytick_22">
     <g id="line2d_72">
      <g>
       <use xlink:href="#m50d34a51b7" x="591.545455" y="493.377883" style="stroke: #000000; stroke-width: 0.8"/>
      </g>
     </g>
     <g id="text_64">
      <!-- −10 -->
      <g transform="translate(563.440767 497.177101) scale(0.1 -0.1)">
       <use xlink:href="#DejaVuSans-2212"/>
       <use xlink:href="#DejaVuSans-31" transform="translate(83.789062 0)"/>
       <use xlink:href="#DejaVuSans-30" transform="translate(147.412109 0)"/>
      </g>
     </g>
    </g>
    <g id="ytick_23">
     <g id="line2d_73">
      <g>
       <use xlink:href="#m50d34a51b7" x="591.545455" y="455.521745" style="stroke: #000000; stroke-width: 0.8"/>
      </g>
     </g>
     <g id="text_65">
      <!-- 0 -->
      <g transform="translate(578.182955 459.320964) scale(0.1 -0.1)">
       <use xlink:href="#DejaVuSans-30"/>
      </g>
     </g>
    </g>
    <g id="ytick_24">
     <g id="line2d_74">
      <g>
       <use xlink:href="#m50d34a51b7" x="591.545455" y="417.665608" style="stroke: #000000; stroke-width: 0.8"/>
      </g>
     </g>
     <g id="text_66">
      <!-- 10 -->
      <g transform="translate(571.820455 421.464827) scale(0.1 -0.1)">
       <use xlink:href="#DejaVuSans-31"/>
       <use xlink:href="#DejaVuSans-30" transform="translate(63.623047 0)"/>
      </g>
     </g>
    </g>
   </g>
   <g id="line2d_75">
    <path d="M 608.838843 440.678373 
L 612.956316 442.703356 
L 617.07379 484.059475 
L 621.191263 484.313597 
L 625.308737 439.143867 
L 629.42621 498.460881 
L 633.543684 442.579289 
L 637.661157 458.109589 
L 641.77863 455.036984 
L 645.896104 446.951649 
L 650.013577 456.642311 
L 654.131051 446.639546 
L 658.248524 427.940673 
L 662.365998 432.266822 
L 666.483471 488.853878 
L 670.600945 440.46763 
L 674.718418 401.063813 
L 678.835891 489.08457 
L 682.953365 419.070557 
L 687.070838 453.186509 
L 691.188312 474.092136 
L 695.305785 402.555977 
L 699.423259 429.112666 
L 703.540732 485.55399 
L 707.658205 437.944748 
L 711.775679 443.127284 
L 715.893152 481.715361 
L 720.010626 445.95221 
L 724.128099 465.972541 
L 728.245573 460.402244 
L 732.363046 475.135907 
L 736.480519 416.949635 
L 740.597993 474.496042 
L 744.715466 474.769759 
L 748.83294 496.482804 
L 752.950413 431.754778 
L 757.067887 458.236644 
L 761.18536 452.955664 
L 765.302834 459.883548 
L 769.420307 426.606372 
L 773.53778 471.742679 
L 777.655254 397.327084 
L 781.772727 448.744917 
L 785.890201 436.685021 
L 790.007674 459.398432 
L 794.125148 478.895507 
L 798.242621 450.750372 
L 802.360094 443.57026 
L 806.477568 472.182197 
L 810.595041 439.411346 
L 814.712515 430.633635 
L 818.829988 465.51523 
L 822.947462 506.710588 
L 827.064935 430.204586 
L 831.182409 449.92984 
L 835.299882 448.111383 
L 839.417355 449.919059 
L 843.534829 483.560961 
L 847.652302 480.359796 
L 851.769776 444.909678 
L 855.887249 418.601637 
L 860.004723 436.876121 
L 864.122196 463.584694 
L 868.239669 442.359303 
L 872.357143 428.780549 
L 876.474616 445.807286 
L 880.59209 459.162536 
L 884.709563 440.115158 
L 888.827037 445.471158 
L 892.94451 388.122353 
L 897.061983 470.803519 
L 901.179457 422.719549 
L 905.29693 423.315008 
L 909.414404 395.621273 
L 913.531877 459.717459 
L 917.649351 473.440026 
L 921.766824 469.939979 
L 925.884298 474.644618 
L 930.001771 473.40097 
L 934.119244 444.409672 
L 938.236718 450.023517 
L 942.354191 474.560279 
L 946.471665 432.493428 
L 950.589138 456.751941 
L 954.706612 446.680996 
" clip-path="url(#p4916cba071)" style="fill: none; stroke: #1f77b4; stroke-width: 1.5; stroke-linecap: square"/>
   </g>
   <g id="patch_33">
    <path d="M 591.545455 512.64 
L 591.545455 382.192941 
" style="fill: none; stroke: #000000; stroke-width: 0.8; stroke-linejoin: miter; stroke-linecap: square"/>
   </g>
   <g id="patch_34">
    <path d="M 972 512.64 
L 972 382.192941 
" style="fill: none; stroke: #000000; stroke-width: 0.8; stroke-linejoin: miter; stroke-linecap: square"/>
   </g>
   <g id="patch_35">
    <path d="M 591.545455 512.64 
L 972 512.64 
" style="fill: none; stroke: #000000; stroke-width: 0.8; stroke-linejoin: miter; stroke-linecap: square"/>
   </g>
   <g id="patch_36">
    <path d="M 591.545455 382.192941 
L 972 382.192941 
" style="fill: none; stroke: #000000; stroke-width: 0.8; stroke-linejoin: miter; stroke-linecap: square"/>
   </g>
   <g id="legend_6">
    <g id="patch_37">
     <path d="M 919.21253 401.083819 
L 966.169 401.083819 
Q 967.835 401.083819 967.835 399.417819 
L 967.835 388.023941 
Q 967.835 386.357941 966.169 386.357941 
L 919.21253 386.357941 
Q 917.54653 386.357941 917.54653 388.023941 
L 917.54653 399.417819 
Q 917.54653 401.083819 919.21253 401.083819 
z
" style="fill: #ffffff; opacity: 0.8; stroke: #cccccc; stroke-linejoin: miter"/>
    </g>
    <g id="line2d_76">
     <path d="M 920.87853 393.10394 
L 929.20853 393.10394 
L 937.53853 393.10394 
" style="fill: none; stroke: #1f77b4; stroke-width: 1.5; stroke-linecap: square"/>
    </g>
    <g id="text_67">
     <!-- Error -->
     <g transform="translate(944.20253 396.01944) scale(0.0833 -0.0833)">
      <use xlink:href="#DejaVuSans-45"/>
      <use xlink:href="#DejaVuSans-72" transform="translate(63.183594 0)"/>
      <use xlink:href="#DejaVuSans-72" transform="translate(102.546875 0)"/>
      <use xlink:href="#DejaVuSans-6f" transform="translate(141.410156 0)"/>
      <use xlink:href="#DejaVuSans-72" transform="translate(202.591797 0)"/>
     </g>
    </g>
   </g>
  </g>
 </g>
 <defs>
  <clipPath id="pafefea49a8">
   <rect x="135" y="69.12" width="380.454545" height="130.447059"/>
  </clipPath>
  <clipPath id="p8809f55a97">
   <rect x="591.545455" y="69.12" width="380.454545" height="130.447059"/>
  </clipPath>
  <clipPath id="pe05f740373">
   <rect x="135" y="225.656471" width="380.454545" height="130.447059"/>
  </clipPath>
  <clipPath id="p661dbb83d9">
   <rect x="591.545455" y="225.656471" width="380.454545" height="130.447059"/>
  </clipPath>
  <clipPath id="p996ba16adf">
   <rect x="135" y="382.192941" width="380.454545" height="130.447059"/>
  </clipPath>
  <clipPath id="p4916cba071">
   <rect x="591.545455" y="382.192941" width="380.454545" height="130.447059"/>
  </clipPath>
 </defs>
</svg>
