<?xml version="1.0" encoding="utf-8" standalone="no"?>
<!DOCTYPE svg PUBLIC "-//W3C//DTD SVG 1.1//EN"
  "http://www.w3.org/Graphics/SVG/1.1/DTD/svg11.dtd">
<svg xmlns:xlink="http://www.w3.org/1999/xlink" width="720pt" height="432pt" viewBox="0 0 720 432" xmlns="http://www.w3.org/2000/svg" version="1.1">
 <metadata>
  <rdf:RDF xmlns:dc="http://purl.org/dc/elements/1.1/" xmlns:cc="http://creativecommons.org/ns#" xmlns:rdf="http://www.w3.org/1999/02/22-rdf-syntax-ns#">
   <cc:Work>
    <dc:type rdf:resource="http://purl.org/dc/dcmitype/StillImage"/>
    <dc:date>2025-12-16T17:13:18.310548</dc:date>
    <dc:format>image/svg+xml</dc:format>
    <dc:creator>
     <cc:Agent>
      <dc:title>Matplotlib v3.10.8, https://matplotlib.org/</dc:title>
     </cc:Agent>
    </dc:creator>
   </cc:Work>
  </rdf:RDF>
 </metadata>
 <defs>
  <style type="text/css">*{stroke-linejoin: round; stroke-linecap: butt}</style>
 </defs>
 <g id="figure_1">
  <g id="patch_1">
   <path d="M 0 432 
L 720 432 
L 720 0 
L 0 0 
z
" style="fill: #ffffff"/>
  </g>
  <g id="axes_1">
   <g id="patch_2">
    <path d="M 90 384.48 
L 648 384.48 
L 648 51.84 
L 90 51.84 
z
" style="fill: #ffffff"/>
   </g>
   <g id="matplotlib.axis_1">
    <g id="xtick_1">
     <g id="line2d_1">
      <defs>
       <path id="m4d52a062bf" d="M 0 0 
L 0 3.5 
" style="stroke: #000000; stroke-width: 0.8"/>
      </defs>
      <g>
       <use xlink:href="#m4d52a062bf" x="115.363636" y="384.48" style="stroke: #000000; stroke-width: 0.8"/>
      </g>
     </g>
     <g id="text_1">
      <!-- 0 -->
      <g transform="translate(112.182386 399.078438) scale(0.1 -0.1)">
       <defs>
        <path id="DejaVuSans-30" d="M 2034 4250 
Q 1547 4250 1301 3770 
Q 1056 3291 1056 2328 
Q 1056 1369 1301 889 
Q 1547 409 2034 409 
Q 2525 409 2770 889 
Q 3016 1369 3016 2328 
Q 3016 3291 2770 3770 
Q 2525 4250 2034 4250 
z
M 2034 4750 
Q 2819 4750 3233 4129 
Q 3647 3509 3647 2328 
Q 3647 1150 3233 529 
Q 2819 -91 2034 -91 
Q 1250 -91 836 529 
Q 422 1150 422 2328 
Q 422 3509 836 4129 
Q 1250 4750 2034 4750 
z
" transform="scale(0.015625)"/>
       </defs>
       <use xlink:href="#DejaVuSans-30"/>
      </g>
     </g>
    </g>
    <g id="xtick_2">
     <g id="line2d_2">
      <g>
       <use xlink:href="#m4d52a062bf" x="179.091366" y="384.48" style="stroke: #000000; stroke-width: 0.8"/>
      </g>
     </g>
     <g id="text_2">
      <!-- 25 -->
      <g transform="translate(172.728866 399.078438) scale(0.1 -0.1)">
       <defs>
        <path id="DejaVuSans-32" d="M 1228 531 
L 3431 531 
L 3431 0 
L 469 0 
L 469 531 
Q 828 903 1448 1529 
Q 2069 2156 2228 2338 
Q 2531 2678 2651 2914 
Q 2772 3150 2772 3378 
Q 2772 3750 2511 3984 
Q 2250 4219 1831 4219 
Q 1534 4219 1204 4116 
Q 875 4013 500 3803 
L 500 4441 
Q 881 4594 1212 4672 
Q 1544 4750 1819 4750 
Q 2544 4750 2975 4387 
Q 3406 4025 3406 3419 
Q 3406 3131 3298 2873 
Q 3191 2616 2906 2266 
Q 2828 2175 2409 1742 
Q 1991 1309 1228 531 
z
" transform="scale(0.015625)"/>
        <path id="DejaVuSans-35" d="M 691 4666 
L 3169 4666 
L 3169 4134 
L 1269 4134 
L 1269 2991 
Q 1406 3038 1543 3061 
Q 1681 3084 1819 3084 
Q 2600 3084 3056 2656 
Q 3513 2228 3513 1497 
Q 3513 744 3044 326 
Q 2575 -91 1722 -91 
Q 1428 -91 1123 -41 
Q 819 9 494 109 
L 494 744 
Q 775 591 1075 516 
Q 1375 441 1709 441 
Q 2250 441 2565 725 
Q 2881 1009 2881 1497 
Q 2881 1984 2565 2268 
Q 2250 2553 1709 2553 
Q 1456 2553 1204 2497 
Q 953 2441 691 2322 
L 691 4666 
z
" transform="scale(0.015625)"/>
       </defs>
       <use xlink:href="#DejaVuSans-32"/>
       <use xlink:href="#DejaVuSans-35" transform="translate(63.623047 0)"/>
      </g>
     </g>
    </g>
    <g id="xtick_3">
     <g id="line2d_3">
      <g>
       <use xlink:href="#m4d52a062bf" x="242.819095" y="384.48" style="stroke: #000000; stroke-width: 0.8"/>
      </g>
     </g>
     <g id="text_3">
      <!-- 50 -->
      <g transform="translate(236.456595 399.078438) scale(0.1 -0.1)">
       <use xlink:href="#DejaVuSans-35"/>
       <use xlink:href="#DejaVuSans-30" transform="translate(63.623047 0)"/>
      </g>
     </g>
    </g>
    <g id="xtick_4">
     <g id="line2d_4">
      <g>
       <use xlink:href="#m4d52a062bf" x="306.546825" y="384.48" style="stroke: #000000; stroke-width: 0.8"/>
      </g>
     </g>
     <g id="text_4">
      <!-- 75 -->
      <g transform="translate(300.184325 399.078438) scale(0.1 -0.1)">
       <defs>
        <path id="DejaVuSans-37" d="M 525 4666 
L 3525 4666 
L 3525 4397 
L 1831 0 
L 1172 0 
L 2766 4134 
L 525 4134 
L 525 4666 
z
" transform="scale(0.015625)"/>
       </defs>
       <use xlink:href="#DejaVuSans-37"/>
       <use xlink:href="#DejaVuSans-35" transform="translate(63.623047 0)"/>
      </g>
     </g>
    </g>
    <g id="xtick_5">
     <g id="line2d_5">
      <g>
       <use xlink:href="#m4d52a062bf" x="370.274555" y="384.48" style="stroke: #000000; stroke-width: 0.8"/>
      </g>
     </g>
     <g id="text_5">
      <!-- 100 -->
      <g transform="translate(360.730805 399.078438) scale(0.1 -0.1)">
       <defs>
        <path id="DejaVuSans-31" d="M 794 531 
L 1825 531 
L 1825 4091 
L 703 3866 
L 703 4441 
L 1819 4666 
L 2450 4666 
L 2450 531 
L 3481 531 
L 3481 0 
L 794 0 
L 794 531 
z
" transform="scale(0.015625)"/>
       </defs>
       <use xlink:href="#DejaVuSans-31"/>
       <use xlink:href="#DejaVuSans-30" transform="translate(63.623047 0)"/>
       <use xlink:href="#DejaVuSans-30" transform="translate(127.246094 0)"/>
      </g>
     </g>
    </g>
    <g id="xtick_6">
     <g id="line2d_6">
      <g>
       <use xlink:href="#m4d52a062bf" x="434.002284" y="384.48" style="stroke: #000000; stroke-width: 0.8"/>
      </g>
     </g>
     <g id="text_6">
      <!-- 125 -->
      <g transform="translate(424.458534 399.078438) scale(0.1 -0.1)">
       <use xlink:href="#DejaVuSans-31"/>
       <use xlink:href="#DejaVuSans-32" transform="translate(63.623047 0)"/>
       <use xlink:href="#DejaVuSans-35" transform="translate(127.246094 0)"/>
      </g>
     </g>
    </g>
    <g id="xtick_7">
     <g id="line2d_7">
      <g>
       <use xlink:href="#m4d52a062bf" x="497.730014" y="384.48" style="stroke: #000000; stroke-width: 0.8"/>
      </g>
     </g>
     <g id="text_7">
      <!-- 150 -->
      <g transform="translate(488.186264 399.078438) scale(0.1 -0.1)">
       <use xlink:href="#DejaVuSans-31"/>
       <use xlink:href="#DejaVuSans-35" transform="translate(63.623047 0)"/>
       <use xlink:href="#DejaVuSans-30" transform="translate(127.246094 0)"/>
      </g>
     </g>
    </g>
    <g id="xtick_8">
     <g id="line2d_8">
      <g>
       <use xlink:href="#m4d52a062bf" x="561.457743" y="384.48" style="stroke: #000000; stroke-width: 0.8"/>
      </g>
     </g>
     <g id="text_8">
      <!-- 175 -->
      <g transform="translate(551.913993 399.078438) scale(0.1 -0.1)">
       <use xlink:href="#DejaVuSans-31"/>
       <use xlink:href="#DejaVuSans-37" transform="translate(63.623047 0)"/>
       <use xlink:href="#DejaVuSans-35" transform="translate(127.246094 0)"/>
      </g>
     </g>
    </g>
    <g id="xtick_9">
     <g id="line2d_9">
      <g>
       <use xlink:href="#m4d52a062bf" x="625.185473" y="384.48" style="stroke: #000000; stroke-width: 0.8"/>
      </g>
     </g>
     <g id="text_9">
      <!-- 200 -->
      <g transform="translate(615.641723 399.078438) scale(0.1 -0.1)">
       <use xlink:href="#DejaVuSans-32"/>
       <use xlink:href="#DejaVuSans-30" transform="translate(63.623047 0)"/>
       <use xlink:href="#DejaVuSans-30" transform="translate(127.246094 0)"/>
      </g>
     </g>
    </g>
   </g>
   <g id="matplotlib.axis_2">
    <g id="ytick_1">
     <g id="line2d_10">
      <defs>
       <path id="m02c2ca8051" d="M 0 0 
L -3.5 0 
" style="stroke: #000000; stroke-width: 0.8"/>
      </defs>
      <g>
       <use xlink:href="#m02c2ca8051" x="90" y="342.857836" style="stroke: #000000; stroke-width: 0.8"/>
      </g>
     </g>
     <g id="text_10">
      <!-- −20 -->
      <g transform="translate(61.895313 346.657055) scale(0.1 -0.1)">
       <defs>
        <path id="DejaVuSans-2212" d="M 678 2272 
L 4684 2272 
L 4684 1741 
L 678 1741 
L 678 2272 
z
" transform="scale(0.015625)"/>
       </defs>
       <use xlink:href="#DejaVuSans-2212"/>
       <use xlink:href="#DejaVuSans-32" transform="translate(83.789062 0)"/>
       <use xlink:href="#DejaVuSans-30" transform="translate(147.412109 0)"/>
      </g>
     </g>
    </g>
    <g id="ytick_2">
     <g id="line2d_11">
      <g>
       <use xlink:href="#m02c2ca8051" x="90" y="276.558927" style="stroke: #000000; stroke-width: 0.8"/>
      </g>
     </g>
     <g id="text_11">
      <!-- 0 -->
      <g transform="translate(76.6375 280.358146) scale(0.1 -0.1)">
       <use xlink:href="#DejaVuSans-30"/>
      </g>
     </g>
    </g>
    <g id="ytick_3">
     <g id="line2d_12">
      <g>
       <use xlink:href="#m02c2ca8051" x="90" y="210.260018" style="stroke: #000000; stroke-width: 0.8"/>
      </g>
     </g>
     <g id="text_12">
      <!-- 20 -->
      <g transform="translate(70.275 214.059237) scale(0.1 -0.1)">
       <use xlink:href="#DejaVuSans-32"/>
       <use xlink:href="#DejaVuSans-30" transform="translate(63.623047 0)"/>
      </g>
     </g>
    </g>
    <g id="ytick_4">
     <g id="line2d_13">
      <g>
       <use xlink:href="#m02c2ca8051" x="90" y="143.961109" style="stroke: #000000; stroke-width: 0.8"/>
      </g>
     </g>
     <g id="text_13">
      <!-- 40 -->
      <g transform="translate(70.275 147.760328) scale(0.1 -0.1)">
       <defs>
        <path id="DejaVuSans-34" d="M 2419 4116 
L 825 1625 
L 2419 1625 
L 2419 4116 
z
M 2253 4666 
L 3047 4666 
L 3047 1625 
L 3713 1625 
L 3713 1100 
L 3047 1100 
L 3047 0 
L 2419 0 
L 2419 1100 
L 313 1100 
L 313 1709 
L 2253 4666 
z
" transform="scale(0.015625)"/>
       </defs>
       <use xlink:href="#DejaVuSans-34"/>
       <use xlink:href="#DejaVuSans-30" transform="translate(63.623047 0)"/>
      </g>
     </g>
    </g>
    <g id="ytick_5">
     <g id="line2d_14">
      <g>
       <use xlink:href="#m02c2ca8051" x="90" y="77.6622" style="stroke: #000000; stroke-width: 0.8"/>
      </g>
     </g>
     <g id="text_14">
      <!-- 60 -->
      <g transform="translate(70.275 81.461419) scale(0.1 -0.1)">
       <defs>
        <path id="DejaVuSans-36" d="M 2113 2584 
Q 1688 2584 1439 2293 
Q 1191 2003 1191 1497 
Q 1191 994 1439 701 
Q 1688 409 2113 409 
Q 2538 409 2786 701 
Q 3034 994 3034 1497 
Q 3034 2003 2786 2293 
Q 2538 2584 2113 2584 
z
M 3366 4563 
L 3366 3988 
Q 3128 4100 2886 4159 
Q 2644 4219 2406 4219 
Q 1781 4219 1451 3797 
Q 1122 3375 1075 2522 
Q 1259 2794 1537 2939 
Q 1816 3084 2150 3084 
Q 2853 3084 3261 2657 
Q 3669 2231 3669 1497 
Q 3669 778 3244 343 
Q 2819 -91 2113 -91 
Q 1303 -91 875 529 
Q 447 1150 447 2328 
Q 447 3434 972 4092 
Q 1497 4750 2381 4750 
Q 2619 4750 2861 4703 
Q 3103 4656 3366 4563 
z
" transform="scale(0.015625)"/>
       </defs>
       <use xlink:href="#DejaVuSans-36"/>
       <use xlink:href="#DejaVuSans-30" transform="translate(63.623047 0)"/>
      </g>
     </g>
    </g>
   </g>
   <g id="line2d_15">
    <path d="M 115.363636 264.432226 
L 117.912746 269.078251 
L 120.461855 236.488373 
L 123.010964 227.477526 
L 125.560073 219.210765 
L 128.109182 193.977233 
L 130.658291 185.259298 
L 133.207401 195.091368 
L 135.75651 192.718052 
L 138.305619 185.756681 
L 140.854728 189.661121 
L 143.403837 207.655748 
L 145.952947 210.469603 
L 148.502056 224.75532 
L 151.051165 227.463297 
L 153.600274 237.396585 
L 156.149383 248.804325 
L 158.698492 212.155561 
L 161.247602 254.168079 
L 163.796711 209.369106 
L 166.34582 208.67971 
L 168.894929 196.531382 
L 171.444038 222.446157 
L 173.993148 215.722011 
L 176.542257 230.51954 
L 179.091366 199.964392 
L 181.640475 248.520468 
L 184.189584 252.697984 
L 186.738693 265.840005 
L 189.287803 265.664807 
L 191.836912 306.349441 
L 194.386021 326.980548 
L 199.484239 344.029943 
L 202.033349 345.462411 
L 204.582458 369.36 
L 207.131567 351.401606 
L 209.680676 355.323147 
L 212.229785 336.31865 
L 214.778894 322.934162 
L 217.328004 313.716391 
L 219.877113 329.421301 
L 222.426222 293.139664 
L 224.975331 284.823127 
L 227.52444 289.248757 
L 230.07355 258.310205 
L 232.622659 253.599791 
L 235.171768 265.372212 
L 237.720877 223.691594 
L 240.269986 261.886405 
L 242.819095 217.16777 
L 245.368205 275.513174 
L 247.917314 255.312684 
L 250.466423 237.561897 
L 253.015532 234.783299 
L 255.564641 283.52366 
L 258.113751 231.679371 
L 260.66286 245.384295 
L 263.211969 212.330821 
L 265.761078 198.027518 
L 268.310187 173.30716 
L 270.859296 182.175696 
L 273.408406 134.940429 
L 275.957515 134.704111 
L 278.506624 113.603966 
L 281.055733 146.128447 
L 283.604842 153.850374 
L 286.153952 173.835062 
L 288.703061 195.292609 
L 291.25217 166.020811 
L 293.801279 209.225326 
L 296.350388 239.046274 
L 298.899497 204.205876 
L 301.448607 212.740754 
L 303.997716 263.832179 
L 306.546825 285.254963 
L 309.095934 265.469512 
L 311.645043 290.73784 
L 314.194153 267.017211 
L 316.743262 299.42189 
L 319.292371 266.206884 
L 321.84148 270.297441 
L 324.390589 279.588014 
L 326.939698 242.809882 
L 329.488808 283.122741 
L 332.037917 274.909418 
L 334.587026 264.337218 
L 337.136135 236.917094 
L 339.685244 287.728516 
L 342.234354 266.076013 
L 344.783463 286.339516 
L 347.332572 305.069562 
L 349.881681 317.333999 
L 352.43079 327.00237 
L 354.979899 299.855345 
L 357.529009 308.704451 
L 360.078118 258.787671 
L 362.627227 236.50525 
L 365.176336 252.777702 
L 367.725445 228.977274 
L 370.274555 234.192904 
L 372.823664 201.469185 
L 375.372773 196.508348 
L 377.921882 169.663843 
L 380.470991 195.076816 
L 383.020101 145.937925 
L 385.56921 140.221474 
L 388.118319 124.559059 
L 390.667428 147.223682 
L 393.216537 148.715198 
L 395.765646 158.656605 
L 398.314756 132.543761 
L 400.863865 213.075045 
L 403.412974 172.64766 
L 405.962083 161.635207 
L 408.511192 165.467138 
L 411.060302 190.306194 
L 413.609411 189.713281 
L 416.15852 138.64432 
L 418.707629 178.003741 
L 421.256738 133.176313 
L 423.805847 160.669661 
L 426.354957 166.474239 
L 428.904066 132.002015 
L 431.453175 199.098945 
L 434.002284 160.407795 
L 436.551393 161.256199 
L 439.100503 181.420629 
L 441.649612 194.181075 
L 444.198721 249.213269 
L 446.74783 221.937985 
L 449.296939 249.93507 
L 451.846048 291.67249 
L 454.395158 300.306722 
L 456.944267 299.95711 
L 459.493376 278.922385 
L 462.042485 275.682961 
L 464.591594 271.471393 
L 467.140704 237.355653 
L 469.689813 303.642244 
L 472.238922 252.674385 
L 474.788031 221.762681 
L 477.33714 222.820482 
L 479.886249 219.105576 
L 482.435359 192.833335 
L 484.984468 216.050626 
L 487.533577 161.670402 
L 490.082686 175.25422 
L 492.631795 172.767751 
L 495.180905 189.388226 
L 497.730014 198.536452 
L 500.279123 177.06728 
L 502.828232 179.329311 
L 505.377341 174.903486 
L 507.92645 187.651982 
L 510.47556 169.705697 
L 515.573778 159.36925 
L 518.122887 164.124288 
L 520.671996 103.634132 
L 523.221106 90.988321 
L 525.770215 113.889936 
L 528.319324 90.328941 
L 530.868433 76.724839 
L 533.417542 93.351195 
L 535.966651 66.96 
L 538.515761 84.1108 
L 541.06487 116.461081 
L 543.613979 107.924024 
L 546.163088 129.811137 
L 548.712197 117.218949 
L 551.261307 142.13161 
L 553.810416 162.578476 
L 556.359525 170.5625 
L 558.908634 181.397008 
L 561.457743 184.298866 
L 564.006852 217.742443 
L 566.555962 204.855236 
L 569.105071 165.920663 
L 571.65418 221.961793 
L 574.203289 173.192778 
L 576.752398 158.987303 
L 579.301508 171.748492 
L 581.850617 195.011787 
L 584.399726 193.012681 
L 586.948835 170.487126 
L 589.497944 171.243477 
L 592.047053 205.085054 
L 594.596163 178.361118 
L 597.145272 204.02107 
L 599.694381 179.210927 
L 602.24349 214.587813 
L 604.792599 252.347202 
L 607.341709 193.364464 
L 609.890818 232.356862 
L 612.439927 233.617776 
L 614.989036 231.689405 
L 617.538145 201.946305 
L 620.087254 160.260531 
L 622.636364 153.91351 
L 622.636364 153.91351 
" clip-path="url(#p8fde58c663)" style="fill: none; stroke: #1f77b4; stroke-opacity: 0.6; stroke-width: 1.5; stroke-linecap: square"/>
   </g>
   <g id="line2d_16">
    <path d="M 120.461855 266.755239 
L 123.010964 249.597326 
L 125.560073 229.65455 
L 128.109182 222.2448 
L 130.658291 203.618465 
L 133.207401 187.685721 
L 138.305619 194.090308 
L 140.854728 188.360143 
L 143.403837 187.845846 
L 145.952947 200.743688 
L 151.051165 219.156553 
L 153.600274 226.983703 
L 156.149383 233.526034 
L 158.698492 244.708697 
L 161.247602 227.053297 
L 163.796711 236.016008 
L 166.34582 228.963656 
L 168.894929 206.889256 
L 171.444038 201.515244 
L 173.993148 211.692024 
L 176.542257 219.508294 
L 179.091366 224.279854 
L 181.640475 212.682444 
L 184.189584 228.014854 
L 186.738693 253.20745 
L 189.287803 260.598738 
L 191.836912 266.285677 
L 194.386021 290.224362 
L 196.93513 320.534067 
L 199.484239 332.821369 
L 202.033349 340.949558 
L 204.582458 345.221214 
L 207.131567 359.95213 
L 209.680676 359.480748 
L 212.229785 352.924734 
L 214.778894 344.07289 
L 217.328004 327.401277 
L 219.877113 316.884762 
L 222.426222 322.888482 
L 224.975331 308.149028 
L 227.52444 286.526038 
L 230.07355 287.322544 
L 235.171768 254.152286 
L 237.720877 260.667046 
L 240.269986 240.63975 
L 242.819095 245.025489 
L 245.368205 236.594696 
L 247.917314 250.437154 
L 250.466423 265.926142 
L 253.015532 243.45158 
L 255.564641 235.260147 
L 258.113751 264.233849 
L 260.66286 254.174728 
L 263.211969 237.606524 
L 265.761078 226.196958 
L 268.310187 202.213965 
L 270.859296 182.624517 
L 273.408406 177.694183 
L 275.957515 154.057667 
L 278.506624 132.785053 
L 281.055733 122.134976 
L 283.604842 132.391835 
L 286.153952 152.248204 
L 288.703061 166.115018 
L 291.25217 187.635161 
L 293.801279 178.381515 
L 296.350388 190.869785 
L 298.899497 229.207009 
L 301.448607 218.994377 
L 303.997716 207.815039 
L 306.546825 244.183007 
L 309.095934 278.866935 
L 311.645043 273.951982 
L 314.194153 279.870608 
L 316.743262 277.524536 
L 319.292371 285.524535 
L 321.84148 280.78095 
L 324.390589 267.148635 
L 326.939698 276.252136 
L 329.488808 257.678711 
L 332.037917 265.64463 
L 334.587026 279.99132 
L 337.136135 267.975518 
L 339.685244 247.357848 
L 342.234354 266.572349 
L 344.783463 276.850019 
L 347.332572 277.206659 
L 349.881681 298.637476 
L 352.43079 313.169836 
L 354.979899 323.624241 
L 357.529009 310.926869 
L 360.078118 304.045959 
L 362.627227 278.982031 
L 365.176336 243.175221 
L 367.725445 245.652263 
L 370.274555 239.122226 
L 372.823664 231.066213 
L 375.372773 214.715568 
L 380.470991 180.201003 
L 383.020101 183.936204 
L 385.56921 166.507552 
L 388.118319 140.312744 
L 390.667428 130.731984 
L 393.216537 137.627339 
L 395.765646 149.136583 
L 398.314756 154.688009 
L 400.863865 143.269209 
L 403.412974 180.157386 
L 405.962083 192.070855 
L 408.511192 163.937681 
L 411.060302 163.712168 
L 413.609411 180.686037 
L 416.15852 190.959974 
L 418.707629 158.67189 
L 421.256738 160.358963 
L 423.805847 152.728696 
L 426.354957 147.758878 
L 428.904066 165.541988 
L 431.453175 145.707604 
L 434.002284 171.170621 
L 436.551393 178.620441 
L 439.100503 159.004182 
L 441.649612 173.69804 
L 444.198721 189.956961 
L 446.74783 227.934678 
L 449.296939 234.944396 
L 451.846048 237.514493 
L 454.395158 276.504622 
L 456.944267 298.49509 
L 459.493376 300.285813 
L 462.042485 287.190966 
L 464.591594 276.091304 
L 467.140704 273.090871 
L 469.689813 250.651921 
L 472.238922 276.076877 
L 474.788031 275.694894 
L 477.33714 231.541458 
L 479.886249 221.373584 
L 482.435359 220.724291 
L 484.984468 203.033565 
L 487.533577 205.812198 
L 490.082686 184.21401 
L 492.631795 167.519175 
L 495.180905 174.563467 
L 497.730014 182.63849 
L 500.279123 195.635809 
L 502.828232 185.847284 
L 505.377341 177.512193 
L 507.92645 176.841797 
L 510.47556 182.415648 
L 513.024669 177.34095 
L 515.573778 165.82119 
L 518.122887 161.313316 
L 520.671996 162.042661 
L 525.770215 93.443582 
L 528.319324 104.591376 
L 530.868433 100.60813 
L 533.417542 81.01286 
L 535.966651 86.336789 
L 538.515761 78.115935 
L 541.06487 76.166439 
L 543.613979 104.527482 
L 548.712197 120.684533 
L 551.261307 123.150244 
L 553.810416 131.673318 
L 556.359525 155.608218 
L 558.908634 168.144623 
L 561.457743 177.374742 
L 564.006852 183.576792 
L 566.555962 204.617039 
L 569.105071 211.323913 
L 571.65418 180.60866 
L 574.203289 198.294189 
L 576.752398 194.935032 
L 579.301508 162.306069 
L 581.850617 166.361836 
L 584.399726 186.395924 
L 586.948835 194.708735 
L 589.497944 179.200261 
L 592.047053 170.027745 
L 594.596163 191.854508 
L 597.145272 190.302729 
L 599.694381 192.63513 
L 602.24349 190.202924 
L 604.792599 199.4662 
L 607.341709 239.033929 
L 609.890818 218.048521 
L 612.439927 214.366804 
L 614.989036 235.013737 
L 617.538145 232.303661 
L 620.087254 213.622344 
L 622.636364 175.486385 
L 622.636364 175.486385 
" clip-path="url(#p8fde58c663)" style="fill: none; stroke: #ff0000; stroke-width: 2; stroke-linecap: square"/>
   </g>
   <g id="patch_3">
    <path d="M 90 384.48 
L 90 51.84 
" style="fill: none; stroke: #000000; stroke-width: 0.8; stroke-linejoin: miter; stroke-linecap: square"/>
   </g>
   <g id="patch_4">
    <path d="M 648 384.48 
L 648 51.84 
" style="fill: none; stroke: #000000; stroke-width: 0.8; stroke-linejoin: miter; stroke-linecap: square"/>
   </g>
   <g id="patch_5">
    <path d="M 90 384.48 
L 648 384.48 
" style="fill: none; stroke: #000000; stroke-width: 0.8; stroke-linejoin: miter; stroke-linecap: square"/>
   </g>
   <g id="patch_6">
    <path d="M 90 51.84 
L 648 51.84 
" style="fill: none; stroke: #000000; stroke-width: 0.8; stroke-linejoin: miter; stroke-linecap: square"/>
   </g>
   <g id="text_15">
    <!-- Optimized Moving Average Model -->
    <g transform="translate(268.23375 45.84) scale(0.12 -0.12)">
     <defs>
      <path id="DejaVuSans-4f" d="M 2522 4238 
Q 1834 4238 1429 3725 
Q 1025 3213 1025 2328 
Q 1025 1447 1429 934 
Q 1834 422 2522 422 
Q 3209 422 3611 934 
Q 4013 1447 4013 2328 
Q 4013 3213 3611 3725 
Q 3209 4238 2522 4238 
z
M 2522 4750 
Q 3503 4750 4090 4092 
Q 4678 3434 4678 2328 
Q 4678 1225 4090 567 
Q 3503 -91 2522 -91 
Q 1538 -91 948 565 
Q 359 1222 359 2328 
Q 359 3434 948 4092 
Q 1538 4750 2522 4750 
z
" transform="scale(0.015625)"/>
      <path id="DejaVuSans-70" d="M 1159 525 
L 1159 -1331 
L 581 -1331 
L 581 3500 
L 1159 3500 
L 1159 2969 
Q 1341 3281 1617 3432 
Q 1894 3584 2278 3584 
Q 2916 3584 3314 3078 
Q 3713 2572 3713 1747 
Q 3713 922 3314 415 
Q 2916 -91 2278 -91 
Q 1894 -91 1617 61 
Q 1341 213 1159 525 
z
M 3116 1747 
Q 3116 2381 2855 2742 
Q 2594 3103 2138 3103 
Q 1681 3103 1420 2742 
Q 1159 2381 1159 1747 
Q 1159 1113 1420 752 
Q 1681 391 2138 391 
Q 2594 391 2855 752 
Q 3116 1113 3116 1747 
z
" transform="scale(0.015625)"/>
      <path id="DejaVuSans-74" d="M 1172 4494 
L 1172 3500 
L 2356 3500 
L 2356 3053 
L 1172 3053 
L 1172 1153 
Q 1172 725 1289 603 
Q 1406 481 1766 481 
L 2356 481 
L 2356 0 
L 1766 0 
Q 1100 0 847 248 
Q 594 497 594 1153 
L 594 3053 
L 172 3053 
L 172 3500 
L 594 3500 
L 594 4494 
L 1172 4494 
z
" transform="scale(0.015625)"/>
      <path id="DejaVuSans-69" d="M 603 3500 
L 1178 3500 
L 1178 0 
L 603 0 
L 603 3500 
z
M 603 4863 
L 1178 4863 
L 1178 4134 
L 603 4134 
L 603 4863 
z
" transform="scale(0.015625)"/>
      <path id="DejaVuSans-6d" d="M 3328 2828 
Q 3544 3216 3844 3400 
Q 4144 3584 4550 3584 
Q 5097 3584 5394 3201 
Q 5691 2819 5691 2113 
L 5691 0 
L 5113 0 
L 5113 2094 
Q 5113 2597 4934 2840 
Q 4756 3084 4391 3084 
Q 3944 3084 3684 2787 
Q 3425 2491 3425 1978 
L 3425 0 
L 2847 0 
L 2847 2094 
Q 2847 2600 2669 2842 
Q 2491 3084 2119 3084 
Q 1678 3084 1418 2786 
Q 1159 2488 1159 1978 
L 1159 0 
L 581 0 
L 581 3500 
L 1159 3500 
L 1159 2956 
Q 1356 3278 1631 3431 
Q 1906 3584 2284 3584 
Q 2666 3584 2933 3390 
Q 3200 3197 3328 2828 
z
" transform="scale(0.015625)"/>
      <path id="DejaVuSans-7a" d="M 353 3500 
L 3084 3500 
L 3084 2975 
L 922 459 
L 3084 459 
L 3084 0 
L 275 0 
L 275 525 
L 2438 3041 
L 353 3041 
L 353 3500 
z
" transform="scale(0.015625)"/>
      <path id="DejaVuSans-65" d="M 3597 1894 
L 3597 1613 
L 953 1613 
Q 991 1019 1311 708 
Q 1631 397 2203 397 
Q 2534 397 2845 478 
Q 3156 559 3463 722 
L 3463 178 
Q 3153 47 2828 -22 
Q 2503 -91 2169 -91 
Q 1331 -91 842 396 
Q 353 884 353 1716 
Q 353 2575 817 3079 
Q 1281 3584 2069 3584 
Q 2775 3584 3186 3129 
Q 3597 2675 3597 1894 
z
M 3022 2063 
Q 3016 2534 2758 2815 
Q 2500 3097 2075 3097 
Q 1594 3097 1305 2825 
Q 1016 2553 972 2059 
L 3022 2063 
z
" transform="scale(0.015625)"/>
      <path id="DejaVuSans-64" d="M 2906 2969 
L 2906 4863 
L 3481 4863 
L 3481 0 
L 2906 0 
L 2906 525 
Q 2725 213 2448 61 
Q 2172 -91 1784 -91 
Q 1150 -91 751 415 
Q 353 922 353 1747 
Q 353 2572 751 3078 
Q 1150 3584 1784 3584 
Q 2172 3584 2448 3432 
Q 2725 3281 2906 2969 
z
M 947 1747 
Q 947 1113 1208 752 
Q 1469 391 1925 391 
Q 2381 391 2643 752 
Q 2906 1113 2906 1747 
Q 2906 2381 2643 2742 
Q 2381 3103 1925 3103 
Q 1469 3103 1208 2742 
Q 947 2381 947 1747 
z
" transform="scale(0.015625)"/>
      <path id="DejaVuSans-20" transform="scale(0.015625)"/>
      <path id="DejaVuSans-4d" d="M 628 4666 
L 1569 4666 
L 2759 1491 
L 3956 4666 
L 4897 4666 
L 4897 0 
L 4281 0 
L 4281 4097 
L 3078 897 
L 2444 897 
L 1241 4097 
L 1241 0 
L 628 0 
L 628 4666 
z
" transform="scale(0.015625)"/>
      <path id="DejaVuSans-6f" d="M 1959 3097 
Q 1497 3097 1228 2736 
Q 959 2375 959 1747 
Q 959 1119 1226 758 
Q 1494 397 1959 397 
Q 2419 397 2687 759 
Q 2956 1122 2956 1747 
Q 2956 2369 2687 2733 
Q 2419 3097 1959 3097 
z
M 1959 3584 
Q 2709 3584 3137 3096 
Q 3566 2609 3566 1747 
Q 3566 888 3137 398 
Q 2709 -91 1959 -91 
Q 1206 -91 779 398 
Q 353 888 353 1747 
Q 353 2609 779 3096 
Q 1206 3584 1959 3584 
z
" transform="scale(0.015625)"/>
      <path id="DejaVuSans-76" d="M 191 3500 
L 800 3500 
L 1894 563 
L 2988 3500 
L 3597 3500 
L 2284 0 
L 1503 0 
L 191 3500 
z
" transform="scale(0.015625)"/>
      <path id="DejaVuSans-6e" d="M 3513 2113 
L 3513 0 
L 2938 0 
L 2938 2094 
Q 2938 2591 2744 2837 
Q 2550 3084 2163 3084 
Q 1697 3084 1428 2787 
Q 1159 2491 1159 1978 
L 1159 0 
L 581 0 
L 581 3500 
L 1159 3500 
L 1159 2956 
Q 1366 3272 1645 3428 
Q 1925 3584 2291 3584 
Q 2894 3584 3203 3211 
Q 3513 2838 3513 2113 
z
" transform="scale(0.015625)"/>
      <path id="DejaVuSans-67" d="M 2906 1791 
Q 2906 2416 2648 2759 
Q 2391 3103 1925 3103 
Q 1463 3103 1205 2759 
Q 947 2416 947 1791 
Q 947 1169 1205 825 
Q 1463 481 1925 481 
Q 2391 481 2648 825 
Q 2906 1169 2906 1791 
z
M 3481 434 
Q 3481 -459 3084 -895 
Q 2688 -1331 1869 -1331 
Q 1566 -1331 1297 -1286 
Q 1028 -1241 775 -1147 
L 775 -588 
Q 1028 -725 1275 -790 
Q 1522 -856 1778 -856 
Q 2344 -856 2625 -561 
Q 2906 -266 2906 331 
L 2906 616 
Q 2728 306 2450 153 
Q 2172 0 1784 0 
Q 1141 0 747 490 
Q 353 981 353 1791 
Q 353 2603 747 3093 
Q 1141 3584 1784 3584 
Q 2172 3584 2450 3431 
Q 2728 3278 2906 2969 
L 2906 3500 
L 3481 3500 
L 3481 434 
z
" transform="scale(0.015625)"/>
      <path id="DejaVuSans-41" d="M 2188 4044 
L 1331 1722 
L 3047 1722 
L 2188 4044 
z
M 1831 4666 
L 2547 4666 
L 4325 0 
L 3669 0 
L 3244 1197 
L 1141 1197 
L 716 0 
L 50 0 
L 1831 4666 
z
" transform="scale(0.015625)"/>
      <path id="DejaVuSans-72" d="M 2631 2963 
Q 2534 3019 2420 3045 
Q 2306 3072 2169 3072 
Q 1681 3072 1420 2755 
Q 1159 2438 1159 1844 
L 1159 0 
L 581 0 
L 581 3500 
L 1159 3500 
L 1159 2956 
Q 1341 3275 1631 3429 
Q 1922 3584 2338 3584 
Q 2397 3584 2469 3576 
Q 2541 3569 2628 3553 
L 2631 2963 
z
" transform="scale(0.015625)"/>
      <path id="DejaVuSans-61" d="M 2194 1759 
Q 1497 1759 1228 1600 
Q 959 1441 959 1056 
Q 959 750 1161 570 
Q 1363 391 1709 391 
Q 2188 391 2477 730 
Q 2766 1069 2766 1631 
L 2766 1759 
L 2194 1759 
z
M 3341 1997 
L 3341 0 
L 2766 0 
L 2766 531 
Q 2569 213 2275 61 
Q 1981 -91 1556 -91 
Q 1019 -91 701 211 
Q 384 513 384 1019 
Q 384 1609 779 1909 
Q 1175 2209 1959 2209 
L 2766 2209 
L 2766 2266 
Q 2766 2663 2505 2880 
Q 2244 3097 1772 3097 
Q 1472 3097 1187 3025 
Q 903 2953 641 2809 
L 641 3341 
Q 956 3463 1253 3523 
Q 1550 3584 1831 3584 
Q 2591 3584 2966 3190 
Q 3341 2797 3341 1997 
z
" transform="scale(0.015625)"/>
      <path id="DejaVuSans-6c" d="M 603 4863 
L 1178 4863 
L 1178 0 
L 603 0 
L 603 4863 
z
" transform="scale(0.015625)"/>
     </defs>
     <use xlink:href="#DejaVuSans-4f"/>
     <use xlink:href="#DejaVuSans-70" transform="translate(78.710938 0)"/>
     <use xlink:href="#DejaVuSans-74" transform="translate(142.1875 0)"/>
     <use xlink:href="#DejaVuSans-69" transform="translate(181.396484 0)"/>
     <use xlink:href="#DejaVuSans-6d" transform="translate(209.179688 0)"/>
     <use xlink:href="#DejaVuSans-69" transform="translate(306.591797 0)"/>
     <use xlink:href="#DejaVuSans-7a" transform="translate(334.375 0)"/>
     <use xlink:href="#DejaVuSans-65" transform="translate(386.865234 0)"/>
     <use xlink:href="#DejaVuSans-64" transform="translate(448.388672 0)"/>
     <use xlink:href="#DejaVuSans-20" transform="translate(511.865234 0)"/>
     <use xlink:href="#DejaVuSans-4d" transform="translate(543.652344 0)"/>
     <use xlink:href="#DejaVuSans-6f" transform="translate(629.931641 0)"/>
     <use xlink:href="#DejaVuSans-76" transform="translate(691.113281 0)"/>
     <use xlink:href="#DejaVuSans-69" transform="translate(750.292969 0)"/>
     <use xlink:href="#DejaVuSans-6e" transform="translate(778.076172 0)"/>
     <use xlink:href="#DejaVuSans-67" transform="translate(841.455078 0)"/>
     <use xlink:href="#DejaVuSans-20" transform="translate(904.931641 0)"/>
     <use xlink:href="#DejaVuSans-41" transform="translate(936.71875 0)"/>
     <use xlink:href="#DejaVuSans-76" transform="translate(999.251953 0)"/>
     <use xlink:href="#DejaVuSans-65" transform="translate(1058.431641 0)"/>
     <use xlink:href="#DejaVuSans-72" transform="translate(1119.955078 0)"/>
     <use xlink:href="#DejaVuSans-61" transform="translate(1161.068359 0)"/>
     <use xlink:href="#DejaVuSans-67" transform="translate(1222.347656 0)"/>
     <use xlink:href="#DejaVuSans-65" transform="translate(1285.824219 0)"/>
     <use xlink:href="#DejaVuSans-20" transform="translate(1347.347656 0)"/>
     <use xlink:href="#DejaVuSans-4d" transform="translate(1379.134766 0)"/>
     <use xlink:href="#DejaVuSans-6f" transform="translate(1465.414062 0)"/>
     <use xlink:href="#DejaVuSans-64" transform="translate(1526.595703 0)"/>
     <use xlink:href="#DejaVuSans-65" transform="translate(1590.072266 0)"/>
     <use xlink:href="#DejaVuSans-6c" transform="translate(1651.595703 0)"/>
    </g>
   </g>
   <g id="legend_1">
    <g id="patch_7">
     <path d="M 97 89.318125 
L 252.9 89.318125 
Q 254.9 89.318125 254.9 87.318125 
L 254.9 58.84 
Q 254.9 56.84 252.9 56.84 
L 97 56.84 
Q 95 56.84 95 58.84 
L 95 87.318125 
Q 95 89.318125 97 89.318125 
z
" style="fill: #ffffff; opacity: 0.8; stroke: #cccccc; stroke-linejoin: miter"/>
    </g>
    <g id="line2d_17">
     <path d="M 99 64.938438 
L 109 64.938438 
L 119 64.938438 
" style="fill: none; stroke: #1f77b4; stroke-opacity: 0.6; stroke-width: 1.5; stroke-linecap: square"/>
    </g>
    <g id="text_16">
     <!-- Noisy Time Series -->
     <g transform="translate(127 68.438438) scale(0.1 -0.1)">
      <defs>
       <path id="DejaVuSans-4e" d="M 628 4666 
L 1478 4666 
L 3547 763 
L 3547 4666 
L 4159 4666 
L 4159 0 
L 3309 0 
L 1241 3903 
L 1241 0 
L 628 0 
L 628 4666 
z
" transform="scale(0.015625)"/>
       <path id="DejaVuSans-73" d="M 2834 3397 
L 2834 2853 
Q 2591 2978 2328 3040 
Q 2066 3103 1784 3103 
Q 1356 3103 1142 2972 
Q 928 2841 928 2578 
Q 928 2378 1081 2264 
Q 1234 2150 1697 2047 
L 1894 2003 
Q 2506 1872 2764 1633 
Q 3022 1394 3022 966 
Q 3022 478 2636 193 
Q 2250 -91 1575 -91 
Q 1294 -91 989 -36 
Q 684 19 347 128 
L 347 722 
Q 666 556 975 473 
Q 1284 391 1588 391 
Q 1994 391 2212 530 
Q 2431 669 2431 922 
Q 2431 1156 2273 1281 
Q 2116 1406 1581 1522 
L 1381 1569 
Q 847 1681 609 1914 
Q 372 2147 372 2553 
Q 372 3047 722 3315 
Q 1072 3584 1716 3584 
Q 2034 3584 2315 3537 
Q 2597 3491 2834 3397 
z
" transform="scale(0.015625)"/>
       <path id="DejaVuSans-79" d="M 2059 -325 
Q 1816 -950 1584 -1140 
Q 1353 -1331 966 -1331 
L 506 -1331 
L 506 -850 
L 844 -850 
Q 1081 -850 1212 -737 
Q 1344 -625 1503 -206 
L 1606 56 
L 191 3500 
L 800 3500 
L 1894 763 
L 2988 3500 
L 3597 3500 
L 2059 -325 
z
" transform="scale(0.015625)"/>
       <path id="DejaVuSans-54" d="M -19 4666 
L 3928 4666 
L 3928 4134 
L 2272 4134 
L 2272 0 
L 1638 0 
L 1638 4134 
L -19 4134 
L -19 4666 
z
" transform="scale(0.015625)"/>
       <path id="DejaVuSans-53" d="M 3425 4513 
L 3425 3897 
Q 3066 4069 2747 4153 
Q 2428 4238 2131 4238 
Q 1616 4238 1336 4038 
Q 1056 3838 1056 3469 
Q 1056 3159 1242 3001 
Q 1428 2844 1947 2747 
L 2328 2669 
Q 3034 2534 3370 2195 
Q 3706 1856 3706 1288 
Q 3706 609 3251 259 
Q 2797 -91 1919 -91 
Q 1588 -91 1214 -16 
Q 841 59 441 206 
L 441 856 
Q 825 641 1194 531 
Q 1563 422 1919 422 
Q 2459 422 2753 634 
Q 3047 847 3047 1241 
Q 3047 1584 2836 1778 
Q 2625 1972 2144 2069 
L 1759 2144 
Q 1053 2284 737 2584 
Q 422 2884 422 3419 
Q 422 4038 858 4394 
Q 1294 4750 2059 4750 
Q 2388 4750 2728 4690 
Q 3069 4631 3425 4513 
z
" transform="scale(0.015625)"/>
      </defs>
      <use xlink:href="#DejaVuSans-4e"/>
      <use xlink:href="#DejaVuSans-6f" transform="translate(74.804688 0)"/>
      <use xlink:href="#DejaVuSans-69" transform="translate(135.986328 0)"/>
      <use xlink:href="#DejaVuSans-73" transform="translate(163.769531 0)"/>
      <use xlink:href="#DejaVuSans-79" transform="translate(215.869141 0)"/>
      <use xlink:href="#DejaVuSans-20" transform="translate(275.048828 0)"/>
      <use xlink:href="#DejaVuSans-54" transform="translate(306.835938 0)"/>
      <use xlink:href="#DejaVuSans-69" transform="translate(364.794922 0)"/>
      <use xlink:href="#DejaVuSans-6d" transform="translate(392.578125 0)"/>
      <use xlink:href="#DejaVuSans-65" transform="translate(489.990234 0)"/>
      <use xlink:href="#DejaVuSans-20" transform="translate(551.513672 0)"/>
      <use xlink:href="#DejaVuSans-53" transform="translate(583.300781 0)"/>
      <use xlink:href="#DejaVuSans-65" transform="translate(646.777344 0)"/>
      <use xlink:href="#DejaVuSans-72" transform="translate(708.300781 0)"/>
      <use xlink:href="#DejaVuSans-69" transform="translate(749.414062 0)"/>
      <use xlink:href="#DejaVuSans-65" transform="translate(777.197266 0)"/>
      <use xlink:href="#DejaVuSans-73" transform="translate(838.720703 0)"/>
     </g>
    </g>
    <g id="line2d_18">
     <path d="M 99 79.718125 
L 109 79.718125 
L 119 79.718125 
" style="fill: none; stroke: #ff0000; stroke-width: 2; stroke-linecap: square"/>
    </g>
    <g id="text_17">
     <!-- MA Model (p=2, $\theta$=0.11) -->
     <g transform="translate(127 83.218125) scale(0.1 -0.1)">
      <defs>
       <path id="DejaVuSans-28" d="M 1984 4856 
Q 1566 4138 1362 3434 
Q 1159 2731 1159 2009 
Q 1159 1288 1364 580 
Q 1569 -128 1984 -844 
L 1484 -844 
Q 1016 -109 783 600 
Q 550 1309 550 2009 
Q 550 2706 781 3412 
Q 1013 4119 1484 4856 
L 1984 4856 
z
" transform="scale(0.015625)"/>
       <path id="DejaVuSans-3d" d="M 678 2906 
L 4684 2906 
L 4684 2381 
L 678 2381 
L 678 2906 
z
M 678 1631 
L 4684 1631 
L 4684 1100 
L 678 1100 
L 678 1631 
z
" transform="scale(0.015625)"/>
       <path id="DejaVuSans-2c" d="M 750 794 
L 1409 794 
L 1409 256 
L 897 -744 
L 494 -744 
L 750 256 
L 750 794 
z
" transform="scale(0.015625)"/>
       <path id="DejaVuSans-Oblique-3b8" d="M 2913 2219 
L 925 2219 
Q 791 1284 928 888 
Q 1100 400 1566 400 
Q 2034 400 2391 891 
Q 2703 1322 2913 2219 
z
M 3009 2750 
Q 3094 3638 2984 3950 
Q 2813 4444 2353 4444 
Q 1875 4444 1525 3956 
Q 1250 3563 1034 2750 
L 3009 2750 
z
M 2444 4913 
Q 3194 4913 3494 4250 
Q 3794 3591 3566 2422 
Q 3341 1256 2781 594 
Q 2225 -72 1475 -72 
Q 722 -72 425 594 
Q 128 1256 353 2422 
Q 581 3591 1134 4250 
Q 1691 4913 2444 4913 
z
" transform="scale(0.015625)"/>
       <path id="DejaVuSans-2e" d="M 684 794 
L 1344 794 
L 1344 0 
L 684 0 
L 684 794 
z
" transform="scale(0.015625)"/>
       <path id="DejaVuSans-29" d="M 513 4856 
L 1013 4856 
Q 1481 4119 1714 3412 
Q 1947 2706 1947 2009 
Q 1947 1309 1714 600 
Q 1481 -109 1013 -844 
L 513 -844 
Q 928 -128 1133 580 
Q 1338 1288 1338 2009 
Q 1338 2731 1133 3434 
Q 928 4138 513 4856 
z
" transform="scale(0.015625)"/>
      </defs>
      <use xlink:href="#DejaVuSans-4d" transform="translate(0 0.234375)"/>
      <use xlink:href="#DejaVuSans-41" transform="translate(86.279297 0.234375)"/>
      <use xlink:href="#DejaVuSans-20" transform="translate(154.6875 0.234375)"/>
      <use xlink:href="#DejaVuSans-4d" transform="translate(186.474609 0.234375)"/>
      <use xlink:href="#DejaVuSans-6f" transform="translate(272.753906 0.234375)"/>
      <use xlink:href="#DejaVuSans-64" transform="translate(333.935547 0.234375)"/>
      <use xlink:href="#DejaVuSans-65" transform="translate(397.412109 0.234375)"/>
      <use xlink:href="#DejaVuSans-6c" transform="translate(458.935547 0.234375)"/>
      <use xlink:href="#DejaVuSans-20" transform="translate(486.71875 0.234375)"/>
      <use xlink:href="#DejaVuSans-28" transform="translate(518.505859 0.234375)"/>
      <use xlink:href="#DejaVuSans-70" transform="translate(557.519531 0.234375)"/>
      <use xlink:href="#DejaVuSans-3d" transform="translate(620.996094 0.234375)"/>
      <use xlink:href="#DejaVuSans-32" transform="translate(704.785156 0.234375)"/>
      <use xlink:href="#DejaVuSans-2c" transform="translate(768.408203 0.234375)"/>
      <use xlink:href="#DejaVuSans-20" transform="translate(800.195312 0.234375)"/>
      <use xlink:href="#DejaVuSans-Oblique-3b8" transform="translate(831.982422 0.234375)"/>
      <use xlink:href="#DejaVuSans-3d" transform="translate(893.164062 0.234375)"/>
      <use xlink:href="#DejaVuSans-30" transform="translate(976.953125 0.234375)"/>
      <use xlink:href="#DejaVuSans-2e" transform="translate(1040.576172 0.234375)"/>
      <use xlink:href="#DejaVuSans-31" transform="translate(1072.363281 0.234375)"/>
      <use xlink:href="#DejaVuSans-31" transform="translate(1135.986328 0.234375)"/>
      <use xlink:href="#DejaVuSans-29" transform="translate(1199.609375 0.234375)"/>
     </g>
    </g>
   </g>
  </g>
 </g>
 <defs>
  <clipPath id="p8fde58c663">
   <rect x="90" y="51.84" width="558" height="332.64"/>
  </clipPath>
 </defs>
</svg>
