<?xml version="1.0" encoding="utf-8" standalone="no"?>
<!DOCTYPE svg PUBLIC "-//W3C//DTD SVG 1.1//EN"
  "http://www.w3.org/Graphics/SVG/1.1/DTD/svg11.dtd">
<svg xmlns:xlink="http://www.w3.org/1999/xlink" width="720pt" height="432pt" viewBox="0 0 720 432" xmlns="http://www.w3.org/2000/svg" version="1.1">
 <metadata>
  <rdf:RDF xmlns:dc="http://purl.org/dc/elements/1.1/" xmlns:cc="http://creativecommons.org/ns#" xmlns:rdf="http://www.w3.org/1999/02/22-rdf-syntax-ns#">
   <cc:Work>
    <dc:type rdf:resource="http://purl.org/dc/dcmitype/StillImage"/>
    <dc:date>2025-12-16T16:10:25.387778</dc:date>
    <dc:format>image/svg+xml</dc:format>
    <dc:creator>
     <cc:Agent>
      <dc:title>Matplotlib v3.10.7, https://matplotlib.org/</dc:title>
     </cc:Agent>
    </dc:creator>
   </cc:Work>
  </rdf:RDF>
 </metadata>
 <defs>
  <style type="text/css">*{stroke-linejoin: round; stroke-linecap: butt}</style>
 </defs>
 <g id="figure_1">
  <g id="patch_1">
   <path d="M 0 432 
L 720 432 
L 720 0 
L 0 0 
z
" style="fill: #ffffff"/>
  </g>
  <g id="axes_1">
   <g id="patch_2">
    <path d="M 90 384.48 
L 648 384.48 
L 648 51.84 
L 90 51.84 
z
" style="fill: #ffffff"/>
   </g>
   <g id="matplotlib.axis_1">
    <g id="xtick_1">
     <g id="line2d_1">
      <defs>
       <path id="m03d990feeb" d="M 0 0 
L 0 3.5 
" style="stroke: #000000; stroke-width: 0.8"/>
      </defs>
      <g>
       <use xlink:href="#m03d990feeb" x="115.363636" y="384.48" style="stroke: #000000; stroke-width: 0.8"/>
      </g>
     </g>
     <g id="text_1">
      <!-- 0 -->
      <g transform="translate(112.182386 399.078438) scale(0.1 -0.1)">
       <defs>
        <path id="DejaVuSans-30" d="M 2034 4250 
Q 1547 4250 1301 3770 
Q 1056 3291 1056 2328 
Q 1056 1369 1301 889 
Q 1547 409 2034 409 
Q 2525 409 2770 889 
Q 3016 1369 3016 2328 
Q 3016 3291 2770 3770 
Q 2525 4250 2034 4250 
z
M 2034 4750 
Q 2819 4750 3233 4129 
Q 3647 3509 3647 2328 
Q 3647 1150 3233 529 
Q 2819 -91 2034 -91 
Q 1250 -91 836 529 
Q 422 1150 422 2328 
Q 422 3509 836 4129 
Q 1250 4750 2034 4750 
z
" transform="scale(0.015625)"/>
       </defs>
       <use xlink:href="#DejaVuSans-30"/>
      </g>
     </g>
    </g>
    <g id="xtick_2">
     <g id="line2d_2">
      <g>
       <use xlink:href="#m03d990feeb" x="179.091366" y="384.48" style="stroke: #000000; stroke-width: 0.8"/>
      </g>
     </g>
     <g id="text_2">
      <!-- 25 -->
      <g transform="translate(172.728866 399.078438) scale(0.1 -0.1)">
       <defs>
        <path id="DejaVuSans-32" d="M 1228 531 
L 3431 531 
L 3431 0 
L 469 0 
L 469 531 
Q 828 903 1448 1529 
Q 2069 2156 2228 2338 
Q 2531 2678 2651 2914 
Q 2772 3150 2772 3378 
Q 2772 3750 2511 3984 
Q 2250 4219 1831 4219 
Q 1534 4219 1204 4116 
Q 875 4013 500 3803 
L 500 4441 
Q 881 4594 1212 4672 
Q 1544 4750 1819 4750 
Q 2544 4750 2975 4387 
Q 3406 4025 3406 3419 
Q 3406 3131 3298 2873 
Q 3191 2616 2906 2266 
Q 2828 2175 2409 1742 
Q 1991 1309 1228 531 
z
" transform="scale(0.015625)"/>
        <path id="DejaVuSans-35" d="M 691 4666 
L 3169 4666 
L 3169 4134 
L 1269 4134 
L 1269 2991 
Q 1406 3038 1543 3061 
Q 1681 3084 1819 3084 
Q 2600 3084 3056 2656 
Q 3513 2228 3513 1497 
Q 3513 744 3044 326 
Q 2575 -91 1722 -91 
Q 1428 -91 1123 -41 
Q 819 9 494 109 
L 494 744 
Q 775 591 1075 516 
Q 1375 441 1709 441 
Q 2250 441 2565 725 
Q 2881 1009 2881 1497 
Q 2881 1984 2565 2268 
Q 2250 2553 1709 2553 
Q 1456 2553 1204 2497 
Q 953 2441 691 2322 
L 691 4666 
z
" transform="scale(0.015625)"/>
       </defs>
       <use xlink:href="#DejaVuSans-32"/>
       <use xlink:href="#DejaVuSans-35" transform="translate(63.623047 0)"/>
      </g>
     </g>
    </g>
    <g id="xtick_3">
     <g id="line2d_3">
      <g>
       <use xlink:href="#m03d990feeb" x="242.819095" y="384.48" style="stroke: #000000; stroke-width: 0.8"/>
      </g>
     </g>
     <g id="text_3">
      <!-- 50 -->
      <g transform="translate(236.456595 399.078438) scale(0.1 -0.1)">
       <use xlink:href="#DejaVuSans-35"/>
       <use xlink:href="#DejaVuSans-30" transform="translate(63.623047 0)"/>
      </g>
     </g>
    </g>
    <g id="xtick_4">
     <g id="line2d_4">
      <g>
       <use xlink:href="#m03d990feeb" x="306.546825" y="384.48" style="stroke: #000000; stroke-width: 0.8"/>
      </g>
     </g>
     <g id="text_4">
      <!-- 75 -->
      <g transform="translate(300.184325 399.078438) scale(0.1 -0.1)">
       <defs>
        <path id="DejaVuSans-37" d="M 525 4666 
L 3525 4666 
L 3525 4397 
L 1831 0 
L 1172 0 
L 2766 4134 
L 525 4134 
L 525 4666 
z
" transform="scale(0.015625)"/>
       </defs>
       <use xlink:href="#DejaVuSans-37"/>
       <use xlink:href="#DejaVuSans-35" transform="translate(63.623047 0)"/>
      </g>
     </g>
    </g>
    <g id="xtick_5">
     <g id="line2d_5">
      <g>
       <use xlink:href="#m03d990feeb" x="370.274555" y="384.48" style="stroke: #000000; stroke-width: 0.8"/>
      </g>
     </g>
     <g id="text_5">
      <!-- 100 -->
      <g transform="translate(360.730805 399.078438) scale(0.1 -0.1)">
       <defs>
        <path id="DejaVuSans-31" d="M 794 531 
L 1825 531 
L 1825 4091 
L 703 3866 
L 703 4441 
L 1819 4666 
L 2450 4666 
L 2450 531 
L 3481 531 
L 3481 0 
L 794 0 
L 794 531 
z
" transform="scale(0.015625)"/>
       </defs>
       <use xlink:href="#DejaVuSans-31"/>
       <use xlink:href="#DejaVuSans-30" transform="translate(63.623047 0)"/>
       <use xlink:href="#DejaVuSans-30" transform="translate(127.246094 0)"/>
      </g>
     </g>
    </g>
    <g id="xtick_6">
     <g id="line2d_6">
      <g>
       <use xlink:href="#m03d990feeb" x="434.002284" y="384.48" style="stroke: #000000; stroke-width: 0.8"/>
      </g>
     </g>
     <g id="text_6">
      <!-- 125 -->
      <g transform="translate(424.458534 399.078438) scale(0.1 -0.1)">
       <use xlink:href="#DejaVuSans-31"/>
       <use xlink:href="#DejaVuSans-32" transform="translate(63.623047 0)"/>
       <use xlink:href="#DejaVuSans-35" transform="translate(127.246094 0)"/>
      </g>
     </g>
    </g>
    <g id="xtick_7">
     <g id="line2d_7">
      <g>
       <use xlink:href="#m03d990feeb" x="497.730014" y="384.48" style="stroke: #000000; stroke-width: 0.8"/>
      </g>
     </g>
     <g id="text_7">
      <!-- 150 -->
      <g transform="translate(488.186264 399.078438) scale(0.1 -0.1)">
       <use xlink:href="#DejaVuSans-31"/>
       <use xlink:href="#DejaVuSans-35" transform="translate(63.623047 0)"/>
       <use xlink:href="#DejaVuSans-30" transform="translate(127.246094 0)"/>
      </g>
     </g>
    </g>
    <g id="xtick_8">
     <g id="line2d_8">
      <g>
       <use xlink:href="#m03d990feeb" x="561.457743" y="384.48" style="stroke: #000000; stroke-width: 0.8"/>
      </g>
     </g>
     <g id="text_8">
      <!-- 175 -->
      <g transform="translate(551.913993 399.078438) scale(0.1 -0.1)">
       <use xlink:href="#DejaVuSans-31"/>
       <use xlink:href="#DejaVuSans-37" transform="translate(63.623047 0)"/>
       <use xlink:href="#DejaVuSans-35" transform="translate(127.246094 0)"/>
      </g>
     </g>
    </g>
    <g id="xtick_9">
     <g id="line2d_9">
      <g>
       <use xlink:href="#m03d990feeb" x="625.185473" y="384.48" style="stroke: #000000; stroke-width: 0.8"/>
      </g>
     </g>
     <g id="text_9">
      <!-- 200 -->
      <g transform="translate(615.641723 399.078438) scale(0.1 -0.1)">
       <use xlink:href="#DejaVuSans-32"/>
       <use xlink:href="#DejaVuSans-30" transform="translate(63.623047 0)"/>
       <use xlink:href="#DejaVuSans-30" transform="translate(127.246094 0)"/>
      </g>
     </g>
    </g>
   </g>
   <g id="matplotlib.axis_2">
    <g id="ytick_1">
     <g id="line2d_10">
      <defs>
       <path id="m15d24cb06e" d="M 0 0 
L -3.5 0 
" style="stroke: #000000; stroke-width: 0.8"/>
      </defs>
      <g>
       <use xlink:href="#m15d24cb06e" x="90" y="318.187085" style="stroke: #000000; stroke-width: 0.8"/>
      </g>
     </g>
     <g id="text_10">
      <!-- −20 -->
      <g transform="translate(61.895313 321.986304) scale(0.1 -0.1)">
       <defs>
        <path id="DejaVuSans-2212" d="M 678 2272 
L 4684 2272 
L 4684 1741 
L 678 1741 
L 678 2272 
z
" transform="scale(0.015625)"/>
       </defs>
       <use xlink:href="#DejaVuSans-2212"/>
       <use xlink:href="#DejaVuSans-32" transform="translate(83.789062 0)"/>
       <use xlink:href="#DejaVuSans-30" transform="translate(147.412109 0)"/>
      </g>
     </g>
    </g>
    <g id="ytick_2">
     <g id="line2d_11">
      <g>
       <use xlink:href="#m15d24cb06e" x="90" y="249.138514" style="stroke: #000000; stroke-width: 0.8"/>
      </g>
     </g>
     <g id="text_11">
      <!-- 0 -->
      <g transform="translate(76.6375 252.937732) scale(0.1 -0.1)">
       <use xlink:href="#DejaVuSans-30"/>
      </g>
     </g>
    </g>
    <g id="ytick_3">
     <g id="line2d_12">
      <g>
       <use xlink:href="#m15d24cb06e" x="90" y="180.089942" style="stroke: #000000; stroke-width: 0.8"/>
      </g>
     </g>
     <g id="text_12">
      <!-- 20 -->
      <g transform="translate(70.275 183.889161) scale(0.1 -0.1)">
       <use xlink:href="#DejaVuSans-32"/>
       <use xlink:href="#DejaVuSans-30" transform="translate(63.623047 0)"/>
      </g>
     </g>
    </g>
    <g id="ytick_4">
     <g id="line2d_13">
      <g>
       <use xlink:href="#m15d24cb06e" x="90" y="111.04137" style="stroke: #000000; stroke-width: 0.8"/>
      </g>
     </g>
     <g id="text_13">
      <!-- 40 -->
      <g transform="translate(70.275 114.840589) scale(0.1 -0.1)">
       <defs>
        <path id="DejaVuSans-34" d="M 2419 4116 
L 825 1625 
L 2419 1625 
L 2419 4116 
z
M 2253 4666 
L 3047 4666 
L 3047 1625 
L 3713 1625 
L 3713 1100 
L 3047 1100 
L 3047 0 
L 2419 0 
L 2419 1100 
L 313 1100 
L 313 1709 
L 2253 4666 
z
" transform="scale(0.015625)"/>
       </defs>
       <use xlink:href="#DejaVuSans-34"/>
       <use xlink:href="#DejaVuSans-30" transform="translate(63.623047 0)"/>
      </g>
     </g>
    </g>
   </g>
   <g id="line2d_14">
    <path d="M 115.363636 244.94186 
L 117.912746 169.561476 
L 120.461855 140.445225 
L 123.010964 180.597511 
L 125.560073 190.420122 
L 128.109182 142.417909 
L 130.658291 210.352069 
L 133.207401 154.449432 
L 135.75651 186.154942 
L 138.305619 169.325524 
L 140.854728 156.264067 
L 143.403837 227.132391 
L 145.952947 172.583783 
L 148.502056 185.047262 
L 151.051165 168.927386 
L 153.600274 199.595764 
L 156.149383 220.629037 
L 158.698492 206.813182 
L 161.247602 218.119147 
L 163.796711 235.04532 
L 166.34582 186.020521 
L 168.894929 179.81942 
L 171.444038 234.99144 
L 173.993148 204.117972 
L 176.542257 183.296129 
L 179.091366 137.549091 
L 181.640475 213.122885 
L 184.189584 220.568922 
L 186.738693 254.387033 
L 189.287803 264.768087 
L 191.836912 341.197798 
L 194.386021 303.359251 
L 196.93513 333.391447 
L 199.484239 277.39229 
L 202.033349 369.36 
L 204.582458 335.417705 
L 207.131567 314.689824 
L 209.680676 326.308576 
L 212.229785 336.707317 
L 214.778894 328.664539 
L 217.328004 275.096202 
L 219.877113 300.397974 
L 222.426222 274.59638 
L 224.975331 308.005711 
L 227.52444 253.307907 
L 230.07355 221.667 
L 232.622659 206.403531 
L 235.171768 284.505449 
L 237.720877 233.659981 
L 240.269986 219.099254 
L 242.819095 316.000495 
L 245.368205 203.554004 
L 247.917314 259.103312 
L 250.466423 267.209185 
L 253.015532 230.003941 
L 255.564641 278.343446 
L 258.113751 263.768698 
L 260.66286 214.06495 
L 263.211969 217.405218 
L 265.761078 114.940656 
L 268.310187 151.755726 
L 270.859296 132.937972 
L 273.408406 160.021783 
L 275.957515 109.519084 
L 278.506624 113.923795 
L 281.055733 72.142057 
L 283.604842 155.186117 
L 286.153952 177.541405 
L 288.703061 191.174774 
L 291.25217 163.43832 
L 293.801279 171.183511 
L 296.350388 192.783825 
L 298.899497 304.509161 
L 301.448607 258.552145 
L 303.997716 287.628917 
L 306.546825 192.84467 
L 309.095934 265.735505 
L 311.645043 263.479661 
L 314.194153 289.338867 
L 316.743262 347.488309 
L 319.292371 267.592189 
L 321.84148 259.014545 
L 324.390589 269.462734 
L 326.939698 265.65303 
L 329.488808 177.012218 
L 332.037917 288.945537 
L 334.587026 275.132215 
L 337.136135 239.374819 
L 339.685244 222.175465 
L 342.234354 340.270793 
L 344.783463 272.054513 
L 347.332572 261.679369 
L 349.881681 254.043452 
L 352.43079 325.301864 
L 354.979899 336.266806 
L 357.529009 286.256285 
L 360.078118 270.190887 
L 362.627227 268.454626 
L 365.176336 234.321302 
L 367.725445 231.062794 
L 370.274555 179.730215 
L 372.823664 261.728212 
L 375.372773 125.591922 
L 377.921882 188.415673 
L 380.470991 151.136593 
L 383.020101 243.572099 
L 385.56921 125.469808 
L 388.118319 134.313974 
L 390.667428 148.146292 
L 393.216537 110.573994 
L 395.765646 144.560773 
L 398.314756 164.687782 
L 400.863865 211.710361 
L 403.412974 160.754557 
L 405.962083 198.182457 
L 408.511192 185.331222 
L 411.060302 170.303406 
L 413.609411 173.009505 
L 416.15852 186.153455 
L 418.707629 166.5166 
L 421.256738 145.317086 
L 423.805847 239.141227 
L 426.354957 183.99008 
L 428.904066 134.723556 
L 431.453175 216.066951 
L 434.002284 157.1782 
L 436.551393 211.812239 
L 439.100503 205.297206 
L 441.649612 179.863505 
L 444.198721 207.966721 
L 446.74783 279.586072 
L 449.296939 270.086316 
L 451.846048 290.195548 
L 454.395158 315.396252 
L 456.944267 247.491122 
L 459.493376 274.582739 
L 462.042485 368.12871 
L 464.591594 283.695178 
L 467.140704 357.607799 
L 469.689813 275.126411 
L 472.238922 337.754437 
L 474.788031 257.490894 
L 477.33714 212.585475 
L 479.886249 288.785114 
L 482.435359 195.874752 
L 484.984468 270.094118 
L 487.533577 214.959083 
L 490.082686 250.887678 
L 492.631795 217.963358 
L 495.180905 207.893961 
L 497.730014 149.247931 
L 500.279123 192.370087 
L 502.828232 194.04074 
L 505.377341 283.91422 
L 507.92645 217.163389 
L 510.47556 171.964603 
L 513.024669 141.763843 
L 515.573778 226.740153 
L 518.122887 179.174763 
L 520.671996 74.17549 
L 523.221106 66.96 
L 525.770215 160.087454 
L 528.319324 131.597233 
L 530.868433 69.341342 
L 533.417542 172.380219 
L 535.966651 68.077182 
L 538.515761 120.71984 
L 541.06487 95.632941 
L 543.613979 107.975163 
L 546.163088 150.537993 
L 548.712197 118.926194 
L 551.261307 162.406382 
L 553.810416 199.722016 
L 556.359525 243.611556 
L 558.908634 230.38917 
L 561.457743 213.470944 
L 564.006852 194.865107 
L 566.555962 218.149079 
L 569.105071 221.184939 
L 571.65418 185.811847 
L 574.203289 212.233502 
L 576.752398 200.603678 
L 579.301508 223.016387 
L 581.850617 183.952566 
L 584.399726 169.265438 
L 586.948835 238.902098 
L 589.497944 207.528722 
L 592.047053 245.208288 
L 594.596163 271.144967 
L 597.145272 242.085754 
L 599.694381 205.547408 
L 602.24349 240.465079 
L 604.792599 229.93758 
L 607.341709 211.35898 
L 609.890818 222.969052 
L 612.439927 225.047717 
L 614.989036 278.820047 
L 617.538145 167.587469 
L 620.087254 171.413286 
L 622.636364 249.457244 
L 622.636364 249.457244 
" clip-path="url(#pe1f070da66)" style="fill: none; stroke: #1f77b4; stroke-opacity: 0.6; stroke-width: 1.5; stroke-linecap: square"/>
   </g>
   <g id="line2d_15">
    <path d="M 125.560073 183.886518 
L 128.109182 170.943831 
L 130.658291 160.467463 
L 133.207401 186.197914 
L 135.75651 171.067937 
L 138.305619 174.931694 
L 140.854728 179.480368 
L 143.403837 164.10467 
L 145.952947 191.353728 
L 148.502056 179.350657 
L 151.051165 185.856518 
L 153.600274 186.640691 
L 156.149383 182.90224 
L 158.698492 197.521104 
L 161.247602 199.969456 
L 163.796711 213.199776 
L 166.34582 222.451202 
L 168.894929 207.664734 
L 171.444038 201.820016 
L 173.993148 212.460904 
L 176.542257 200.359135 
L 179.091366 198.760134 
L 181.640475 183.54539 
L 184.189584 187.63494 
L 186.738693 192.100992 
L 189.287803 212.963408 
L 191.836912 243.664856 
L 194.386021 280.497085 
L 196.93513 293.334586 
L 199.484239 314.895657 
L 202.033349 309.887473 
L 204.582458 327.136013 
L 207.131567 329.762117 
L 209.680676 322.628398 
L 212.229785 336.831413 
L 214.778894 328.267793 
L 217.328004 326.634327 
L 219.877113 311.269093 
L 222.426222 309.07218 
L 224.975331 291.059742 
L 227.52444 291.307853 
L 230.07355 280.076999 
L 232.622659 258.245829 
L 235.171768 241.888954 
L 237.720877 245.956919 
L 240.269986 235.264576 
L 242.819095 234.215441 
L 245.368205 271.925248 
L 247.917314 235.881461 
L 250.466423 251.883672 
L 253.015532 263.079961 
L 255.564641 236.485924 
L 258.113751 263.071026 
L 260.66286 259.904757 
L 263.211969 241.720016 
L 265.761078 240.836125 
L 268.310187 189.292725 
L 270.859296 170.590374 
L 273.408406 150.296482 
L 275.957515 140.93775 
L 278.506624 135.251413 
L 281.055733 126.855646 
L 283.604842 108.142355 
L 286.153952 117.644738 
L 293.801279 172.742491 
L 296.350388 175.6704 
L 298.899497 181.446521 
L 301.448607 220.932666 
L 303.997716 235.717106 
L 306.546825 266.332913 
L 309.095934 253.148119 
L 311.645043 252.515298 
L 314.194153 253.576332 
L 316.743262 256.614153 
L 319.292371 301.076286 
L 321.84148 288.450115 
L 324.390589 287.759996 
L 326.939698 283.963416 
L 329.488808 263.503215 
L 332.037917 233.681316 
L 334.587026 256.085666 
L 337.136135 253.69065 
L 339.685244 243.609268 
L 342.234354 254.150819 
L 344.783463 278.303583 
L 347.332572 267.811101 
L 349.881681 273.399589 
L 352.43079 279.974544 
L 354.979899 283.041096 
L 357.529009 299.925579 
L 360.078118 299.028229 
L 362.627227 301.468451 
L 365.176336 286.817012 
L 367.725445 259.279911 
L 370.274555 248.037179 
L 372.823664 221.202028 
L 375.372773 230.976545 
L 377.921882 188.435168 
L 380.470991 188.864453 
L 383.020101 177.746746 
L 385.56921 184.108056 
L 388.118319 170.976096 
L 390.667428 159.763948 
L 393.216537 161.652632 
L 395.765646 124.249318 
L 398.314756 136.536806 
L 400.863865 144.955471 
L 403.412974 164.910058 
L 405.962083 169.990947 
L 408.511192 186.801317 
L 411.060302 188.839902 
L 413.609411 176.6917 
L 416.15852 181.319048 
L 418.707629 179.208282 
L 421.256738 172.659775 
L 423.805847 164.870984 
L 426.354957 192.100012 
L 428.904066 182.887571 
L 431.453175 170.723091 
L 434.002284 198.253492 
L 436.551393 168.665982 
L 441.649612 199.779203 
L 444.198721 186.441398 
L 446.74783 203.500741 
L 449.296939 226.187358 
L 451.846048 238.996597 
L 454.395158 267.348028 
L 456.944267 293.873755 
L 459.493376 275.909927 
L 462.042485 281.776711 
L 464.591594 310.48939 
L 467.140704 290.653994 
L 469.689813 328.051375 
L 472.238922 315.568476 
L 474.788031 315.881321 
L 477.33714 300.848525 
L 479.886249 261.448457 
L 482.435359 277.031523 
L 484.984468 230.141241 
L 487.533577 246.04043 
L 490.082686 239.156546 
L 492.631795 234.188764 
L 495.180905 236.768122 
L 497.730014 219.886635 
L 500.279123 199.062579 
L 502.828232 191.164362 
L 505.377341 186.190956 
L 507.92645 215.179904 
L 510.47556 222.080897 
L 513.024669 211.495339 
L 515.573778 196.361356 
L 518.122887 192.605765 
L 520.671996 178.497051 
L 523.221106 144.482345 
L 525.770215 128.602355 
L 528.319324 123.413648 
L 530.868433 109.066474 
L 533.417542 102.814914 
L 535.966651 140.674226 
L 538.515761 102.7072 
L 541.06487 109.525713 
L 543.613979 112.740149 
L 546.163088 97.599704 
L 548.712197 124.288936 
L 551.261307 117.703574 
L 553.810416 139.666992 
L 561.457743 213.333923 
L 564.006852 221.812845 
L 566.555962 217.74759 
L 569.105071 214.260837 
L 571.65418 212.64637 
L 574.203289 202.178056 
L 576.752398 210.40331 
L 579.301508 203.926952 
L 581.850617 207.425768 
L 584.399726 202.48067 
L 586.948835 190.713177 
L 589.497944 208.85664 
L 592.047053 199.772425 
L 594.596163 220.008859 
L 597.145272 246.078767 
L 599.694381 241.071615 
L 602.24349 237.257214 
L 604.792599 240.148472 
L 607.341709 228.434124 
L 609.890818 220.029878 
L 612.439927 226.49206 
L 614.989036 222.176296 
L 617.538145 240.511449 
L 620.087254 215.929863 
L 622.636364 206.031174 
L 622.636364 206.031174 
" clip-path="url(#pe1f070da66)" style="fill: none; stroke: #ff0000; stroke-width: 2; stroke-linecap: square"/>
   </g>
   <g id="patch_3">
    <path d="M 90 384.48 
L 90 51.84 
" style="fill: none; stroke: #000000; stroke-width: 0.8; stroke-linejoin: miter; stroke-linecap: square"/>
   </g>
   <g id="patch_4">
    <path d="M 648 384.48 
L 648 51.84 
" style="fill: none; stroke: #000000; stroke-width: 0.8; stroke-linejoin: miter; stroke-linecap: square"/>
   </g>
   <g id="patch_5">
    <path d="M 90 384.48 
L 648 384.48 
" style="fill: none; stroke: #000000; stroke-width: 0.8; stroke-linejoin: miter; stroke-linecap: square"/>
   </g>
   <g id="patch_6">
    <path d="M 90 51.84 
L 648 51.84 
" style="fill: none; stroke: #000000; stroke-width: 0.8; stroke-linejoin: miter; stroke-linecap: square"/>
   </g>
   <g id="text_14">
    <!-- Optimized Moving Average Model -->
    <g transform="translate(268.23375 45.84) scale(0.12 -0.12)">
     <defs>
      <path id="DejaVuSans-4f" d="M 2522 4238 
Q 1834 4238 1429 3725 
Q 1025 3213 1025 2328 
Q 1025 1447 1429 934 
Q 1834 422 2522 422 
Q 3209 422 3611 934 
Q 4013 1447 4013 2328 
Q 4013 3213 3611 3725 
Q 3209 4238 2522 4238 
z
M 2522 4750 
Q 3503 4750 4090 4092 
Q 4678 3434 4678 2328 
Q 4678 1225 4090 567 
Q 3503 -91 2522 -91 
Q 1538 -91 948 565 
Q 359 1222 359 2328 
Q 359 3434 948 4092 
Q 1538 4750 2522 4750 
z
" transform="scale(0.015625)"/>
      <path id="DejaVuSans-70" d="M 1159 525 
L 1159 -1331 
L 581 -1331 
L 581 3500 
L 1159 3500 
L 1159 2969 
Q 1341 3281 1617 3432 
Q 1894 3584 2278 3584 
Q 2916 3584 3314 3078 
Q 3713 2572 3713 1747 
Q 3713 922 3314 415 
Q 2916 -91 2278 -91 
Q 1894 -91 1617 61 
Q 1341 213 1159 525 
z
M 3116 1747 
Q 3116 2381 2855 2742 
Q 2594 3103 2138 3103 
Q 1681 3103 1420 2742 
Q 1159 2381 1159 1747 
Q 1159 1113 1420 752 
Q 1681 391 2138 391 
Q 2594 391 2855 752 
Q 3116 1113 3116 1747 
z
" transform="scale(0.015625)"/>
      <path id="DejaVuSans-74" d="M 1172 4494 
L 1172 3500 
L 2356 3500 
L 2356 3053 
L 1172 3053 
L 1172 1153 
Q 1172 725 1289 603 
Q 1406 481 1766 481 
L 2356 481 
L 2356 0 
L 1766 0 
Q 1100 0 847 248 
Q 594 497 594 1153 
L 594 3053 
L 172 3053 
L 172 3500 
L 594 3500 
L 594 4494 
L 1172 4494 
z
" transform="scale(0.015625)"/>
      <path id="DejaVuSans-69" d="M 603 3500 
L 1178 3500 
L 1178 0 
L 603 0 
L 603 3500 
z
M 603 4863 
L 1178 4863 
L 1178 4134 
L 603 4134 
L 603 4863 
z
" transform="scale(0.015625)"/>
      <path id="DejaVuSans-6d" d="M 3328 2828 
Q 3544 3216 3844 3400 
Q 4144 3584 4550 3584 
Q 5097 3584 5394 3201 
Q 5691 2819 5691 2113 
L 5691 0 
L 5113 0 
L 5113 2094 
Q 5113 2597 4934 2840 
Q 4756 3084 4391 3084 
Q 3944 3084 3684 2787 
Q 3425 2491 3425 1978 
L 3425 0 
L 2847 0 
L 2847 2094 
Q 2847 2600 2669 2842 
Q 2491 3084 2119 3084 
Q 1678 3084 1418 2786 
Q 1159 2488 1159 1978 
L 1159 0 
L 581 0 
L 581 3500 
L 1159 3500 
L 1159 2956 
Q 1356 3278 1631 3431 
Q 1906 3584 2284 3584 
Q 2666 3584 2933 3390 
Q 3200 3197 3328 2828 
z
" transform="scale(0.015625)"/>
      <path id="DejaVuSans-7a" d="M 353 3500 
L 3084 3500 
L 3084 2975 
L 922 459 
L 3084 459 
L 3084 0 
L 275 0 
L 275 525 
L 2438 3041 
L 353 3041 
L 353 3500 
z
" transform="scale(0.015625)"/>
      <path id="DejaVuSans-65" d="M 3597 1894 
L 3597 1613 
L 953 1613 
Q 991 1019 1311 708 
Q 1631 397 2203 397 
Q 2534 397 2845 478 
Q 3156 559 3463 722 
L 3463 178 
Q 3153 47 2828 -22 
Q 2503 -91 2169 -91 
Q 1331 -91 842 396 
Q 353 884 353 1716 
Q 353 2575 817 3079 
Q 1281 3584 2069 3584 
Q 2775 3584 3186 3129 
Q 3597 2675 3597 1894 
z
M 3022 2063 
Q 3016 2534 2758 2815 
Q 2500 3097 2075 3097 
Q 1594 3097 1305 2825 
Q 1016 2553 972 2059 
L 3022 2063 
z
" transform="scale(0.015625)"/>
      <path id="DejaVuSans-64" d="M 2906 2969 
L 2906 4863 
L 3481 4863 
L 3481 0 
L 2906 0 
L 2906 525 
Q 2725 213 2448 61 
Q 2172 -91 1784 -91 
Q 1150 -91 751 415 
Q 353 922 353 1747 
Q 353 2572 751 3078 
Q 1150 3584 1784 3584 
Q 2172 3584 2448 3432 
Q 2725 3281 2906 2969 
z
M 947 1747 
Q 947 1113 1208 752 
Q 1469 391 1925 391 
Q 2381 391 2643 752 
Q 2906 1113 2906 1747 
Q 2906 2381 2643 2742 
Q 2381 3103 1925 3103 
Q 1469 3103 1208 2742 
Q 947 2381 947 1747 
z
" transform="scale(0.015625)"/>
      <path id="DejaVuSans-20" transform="scale(0.015625)"/>
      <path id="DejaVuSans-4d" d="M 628 4666 
L 1569 4666 
L 2759 1491 
L 3956 4666 
L 4897 4666 
L 4897 0 
L 4281 0 
L 4281 4097 
L 3078 897 
L 2444 897 
L 1241 4097 
L 1241 0 
L 628 0 
L 628 4666 
z
" transform="scale(0.015625)"/>
      <path id="DejaVuSans-6f" d="M 1959 3097 
Q 1497 3097 1228 2736 
Q 959 2375 959 1747 
Q 959 1119 1226 758 
Q 1494 397 1959 397 
Q 2419 397 2687 759 
Q 2956 1122 2956 1747 
Q 2956 2369 2687 2733 
Q 2419 3097 1959 3097 
z
M 1959 3584 
Q 2709 3584 3137 3096 
Q 3566 2609 3566 1747 
Q 3566 888 3137 398 
Q 2709 -91 1959 -91 
Q 1206 -91 779 398 
Q 353 888 353 1747 
Q 353 2609 779 3096 
Q 1206 3584 1959 3584 
z
" transform="scale(0.015625)"/>
      <path id="DejaVuSans-76" d="M 191 3500 
L 800 3500 
L 1894 563 
L 2988 3500 
L 3597 3500 
L 2284 0 
L 1503 0 
L 191 3500 
z
" transform="scale(0.015625)"/>
      <path id="DejaVuSans-6e" d="M 3513 2113 
L 3513 0 
L 2938 0 
L 2938 2094 
Q 2938 2591 2744 2837 
Q 2550 3084 2163 3084 
Q 1697 3084 1428 2787 
Q 1159 2491 1159 1978 
L 1159 0 
L 581 0 
L 581 3500 
L 1159 3500 
L 1159 2956 
Q 1366 3272 1645 3428 
Q 1925 3584 2291 3584 
Q 2894 3584 3203 3211 
Q 3513 2838 3513 2113 
z
" transform="scale(0.015625)"/>
      <path id="DejaVuSans-67" d="M 2906 1791 
Q 2906 2416 2648 2759 
Q 2391 3103 1925 3103 
Q 1463 3103 1205 2759 
Q 947 2416 947 1791 
Q 947 1169 1205 825 
Q 1463 481 1925 481 
Q 2391 481 2648 825 
Q 2906 1169 2906 1791 
z
M 3481 434 
Q 3481 -459 3084 -895 
Q 2688 -1331 1869 -1331 
Q 1566 -1331 1297 -1286 
Q 1028 -1241 775 -1147 
L 775 -588 
Q 1028 -725 1275 -790 
Q 1522 -856 1778 -856 
Q 2344 -856 2625 -561 
Q 2906 -266 2906 331 
L 2906 616 
Q 2728 306 2450 153 
Q 2172 0 1784 0 
Q 1141 0 747 490 
Q 353 981 353 1791 
Q 353 2603 747 3093 
Q 1141 3584 1784 3584 
Q 2172 3584 2450 3431 
Q 2728 3278 2906 2969 
L 2906 3500 
L 3481 3500 
L 3481 434 
z
" transform="scale(0.015625)"/>
      <path id="DejaVuSans-41" d="M 2188 4044 
L 1331 1722 
L 3047 1722 
L 2188 4044 
z
M 1831 4666 
L 2547 4666 
L 4325 0 
L 3669 0 
L 3244 1197 
L 1141 1197 
L 716 0 
L 50 0 
L 1831 4666 
z
" transform="scale(0.015625)"/>
      <path id="DejaVuSans-72" d="M 2631 2963 
Q 2534 3019 2420 3045 
Q 2306 3072 2169 3072 
Q 1681 3072 1420 2755 
Q 1159 2438 1159 1844 
L 1159 0 
L 581 0 
L 581 3500 
L 1159 3500 
L 1159 2956 
Q 1341 3275 1631 3429 
Q 1922 3584 2338 3584 
Q 2397 3584 2469 3576 
Q 2541 3569 2628 3553 
L 2631 2963 
z
" transform="scale(0.015625)"/>
      <path id="DejaVuSans-61" d="M 2194 1759 
Q 1497 1759 1228 1600 
Q 959 1441 959 1056 
Q 959 750 1161 570 
Q 1363 391 1709 391 
Q 2188 391 2477 730 
Q 2766 1069 2766 1631 
L 2766 1759 
L 2194 1759 
z
M 3341 1997 
L 3341 0 
L 2766 0 
L 2766 531 
Q 2569 213 2275 61 
Q 1981 -91 1556 -91 
Q 1019 -91 701 211 
Q 384 513 384 1019 
Q 384 1609 779 1909 
Q 1175 2209 1959 2209 
L 2766 2209 
L 2766 2266 
Q 2766 2663 2505 2880 
Q 2244 3097 1772 3097 
Q 1472 3097 1187 3025 
Q 903 2953 641 2809 
L 641 3341 
Q 956 3463 1253 3523 
Q 1550 3584 1831 3584 
Q 2591 3584 2966 3190 
Q 3341 2797 3341 1997 
z
" transform="scale(0.015625)"/>
      <path id="DejaVuSans-6c" d="M 603 4863 
L 1178 4863 
L 1178 0 
L 603 0 
L 603 4863 
z
" transform="scale(0.015625)"/>
     </defs>
     <use xlink:href="#DejaVuSans-4f"/>
     <use xlink:href="#DejaVuSans-70" transform="translate(78.710938 0)"/>
     <use xlink:href="#DejaVuSans-74" transform="translate(142.1875 0)"/>
     <use xlink:href="#DejaVuSans-69" transform="translate(181.396484 0)"/>
     <use xlink:href="#DejaVuSans-6d" transform="translate(209.179688 0)"/>
     <use xlink:href="#DejaVuSans-69" transform="translate(306.591797 0)"/>
     <use xlink:href="#DejaVuSans-7a" transform="translate(334.375 0)"/>
     <use xlink:href="#DejaVuSans-65" transform="translate(386.865234 0)"/>
     <use xlink:href="#DejaVuSans-64" transform="translate(448.388672 0)"/>
     <use xlink:href="#DejaVuSans-20" transform="translate(511.865234 0)"/>
     <use xlink:href="#DejaVuSans-4d" transform="translate(543.652344 0)"/>
     <use xlink:href="#DejaVuSans-6f" transform="translate(629.931641 0)"/>
     <use xlink:href="#DejaVuSans-76" transform="translate(691.113281 0)"/>
     <use xlink:href="#DejaVuSans-69" transform="translate(750.292969 0)"/>
     <use xlink:href="#DejaVuSans-6e" transform="translate(778.076172 0)"/>
     <use xlink:href="#DejaVuSans-67" transform="translate(841.455078 0)"/>
     <use xlink:href="#DejaVuSans-20" transform="translate(904.931641 0)"/>
     <use xlink:href="#DejaVuSans-41" transform="translate(936.71875 0)"/>
     <use xlink:href="#DejaVuSans-76" transform="translate(999.251953 0)"/>
     <use xlink:href="#DejaVuSans-65" transform="translate(1058.431641 0)"/>
     <use xlink:href="#DejaVuSans-72" transform="translate(1119.955078 0)"/>
     <use xlink:href="#DejaVuSans-61" transform="translate(1161.068359 0)"/>
     <use xlink:href="#DejaVuSans-67" transform="translate(1222.347656 0)"/>
     <use xlink:href="#DejaVuSans-65" transform="translate(1285.824219 0)"/>
     <use xlink:href="#DejaVuSans-20" transform="translate(1347.347656 0)"/>
     <use xlink:href="#DejaVuSans-4d" transform="translate(1379.134766 0)"/>
     <use xlink:href="#DejaVuSans-6f" transform="translate(1465.414062 0)"/>
     <use xlink:href="#DejaVuSans-64" transform="translate(1526.595703 0)"/>
     <use xlink:href="#DejaVuSans-65" transform="translate(1590.072266 0)"/>
     <use xlink:href="#DejaVuSans-6c" transform="translate(1651.595703 0)"/>
    </g>
   </g>
   <g id="legend_1">
    <g id="patch_7">
     <path d="M 97 89.318125 
L 252.9 89.318125 
Q 254.9 89.318125 254.9 87.318125 
L 254.9 58.84 
Q 254.9 56.84 252.9 56.84 
L 97 56.84 
Q 95 56.84 95 58.84 
L 95 87.318125 
Q 95 89.318125 97 89.318125 
z
" style="fill: #ffffff; opacity: 0.8; stroke: #cccccc; stroke-linejoin: miter"/>
    </g>
    <g id="line2d_16">
     <path d="M 99 64.938438 
L 109 64.938438 
L 119 64.938438 
" style="fill: none; stroke: #1f77b4; stroke-opacity: 0.6; stroke-width: 1.5; stroke-linecap: square"/>
    </g>
    <g id="text_15">
     <!-- Noisy Time Series -->
     <g transform="translate(127 68.438438) scale(0.1 -0.1)">
      <defs>
       <path id="DejaVuSans-4e" d="M 628 4666 
L 1478 4666 
L 3547 763 
L 3547 4666 
L 4159 4666 
L 4159 0 
L 3309 0 
L 1241 3903 
L 1241 0 
L 628 0 
L 628 4666 
z
" transform="scale(0.015625)"/>
       <path id="DejaVuSans-73" d="M 2834 3397 
L 2834 2853 
Q 2591 2978 2328 3040 
Q 2066 3103 1784 3103 
Q 1356 3103 1142 2972 
Q 928 2841 928 2578 
Q 928 2378 1081 2264 
Q 1234 2150 1697 2047 
L 1894 2003 
Q 2506 1872 2764 1633 
Q 3022 1394 3022 966 
Q 3022 478 2636 193 
Q 2250 -91 1575 -91 
Q 1294 -91 989 -36 
Q 684 19 347 128 
L 347 722 
Q 666 556 975 473 
Q 1284 391 1588 391 
Q 1994 391 2212 530 
Q 2431 669 2431 922 
Q 2431 1156 2273 1281 
Q 2116 1406 1581 1522 
L 1381 1569 
Q 847 1681 609 1914 
Q 372 2147 372 2553 
Q 372 3047 722 3315 
Q 1072 3584 1716 3584 
Q 2034 3584 2315 3537 
Q 2597 3491 2834 3397 
z
" transform="scale(0.015625)"/>
       <path id="DejaVuSans-79" d="M 2059 -325 
Q 1816 -950 1584 -1140 
Q 1353 -1331 966 -1331 
L 506 -1331 
L 506 -850 
L 844 -850 
Q 1081 -850 1212 -737 
Q 1344 -625 1503 -206 
L 1606 56 
L 191 3500 
L 800 3500 
L 1894 763 
L 2988 3500 
L 3597 3500 
L 2059 -325 
z
" transform="scale(0.015625)"/>
       <path id="DejaVuSans-54" d="M -19 4666 
L 3928 4666 
L 3928 4134 
L 2272 4134 
L 2272 0 
L 1638 0 
L 1638 4134 
L -19 4134 
L -19 4666 
z
" transform="scale(0.015625)"/>
       <path id="DejaVuSans-53" d="M 3425 4513 
L 3425 3897 
Q 3066 4069 2747 4153 
Q 2428 4238 2131 4238 
Q 1616 4238 1336 4038 
Q 1056 3838 1056 3469 
Q 1056 3159 1242 3001 
Q 1428 2844 1947 2747 
L 2328 2669 
Q 3034 2534 3370 2195 
Q 3706 1856 3706 1288 
Q 3706 609 3251 259 
Q 2797 -91 1919 -91 
Q 1588 -91 1214 -16 
Q 841 59 441 206 
L 441 856 
Q 825 641 1194 531 
Q 1563 422 1919 422 
Q 2459 422 2753 634 
Q 3047 847 3047 1241 
Q 3047 1584 2836 1778 
Q 2625 1972 2144 2069 
L 1759 2144 
Q 1053 2284 737 2584 
Q 422 2884 422 3419 
Q 422 4038 858 4394 
Q 1294 4750 2059 4750 
Q 2388 4750 2728 4690 
Q 3069 4631 3425 4513 
z
" transform="scale(0.015625)"/>
      </defs>
      <use xlink:href="#DejaVuSans-4e"/>
      <use xlink:href="#DejaVuSans-6f" transform="translate(74.804688 0)"/>
      <use xlink:href="#DejaVuSans-69" transform="translate(135.986328 0)"/>
      <use xlink:href="#DejaVuSans-73" transform="translate(163.769531 0)"/>
      <use xlink:href="#DejaVuSans-79" transform="translate(215.869141 0)"/>
      <use xlink:href="#DejaVuSans-20" transform="translate(275.048828 0)"/>
      <use xlink:href="#DejaVuSans-54" transform="translate(306.835938 0)"/>
      <use xlink:href="#DejaVuSans-69" transform="translate(364.794922 0)"/>
      <use xlink:href="#DejaVuSans-6d" transform="translate(392.578125 0)"/>
      <use xlink:href="#DejaVuSans-65" transform="translate(489.990234 0)"/>
      <use xlink:href="#DejaVuSans-20" transform="translate(551.513672 0)"/>
      <use xlink:href="#DejaVuSans-53" transform="translate(583.300781 0)"/>
      <use xlink:href="#DejaVuSans-65" transform="translate(646.777344 0)"/>
      <use xlink:href="#DejaVuSans-72" transform="translate(708.300781 0)"/>
      <use xlink:href="#DejaVuSans-69" transform="translate(749.414062 0)"/>
      <use xlink:href="#DejaVuSans-65" transform="translate(777.197266 0)"/>
      <use xlink:href="#DejaVuSans-73" transform="translate(838.720703 0)"/>
     </g>
    </g>
    <g id="line2d_17">
     <path d="M 99 79.718125 
L 109 79.718125 
L 119 79.718125 
" style="fill: none; stroke: #ff0000; stroke-width: 2; stroke-linecap: square"/>
    </g>
    <g id="text_16">
     <!-- MA Model (p=4, $\theta$=0.11) -->
     <g transform="translate(127 83.218125) scale(0.1 -0.1)">
      <defs>
       <path id="DejaVuSans-28" d="M 1984 4856 
Q 1566 4138 1362 3434 
Q 1159 2731 1159 2009 
Q 1159 1288 1364 580 
Q 1569 -128 1984 -844 
L 1484 -844 
Q 1016 -109 783 600 
Q 550 1309 550 2009 
Q 550 2706 781 3412 
Q 1013 4119 1484 4856 
L 1984 4856 
z
" transform="scale(0.015625)"/>
       <path id="DejaVuSans-3d" d="M 678 2906 
L 4684 2906 
L 4684 2381 
L 678 2381 
L 678 2906 
z
M 678 1631 
L 4684 1631 
L 4684 1100 
L 678 1100 
L 678 1631 
z
" transform="scale(0.015625)"/>
       <path id="DejaVuSans-2c" d="M 750 794 
L 1409 794 
L 1409 256 
L 897 -744 
L 494 -744 
L 750 256 
L 750 794 
z
" transform="scale(0.015625)"/>
       <path id="DejaVuSans-Oblique-3b8" d="M 2913 2219 
L 925 2219 
Q 791 1284 928 888 
Q 1100 400 1566 400 
Q 2034 400 2391 891 
Q 2703 1322 2913 2219 
z
M 3009 2750 
Q 3094 3638 2984 3950 
Q 2813 4444 2353 4444 
Q 1875 4444 1525 3956 
Q 1250 3563 1034 2750 
L 3009 2750 
z
M 2444 4913 
Q 3194 4913 3494 4250 
Q 3794 3591 3566 2422 
Q 3341 1256 2781 594 
Q 2225 -72 1475 -72 
Q 722 -72 425 594 
Q 128 1256 353 2422 
Q 581 3591 1134 4250 
Q 1691 4913 2444 4913 
z
" transform="scale(0.015625)"/>
       <path id="DejaVuSans-2e" d="M 684 794 
L 1344 794 
L 1344 0 
L 684 0 
L 684 794 
z
" transform="scale(0.015625)"/>
       <path id="DejaVuSans-29" d="M 513 4856 
L 1013 4856 
Q 1481 4119 1714 3412 
Q 1947 2706 1947 2009 
Q 1947 1309 1714 600 
Q 1481 -109 1013 -844 
L 513 -844 
Q 928 -128 1133 580 
Q 1338 1288 1338 2009 
Q 1338 2731 1133 3434 
Q 928 4138 513 4856 
z
" transform="scale(0.015625)"/>
      </defs>
      <use xlink:href="#DejaVuSans-4d" transform="translate(0 0.234375)"/>
      <use xlink:href="#DejaVuSans-41" transform="translate(86.279297 0.234375)"/>
      <use xlink:href="#DejaVuSans-20" transform="translate(154.6875 0.234375)"/>
      <use xlink:href="#DejaVuSans-4d" transform="translate(186.474609 0.234375)"/>
      <use xlink:href="#DejaVuSans-6f" transform="translate(272.753906 0.234375)"/>
      <use xlink:href="#DejaVuSans-64" transform="translate(333.935547 0.234375)"/>
      <use xlink:href="#DejaVuSans-65" transform="translate(397.412109 0.234375)"/>
      <use xlink:href="#DejaVuSans-6c" transform="translate(458.935547 0.234375)"/>
      <use xlink:href="#DejaVuSans-20" transform="translate(486.71875 0.234375)"/>
      <use xlink:href="#DejaVuSans-28" transform="translate(518.505859 0.234375)"/>
      <use xlink:href="#DejaVuSans-70" transform="translate(557.519531 0.234375)"/>
      <use xlink:href="#DejaVuSans-3d" transform="translate(620.996094 0.234375)"/>
      <use xlink:href="#DejaVuSans-34" transform="translate(704.785156 0.234375)"/>
      <use xlink:href="#DejaVuSans-2c" transform="translate(768.408203 0.234375)"/>
      <use xlink:href="#DejaVuSans-20" transform="translate(800.195312 0.234375)"/>
      <use xlink:href="#DejaVuSans-Oblique-3b8" transform="translate(831.982422 0.234375)"/>
      <use xlink:href="#DejaVuSans-3d" transform="translate(893.164062 0.234375)"/>
      <use xlink:href="#DejaVuSans-30" transform="translate(976.953125 0.234375)"/>
      <use xlink:href="#DejaVuSans-2e" transform="translate(1040.576172 0.234375)"/>
      <use xlink:href="#DejaVuSans-31" transform="translate(1072.363281 0.234375)"/>
      <use xlink:href="#DejaVuSans-31" transform="translate(1135.986328 0.234375)"/>
      <use xlink:href="#DejaVuSans-29" transform="translate(1199.609375 0.234375)"/>
     </g>
    </g>
   </g>
  </g>
 </g>
 <defs>
  <clipPath id="pe1f070da66">
   <rect x="90" y="51.84" width="558" height="332.64"/>
  </clipPath>
 </defs>
</svg>
