<?xml version="1.0" encoding="utf-8" standalone="no"?>
<!DOCTYPE svg PUBLIC "-//W3C//DTD SVG 1.1//EN"
  "http://www.w3.org/Graphics/SVG/1.1/DTD/svg11.dtd">
<svg xmlns:xlink="http://www.w3.org/1999/xlink" width="720pt" height="432pt" viewBox="0 0 720 432" xmlns="http://www.w3.org/2000/svg" version="1.1">
 <metadata>
  <rdf:RDF xmlns:dc="http://purl.org/dc/elements/1.1/" xmlns:cc="http://creativecommons.org/ns#" xmlns:rdf="http://www.w3.org/1999/02/22-rdf-syntax-ns#">
   <cc:Work>
    <dc:type rdf:resource="http://purl.org/dc/dcmitype/StillImage"/>
    <dc:date>2025-12-16T15:02:57.508818</dc:date>
    <dc:format>image/svg+xml</dc:format>
    <dc:creator>
     <cc:Agent>
      <dc:title>Matplotlib v3.10.7, https://matplotlib.org/</dc:title>
     </cc:Agent>
    </dc:creator>
   </cc:Work>
  </rdf:RDF>
 </metadata>
 <defs>
  <style type="text/css">*{stroke-linejoin: round; stroke-linecap: butt}</style>
 </defs>
 <g id="figure_1">
  <g id="patch_1">
   <path d="M 0 432 
L 720 432 
L 720 0 
L 0 0 
z
" style="fill: #ffffff"/>
  </g>
  <g id="axes_1">
   <g id="patch_2">
    <path d="M 90 384.48 
L 648 384.48 
L 648 51.84 
L 90 51.84 
z
" style="fill: #ffffff"/>
   </g>
   <g id="matplotlib.axis_1">
    <g id="xtick_1">
     <g id="line2d_1">
      <defs>
       <path id="mf79652b2b8" d="M 0 0 
L 0 3.5 
" style="stroke: #000000; stroke-width: 0.8"/>
      </defs>
      <g>
       <use xlink:href="#mf79652b2b8" x="115.363636" y="384.48" style="stroke: #000000; stroke-width: 0.8"/>
      </g>
     </g>
     <g id="text_1">
      <!-- 0 -->
      <g transform="translate(112.182386 399.078438) scale(0.1 -0.1)">
       <defs>
        <path id="DejaVuSans-30" d="M 2034 4250 
Q 1547 4250 1301 3770 
Q 1056 3291 1056 2328 
Q 1056 1369 1301 889 
Q 1547 409 2034 409 
Q 2525 409 2770 889 
Q 3016 1369 3016 2328 
Q 3016 3291 2770 3770 
Q 2525 4250 2034 4250 
z
M 2034 4750 
Q 2819 4750 3233 4129 
Q 3647 3509 3647 2328 
Q 3647 1150 3233 529 
Q 2819 -91 2034 -91 
Q 1250 -91 836 529 
Q 422 1150 422 2328 
Q 422 3509 836 4129 
Q 1250 4750 2034 4750 
z
" transform="scale(0.015625)"/>
       </defs>
       <use xlink:href="#DejaVuSans-30"/>
      </g>
     </g>
    </g>
    <g id="xtick_2">
     <g id="line2d_2">
      <g>
       <use xlink:href="#mf79652b2b8" x="179.091366" y="384.48" style="stroke: #000000; stroke-width: 0.8"/>
      </g>
     </g>
     <g id="text_2">
      <!-- 25 -->
      <g transform="translate(172.728866 399.078438) scale(0.1 -0.1)">
       <defs>
        <path id="DejaVuSans-32" d="M 1228 531 
L 3431 531 
L 3431 0 
L 469 0 
L 469 531 
Q 828 903 1448 1529 
Q 2069 2156 2228 2338 
Q 2531 2678 2651 2914 
Q 2772 3150 2772 3378 
Q 2772 3750 2511 3984 
Q 2250 4219 1831 4219 
Q 1534 4219 1204 4116 
Q 875 4013 500 3803 
L 500 4441 
Q 881 4594 1212 4672 
Q 1544 4750 1819 4750 
Q 2544 4750 2975 4387 
Q 3406 4025 3406 3419 
Q 3406 3131 3298 2873 
Q 3191 2616 2906 2266 
Q 2828 2175 2409 1742 
Q 1991 1309 1228 531 
z
" transform="scale(0.015625)"/>
        <path id="DejaVuSans-35" d="M 691 4666 
L 3169 4666 
L 3169 4134 
L 1269 4134 
L 1269 2991 
Q 1406 3038 1543 3061 
Q 1681 3084 1819 3084 
Q 2600 3084 3056 2656 
Q 3513 2228 3513 1497 
Q 3513 744 3044 326 
Q 2575 -91 1722 -91 
Q 1428 -91 1123 -41 
Q 819 9 494 109 
L 494 744 
Q 775 591 1075 516 
Q 1375 441 1709 441 
Q 2250 441 2565 725 
Q 2881 1009 2881 1497 
Q 2881 1984 2565 2268 
Q 2250 2553 1709 2553 
Q 1456 2553 1204 2497 
Q 953 2441 691 2322 
L 691 4666 
z
" transform="scale(0.015625)"/>
       </defs>
       <use xlink:href="#DejaVuSans-32"/>
       <use xlink:href="#DejaVuSans-35" transform="translate(63.623047 0)"/>
      </g>
     </g>
    </g>
    <g id="xtick_3">
     <g id="line2d_3">
      <g>
       <use xlink:href="#mf79652b2b8" x="242.819095" y="384.48" style="stroke: #000000; stroke-width: 0.8"/>
      </g>
     </g>
     <g id="text_3">
      <!-- 50 -->
      <g transform="translate(236.456595 399.078438) scale(0.1 -0.1)">
       <use xlink:href="#DejaVuSans-35"/>
       <use xlink:href="#DejaVuSans-30" transform="translate(63.623047 0)"/>
      </g>
     </g>
    </g>
    <g id="xtick_4">
     <g id="line2d_4">
      <g>
       <use xlink:href="#mf79652b2b8" x="306.546825" y="384.48" style="stroke: #000000; stroke-width: 0.8"/>
      </g>
     </g>
     <g id="text_4">
      <!-- 75 -->
      <g transform="translate(300.184325 399.078438) scale(0.1 -0.1)">
       <defs>
        <path id="DejaVuSans-37" d="M 525 4666 
L 3525 4666 
L 3525 4397 
L 1831 0 
L 1172 0 
L 2766 4134 
L 525 4134 
L 525 4666 
z
" transform="scale(0.015625)"/>
       </defs>
       <use xlink:href="#DejaVuSans-37"/>
       <use xlink:href="#DejaVuSans-35" transform="translate(63.623047 0)"/>
      </g>
     </g>
    </g>
    <g id="xtick_5">
     <g id="line2d_5">
      <g>
       <use xlink:href="#mf79652b2b8" x="370.274555" y="384.48" style="stroke: #000000; stroke-width: 0.8"/>
      </g>
     </g>
     <g id="text_5">
      <!-- 100 -->
      <g transform="translate(360.730805 399.078438) scale(0.1 -0.1)">
       <defs>
        <path id="DejaVuSans-31" d="M 794 531 
L 1825 531 
L 1825 4091 
L 703 3866 
L 703 4441 
L 1819 4666 
L 2450 4666 
L 2450 531 
L 3481 531 
L 3481 0 
L 794 0 
L 794 531 
z
" transform="scale(0.015625)"/>
       </defs>
       <use xlink:href="#DejaVuSans-31"/>
       <use xlink:href="#DejaVuSans-30" transform="translate(63.623047 0)"/>
       <use xlink:href="#DejaVuSans-30" transform="translate(127.246094 0)"/>
      </g>
     </g>
    </g>
    <g id="xtick_6">
     <g id="line2d_6">
      <g>
       <use xlink:href="#mf79652b2b8" x="434.002284" y="384.48" style="stroke: #000000; stroke-width: 0.8"/>
      </g>
     </g>
     <g id="text_6">
      <!-- 125 -->
      <g transform="translate(424.458534 399.078438) scale(0.1 -0.1)">
       <use xlink:href="#DejaVuSans-31"/>
       <use xlink:href="#DejaVuSans-32" transform="translate(63.623047 0)"/>
       <use xlink:href="#DejaVuSans-35" transform="translate(127.246094 0)"/>
      </g>
     </g>
    </g>
    <g id="xtick_7">
     <g id="line2d_7">
      <g>
       <use xlink:href="#mf79652b2b8" x="497.730014" y="384.48" style="stroke: #000000; stroke-width: 0.8"/>
      </g>
     </g>
     <g id="text_7">
      <!-- 150 -->
      <g transform="translate(488.186264 399.078438) scale(0.1 -0.1)">
       <use xlink:href="#DejaVuSans-31"/>
       <use xlink:href="#DejaVuSans-35" transform="translate(63.623047 0)"/>
       <use xlink:href="#DejaVuSans-30" transform="translate(127.246094 0)"/>
      </g>
     </g>
    </g>
    <g id="xtick_8">
     <g id="line2d_8">
      <g>
       <use xlink:href="#mf79652b2b8" x="561.457743" y="384.48" style="stroke: #000000; stroke-width: 0.8"/>
      </g>
     </g>
     <g id="text_8">
      <!-- 175 -->
      <g transform="translate(551.913993 399.078438) scale(0.1 -0.1)">
       <use xlink:href="#DejaVuSans-31"/>
       <use xlink:href="#DejaVuSans-37" transform="translate(63.623047 0)"/>
       <use xlink:href="#DejaVuSans-35" transform="translate(127.246094 0)"/>
      </g>
     </g>
    </g>
    <g id="xtick_9">
     <g id="line2d_9">
      <g>
       <use xlink:href="#mf79652b2b8" x="625.185473" y="384.48" style="stroke: #000000; stroke-width: 0.8"/>
      </g>
     </g>
     <g id="text_9">
      <!-- 200 -->
      <g transform="translate(615.641723 399.078438) scale(0.1 -0.1)">
       <use xlink:href="#DejaVuSans-32"/>
       <use xlink:href="#DejaVuSans-30" transform="translate(63.623047 0)"/>
       <use xlink:href="#DejaVuSans-30" transform="translate(127.246094 0)"/>
      </g>
     </g>
    </g>
   </g>
   <g id="matplotlib.axis_2">
    <g id="ytick_1">
     <g id="line2d_10">
      <defs>
       <path id="mf924ca8a90" d="M 0 0 
L -3.5 0 
" style="stroke: #000000; stroke-width: 0.8"/>
      </defs>
      <g>
       <use xlink:href="#mf924ca8a90" x="90" y="336.919349" style="stroke: #000000; stroke-width: 0.8"/>
      </g>
     </g>
     <g id="text_10">
      <!-- −20 -->
      <g transform="translate(61.895313 340.718567) scale(0.1 -0.1)">
       <defs>
        <path id="DejaVuSans-2212" d="M 678 2272 
L 4684 2272 
L 4684 1741 
L 678 1741 
L 678 2272 
z
" transform="scale(0.015625)"/>
       </defs>
       <use xlink:href="#DejaVuSans-2212"/>
       <use xlink:href="#DejaVuSans-32" transform="translate(83.789062 0)"/>
       <use xlink:href="#DejaVuSans-30" transform="translate(147.412109 0)"/>
      </g>
     </g>
    </g>
    <g id="ytick_2">
     <g id="line2d_11">
      <g>
       <use xlink:href="#mf924ca8a90" x="90" y="266.335079" style="stroke: #000000; stroke-width: 0.8"/>
      </g>
     </g>
     <g id="text_11">
      <!-- 0 -->
      <g transform="translate(76.6375 270.134298) scale(0.1 -0.1)">
       <use xlink:href="#DejaVuSans-30"/>
      </g>
     </g>
    </g>
    <g id="ytick_3">
     <g id="line2d_12">
      <g>
       <use xlink:href="#mf924ca8a90" x="90" y="195.75081" style="stroke: #000000; stroke-width: 0.8"/>
      </g>
     </g>
     <g id="text_12">
      <!-- 20 -->
      <g transform="translate(70.275 199.550028) scale(0.1 -0.1)">
       <use xlink:href="#DejaVuSans-32"/>
       <use xlink:href="#DejaVuSans-30" transform="translate(63.623047 0)"/>
      </g>
     </g>
    </g>
    <g id="ytick_4">
     <g id="line2d_13">
      <g>
       <use xlink:href="#mf924ca8a90" x="90" y="125.16654" style="stroke: #000000; stroke-width: 0.8"/>
      </g>
     </g>
     <g id="text_13">
      <!-- 40 -->
      <g transform="translate(70.275 128.965759) scale(0.1 -0.1)">
       <defs>
        <path id="DejaVuSans-34" d="M 2419 4116 
L 825 1625 
L 2419 1625 
L 2419 4116 
z
M 2253 4666 
L 3047 4666 
L 3047 1625 
L 3713 1625 
L 3713 1100 
L 3047 1100 
L 3047 0 
L 2419 0 
L 2419 1100 
L 313 1100 
L 313 1709 
L 2253 4666 
z
" transform="scale(0.015625)"/>
       </defs>
       <use xlink:href="#DejaVuSans-34"/>
       <use xlink:href="#DejaVuSans-30" transform="translate(63.623047 0)"/>
      </g>
     </g>
    </g>
    <g id="ytick_5">
     <g id="line2d_14">
      <g>
       <use xlink:href="#mf924ca8a90" x="90" y="54.582271" style="stroke: #000000; stroke-width: 0.8"/>
      </g>
     </g>
     <g id="text_14">
      <!-- 60 -->
      <g transform="translate(70.275 58.381489) scale(0.1 -0.1)">
       <defs>
        <path id="DejaVuSans-36" d="M 2113 2584 
Q 1688 2584 1439 2293 
Q 1191 2003 1191 1497 
Q 1191 994 1439 701 
Q 1688 409 2113 409 
Q 2538 409 2786 701 
Q 3034 994 3034 1497 
Q 3034 2003 2786 2293 
Q 2538 2584 2113 2584 
z
M 3366 4563 
L 3366 3988 
Q 3128 4100 2886 4159 
Q 2644 4219 2406 4219 
Q 1781 4219 1451 3797 
Q 1122 3375 1075 2522 
Q 1259 2794 1537 2939 
Q 1816 3084 2150 3084 
Q 2853 3084 3261 2657 
Q 3669 2231 3669 1497 
Q 3669 778 3244 343 
Q 2819 -91 2113 -91 
Q 1303 -91 875 529 
Q 447 1150 447 2328 
Q 447 3434 972 4092 
Q 1497 4750 2381 4750 
Q 2619 4750 2861 4703 
Q 3103 4656 3366 4563 
z
" transform="scale(0.015625)"/>
       </defs>
       <use xlink:href="#DejaVuSans-36"/>
       <use xlink:href="#DejaVuSans-30" transform="translate(63.623047 0)"/>
      </g>
     </g>
    </g>
   </g>
   <g id="line2d_15">
    <path d="M 115.363636 259.276652 
L 117.912746 239.17113 
L 120.461855 220.272313 
L 123.010964 203.680561 
L 125.560073 190.293097 
L 128.109182 180.727106 
L 130.658291 175.269699 
L 133.207401 173.859505 
L 135.75651 176.101522 
L 138.305619 181.313641 
L 140.854728 188.600163 
L 145.952947 205.315394 
L 148.502056 212.765802 
L 151.051165 218.531954 
L 153.600274 222.105634 
L 156.149383 223.282995 
L 158.698492 222.181659 
L 161.247602 219.224977 
L 163.796711 215.095056 
L 166.34582 210.659248 
L 168.894929 206.877384 
L 171.444038 204.698977 
L 173.993148 204.960583 
L 176.542257 208.293529 
L 179.091366 215.051196 
L 181.640475 225.26315 
L 184.189584 238.620793 
L 186.738693 254.496116 
L 194.386021 307.390638 
L 196.93513 322.932784 
L 199.484239 335.586289 
L 202.033349 344.504709 
L 204.582458 349.130005 
L 207.131567 349.241633 
L 209.680676 344.973912 
L 212.229785 336.800016 
L 214.778894 325.48422 
L 217.328004 312.007091 
L 222.426222 282.994752 
L 224.975331 269.608936 
L 227.52444 258.159928 
L 230.07355 249.234117 
L 232.622659 243.108296 
L 235.171768 239.731413 
L 237.720877 238.73926 
L 240.269986 239.500509 
L 245.368205 242.878004 
L 247.917314 243.638195 
L 250.466423 242.644277 
L 253.015532 239.264924 
L 255.564641 233.135927 
L 258.113751 224.206233 
L 260.66286 212.752637 
L 263.211969 199.361527 
L 268.310187 170.336483 
L 270.859296 156.851942 
L 273.408406 145.52803 
L 275.957515 137.34531 
L 278.506624 133.06806 
L 281.055733 133.169454 
L 283.604842 137.783809 
L 286.153952 146.690583 
L 288.703061 159.331736 
L 291.25217 174.860823 
L 296.350388 210.231336 
L 298.899497 227.711937 
L 301.448607 243.571378 
L 303.997716 256.912434 
L 306.546825 267.107095 
L 309.095934 273.846762 
L 311.645043 277.161004 
L 314.194153 277.403199 
L 316.743262 275.204675 
L 319.292371 271.401989 
L 321.84148 266.944652 
L 324.390589 262.792498 
L 326.939698 259.812876 
L 329.488808 258.687894 
L 332.037917 259.840904 
L 334.587026 263.389526 
L 337.136135 269.129915 
L 339.685244 276.553853 
L 344.783463 293.214029 
L 347.332572 300.471965 
L 349.881681 305.654791 
L 352.43079 307.86681 
L 354.979899 306.425911 
L 357.529009 300.937094 
L 360.078118 291.338987 
L 362.627227 277.918702 
L 365.176336 261.293422 
L 367.725445 242.360372 
L 372.823664 202.079097 
L 375.372773 183.144987 
L 377.921882 166.517943 
L 380.470991 153.095187 
L 383.020101 143.493904 
L 385.56921 138.001205 
L 388.118319 136.555719 
L 390.667428 138.762443 
L 393.216537 143.93927 
L 395.765646 151.1905 
L 400.863865 167.835147 
L 403.412974 175.250263 
L 405.962083 180.981122 
L 408.511192 184.51951 
L 411.060302 185.661579 
L 413.609411 184.524951 
L 416.15852 181.532977 
L 418.707629 177.367764 
L 421.256738 172.896664 
L 423.805847 169.079508 
L 426.354957 166.865808 
L 428.904066 167.092122 
L 431.453175 170.389776 
L 434.002284 177.112151 
L 436.551393 187.288813 
L 439.100503 200.611164 
L 441.649612 216.451194 
L 449.296939 269.239841 
L 451.846048 284.746694 
L 454.395158 297.364907 
L 456.944267 306.248035 
L 459.493376 310.838039 
L 462.042485 310.914375 
L 464.591594 306.611361 
L 467.140704 298.402173 
L 469.689813 287.051086 
L 472.238922 273.538664 
L 477.33714 244.455741 
L 479.886249 231.034633 
L 482.435359 219.550332 
L 484.984468 210.589229 
L 487.533577 204.428116 
L 490.082686 201.015941 
L 492.631795 199.988496 
L 495.180905 200.714453 
L 500.279123 204.021363 
L 502.828232 204.746262 
L 505.377341 203.717052 
L 507.92645 200.302407 
L 510.47556 194.138118 
L 513.024669 185.173132 
L 515.573778 173.684244 
L 518.122887 160.257841 
L 523.221106 131.162214 
L 525.770215 117.642381 
L 528.319324 106.283176 
L 530.868433 98.065164 
L 533.417542 93.752622 
L 535.966651 93.818724 
L 538.515761 98.397787 
L 541.06487 107.269269 
L 543.613979 119.875129 
L 546.163088 135.368924 
L 551.261307 170.668853 
L 553.810416 188.114161 
L 556.359525 203.93831 
L 558.908634 217.244074 
L 561.457743 227.403443 
L 564.006852 234.107819 
L 566.555962 237.386768 
L 569.105071 237.593671 
L 571.65418 235.359855 
L 574.203289 231.521876 
L 576.752398 227.029248 
L 579.301508 222.841802 
L 581.850617 219.826887 
L 584.399726 218.666613 
L 586.948835 219.784331 
L 589.497944 223.297661 
L 592.047053 229.002758 
L 594.596163 236.391404 
L 599.694381 252.980995 
L 602.24349 260.203639 
L 604.792599 265.351173 
L 607.341709 267.5279 
L 609.890818 266.051709 
L 612.439927 260.5276 
L 614.989036 250.894201 
L 617.538145 237.438624 
L 620.087254 220.778051 
L 622.636364 201.809709 
L 622.636364 201.809709 
" clip-path="url(#p02f7c239e9)" style="fill: none; stroke: #1f77b4; stroke-width: 1.5; stroke-linecap: square"/>
   </g>
   <g id="line2d_16">
    <path d="M 115.363636 249.445781 
L 117.912746 244.090672 
L 120.461855 200.957833 
L 123.010964 205.70253 
L 125.560073 194.134456 
L 128.109182 201.071648 
L 130.658291 183.852581 
L 133.207401 195.458663 
L 135.75651 173.485315 
L 138.305619 178.860299 
L 140.854728 175.874967 
L 143.403837 194.361807 
L 145.952947 194.148187 
L 148.502056 217.396738 
L 151.051165 220.952396 
L 153.600274 207.499321 
L 156.149383 205.806406 
L 158.698492 224.196515 
L 161.247602 223.5898 
L 163.796711 243.647888 
L 166.34582 245.122151 
L 168.894929 223.720115 
L 171.444038 238.000293 
L 173.993148 226.471199 
L 176.542257 192.080143 
L 179.091366 201.879661 
L 181.640475 193.680345 
L 184.189584 216.999787 
L 186.738693 233.720863 
L 189.287803 267.791368 
L 194.386021 292.834852 
L 196.93513 322.615204 
L 199.484239 327.428502 
L 202.033349 329.339513 
L 204.582458 353.042379 
L 207.131567 341.199654 
L 209.680676 360.300618 
L 212.229785 338.349985 
L 214.778894 325.563638 
L 217.328004 313.855172 
L 219.877113 318.542973 
L 222.426222 301.294105 
L 224.975331 269.528432 
L 227.52444 267.218269 
L 232.622659 247.279816 
L 235.171768 252.85216 
L 237.720877 259.569479 
L 240.269986 268.334582 
L 242.819095 255.30631 
L 245.368205 257.256782 
L 247.917314 256.105161 
L 250.466423 260.780957 
L 253.015532 243.584684 
L 255.564641 216.898173 
L 258.113751 219.099168 
L 260.66286 223.389921 
L 263.211969 219.320596 
L 265.761078 178.816467 
L 268.310187 165.353647 
L 270.859296 166.65433 
L 273.408406 144.366725 
L 275.957515 148.154657 
L 278.506624 138.141429 
L 281.055733 112.935432 
L 283.604842 130.922262 
L 286.153952 147.527595 
L 288.703061 136.753321 
L 291.25217 169.644826 
L 293.801279 160.6581 
L 296.350388 198.000296 
L 298.899497 215.756666 
L 301.448607 237.984048 
L 303.997716 253.503839 
L 306.546825 263.279169 
L 309.095934 281.324751 
L 311.645043 286.963889 
L 314.194153 280.008656 
L 316.743262 305.125236 
L 319.292371 299.23416 
L 321.84148 261.754928 
L 324.390589 254.910189 
L 326.939698 240.737585 
L 329.488808 249.863811 
L 332.037917 261.657191 
L 334.587026 274.087929 
L 337.136135 274.055217 
L 339.685244 277.050021 
L 342.234354 269.127547 
L 344.783463 278.898049 
L 347.332572 300.159659 
L 349.881681 288.713092 
L 352.43079 304.183705 
L 354.979899 296.190518 
L 357.529009 315.314849 
L 360.078118 277.723194 
L 362.627227 279.315781 
L 365.176336 286.402355 
L 367.725445 265.447155 
L 370.274555 241.272651 
L 372.823664 220.172828 
L 377.921882 185.401743 
L 380.470991 161.800481 
L 383.020101 152.07255 
L 385.56921 155.287908 
L 388.118319 151.779827 
L 390.667428 160.476081 
L 393.216537 161.638989 
L 395.765646 133.046626 
L 398.314756 141.289582 
L 400.863865 173.359116 
L 403.412974 157.940985 
L 405.962083 182.272538 
L 408.511192 195.110289 
L 411.060302 188.431881 
L 413.609411 194.262414 
L 416.15852 182.957984 
L 418.707629 178.138466 
L 421.256738 183.604178 
L 423.805847 180.643309 
L 426.354957 189.831151 
L 428.904066 172.522839 
L 431.453175 170.166949 
L 434.002284 180.812019 
L 436.551393 174.905506 
L 439.100503 201.201848 
L 441.649612 191.867947 
L 444.198721 219.673423 
L 446.74783 243.76169 
L 449.296939 241.326725 
L 451.846048 267.894681 
L 454.395158 275.609062 
L 456.944267 293.864153 
L 459.493376 286.609781 
L 462.042485 303.733618 
L 464.591594 310.738802 
L 467.140704 301.801786 
L 469.689813 299.041438 
L 472.238922 267.018184 
L 474.788031 251.685876 
L 477.33714 249.754098 
L 479.886249 224.684472 
L 482.435359 226.151711 
L 487.533577 212.154708 
L 490.082686 198.345726 
L 492.631795 204.10556 
L 495.180905 204.612732 
L 497.730014 203.593874 
L 500.279123 212.320074 
L 502.828232 206.344581 
L 505.377341 214.167769 
L 507.92645 201.147472 
L 510.47556 207.297688 
L 513.024669 192.731442 
L 515.573778 152.044548 
L 518.122887 152.245805 
L 520.671996 150.173594 
L 523.221106 144.171271 
L 525.770215 121.698846 
L 528.319324 120.453584 
L 530.868433 103.210981 
L 533.417542 93.34967 
L 535.966651 76.865541 
L 538.515761 94.20956 
L 541.06487 109.852554 
L 543.613979 112.579063 
L 546.163088 124.578769 
L 548.712197 153.026952 
L 551.261307 157.115669 
L 553.810416 179.736164 
L 556.359525 186.200415 
L 558.908634 216.020332 
L 561.457743 228.043222 
L 564.006852 240.776782 
L 566.555962 249.990007 
L 569.105071 244.040679 
L 571.65418 256.797317 
L 574.203289 251.887296 
L 576.752398 231.652605 
L 579.301508 231.783108 
L 581.850617 202.617813 
L 584.399726 184.905943 
L 586.948835 212.388587 
L 589.497944 220.282721 
L 592.047053 226.496143 
L 594.596163 233.721026 
L 597.145272 235.430875 
L 599.694381 245.561684 
L 602.24349 275.658442 
L 604.792599 265.540849 
L 607.341709 267.157366 
L 609.890818 293.669555 
L 612.439927 278.763523 
L 614.989036 272.177746 
L 617.538145 257.583383 
L 620.087254 205.973755 
L 622.636364 224.406184 
L 622.636364 224.406184 
" clip-path="url(#p02f7c239e9)" style="fill: none; stroke: #ff7f0e; stroke-width: 1.5; stroke-linecap: square"/>
   </g>
   <g id="line2d_17">
    <path d="M 115.363636 249.445781 
L 117.912746 243.982311 
L 120.461855 199.549423 
L 123.010964 200.839914 
L 125.560073 188.576112 
L 128.109182 195.216078 
L 130.658291 178.782723 
L 133.207401 190.319469 
L 135.75651 169.384363 
L 138.305619 174.19369 
L 140.854728 171.90428 
L 143.403837 191.337111 
L 145.952947 193.262853 
L 148.502056 217.964525 
L 151.051165 223.841602 
L 153.600274 210.9736 
L 156.149383 208.052064 
L 158.698492 225.894896 
L 161.247602 226.193867 
L 163.796711 246.657137 
L 166.34582 249.430466 
L 168.894929 227.694965 
L 171.444038 240.037703 
L 173.993148 228.270446 
L 176.542257 192.003357 
L 179.091366 198.689891 
L 181.640475 190.165696 
L 184.189584 213.66251 
L 186.738693 232.944523 
L 189.287803 270.100626 
L 191.836912 286.50191 
L 194.386021 300.876915 
L 196.93513 331.972261 
L 199.484239 338.44159 
L 202.033349 340.033763 
L 204.582458 362.866696 
L 207.131567 350.929147 
L 209.680676 368.264979 
L 212.229785 345.540164 
L 214.778894 329.637021 
L 217.328004 314.93738 
L 219.877113 317.477626 
L 222.426222 299.472496 
L 224.975331 265.706318 
L 227.52444 260.656703 
L 230.07355 249.788648 
L 232.622659 239.72849 
L 235.171768 245.522807 
L 237.720877 253.811515 
L 240.269986 264.633318 
L 242.819095 253.311888 
L 245.368205 255.298346 
L 247.917314 254.531465 
L 250.466423 259.575984 
L 253.015532 242.683453 
L 255.564641 214.425143 
L 258.113751 214.359823 
L 260.66286 218.563868 
L 263.211969 215.306934 
L 265.761078 174.528617 
L 268.310187 158.228351 
L 270.859296 158.28973 
L 273.408406 136.196976 
L 275.957515 139.531619 
L 278.506624 130.503967 
L 281.055733 105.425824 
L 283.604842 122.919163 
L 286.153952 142.003649 
L 288.703061 133.968369 
L 291.25217 168.216598 
L 293.801279 162.224546 
L 296.350388 200.698729 
L 298.899497 221.702727 
L 301.448607 246.282837 
L 303.997716 263.680807 
L 306.546825 274.286694 
L 309.095934 292.365837 
L 311.645043 298.064957 
L 314.194153 290.000404 
L 316.743262 313.381668 
L 319.292371 307.461621 
L 321.84148 267.730761 
L 324.390589 256.283154 
L 326.939698 239.236742 
L 329.488808 246.499767 
L 332.037917 258.862742 
L 334.587026 273.008412 
L 337.136135 274.741999 
L 339.685244 278.439206 
L 342.234354 270.692335 
L 344.783463 279.948365 
L 347.332572 302.016461 
L 349.881681 292.00917 
L 352.43079 307.123301 
L 354.979899 299.591661 
L 357.529009 318.270643 
L 360.078118 280.773034 
L 362.627227 279.268395 
L 365.176336 285.339522 
L 367.725445 264.199043 
L 370.274555 238.067055 
L 372.823664 214.34861 
L 377.921882 175.789 
L 380.470991 150.996504 
L 383.020101 140.205303 
L 385.56921 143.833691 
L 388.118319 142.118986 
L 390.667428 152.701976 
L 393.216537 156.300927 
L 395.765646 128.903173 
L 398.314756 136.219016 
L 400.863865 169.807607 
L 403.412974 157.530231 
L 405.962083 182.566467 
L 408.511192 197.718419 
L 411.060302 192.481544 
L 413.609411 198.018433 
L 416.15852 186.3177 
L 418.707629 179.973373 
L 421.256738 184.32852 
L 423.805847 181.1601 
L 426.354957 190.163205 
L 428.904066 173.065635 
L 431.453175 169.399985 
L 434.002284 179.641215 
L 436.551393 174.384184 
L 439.100503 201.110914 
L 441.649612 193.723223 
L 444.198721 221.971119 
L 446.74783 248.495001 
L 449.296939 248.19994 
L 451.846048 275.138229 
L 454.395158 284.207043 
L 456.944267 302.870606 
L 459.493376 295.844612 
L 462.042485 311.699442 
L 464.591594 318.575385 
L 467.140704 308.926446 
L 469.689813 304.248977 
L 472.238922 269.917874 
L 474.788031 250.582154 
L 477.33714 245.959352 
L 479.886249 219.607269 
L 482.435359 219.363688 
L 487.533577 205.731828 
L 490.082686 192.03649 
L 492.631795 197.740106 
L 495.180905 199.469185 
L 497.730014 199.626842 
L 500.279123 209.445565 
L 502.828232 204.812394 
L 505.377341 213.102441 
L 507.92645 200.726114 
L 510.47556 206.357829 
L 513.024669 191.856494 
L 515.573778 149.406811 
L 518.122887 146.207435 
L 520.671996 143.467128 
L 523.221106 137.765542 
L 525.770215 115.332864 
L 528.319324 113.225361 
L 530.868433 96.103115 
L 533.417542 85.719749 
L 535.966651 68.925874 
L 538.515761 86.28202 
L 541.06487 104.536936 
L 543.613979 110.232952 
L 546.163088 124.205065 
L 548.712197 154.980918 
L 551.261307 161.972533 
L 553.810416 185.938273 
L 556.359525 193.975727 
L 558.908634 224.540784 
L 564.006852 251.51767 
L 566.555962 260.720308 
L 569.105071 253.964297 
L 571.65418 264.943918 
L 574.203289 259.107128 
L 576.752398 236.798552 
L 579.301508 233.922069 
L 581.850617 202.659168 
L 584.399726 181.557425 
L 586.948835 207.307546 
L 589.497944 217.322595 
L 592.047053 225.500203 
L 594.596163 234.270919 
L 597.145272 237.120147 
L 599.694381 247.839649 
L 602.24349 279.249195 
L 604.792599 271.240706 
L 607.341709 272.290675 
L 609.890818 298.572019 
L 612.439927 284.607074 
L 614.989036 276.432568 
L 617.538145 259.8571 
L 620.087254 205.014157 
L 622.636364 218.784609 
L 622.636364 218.784609 
" clip-path="url(#p02f7c239e9)" style="fill: none; stroke: #2ca02c; stroke-width: 1.5; stroke-linecap: square"/>
   </g>
   <g id="line2d_18">
    <path d="M 115.363636 249.445781 
L 117.912746 243.640696 
L 120.461855 196.426719 
L 123.010964 197.833087 
L 125.560073 185.357524 
L 128.109182 193.131541 
L 130.658291 176.524128 
L 133.207401 189.510613 
L 135.75651 168.032911 
L 138.305619 173.684154 
L 140.854728 171.84728 
L 143.403837 192.975966 
L 145.952947 195.410465 
L 148.502056 221.717453 
L 151.051165 227.831031 
L 153.600274 213.656079 
L 156.149383 209.841472 
L 158.698492 228.206206 
L 161.247602 228.091093 
L 163.796711 249.322615 
L 166.34582 251.785713 
L 168.894929 228.047031 
L 171.444038 240.475708 
L 173.993148 227.606168 
L 176.542257 188.76322 
L 179.091366 195.747852 
L 181.640475 187.100686 
L 184.189584 212.612632 
L 186.738693 233.763451 
L 189.287803 273.631312 
L 191.836912 291.06955 
L 194.386021 305.757066 
L 196.93513 337.811558 
L 199.484239 343.478393 
L 202.033349 343.653935 
L 204.582458 366.365737 
L 207.131567 352.309623 
L 209.680676 369.36 
L 212.229785 344.178301 
L 214.778894 326.348745 
L 217.328004 310.240272 
L 219.877113 312.92753 
L 222.426222 294.218351 
L 224.975331 258.914726 
L 227.52444 254.342984 
L 230.07355 244.004861 
L 232.622659 234.651843 
L 235.171768 242.177081 
L 237.720877 252.328239 
L 240.269986 264.936647 
L 242.819095 253.676791 
L 245.368205 256.160766 
L 247.917314 255.598998 
L 250.466423 261.085524 
L 253.015532 243.183137 
L 255.564641 213.079024 
L 258.113751 213.04289 
L 260.66286 217.901605 
L 263.211969 214.950434 
L 265.761078 172.066401 
L 268.310187 155.109279 
L 270.859296 155.89522 
L 273.408406 133.399687 
L 275.957515 137.901213 
L 278.506624 129.377752 
L 281.055733 103.662283 
L 283.604842 123.068218 
L 286.153952 144.280921 
L 288.703061 136.405919 
L 291.25217 172.997141 
L 293.801279 166.663789 
L 296.350388 207.069725 
L 298.899497 228.784891 
L 301.448607 253.858896 
L 303.997716 270.967093 
L 306.546825 280.576176 
L 309.095934 297.987039 
L 311.645043 302.279367 
L 314.194153 291.979201 
L 316.743262 315.257928 
L 319.292371 307.794616 
L 321.84148 264.492393 
L 324.390589 251.48927 
L 326.939698 233.234591 
L 329.488808 241.31799 
L 332.037917 255.252411 
L 334.587026 271.147732 
L 337.136135 273.675043 
L 339.685244 277.979021 
L 342.234354 269.925187 
L 344.783463 279.78525 
L 347.332572 303.283641 
L 349.881681 292.621188 
L 352.43079 308.366753 
L 354.979899 300.078645 
L 357.529009 319.518679 
L 360.078118 279.362222 
L 362.627227 277.308158 
L 365.176336 283.724348 
L 367.725445 261.465351 
L 370.274555 233.923679 
L 372.823664 209.165507 
L 377.921882 170.108751 
L 380.470991 145.133527 
L 383.020101 135.190518 
L 385.56921 140.73054 
L 388.118319 140.581632 
L 390.667428 153.232559 
L 393.216537 158.165984 
L 395.765646 129.740804 
L 398.314756 137.825555 
L 400.863865 173.889411 
L 403.412974 161.106706 
L 405.962083 187.464922 
L 408.511192 203.227345 
L 411.060302 197.016369 
L 413.609411 201.980855 
L 416.15852 188.650184 
L 418.707629 181.043609 
L 421.256738 185.044222 
L 423.805847 181.30982 
L 426.354957 190.623907 
L 428.904066 172.33231 
L 431.453175 168.279086 
L 434.002284 179.199671 
L 436.551393 173.793272 
L 439.100503 202.300377 
L 441.649612 194.588591 
L 444.198721 224.431508 
L 446.74783 252.412884 
L 449.296939 251.601434 
L 451.846048 279.341941 
L 454.395158 288.035618 
L 456.944267 306.711832 
L 459.493376 298.043444 
L 462.042485 313.604038 
L 464.591594 319.843253 
L 467.140704 308.602082 
L 469.689813 302.740252 
L 472.238922 265.658239 
L 474.788031 244.784575 
L 477.33714 240.125976 
L 479.886249 212.877122 
L 482.435359 213.585814 
L 487.533577 201.672071 
L 490.082686 188.349077 
L 492.631795 195.535421 
L 495.180905 198.471757 
L 497.730014 199.523747 
L 500.279123 210.601215 
L 502.828232 206.119551 
L 505.377341 215.087881 
L 507.92645 201.982382 
L 510.47556 207.832203 
L 513.024669 192.347254 
L 515.573778 147.117107 
L 518.122887 143.712508 
L 520.671996 141.324093 
L 523.221106 136.006659 
L 525.770215 112.945922 
L 528.319324 111.44551 
L 530.868433 94.124883 
L 533.417542 83.922779 
L 535.966651 66.96 
L 538.515761 86.289754 
L 541.06487 106.6484 
L 543.613979 113.370565 
L 546.163088 128.433204 
L 548.712197 161.019386 
L 551.261307 168.01704 
L 553.810416 192.576328 
L 556.359525 200.000893 
L 558.908634 231.107191 
L 561.457743 244.245068 
L 564.006852 256.738306 
L 566.555962 264.8493 
L 569.105071 256.03948 
L 571.65418 266.192186 
L 574.203289 258.81718 
L 576.752398 234.142248 
L 579.301508 230.411532 
L 581.850617 197.026724 
L 584.399726 174.752031 
L 586.948835 202.768309 
L 589.497944 214.515381 
L 594.596163 234.091799 
L 597.145272 237.468402 
L 599.694381 248.935341 
L 602.24349 282.224332 
L 604.792599 273.461533 
L 607.341709 273.915231 
L 609.890818 301.155882 
L 612.439927 285.712866 
L 614.989036 276.235603 
L 617.538145 258.001666 
L 620.087254 199.361051 
L 622.636364 213.96544 
L 622.636364 213.96544 
" clip-path="url(#p02f7c239e9)" style="fill: none; stroke: #d62728; stroke-width: 1.5; stroke-linecap: square"/>
   </g>
   <g id="patch_3">
    <path d="M 90 384.48 
L 90 51.84 
" style="fill: none; stroke: #000000; stroke-width: 0.8; stroke-linejoin: miter; stroke-linecap: square"/>
   </g>
   <g id="patch_4">
    <path d="M 648 384.48 
L 648 51.84 
" style="fill: none; stroke: #000000; stroke-width: 0.8; stroke-linejoin: miter; stroke-linecap: square"/>
   </g>
   <g id="patch_5">
    <path d="M 90 384.48 
L 648 384.48 
" style="fill: none; stroke: #000000; stroke-width: 0.8; stroke-linejoin: miter; stroke-linecap: square"/>
   </g>
   <g id="patch_6">
    <path d="M 90 51.84 
L 648 51.84 
" style="fill: none; stroke: #000000; stroke-width: 0.8; stroke-linejoin: miter; stroke-linecap: square"/>
   </g>
   <g id="legend_1">
    <g id="patch_7">
     <path d="M 97 118.574375 
L 474.6 118.574375 
Q 476.6 118.574375 476.6 116.574375 
L 476.6 58.84 
Q 476.6 56.84 474.6 56.84 
L 97 56.84 
Q 95 56.84 95 58.84 
L 95 116.574375 
Q 95 118.574375 97 118.574375 
z
" style="fill: #ffffff; opacity: 0.8; stroke: #cccccc; stroke-linejoin: miter"/>
    </g>
    <g id="line2d_19">
     <path d="M 99 64.938437 
L 109 64.938437 
L 119 64.938437 
" style="fill: none; stroke: #1f77b4; stroke-width: 1.5; stroke-linecap: square"/>
    </g>
    <g id="text_15">
     <!-- time series with no noise -->
     <g transform="translate(127 68.438437) scale(0.1 -0.1)">
      <defs>
       <path id="DejaVuSans-74" d="M 1172 4494 
L 1172 3500 
L 2356 3500 
L 2356 3053 
L 1172 3053 
L 1172 1153 
Q 1172 725 1289 603 
Q 1406 481 1766 481 
L 2356 481 
L 2356 0 
L 1766 0 
Q 1100 0 847 248 
Q 594 497 594 1153 
L 594 3053 
L 172 3053 
L 172 3500 
L 594 3500 
L 594 4494 
L 1172 4494 
z
" transform="scale(0.015625)"/>
       <path id="DejaVuSans-69" d="M 603 3500 
L 1178 3500 
L 1178 0 
L 603 0 
L 603 3500 
z
M 603 4863 
L 1178 4863 
L 1178 4134 
L 603 4134 
L 603 4863 
z
" transform="scale(0.015625)"/>
       <path id="DejaVuSans-6d" d="M 3328 2828 
Q 3544 3216 3844 3400 
Q 4144 3584 4550 3584 
Q 5097 3584 5394 3201 
Q 5691 2819 5691 2113 
L 5691 0 
L 5113 0 
L 5113 2094 
Q 5113 2597 4934 2840 
Q 4756 3084 4391 3084 
Q 3944 3084 3684 2787 
Q 3425 2491 3425 1978 
L 3425 0 
L 2847 0 
L 2847 2094 
Q 2847 2600 2669 2842 
Q 2491 3084 2119 3084 
Q 1678 3084 1418 2786 
Q 1159 2488 1159 1978 
L 1159 0 
L 581 0 
L 581 3500 
L 1159 3500 
L 1159 2956 
Q 1356 3278 1631 3431 
Q 1906 3584 2284 3584 
Q 2666 3584 2933 3390 
Q 3200 3197 3328 2828 
z
" transform="scale(0.015625)"/>
       <path id="DejaVuSans-65" d="M 3597 1894 
L 3597 1613 
L 953 1613 
Q 991 1019 1311 708 
Q 1631 397 2203 397 
Q 2534 397 2845 478 
Q 3156 559 3463 722 
L 3463 178 
Q 3153 47 2828 -22 
Q 2503 -91 2169 -91 
Q 1331 -91 842 396 
Q 353 884 353 1716 
Q 353 2575 817 3079 
Q 1281 3584 2069 3584 
Q 2775 3584 3186 3129 
Q 3597 2675 3597 1894 
z
M 3022 2063 
Q 3016 2534 2758 2815 
Q 2500 3097 2075 3097 
Q 1594 3097 1305 2825 
Q 1016 2553 972 2059 
L 3022 2063 
z
" transform="scale(0.015625)"/>
       <path id="DejaVuSans-20" transform="scale(0.015625)"/>
       <path id="DejaVuSans-73" d="M 2834 3397 
L 2834 2853 
Q 2591 2978 2328 3040 
Q 2066 3103 1784 3103 
Q 1356 3103 1142 2972 
Q 928 2841 928 2578 
Q 928 2378 1081 2264 
Q 1234 2150 1697 2047 
L 1894 2003 
Q 2506 1872 2764 1633 
Q 3022 1394 3022 966 
Q 3022 478 2636 193 
Q 2250 -91 1575 -91 
Q 1294 -91 989 -36 
Q 684 19 347 128 
L 347 722 
Q 666 556 975 473 
Q 1284 391 1588 391 
Q 1994 391 2212 530 
Q 2431 669 2431 922 
Q 2431 1156 2273 1281 
Q 2116 1406 1581 1522 
L 1381 1569 
Q 847 1681 609 1914 
Q 372 2147 372 2553 
Q 372 3047 722 3315 
Q 1072 3584 1716 3584 
Q 2034 3584 2315 3537 
Q 2597 3491 2834 3397 
z
" transform="scale(0.015625)"/>
       <path id="DejaVuSans-72" d="M 2631 2963 
Q 2534 3019 2420 3045 
Q 2306 3072 2169 3072 
Q 1681 3072 1420 2755 
Q 1159 2438 1159 1844 
L 1159 0 
L 581 0 
L 581 3500 
L 1159 3500 
L 1159 2956 
Q 1341 3275 1631 3429 
Q 1922 3584 2338 3584 
Q 2397 3584 2469 3576 
Q 2541 3569 2628 3553 
L 2631 2963 
z
" transform="scale(0.015625)"/>
       <path id="DejaVuSans-77" d="M 269 3500 
L 844 3500 
L 1563 769 
L 2278 3500 
L 2956 3500 
L 3675 769 
L 4391 3500 
L 4966 3500 
L 4050 0 
L 3372 0 
L 2619 2869 
L 1863 0 
L 1184 0 
L 269 3500 
z
" transform="scale(0.015625)"/>
       <path id="DejaVuSans-68" d="M 3513 2113 
L 3513 0 
L 2938 0 
L 2938 2094 
Q 2938 2591 2744 2837 
Q 2550 3084 2163 3084 
Q 1697 3084 1428 2787 
Q 1159 2491 1159 1978 
L 1159 0 
L 581 0 
L 581 4863 
L 1159 4863 
L 1159 2956 
Q 1366 3272 1645 3428 
Q 1925 3584 2291 3584 
Q 2894 3584 3203 3211 
Q 3513 2838 3513 2113 
z
" transform="scale(0.015625)"/>
       <path id="DejaVuSans-6e" d="M 3513 2113 
L 3513 0 
L 2938 0 
L 2938 2094 
Q 2938 2591 2744 2837 
Q 2550 3084 2163 3084 
Q 1697 3084 1428 2787 
Q 1159 2491 1159 1978 
L 1159 0 
L 581 0 
L 581 3500 
L 1159 3500 
L 1159 2956 
Q 1366 3272 1645 3428 
Q 1925 3584 2291 3584 
Q 2894 3584 3203 3211 
Q 3513 2838 3513 2113 
z
" transform="scale(0.015625)"/>
       <path id="DejaVuSans-6f" d="M 1959 3097 
Q 1497 3097 1228 2736 
Q 959 2375 959 1747 
Q 959 1119 1226 758 
Q 1494 397 1959 397 
Q 2419 397 2687 759 
Q 2956 1122 2956 1747 
Q 2956 2369 2687 2733 
Q 2419 3097 1959 3097 
z
M 1959 3584 
Q 2709 3584 3137 3096 
Q 3566 2609 3566 1747 
Q 3566 888 3137 398 
Q 2709 -91 1959 -91 
Q 1206 -91 779 398 
Q 353 888 353 1747 
Q 353 2609 779 3096 
Q 1206 3584 1959 3584 
z
" transform="scale(0.015625)"/>
      </defs>
      <use xlink:href="#DejaVuSans-74"/>
      <use xlink:href="#DejaVuSans-69" transform="translate(39.208984 0)"/>
      <use xlink:href="#DejaVuSans-6d" transform="translate(66.992188 0)"/>
      <use xlink:href="#DejaVuSans-65" transform="translate(164.404297 0)"/>
      <use xlink:href="#DejaVuSans-20" transform="translate(225.927734 0)"/>
      <use xlink:href="#DejaVuSans-73" transform="translate(257.714844 0)"/>
      <use xlink:href="#DejaVuSans-65" transform="translate(309.814453 0)"/>
      <use xlink:href="#DejaVuSans-72" transform="translate(371.337891 0)"/>
      <use xlink:href="#DejaVuSans-69" transform="translate(412.451172 0)"/>
      <use xlink:href="#DejaVuSans-65" transform="translate(440.234375 0)"/>
      <use xlink:href="#DejaVuSans-73" transform="translate(501.757812 0)"/>
      <use xlink:href="#DejaVuSans-20" transform="translate(553.857422 0)"/>
      <use xlink:href="#DejaVuSans-77" transform="translate(585.644531 0)"/>
      <use xlink:href="#DejaVuSans-69" transform="translate(667.431641 0)"/>
      <use xlink:href="#DejaVuSans-74" transform="translate(695.214844 0)"/>
      <use xlink:href="#DejaVuSans-68" transform="translate(734.423828 0)"/>
      <use xlink:href="#DejaVuSans-20" transform="translate(797.802734 0)"/>
      <use xlink:href="#DejaVuSans-6e" transform="translate(829.589844 0)"/>
      <use xlink:href="#DejaVuSans-6f" transform="translate(892.96875 0)"/>
      <use xlink:href="#DejaVuSans-20" transform="translate(954.150391 0)"/>
      <use xlink:href="#DejaVuSans-6e" transform="translate(985.9375 0)"/>
      <use xlink:href="#DejaVuSans-6f" transform="translate(1049.316406 0)"/>
      <use xlink:href="#DejaVuSans-69" transform="translate(1110.498047 0)"/>
      <use xlink:href="#DejaVuSans-73" transform="translate(1138.28125 0)"/>
      <use xlink:href="#DejaVuSans-65" transform="translate(1190.380859 0)"/>
     </g>
    </g>
    <g id="line2d_20">
     <path d="M 99 79.616562 
L 109 79.616562 
L 119 79.616562 
" style="fill: none; stroke: #ff7f0e; stroke-width: 1.5; stroke-linecap: square"/>
    </g>
    <g id="text_16">
     <!-- ema, $\alpha = 0.5742424242424242, mse = 15.62562897036486$ -->
     <g transform="translate(127 83.116562) scale(0.1 -0.1)">
      <defs>
       <path id="DejaVuSans-61" d="M 2194 1759 
Q 1497 1759 1228 1600 
Q 959 1441 959 1056 
Q 959 750 1161 570 
Q 1363 391 1709 391 
Q 2188 391 2477 730 
Q 2766 1069 2766 1631 
L 2766 1759 
L 2194 1759 
z
M 3341 1997 
L 3341 0 
L 2766 0 
L 2766 531 
Q 2569 213 2275 61 
Q 1981 -91 1556 -91 
Q 1019 -91 701 211 
Q 384 513 384 1019 
Q 384 1609 779 1909 
Q 1175 2209 1959 2209 
L 2766 2209 
L 2766 2266 
Q 2766 2663 2505 2880 
Q 2244 3097 1772 3097 
Q 1472 3097 1187 3025 
Q 903 2953 641 2809 
L 641 3341 
Q 956 3463 1253 3523 
Q 1550 3584 1831 3584 
Q 2591 3584 2966 3190 
Q 3341 2797 3341 1997 
z
" transform="scale(0.015625)"/>
       <path id="DejaVuSans-2c" d="M 750 794 
L 1409 794 
L 1409 256 
L 897 -744 
L 494 -744 
L 750 256 
L 750 794 
z
" transform="scale(0.015625)"/>
       <path id="DejaVuSans-Oblique-3b1" d="M 2619 1628 
L 2622 2350 
Q 2625 3088 2069 3091 
Q 1653 3094 1394 2747 
Q 1069 2319 959 1747 
Q 825 1059 994 731 
Q 1169 397 1547 397 
Q 1966 397 2319 1063 
L 2619 1628 
z
M 2166 3578 
Q 3141 3594 3128 2584 
Q 3128 2584 3616 3500 
L 4128 3500 
L 3119 1603 
L 3109 919 
Q 3109 766 3194 638 
Q 3291 488 3391 488 
L 3669 488 
L 3575 0 
L 3228 0 
Q 2934 0 2722 263 
Q 2622 394 2619 669 
Q 2416 334 2066 50 
Q 1900 -81 1453 -78 
Q 722 -72 456 397 
Q 184 884 353 1747 
Q 534 2675 1009 3097 
Q 1544 3569 2166 3578 
z
" transform="scale(0.015625)"/>
       <path id="DejaVuSans-3d" d="M 678 2906 
L 4684 2906 
L 4684 2381 
L 678 2381 
L 678 2906 
z
M 678 1631 
L 4684 1631 
L 4684 1100 
L 678 1100 
L 678 1631 
z
" transform="scale(0.015625)"/>
       <path id="DejaVuSans-2e" d="M 684 794 
L 1344 794 
L 1344 0 
L 684 0 
L 684 794 
z
" transform="scale(0.015625)"/>
       <path id="DejaVuSans-Oblique-6d" d="M 5747 2113 
L 5338 0 
L 4763 0 
L 5166 2094 
Q 5191 2228 5203 2325 
Q 5216 2422 5216 2491 
Q 5216 2772 5059 2928 
Q 4903 3084 4622 3084 
Q 4203 3084 3875 2770 
Q 3547 2456 3450 1953 
L 3066 0 
L 2491 0 
L 2900 2094 
Q 2925 2209 2937 2307 
Q 2950 2406 2950 2484 
Q 2950 2769 2794 2926 
Q 2638 3084 2363 3084 
Q 1938 3084 1609 2770 
Q 1281 2456 1184 1953 
L 800 0 
L 225 0 
L 909 3500 
L 1484 3500 
L 1375 2956 
Q 1609 3263 1923 3423 
Q 2238 3584 2597 3584 
Q 2978 3584 3223 3384 
Q 3469 3184 3519 2828 
Q 3781 3197 4126 3390 
Q 4472 3584 4856 3584 
Q 5306 3584 5551 3325 
Q 5797 3066 5797 2591 
Q 5797 2488 5784 2364 
Q 5772 2241 5747 2113 
z
" transform="scale(0.015625)"/>
       <path id="DejaVuSans-Oblique-73" d="M 3200 3397 
L 3091 2853 
Q 2863 2978 2609 3040 
Q 2356 3103 2088 3103 
Q 1634 3103 1373 2948 
Q 1113 2794 1113 2528 
Q 1113 2219 1719 2053 
Q 1766 2041 1788 2034 
L 1972 1978 
Q 2547 1819 2739 1644 
Q 2931 1469 2931 1166 
Q 2931 609 2489 259 
Q 2047 -91 1331 -91 
Q 1053 -91 747 -37 
Q 441 16 72 128 
L 184 722 
Q 500 559 806 475 
Q 1113 391 1394 391 
Q 1816 391 2080 572 
Q 2344 753 2344 1031 
Q 2344 1331 1650 1516 
L 1591 1531 
L 1394 1581 
Q 956 1697 753 1886 
Q 550 2075 550 2369 
Q 550 2928 970 3256 
Q 1391 3584 2113 3584 
Q 2397 3584 2667 3537 
Q 2938 3491 3200 3397 
z
" transform="scale(0.015625)"/>
       <path id="DejaVuSans-Oblique-65" d="M 3078 2063 
Q 3088 2113 3092 2166 
Q 3097 2219 3097 2272 
Q 3097 2653 2873 2875 
Q 2650 3097 2266 3097 
Q 1838 3097 1509 2826 
Q 1181 2556 1013 2059 
L 3078 2063 
z
M 3578 1613 
L 903 1613 
Q 884 1494 878 1425 
Q 872 1356 872 1306 
Q 872 872 1139 634 
Q 1406 397 1894 397 
Q 2269 397 2603 481 
Q 2938 566 3225 728 
L 3116 159 
Q 2806 34 2476 -28 
Q 2147 -91 1806 -91 
Q 1078 -91 686 257 
Q 294 606 294 1247 
Q 294 1794 489 2264 
Q 684 2734 1063 3103 
Q 1306 3334 1642 3459 
Q 1978 3584 2356 3584 
Q 2950 3584 3301 3228 
Q 3653 2872 3653 2272 
Q 3653 2128 3634 1964 
Q 3616 1800 3578 1613 
z
" transform="scale(0.015625)"/>
       <path id="DejaVuSans-38" d="M 2034 2216 
Q 1584 2216 1326 1975 
Q 1069 1734 1069 1313 
Q 1069 891 1326 650 
Q 1584 409 2034 409 
Q 2484 409 2743 651 
Q 3003 894 3003 1313 
Q 3003 1734 2745 1975 
Q 2488 2216 2034 2216 
z
M 1403 2484 
Q 997 2584 770 2862 
Q 544 3141 544 3541 
Q 544 4100 942 4425 
Q 1341 4750 2034 4750 
Q 2731 4750 3128 4425 
Q 3525 4100 3525 3541 
Q 3525 3141 3298 2862 
Q 3072 2584 2669 2484 
Q 3125 2378 3379 2068 
Q 3634 1759 3634 1313 
Q 3634 634 3220 271 
Q 2806 -91 2034 -91 
Q 1263 -91 848 271 
Q 434 634 434 1313 
Q 434 1759 690 2068 
Q 947 2378 1403 2484 
z
M 1172 3481 
Q 1172 3119 1398 2916 
Q 1625 2713 2034 2713 
Q 2441 2713 2670 2916 
Q 2900 3119 2900 3481 
Q 2900 3844 2670 4047 
Q 2441 4250 2034 4250 
Q 1625 4250 1398 4047 
Q 1172 3844 1172 3481 
z
" transform="scale(0.015625)"/>
       <path id="DejaVuSans-39" d="M 703 97 
L 703 672 
Q 941 559 1184 500 
Q 1428 441 1663 441 
Q 2288 441 2617 861 
Q 2947 1281 2994 2138 
Q 2813 1869 2534 1725 
Q 2256 1581 1919 1581 
Q 1219 1581 811 2004 
Q 403 2428 403 3163 
Q 403 3881 828 4315 
Q 1253 4750 1959 4750 
Q 2769 4750 3195 4129 
Q 3622 3509 3622 2328 
Q 3622 1225 3098 567 
Q 2575 -91 1691 -91 
Q 1453 -91 1209 -44 
Q 966 3 703 97 
z
M 1959 2075 
Q 2384 2075 2632 2365 
Q 2881 2656 2881 3163 
Q 2881 3666 2632 3958 
Q 2384 4250 1959 4250 
Q 1534 4250 1286 3958 
Q 1038 3666 1038 3163 
Q 1038 2656 1286 2365 
Q 1534 2075 1959 2075 
z
" transform="scale(0.015625)"/>
       <path id="DejaVuSans-33" d="M 2597 2516 
Q 3050 2419 3304 2112 
Q 3559 1806 3559 1356 
Q 3559 666 3084 287 
Q 2609 -91 1734 -91 
Q 1441 -91 1130 -33 
Q 819 25 488 141 
L 488 750 
Q 750 597 1062 519 
Q 1375 441 1716 441 
Q 2309 441 2620 675 
Q 2931 909 2931 1356 
Q 2931 1769 2642 2001 
Q 2353 2234 1838 2234 
L 1294 2234 
L 1294 2753 
L 1863 2753 
Q 2328 2753 2575 2939 
Q 2822 3125 2822 3475 
Q 2822 3834 2567 4026 
Q 2313 4219 1838 4219 
Q 1578 4219 1281 4162 
Q 984 4106 628 3988 
L 628 4550 
Q 988 4650 1302 4700 
Q 1616 4750 1894 4750 
Q 2613 4750 3031 4423 
Q 3450 4097 3450 3541 
Q 3450 3153 3228 2886 
Q 3006 2619 2597 2516 
z
" transform="scale(0.015625)"/>
      </defs>
      <use xlink:href="#DejaVuSans-65" transform="translate(0 0.78125)"/>
      <use xlink:href="#DejaVuSans-6d" transform="translate(61.523438 0.78125)"/>
      <use xlink:href="#DejaVuSans-61" transform="translate(158.935547 0.78125)"/>
      <use xlink:href="#DejaVuSans-2c" transform="translate(220.214844 0.78125)"/>
      <use xlink:href="#DejaVuSans-20" transform="translate(252.001953 0.78125)"/>
      <use xlink:href="#DejaVuSans-Oblique-3b1" transform="translate(283.789062 0.78125)"/>
      <use xlink:href="#DejaVuSans-3d" transform="translate(369.189453 0.78125)"/>
      <use xlink:href="#DejaVuSans-30" transform="translate(472.460938 0.78125)"/>
      <use xlink:href="#DejaVuSans-2e" transform="translate(536.083984 0.78125)"/>
      <use xlink:href="#DejaVuSans-35" transform="translate(567.871094 0.78125)"/>
      <use xlink:href="#DejaVuSans-37" transform="translate(624.244141 0.78125)"/>
      <use xlink:href="#DejaVuSans-34" transform="translate(687.867188 0.78125)"/>
      <use xlink:href="#DejaVuSans-32" transform="translate(751.490234 0.78125)"/>
      <use xlink:href="#DejaVuSans-34" transform="translate(815.113281 0.78125)"/>
      <use xlink:href="#DejaVuSans-32" transform="translate(878.736328 0.78125)"/>
      <use xlink:href="#DejaVuSans-34" transform="translate(942.359375 0.78125)"/>
      <use xlink:href="#DejaVuSans-32" transform="translate(1005.982422 0.78125)"/>
      <use xlink:href="#DejaVuSans-34" transform="translate(1069.605469 0.78125)"/>
      <use xlink:href="#DejaVuSans-32" transform="translate(1133.228516 0.78125)"/>
      <use xlink:href="#DejaVuSans-34" transform="translate(1196.851562 0.78125)"/>
      <use xlink:href="#DejaVuSans-32" transform="translate(1260.474609 0.78125)"/>
      <use xlink:href="#DejaVuSans-34" transform="translate(1324.097656 0.78125)"/>
      <use xlink:href="#DejaVuSans-32" transform="translate(1387.720703 0.78125)"/>
      <use xlink:href="#DejaVuSans-34" transform="translate(1451.34375 0.78125)"/>
      <use xlink:href="#DejaVuSans-32" transform="translate(1514.966797 0.78125)"/>
      <use xlink:href="#DejaVuSans-2c" transform="translate(1578.589844 0.78125)"/>
      <use xlink:href="#DejaVuSans-Oblique-6d" transform="translate(1629.859375 0.78125)"/>
      <use xlink:href="#DejaVuSans-Oblique-73" transform="translate(1727.271484 0.78125)"/>
      <use xlink:href="#DejaVuSans-Oblique-65" transform="translate(1779.371094 0.78125)"/>
      <use xlink:href="#DejaVuSans-3d" transform="translate(1860.376953 0.78125)"/>
      <use xlink:href="#DejaVuSans-31" transform="translate(1963.648438 0.78125)"/>
      <use xlink:href="#DejaVuSans-35" transform="translate(2027.271484 0.78125)"/>
      <use xlink:href="#DejaVuSans-2e" transform="translate(2090.894531 0.78125)"/>
      <use xlink:href="#DejaVuSans-36" transform="translate(2122.681641 0.78125)"/>
      <use xlink:href="#DejaVuSans-32" transform="translate(2186.304688 0.78125)"/>
      <use xlink:href="#DejaVuSans-35" transform="translate(2249.927734 0.78125)"/>
      <use xlink:href="#DejaVuSans-36" transform="translate(2313.550781 0.78125)"/>
      <use xlink:href="#DejaVuSans-32" transform="translate(2377.173828 0.78125)"/>
      <use xlink:href="#DejaVuSans-38" transform="translate(2440.796875 0.78125)"/>
      <use xlink:href="#DejaVuSans-39" transform="translate(2504.419922 0.78125)"/>
      <use xlink:href="#DejaVuSans-37" transform="translate(2568.042969 0.78125)"/>
      <use xlink:href="#DejaVuSans-30" transform="translate(2631.666016 0.78125)"/>
      <use xlink:href="#DejaVuSans-33" transform="translate(2695.289062 0.78125)"/>
      <use xlink:href="#DejaVuSans-36" transform="translate(2758.912109 0.78125)"/>
      <use xlink:href="#DejaVuSans-34" transform="translate(2822.535156 0.78125)"/>
      <use xlink:href="#DejaVuSans-38" transform="translate(2886.158203 0.78125)"/>
      <use xlink:href="#DejaVuSans-36" transform="translate(2949.78125 0.78125)"/>
     </g>
    </g>
    <g id="line2d_21">
     <path d="M 99 94.294687 
L 109 94.294687 
L 119 94.294687 
" style="fill: none; stroke: #2ca02c; stroke-width: 1.5; stroke-linecap: square"/>
    </g>
    <g id="text_17">
     <!-- double ema, $\alpha = 0.3564646464646465, mse = 16.948982180199216 $ -->
     <g transform="translate(127 97.794687) scale(0.1 -0.1)">
      <defs>
       <path id="DejaVuSans-64" d="M 2906 2969 
L 2906 4863 
L 3481 4863 
L 3481 0 
L 2906 0 
L 2906 525 
Q 2725 213 2448 61 
Q 2172 -91 1784 -91 
Q 1150 -91 751 415 
Q 353 922 353 1747 
Q 353 2572 751 3078 
Q 1150 3584 1784 3584 
Q 2172 3584 2448 3432 
Q 2725 3281 2906 2969 
z
M 947 1747 
Q 947 1113 1208 752 
Q 1469 391 1925 391 
Q 2381 391 2643 752 
Q 2906 1113 2906 1747 
Q 2906 2381 2643 2742 
Q 2381 3103 1925 3103 
Q 1469 3103 1208 2742 
Q 947 2381 947 1747 
z
" transform="scale(0.015625)"/>
       <path id="DejaVuSans-75" d="M 544 1381 
L 544 3500 
L 1119 3500 
L 1119 1403 
Q 1119 906 1312 657 
Q 1506 409 1894 409 
Q 2359 409 2629 706 
Q 2900 1003 2900 1516 
L 2900 3500 
L 3475 3500 
L 3475 0 
L 2900 0 
L 2900 538 
Q 2691 219 2414 64 
Q 2138 -91 1772 -91 
Q 1169 -91 856 284 
Q 544 659 544 1381 
z
M 1991 3584 
L 1991 3584 
z
" transform="scale(0.015625)"/>
       <path id="DejaVuSans-62" d="M 3116 1747 
Q 3116 2381 2855 2742 
Q 2594 3103 2138 3103 
Q 1681 3103 1420 2742 
Q 1159 2381 1159 1747 
Q 1159 1113 1420 752 
Q 1681 391 2138 391 
Q 2594 391 2855 752 
Q 3116 1113 3116 1747 
z
M 1159 2969 
Q 1341 3281 1617 3432 
Q 1894 3584 2278 3584 
Q 2916 3584 3314 3078 
Q 3713 2572 3713 1747 
Q 3713 922 3314 415 
Q 2916 -91 2278 -91 
Q 1894 -91 1617 61 
Q 1341 213 1159 525 
L 1159 0 
L 581 0 
L 581 4863 
L 1159 4863 
L 1159 2969 
z
" transform="scale(0.015625)"/>
       <path id="DejaVuSans-6c" d="M 603 4863 
L 1178 4863 
L 1178 0 
L 603 0 
L 603 4863 
z
" transform="scale(0.015625)"/>
      </defs>
      <use xlink:href="#DejaVuSans-64" transform="translate(0 0.015625)"/>
      <use xlink:href="#DejaVuSans-6f" transform="translate(63.476562 0.015625)"/>
      <use xlink:href="#DejaVuSans-75" transform="translate(124.658203 0.015625)"/>
      <use xlink:href="#DejaVuSans-62" transform="translate(188.037109 0.015625)"/>
      <use xlink:href="#DejaVuSans-6c" transform="translate(251.513672 0.015625)"/>
      <use xlink:href="#DejaVuSans-65" transform="translate(279.296875 0.015625)"/>
      <use xlink:href="#DejaVuSans-20" transform="translate(340.820312 0.015625)"/>
      <use xlink:href="#DejaVuSans-65" transform="translate(372.607422 0.015625)"/>
      <use xlink:href="#DejaVuSans-6d" transform="translate(434.130859 0.015625)"/>
      <use xlink:href="#DejaVuSans-61" transform="translate(531.542969 0.015625)"/>
      <use xlink:href="#DejaVuSans-2c" transform="translate(592.822266 0.015625)"/>
      <use xlink:href="#DejaVuSans-20" transform="translate(624.609375 0.015625)"/>
      <use xlink:href="#DejaVuSans-Oblique-3b1" transform="translate(656.396484 0.015625)"/>
      <use xlink:href="#DejaVuSans-3d" transform="translate(741.796875 0.015625)"/>
      <use xlink:href="#DejaVuSans-30" transform="translate(845.068359 0.015625)"/>
      <use xlink:href="#DejaVuSans-2e" transform="translate(908.691406 0.015625)"/>
      <use xlink:href="#DejaVuSans-33" transform="translate(940.478516 0.015625)"/>
      <use xlink:href="#DejaVuSans-35" transform="translate(1004.101562 0.015625)"/>
      <use xlink:href="#DejaVuSans-36" transform="translate(1067.724609 0.015625)"/>
      <use xlink:href="#DejaVuSans-34" transform="translate(1131.347656 0.015625)"/>
      <use xlink:href="#DejaVuSans-36" transform="translate(1194.970703 0.015625)"/>
      <use xlink:href="#DejaVuSans-34" transform="translate(1258.59375 0.015625)"/>
      <use xlink:href="#DejaVuSans-36" transform="translate(1322.216797 0.015625)"/>
      <use xlink:href="#DejaVuSans-34" transform="translate(1385.839844 0.015625)"/>
      <use xlink:href="#DejaVuSans-36" transform="translate(1449.462891 0.015625)"/>
      <use xlink:href="#DejaVuSans-34" transform="translate(1513.085938 0.015625)"/>
      <use xlink:href="#DejaVuSans-36" transform="translate(1576.708984 0.015625)"/>
      <use xlink:href="#DejaVuSans-34" transform="translate(1640.332031 0.015625)"/>
      <use xlink:href="#DejaVuSans-36" transform="translate(1703.955078 0.015625)"/>
      <use xlink:href="#DejaVuSans-34" transform="translate(1767.578125 0.015625)"/>
      <use xlink:href="#DejaVuSans-36" transform="translate(1831.201172 0.015625)"/>
      <use xlink:href="#DejaVuSans-35" transform="translate(1894.824219 0.015625)"/>
      <use xlink:href="#DejaVuSans-2c" transform="translate(1958.447266 0.015625)"/>
      <use xlink:href="#DejaVuSans-Oblique-6d" transform="translate(2009.716797 0.015625)"/>
      <use xlink:href="#DejaVuSans-Oblique-73" transform="translate(2107.128906 0.015625)"/>
      <use xlink:href="#DejaVuSans-Oblique-65" transform="translate(2159.228516 0.015625)"/>
      <use xlink:href="#DejaVuSans-3d" transform="translate(2240.234375 0.015625)"/>
      <use xlink:href="#DejaVuSans-31" transform="translate(2343.505859 0.015625)"/>
      <use xlink:href="#DejaVuSans-36" transform="translate(2407.128906 0.015625)"/>
      <use xlink:href="#DejaVuSans-2e" transform="translate(2470.751953 0.015625)"/>
      <use xlink:href="#DejaVuSans-39" transform="translate(2502.539062 0.015625)"/>
      <use xlink:href="#DejaVuSans-34" transform="translate(2566.162109 0.015625)"/>
      <use xlink:href="#DejaVuSans-38" transform="translate(2629.785156 0.015625)"/>
      <use xlink:href="#DejaVuSans-39" transform="translate(2693.408203 0.015625)"/>
      <use xlink:href="#DejaVuSans-38" transform="translate(2757.03125 0.015625)"/>
      <use xlink:href="#DejaVuSans-32" transform="translate(2820.654297 0.015625)"/>
      <use xlink:href="#DejaVuSans-31" transform="translate(2884.277344 0.015625)"/>
      <use xlink:href="#DejaVuSans-38" transform="translate(2947.900391 0.015625)"/>
      <use xlink:href="#DejaVuSans-30" transform="translate(3011.523438 0.015625)"/>
      <use xlink:href="#DejaVuSans-31" transform="translate(3075.146484 0.015625)"/>
      <use xlink:href="#DejaVuSans-39" transform="translate(3138.769531 0.015625)"/>
      <use xlink:href="#DejaVuSans-39" transform="translate(3202.392578 0.015625)"/>
      <use xlink:href="#DejaVuSans-32" transform="translate(3264.265625 0.015625)"/>
      <use xlink:href="#DejaVuSans-31" transform="translate(3327.888672 0.015625)"/>
      <use xlink:href="#DejaVuSans-36" transform="translate(3391.511719 0.015625)"/>
     </g>
    </g>
    <g id="line2d_22">
     <path d="M 99 108.974375 
L 109 108.974375 
L 119 108.974375 
" style="fill: none; stroke: #d62728; stroke-width: 1.5; stroke-linecap: square"/>
    </g>
    <g id="text_18">
     <!-- triple ema, $\alpha = 0.2772727272727273$, mse = 18.982810980894946 -->
     <g transform="translate(127 112.474375) scale(0.1 -0.1)">
      <defs>
       <path id="DejaVuSans-70" d="M 1159 525 
L 1159 -1331 
L 581 -1331 
L 581 3500 
L 1159 3500 
L 1159 2969 
Q 1341 3281 1617 3432 
Q 1894 3584 2278 3584 
Q 2916 3584 3314 3078 
Q 3713 2572 3713 1747 
Q 3713 922 3314 415 
Q 2916 -91 2278 -91 
Q 1894 -91 1617 61 
Q 1341 213 1159 525 
z
M 3116 1747 
Q 3116 2381 2855 2742 
Q 2594 3103 2138 3103 
Q 1681 3103 1420 2742 
Q 1159 2381 1159 1747 
Q 1159 1113 1420 752 
Q 1681 391 2138 391 
Q 2594 391 2855 752 
Q 3116 1113 3116 1747 
z
" transform="scale(0.015625)"/>
      </defs>
      <use xlink:href="#DejaVuSans-74" transform="translate(0 0.015625)"/>
      <use xlink:href="#DejaVuSans-72" transform="translate(39.208984 0.015625)"/>
      <use xlink:href="#DejaVuSans-69" transform="translate(80.322266 0.015625)"/>
      <use xlink:href="#DejaVuSans-70" transform="translate(108.105469 0.015625)"/>
      <use xlink:href="#DejaVuSans-6c" transform="translate(171.582031 0.015625)"/>
      <use xlink:href="#DejaVuSans-65" transform="translate(199.365234 0.015625)"/>
      <use xlink:href="#DejaVuSans-20" transform="translate(260.888672 0.015625)"/>
      <use xlink:href="#DejaVuSans-65" transform="translate(292.675781 0.015625)"/>
      <use xlink:href="#DejaVuSans-6d" transform="translate(354.199219 0.015625)"/>
      <use xlink:href="#DejaVuSans-61" transform="translate(451.611328 0.015625)"/>
      <use xlink:href="#DejaVuSans-2c" transform="translate(512.890625 0.015625)"/>
      <use xlink:href="#DejaVuSans-20" transform="translate(544.677734 0.015625)"/>
      <use xlink:href="#DejaVuSans-Oblique-3b1" transform="translate(576.464844 0.015625)"/>
      <use xlink:href="#DejaVuSans-3d" transform="translate(661.865234 0.015625)"/>
      <use xlink:href="#DejaVuSans-30" transform="translate(765.136719 0.015625)"/>
      <use xlink:href="#DejaVuSans-2e" transform="translate(828.759766 0.015625)"/>
      <use xlink:href="#DejaVuSans-32" transform="translate(855.046875 0.015625)"/>
      <use xlink:href="#DejaVuSans-37" transform="translate(918.669922 0.015625)"/>
      <use xlink:href="#DejaVuSans-37" transform="translate(980.542969 0.015625)"/>
      <use xlink:href="#DejaVuSans-32" transform="translate(1044.166016 0.015625)"/>
      <use xlink:href="#DejaVuSans-37" transform="translate(1107.789062 0.015625)"/>
      <use xlink:href="#DejaVuSans-32" transform="translate(1171.412109 0.015625)"/>
      <use xlink:href="#DejaVuSans-37" transform="translate(1235.035156 0.015625)"/>
      <use xlink:href="#DejaVuSans-32" transform="translate(1298.658203 0.015625)"/>
      <use xlink:href="#DejaVuSans-37" transform="translate(1362.28125 0.015625)"/>
      <use xlink:href="#DejaVuSans-32" transform="translate(1425.904297 0.015625)"/>
      <use xlink:href="#DejaVuSans-37" transform="translate(1489.527344 0.015625)"/>
      <use xlink:href="#DejaVuSans-32" transform="translate(1553.150391 0.015625)"/>
      <use xlink:href="#DejaVuSans-37" transform="translate(1616.773438 0.015625)"/>
      <use xlink:href="#DejaVuSans-32" transform="translate(1680.396484 0.015625)"/>
      <use xlink:href="#DejaVuSans-37" transform="translate(1744.019531 0.015625)"/>
      <use xlink:href="#DejaVuSans-33" transform="translate(1807.642578 0.015625)"/>
      <use xlink:href="#DejaVuSans-2c" transform="translate(1871.265625 0.015625)"/>
      <use xlink:href="#DejaVuSans-20" transform="translate(1903.052734 0.015625)"/>
      <use xlink:href="#DejaVuSans-6d" transform="translate(1934.839844 0.015625)"/>
      <use xlink:href="#DejaVuSans-73" transform="translate(2032.251953 0.015625)"/>
      <use xlink:href="#DejaVuSans-65" transform="translate(2084.351562 0.015625)"/>
      <use xlink:href="#DejaVuSans-20" transform="translate(2145.875 0.015625)"/>
      <use xlink:href="#DejaVuSans-3d" transform="translate(2177.662109 0.015625)"/>
      <use xlink:href="#DejaVuSans-20" transform="translate(2261.451172 0.015625)"/>
      <use xlink:href="#DejaVuSans-31" transform="translate(2293.238281 0.015625)"/>
      <use xlink:href="#DejaVuSans-38" transform="translate(2356.861328 0.015625)"/>
      <use xlink:href="#DejaVuSans-2e" transform="translate(2420.484375 0.015625)"/>
      <use xlink:href="#DejaVuSans-39" transform="translate(2452.271484 0.015625)"/>
      <use xlink:href="#DejaVuSans-38" transform="translate(2515.894531 0.015625)"/>
      <use xlink:href="#DejaVuSans-32" transform="translate(2579.517578 0.015625)"/>
      <use xlink:href="#DejaVuSans-38" transform="translate(2643.140625 0.015625)"/>
      <use xlink:href="#DejaVuSans-31" transform="translate(2706.763672 0.015625)"/>
      <use xlink:href="#DejaVuSans-30" transform="translate(2770.386719 0.015625)"/>
      <use xlink:href="#DejaVuSans-39" transform="translate(2834.009766 0.015625)"/>
      <use xlink:href="#DejaVuSans-38" transform="translate(2897.632812 0.015625)"/>
      <use xlink:href="#DejaVuSans-30" transform="translate(2961.255859 0.015625)"/>
      <use xlink:href="#DejaVuSans-38" transform="translate(3024.878906 0.015625)"/>
      <use xlink:href="#DejaVuSans-39" transform="translate(3088.501953 0.015625)"/>
      <use xlink:href="#DejaVuSans-34" transform="translate(3152.125 0.015625)"/>
      <use xlink:href="#DejaVuSans-39" transform="translate(3215.748047 0.015625)"/>
      <use xlink:href="#DejaVuSans-34" transform="translate(3279.371094 0.015625)"/>
      <use xlink:href="#DejaVuSans-36" transform="translate(3342.994141 0.015625)"/>
     </g>
    </g>
   </g>
  </g>
 </g>
 <defs>
  <clipPath id="p02f7c239e9">
   <rect x="90" y="51.84" width="558" height="332.64"/>
  </clipPath>
 </defs>
</svg>
