<?xml version="1.0" encoding="utf-8" standalone="no"?>
<!DOCTYPE svg PUBLIC "-//W3C//DTD SVG 1.1//EN"
  "http://www.w3.org/Graphics/SVG/1.1/DTD/svg11.dtd">
<svg xmlns:xlink="http://www.w3.org/1999/xlink" width="460.8pt" height="345.6pt" viewBox="0 0 460.8 345.6" xmlns="http://www.w3.org/2000/svg" version="1.1">
 <metadata>
  <rdf:RDF xmlns:dc="http://purl.org/dc/elements/1.1/" xmlns:cc="http://creativecommons.org/ns#" xmlns:rdf="http://www.w3.org/1999/02/22-rdf-syntax-ns#">
   <cc:Work>
    <dc:type rdf:resource="http://purl.org/dc/dcmitype/StillImage"/>
    <dc:date>2025-12-04T15:52:41.769027</dc:date>
    <dc:format>image/svg+xml</dc:format>
    <dc:creator>
     <cc:Agent>
      <dc:title>Matplotlib v3.10.7, https://matplotlib.org/</dc:title>
     </cc:Agent>
    </dc:creator>
   </cc:Work>
  </rdf:RDF>
 </metadata>
 <defs>
  <style type="text/css">*{stroke-linejoin: round; stroke-linecap: butt}</style>
 </defs>
 <g id="figure_1">
  <g id="patch_1">
   <path d="M 0 345.6 
L 460.8 345.6 
L 460.8 0 
L 0 0 
z
" style="fill: #ffffff"/>
  </g>
  <g id="axes_1">
   <g id="patch_2">
    <path d="M 57.6 162.432 
L 414.72 162.432 
L 414.72 41.472 
L 57.6 41.472 
z
" style="fill: #ffffff"/>
   </g>
   <g id="matplotlib.axis_1">
    <g id="xtick_1">
     <g id="line2d_1">
      <defs>
       <path id="mbb287316c9" d="M 0 0 
L 0 3.5 
" style="stroke: #000000; stroke-width: 0.8"/>
      </defs>
      <g>
       <use xlink:href="#mbb287316c9" x="73.832727" y="162.432" style="stroke: #000000; stroke-width: 0.8"/>
      </g>
     </g>
     <g id="text_1">
      <!-- 0 -->
      <g transform="translate(70.651477 177.030437) scale(0.1 -0.1)">
       <defs>
        <path id="DejaVuSans-30" d="M 2034 4250 
Q 1547 4250 1301 3770 
Q 1056 3291 1056 2328 
Q 1056 1369 1301 889 
Q 1547 409 2034 409 
Q 2525 409 2770 889 
Q 3016 1369 3016 2328 
Q 3016 3291 2770 3770 
Q 2525 4250 2034 4250 
z
M 2034 4750 
Q 2819 4750 3233 4129 
Q 3647 3509 3647 2328 
Q 3647 1150 3233 529 
Q 2819 -91 2034 -91 
Q 1250 -91 836 529 
Q 422 1150 422 2328 
Q 422 3509 836 4129 
Q 1250 4750 2034 4750 
z
" transform="scale(0.015625)"/>
       </defs>
       <use xlink:href="#DejaVuSans-30"/>
      </g>
     </g>
    </g>
    <g id="xtick_2">
     <g id="line2d_2">
      <g>
       <use xlink:href="#mbb287316c9" x="138.828632" y="162.432" style="stroke: #000000; stroke-width: 0.8"/>
      </g>
     </g>
     <g id="text_2">
      <!-- 200 -->
      <g transform="translate(129.284882 177.030437) scale(0.1 -0.1)">
       <defs>
        <path id="DejaVuSans-32" d="M 1228 531 
L 3431 531 
L 3431 0 
L 469 0 
L 469 531 
Q 828 903 1448 1529 
Q 2069 2156 2228 2338 
Q 2531 2678 2651 2914 
Q 2772 3150 2772 3378 
Q 2772 3750 2511 3984 
Q 2250 4219 1831 4219 
Q 1534 4219 1204 4116 
Q 875 4013 500 3803 
L 500 4441 
Q 881 4594 1212 4672 
Q 1544 4750 1819 4750 
Q 2544 4750 2975 4387 
Q 3406 4025 3406 3419 
Q 3406 3131 3298 2873 
Q 3191 2616 2906 2266 
Q 2828 2175 2409 1742 
Q 1991 1309 1228 531 
z
" transform="scale(0.015625)"/>
       </defs>
       <use xlink:href="#DejaVuSans-32"/>
       <use xlink:href="#DejaVuSans-30" transform="translate(63.623047 0)"/>
       <use xlink:href="#DejaVuSans-30" transform="translate(127.246094 0)"/>
      </g>
     </g>
    </g>
    <g id="xtick_3">
     <g id="line2d_3">
      <g>
       <use xlink:href="#mbb287316c9" x="203.824537" y="162.432" style="stroke: #000000; stroke-width: 0.8"/>
      </g>
     </g>
     <g id="text_3">
      <!-- 400 -->
      <g transform="translate(194.280787 177.030437) scale(0.1 -0.1)">
       <defs>
        <path id="DejaVuSans-34" d="M 2419 4116 
L 825 1625 
L 2419 1625 
L 2419 4116 
z
M 2253 4666 
L 3047 4666 
L 3047 1625 
L 3713 1625 
L 3713 1100 
L 3047 1100 
L 3047 0 
L 2419 0 
L 2419 1100 
L 313 1100 
L 313 1709 
L 2253 4666 
z
" transform="scale(0.015625)"/>
       </defs>
       <use xlink:href="#DejaVuSans-34"/>
       <use xlink:href="#DejaVuSans-30" transform="translate(63.623047 0)"/>
       <use xlink:href="#DejaVuSans-30" transform="translate(127.246094 0)"/>
      </g>
     </g>
    </g>
    <g id="xtick_4">
     <g id="line2d_4">
      <g>
       <use xlink:href="#mbb287316c9" x="268.820442" y="162.432" style="stroke: #000000; stroke-width: 0.8"/>
      </g>
     </g>
     <g id="text_4">
      <!-- 600 -->
      <g transform="translate(259.276692 177.030437) scale(0.1 -0.1)">
       <defs>
        <path id="DejaVuSans-36" d="M 2113 2584 
Q 1688 2584 1439 2293 
Q 1191 2003 1191 1497 
Q 1191 994 1439 701 
Q 1688 409 2113 409 
Q 2538 409 2786 701 
Q 3034 994 3034 1497 
Q 3034 2003 2786 2293 
Q 2538 2584 2113 2584 
z
M 3366 4563 
L 3366 3988 
Q 3128 4100 2886 4159 
Q 2644 4219 2406 4219 
Q 1781 4219 1451 3797 
Q 1122 3375 1075 2522 
Q 1259 2794 1537 2939 
Q 1816 3084 2150 3084 
Q 2853 3084 3261 2657 
Q 3669 2231 3669 1497 
Q 3669 778 3244 343 
Q 2819 -91 2113 -91 
Q 1303 -91 875 529 
Q 447 1150 447 2328 
Q 447 3434 972 4092 
Q 1497 4750 2381 4750 
Q 2619 4750 2861 4703 
Q 3103 4656 3366 4563 
z
" transform="scale(0.015625)"/>
       </defs>
       <use xlink:href="#DejaVuSans-36"/>
       <use xlink:href="#DejaVuSans-30" transform="translate(63.623047 0)"/>
       <use xlink:href="#DejaVuSans-30" transform="translate(127.246094 0)"/>
      </g>
     </g>
    </g>
    <g id="xtick_5">
     <g id="line2d_5">
      <g>
       <use xlink:href="#mbb287316c9" x="333.816347" y="162.432" style="stroke: #000000; stroke-width: 0.8"/>
      </g>
     </g>
     <g id="text_5">
      <!-- 800 -->
      <g transform="translate(324.272597 177.030437) scale(0.1 -0.1)">
       <defs>
        <path id="DejaVuSans-38" d="M 2034 2216 
Q 1584 2216 1326 1975 
Q 1069 1734 1069 1313 
Q 1069 891 1326 650 
Q 1584 409 2034 409 
Q 2484 409 2743 651 
Q 3003 894 3003 1313 
Q 3003 1734 2745 1975 
Q 2488 2216 2034 2216 
z
M 1403 2484 
Q 997 2584 770 2862 
Q 544 3141 544 3541 
Q 544 4100 942 4425 
Q 1341 4750 2034 4750 
Q 2731 4750 3128 4425 
Q 3525 4100 3525 3541 
Q 3525 3141 3298 2862 
Q 3072 2584 2669 2484 
Q 3125 2378 3379 2068 
Q 3634 1759 3634 1313 
Q 3634 634 3220 271 
Q 2806 -91 2034 -91 
Q 1263 -91 848 271 
Q 434 634 434 1313 
Q 434 1759 690 2068 
Q 947 2378 1403 2484 
z
M 1172 3481 
Q 1172 3119 1398 2916 
Q 1625 2713 2034 2713 
Q 2441 2713 2670 2916 
Q 2900 3119 2900 3481 
Q 2900 3844 2670 4047 
Q 2441 4250 2034 4250 
Q 1625 4250 1398 4047 
Q 1172 3844 1172 3481 
z
" transform="scale(0.015625)"/>
       </defs>
       <use xlink:href="#DejaVuSans-38"/>
       <use xlink:href="#DejaVuSans-30" transform="translate(63.623047 0)"/>
       <use xlink:href="#DejaVuSans-30" transform="translate(127.246094 0)"/>
      </g>
     </g>
    </g>
    <g id="xtick_6">
     <g id="line2d_6">
      <g>
       <use xlink:href="#mbb287316c9" x="398.812252" y="162.432" style="stroke: #000000; stroke-width: 0.8"/>
      </g>
     </g>
     <g id="text_6">
      <!-- 1000 -->
      <g transform="translate(386.087252 177.030437) scale(0.1 -0.1)">
       <defs>
        <path id="DejaVuSans-31" d="M 794 531 
L 1825 531 
L 1825 4091 
L 703 3866 
L 703 4441 
L 1819 4666 
L 2450 4666 
L 2450 531 
L 3481 531 
L 3481 0 
L 794 0 
L 794 531 
z
" transform="scale(0.015625)"/>
       </defs>
       <use xlink:href="#DejaVuSans-31"/>
       <use xlink:href="#DejaVuSans-30" transform="translate(63.623047 0)"/>
       <use xlink:href="#DejaVuSans-30" transform="translate(127.246094 0)"/>
       <use xlink:href="#DejaVuSans-30" transform="translate(190.869141 0)"/>
      </g>
     </g>
    </g>
   </g>
   <g id="matplotlib.axis_2">
    <g id="ytick_1">
     <g id="line2d_7">
      <defs>
       <path id="mfc6d727dba" d="M 0 0 
L -3.5 0 
" style="stroke: #000000; stroke-width: 0.8"/>
      </defs>
      <g>
       <use xlink:href="#mfc6d727dba" x="57.6" y="147.968047" style="stroke: #000000; stroke-width: 0.8"/>
      </g>
     </g>
     <g id="text_7">
      <!-- 0 -->
      <g transform="translate(44.2375 151.767266) scale(0.1 -0.1)">
       <use xlink:href="#DejaVuSans-30"/>
      </g>
     </g>
    </g>
    <g id="ytick_2">
     <g id="line2d_8">
      <g>
       <use xlink:href="#mfc6d727dba" x="57.6" y="118.78172" style="stroke: #000000; stroke-width: 0.8"/>
      </g>
     </g>
     <g id="text_8">
      <!-- 50 -->
      <g transform="translate(37.875 122.580939) scale(0.1 -0.1)">
       <defs>
        <path id="DejaVuSans-35" d="M 691 4666 
L 3169 4666 
L 3169 4134 
L 1269 4134 
L 1269 2991 
Q 1406 3038 1543 3061 
Q 1681 3084 1819 3084 
Q 2600 3084 3056 2656 
Q 3513 2228 3513 1497 
Q 3513 744 3044 326 
Q 2575 -91 1722 -91 
Q 1428 -91 1123 -41 
Q 819 9 494 109 
L 494 744 
Q 775 591 1075 516 
Q 1375 441 1709 441 
Q 2250 441 2565 725 
Q 2881 1009 2881 1497 
Q 2881 1984 2565 2268 
Q 2250 2553 1709 2553 
Q 1456 2553 1204 2497 
Q 953 2441 691 2322 
L 691 4666 
z
" transform="scale(0.015625)"/>
       </defs>
       <use xlink:href="#DejaVuSans-35"/>
       <use xlink:href="#DejaVuSans-30" transform="translate(63.623047 0)"/>
      </g>
     </g>
    </g>
    <g id="ytick_3">
     <g id="line2d_9">
      <g>
       <use xlink:href="#mfc6d727dba" x="57.6" y="89.595393" style="stroke: #000000; stroke-width: 0.8"/>
      </g>
     </g>
     <g id="text_9">
      <!-- 100 -->
      <g transform="translate(31.5125 93.394612) scale(0.1 -0.1)">
       <use xlink:href="#DejaVuSans-31"/>
       <use xlink:href="#DejaVuSans-30" transform="translate(63.623047 0)"/>
       <use xlink:href="#DejaVuSans-30" transform="translate(127.246094 0)"/>
      </g>
     </g>
    </g>
    <g id="ytick_4">
     <g id="line2d_10">
      <g>
       <use xlink:href="#mfc6d727dba" x="57.6" y="60.409066" style="stroke: #000000; stroke-width: 0.8"/>
      </g>
     </g>
     <g id="text_10">
      <!-- 150 -->
      <g transform="translate(31.5125 64.208284) scale(0.1 -0.1)">
       <use xlink:href="#DejaVuSans-31"/>
       <use xlink:href="#DejaVuSans-35" transform="translate(63.623047 0)"/>
       <use xlink:href="#DejaVuSans-30" transform="translate(127.246094 0)"/>
      </g>
     </g>
    </g>
   </g>
   <g id="line2d_11">
    <path d="M 73.832727 142.416916 
L 74.157707 139.703891 
L 74.482686 140.501841 
L 74.807666 135.585924 
L 75.457625 140.196661 
L 75.782604 134.836167 
L 76.107584 135.51257 
L 76.432563 142.088687 
L 76.757543 139.500576 
L 77.082523 139.746939 
L 77.407502 141.330081 
L 77.732482 146.384445 
L 78.057461 143.903102 
L 78.70742 148.551782 
L 79.0324 147.736854 
L 79.357379 145.149989 
L 79.682359 145.752042 
L 80.007338 148.405324 
L 80.332318 146.23275 
L 80.657297 136.061419 
L 80.982277 136.494847 
L 81.307256 135.971796 
L 81.632236 140.062907 
L 81.957215 130.285243 
L 82.282195 136.768898 
L 82.607174 139.676295 
L 82.932154 147.790113 
L 83.257133 146.329768 
L 83.582113 148.471081 
L 83.907093 147.440124 
L 84.232072 145.432512 
L 84.557052 152.700246 
L 84.882031 156.933818 
L 85.207011 147.212773 
L 85.53199 149.013755 
L 85.85697 145.73775 
L 86.181949 148.642077 
L 86.506929 148.453465 
L 86.831908 148.645743 
L 87.156888 144.816195 
L 87.481867 148.123138 
L 87.806847 135.212518 
L 88.131826 134.673462 
L 88.456806 139.349164 
L 89.106765 139.312476 
L 89.431744 138.620316 
L 89.756724 143.437052 
L 90.081704 144.339419 
L 90.406683 146.540568 
L 90.731663 145.220936 
L 91.056642 146.021966 
L 91.381622 144.400824 
L 91.706601 150.077774 
L 92.031581 147.479363 
L 92.35656 141.98809 
L 92.68154 140.225748 
L 93.006519 142.727068 
L 93.981458 129.019832 
L 94.631417 136.675151 
L 94.956396 142.243391 
L 95.281376 134.921889 
L 95.606355 130.651323 
L 95.931335 137.217083 
L 96.256314 137.349489 
L 96.581294 137.314896 
L 96.906274 142.297978 
L 97.231253 143.263631 
L 97.556233 143.146878 
L 97.881212 153.372457 
L 98.206192 142.626536 
L 98.531171 148.348587 
L 98.856151 150.411255 
L 99.18113 145.592536 
L 99.50611 144.329634 
L 100.156069 141.30158 
L 100.481048 143.185223 
L 101.131007 130.973118 
L 101.455987 135.308658 
L 101.780966 134.002819 
L 102.105946 141.000697 
L 102.430925 137.034893 
L 102.755905 140.897706 
L 103.080885 147.479423 
L 103.405864 144.662668 
L 103.730844 146.406666 
L 104.055823 146.157051 
L 104.705782 150.21048 
L 105.030762 145.979865 
L 105.355741 144.409701 
L 105.680721 144.918121 
L 106.0057 139.229794 
L 106.33068 143.56827 
L 106.980639 132.806832 
L 107.305618 131.102676 
L 107.630598 131.796603 
L 108.280557 127.855046 
L 108.605536 132.894187 
L 108.930516 133.826062 
L 109.255495 136.991571 
L 109.580475 134.529133 
L 110.230434 140.36004 
L 110.555414 138.232187 
L 111.205373 142.854273 
L 111.530352 142.745093 
L 111.855332 142.757258 
L 112.180311 143.997615 
L 112.83027 132.6014 
L 113.15525 129.617116 
L 113.480229 134.450816 
L 113.805209 133.620882 
L 114.130188 133.953346 
L 114.455168 126.884241 
L 114.780147 127.75676 
L 115.105127 136.592588 
L 115.430106 135.84551 
L 115.755086 138.884385 
L 116.080066 137.449182 
L 116.405045 142.152307 
L 116.730025 141.961521 
L 117.055004 144.487989 
L 117.379984 145.837419 
L 117.704963 142.548615 
L 118.029943 141.666777 
L 118.354922 142.516802 
L 118.679902 146.467118 
L 119.004881 139.934221 
L 119.329861 141.634416 
L 119.65484 133.049483 
L 119.97982 131.141995 
L 120.304799 127.280595 
L 120.629779 135.21576 
L 120.954758 133.743527 
L 121.279738 137.811863 
L 121.604717 136.065977 
L 121.929697 127.094473 
L 122.254676 139.48476 
L 122.579656 135.413623 
L 122.904636 136.687306 
L 123.229615 133.622605 
L 123.554595 141.266552 
L 124.204554 131.633255 
L 124.529533 138.816804 
L 124.854513 137.240061 
L 125.179492 134.680712 
L 125.504472 133.04624 
L 125.829451 130.801385 
L 126.154431 129.955259 
L 126.47941 126.381176 
L 126.80439 130.485339 
L 127.454349 122.415797 
L 128.104308 131.050198 
L 128.429287 126.269038 
L 128.754267 127.791671 
L 129.079247 136.218345 
L 129.404226 136.197127 
L 129.729206 136.983914 
L 130.054185 137.362244 
L 130.379165 140.177493 
L 130.704144 137.126447 
L 131.029124 142.994649 
L 131.354103 137.670585 
L 131.679083 135.669994 
L 132.329042 137.44698 
L 132.654021 133.144589 
L 132.979001 130.632966 
L 133.30398 131.160176 
L 133.62896 134.581985 
L 133.953939 130.032813 
L 134.278919 129.181774 
L 134.603898 129.179539 
L 134.928878 134.867844 
L 135.253857 135.740681 
L 135.578837 132.977989 
L 136.228796 143.728257 
L 136.553776 140.757531 
L 136.878755 136.501085 
L 137.528714 137.596686 
L 137.853694 137.518619 
L 138.178673 136.369082 
L 138.503653 137.346416 
L 138.828632 134.952856 
L 139.153612 133.730322 
L 139.478591 126.848775 
L 139.803571 124.999816 
L 140.12855 127.936261 
L 140.45353 126.377116 
L 140.778509 127.078228 
L 141.103489 123.243645 
L 141.428468 124.949991 
L 141.753448 130.32921 
L 142.078428 131.045032 
L 142.403407 133.402913 
L 142.728387 134.13663 
L 143.378346 138.493012 
L 143.703325 135.947285 
L 144.028305 135.52322 
L 144.353284 135.55242 
L 144.678264 132.833977 
L 145.003243 131.552774 
L 145.328223 131.156021 
L 145.653202 129.947253 
L 145.978182 124.65627 
L 146.303161 124.167202 
L 146.628141 123.304171 
L 146.95312 127.62478 
L 147.2781 129.350218 
L 147.603079 128.827588 
L 147.928059 126.66023 
L 148.253038 133.006053 
L 148.578018 134.652414 
L 148.902998 131.925308 
L 149.227977 135.699429 
L 149.552957 132.228295 
L 149.877936 138.518614 
L 150.202916 141.735953 
L 150.527895 140.968047 
L 150.852875 137.443174 
L 151.177854 127.674754 
L 151.502834 136.49671 
L 151.827813 130.840909 
L 152.152793 129.864331 
L 152.477772 135.961344 
L 152.802752 122.886233 
L 153.127731 120.951154 
L 153.452711 128.116138 
L 153.77769 119.904637 
L 154.10267 127.05255 
L 154.427649 129.040264 
L 154.752629 126.333279 
L 155.077609 130.895531 
L 155.402588 133.650844 
L 155.727568 130.243352 
L 156.052547 128.188114 
L 156.377527 136.3018 
L 156.702506 131.16926 
L 157.027486 131.942231 
L 157.352465 125.425584 
L 157.677445 127.840536 
L 158.002424 124.086483 
L 158.327404 123.590293 
L 158.652383 121.61389 
L 158.977363 123.430528 
L 159.302342 123.081641 
L 159.627322 117.620801 
L 159.952301 122.697582 
L 160.277281 117.964941 
L 160.60226 123.525815 
L 160.92724 120.01308 
L 161.252219 119.708058 
L 161.577199 126.702224 
L 161.902179 127.802338 
L 162.227158 127.082893 
L 162.552138 130.956062 
L 162.877117 130.733804 
L 163.202097 131.837438 
L 163.527076 132.033158 
L 163.852056 130.0723 
L 164.177035 126.616226 
L 164.502015 127.11617 
L 164.826994 131.352813 
L 165.151974 122.837994 
L 165.476953 127.821787 
L 165.801933 121.405754 
L 166.126912 127.260921 
L 166.451892 124.253608 
L 166.776871 118.875853 
L 167.101851 125.864259 
L 167.42683 126.634387 
L 167.75181 127.964369 
L 168.07679 129.977046 
L 168.401769 134.979626 
L 168.726749 133.990102 
L 169.051728 134.968608 
L 169.701687 128.288876 
L 170.026667 132.616165 
L 170.351646 127.572185 
L 170.676626 132.566128 
L 171.326585 119.825859 
L 171.651564 120.470629 
L 171.976544 118.1697 
L 172.301523 122.650703 
L 172.626503 118.556355 
L 172.951482 117.156691 
L 173.276462 117.408266 
L 173.601441 119.580234 
L 173.926421 119.446426 
L 174.2514 117.606128 
L 174.57638 124.113381 
L 174.90136 125.48903 
L 175.226339 127.903202 
L 175.551319 127.395165 
L 175.876298 131.050863 
L 176.201278 124.157294 
L 176.526257 130.688903 
L 176.851237 128.071018 
L 177.176216 124.023738 
L 177.501196 121.923137 
L 177.826175 123.8019 
L 178.151155 118.065578 
L 178.476134 125.221467 
L 178.801114 115.326925 
L 179.451073 119.254215 
L 179.776052 115.791188 
L 180.101032 117.529149 
L 180.426011 122.571162 
L 180.750991 123.340437 
L 181.075971 122.284712 
L 181.40095 126.457317 
L 181.72593 134.847097 
L 182.050909 130.468651 
L 182.375889 131.321607 
L 182.700868 127.843761 
L 183.350827 133.717167 
L 183.675807 131.416229 
L 184.000786 123.816585 
L 184.325766 123.275013 
L 184.650745 126.566872 
L 184.975725 121.365886 
L 185.300704 120.050702 
L 185.625684 121.787669 
L 185.950663 111.614677 
L 186.275643 118.373881 
L 186.925602 113.693235 
L 187.250581 122.676652 
L 187.575561 122.410539 
L 187.900541 122.91457 
L 188.22552 127.338305 
L 188.5505 118.357027 
L 188.875479 121.707216 
L 189.200459 128.27747 
L 189.525438 122.058683 
L 189.850418 118.484923 
L 190.175397 121.812024 
L 190.500377 117.864797 
L 190.825356 119.637209 
L 191.150336 115.231579 
L 191.475315 114.925277 
L 191.800295 107.965982 
L 192.125274 108.002332 
L 192.450254 116.176177 
L 192.775233 110.791753 
L 193.100213 108.964944 
L 193.425192 113.920639 
L 193.750172 115.585066 
L 194.400131 124.28288 
L 194.725111 115.592187 
L 195.05009 127.843765 
L 195.37507 120.501299 
L 195.700049 124.027558 
L 196.025029 122.952239 
L 196.350008 122.590558 
L 196.674988 122.959683 
L 196.999967 122.732444 
L 197.324947 123.935306 
L 197.649926 121.433771 
L 197.974906 117.656307 
L 198.299885 117.56813 
L 198.624865 114.503637 
L 198.949844 116.560897 
L 199.274824 123.243285 
L 199.599803 114.207249 
L 200.249762 118.406418 
L 200.574742 118.431454 
L 200.899722 125.659529 
L 201.224701 123.110079 
L 201.549681 124.207359 
L 201.87466 124.667578 
L 202.19964 124.76171 
L 202.524619 127.379411 
L 202.849599 121.280242 
L 203.174578 121.859686 
L 203.499558 120.968339 
L 203.824537 122.242317 
L 204.474496 108.865729 
L 204.799476 109.550907 
L 205.124455 112.330674 
L 205.449435 107.282202 
L 205.774414 111.862572 
L 206.099394 108.018268 
L 206.424373 115.658521 
L 206.749353 115.4623 
L 207.074333 116.749253 
L 207.399312 114.156279 
L 207.724292 116.066725 
L 208.049271 114.47046 
L 208.374251 118.241374 
L 208.69923 118.705724 
L 209.02421 117.631486 
L 209.349189 117.397301 
L 209.999148 119.585061 
L 210.324128 111.524039 
L 210.649107 112.139892 
L 210.974087 106.339195 
L 211.624046 110.83443 
L 211.949025 109.736313 
L 212.274005 109.443053 
L 212.598984 111.859009 
L 212.923964 115.726856 
L 213.248943 110.687859 
L 213.573923 119.681228 
L 213.898903 116.81281 
L 214.223882 117.826798 
L 214.548862 128.557066 
L 214.873841 118.425678 
L 215.198821 125.12158 
L 215.5238 125.003498 
L 215.84878 119.612493 
L 216.173759 120.746864 
L 216.498739 124.001774 
L 217.148698 111.800372 
L 217.798657 109.051303 
L 218.123636 114.600113 
L 218.448616 108.232011 
L 218.773595 109.983946 
L 219.098575 110.457951 
L 219.423554 112.252407 
L 219.748534 107.193956 
L 220.398493 117.699522 
L 220.723473 118.362728 
L 221.048452 114.814347 
L 221.373432 120.527395 
L 221.698411 117.660964 
L 222.023391 119.714708 
L 222.34837 113.649104 
L 222.67335 112.022174 
L 222.998329 108.477369 
L 223.323309 110.826052 
L 223.648288 109.075969 
L 223.973268 105.127287 
L 224.298247 104.395123 
L 224.623227 103.151884 
L 224.948206 103.358812 
L 225.273186 106.268769 
L 225.598165 102.828215 
L 225.923145 102.516192 
L 226.248124 109.750007 
L 226.573104 108.5324 
L 226.898084 108.633738 
L 227.223063 116.359982 
L 227.548043 117.744528 
L 227.873022 117.742522 
L 228.198002 119.116483 
L 228.522981 113.29244 
L 228.847961 114.310701 
L 229.17294 118.07004 
L 229.49792 115.737114 
L 229.822899 108.487307 
L 230.147879 109.533658 
L 230.472858 109.163133 
L 230.797838 109.245188 
L 231.122817 104.521413 
L 231.447797 104.213491 
L 231.772776 105.919794 
L 232.097756 109.272838 
L 232.422735 104.064859 
L 232.747715 116.11884 
L 233.072695 110.191167 
L 233.397674 115.859614 
L 233.722654 113.652966 
L 234.047633 114.167515 
L 234.372613 115.656501 
L 234.697592 114.125422 
L 235.022572 119.593057 
L 235.347551 109.533699 
L 235.672531 115.586213 
L 235.99751 113.921044 
L 236.32249 108.013152 
L 236.647469 104.658326 
L 236.972449 104.270273 
L 237.297428 102.251004 
L 237.622408 104.725501 
L 237.947387 106.124369 
L 238.272367 98.417807 
L 238.597346 101.19558 
L 238.922326 96.518906 
L 239.247305 106.615036 
L 239.897265 98.97125 
L 240.222244 105.757456 
L 240.547224 107.154175 
L 240.872203 111.029457 
L 241.197183 108.374904 
L 241.522162 107.731401 
L 241.847142 110.149169 
L 242.172121 106.446205 
L 242.497101 110.144594 
L 242.82208 101.631721 
L 243.14706 102.310625 
L 243.472039 101.215683 
L 243.797019 100.799143 
L 244.121998 99.603512 
L 244.446978 100.031444 
L 244.771957 99.328028 
L 245.096937 99.10565 
L 245.421916 101.686323 
L 245.746896 102.082545 
L 246.071876 106.668748 
L 246.396855 116.289702 
L 246.721835 107.486802 
L 247.046814 112.261218 
L 247.371794 113.56017 
L 247.696773 108.313975 
L 248.021753 118.593457 
L 248.671712 106.849424 
L 248.996691 112.820578 
L 249.64665 104.101298 
L 249.97163 101.045657 
L 250.296609 95.082328 
L 250.621589 99.583132 
L 250.946568 98.913577 
L 251.596527 98.405543 
L 251.921507 104.501784 
L 252.246486 101.662729 
L 252.571466 105.582795 
L 253.221425 108.611613 
L 253.546405 109.312631 
L 253.871384 108.900122 
L 254.196364 108.78045 
L 254.521343 107.504442 
L 254.846323 110.406846 
L 255.171302 109.523263 
L 255.496282 100.698028 
L 255.821261 100.410181 
L 256.146241 99.725736 
L 256.47122 98.631621 
L 256.7962 92.90648 
L 257.121179 91.839427 
L 257.771138 100.946221 
L 258.096118 95.841944 
L 258.421097 97.385915 
L 258.746077 95.256962 
L 259.071057 105.113729 
L 259.396036 107.611627 
L 259.721016 104.927774 
L 260.370975 109.907828 
L 260.695954 103.908457 
L 261.020934 108.694421 
L 261.345913 110.675535 
L 261.670893 108.889752 
L 261.995872 102.972267 
L 262.320852 103.865813 
L 262.645831 101.472792 
L 262.970811 104.311272 
L 263.29579 101.862149 
L 263.62077 96.316978 
L 263.945749 94.000506 
L 264.270729 99.003524 
L 264.595708 97.733644 
L 264.920688 97.029915 
L 265.245667 99.584839 
L 265.570647 104.995833 
L 265.895627 103.886849 
L 266.220606 108.068291 
L 266.545586 108.702971 
L 266.870565 115.557526 
L 267.520524 104.517212 
L 267.845504 103.471648 
L 268.170483 98.985394 
L 268.495463 105.461063 
L 268.820442 98.498977 
L 269.145422 98.464287 
L 269.470401 99.064977 
L 269.795381 93.764574 
L 270.770319 86.215555 
L 271.095299 93.648286 
L 271.420278 96.006237 
L 271.745258 91.209209 
L 272.070238 94.116444 
L 272.395217 93.825163 
L 273.045176 105.824354 
L 273.695135 101.592599 
L 274.020115 99.817671 
L 274.345094 100.849535 
L 274.995053 95.268049 
L 275.320033 95.290152 
L 275.645012 95.767209 
L 275.969992 91.742439 
L 276.294971 90.646193 
L 276.619951 94.742114 
L 276.94493 89.809761 
L 277.26991 94.915801 
L 277.594889 88.709656 
L 277.919869 102.623133 
L 278.244848 93.308607 
L 278.569828 94.480938 
L 278.894808 101.505456 
L 279.219787 102.590776 
L 279.544767 103.015453 
L 279.869746 106.823982 
L 280.194726 106.996834 
L 280.519705 105.896027 
L 280.844685 100.340872 
L 281.169664 104.097034 
L 281.819623 101.05801 
L 282.144603 93.633704 
L 282.469582 96.297268 
L 282.794562 95.507526 
L 283.119541 89.451849 
L 283.444521 91.518472 
L 283.7695 89.90313 
L 284.09448 91.373225 
L 284.419459 94.62956 
L 284.744439 95.894319 
L 285.069419 94.37908 
L 285.394398 92.29013 
L 285.719378 94.529825 
L 286.044357 99.332723 
L 286.369337 100.549049 
L 286.694316 101.22773 
L 287.019296 105.398789 
L 287.344275 98.82317 
L 288.644193 89.42529 
L 288.969173 88.21775 
L 289.294152 85.077122 
L 289.619132 86.822942 
L 289.944111 84.654494 
L 290.269091 86.096808 
L 290.59407 82.712926 
L 290.91905 88.290509 
L 291.569009 93.625156 
L 292.543948 98.857435 
L 292.868927 100.251358 
L 293.518886 95.771137 
L 293.843866 100.735656 
L 294.168845 99.15487 
L 294.493825 94.347044 
L 294.818804 92.824988 
L 295.143784 96.658013 
L 295.468763 88.64511 
L 295.793743 88.447345 
L 296.118722 91.872935 
L 296.443702 90.669925 
L 296.768681 88.332485 
L 297.093661 94.518468 
L 297.41864 87.542964 
L 297.74362 96.265531 
L 298.0686 87.992712 
L 298.393579 95.631832 
L 298.718559 98.23456 
L 299.043538 96.336837 
L 299.368518 92.801359 
L 299.693497 99.252829 
L 300.018477 97.922502 
L 300.343456 94.750906 
L 300.668436 94.732121 
L 300.993415 90.810078 
L 301.643374 85.685556 
L 301.968354 87.856026 
L 302.618313 78.415178 
L 302.943292 85.242071 
L 303.268272 83.635415 
L 303.593251 81.160068 
L 303.918231 80.213831 
L 304.24321 80.901152 
L 304.56819 90.337571 
L 304.89317 88.157122 
L 305.543129 96.216172 
L 306.193088 90.555663 
L 306.518067 87.867299 
L 306.843047 84.245828 
L 307.168026 89.439786 
L 307.493006 84.741431 
L 307.817985 83.616339 
L 308.142965 77.811176 
L 308.467944 84.783504 
L 308.792924 81.413741 
L 309.442883 82.543246 
L 309.767862 82.631193 
L 310.092842 83.933514 
L 310.417821 90.763255 
L 310.742801 88.674022 
L 311.067781 93.466928 
L 311.39276 90.123231 
L 311.71774 91.651766 
L 312.042719 97.10336 
L 312.367699 93.054675 
L 312.692678 96.594732 
L 313.017658 97.78267 
L 313.667617 91.978867 
L 314.317576 91.11672 
L 314.642555 91.265293 
L 314.967535 85.393252 
L 315.292514 88.974797 
L 315.617494 85.001635 
L 315.942473 76.131469 
L 316.267453 74.17024 
L 316.917412 88.430773 
L 317.242391 84.496856 
L 317.567371 87.818837 
L 317.892351 85.029131 
L 318.21733 89.310272 
L 318.54231 96.799181 
L 319.192269 87.593397 
L 319.517248 82.97297 
L 319.842228 81.201444 
L 320.167207 82.402618 
L 320.492187 81.966081 
L 320.817166 82.850206 
L 321.142146 80.558637 
L 321.467125 81.837351 
L 321.792105 80.384569 
L 322.117084 77.210531 
L 322.442064 72.849282 
L 322.767043 75.896759 
L 323.092023 72.704761 
L 323.417002 74.903753 
L 323.741982 79.945194 
L 324.066962 82.953393 
L 324.391941 80.068148 
L 324.716921 82.917825 
L 325.0419 88.663125 
L 325.36688 83.876827 
L 325.691859 90.880983 
L 326.016839 90.054 
L 326.341818 85.007314 
L 326.666798 81.892244 
L 326.991777 87.483289 
L 327.316757 88.499444 
L 327.641736 80.353002 
L 327.966716 80.859146 
L 328.291695 79.303968 
L 328.616675 80.791099 
L 328.941654 80.342648 
L 329.266634 71.992673 
L 329.591613 79.253552 
L 329.916593 76.870043 
L 330.241572 82.031646 
L 330.566552 90.96159 
L 330.891532 86.352828 
L 331.216511 86.523816 
L 331.541491 85.809972 
L 331.86647 92.669775 
L 332.19145 86.881634 
L 332.516429 92.07526 
L 332.841409 82.533383 
L 333.166388 83.56729 
L 333.491368 86.519862 
L 334.141327 77.092238 
L 334.791286 75.412001 
L 335.116265 79.285145 
L 335.441245 69.410785 
L 335.766224 72.698929 
L 336.091204 72.072326 
L 336.416183 76.395066 
L 336.741163 74.23229 
L 337.066143 80.357683 
L 337.391122 81.586862 
L 337.716102 76.721019 
L 338.041081 77.674577 
L 338.366061 81.607372 
L 339.01602 80.15029 
L 339.340999 83.168907 
L 339.665979 75.908584 
L 339.990958 79.449681 
L 340.315938 75.852882 
L 340.640917 79.863567 
L 340.965897 69.713934 
L 341.290876 67.483876 
L 341.615856 61.47719 
L 341.940835 70.901104 
L 342.265815 66.666514 
L 342.590794 70.190834 
L 342.915774 77.706444 
L 343.240753 75.943472 
L 343.565733 81.873816 
L 343.890713 83.000758 
L 344.215692 82.913676 
L 344.540672 80.988566 
L 344.865651 87.276466 
L 345.190631 80.186036 
L 345.51561 81.706361 
L 345.84059 91.501019 
L 346.165569 81.890534 
L 346.490549 80.019409 
L 346.815528 76.412301 
L 347.140508 81.642801 
L 347.465487 73.283954 
L 347.790467 76.314703 
L 348.115446 78.298153 
L 348.440426 77.642228 
L 348.765405 69.442392 
L 349.090385 70.149611 
L 349.415364 69.314167 
L 349.740344 70.962983 
L 350.065324 73.193672 
L 350.390303 74.514083 
L 350.715283 78.864169 
L 351.040262 78.366158 
L 351.690221 73.765422 
L 352.015201 76.26827 
L 352.34018 73.854096 
L 352.66516 69.87875 
L 352.990139 71.433889 
L 353.315119 71.229442 
L 353.640098 67.235949 
L 353.965078 65.709509 
L 354.290057 70.321527 
L 354.940016 62.13105 
L 355.264996 61.364507 
L 355.589975 71.127309 
L 355.914955 70.586014 
L 356.239934 72.067884 
L 356.564914 70.404862 
L 356.889894 72.728058 
L 357.214873 70.615913 
L 357.864832 77.816754 
L 358.189812 77.581158 
L 358.514791 78.710268 
L 359.16475 75.036152 
L 359.48973 74.207705 
L 359.814709 70.823634 
L 360.139689 72.288709 
L 360.464668 66.139721 
L 360.789648 65.740402 
L 361.114627 72.767826 
L 361.764586 65.54182 
L 362.089566 65.850656 
L 362.414545 72.002722 
L 362.739525 66.642783 
L 363.064505 76.581491 
L 363.389484 72.930527 
L 363.714464 77.32357 
L 364.039443 76.141598 
L 364.364423 82.067171 
L 364.689402 80.67096 
L 365.014382 72.84779 
L 365.664341 70.527128 
L 366.3143 66.413577 
L 366.639279 65.345556 
L 366.964259 60.359991 
L 367.289238 65.658011 
L 367.614218 61.86906 
L 367.939197 55.265022 
L 368.264177 63.182233 
L 368.589156 62.588638 
L 368.914136 59.104687 
L 369.239115 69.041218 
L 369.564095 65.838926 
L 369.889075 66.546663 
L 370.214054 63.947046 
L 370.539034 68.359995 
L 370.864013 68.34802 
L 371.188993 63.835162 
L 371.513972 64.788315 
L 371.838952 68.205626 
L 372.163931 69.479764 
L 372.488911 58.863638 
L 373.13887 61.117303 
L 373.463849 60.080832 
L 374.113808 58.783742 
L 374.438788 63.516352 
L 374.763767 61.602102 
L 375.088747 66.5239 
L 375.413726 63.326886 
L 375.738706 71.400506 
L 376.063686 72.262589 
L 376.388665 70.898373 
L 376.713645 77.509857 
L 377.038624 72.457036 
L 377.363604 77.820274 
L 377.688583 76.12108 
L 378.013563 69.089684 
L 378.338542 75.037417 
L 378.663522 68.017181 
L 378.988501 73.529912 
L 379.313481 70.908564 
L 379.63846 64.166498 
L 379.96344 67.183222 
L 380.288419 62.036204 
L 380.613399 65.462369 
L 380.938378 62.974036 
L 381.263358 55.636507 
L 381.588337 60.169769 
L 381.913317 57.761206 
L 382.238296 63.797416 
L 382.563276 64.737183 
L 382.888256 62.460129 
L 383.213235 67.044856 
L 383.538215 63.891626 
L 383.863194 65.880027 
L 384.188174 66.164828 
L 384.513153 68.006283 
L 384.838133 62.549635 
L 385.163112 64.549942 
L 385.488092 65.073876 
L 385.813071 56.600603 
L 386.138051 58.460316 
L 386.46303 56.01245 
L 386.78801 54.904234 
L 387.112989 49.675387 
L 387.437969 52.992621 
L 387.762948 46.970182 
L 388.087928 57.771663 
L 388.412907 60.992845 
L 388.737887 55.532286 
L 389.062867 59.664492 
L 389.387846 58.34441 
L 389.712826 62.827835 
L 390.037805 60.542946 
L 390.362785 69.243551 
L 390.687764 68.444662 
L 391.012744 66.504254 
L 391.337723 71.288432 
L 391.662703 69.210218 
L 391.987682 58.960468 
L 392.312662 61.966006 
L 392.637641 62.055973 
L 393.2876 58.214856 
L 393.61258 57.664446 
L 393.937559 54.803245 
L 394.262539 59.335491 
L 394.587518 56.225221 
L 394.912498 58.540246 
L 395.237477 55.531542 
L 395.562457 61.748478 
L 395.887437 59.766949 
L 396.212416 60.926698 
L 396.537396 63.447989 
L 396.862375 62.679798 
L 397.512334 70.313506 
L 397.837314 59.935827 
L 398.162293 62.922676 
L 398.487273 60.977378 
L 398.487273 60.977378 
" clip-path="url(#p263d160ca5)" style="fill: none; stroke: #000000; stroke-width: 1.5; stroke-linecap: square"/>
   </g>
   <g id="line2d_12">
    <path d="M 73.832727 145.049414 
L 93.981458 141.318117 
L 114.130188 137.362436 
L 134.278919 133.18237 
L 154.427649 128.77792 
L 174.57638 124.149085 
L 195.05009 119.21575 
L 215.5238 114.050733 
L 235.99751 108.654035 
L 256.47122 103.025656 
L 276.94493 97.165596 
L 297.41864 91.073855 
L 317.892351 84.750433 
L 338.366061 78.19533 
L 358.839771 71.408546 
L 379.313481 64.390081 
L 398.487273 57.607149 
L 398.487273 57.607149 
" clip-path="url(#p263d160ca5)" style="fill: none; stroke: #1f77b4; stroke-width: 1.5; stroke-linecap: square"/>
   </g>
   <g id="patch_3">
    <path d="M 57.6 162.432 
L 57.6 41.472 
" style="fill: none; stroke: #000000; stroke-width: 0.8; stroke-linejoin: miter; stroke-linecap: square"/>
   </g>
   <g id="patch_4">
    <path d="M 414.72 162.432 
L 414.72 41.472 
" style="fill: none; stroke: #000000; stroke-width: 0.8; stroke-linejoin: miter; stroke-linecap: square"/>
   </g>
   <g id="patch_5">
    <path d="M 57.6 162.432 
L 414.72 162.432 
" style="fill: none; stroke: #000000; stroke-width: 0.8; stroke-linejoin: miter; stroke-linecap: square"/>
   </g>
   <g id="patch_6">
    <path d="M 57.6 41.472 
L 414.72 41.472 
" style="fill: none; stroke: #000000; stroke-width: 0.8; stroke-linejoin: miter; stroke-linecap: square"/>
   </g>
   <g id="legend_1">
    <g id="patch_7">
     <path d="M 64.6 78.82825 
L 151.984375 78.82825 
Q 153.984375 78.82825 153.984375 76.82825 
L 153.984375 48.472 
Q 153.984375 46.472 151.984375 46.472 
L 64.6 46.472 
Q 62.6 46.472 62.6 48.472 
L 62.6 76.82825 
Q 62.6 78.82825 64.6 78.82825 
z
" style="fill: #ffffff; opacity: 0.8; stroke: #cccccc; stroke-linejoin: miter"/>
    </g>
    <g id="line2d_13">
     <path d="M 66.6 54.570437 
L 76.6 54.570437 
L 86.6 54.570437 
" style="fill: none; stroke: #000000; stroke-width: 1.5; stroke-linecap: square"/>
    </g>
    <g id="text_11">
     <!-- time series -->
     <g transform="translate(94.6 58.070437) scale(0.1 -0.1)">
      <defs>
       <path id="DejaVuSans-74" d="M 1172 4494 
L 1172 3500 
L 2356 3500 
L 2356 3053 
L 1172 3053 
L 1172 1153 
Q 1172 725 1289 603 
Q 1406 481 1766 481 
L 2356 481 
L 2356 0 
L 1766 0 
Q 1100 0 847 248 
Q 594 497 594 1153 
L 594 3053 
L 172 3053 
L 172 3500 
L 594 3500 
L 594 4494 
L 1172 4494 
z
" transform="scale(0.015625)"/>
       <path id="DejaVuSans-69" d="M 603 3500 
L 1178 3500 
L 1178 0 
L 603 0 
L 603 3500 
z
M 603 4863 
L 1178 4863 
L 1178 4134 
L 603 4134 
L 603 4863 
z
" transform="scale(0.015625)"/>
       <path id="DejaVuSans-6d" d="M 3328 2828 
Q 3544 3216 3844 3400 
Q 4144 3584 4550 3584 
Q 5097 3584 5394 3201 
Q 5691 2819 5691 2113 
L 5691 0 
L 5113 0 
L 5113 2094 
Q 5113 2597 4934 2840 
Q 4756 3084 4391 3084 
Q 3944 3084 3684 2787 
Q 3425 2491 3425 1978 
L 3425 0 
L 2847 0 
L 2847 2094 
Q 2847 2600 2669 2842 
Q 2491 3084 2119 3084 
Q 1678 3084 1418 2786 
Q 1159 2488 1159 1978 
L 1159 0 
L 581 0 
L 581 3500 
L 1159 3500 
L 1159 2956 
Q 1356 3278 1631 3431 
Q 1906 3584 2284 3584 
Q 2666 3584 2933 3390 
Q 3200 3197 3328 2828 
z
" transform="scale(0.015625)"/>
       <path id="DejaVuSans-65" d="M 3597 1894 
L 3597 1613 
L 953 1613 
Q 991 1019 1311 708 
Q 1631 397 2203 397 
Q 2534 397 2845 478 
Q 3156 559 3463 722 
L 3463 178 
Q 3153 47 2828 -22 
Q 2503 -91 2169 -91 
Q 1331 -91 842 396 
Q 353 884 353 1716 
Q 353 2575 817 3079 
Q 1281 3584 2069 3584 
Q 2775 3584 3186 3129 
Q 3597 2675 3597 1894 
z
M 3022 2063 
Q 3016 2534 2758 2815 
Q 2500 3097 2075 3097 
Q 1594 3097 1305 2825 
Q 1016 2553 972 2059 
L 3022 2063 
z
" transform="scale(0.015625)"/>
       <path id="DejaVuSans-20" transform="scale(0.015625)"/>
       <path id="DejaVuSans-73" d="M 2834 3397 
L 2834 2853 
Q 2591 2978 2328 3040 
Q 2066 3103 1784 3103 
Q 1356 3103 1142 2972 
Q 928 2841 928 2578 
Q 928 2378 1081 2264 
Q 1234 2150 1697 2047 
L 1894 2003 
Q 2506 1872 2764 1633 
Q 3022 1394 3022 966 
Q 3022 478 2636 193 
Q 2250 -91 1575 -91 
Q 1294 -91 989 -36 
Q 684 19 347 128 
L 347 722 
Q 666 556 975 473 
Q 1284 391 1588 391 
Q 1994 391 2212 530 
Q 2431 669 2431 922 
Q 2431 1156 2273 1281 
Q 2116 1406 1581 1522 
L 1381 1569 
Q 847 1681 609 1914 
Q 372 2147 372 2553 
Q 372 3047 722 3315 
Q 1072 3584 1716 3584 
Q 2034 3584 2315 3537 
Q 2597 3491 2834 3397 
z
" transform="scale(0.015625)"/>
       <path id="DejaVuSans-72" d="M 2631 2963 
Q 2534 3019 2420 3045 
Q 2306 3072 2169 3072 
Q 1681 3072 1420 2755 
Q 1159 2438 1159 1844 
L 1159 0 
L 581 0 
L 581 3500 
L 1159 3500 
L 1159 2956 
Q 1341 3275 1631 3429 
Q 1922 3584 2338 3584 
Q 2397 3584 2469 3576 
Q 2541 3569 2628 3553 
L 2631 2963 
z
" transform="scale(0.015625)"/>
      </defs>
      <use xlink:href="#DejaVuSans-74"/>
      <use xlink:href="#DejaVuSans-69" transform="translate(39.208984 0)"/>
      <use xlink:href="#DejaVuSans-6d" transform="translate(66.992188 0)"/>
      <use xlink:href="#DejaVuSans-65" transform="translate(164.404297 0)"/>
      <use xlink:href="#DejaVuSans-20" transform="translate(225.927734 0)"/>
      <use xlink:href="#DejaVuSans-73" transform="translate(257.714844 0)"/>
      <use xlink:href="#DejaVuSans-65" transform="translate(309.814453 0)"/>
      <use xlink:href="#DejaVuSans-72" transform="translate(371.337891 0)"/>
      <use xlink:href="#DejaVuSans-69" transform="translate(412.451172 0)"/>
      <use xlink:href="#DejaVuSans-65" transform="translate(440.234375 0)"/>
      <use xlink:href="#DejaVuSans-73" transform="translate(501.757812 0)"/>
     </g>
    </g>
    <g id="line2d_14">
     <path d="M 66.6 69.248562 
L 76.6 69.248562 
L 86.6 69.248562 
" style="fill: none; stroke: #1f77b4; stroke-width: 1.5; stroke-linecap: square"/>
    </g>
    <g id="text_12">
     <!-- trend -->
     <g transform="translate(94.6 72.748562) scale(0.1 -0.1)">
      <defs>
       <path id="DejaVuSans-6e" d="M 3513 2113 
L 3513 0 
L 2938 0 
L 2938 2094 
Q 2938 2591 2744 2837 
Q 2550 3084 2163 3084 
Q 1697 3084 1428 2787 
Q 1159 2491 1159 1978 
L 1159 0 
L 581 0 
L 581 3500 
L 1159 3500 
L 1159 2956 
Q 1366 3272 1645 3428 
Q 1925 3584 2291 3584 
Q 2894 3584 3203 3211 
Q 3513 2838 3513 2113 
z
" transform="scale(0.015625)"/>
       <path id="DejaVuSans-64" d="M 2906 2969 
L 2906 4863 
L 3481 4863 
L 3481 0 
L 2906 0 
L 2906 525 
Q 2725 213 2448 61 
Q 2172 -91 1784 -91 
Q 1150 -91 751 415 
Q 353 922 353 1747 
Q 353 2572 751 3078 
Q 1150 3584 1784 3584 
Q 2172 3584 2448 3432 
Q 2725 3281 2906 2969 
z
M 947 1747 
Q 947 1113 1208 752 
Q 1469 391 1925 391 
Q 2381 391 2643 752 
Q 2906 1113 2906 1747 
Q 2906 2381 2643 2742 
Q 2381 3103 1925 3103 
Q 1469 3103 1208 2742 
Q 947 2381 947 1747 
z
" transform="scale(0.015625)"/>
      </defs>
      <use xlink:href="#DejaVuSans-74"/>
      <use xlink:href="#DejaVuSans-72" transform="translate(39.208984 0)"/>
      <use xlink:href="#DejaVuSans-65" transform="translate(78.072266 0)"/>
      <use xlink:href="#DejaVuSans-6e" transform="translate(139.595703 0)"/>
      <use xlink:href="#DejaVuSans-64" transform="translate(202.974609 0)"/>
     </g>
    </g>
   </g>
  </g>
  <g id="axes_2">
   <g id="patch_8">
    <path d="M 57.6 307.584 
L 414.72 307.584 
L 414.72 186.624 
L 57.6 186.624 
z
" style="fill: #ffffff"/>
   </g>
   <g id="matplotlib.axis_3">
    <g id="xtick_7">
     <g id="line2d_15">
      <path d="M 73.832727 307.584 
L 73.832727 186.624 
" clip-path="url(#pe795dc0c6e)" style="fill: none; stroke: #b0b0b0; stroke-width: 0.8; stroke-linecap: square"/>
     </g>
     <g id="line2d_16">
      <g>
       <use xlink:href="#mbb287316c9" x="73.832727" y="307.584" style="stroke: #000000; stroke-width: 0.8"/>
      </g>
     </g>
     <g id="text_13">
      <!-- 0 -->
      <g transform="translate(70.651477 322.182437) scale(0.1 -0.1)">
       <use xlink:href="#DejaVuSans-30"/>
      </g>
     </g>
    </g>
    <g id="xtick_8">
     <g id="line2d_17">
      <path d="M 138.828632 307.584 
L 138.828632 186.624 
" clip-path="url(#pe795dc0c6e)" style="fill: none; stroke: #b0b0b0; stroke-width: 0.8; stroke-linecap: square"/>
     </g>
     <g id="line2d_18">
      <g>
       <use xlink:href="#mbb287316c9" x="138.828632" y="307.584" style="stroke: #000000; stroke-width: 0.8"/>
      </g>
     </g>
     <g id="text_14">
      <!-- 200 -->
      <g transform="translate(129.284882 322.182437) scale(0.1 -0.1)">
       <use xlink:href="#DejaVuSans-32"/>
       <use xlink:href="#DejaVuSans-30" transform="translate(63.623047 0)"/>
       <use xlink:href="#DejaVuSans-30" transform="translate(127.246094 0)"/>
      </g>
     </g>
    </g>
    <g id="xtick_9">
     <g id="line2d_19">
      <path d="M 203.824537 307.584 
L 203.824537 186.624 
" clip-path="url(#pe795dc0c6e)" style="fill: none; stroke: #b0b0b0; stroke-width: 0.8; stroke-linecap: square"/>
     </g>
     <g id="line2d_20">
      <g>
       <use xlink:href="#mbb287316c9" x="203.824537" y="307.584" style="stroke: #000000; stroke-width: 0.8"/>
      </g>
     </g>
     <g id="text_15">
      <!-- 400 -->
      <g transform="translate(194.280787 322.182437) scale(0.1 -0.1)">
       <use xlink:href="#DejaVuSans-34"/>
       <use xlink:href="#DejaVuSans-30" transform="translate(63.623047 0)"/>
       <use xlink:href="#DejaVuSans-30" transform="translate(127.246094 0)"/>
      </g>
     </g>
    </g>
    <g id="xtick_10">
     <g id="line2d_21">
      <path d="M 268.820442 307.584 
L 268.820442 186.624 
" clip-path="url(#pe795dc0c6e)" style="fill: none; stroke: #b0b0b0; stroke-width: 0.8; stroke-linecap: square"/>
     </g>
     <g id="line2d_22">
      <g>
       <use xlink:href="#mbb287316c9" x="268.820442" y="307.584" style="stroke: #000000; stroke-width: 0.8"/>
      </g>
     </g>
     <g id="text_16">
      <!-- 600 -->
      <g transform="translate(259.276692 322.182437) scale(0.1 -0.1)">
       <use xlink:href="#DejaVuSans-36"/>
       <use xlink:href="#DejaVuSans-30" transform="translate(63.623047 0)"/>
       <use xlink:href="#DejaVuSans-30" transform="translate(127.246094 0)"/>
      </g>
     </g>
    </g>
    <g id="xtick_11">
     <g id="line2d_23">
      <path d="M 333.816347 307.584 
L 333.816347 186.624 
" clip-path="url(#pe795dc0c6e)" style="fill: none; stroke: #b0b0b0; stroke-width: 0.8; stroke-linecap: square"/>
     </g>
     <g id="line2d_24">
      <g>
       <use xlink:href="#mbb287316c9" x="333.816347" y="307.584" style="stroke: #000000; stroke-width: 0.8"/>
      </g>
     </g>
     <g id="text_17">
      <!-- 800 -->
      <g transform="translate(324.272597 322.182437) scale(0.1 -0.1)">
       <use xlink:href="#DejaVuSans-38"/>
       <use xlink:href="#DejaVuSans-30" transform="translate(63.623047 0)"/>
       <use xlink:href="#DejaVuSans-30" transform="translate(127.246094 0)"/>
      </g>
     </g>
    </g>
    <g id="xtick_12">
     <g id="line2d_25">
      <path d="M 398.812252 307.584 
L 398.812252 186.624 
" clip-path="url(#pe795dc0c6e)" style="fill: none; stroke: #b0b0b0; stroke-width: 0.8; stroke-linecap: square"/>
     </g>
     <g id="line2d_26">
      <g>
       <use xlink:href="#mbb287316c9" x="398.812252" y="307.584" style="stroke: #000000; stroke-width: 0.8"/>
      </g>
     </g>
     <g id="text_18">
      <!-- 1000 -->
      <g transform="translate(386.087252 322.182437) scale(0.1 -0.1)">
       <use xlink:href="#DejaVuSans-31"/>
       <use xlink:href="#DejaVuSans-30" transform="translate(63.623047 0)"/>
       <use xlink:href="#DejaVuSans-30" transform="translate(127.246094 0)"/>
       <use xlink:href="#DejaVuSans-30" transform="translate(190.869141 0)"/>
      </g>
     </g>
    </g>
   </g>
   <g id="matplotlib.axis_4">
    <g id="ytick_5">
     <g id="line2d_27">
      <path d="M 57.6 270.664839 
L 414.72 270.664839 
" clip-path="url(#pe795dc0c6e)" style="fill: none; stroke: #b0b0b0; stroke-width: 0.8; stroke-linecap: square"/>
     </g>
     <g id="line2d_28">
      <g>
       <use xlink:href="#mfc6d727dba" x="57.6" y="270.664839" style="stroke: #000000; stroke-width: 0.8"/>
      </g>
     </g>
     <g id="text_19">
      <!-- 0.0 -->
      <g transform="translate(34.696875 274.464058) scale(0.1 -0.1)">
       <defs>
        <path id="DejaVuSans-2e" d="M 684 794 
L 1344 794 
L 1344 0 
L 684 0 
L 684 794 
z
" transform="scale(0.015625)"/>
       </defs>
       <use xlink:href="#DejaVuSans-30"/>
       <use xlink:href="#DejaVuSans-2e" transform="translate(63.623047 0)"/>
       <use xlink:href="#DejaVuSans-30" transform="translate(95.410156 0)"/>
      </g>
     </g>
    </g>
    <g id="ytick_6">
     <g id="line2d_29">
      <path d="M 57.6 231.393511 
L 414.72 231.393511 
" clip-path="url(#pe795dc0c6e)" style="fill: none; stroke: #b0b0b0; stroke-width: 0.8; stroke-linecap: square"/>
     </g>
     <g id="line2d_30">
      <g>
       <use xlink:href="#mfc6d727dba" x="57.6" y="231.393511" style="stroke: #000000; stroke-width: 0.8"/>
      </g>
     </g>
     <g id="text_20">
      <!-- 0.5 -->
      <g transform="translate(34.696875 235.192729) scale(0.1 -0.1)">
       <use xlink:href="#DejaVuSans-30"/>
       <use xlink:href="#DejaVuSans-2e" transform="translate(63.623047 0)"/>
       <use xlink:href="#DejaVuSans-35" transform="translate(95.410156 0)"/>
      </g>
     </g>
    </g>
    <g id="ytick_7">
     <g id="line2d_31">
      <path d="M 57.6 192.122182 
L 414.72 192.122182 
" clip-path="url(#pe795dc0c6e)" style="fill: none; stroke: #b0b0b0; stroke-width: 0.8; stroke-linecap: square"/>
     </g>
     <g id="line2d_32">
      <g>
       <use xlink:href="#mfc6d727dba" x="57.6" y="192.122182" style="stroke: #000000; stroke-width: 0.8"/>
      </g>
     </g>
     <g id="text_21">
      <!-- 1.0 -->
      <g transform="translate(34.696875 195.921401) scale(0.1 -0.1)">
       <use xlink:href="#DejaVuSans-31"/>
       <use xlink:href="#DejaVuSans-2e" transform="translate(63.623047 0)"/>
       <use xlink:href="#DejaVuSans-30" transform="translate(95.410156 0)"/>
      </g>
     </g>
    </g>
   </g>
   <g id="line2d_33">
    <path d="M 73.832727 192.122182 
L 74.157707 193.410598 
L 74.807666 194.573374 
L 75.782604 196.936535 
L 76.432563 198.347507 
L 77.082523 199.226795 
L 77.407502 199.441559 
L 77.732482 199.461636 
L 78.057461 199.334543 
L 79.682359 198.046731 
L 80.007338 198.098692 
L 80.657297 198.588001 
L 81.307256 199.66721 
L 82.932154 203.296108 
L 83.257133 203.778576 
L 83.907093 204.194668 
L 84.232072 204.198167 
L 84.882031 203.730246 
L 85.53199 203.003093 
L 86.181949 202.479622 
L 86.831908 202.496667 
L 87.156888 202.760736 
L 87.481867 203.2062 
L 89.756724 207.749445 
L 90.406683 208.249957 
L 90.731663 208.300944 
L 91.706601 207.661359 
L 92.35656 207.066267 
L 93.006519 206.923948 
L 93.656478 207.412698 
L 94.306437 208.440189 
L 95.931335 212.086975 
L 96.581294 212.956929 
L 97.231253 213.099539 
L 97.881212 212.668951 
L 98.856151 211.821292 
L 99.18113 211.710582 
L 99.50611 211.73739 
L 99.831089 211.877222 
L 100.481048 212.626641 
L 102.755905 216.968871 
L 103.405864 217.418289 
L 104.055823 217.184877 
L 104.705782 216.633699 
L 105.680721 215.908501 
L 106.33068 216.152952 
L 106.655659 216.437094 
L 107.630598 218.206245 
L 108.930516 220.955179 
L 109.255495 221.481546 
L 109.905455 221.937554 
L 110.230434 221.987732 
L 110.555414 221.921615 
L 111.855332 221.035759 
L 112.505291 220.898825 
L 113.15525 221.466357 
L 113.805209 222.45503 
L 115.430106 225.79928 
L 115.755086 226.235795 
L 116.080066 226.483376 
L 116.730025 226.583338 
L 117.704963 225.900955 
L 118.354922 225.348993 
L 118.679902 225.15958 
L 119.329861 225.207097 
L 119.65484 225.501949 
L 120.629779 227.123466 
L 121.929697 229.750917 
L 122.579656 230.462881 
L 122.904636 230.641288 
L 123.229615 230.672397 
L 123.879574 230.345501 
L 124.854513 229.528395 
L 125.504472 229.389675 
L 126.154431 229.861372 
L 126.80439 230.886922 
L 128.429287 234.196154 
L 128.754267 234.654384 
L 129.404226 235.033513 
L 130.054185 235.019492 
L 131.354103 234.230165 
L 132.004062 234.070817 
L 132.329042 234.151859 
L 132.979001 234.763362 
L 135.253857 238.777342 
L 135.578837 239.036796 
L 136.228796 239.120691 
L 136.878755 238.814197 
L 137.853694 237.952359 
L 138.503653 237.845903 
L 139.153612 238.291332 
L 139.478591 238.666208 
L 140.45353 240.510453 
L 141.428468 242.30971 
L 142.078428 243.091934 
L 142.728387 243.253429 
L 143.053366 243.204446 
L 144.353284 242.491571 
L 145.003243 242.467847 
L 145.328223 242.56012 
L 145.978182 243.27168 
L 147.928059 246.828329 
L 148.578018 247.542125 
L 148.902998 247.679443 
L 149.552957 247.513925 
L 151.177854 246.50284 
L 151.502834 246.405806 
L 151.827813 246.534951 
L 152.477772 247.132495 
L 154.752629 250.857823 
L 155.077609 251.124362 
L 155.727568 251.252737 
L 156.052547 251.17591 
L 157.352465 250.424371 
L 158.002424 250.31464 
L 158.327404 250.394272 
L 158.977363 251.035988 
L 159.627322 252.112591 
L 160.60226 253.983315 
L 161.252219 254.873215 
L 161.902179 255.27442 
L 162.552138 255.133574 
L 163.527076 254.599711 
L 163.852056 254.356479 
L 164.177035 254.257541 
L 164.826994 254.386788 
L 165.476953 255.037457 
L 166.126912 256.094525 
L 167.42683 258.179735 
L 168.07679 258.722196 
L 168.726749 258.927122 
L 169.051728 258.877503 
L 170.351646 258.006826 
L 171.001605 257.923542 
L 171.651564 258.223447 
L 172.626503 259.571559 
L 173.926421 261.848581 
L 174.57638 262.445121 
L 174.90136 262.636457 
L 175.551319 262.62566 
L 176.851237 261.956231 
L 177.501196 261.874504 
L 177.826175 261.992217 
L 178.476134 262.561038 
L 180.750991 265.907262 
L 181.075971 266.160466 
L 181.40095 266.265502 
L 181.72593 266.17836 
L 182.050909 266.228415 
L 182.700868 265.837603 
L 183.350827 265.43956 
L 184.000786 265.369313 
L 184.325766 265.389263 
L 184.975725 265.945278 
L 185.625684 266.78898 
L 187.250581 269.088301 
L 187.575561 269.316243 
L 188.22552 269.386788 
L 188.5505 269.367473 
L 189.850418 268.692285 
L 190.175397 268.584654 
L 190.825356 268.68147 
L 191.475315 269.237189 
L 194.075152 272.65715 
L 194.400131 272.83502 
L 195.05009 272.701039 
L 195.700049 272.438737 
L 196.674988 271.963295 
L 197.324947 272.106033 
L 197.649926 272.274763 
L 198.299885 273.054149 
L 200.249762 275.573476 
L 200.899722 275.878348 
L 201.549681 275.82124 
L 203.499558 275.091201 
L 204.149517 275.357666 
L 205.124455 276.468068 
L 205.774414 277.423761 
L 206.424373 278.231521 
L 207.074333 278.794547 
L 207.724292 278.992427 
L 208.69923 278.668536 
L 209.999148 278.248801 
L 210.324128 278.32298 
L 211.299066 279.143356 
L 211.949025 280.012328 
L 212.598984 280.902066 
L 213.248943 281.551789 
L 214.223882 281.847912 
L 215.198821 281.426717 
L 215.84878 281.158947 
L 216.173759 281.024345 
L 216.823718 281.122636 
L 217.473677 281.542558 
L 218.123636 282.149648 
L 219.098575 283.476329 
L 220.073514 284.162374 
L 220.723473 284.315793 
L 221.048452 284.296874 
L 222.34837 283.795032 
L 222.998329 283.722502 
L 223.323309 283.804176 
L 224.298247 284.560571 
L 225.923145 286.539681 
L 226.248124 286.82685 
L 227.223063 287.094057 
L 227.873022 286.992618 
L 229.49792 286.484192 
L 230.797838 287.274787 
L 232.422735 289.043792 
L 233.072695 289.516816 
L 233.722654 289.631968 
L 234.697592 289.27064 
L 235.347551 288.942756 
L 235.99751 288.817941 
L 236.647469 289.029705 
L 237.297428 289.53194 
L 238.922326 291.280225 
L 239.572285 291.721388 
L 240.547224 291.629519 
L 242.497101 291.05432 
L 243.472039 291.433224 
L 244.121998 292.009069 
L 245.421916 293.219673 
L 246.071876 293.591033 
L 247.046814 293.645483 
L 248.021753 293.186994 
L 249.321671 292.997517 
L 250.296609 293.531747 
L 251.271548 294.383393 
L 251.921507 294.8387 
L 252.896446 295.309181 
L 254.196364 295.032536 
L 254.846323 294.741208 
L 255.821261 294.734667 
L 256.47122 294.980919 
L 257.446159 295.747599 
L 258.421097 296.591021 
L 259.396036 296.970925 
L 260.045995 296.925575 
L 260.695954 296.709788 
L 261.345913 296.447178 
L 261.995872 296.370965 
L 262.645831 296.520334 
L 263.29579 296.871324 
L 264.920688 298.161406 
L 265.570647 298.334252 
L 266.220606 298.334207 
L 266.545586 298.323702 
L 267.845504 297.848063 
L 268.820442 297.763108 
L 269.470401 297.944739 
L 271.745258 299.364533 
L 272.395217 299.507891 
L 273.370156 299.302138 
L 274.020115 299.00884 
L 275.320033 298.744969 
L 276.294971 299.134133 
L 278.569828 300.396546 
L 279.544767 300.352168 
L 281.494644 299.861174 
L 282.144603 299.921888 
L 282.794562 300.20698 
L 284.419459 301.139906 
L 285.069419 301.301522 
L 285.719378 301.278894 
L 287.669255 300.663168 
L 288.644193 300.674787 
L 289.619132 300.958018 
L 290.59407 301.457194 
L 291.569009 301.718567 
L 292.543948 301.652958 
L 294.493825 301.104101 
L 295.468763 301.230703 
L 296.118722 301.385628 
L 296.768681 301.745626 
L 298.0686 302.051227 
L 298.393579 302.085818 
L 301.318395 301.32906 
L 302.618313 301.573077 
L 304.24321 301.975993 
L 306.518067 301.440703 
L 307.817985 301.026229 
L 308.792924 301.162443 
L 311.39276 301.751012 
L 312.042719 301.592801 
L 314.642555 301.046232 
L 317.242391 301.528014 
L 318.21733 301.391394 
L 320.492187 300.608298 
L 321.142146 300.430633 
L 323.417002 300.632012 
L 324.391941 300.512039 
L 325.36688 300.204848 
L 326.016839 299.891078 
L 328.291695 299.521857 
L 329.591613 299.547801 
L 330.891532 299.405428 
L 331.541491 299.286534 
L 332.516429 298.905176 
L 334.791286 298.331861 
L 336.091204 298.368486 
L 338.041081 297.846979 
L 339.665979 297.160671 
L 340.965897 296.83585 
L 344.540672 296.102671 
L 346.815528 295.390881 
L 348.440426 295.201202 
L 349.090385 295.133296 
L 350.065324 294.868968 
L 351.690221 294.161896 
L 352.990139 293.594883 
L 354.290057 293.081453 
L 355.589975 292.68957 
L 356.889894 292.276949 
L 359.814709 291.04803 
L 360.789648 290.70507 
L 362.414545 290.20106 
L 363.714464 289.746936 
L 368.914136 287.360288 
L 370.539034 286.467133 
L 371.838952 285.811494 
L 375.413726 283.779517 
L 376.713645 283.272975 
L 377.363604 283.06343 
L 378.338542 282.614794 
L 378.988501 282.370531 
L 380.288419 281.779487 
L 382.563276 280.446342 
L 385.488092 278.809248 
L 387.437969 277.410428 
L 388.412907 276.624023 
L 391.012744 275.095961 
L 392.312662 274.482218 
L 396.212416 271.95808 
L 398.487273 270.857722 
L 398.487273 270.857722 
" clip-path="url(#pe795dc0c6e)" style="fill: none; stroke: #1f77b4; stroke-width: 1.5; stroke-linecap: square"/>
   </g>
   <g id="patch_9">
    <path d="M 57.6 307.584 
L 57.6 186.624 
" style="fill: none; stroke: #000000; stroke-width: 0.8; stroke-linejoin: miter; stroke-linecap: square"/>
   </g>
   <g id="patch_10">
    <path d="M 414.72 307.584 
L 414.72 186.624 
" style="fill: none; stroke: #000000; stroke-width: 0.8; stroke-linejoin: miter; stroke-linecap: square"/>
   </g>
   <g id="patch_11">
    <path d="M 57.6 307.584 
L 414.72 307.584 
" style="fill: none; stroke: #000000; stroke-width: 0.8; stroke-linejoin: miter; stroke-linecap: square"/>
   </g>
   <g id="patch_12">
    <path d="M 57.6 186.624 
L 414.72 186.624 
" style="fill: none; stroke: #000000; stroke-width: 0.8; stroke-linejoin: miter; stroke-linecap: square"/>
   </g>
   <g id="legend_2">
    <g id="patch_13">
     <path d="M 263.95125 209.302125 
L 407.72 209.302125 
Q 409.72 209.302125 409.72 207.302125 
L 409.72 193.624 
Q 409.72 191.624 407.72 191.624 
L 263.95125 191.624 
Q 261.95125 191.624 261.95125 193.624 
L 261.95125 207.302125 
Q 261.95125 209.302125 263.95125 209.302125 
z
" style="fill: #ffffff; opacity: 0.8; stroke: #cccccc; stroke-linejoin: miter"/>
    </g>
    <g id="line2d_34">
     <path d="M 265.95125 199.722437 
L 275.95125 199.722437 
L 285.95125 199.722437 
" style="fill: none; stroke: #1f77b4; stroke-width: 1.5; stroke-linecap: square"/>
    </g>
    <g id="text_22">
     <!-- Autocorrelation vector -->
     <g transform="translate(293.95125 203.222437) scale(0.1 -0.1)">
      <defs>
       <path id="DejaVuSans-41" d="M 2188 4044 
L 1331 1722 
L 3047 1722 
L 2188 4044 
z
M 1831 4666 
L 2547 4666 
L 4325 0 
L 3669 0 
L 3244 1197 
L 1141 1197 
L 716 0 
L 50 0 
L 1831 4666 
z
" transform="scale(0.015625)"/>
       <path id="DejaVuSans-75" d="M 544 1381 
L 544 3500 
L 1119 3500 
L 1119 1403 
Q 1119 906 1312 657 
Q 1506 409 1894 409 
Q 2359 409 2629 706 
Q 2900 1003 2900 1516 
L 2900 3500 
L 3475 3500 
L 3475 0 
L 2900 0 
L 2900 538 
Q 2691 219 2414 64 
Q 2138 -91 1772 -91 
Q 1169 -91 856 284 
Q 544 659 544 1381 
z
M 1991 3584 
L 1991 3584 
z
" transform="scale(0.015625)"/>
       <path id="DejaVuSans-6f" d="M 1959 3097 
Q 1497 3097 1228 2736 
Q 959 2375 959 1747 
Q 959 1119 1226 758 
Q 1494 397 1959 397 
Q 2419 397 2687 759 
Q 2956 1122 2956 1747 
Q 2956 2369 2687 2733 
Q 2419 3097 1959 3097 
z
M 1959 3584 
Q 2709 3584 3137 3096 
Q 3566 2609 3566 1747 
Q 3566 888 3137 398 
Q 2709 -91 1959 -91 
Q 1206 -91 779 398 
Q 353 888 353 1747 
Q 353 2609 779 3096 
Q 1206 3584 1959 3584 
z
" transform="scale(0.015625)"/>
       <path id="DejaVuSans-63" d="M 3122 3366 
L 3122 2828 
Q 2878 2963 2633 3030 
Q 2388 3097 2138 3097 
Q 1578 3097 1268 2742 
Q 959 2388 959 1747 
Q 959 1106 1268 751 
Q 1578 397 2138 397 
Q 2388 397 2633 464 
Q 2878 531 3122 666 
L 3122 134 
Q 2881 22 2623 -34 
Q 2366 -91 2075 -91 
Q 1284 -91 818 406 
Q 353 903 353 1747 
Q 353 2603 823 3093 
Q 1294 3584 2113 3584 
Q 2378 3584 2631 3529 
Q 2884 3475 3122 3366 
z
" transform="scale(0.015625)"/>
       <path id="DejaVuSans-6c" d="M 603 4863 
L 1178 4863 
L 1178 0 
L 603 0 
L 603 4863 
z
" transform="scale(0.015625)"/>
       <path id="DejaVuSans-61" d="M 2194 1759 
Q 1497 1759 1228 1600 
Q 959 1441 959 1056 
Q 959 750 1161 570 
Q 1363 391 1709 391 
Q 2188 391 2477 730 
Q 2766 1069 2766 1631 
L 2766 1759 
L 2194 1759 
z
M 3341 1997 
L 3341 0 
L 2766 0 
L 2766 531 
Q 2569 213 2275 61 
Q 1981 -91 1556 -91 
Q 1019 -91 701 211 
Q 384 513 384 1019 
Q 384 1609 779 1909 
Q 1175 2209 1959 2209 
L 2766 2209 
L 2766 2266 
Q 2766 2663 2505 2880 
Q 2244 3097 1772 3097 
Q 1472 3097 1187 3025 
Q 903 2953 641 2809 
L 641 3341 
Q 956 3463 1253 3523 
Q 1550 3584 1831 3584 
Q 2591 3584 2966 3190 
Q 3341 2797 3341 1997 
z
" transform="scale(0.015625)"/>
       <path id="DejaVuSans-76" d="M 191 3500 
L 800 3500 
L 1894 563 
L 2988 3500 
L 3597 3500 
L 2284 0 
L 1503 0 
L 191 3500 
z
" transform="scale(0.015625)"/>
      </defs>
      <use xlink:href="#DejaVuSans-41"/>
      <use xlink:href="#DejaVuSans-75" transform="translate(68.408203 0)"/>
      <use xlink:href="#DejaVuSans-74" transform="translate(131.787109 0)"/>
      <use xlink:href="#DejaVuSans-6f" transform="translate(170.996094 0)"/>
      <use xlink:href="#DejaVuSans-63" transform="translate(232.177734 0)"/>
      <use xlink:href="#DejaVuSans-6f" transform="translate(287.158203 0)"/>
      <use xlink:href="#DejaVuSans-72" transform="translate(348.339844 0)"/>
      <use xlink:href="#DejaVuSans-72" transform="translate(387.703125 0)"/>
      <use xlink:href="#DejaVuSans-65" transform="translate(426.566406 0)"/>
      <use xlink:href="#DejaVuSans-6c" transform="translate(488.089844 0)"/>
      <use xlink:href="#DejaVuSans-61" transform="translate(515.873047 0)"/>
      <use xlink:href="#DejaVuSans-74" transform="translate(577.152344 0)"/>
      <use xlink:href="#DejaVuSans-69" transform="translate(616.361328 0)"/>
      <use xlink:href="#DejaVuSans-6f" transform="translate(644.144531 0)"/>
      <use xlink:href="#DejaVuSans-6e" transform="translate(705.326172 0)"/>
      <use xlink:href="#DejaVuSans-20" transform="translate(768.705078 0)"/>
      <use xlink:href="#DejaVuSans-76" transform="translate(800.492188 0)"/>
      <use xlink:href="#DejaVuSans-65" transform="translate(859.671875 0)"/>
      <use xlink:href="#DejaVuSans-63" transform="translate(921.195312 0)"/>
      <use xlink:href="#DejaVuSans-74" transform="translate(976.175781 0)"/>
      <use xlink:href="#DejaVuSans-6f" transform="translate(1015.384766 0)"/>
      <use xlink:href="#DejaVuSans-72" transform="translate(1076.566406 0)"/>
     </g>
    </g>
   </g>
  </g>
 </g>
 <defs>
  <clipPath id="p263d160ca5">
   <rect x="57.6" y="41.472" width="357.12" height="120.96"/>
  </clipPath>
  <clipPath id="pe795dc0c6e">
   <rect x="57.6" y="186.624" width="357.12" height="120.96"/>
  </clipPath>
 </defs>
</svg>
