<?xml version="1.0" encoding="utf-8" standalone="no"?>
<!DOCTYPE svg PUBLIC "-//W3C//DTD SVG 1.1//EN"
  "http://www.w3.org/Graphics/SVG/1.1/DTD/svg11.dtd">
<svg xmlns:xlink="http://www.w3.org/1999/xlink" width="576pt" height="432pt" viewBox="0 0 576 432" xmlns="http://www.w3.org/2000/svg" version="1.1">
 <metadata>
  <rdf:RDF xmlns:dc="http://purl.org/dc/elements/1.1/" xmlns:cc="http://creativecommons.org/ns#" xmlns:rdf="http://www.w3.org/1999/02/22-rdf-syntax-ns#">
   <cc:Work>
    <dc:type rdf:resource="http://purl.org/dc/dcmitype/StillImage"/>
    <dc:date>2025-12-09T14:56:45.658303</dc:date>
    <dc:format>image/svg+xml</dc:format>
    <dc:creator>
     <cc:Agent>
      <dc:title>Matplotlib v3.10.7, https://matplotlib.org/</dc:title>
     </cc:Agent>
    </dc:creator>
   </cc:Work>
  </rdf:RDF>
 </metadata>
 <defs>
  <style type="text/css">*{stroke-linejoin: round; stroke-linecap: butt}</style>
 </defs>
 <g id="figure_1">
  <g id="patch_1">
   <path d="M 0 432 
L 576 432 
L 576 0 
L 0 0 
z
" style="fill: #ffffff"/>
  </g>
  <g id="axes_1">
   <g id="patch_2">
    <path d="M 38.86 185.48 
L 552.555 185.48 
L 552.555 10.8 
L 38.86 10.8 
z
" style="fill: #ffffff"/>
   </g>
   <g id="matplotlib.axis_1">
    <g id="xtick_1">
     <g id="line2d_1">
      <defs>
       <path id="me7991eccf6" d="M 0 0 
L 0 3.5 
" style="stroke: #000000; stroke-width: 0.8"/>
      </defs>
      <g>
       <use xlink:href="#me7991eccf6" x="62.209773" y="185.48" style="stroke: #000000; stroke-width: 0.8"/>
      </g>
     </g>
     <g id="text_1">
      <!-- 0 -->
      <g transform="translate(59.028523 200.078437) scale(0.1 -0.1)">
       <defs>
        <path id="DejaVuSans-30" d="M 2034 4250 
Q 1547 4250 1301 3770 
Q 1056 3291 1056 2328 
Q 1056 1369 1301 889 
Q 1547 409 2034 409 
Q 2525 409 2770 889 
Q 3016 1369 3016 2328 
Q 3016 3291 2770 3770 
Q 2525 4250 2034 4250 
z
M 2034 4750 
Q 2819 4750 3233 4129 
Q 3647 3509 3647 2328 
Q 3647 1150 3233 529 
Q 2819 -91 2034 -91 
Q 1250 -91 836 529 
Q 422 1150 422 2328 
Q 422 3509 836 4129 
Q 1250 4750 2034 4750 
z
" transform="scale(0.015625)"/>
       </defs>
       <use xlink:href="#DejaVuSans-30"/>
      </g>
     </g>
    </g>
    <g id="xtick_2">
     <g id="line2d_2">
      <g>
       <use xlink:href="#me7991eccf6" x="155.702356" y="185.48" style="stroke: #000000; stroke-width: 0.8"/>
      </g>
     </g>
     <g id="text_2">
      <!-- 200 -->
      <g transform="translate(146.158606 200.078437) scale(0.1 -0.1)">
       <defs>
        <path id="DejaVuSans-32" d="M 1228 531 
L 3431 531 
L 3431 0 
L 469 0 
L 469 531 
Q 828 903 1448 1529 
Q 2069 2156 2228 2338 
Q 2531 2678 2651 2914 
Q 2772 3150 2772 3378 
Q 2772 3750 2511 3984 
Q 2250 4219 1831 4219 
Q 1534 4219 1204 4116 
Q 875 4013 500 3803 
L 500 4441 
Q 881 4594 1212 4672 
Q 1544 4750 1819 4750 
Q 2544 4750 2975 4387 
Q 3406 4025 3406 3419 
Q 3406 3131 3298 2873 
Q 3191 2616 2906 2266 
Q 2828 2175 2409 1742 
Q 1991 1309 1228 531 
z
" transform="scale(0.015625)"/>
       </defs>
       <use xlink:href="#DejaVuSans-32"/>
       <use xlink:href="#DejaVuSans-30" transform="translate(63.623047 0)"/>
       <use xlink:href="#DejaVuSans-30" transform="translate(127.246094 0)"/>
      </g>
     </g>
    </g>
    <g id="xtick_3">
     <g id="line2d_3">
      <g>
       <use xlink:href="#me7991eccf6" x="249.19494" y="185.48" style="stroke: #000000; stroke-width: 0.8"/>
      </g>
     </g>
     <g id="text_3">
      <!-- 400 -->
      <g transform="translate(239.65119 200.078437) scale(0.1 -0.1)">
       <defs>
        <path id="DejaVuSans-34" d="M 2419 4116 
L 825 1625 
L 2419 1625 
L 2419 4116 
z
M 2253 4666 
L 3047 4666 
L 3047 1625 
L 3713 1625 
L 3713 1100 
L 3047 1100 
L 3047 0 
L 2419 0 
L 2419 1100 
L 313 1100 
L 313 1709 
L 2253 4666 
z
" transform="scale(0.015625)"/>
       </defs>
       <use xlink:href="#DejaVuSans-34"/>
       <use xlink:href="#DejaVuSans-30" transform="translate(63.623047 0)"/>
       <use xlink:href="#DejaVuSans-30" transform="translate(127.246094 0)"/>
      </g>
     </g>
    </g>
    <g id="xtick_4">
     <g id="line2d_4">
      <g>
       <use xlink:href="#me7991eccf6" x="342.687523" y="185.48" style="stroke: #000000; stroke-width: 0.8"/>
      </g>
     </g>
     <g id="text_4">
      <!-- 600 -->
      <g transform="translate(333.143773 200.078437) scale(0.1 -0.1)">
       <defs>
        <path id="DejaVuSans-36" d="M 2113 2584 
Q 1688 2584 1439 2293 
Q 1191 2003 1191 1497 
Q 1191 994 1439 701 
Q 1688 409 2113 409 
Q 2538 409 2786 701 
Q 3034 994 3034 1497 
Q 3034 2003 2786 2293 
Q 2538 2584 2113 2584 
z
M 3366 4563 
L 3366 3988 
Q 3128 4100 2886 4159 
Q 2644 4219 2406 4219 
Q 1781 4219 1451 3797 
Q 1122 3375 1075 2522 
Q 1259 2794 1537 2939 
Q 1816 3084 2150 3084 
Q 2853 3084 3261 2657 
Q 3669 2231 3669 1497 
Q 3669 778 3244 343 
Q 2819 -91 2113 -91 
Q 1303 -91 875 529 
Q 447 1150 447 2328 
Q 447 3434 972 4092 
Q 1497 4750 2381 4750 
Q 2619 4750 2861 4703 
Q 3103 4656 3366 4563 
z
" transform="scale(0.015625)"/>
       </defs>
       <use xlink:href="#DejaVuSans-36"/>
       <use xlink:href="#DejaVuSans-30" transform="translate(63.623047 0)"/>
       <use xlink:href="#DejaVuSans-30" transform="translate(127.246094 0)"/>
      </g>
     </g>
    </g>
    <g id="xtick_5">
     <g id="line2d_5">
      <g>
       <use xlink:href="#me7991eccf6" x="436.180107" y="185.48" style="stroke: #000000; stroke-width: 0.8"/>
      </g>
     </g>
     <g id="text_5">
      <!-- 800 -->
      <g transform="translate(426.636357 200.078437) scale(0.1 -0.1)">
       <defs>
        <path id="DejaVuSans-38" d="M 2034 2216 
Q 1584 2216 1326 1975 
Q 1069 1734 1069 1313 
Q 1069 891 1326 650 
Q 1584 409 2034 409 
Q 2484 409 2743 651 
Q 3003 894 3003 1313 
Q 3003 1734 2745 1975 
Q 2488 2216 2034 2216 
z
M 1403 2484 
Q 997 2584 770 2862 
Q 544 3141 544 3541 
Q 544 4100 942 4425 
Q 1341 4750 2034 4750 
Q 2731 4750 3128 4425 
Q 3525 4100 3525 3541 
Q 3525 3141 3298 2862 
Q 3072 2584 2669 2484 
Q 3125 2378 3379 2068 
Q 3634 1759 3634 1313 
Q 3634 634 3220 271 
Q 2806 -91 2034 -91 
Q 1263 -91 848 271 
Q 434 634 434 1313 
Q 434 1759 690 2068 
Q 947 2378 1403 2484 
z
M 1172 3481 
Q 1172 3119 1398 2916 
Q 1625 2713 2034 2713 
Q 2441 2713 2670 2916 
Q 2900 3119 2900 3481 
Q 2900 3844 2670 4047 
Q 2441 4250 2034 4250 
Q 1625 4250 1398 4047 
Q 1172 3844 1172 3481 
z
" transform="scale(0.015625)"/>
       </defs>
       <use xlink:href="#DejaVuSans-38"/>
       <use xlink:href="#DejaVuSans-30" transform="translate(63.623047 0)"/>
       <use xlink:href="#DejaVuSans-30" transform="translate(127.246094 0)"/>
      </g>
     </g>
    </g>
    <g id="xtick_6">
     <g id="line2d_6">
      <g>
       <use xlink:href="#me7991eccf6" x="529.67269" y="185.48" style="stroke: #000000; stroke-width: 0.8"/>
      </g>
     </g>
     <g id="text_6">
      <!-- 1000 -->
      <g transform="translate(516.94769 200.078437) scale(0.1 -0.1)">
       <defs>
        <path id="DejaVuSans-31" d="M 794 531 
L 1825 531 
L 1825 4091 
L 703 3866 
L 703 4441 
L 1819 4666 
L 2450 4666 
L 2450 531 
L 3481 531 
L 3481 0 
L 794 0 
L 794 531 
z
" transform="scale(0.015625)"/>
       </defs>
       <use xlink:href="#DejaVuSans-31"/>
       <use xlink:href="#DejaVuSans-30" transform="translate(63.623047 0)"/>
       <use xlink:href="#DejaVuSans-30" transform="translate(127.246094 0)"/>
       <use xlink:href="#DejaVuSans-30" transform="translate(190.869141 0)"/>
      </g>
     </g>
    </g>
   </g>
   <g id="matplotlib.axis_2">
    <g id="ytick_1">
     <g id="line2d_7">
      <defs>
       <path id="m44fa7ee3e6" d="M 0 0 
L -3.5 0 
" style="stroke: #000000; stroke-width: 0.8"/>
      </defs>
      <g>
       <use xlink:href="#m44fa7ee3e6" x="38.86" y="164.157699" style="stroke: #000000; stroke-width: 0.8"/>
      </g>
     </g>
     <g id="text_7">
      <!-- −10 -->
      <g transform="translate(10.755313 167.956917) scale(0.1 -0.1)">
       <defs>
        <path id="DejaVuSans-2212" d="M 678 2272 
L 4684 2272 
L 4684 1741 
L 678 1741 
L 678 2272 
z
" transform="scale(0.015625)"/>
       </defs>
       <use xlink:href="#DejaVuSans-2212"/>
       <use xlink:href="#DejaVuSans-31" transform="translate(83.789062 0)"/>
       <use xlink:href="#DejaVuSans-30" transform="translate(147.412109 0)"/>
      </g>
     </g>
    </g>
    <g id="ytick_2">
     <g id="line2d_8">
      <g>
       <use xlink:href="#m44fa7ee3e6" x="38.86" y="130.684822" style="stroke: #000000; stroke-width: 0.8"/>
      </g>
     </g>
     <g id="text_8">
      <!-- 0 -->
      <g transform="translate(25.4975 134.484041) scale(0.1 -0.1)">
       <use xlink:href="#DejaVuSans-30"/>
      </g>
     </g>
    </g>
    <g id="ytick_3">
     <g id="line2d_9">
      <g>
       <use xlink:href="#m44fa7ee3e6" x="38.86" y="97.211946" style="stroke: #000000; stroke-width: 0.8"/>
      </g>
     </g>
     <g id="text_9">
      <!-- 10 -->
      <g transform="translate(19.135 101.011165) scale(0.1 -0.1)">
       <use xlink:href="#DejaVuSans-31"/>
       <use xlink:href="#DejaVuSans-30" transform="translate(63.623047 0)"/>
      </g>
     </g>
    </g>
    <g id="ytick_4">
     <g id="line2d_10">
      <g>
       <use xlink:href="#m44fa7ee3e6" x="38.86" y="63.73907" style="stroke: #000000; stroke-width: 0.8"/>
      </g>
     </g>
     <g id="text_10">
      <!-- 20 -->
      <g transform="translate(19.135 67.538289) scale(0.1 -0.1)">
       <use xlink:href="#DejaVuSans-32"/>
       <use xlink:href="#DejaVuSans-30" transform="translate(63.623047 0)"/>
      </g>
     </g>
    </g>
    <g id="ytick_5">
     <g id="line2d_11">
      <g>
       <use xlink:href="#m44fa7ee3e6" x="38.86" y="30.266194" style="stroke: #000000; stroke-width: 0.8"/>
      </g>
     </g>
     <g id="text_11">
      <!-- 30 -->
      <g transform="translate(19.135 34.065413) scale(0.1 -0.1)">
       <defs>
        <path id="DejaVuSans-33" d="M 2597 2516 
Q 3050 2419 3304 2112 
Q 3559 1806 3559 1356 
Q 3559 666 3084 287 
Q 2609 -91 1734 -91 
Q 1441 -91 1130 -33 
Q 819 25 488 141 
L 488 750 
Q 750 597 1062 519 
Q 1375 441 1716 441 
Q 2309 441 2620 675 
Q 2931 909 2931 1356 
Q 2931 1769 2642 2001 
Q 2353 2234 1838 2234 
L 1294 2234 
L 1294 2753 
L 1863 2753 
Q 2328 2753 2575 2939 
Q 2822 3125 2822 3475 
Q 2822 3834 2567 4026 
Q 2313 4219 1838 4219 
Q 1578 4219 1281 4162 
Q 984 4106 628 3988 
L 628 4550 
Q 988 4650 1302 4700 
Q 1616 4750 1894 4750 
Q 2613 4750 3031 4423 
Q 3450 4097 3450 3541 
Q 3450 3153 3228 2886 
Q 3006 2619 2597 2516 
z
" transform="scale(0.015625)"/>
       </defs>
       <use xlink:href="#DejaVuSans-33"/>
       <use xlink:href="#DejaVuSans-30" transform="translate(63.623047 0)"/>
      </g>
     </g>
    </g>
   </g>
   <g id="line2d_12">
    <path d="M 62.209773 127.549121 
L 62.677236 116.47737 
L 63.144699 110.751352 
L 64.079624 78.655903 
L 64.547087 86.217519 
L 65.01455 70.21908 
L 65.482013 80.254727 
L 65.949476 79.192541 
L 66.416939 96.204269 
L 66.884402 119.195918 
L 67.351865 106.60949 
L 67.819328 127.883816 
L 68.286791 139.857715 
L 68.754254 118.059555 
L 69.221716 140.693721 
L 69.689179 129.169166 
L 70.156642 125.441393 
L 70.624105 132.55275 
L 71.091568 114.590387 
L 71.559031 104.862399 
L 72.026494 98.097397 
L 72.493957 87.225058 
L 72.96142 89.301664 
L 73.428883 69.626662 
L 73.896346 97.112637 
L 74.363809 83.853535 
L 75.766197 123.12368 
L 76.23366 147.014555 
L 76.701123 138.637567 
L 77.168586 150.265689 
L 77.636049 158.181379 
L 78.103512 173.45765 
L 78.570975 161.730981 
L 79.038438 170.018714 
L 79.505901 171.356129 
L 80.908289 149.077857 
L 81.375752 117.702129 
L 81.843215 95.163284 
L 82.310678 89.621585 
L 82.778141 103.301124 
L 83.245604 93.408372 
L 83.713067 96.155238 
L 84.18053 90.390353 
L 84.647993 119.753745 
L 85.115456 107.331721 
L 85.582919 119.681944 
L 86.050382 109.729908 
L 86.517844 148.982344 
L 86.985307 137.622098 
L 87.45277 160.405983 
L 87.920233 156.679499 
L 88.387696 148.491084 
L 89.322622 118.599258 
L 89.790085 132.594923 
L 90.257548 120.161761 
L 90.725011 82.778425 
L 91.659937 63.869666 
L 92.127399 71.383408 
L 92.594862 82.307941 
L 93.062325 64.952945 
L 93.529788 75.875523 
L 93.997251 80.605698 
L 94.464714 95.870696 
L 94.932177 103.438516 
L 95.39964 125.663513 
L 95.867103 138.642966 
L 96.334566 123.343369 
L 96.802029 151.083578 
L 97.269492 152.357863 
L 97.736954 150.794508 
L 98.204417 171.189475 
L 99.139343 129.635301 
L 100.074269 133.568459 
L 100.541732 116.365147 
L 101.009195 105.550061 
L 101.476658 111.465411 
L 101.944121 94.804834 
L 102.411584 90.784825 
L 102.879047 100.65015 
L 103.346509 116.813819 
L 103.813972 137.386654 
L 104.281435 135.812873 
L 104.748898 147.014193 
L 105.216361 164.229582 
L 105.683824 171.199351 
L 106.151287 148.868266 
L 106.61875 148.517348 
L 107.086213 163.022753 
L 107.553676 170.405105 
L 108.021139 153.350335 
L 108.488602 131.428267 
L 108.956064 119.592488 
L 109.423527 100.235953 
L 109.89099 91.059344 
L 110.358453 111.470442 
L 110.825916 82.588567 
L 111.293379 62.578251 
L 111.760842 91.438491 
L 112.228305 71.329702 
L 112.695768 87.677513 
L 113.163231 109.802276 
L 113.630694 94.801469 
L 114.098157 118.346193 
L 114.565619 118.534298 
L 115.033082 143.964219 
L 115.500545 129.561608 
L 115.968008 141.476118 
L 116.435471 135.178155 
L 116.902934 125.980802 
L 117.370397 122.582646 
L 117.83786 116.078554 
L 118.305323 116.579926 
L 118.772786 100.587279 
L 119.240249 90.359846 
L 120.175174 105.35486 
L 120.642637 75.112744 
L 121.1101 79.724946 
L 121.577563 93.063472 
L 122.045026 125.374412 
L 122.512489 95.782949 
L 122.979952 117.323448 
L 123.447415 128.15845 
L 123.914878 154.642714 
L 124.382341 148.555315 
L 124.849804 161.7018 
L 125.317267 152.122331 
L 125.78473 170.869632 
L 126.252192 166.124024 
L 126.719655 131.969645 
L 127.187118 136.500043 
L 127.654581 136.058199 
L 128.122044 127.844234 
L 128.589507 106.949199 
L 129.05697 119.188282 
L 129.524433 95.518526 
L 129.991896 87.506512 
L 130.459359 86.086958 
L 130.926822 95.489841 
L 131.394285 89.379722 
L 131.861747 121.806486 
L 132.32921 110.371367 
L 132.796673 130.365122 
L 133.264136 143.138241 
L 133.731599 147.251244 
L 134.199062 139.428763 
L 134.666525 116.902939 
L 135.133988 133.887158 
L 135.601451 135.718207 
L 136.068914 120.889748 
L 136.536377 100.621743 
L 137.00384 99.653036 
L 137.471302 96.505889 
L 137.938765 85.695276 
L 138.406228 86.539734 
L 138.873691 57.224528 
L 139.341154 90.820476 
L 140.27608 79.861416 
L 140.743543 85.666046 
L 141.211006 85.622805 
L 142.613395 124.69125 
L 143.080857 150.504802 
L 143.54832 141.663353 
L 144.015783 165.721134 
L 144.483246 145.032287 
L 144.950709 159.358 
L 145.418172 142.52396 
L 145.885635 129.839465 
L 146.353098 145.457466 
L 146.820561 123.385349 
L 147.755487 107.477829 
L 148.22295 90.865042 
L 148.690412 103.166428 
L 149.157875 73.289303 
L 149.625338 96.446084 
L 150.092801 101.102555 
L 150.560264 146.722618 
L 151.027727 119.659034 
L 151.49519 135.404393 
L 151.962653 161.307108 
L 152.430116 165.800895 
L 152.897579 172.89318 
L 153.365042 155.977802 
L 153.832505 161.165486 
L 154.299967 140.457173 
L 154.76743 161.408611 
L 155.234893 124.187384 
L 155.702356 117.059758 
L 156.169819 81.525435 
L 156.637282 95.112548 
L 157.572208 69.608973 
L 158.039671 71.413735 
L 158.507134 74.035578 
L 158.974597 62.454915 
L 159.44206 75.849607 
L 159.909522 93.434673 
L 160.376985 84.650494 
L 161.311911 132.976136 
L 161.779374 123.524846 
L 162.246837 124.795194 
L 162.7143 112.885089 
L 163.181763 119.577854 
L 163.649226 116.705728 
L 164.116689 116.480721 
L 164.584152 110.768563 
L 165.051615 94.953454 
L 165.519077 101.613693 
L 166.454003 78.746928 
L 166.921466 77.682595 
L 167.388929 74.834433 
L 167.856392 75.166208 
L 168.323855 104.161489 
L 168.791318 109.683582 
L 169.258781 118.44329 
L 169.726244 129.322271 
L 170.193707 119.720561 
L 170.66117 158.00806 
L 171.128632 134.757994 
L 171.596095 176.565158 
L 172.063558 151.752642 
L 172.998484 177.54 
L 173.465947 144.308947 
L 173.93341 133.165332 
L 174.400873 134.83252 
L 174.868336 134.518761 
L 175.335799 111.78693 
L 175.803262 110.246142 
L 176.270725 94.949552 
L 176.738188 106.101075 
L 177.20565 92.50287 
L 177.673113 103.233775 
L 178.140576 111.37238 
L 178.608039 112.043489 
L 179.075502 109.118039 
L 179.542965 120.837795 
L 180.010428 139.92131 
L 180.477891 133.696507 
L 180.945354 137.093833 
L 181.412817 132.187291 
L 181.88028 143.994516 
L 182.347743 143.91138 
L 182.815205 117.827467 
L 183.282668 108.740558 
L 183.750131 108.593538 
L 184.217594 75.799904 
L 184.685057 94.372685 
L 185.15252 53.182612 
L 185.619983 72.552963 
L 186.087446 71.284303 
L 186.554909 59.759768 
L 187.022372 79.605596 
L 187.489835 89.969866 
L 187.957298 93.038002 
L 188.892223 126.255631 
L 189.359686 128.989946 
L 189.827149 142.022696 
L 190.294612 151.055426 
L 190.762075 152.313482 
L 191.229538 129.928531 
L 191.697001 133.914264 
L 192.164464 147.54073 
L 192.631927 129.081491 
L 193.09939 120.656479 
L 193.566853 121.973896 
L 194.501778 104.673504 
L 194.969241 102.21251 
L 195.436704 82.849473 
L 195.904167 100.944959 
L 196.37163 110.423717 
L 196.839093 93.641774 
L 197.306556 135.199305 
L 197.774019 134.911993 
L 198.241482 120.30816 
L 198.708945 167.417176 
L 199.176408 152.183232 
L 199.64387 167.98665 
L 200.111333 142.257913 
L 200.578796 147.39174 
L 201.046259 141.064961 
L 201.513722 121.708976 
L 201.981185 112.911978 
L 202.448648 108.301698 
L 202.916111 107.538525 
L 203.383574 88.529559 
L 203.851037 79.527988 
L 204.3185 65.058897 
L 204.785963 63.567091 
L 205.253425 75.086268 
L 205.720888 65.904941 
L 206.188351 69.618986 
L 206.655814 95.963114 
L 207.123277 89.194542 
L 207.59074 120.575187 
L 208.058203 114.029179 
L 208.525666 126.582479 
L 208.993129 123.805479 
L 209.928055 114.303809 
L 210.395518 135.817913 
L 210.86298 116.798511 
L 211.330443 118.528724 
L 211.797906 82.348115 
L 212.265369 104.753008 
L 212.732832 76.750512 
L 213.200295 89.886266 
L 213.667758 68.650192 
L 214.135221 79.019686 
L 214.602684 80.961621 
L 215.070147 98.205263 
L 215.53761 84.648929 
L 216.472535 138.391831 
L 216.939998 122.559263 
L 217.407461 151.725491 
L 217.874924 146.207962 
L 218.342387 169.784534 
L 218.80985 171.870134 
L 219.277313 175.171187 
L 219.744776 161.020811 
L 220.212239 150.313402 
L 220.679702 145.099361 
L 221.147165 135.487684 
L 221.614628 95.290811 
L 222.08209 114.46405 
L 222.549553 85.300059 
L 223.017016 87.994758 
L 223.484479 98.369534 
L 223.951942 82.14109 
L 224.419405 92.345591 
L 224.886868 108.987043 
L 225.354331 107.54043 
L 225.821794 119.642567 
L 226.289257 107.673703 
L 226.75672 138.850242 
L 227.224183 148.138369 
L 227.691646 134.408891 
L 228.159108 138.704353 
L 228.626571 125.990422 
L 229.094034 127.054052 
L 229.561497 127.232841 
L 230.496423 111.185241 
L 230.963886 61.919351 
L 231.431349 62.959516 
L 231.898812 64.679708 
L 232.366275 43.341293 
L 232.833738 64.310111 
L 233.301201 61.701254 
L 233.768663 51.854738 
L 234.236126 75.885957 
L 234.703589 88.445853 
L 235.171052 107.241188 
L 235.638515 105.751041 
L 236.573441 147.436836 
L 237.040904 124.746588 
L 237.508367 152.089563 
L 237.97583 154.497712 
L 238.443293 123.822788 
L 239.378218 140.459251 
L 239.845681 106.718219 
L 240.313144 113.057312 
L 241.24807 85.380441 
L 241.715533 105.474735 
L 242.182996 97.350221 
L 242.650459 99.958496 
L 243.117922 107.774689 
L 244.052848 93.478908 
L 244.987773 136.806323 
L 245.455236 132.412182 
L 245.922699 146.236175 
L 246.390162 163.734459 
L 246.857625 156.181791 
L 247.325088 146.251433 
L 247.792551 151.173951 
L 248.260014 142.98294 
L 248.727477 114.705013 
L 249.19494 108.622699 
L 249.662403 94.303595 
L 250.129866 73.559178 
L 250.597328 96.746161 
L 251.064791 49.160895 
L 251.532254 54.789044 
L 251.999717 53.611647 
L 252.46718 56.710025 
L 252.934643 87.376918 
L 253.402106 100.373722 
L 253.869569 99.478735 
L 254.337032 89.979654 
L 254.804495 102.501786 
L 255.271958 103.046525 
L 255.739421 128.764278 
L 256.206883 125.019068 
L 256.674346 106.170003 
L 257.141809 135.463288 
L 257.609272 103.38307 
L 258.076735 104.832318 
L 258.544198 94.613321 
L 259.011661 95.240638 
L 259.479124 82.714357 
L 259.946587 76.554064 
L 260.41405 78.116997 
L 260.881513 61.584403 
L 261.348976 67.185652 
L 261.816438 97.204971 
L 262.283901 87.563135 
L 262.751364 93.72734 
L 263.218827 135.574322 
L 263.68629 102.992761 
L 264.621216 147.992346 
L 265.556142 158.90631 
L 266.023605 155.138183 
L 266.491068 157.813494 
L 266.958531 152.674226 
L 267.893456 107.939554 
L 268.360919 104.683978 
L 268.828382 95.035948 
L 269.295845 67.94532 
L 269.763308 85.483 
L 270.230771 74.83518 
L 270.698234 85.914601 
L 271.165697 100.522327 
L 271.63316 80.749254 
L 272.100623 99.256013 
L 272.568086 98.104914 
L 273.035549 116.267997 
L 273.503011 119.741832 
L 273.970474 140.535953 
L 274.437937 116.961486 
L 274.9054 140.027945 
L 275.372863 139.086046 
L 275.840326 118.848012 
L 276.307789 116.098716 
L 277.242715 75.507767 
L 277.710178 75.915369 
L 278.177641 67.885552 
L 279.112566 42.06324 
L 279.580029 68.299326 
L 280.047492 51.70726 
L 280.514955 63.870454 
L 280.982418 72.402638 
L 281.449881 85.350384 
L 281.917344 92.146833 
L 282.384807 93.448803 
L 282.85227 127.445557 
L 283.319733 135.824329 
L 283.787196 147.618613 
L 284.254659 144.782657 
L 284.722121 136.560689 
L 285.189584 138.108542 
L 285.657047 155.033144 
L 287.059436 96.141616 
L 287.994362 105.955181 
L 288.461825 99.250079 
L 288.929288 83.628115 
L 289.396751 93.507748 
L 289.864214 107.43024 
L 290.331676 97.257622 
L 290.799139 117.97617 
L 291.266602 111.778774 
L 291.734065 127.30688 
L 292.201528 136.005165 
L 292.668991 126.935756 
L 293.603917 140.189457 
L 294.07138 162.047739 
L 294.538843 131.869091 
L 295.006306 131.704682 
L 295.473769 109.475175 
L 295.941231 97.246968 
L 296.408694 96.388394 
L 296.876157 69.473298 
L 297.34362 84.369588 
L 297.811083 69.371392 
L 298.278546 67.582817 
L 298.746009 63.483138 
L 299.213472 58.053817 
L 299.680935 58.391241 
L 300.148398 72.713741 
L 300.615861 90.74796 
L 301.083324 100.876791 
L 301.550786 113.695176 
L 302.018249 117.157891 
L 302.485712 108.939135 
L 302.953175 117.247303 
L 303.420638 119.21203 
L 303.888101 126.896543 
L 304.823027 113.021412 
L 305.29049 98.113488 
L 305.757953 103.887148 
L 306.225416 74.975889 
L 306.692879 71.518755 
L 307.160341 72.558219 
L 307.627804 72.072363 
L 308.095267 68.639293 
L 308.56273 84.556776 
L 309.030193 83.301492 
L 309.497656 107.873758 
L 309.965119 119.697198 
L 310.432582 119.277014 
L 311.367508 142.855778 
L 311.834971 140.25894 
L 312.302434 147.550252 
L 312.769896 151.509593 
L 313.237359 160.494655 
L 313.704822 125.277155 
L 314.172285 122.661887 
L 314.639748 107.983664 
L 315.107211 99.894605 
L 315.574674 103.249985 
L 316.042137 76.574526 
L 316.5096 80.322192 
L 316.977063 74.23468 
L 317.444526 57.504888 
L 317.911989 93.966663 
L 318.379451 85.027139 
L 318.846914 83.243372 
L 319.314377 108.716137 
L 319.78184 100.58433 
L 320.249303 106.644341 
L 320.716766 132.598218 
L 321.184229 110.637155 
L 321.651692 127.116977 
L 322.119155 121.944342 
L 322.586618 122.609848 
L 323.054081 113.361985 
L 323.521544 99.119389 
L 323.989007 77.50378 
L 324.456469 49.154306 
L 324.923932 59.464121 
L 325.391395 55.075447 
L 325.858858 55.347316 
L 326.326321 54.489767 
L 326.793784 46.528204 
L 327.261247 35.429029 
L 327.72871 63.519061 
L 328.196173 65.098888 
L 328.663636 85.118084 
L 329.131099 88.098438 
L 329.598562 99.883405 
L 330.066024 122.945884 
L 330.533487 129.980025 
L 331.00095 143.440726 
L 331.468413 139.993674 
L 331.935876 124.18814 
L 332.403339 125.81111 
L 332.870802 108.231143 
L 333.338265 106.057624 
L 333.805728 96.840661 
L 334.273191 101.211368 
L 334.740654 82.087289 
L 335.208117 110.315731 
L 335.675579 83.541851 
L 336.143042 82.483763 
L 336.610505 104.763656 
L 337.077968 83.445147 
L 337.545431 114.947498 
L 338.012894 103.404173 
L 338.480357 141.787213 
L 338.94782 128.213266 
L 339.415283 126.913845 
L 339.882746 161.284665 
L 340.350209 137.128356 
L 340.817672 133.171998 
L 341.285134 120.851976 
L 341.752597 120.040194 
L 342.22006 108.523993 
L 342.687523 110.103092 
L 343.154986 95.68555 
L 343.622449 60.449093 
L 344.557375 69.462597 
L 345.024838 63.896006 
L 345.492301 55.070212 
L 345.959764 42.042183 
L 346.427227 54.695028 
L 346.894689 80.393824 
L 347.362152 87.70479 
L 347.829615 89.813648 
L 348.297078 88.839202 
L 348.764541 128.259936 
L 349.232004 86.690619 
L 349.699467 124.905279 
L 350.16693 116.879329 
L 350.634393 100.014589 
L 351.101856 92.974245 
L 351.569319 73.83372 
L 352.036782 80.487168 
L 352.504244 65.938713 
L 352.971707 60.704348 
L 353.43917 77.200314 
L 353.906633 69.973953 
L 354.374096 49.537039 
L 354.841559 63.443733 
L 355.309022 64.619569 
L 355.776485 91.654861 
L 356.243948 90.127922 
L 356.711411 96.441306 
L 357.178874 135.052432 
L 357.646337 138.534215 
L 358.113799 131.154277 
L 358.581262 149.096733 
L 359.048725 161.586415 
L 359.516188 137.068377 
L 359.983651 135.228781 
L 360.451114 122.389874 
L 360.918577 104.693391 
L 361.38604 97.193674 
L 361.853503 118.875933 
L 362.320966 91.300173 
L 362.788429 75.771148 
L 363.255892 78.615288 
L 363.723354 52.151404 
L 364.190817 44.779996 
L 364.65828 62.32491 
L 365.125743 86.867909 
L 365.593206 77.341447 
L 366.528132 115.717989 
L 366.995595 97.025657 
L 367.930521 126.270728 
L 368.397984 124.866685 
L 368.865447 116.282686 
L 369.33291 103.829737 
L 369.800372 106.112932 
L 370.735298 80.999468 
L 371.670224 55.154362 
L 372.137687 51.511366 
L 372.60515 36.701448 
L 373.072613 51.052139 
L 373.540076 26.841098 
L 374.007539 54.247627 
L 374.475002 74.698865 
L 374.942465 75.691015 
L 375.409927 75.860538 
L 375.87739 103.098128 
L 376.344853 107.754052 
L 376.812316 105.606926 
L 377.279779 125.817861 
L 377.747242 107.980841 
L 378.214705 131.050338 
L 378.682168 122.898318 
L 379.149631 128.939769 
L 379.617094 106.445798 
L 380.084557 104.84667 
L 380.55202 108.427867 
L 381.019482 80.559368 
L 381.486945 83.408351 
L 381.954408 78.146804 
L 382.421871 65.341891 
L 382.889334 84.164444 
L 383.356797 82.133374 
L 383.82426 88.334031 
L 384.291723 99.409244 
L 384.759186 101.403607 
L 385.226649 122.051518 
L 385.694112 132.396885 
L 386.161575 139.347184 
L 386.629037 138.517617 
L 387.0965 145.005578 
L 388.031426 118.579233 
L 388.498889 130.641438 
L 388.966352 95.589631 
L 389.433815 89.641506 
L 389.901278 85.736074 
L 390.368741 62.157054 
L 390.836204 57.733743 
L 391.303667 56.50357 
L 391.77113 41.361829 
L 392.238592 40.049289 
L 392.706055 45.814322 
L 393.173518 72.261399 
L 393.640981 63.574319 
L 394.108444 69.213432 
L 394.575907 81.939564 
L 395.04337 79.656565 
L 395.510833 97.090931 
L 395.978296 124.388968 
L 396.445759 113.751051 
L 396.913222 119.498123 
L 397.380685 84.791517 
L 397.848147 86.648236 
L 398.31561 98.572348 
L 399.250536 74.144845 
L 399.717999 66.382798 
L 400.185462 70.894436 
L 400.652925 63.906888 
L 401.120388 49.271902 
L 401.587851 54.311418 
L 402.055314 82.104541 
L 402.522777 80.42481 
L 402.99024 93.401425 
L 403.457702 98.560697 
L 403.925165 98.627244 
L 404.392628 115.922071 
L 404.860091 146.909542 
L 405.327554 122.628599 
L 405.795017 151.175358 
L 406.26248 145.750688 
L 406.729943 146.778057 
L 407.197406 134.565747 
L 407.664869 125.840985 
L 408.132332 111.970396 
L 408.599795 79.324528 
L 409.067257 87.390047 
L 409.53472 61.645337 
L 410.469646 80.396604 
L 410.937109 46.57028 
L 411.872035 75.362278 
L 412.339498 61.531497 
L 412.806961 94.825116 
L 413.274424 99.542903 
L 413.741887 117.925334 
L 414.20935 120.831041 
L 414.676812 117.549608 
L 415.144275 104.827453 
L 415.611738 104.331214 
L 416.079201 91.907175 
L 416.546664 111.04808 
L 417.014127 106.088382 
L 417.48159 60.910597 
L 417.949053 64.682892 
L 418.416516 55.653666 
L 418.883979 31.404165 
L 419.351442 57.270149 
L 419.818905 37.492788 
L 420.286368 31.308726 
L 420.75383 51.412107 
L 421.221293 61.487056 
L 421.688756 64.886445 
L 422.156219 73.761314 
L 422.623682 99.242493 
L 423.091145 105.450399 
L 423.558608 115.472181 
L 424.026071 140.188352 
L 424.493534 122.694916 
L 424.960997 122.830978 
L 425.42846 123.395924 
L 425.895923 114.645958 
L 426.363385 112.220441 
L 426.830848 105.134694 
L 427.298311 85.796317 
L 427.765774 94.828846 
L 428.233237 83.036243 
L 428.7007 84.79703 
L 429.168163 72.558504 
L 429.635626 89.336572 
L 430.103089 80.702408 
L 430.570552 95.533729 
L 431.038015 84.29951 
L 431.505478 113.580184 
L 431.97294 111.849869 
L 432.440403 111.761521 
L 432.907866 137.392541 
L 433.375329 126.054293 
L 433.842792 118.136803 
L 434.310255 136.023297 
L 434.777718 123.531048 
L 435.245181 127.773661 
L 436.180107 68.368562 
L 436.64757 58.035277 
L 437.115033 61.212083 
L 437.582495 54.034078 
L 438.049958 41.368264 
L 438.517421 37.317884 
L 438.984884 50.066462 
L 439.452347 35.695411 
L 439.91981 67.458515 
L 440.854736 57.324666 
L 441.322199 80.401317 
L 441.789662 109.097984 
L 442.257125 92.485603 
L 442.724588 115.145648 
L 443.19205 94.123242 
L 443.659513 110.579526 
L 444.594439 84.660759 
L 445.061902 98.043675 
L 445.529365 76.605933 
L 445.996828 77.842474 
L 446.464291 49.297365 
L 446.931754 48.584114 
L 447.399217 39.08973 
L 447.86668 61.01589 
L 448.334143 57.295455 
L 448.801605 48.797433 
L 449.269068 48.622908 
L 449.736531 90.037602 
L 450.203994 94.231346 
L 450.671457 105.262141 
L 451.606383 113.886758 
L 452.073846 136.55032 
L 452.541309 124.039874 
L 453.008772 127.318195 
L 453.476235 110.179621 
L 453.943698 110.653566 
L 454.41116 112.124313 
L 454.878623 80.955479 
L 455.346086 78.773654 
L 455.813549 98.928339 
L 456.281012 58.334979 
L 456.748475 84.235627 
L 457.215938 62.396262 
L 457.683401 66.771091 
L 458.150864 56.829815 
L 458.618327 64.935815 
L 459.08579 68.337234 
L 459.553253 82.499419 
L 460.020715 81.384154 
L 460.488178 107.099442 
L 460.955641 114.312402 
L 461.423104 101.966609 
L 461.890567 112.754525 
L 462.35803 102.043385 
L 462.825493 104.431725 
L 463.292956 100.299904 
L 463.760419 84.637802 
L 464.695345 27.033247 
L 465.162808 58.908521 
L 465.63027 34.57931 
L 466.097733 18.74 
L 466.565196 36.656517 
L 467.032659 42.266154 
L 467.500122 31.260112 
L 467.967585 42.914872 
L 468.435048 61.866269 
L 468.902511 73.507619 
L 469.369974 64.51199 
L 469.837437 87.514817 
L 470.3049 102.248349 
L 470.772363 132.123489 
L 471.239826 114.65086 
L 471.707288 130.736151 
L 472.174751 112.079128 
L 472.642214 110.341803 
L 473.109677 96.914569 
L 473.57714 93.129428 
L 474.044603 104.680891 
L 474.512066 68.420876 
L 474.979529 67.498117 
L 475.446992 73.659106 
L 475.914455 57.242158 
L 476.381918 59.699739 
L 476.849381 53.648004 
L 477.316843 80.334054 
L 477.784306 82.363907 
L 478.251769 104.863709 
L 478.719232 96.070477 
L 479.186695 112.402359 
L 479.654158 114.699067 
L 480.121621 116.385655 
L 480.589084 124.368287 
L 481.056547 109.102795 
L 481.52401 110.396771 
L 481.991473 95.87889 
L 482.458936 88.182195 
L 482.926398 73.739374 
L 483.393861 77.114265 
L 483.861324 46.932293 
L 484.328787 60.975734 
L 484.79625 48.030234 
L 485.263713 21.522632 
L 485.731176 26.682707 
L 486.198639 49.567934 
L 486.666102 66.080234 
L 487.133565 56.978114 
L 487.601028 63.963775 
L 488.068491 77.597031 
L 488.535953 76.955489 
L 489.003416 104.040612 
L 489.470879 92.646419 
L 489.938342 100.640682 
L 490.405805 106.411581 
L 490.873268 87.277672 
L 491.340731 76.695355 
L 491.808194 58.074333 
L 492.275657 66.17952 
L 492.74312 79.412176 
L 493.210583 67.470651 
L 494.612971 48.725537 
L 495.080434 52.360943 
L 495.547897 53.595207 
L 496.01536 74.378778 
L 496.482823 72.326672 
L 496.950286 108.893522 
L 497.417749 96.648811 
L 497.885212 101.245992 
L 498.820138 122.939394 
L 499.287601 130.691664 
L 499.755063 114.819896 
L 500.222526 117.742407 
L 500.689989 117.04925 
L 501.157452 108.300153 
L 501.624915 107.234736 
L 502.092378 91.05042 
L 502.559841 89.95948 
L 503.027304 53.553823 
L 503.494767 44.488444 
L 503.96223 55.313421 
L 504.429693 61.017241 
L 504.897156 47.532776 
L 505.364618 61.637526 
L 505.832081 89.212417 
L 506.299544 69.398046 
L 506.767007 101.388472 
L 507.23447 87.126186 
L 507.701933 89.129597 
L 508.169396 85.740603 
L 508.636859 88.199305 
L 509.104322 105.195183 
L 509.571785 93.393099 
L 510.039248 65.448264 
L 510.506711 55.654587 
L 510.974173 66.589025 
L 511.441636 54.508862 
L 511.909099 34.255851 
L 512.376562 18.921468 
L 513.311488 19.539091 
L 513.778951 35.183263 
L 514.246414 37.89497 
L 514.713877 47.240737 
L 515.18134 69.402555 
L 515.648803 73.544472 
L 516.116266 69.726864 
L 517.051191 103.285909 
L 517.518654 99.569606 
L 517.986117 89.698756 
L 518.45358 104.095266 
L 518.921043 96.733091 
L 519.388506 118.775568 
L 519.855969 101.288327 
L 520.323432 65.770994 
L 520.790895 69.659919 
L 521.258358 55.200498 
L 521.725821 50.619379 
L 522.193284 42.334588 
L 522.660746 66.032576 
L 523.128209 49.755336 
L 523.595672 50.064891 
L 524.063135 89.289983 
L 524.530598 57.808249 
L 524.998061 89.795472 
L 525.465524 87.418647 
L 525.932987 95.85383 
L 526.40045 114.024957 
L 526.867913 125.980077 
L 527.335376 104.189203 
L 527.802839 120.914075 
L 528.270301 89.825371 
L 528.737764 96.368323 
L 529.205227 90.44195 
L 529.205227 90.44195 
" clip-path="url(#p4e660a9413)" style="fill: none; stroke: #000000; stroke-width: 1.5; stroke-linecap: square"/>
   </g>
   <g id="line2d_13">
    <path d="M 62.209773 123.990247 
L 100.541732 121.132936 
L 138.873691 118.050552 
L 177.20565 114.743097 
L 215.53761 111.210571 
L 253.869569 107.452973 
L 292.201528 103.470303 
L 330.533487 99.262562 
L 368.865447 94.829749 
L 407.197406 90.171864 
L 445.529365 85.288908 
L 483.861324 80.18088 
L 522.193284 74.84778 
L 529.205227 73.847862 
L 529.205227 73.847862 
" clip-path="url(#p4e660a9413)" style="fill: none; stroke: #1f77b4; stroke-width: 1.5; stroke-linecap: square"/>
   </g>
   <g id="line2d_14">
    <path d="M 295.941231 108.852729 
L 296.408694 100.648225 
L 296.876157 89.311005 
L 297.34362 73.985411 
L 297.811083 73.703162 
L 298.278546 69.410162 
L 298.746009 73.056185 
L 299.213472 69.571835 
L 299.680935 73.427138 
L 300.148398 74.66926 
L 302.018249 120.194694 
L 302.485712 123.766869 
L 303.420638 121.205119 
L 303.888101 117.31464 
L 304.355564 119.572566 
L 305.29049 104.714377 
L 305.757953 91.007405 
L 306.225416 88.83967 
L 306.692879 75.311133 
L 307.160341 69.913302 
L 307.627804 65.992073 
L 308.095267 70.058499 
L 308.56273 70.472459 
L 309.030193 79.971765 
L 309.497656 86.439437 
L 309.965119 107.276832 
L 310.432582 122.605989 
L 310.900045 132.007607 
L 311.834971 144.934853 
L 312.302434 143.787046 
L 312.769896 143.183144 
L 313.237359 139.306639 
L 313.704822 142.052781 
L 315.107211 97.246729 
L 316.042137 88.197797 
L 316.5096 79.343733 
L 316.977063 76.431978 
L 317.444526 74.980726 
L 317.911989 72.990924 
L 318.379451 86.384313 
L 318.846914 96.429616 
L 319.314377 103.791894 
L 319.78184 113.765743 
L 320.249303 118.795435 
L 320.716766 118.931885 
L 321.184229 130.200205 
L 321.651692 124.231754 
L 322.119155 126.247964 
L 323.054081 116.607905 
L 323.989007 98.841369 
L 324.923932 60.381421 
L 325.391395 50.497586 
L 325.858858 46.427172 
L 326.326321 53.312963 
L 326.793784 53.617028 
L 327.261247 57.549671 
L 327.72871 56.533389 
L 329.131099 94.972 
L 329.598562 100.63879 
L 330.066024 107.941645 
L 331.468413 134.176916 
L 331.935876 136.432546 
L 332.403339 127.485347 
L 332.870802 116.322329 
L 333.338265 101.097801 
L 334.273191 79.099205 
L 334.740654 81.125815 
L 335.208117 72.781794 
L 335.675579 87.979767 
L 336.143042 84.459757 
L 336.610505 90.878052 
L 337.077968 99.90897 
L 337.545431 102.53195 
L 338.012894 115.018439 
L 338.480357 113.718864 
L 338.94782 132.792842 
L 339.415283 133.120042 
L 340.350209 142.715502 
L 340.817672 144.938331 
L 341.285134 138.158977 
L 341.752597 120.099069 
L 342.22006 115.314036 
L 342.687523 100.613874 
L 343.154986 99.197301 
L 343.622449 87.521183 
L 344.089912 71.237975 
L 344.557375 65.653272 
L 345.024838 64.191954 
L 345.492301 71.638028 
L 345.959764 68.016478 
L 346.427227 62.463264 
L 346.894689 67.256298 
L 347.829615 95.921102 
L 348.297078 102.863016 
L 348.764541 106.136418 
L 349.232004 123.286881 
L 349.699467 112.662688 
L 350.16693 119.440473 
L 350.634393 109.539048 
L 351.101856 109.047336 
L 352.036782 73.365239 
L 352.504244 63.604552 
L 352.971707 57.909729 
L 353.43917 55.074294 
L 353.906633 59.303654 
L 354.374096 68.785232 
L 354.841559 63.025182 
L 355.309022 66.365134 
L 355.776485 73.329124 
L 356.243948 89.618991 
L 356.711411 100.06722 
L 357.178874 104.507385 
L 358.113799 136.999621 
L 358.581262 137.441055 
L 359.048725 141.020271 
L 359.516188 148.33309 
L 359.983651 140.853883 
L 360.451114 130.289271 
L 360.918577 109.842461 
L 361.853503 84.643028 
L 362.320966 87.838153 
L 363.723354 75.055874 
L 364.65828 63.680023 
L 365.125743 66.262341 
L 365.593206 84.502857 
L 366.060669 93.584956 
L 366.995595 115.76486 
L 367.930521 124.624065 
L 368.397984 127.693554 
L 368.865447 131.541346 
L 369.33291 121.092354 
L 369.800372 104.521004 
L 370.735298 83.98595 
L 372.137687 55.780165 
L 373.072613 43.599909 
L 373.540076 48.54944 
L 374.007539 42.291679 
L 375.409927 90.200102 
L 375.87739 92.920981 
L 376.344853 107.086314 
L 376.812316 116.063273 
L 377.279779 118.992415 
L 377.747242 120.98358 
L 378.214705 111.187526 
L 378.682168 116.868971 
L 379.149631 110.260302 
L 379.617094 110.863498 
L 380.084557 98.103061 
L 381.019482 90.391044 
L 381.954408 75.590205 
L 382.421871 70.267653 
L 382.889334 70.058522 
L 383.356797 75.205103 
L 383.82426 81.635399 
L 385.694112 123.278444 
L 386.161575 136.01085 
L 386.629037 142.127169 
L 387.0965 142.42177 
L 387.563963 143.861612 
L 388.498889 120.2454 
L 388.966352 113.708423 
L 389.433815 95.906222 
L 390.836204 63.217312 
L 391.303667 56.377873 
L 391.77113 55.714825 
L 392.238592 53.095906 
L 392.706055 54.170864 
L 393.173518 58.191991 
L 393.640981 73.872446 
L 394.108444 83.415807 
L 394.575907 89.004109 
L 395.04337 92.604764 
L 395.510833 98.907359 
L 395.978296 102.658652 
L 396.445759 115.486939 
L 396.913222 117.637653 
L 397.380685 117.327837 
L 397.848147 96.663673 
L 398.31561 83.859834 
L 398.783073 78.891197 
L 399.250536 77.565103 
L 399.717999 66.670425 
L 400.185462 59.946178 
L 400.652925 58.47511 
L 401.120388 59.753306 
L 401.587851 57.280799 
L 402.055314 56.171258 
L 402.522777 75.771854 
L 402.99024 88.745716 
L 403.457702 97.586382 
L 404.392628 107.367381 
L 404.860091 117.329991 
L 405.327554 135.076785 
L 405.795017 130.673666 
L 406.26248 138.950354 
L 406.729943 135.290735 
L 407.197406 137.796217 
L 407.664869 125.521154 
L 408.132332 116.57126 
L 410.002183 57.543086 
L 410.937109 66.118694 
L 411.404572 65.089368 
L 411.872035 69.051327 
L 413.741887 111.244265 
L 414.20935 124.822338 
L 414.676812 130.316413 
L 415.144275 129.099497 
L 415.611738 114.294426 
L 416.079201 110.112398 
L 416.546664 93.157518 
L 417.014127 93.711377 
L 417.48159 90.72112 
L 417.949053 68.444229 
L 418.416516 57.041289 
L 419.351442 41.087925 
L 419.818905 48.54193 
L 420.286368 46.04922 
L 420.75383 47.003065 
L 421.221293 53.826415 
L 423.558608 114.09109 
L 424.026071 122.484776 
L 424.493534 127.486661 
L 424.960997 126.830831 
L 425.42846 122.171823 
L 425.895923 111.587709 
L 426.363385 105.189278 
L 426.830848 95.501336 
L 427.298311 88.385472 
L 427.765774 76.284459 
L 428.233237 76.058787 
L 428.7007 73.232857 
L 429.168163 76.722424 
L 429.635626 75.616765 
L 430.103089 86.051231 
L 430.570552 88.081097 
L 431.038015 101.280212 
L 431.505478 96.12158 
L 431.97294 112.161837 
L 432.907866 122.482141 
L 433.375329 129.013893 
L 433.842792 130.810938 
L 434.310255 125.160596 
L 434.777718 125.42714 
L 435.245181 120.338572 
L 435.712644 119.092546 
L 436.180107 100.821033 
L 437.115033 56.906331 
L 437.582495 54.14515 
L 438.049958 47.793959 
L 438.517421 46.179171 
L 438.984884 42.832643 
L 439.452347 51.774694 
L 439.91981 56.776257 
L 440.387273 72.02895 
L 441.322199 86.827828 
L 441.789662 90.621116 
L 442.257125 107.510143 
L 442.724588 105.376099 
L 443.19205 112.465217 
L 443.659513 101.095319 
L 444.126976 105.23144 
L 445.061902 83.341749 
L 445.529365 76.795216 
L 446.464291 66.019557 
L 446.931754 50.688248 
L 447.399217 45.610702 
L 447.86668 37.263566 
L 448.334143 53.887944 
L 449.269068 61.478233 
L 449.736531 61.211626 
L 450.671457 99.033761 
L 451.13892 112.860417 
L 451.606383 115.534341 
L 452.073846 121.502646 
L 452.541309 129.141166 
L 453.008772 125.60788 
L 453.476235 118.935485 
L 453.943698 105.926042 
L 454.41116 100.405468 
L 454.878623 93.275405 
L 455.813549 66.109032 
L 456.281012 73.319916 
L 456.748475 68.252202 
L 457.215938 73.888281 
L 457.683401 67.656293 
L 458.150864 75.152735 
L 458.618327 70.461846 
L 459.08579 77.67927 
L 459.553253 74.9077 
L 460.020715 89.382682 
L 460.488178 89.998716 
L 461.423104 115.018325 
L 461.890567 114.021471 
L 462.35803 114.83966 
L 463.760419 96.91745 
L 464.227882 83.249887 
L 465.162808 36.177795 
L 465.63027 36.306869 
L 466.097733 32.066863 
L 466.565196 29.601478 
L 467.032659 29.710405 
L 467.500122 45.523061 
L 468.435048 57.064527 
L 468.902511 68.720495 
L 469.369974 85.252823 
L 469.837437 88.960133 
L 470.3049 91.083572 
L 470.772363 97.61438 
L 471.239826 118.193586 
L 471.707288 115.173573 
L 472.174751 121.246469 
L 472.642214 107.85374 
L 473.109677 104.443197 
L 473.57714 88.126282 
L 474.044603 79.560823 
L 474.512066 77.252023 
L 474.979529 66.463865 
L 475.446992 58.604803 
L 475.914455 56.378575 
L 476.849381 61.794542 
L 477.316843 62.849078 
L 477.784306 78.189903 
L 478.251769 88.293297 
L 478.719232 107.705856 
L 479.186695 106.472951 
L 479.654158 120.121713 
L 480.121621 121.170474 
L 480.589084 124.380243 
L 481.056547 122.431189 
L 481.52401 111.808529 
L 481.991473 104.968818 
L 483.393861 66.753352 
L 483.861324 65.5945 
L 484.328787 52.452389 
L 484.79625 54.730691 
L 485.263713 50.334501 
L 485.731176 41.991176 
L 486.198639 37.118235 
L 486.666102 48.848552 
L 487.133565 67.482382 
L 487.601028 75.660853 
L 488.068491 78.444645 
L 489.003416 93.187293 
L 489.470879 103.22364 
L 489.938342 100.030518 
L 490.405805 102.906638 
L 490.873268 99.009276 
L 491.340731 90.80108 
L 492.275657 55.769798 
L 492.74312 52.110924 
L 493.210583 58.470446 
L 493.678046 60.755216 
L 494.145508 55.542673 
L 494.612971 54.894208 
L 495.080434 55.88268 
L 495.547897 58.244646 
L 496.01536 62.496178 
L 496.482823 72.189334 
L 496.950286 79.555786 
L 497.417749 99.425326 
L 497.885212 100.574839 
L 498.352675 107.919387 
L 498.820138 109.015603 
L 499.287601 120.668614 
L 499.755063 124.807887 
L 501.157452 102.162625 
L 501.624915 98.456326 
L 502.559841 84.408415 
L 503.027304 82.257999 
L 503.494767 64.270809 
L 503.96223 52.683321 
L 504.429693 46.664855 
L 504.897156 57.612571 
L 505.364618 58.126101 
L 505.832081 65.816544 
L 506.299544 83.937533 
L 506.767007 90.990686 
L 507.23447 107.690834 
L 507.701933 104.788357 
L 508.169396 108.729872 
L 508.636859 99.153556 
L 509.104322 93.612983 
L 509.571785 91.694762 
L 510.039248 88.817943 
L 510.974173 55.381541 
L 511.441636 54.879716 
L 511.909099 50.494019 
L 512.376562 42.798174 
L 512.844025 28.336165 
L 513.311488 22.484826 
L 513.778951 25.854159 
L 514.713877 41.659722 
L 515.18134 55.85614 
L 515.648803 73.860753 
L 516.116266 86.451795 
L 516.583729 87.416458 
L 517.051191 90.771153 
L 517.518654 100.37891 
L 517.986117 103.110035 
L 518.45358 92.696425 
L 518.921043 87.091842 
L 519.388506 83.161674 
L 519.855969 93.777117 
L 520.323432 88.129073 
L 521.258358 60.781739 
L 521.725821 52.25698 
L 522.193284 47.226685 
L 522.660746 39.078091 
L 523.128209 49.849485 
L 523.595672 52.615886 
L 524.063135 60.703983 
L 524.530598 75.458157 
L 524.998061 79.503967 
L 525.465524 97.531943 
L 525.932987 97.492923 
L 526.40045 107.613724 
L 526.867913 109.454245 
L 527.335376 119.21497 
L 527.802839 108.795481 
L 528.270301 111.43048 
L 528.737764 94.196193 
L 529.205227 88.194275 
L 529.205227 88.194275 
" clip-path="url(#p4e660a9413)" style="fill: none; stroke: #ff0000; stroke-width: 1.5; stroke-linecap: square"/>
   </g>
   <g id="patch_3">
    <path d="M 38.86 185.48 
L 38.86 10.8 
" style="fill: none; stroke: #000000; stroke-width: 0.8; stroke-linejoin: miter; stroke-linecap: square"/>
   </g>
   <g id="patch_4">
    <path d="M 552.555 185.48 
L 552.555 10.8 
" style="fill: none; stroke: #000000; stroke-width: 0.8; stroke-linejoin: miter; stroke-linecap: square"/>
   </g>
   <g id="patch_5">
    <path d="M 38.86 185.48 
L 552.555 185.48 
" style="fill: none; stroke: #000000; stroke-width: 0.8; stroke-linejoin: miter; stroke-linecap: square"/>
   </g>
   <g id="patch_6">
    <path d="M 38.86 10.8 
L 552.555 10.8 
" style="fill: none; stroke: #000000; stroke-width: 0.8; stroke-linejoin: miter; stroke-linecap: square"/>
   </g>
   <g id="legend_1">
    <g id="patch_7">
     <path d="M 45.86 62.85625 
L 236.66 62.85625 
Q 238.66 62.85625 238.66 60.85625 
L 238.66 17.8 
Q 238.66 15.8 236.66 15.8 
L 45.86 15.8 
Q 43.86 15.8 43.86 17.8 
L 43.86 60.85625 
Q 43.86 62.85625 45.86 62.85625 
z
" style="fill: #ffffff; opacity: 0.8; stroke: #cccccc; stroke-linejoin: miter"/>
    </g>
    <g id="line2d_15">
     <path d="M 47.86 23.898438 
L 57.86 23.898438 
L 67.86 23.898438 
" style="fill: none; stroke: #000000; stroke-width: 1.5; stroke-linecap: square"/>
    </g>
    <g id="text_12">
     <!-- time series -->
     <g transform="translate(75.86 27.398438) scale(0.1 -0.1)">
      <defs>
       <path id="DejaVuSans-74" d="M 1172 4494 
L 1172 3500 
L 2356 3500 
L 2356 3053 
L 1172 3053 
L 1172 1153 
Q 1172 725 1289 603 
Q 1406 481 1766 481 
L 2356 481 
L 2356 0 
L 1766 0 
Q 1100 0 847 248 
Q 594 497 594 1153 
L 594 3053 
L 172 3053 
L 172 3500 
L 594 3500 
L 594 4494 
L 1172 4494 
z
" transform="scale(0.015625)"/>
       <path id="DejaVuSans-69" d="M 603 3500 
L 1178 3500 
L 1178 0 
L 603 0 
L 603 3500 
z
M 603 4863 
L 1178 4863 
L 1178 4134 
L 603 4134 
L 603 4863 
z
" transform="scale(0.015625)"/>
       <path id="DejaVuSans-6d" d="M 3328 2828 
Q 3544 3216 3844 3400 
Q 4144 3584 4550 3584 
Q 5097 3584 5394 3201 
Q 5691 2819 5691 2113 
L 5691 0 
L 5113 0 
L 5113 2094 
Q 5113 2597 4934 2840 
Q 4756 3084 4391 3084 
Q 3944 3084 3684 2787 
Q 3425 2491 3425 1978 
L 3425 0 
L 2847 0 
L 2847 2094 
Q 2847 2600 2669 2842 
Q 2491 3084 2119 3084 
Q 1678 3084 1418 2786 
Q 1159 2488 1159 1978 
L 1159 0 
L 581 0 
L 581 3500 
L 1159 3500 
L 1159 2956 
Q 1356 3278 1631 3431 
Q 1906 3584 2284 3584 
Q 2666 3584 2933 3390 
Q 3200 3197 3328 2828 
z
" transform="scale(0.015625)"/>
       <path id="DejaVuSans-65" d="M 3597 1894 
L 3597 1613 
L 953 1613 
Q 991 1019 1311 708 
Q 1631 397 2203 397 
Q 2534 397 2845 478 
Q 3156 559 3463 722 
L 3463 178 
Q 3153 47 2828 -22 
Q 2503 -91 2169 -91 
Q 1331 -91 842 396 
Q 353 884 353 1716 
Q 353 2575 817 3079 
Q 1281 3584 2069 3584 
Q 2775 3584 3186 3129 
Q 3597 2675 3597 1894 
z
M 3022 2063 
Q 3016 2534 2758 2815 
Q 2500 3097 2075 3097 
Q 1594 3097 1305 2825 
Q 1016 2553 972 2059 
L 3022 2063 
z
" transform="scale(0.015625)"/>
       <path id="DejaVuSans-20" transform="scale(0.015625)"/>
       <path id="DejaVuSans-73" d="M 2834 3397 
L 2834 2853 
Q 2591 2978 2328 3040 
Q 2066 3103 1784 3103 
Q 1356 3103 1142 2972 
Q 928 2841 928 2578 
Q 928 2378 1081 2264 
Q 1234 2150 1697 2047 
L 1894 2003 
Q 2506 1872 2764 1633 
Q 3022 1394 3022 966 
Q 3022 478 2636 193 
Q 2250 -91 1575 -91 
Q 1294 -91 989 -36 
Q 684 19 347 128 
L 347 722 
Q 666 556 975 473 
Q 1284 391 1588 391 
Q 1994 391 2212 530 
Q 2431 669 2431 922 
Q 2431 1156 2273 1281 
Q 2116 1406 1581 1522 
L 1381 1569 
Q 847 1681 609 1914 
Q 372 2147 372 2553 
Q 372 3047 722 3315 
Q 1072 3584 1716 3584 
Q 2034 3584 2315 3537 
Q 2597 3491 2834 3397 
z
" transform="scale(0.015625)"/>
       <path id="DejaVuSans-72" d="M 2631 2963 
Q 2534 3019 2420 3045 
Q 2306 3072 2169 3072 
Q 1681 3072 1420 2755 
Q 1159 2438 1159 1844 
L 1159 0 
L 581 0 
L 581 3500 
L 1159 3500 
L 1159 2956 
Q 1341 3275 1631 3429 
Q 1922 3584 2338 3584 
Q 2397 3584 2469 3576 
Q 2541 3569 2628 3553 
L 2631 2963 
z
" transform="scale(0.015625)"/>
      </defs>
      <use xlink:href="#DejaVuSans-74"/>
      <use xlink:href="#DejaVuSans-69" transform="translate(39.208984 0)"/>
      <use xlink:href="#DejaVuSans-6d" transform="translate(66.992188 0)"/>
      <use xlink:href="#DejaVuSans-65" transform="translate(164.404297 0)"/>
      <use xlink:href="#DejaVuSans-20" transform="translate(225.927734 0)"/>
      <use xlink:href="#DejaVuSans-73" transform="translate(257.714844 0)"/>
      <use xlink:href="#DejaVuSans-65" transform="translate(309.814453 0)"/>
      <use xlink:href="#DejaVuSans-72" transform="translate(371.337891 0)"/>
      <use xlink:href="#DejaVuSans-69" transform="translate(412.451172 0)"/>
      <use xlink:href="#DejaVuSans-65" transform="translate(440.234375 0)"/>
      <use xlink:href="#DejaVuSans-73" transform="translate(501.757812 0)"/>
     </g>
    </g>
    <g id="line2d_16">
     <path d="M 47.86 38.576563 
L 57.86 38.576563 
L 67.86 38.576563 
" style="fill: none; stroke: #1f77b4; stroke-width: 1.5; stroke-linecap: square"/>
    </g>
    <g id="text_13">
     <!-- trend -->
     <g transform="translate(75.86 42.076563) scale(0.1 -0.1)">
      <defs>
       <path id="DejaVuSans-6e" d="M 3513 2113 
L 3513 0 
L 2938 0 
L 2938 2094 
Q 2938 2591 2744 2837 
Q 2550 3084 2163 3084 
Q 1697 3084 1428 2787 
Q 1159 2491 1159 1978 
L 1159 0 
L 581 0 
L 581 3500 
L 1159 3500 
L 1159 2956 
Q 1366 3272 1645 3428 
Q 1925 3584 2291 3584 
Q 2894 3584 3203 3211 
Q 3513 2838 3513 2113 
z
" transform="scale(0.015625)"/>
       <path id="DejaVuSans-64" d="M 2906 2969 
L 2906 4863 
L 3481 4863 
L 3481 0 
L 2906 0 
L 2906 525 
Q 2725 213 2448 61 
Q 2172 -91 1784 -91 
Q 1150 -91 751 415 
Q 353 922 353 1747 
Q 353 2572 751 3078 
Q 1150 3584 1784 3584 
Q 2172 3584 2448 3432 
Q 2725 3281 2906 2969 
z
M 947 1747 
Q 947 1113 1208 752 
Q 1469 391 1925 391 
Q 2381 391 2643 752 
Q 2906 1113 2906 1747 
Q 2906 2381 2643 2742 
Q 2381 3103 1925 3103 
Q 1469 3103 1208 2742 
Q 947 2381 947 1747 
z
" transform="scale(0.015625)"/>
      </defs>
      <use xlink:href="#DejaVuSans-74"/>
      <use xlink:href="#DejaVuSans-72" transform="translate(39.208984 0)"/>
      <use xlink:href="#DejaVuSans-65" transform="translate(78.072266 0)"/>
      <use xlink:href="#DejaVuSans-6e" transform="translate(139.595703 0)"/>
      <use xlink:href="#DejaVuSans-64" transform="translate(202.974609 0)"/>
     </g>
    </g>
    <g id="line2d_17">
     <path d="M 47.86 53.25625 
L 57.86 53.25625 
L 67.86 53.25625 
" style="fill: none; stroke: #ff0000; stroke-width: 1.5; stroke-linecap: square"/>
    </g>
    <g id="text_14">
     <!-- AR predictions $p=15, \;\; m=500$ -->
     <g transform="translate(75.86 56.75625) scale(0.1 -0.1)">
      <defs>
       <path id="DejaVuSans-41" d="M 2188 4044 
L 1331 1722 
L 3047 1722 
L 2188 4044 
z
M 1831 4666 
L 2547 4666 
L 4325 0 
L 3669 0 
L 3244 1197 
L 1141 1197 
L 716 0 
L 50 0 
L 1831 4666 
z
" transform="scale(0.015625)"/>
       <path id="DejaVuSans-52" d="M 2841 2188 
Q 3044 2119 3236 1894 
Q 3428 1669 3622 1275 
L 4263 0 
L 3584 0 
L 2988 1197 
Q 2756 1666 2539 1819 
Q 2322 1972 1947 1972 
L 1259 1972 
L 1259 0 
L 628 0 
L 628 4666 
L 2053 4666 
Q 2853 4666 3247 4331 
Q 3641 3997 3641 3322 
Q 3641 2881 3436 2590 
Q 3231 2300 2841 2188 
z
M 1259 4147 
L 1259 2491 
L 2053 2491 
Q 2509 2491 2742 2702 
Q 2975 2913 2975 3322 
Q 2975 3731 2742 3939 
Q 2509 4147 2053 4147 
L 1259 4147 
z
" transform="scale(0.015625)"/>
       <path id="DejaVuSans-70" d="M 1159 525 
L 1159 -1331 
L 581 -1331 
L 581 3500 
L 1159 3500 
L 1159 2969 
Q 1341 3281 1617 3432 
Q 1894 3584 2278 3584 
Q 2916 3584 3314 3078 
Q 3713 2572 3713 1747 
Q 3713 922 3314 415 
Q 2916 -91 2278 -91 
Q 1894 -91 1617 61 
Q 1341 213 1159 525 
z
M 3116 1747 
Q 3116 2381 2855 2742 
Q 2594 3103 2138 3103 
Q 1681 3103 1420 2742 
Q 1159 2381 1159 1747 
Q 1159 1113 1420 752 
Q 1681 391 2138 391 
Q 2594 391 2855 752 
Q 3116 1113 3116 1747 
z
" transform="scale(0.015625)"/>
       <path id="DejaVuSans-63" d="M 3122 3366 
L 3122 2828 
Q 2878 2963 2633 3030 
Q 2388 3097 2138 3097 
Q 1578 3097 1268 2742 
Q 959 2388 959 1747 
Q 959 1106 1268 751 
Q 1578 397 2138 397 
Q 2388 397 2633 464 
Q 2878 531 3122 666 
L 3122 134 
Q 2881 22 2623 -34 
Q 2366 -91 2075 -91 
Q 1284 -91 818 406 
Q 353 903 353 1747 
Q 353 2603 823 3093 
Q 1294 3584 2113 3584 
Q 2378 3584 2631 3529 
Q 2884 3475 3122 3366 
z
" transform="scale(0.015625)"/>
       <path id="DejaVuSans-6f" d="M 1959 3097 
Q 1497 3097 1228 2736 
Q 959 2375 959 1747 
Q 959 1119 1226 758 
Q 1494 397 1959 397 
Q 2419 397 2687 759 
Q 2956 1122 2956 1747 
Q 2956 2369 2687 2733 
Q 2419 3097 1959 3097 
z
M 1959 3584 
Q 2709 3584 3137 3096 
Q 3566 2609 3566 1747 
Q 3566 888 3137 398 
Q 2709 -91 1959 -91 
Q 1206 -91 779 398 
Q 353 888 353 1747 
Q 353 2609 779 3096 
Q 1206 3584 1959 3584 
z
" transform="scale(0.015625)"/>
       <path id="DejaVuSans-Oblique-70" d="M 3175 2156 
Q 3175 2616 2975 2859 
Q 2775 3103 2400 3103 
Q 2144 3103 1911 2972 
Q 1678 2841 1497 2591 
Q 1319 2344 1212 1994 
Q 1106 1644 1106 1300 
Q 1106 863 1306 627 
Q 1506 391 1875 391 
Q 2147 391 2380 519 
Q 2613 647 2778 891 
Q 2956 1147 3065 1494 
Q 3175 1841 3175 2156 
z
M 1394 2969 
Q 1625 3272 1939 3428 
Q 2253 3584 2638 3584 
Q 3175 3584 3472 3232 
Q 3769 2881 3769 2247 
Q 3769 1728 3584 1258 
Q 3400 788 3053 416 
Q 2822 169 2531 39 
Q 2241 -91 1919 -91 
Q 1547 -91 1294 64 
Q 1041 219 916 525 
L 556 -1331 
L -19 -1331 
L 922 3500 
L 1497 3500 
L 1394 2969 
z
" transform="scale(0.015625)"/>
       <path id="DejaVuSans-3d" d="M 678 2906 
L 4684 2906 
L 4684 2381 
L 678 2381 
L 678 2906 
z
M 678 1631 
L 4684 1631 
L 4684 1100 
L 678 1100 
L 678 1631 
z
" transform="scale(0.015625)"/>
       <path id="DejaVuSans-35" d="M 691 4666 
L 3169 4666 
L 3169 4134 
L 1269 4134 
L 1269 2991 
Q 1406 3038 1543 3061 
Q 1681 3084 1819 3084 
Q 2600 3084 3056 2656 
Q 3513 2228 3513 1497 
Q 3513 744 3044 326 
Q 2575 -91 1722 -91 
Q 1428 -91 1123 -41 
Q 819 9 494 109 
L 494 744 
Q 775 591 1075 516 
Q 1375 441 1709 441 
Q 2250 441 2565 725 
Q 2881 1009 2881 1497 
Q 2881 1984 2565 2268 
Q 2250 2553 1709 2553 
Q 1456 2553 1204 2497 
Q 953 2441 691 2322 
L 691 4666 
z
" transform="scale(0.015625)"/>
       <path id="DejaVuSans-2c" d="M 750 794 
L 1409 794 
L 1409 256 
L 897 -744 
L 494 -744 
L 750 256 
L 750 794 
z
" transform="scale(0.015625)"/>
       <path id="DejaVuSans-Oblique-6d" d="M 5747 2113 
L 5338 0 
L 4763 0 
L 5166 2094 
Q 5191 2228 5203 2325 
Q 5216 2422 5216 2491 
Q 5216 2772 5059 2928 
Q 4903 3084 4622 3084 
Q 4203 3084 3875 2770 
Q 3547 2456 3450 1953 
L 3066 0 
L 2491 0 
L 2900 2094 
Q 2925 2209 2937 2307 
Q 2950 2406 2950 2484 
Q 2950 2769 2794 2926 
Q 2638 3084 2363 3084 
Q 1938 3084 1609 2770 
Q 1281 2456 1184 1953 
L 800 0 
L 225 0 
L 909 3500 
L 1484 3500 
L 1375 2956 
Q 1609 3263 1923 3423 
Q 2238 3584 2597 3584 
Q 2978 3584 3223 3384 
Q 3469 3184 3519 2828 
Q 3781 3197 4126 3390 
Q 4472 3584 4856 3584 
Q 5306 3584 5551 3325 
Q 5797 3066 5797 2591 
Q 5797 2488 5784 2364 
Q 5772 2241 5747 2113 
z
" transform="scale(0.015625)"/>
      </defs>
      <use xlink:href="#DejaVuSans-41" transform="translate(0 0.015625)"/>
      <use xlink:href="#DejaVuSans-52" transform="translate(68.408203 0.015625)"/>
      <use xlink:href="#DejaVuSans-20" transform="translate(137.890625 0.015625)"/>
      <use xlink:href="#DejaVuSans-70" transform="translate(169.677734 0.015625)"/>
      <use xlink:href="#DejaVuSans-72" transform="translate(233.154297 0.015625)"/>
      <use xlink:href="#DejaVuSans-65" transform="translate(274.267578 0.015625)"/>
      <use xlink:href="#DejaVuSans-64" transform="translate(335.791016 0.015625)"/>
      <use xlink:href="#DejaVuSans-69" transform="translate(399.267578 0.015625)"/>
      <use xlink:href="#DejaVuSans-63" transform="translate(427.050781 0.015625)"/>
      <use xlink:href="#DejaVuSans-74" transform="translate(482.03125 0.015625)"/>
      <use xlink:href="#DejaVuSans-69" transform="translate(521.240234 0.015625)"/>
      <use xlink:href="#DejaVuSans-6f" transform="translate(549.023438 0.015625)"/>
      <use xlink:href="#DejaVuSans-6e" transform="translate(610.205078 0.015625)"/>
      <use xlink:href="#DejaVuSans-73" transform="translate(673.583984 0.015625)"/>
      <use xlink:href="#DejaVuSans-20" transform="translate(725.683594 0.015625)"/>
      <use xlink:href="#DejaVuSans-Oblique-70" transform="translate(757.470703 0.015625)"/>
      <use xlink:href="#DejaVuSans-3d" transform="translate(840.429688 0.015625)"/>
      <use xlink:href="#DejaVuSans-31" transform="translate(943.701172 0.015625)"/>
      <use xlink:href="#DejaVuSans-35" transform="translate(1007.324219 0.015625)"/>
      <use xlink:href="#DejaVuSans-2c" transform="translate(1070.947266 0.015625)"/>
      <use xlink:href="#DejaVuSans-Oblique-6d" transform="translate(1176.335068 0.015625)"/>
      <use xlink:href="#DejaVuSans-3d" transform="translate(1293.2296 0.015625)"/>
      <use xlink:href="#DejaVuSans-35" transform="translate(1396.501084 0.015625)"/>
      <use xlink:href="#DejaVuSans-30" transform="translate(1460.124131 0.015625)"/>
      <use xlink:href="#DejaVuSans-30" transform="translate(1523.747178 0.015625)"/>
     </g>
    </g>
   </g>
  </g>
  <g id="axes_2">
   <g id="patch_8">
    <path d="M 38.86 404.12 
L 552.555 404.12 
L 552.555 229.44 
L 38.86 229.44 
z
" style="fill: #ffffff"/>
   </g>
   <g id="matplotlib.axis_3">
    <g id="xtick_7">
     <g id="line2d_18">
      <g>
       <use xlink:href="#me7991eccf6" x="38.86" y="404.12" style="stroke: #000000; stroke-width: 0.8"/>
      </g>
     </g>
     <g id="text_15">
      <!-- 800 -->
      <g transform="translate(29.31625 418.718437) scale(0.1 -0.1)">
       <use xlink:href="#DejaVuSans-38"/>
       <use xlink:href="#DejaVuSans-30" transform="translate(63.623047 0)"/>
       <use xlink:href="#DejaVuSans-30" transform="translate(127.246094 0)"/>
      </g>
     </g>
    </g>
    <g id="xtick_8">
     <g id="line2d_19">
      <g>
       <use xlink:href="#me7991eccf6" x="103.071875" y="404.12" style="stroke: #000000; stroke-width: 0.8"/>
      </g>
     </g>
     <g id="text_16">
      <!-- 825 -->
      <g transform="translate(93.528125 418.718437) scale(0.1 -0.1)">
       <use xlink:href="#DejaVuSans-38"/>
       <use xlink:href="#DejaVuSans-32" transform="translate(63.623047 0)"/>
       <use xlink:href="#DejaVuSans-35" transform="translate(127.246094 0)"/>
      </g>
     </g>
    </g>
    <g id="xtick_9">
     <g id="line2d_20">
      <g>
       <use xlink:href="#me7991eccf6" x="167.28375" y="404.12" style="stroke: #000000; stroke-width: 0.8"/>
      </g>
     </g>
     <g id="text_17">
      <!-- 850 -->
      <g transform="translate(157.74 418.718437) scale(0.1 -0.1)">
       <use xlink:href="#DejaVuSans-38"/>
       <use xlink:href="#DejaVuSans-35" transform="translate(63.623047 0)"/>
       <use xlink:href="#DejaVuSans-30" transform="translate(127.246094 0)"/>
      </g>
     </g>
    </g>
    <g id="xtick_10">
     <g id="line2d_21">
      <g>
       <use xlink:href="#me7991eccf6" x="231.495625" y="404.12" style="stroke: #000000; stroke-width: 0.8"/>
      </g>
     </g>
     <g id="text_18">
      <!-- 875 -->
      <g transform="translate(221.951875 418.718437) scale(0.1 -0.1)">
       <defs>
        <path id="DejaVuSans-37" d="M 525 4666 
L 3525 4666 
L 3525 4397 
L 1831 0 
L 1172 0 
L 2766 4134 
L 525 4134 
L 525 4666 
z
" transform="scale(0.015625)"/>
       </defs>
       <use xlink:href="#DejaVuSans-38"/>
       <use xlink:href="#DejaVuSans-37" transform="translate(63.623047 0)"/>
       <use xlink:href="#DejaVuSans-35" transform="translate(127.246094 0)"/>
      </g>
     </g>
    </g>
    <g id="xtick_11">
     <g id="line2d_22">
      <g>
       <use xlink:href="#me7991eccf6" x="295.7075" y="404.12" style="stroke: #000000; stroke-width: 0.8"/>
      </g>
     </g>
     <g id="text_19">
      <!-- 900 -->
      <g transform="translate(286.16375 418.718437) scale(0.1 -0.1)">
       <defs>
        <path id="DejaVuSans-39" d="M 703 97 
L 703 672 
Q 941 559 1184 500 
Q 1428 441 1663 441 
Q 2288 441 2617 861 
Q 2947 1281 2994 2138 
Q 2813 1869 2534 1725 
Q 2256 1581 1919 1581 
Q 1219 1581 811 2004 
Q 403 2428 403 3163 
Q 403 3881 828 4315 
Q 1253 4750 1959 4750 
Q 2769 4750 3195 4129 
Q 3622 3509 3622 2328 
Q 3622 1225 3098 567 
Q 2575 -91 1691 -91 
Q 1453 -91 1209 -44 
Q 966 3 703 97 
z
M 1959 2075 
Q 2384 2075 2632 2365 
Q 2881 2656 2881 3163 
Q 2881 3666 2632 3958 
Q 2384 4250 1959 4250 
Q 1534 4250 1286 3958 
Q 1038 3666 1038 3163 
Q 1038 2656 1286 2365 
Q 1534 2075 1959 2075 
z
" transform="scale(0.015625)"/>
       </defs>
       <use xlink:href="#DejaVuSans-39"/>
       <use xlink:href="#DejaVuSans-30" transform="translate(63.623047 0)"/>
       <use xlink:href="#DejaVuSans-30" transform="translate(127.246094 0)"/>
      </g>
     </g>
    </g>
    <g id="xtick_12">
     <g id="line2d_23">
      <g>
       <use xlink:href="#me7991eccf6" x="359.919375" y="404.12" style="stroke: #000000; stroke-width: 0.8"/>
      </g>
     </g>
     <g id="text_20">
      <!-- 925 -->
      <g transform="translate(350.375625 418.718437) scale(0.1 -0.1)">
       <use xlink:href="#DejaVuSans-39"/>
       <use xlink:href="#DejaVuSans-32" transform="translate(63.623047 0)"/>
       <use xlink:href="#DejaVuSans-35" transform="translate(127.246094 0)"/>
      </g>
     </g>
    </g>
    <g id="xtick_13">
     <g id="line2d_24">
      <g>
       <use xlink:href="#me7991eccf6" x="424.13125" y="404.12" style="stroke: #000000; stroke-width: 0.8"/>
      </g>
     </g>
     <g id="text_21">
      <!-- 950 -->
      <g transform="translate(414.5875 418.718437) scale(0.1 -0.1)">
       <use xlink:href="#DejaVuSans-39"/>
       <use xlink:href="#DejaVuSans-35" transform="translate(63.623047 0)"/>
       <use xlink:href="#DejaVuSans-30" transform="translate(127.246094 0)"/>
      </g>
     </g>
    </g>
    <g id="xtick_14">
     <g id="line2d_25">
      <g>
       <use xlink:href="#me7991eccf6" x="488.343125" y="404.12" style="stroke: #000000; stroke-width: 0.8"/>
      </g>
     </g>
     <g id="text_22">
      <!-- 975 -->
      <g transform="translate(478.799375 418.718437) scale(0.1 -0.1)">
       <use xlink:href="#DejaVuSans-39"/>
       <use xlink:href="#DejaVuSans-37" transform="translate(63.623047 0)"/>
       <use xlink:href="#DejaVuSans-35" transform="translate(127.246094 0)"/>
      </g>
     </g>
    </g>
    <g id="xtick_15">
     <g id="line2d_26">
      <g>
       <use xlink:href="#me7991eccf6" x="552.555" y="404.12" style="stroke: #000000; stroke-width: 0.8"/>
      </g>
     </g>
     <g id="text_23">
      <!-- 1000 -->
      <g transform="translate(539.83 418.718437) scale(0.1 -0.1)">
       <use xlink:href="#DejaVuSans-31"/>
       <use xlink:href="#DejaVuSans-30" transform="translate(63.623047 0)"/>
       <use xlink:href="#DejaVuSans-30" transform="translate(127.246094 0)"/>
       <use xlink:href="#DejaVuSans-30" transform="translate(190.869141 0)"/>
      </g>
     </g>
    </g>
   </g>
   <g id="matplotlib.axis_4">
    <g id="ytick_6">
     <g id="line2d_27">
      <g>
       <use xlink:href="#m44fa7ee3e6" x="38.86" y="382.797699" style="stroke: #000000; stroke-width: 0.8"/>
      </g>
     </g>
     <g id="text_24">
      <!-- −10 -->
      <g transform="translate(10.755313 386.596917) scale(0.1 -0.1)">
       <use xlink:href="#DejaVuSans-2212"/>
       <use xlink:href="#DejaVuSans-31" transform="translate(83.789062 0)"/>
       <use xlink:href="#DejaVuSans-30" transform="translate(147.412109 0)"/>
      </g>
     </g>
    </g>
    <g id="ytick_7">
     <g id="line2d_28">
      <g>
       <use xlink:href="#m44fa7ee3e6" x="38.86" y="349.324822" style="stroke: #000000; stroke-width: 0.8"/>
      </g>
     </g>
     <g id="text_25">
      <!-- 0 -->
      <g transform="translate(25.4975 353.124041) scale(0.1 -0.1)">
       <use xlink:href="#DejaVuSans-30"/>
      </g>
     </g>
    </g>
    <g id="ytick_8">
     <g id="line2d_29">
      <g>
       <use xlink:href="#m44fa7ee3e6" x="38.86" y="315.851946" style="stroke: #000000; stroke-width: 0.8"/>
      </g>
     </g>
     <g id="text_26">
      <!-- 10 -->
      <g transform="translate(19.135 319.651165) scale(0.1 -0.1)">
       <use xlink:href="#DejaVuSans-31"/>
       <use xlink:href="#DejaVuSans-30" transform="translate(63.623047 0)"/>
      </g>
     </g>
    </g>
    <g id="ytick_9">
     <g id="line2d_30">
      <g>
       <use xlink:href="#m44fa7ee3e6" x="38.86" y="282.37907" style="stroke: #000000; stroke-width: 0.8"/>
      </g>
     </g>
     <g id="text_27">
      <!-- 20 -->
      <g transform="translate(19.135 286.178289) scale(0.1 -0.1)">
       <use xlink:href="#DejaVuSans-32"/>
       <use xlink:href="#DejaVuSans-30" transform="translate(63.623047 0)"/>
      </g>
     </g>
    </g>
    <g id="ytick_10">
     <g id="line2d_31">
      <g>
       <use xlink:href="#m44fa7ee3e6" x="38.86" y="248.906194" style="stroke: #000000; stroke-width: 0.8"/>
      </g>
     </g>
     <g id="text_28">
      <!-- 30 -->
      <g transform="translate(19.135 252.705413) scale(0.1 -0.1)">
       <use xlink:href="#DejaVuSans-33"/>
       <use xlink:href="#DejaVuSans-30" transform="translate(63.623047 0)"/>
      </g>
     </g>
    </g>
   </g>
   <g id="line2d_32">
    <path d="M -1 297.54952 
L 0.332875 291.198504 
L 2.90135 307.976572 
L 5.469825 299.342408 
L 8.0383 314.173729 
L 10.606775 302.93951 
L 13.17525 332.220184 
L 15.743725 330.489869 
L 18.3122 330.401521 
L 20.880675 356.032541 
L 23.44915 344.694293 
L 26.017625 336.776803 
L 28.5861 354.663297 
L 31.154575 342.171048 
L 33.72305 346.413661 
L 36.291525 314.038948 
L 38.86 287.008562 
L 41.428475 276.675277 
L 43.99695 279.852083 
L 46.565425 272.674078 
L 49.1339 260.008264 
L 51.702375 255.957884 
L 54.27085 268.706462 
L 56.839325 254.335411 
L 59.4078 286.098515 
L 61.976275 280.883273 
L 64.54475 275.964666 
L 67.113225 299.041317 
L 69.6817 327.737984 
L 72.250175 311.125603 
L 74.81865 333.785648 
L 77.387125 312.763242 
L 79.9556 329.219526 
L 85.09255 303.300759 
L 87.661025 316.683675 
L 90.2295 295.245933 
L 92.797975 296.482474 
L 95.36645 267.937365 
L 97.934925 267.224114 
L 100.5034 257.72973 
L 103.071875 279.65589 
L 105.64035 275.935455 
L 108.208825 267.437433 
L 110.7773 267.262908 
L 113.345775 308.677602 
L 115.91425 312.871346 
L 118.482725 323.902141 
L 121.0512 328.063278 
L 123.619675 332.526758 
L 126.18815 355.19032 
L 128.756625 342.679874 
L 131.3251 345.958195 
L 133.893575 328.819621 
L 136.46205 329.293566 
L 139.030525 330.764313 
L 141.599 299.595479 
L 144.167475 297.413654 
L 146.73595 317.568339 
L 149.304425 276.974979 
L 151.8729 302.875627 
L 154.441375 281.036262 
L 157.00985 285.411091 
L 159.578325 275.469815 
L 162.1468 283.575815 
L 164.715275 286.977234 
L 167.28375 301.139419 
L 169.852225 300.024154 
L 172.4207 325.739442 
L 174.989175 332.952402 
L 177.55765 320.606609 
L 180.126125 331.394525 
L 182.6946 320.683385 
L 185.263075 323.071725 
L 187.83155 318.939904 
L 190.400025 303.277802 
L 192.9685 275.309309 
L 195.536975 245.673247 
L 198.10545 277.548521 
L 200.673925 253.21931 
L 203.2424 237.38 
L 205.810875 255.296517 
L 208.37935 260.906154 
L 210.947825 249.900112 
L 213.5163 261.554872 
L 216.084775 280.506269 
L 218.65325 292.147619 
L 221.221725 283.15199 
L 223.7902 306.154817 
L 226.358675 320.888349 
L 228.92715 350.763489 
L 231.495625 333.29086 
L 234.0641 349.376151 
L 236.632575 330.719128 
L 239.20105 328.981803 
L 241.769525 315.554569 
L 244.338 311.769428 
L 246.906475 323.320891 
L 249.47495 287.060876 
L 252.043425 286.138117 
L 254.6119 292.299106 
L 257.180375 275.882158 
L 259.74885 278.339739 
L 262.317325 272.288004 
L 264.8858 298.974054 
L 267.454275 301.003907 
L 270.02275 323.503709 
L 272.591225 314.710477 
L 275.1597 331.042359 
L 277.728175 333.339067 
L 280.29665 335.025655 
L 282.865125 343.008287 
L 285.4336 327.742795 
L 288.002075 329.036771 
L 290.57055 314.51889 
L 293.139025 306.822195 
L 295.7075 292.379374 
L 298.275975 295.754265 
L 300.84445 265.572293 
L 303.412925 279.615734 
L 305.9814 266.670234 
L 308.549875 240.162632 
L 311.11835 245.322707 
L 313.686825 268.207934 
L 316.2553 284.720234 
L 318.823775 275.618114 
L 321.39225 282.603775 
L 323.960725 296.237031 
L 326.5292 295.595489 
L 329.097675 322.680612 
L 331.66615 311.286419 
L 334.234625 319.280682 
L 336.8031 325.051581 
L 339.371575 305.917672 
L 341.94005 295.335355 
L 344.508525 276.714333 
L 347.077 284.81952 
L 349.645475 298.052176 
L 352.21395 286.110651 
L 357.3509 272.961972 
L 359.919375 267.365537 
L 362.48785 271.000943 
L 365.056325 272.235207 
L 367.6248 293.018778 
L 370.193275 290.966672 
L 372.76175 327.533522 
L 375.330225 315.288811 
L 377.8987 319.885992 
L 383.03565 341.579394 
L 385.604125 349.331664 
L 388.1726 333.459896 
L 390.741075 336.382407 
L 393.30955 335.68925 
L 395.878025 326.940153 
L 398.4465 325.874736 
L 401.014975 309.69042 
L 403.58345 308.59948 
L 406.151925 272.193823 
L 408.7204 263.128444 
L 411.288875 273.953421 
L 413.85735 279.657241 
L 416.425825 266.172776 
L 418.9943 280.277526 
L 421.562775 307.852417 
L 424.13125 288.038046 
L 426.699725 320.028472 
L 429.2682 305.766186 
L 431.836675 307.769597 
L 434.40515 304.380603 
L 436.973625 306.839305 
L 439.5421 323.835183 
L 442.110575 312.033099 
L 444.67905 284.088264 
L 447.247525 274.294587 
L 449.816 285.229025 
L 452.384475 273.148862 
L 454.95295 252.895851 
L 457.521425 237.561468 
L 462.658375 238.179091 
L 465.22685 253.823263 
L 467.795325 256.53497 
L 470.3638 265.880737 
L 472.932275 288.042555 
L 475.50075 292.184472 
L 478.069225 288.366864 
L 480.6377 304.046725 
L 483.206175 321.925909 
L 485.77465 318.209606 
L 488.343125 308.338756 
L 490.9116 322.735266 
L 493.480075 315.373091 
L 496.04855 337.415568 
L 498.617025 319.928327 
L 501.1855 284.410994 
L 503.753975 288.299919 
L 506.32245 273.840498 
L 508.890925 269.259379 
L 511.4594 260.974588 
L 514.027875 284.672576 
L 516.59635 268.395336 
L 519.164825 268.704891 
L 521.7333 307.929983 
L 524.301775 276.448249 
L 526.87025 308.435472 
L 529.438725 306.058647 
L 532.0072 314.49383 
L 534.575675 332.664957 
L 537.14415 344.620077 
L 539.712625 322.829203 
L 542.2811 339.554075 
L 544.849575 308.465371 
L 547.41805 315.008323 
L 549.986525 309.08195 
L 549.986525 309.08195 
" clip-path="url(#p645f7be222)" style="fill: none; stroke: #000000; stroke-width: 1.5; stroke-linecap: square"/>
   </g>
   <g id="line2d_33">
    <path d="M -1 293.551561 
L 0.332875 295.362424 
L 2.90135 294.256765 
L 5.469825 304.691231 
L 8.0383 306.721097 
L 10.606775 319.920212 
L 13.17525 314.76158 
L 15.743725 330.801837 
L 20.880675 341.122141 
L 23.44915 347.653893 
L 26.017625 349.450938 
L 28.5861 343.800596 
L 31.154575 344.06714 
L 33.72305 338.978572 
L 36.291525 337.732546 
L 38.86 319.461033 
L 41.428475 296.537812 
L 43.99695 275.546331 
L 46.565425 272.78515 
L 49.1339 266.433959 
L 51.702375 264.819171 
L 54.27085 261.472643 
L 56.839325 270.414694 
L 59.4078 275.416257 
L 61.976275 290.66895 
L 64.54475 297.838605 
L 67.113225 305.467828 
L 69.6817 309.261116 
L 72.250175 326.150143 
L 74.81865 324.016099 
L 77.387125 331.105217 
L 79.9556 319.735319 
L 82.524075 323.87144 
L 85.09255 313.372478 
L 87.661025 301.981749 
L 90.2295 295.435216 
L 92.797975 290.580573 
L 95.36645 284.659557 
L 97.934925 269.328248 
L 100.5034 264.250702 
L 103.071875 255.903566 
L 105.64035 272.527944 
L 108.208825 276.520827 
L 110.7773 280.118233 
L 113.345775 279.851626 
L 115.91425 299.990666 
L 118.482725 317.673761 
L 121.0512 331.500417 
L 123.619675 334.174341 
L 126.18815 340.142646 
L 128.756625 347.781166 
L 131.3251 344.24788 
L 133.893575 337.575485 
L 136.46205 324.566042 
L 139.030525 319.045468 
L 141.599 311.915405 
L 144.167475 296.90185 
L 146.73595 284.749032 
L 149.304425 291.959916 
L 151.8729 286.892202 
L 154.441375 292.528281 
L 157.00985 286.296293 
L 159.578325 293.792735 
L 162.1468 289.101846 
L 164.715275 296.31927 
L 167.28375 293.5477 
L 169.852225 308.022682 
L 172.4207 308.638716 
L 174.989175 322.534767 
L 177.55765 333.658325 
L 180.126125 332.661471 
L 182.6946 333.47966 
L 187.83155 322.268277 
L 190.400025 315.55745 
L 192.9685 301.889887 
L 195.536975 279.634642 
L 198.10545 254.817795 
L 200.673925 254.946869 
L 203.2424 250.706863 
L 205.810875 248.241478 
L 208.37935 248.350405 
L 210.947825 264.163061 
L 213.5163 269.460132 
L 216.084775 275.704527 
L 218.65325 287.360495 
L 221.221725 303.892823 
L 223.7902 307.600133 
L 226.358675 309.723572 
L 228.92715 316.25438 
L 231.495625 336.833586 
L 234.0641 333.813573 
L 236.632575 339.886469 
L 239.20105 326.49374 
L 241.769525 323.083197 
L 244.338 306.766282 
L 246.906475 298.200823 
L 249.47495 295.892023 
L 252.043425 285.103865 
L 254.6119 277.244803 
L 257.180375 275.018575 
L 259.74885 277.495188 
L 262.317325 280.434542 
L 264.8858 281.489078 
L 267.454275 296.829903 
L 270.02275 306.933297 
L 272.591225 326.345856 
L 275.1597 325.112951 
L 277.728175 338.761713 
L 280.29665 339.810474 
L 282.865125 343.020243 
L 285.4336 341.071189 
L 288.002075 330.448529 
L 290.57055 323.608818 
L 293.139025 309.988369 
L 295.7075 299.323262 
L 298.275975 285.393352 
L 300.84445 284.2345 
L 303.412925 271.092389 
L 305.9814 273.370691 
L 308.549875 268.974501 
L 311.11835 260.631176 
L 313.686825 255.758235 
L 316.2553 267.488552 
L 318.823775 286.122382 
L 321.39225 294.300853 
L 323.960725 297.084645 
L 326.5292 304.16766 
L 329.097675 311.827293 
L 331.66615 321.86364 
L 334.234625 318.670518 
L 336.8031 321.546638 
L 339.371575 317.649276 
L 341.94005 309.44108 
L 347.077 274.409798 
L 349.645475 270.750924 
L 352.21395 277.110446 
L 354.782425 279.395216 
L 357.3509 274.182673 
L 359.919375 273.534208 
L 362.48785 274.52268 
L 365.056325 276.884646 
L 367.6248 281.136178 
L 370.193275 290.829334 
L 372.76175 298.195786 
L 375.330225 318.065326 
L 377.8987 319.214839 
L 380.467175 326.559387 
L 383.03565 327.655603 
L 385.604125 339.308614 
L 388.1726 343.447887 
L 390.741075 335.307078 
L 393.30955 326.793 
L 395.878025 320.802625 
L 398.4465 317.096326 
L 401.014975 310.643134 
L 403.58345 303.048415 
L 406.151925 300.897999 
L 408.7204 282.910809 
L 411.288875 271.323321 
L 413.85735 265.304855 
L 416.425825 276.252571 
L 418.9943 276.766101 
L 421.562775 284.456544 
L 424.13125 302.577533 
L 426.699725 309.630686 
L 429.2682 326.330834 
L 431.836675 323.428357 
L 434.40515 327.369872 
L 436.973625 317.793556 
L 439.5421 312.252983 
L 442.110575 310.334762 
L 444.67905 307.457943 
L 449.816 274.021541 
L 452.384475 273.519716 
L 454.95295 269.134019 
L 457.521425 261.438174 
L 460.0899 246.976165 
L 462.658375 241.124826 
L 465.22685 244.494159 
L 467.795325 252.158721 
L 470.3638 260.299722 
L 472.932275 274.49614 
L 475.50075 292.500753 
L 478.069225 305.091795 
L 480.6377 306.056458 
L 483.206175 309.411153 
L 485.77465 319.01891 
L 488.343125 321.750035 
L 490.9116 311.336425 
L 493.480075 305.731842 
L 496.04855 301.801674 
L 498.617025 312.417117 
L 501.1855 306.769073 
L 503.753975 291.327975 
L 506.32245 279.421739 
L 508.890925 270.89698 
L 511.4594 265.866685 
L 514.027875 257.718091 
L 516.59635 268.489485 
L 519.164825 271.255886 
L 521.7333 279.343983 
L 524.301775 294.098157 
L 526.87025 298.143967 
L 529.438725 316.171943 
L 532.0072 316.132923 
L 534.575675 326.253724 
L 537.14415 328.094245 
L 539.712625 337.85497 
L 542.2811 327.435481 
L 544.849575 330.07048 
L 547.41805 312.836193 
L 549.986525 306.834275 
L 549.986525 306.834275 
" clip-path="url(#p645f7be222)" style="fill: none; stroke: #ff0000; stroke-width: 1.5; stroke-linecap: square"/>
   </g>
   <g id="patch_9">
    <path d="M 38.86 404.12 
L 38.86 229.44 
" style="fill: none; stroke: #000000; stroke-width: 0.8; stroke-linejoin: miter; stroke-linecap: square"/>
   </g>
   <g id="patch_10">
    <path d="M 552.555 404.12 
L 552.555 229.44 
" style="fill: none; stroke: #000000; stroke-width: 0.8; stroke-linejoin: miter; stroke-linecap: square"/>
   </g>
   <g id="patch_11">
    <path d="M 38.86 404.12 
L 552.555 404.12 
" style="fill: none; stroke: #000000; stroke-width: 0.8; stroke-linejoin: miter; stroke-linecap: square"/>
   </g>
   <g id="patch_12">
    <path d="M 38.86 229.44 
L 552.555 229.44 
" style="fill: none; stroke: #000000; stroke-width: 0.8; stroke-linejoin: miter; stroke-linecap: square"/>
   </g>
   <g id="text_29">
    <!-- Zoom in -->
    <g transform="translate(271.034375 223.44) scale(0.12 -0.12)">
     <defs>
      <path id="DejaVuSans-5a" d="M 359 4666 
L 4025 4666 
L 4025 4184 
L 1075 531 
L 4097 531 
L 4097 0 
L 288 0 
L 288 481 
L 3238 4134 
L 359 4134 
L 359 4666 
z
" transform="scale(0.015625)"/>
     </defs>
     <use xlink:href="#DejaVuSans-5a"/>
     <use xlink:href="#DejaVuSans-6f" transform="translate(68.505859 0)"/>
     <use xlink:href="#DejaVuSans-6f" transform="translate(129.6875 0)"/>
     <use xlink:href="#DejaVuSans-6d" transform="translate(190.869141 0)"/>
     <use xlink:href="#DejaVuSans-20" transform="translate(288.28125 0)"/>
     <use xlink:href="#DejaVuSans-69" transform="translate(320.068359 0)"/>
     <use xlink:href="#DejaVuSans-6e" transform="translate(347.851562 0)"/>
    </g>
   </g>
   <g id="legend_2">
    <g id="patch_13">
     <path d="M 45.86 399.12 
L 236.66 399.12 
Q 238.66 399.12 238.66 397.12 
L 238.66 368.741875 
Q 238.66 366.741875 236.66 366.741875 
L 45.86 366.741875 
Q 43.86 366.741875 43.86 368.741875 
L 43.86 397.12 
Q 43.86 399.12 45.86 399.12 
z
" style="fill: #ffffff; opacity: 0.8; stroke: #cccccc; stroke-linejoin: miter"/>
    </g>
    <g id="line2d_34">
     <path d="M 47.86 374.840312 
L 57.86 374.840312 
L 67.86 374.840312 
" style="fill: none; stroke: #000000; stroke-width: 1.5; stroke-linecap: square"/>
    </g>
    <g id="text_30">
     <!-- time series -->
     <g transform="translate(75.86 378.340312) scale(0.1 -0.1)">
      <use xlink:href="#DejaVuSans-74"/>
      <use xlink:href="#DejaVuSans-69" transform="translate(39.208984 0)"/>
      <use xlink:href="#DejaVuSans-6d" transform="translate(66.992188 0)"/>
      <use xlink:href="#DejaVuSans-65" transform="translate(164.404297 0)"/>
      <use xlink:href="#DejaVuSans-20" transform="translate(225.927734 0)"/>
      <use xlink:href="#DejaVuSans-73" transform="translate(257.714844 0)"/>
      <use xlink:href="#DejaVuSans-65" transform="translate(309.814453 0)"/>
      <use xlink:href="#DejaVuSans-72" transform="translate(371.337891 0)"/>
      <use xlink:href="#DejaVuSans-69" transform="translate(412.451172 0)"/>
      <use xlink:href="#DejaVuSans-65" transform="translate(440.234375 0)"/>
      <use xlink:href="#DejaVuSans-73" transform="translate(501.757812 0)"/>
     </g>
    </g>
    <g id="line2d_35">
     <path d="M 47.86 389.52 
L 57.86 389.52 
L 67.86 389.52 
" style="fill: none; stroke: #ff0000; stroke-width: 1.5; stroke-linecap: square"/>
    </g>
    <g id="text_31">
     <!-- AR predictions $p=15, \;\; m=500$ -->
     <g transform="translate(75.86 393.02) scale(0.1 -0.1)">
      <use xlink:href="#DejaVuSans-41" transform="translate(0 0.015625)"/>
      <use xlink:href="#DejaVuSans-52" transform="translate(68.408203 0.015625)"/>
      <use xlink:href="#DejaVuSans-20" transform="translate(137.890625 0.015625)"/>
      <use xlink:href="#DejaVuSans-70" transform="translate(169.677734 0.015625)"/>
      <use xlink:href="#DejaVuSans-72" transform="translate(233.154297 0.015625)"/>
      <use xlink:href="#DejaVuSans-65" transform="translate(274.267578 0.015625)"/>
      <use xlink:href="#DejaVuSans-64" transform="translate(335.791016 0.015625)"/>
      <use xlink:href="#DejaVuSans-69" transform="translate(399.267578 0.015625)"/>
      <use xlink:href="#DejaVuSans-63" transform="translate(427.050781 0.015625)"/>
      <use xlink:href="#DejaVuSans-74" transform="translate(482.03125 0.015625)"/>
      <use xlink:href="#DejaVuSans-69" transform="translate(521.240234 0.015625)"/>
      <use xlink:href="#DejaVuSans-6f" transform="translate(549.023438 0.015625)"/>
      <use xlink:href="#DejaVuSans-6e" transform="translate(610.205078 0.015625)"/>
      <use xlink:href="#DejaVuSans-73" transform="translate(673.583984 0.015625)"/>
      <use xlink:href="#DejaVuSans-20" transform="translate(725.683594 0.015625)"/>
      <use xlink:href="#DejaVuSans-Oblique-70" transform="translate(757.470703 0.015625)"/>
      <use xlink:href="#DejaVuSans-3d" transform="translate(840.429688 0.015625)"/>
      <use xlink:href="#DejaVuSans-31" transform="translate(943.701172 0.015625)"/>
      <use xlink:href="#DejaVuSans-35" transform="translate(1007.324219 0.015625)"/>
      <use xlink:href="#DejaVuSans-2c" transform="translate(1070.947266 0.015625)"/>
      <use xlink:href="#DejaVuSans-Oblique-6d" transform="translate(1176.335068 0.015625)"/>
      <use xlink:href="#DejaVuSans-3d" transform="translate(1293.2296 0.015625)"/>
      <use xlink:href="#DejaVuSans-35" transform="translate(1396.501084 0.015625)"/>
      <use xlink:href="#DejaVuSans-30" transform="translate(1460.124131 0.015625)"/>
      <use xlink:href="#DejaVuSans-30" transform="translate(1523.747178 0.015625)"/>
     </g>
    </g>
   </g>
  </g>
 </g>
 <defs>
  <clipPath id="p4e660a9413">
   <rect x="38.86" y="10.8" width="513.695" height="174.68"/>
  </clipPath>
  <clipPath id="p645f7be222">
   <rect x="38.86" y="229.44" width="513.695" height="174.68"/>
  </clipPath>
 </defs>
</svg>
