<?xml version="1.0" encoding="utf-8" standalone="no"?>
<!DOCTYPE svg PUBLIC "-//W3C//DTD SVG 1.1//EN"
  "http://www.w3.org/Graphics/SVG/1.1/DTD/svg11.dtd">
<svg xmlns:xlink="http://www.w3.org/1999/xlink" width="576pt" height="432pt" viewBox="0 0 576 432" xmlns="http://www.w3.org/2000/svg" version="1.1">
 <metadata>
  <rdf:RDF xmlns:dc="http://purl.org/dc/elements/1.1/" xmlns:cc="http://creativecommons.org/ns#" xmlns:rdf="http://www.w3.org/1999/02/22-rdf-syntax-ns#">
   <cc:Work>
    <dc:type rdf:resource="http://purl.org/dc/dcmitype/StillImage"/>
    <dc:date>2025-11-10T23:53:44.864990</dc:date>
    <dc:format>image/svg+xml</dc:format>
    <dc:creator>
     <cc:Agent>
      <dc:title>Matplotlib v3.10.7, https://matplotlib.org/</dc:title>
     </cc:Agent>
    </dc:creator>
   </cc:Work>
  </rdf:RDF>
 </metadata>
 <defs>
  <style type="text/css">*{stroke-linejoin: round; stroke-linecap: butt}</style>
 </defs>
 <g id="figure_1">
  <g id="patch_1">
   <path d="M 0 432 
L 576 432 
L 576 0 
L 0 0 
z
" style="fill: #ffffff"/>
  </g>
  <g id="axes_1">
   <g id="patch_2">
    <path d="M 32.56 127.68 
L 565.2 127.68 
L 565.2 26.88 
L 32.56 26.88 
z
" style="fill: #ffffff"/>
   </g>
   <g id="matplotlib.axis_1">
    <g id="xtick_1">
     <g id="line2d_1">
      <defs>
       <path id="mcf1300ad20" d="M 0 0 
L 0 3.5 
" style="stroke: #000000; stroke-width: 0.8"/>
      </defs>
      <g>
       <use xlink:href="#mcf1300ad20" x="56.770909" y="127.68" style="stroke: #000000; stroke-width: 0.8"/>
      </g>
     </g>
    </g>
    <g id="xtick_2">
     <g id="line2d_2">
      <g>
       <use xlink:href="#mcf1300ad20" x="153.662991" y="127.68" style="stroke: #000000; stroke-width: 0.8"/>
      </g>
     </g>
    </g>
    <g id="xtick_3">
     <g id="line2d_3">
      <g>
       <use xlink:href="#mcf1300ad20" x="250.555074" y="127.68" style="stroke: #000000; stroke-width: 0.8"/>
      </g>
     </g>
    </g>
    <g id="xtick_4">
     <g id="line2d_4">
      <g>
       <use xlink:href="#mcf1300ad20" x="347.447156" y="127.68" style="stroke: #000000; stroke-width: 0.8"/>
      </g>
     </g>
    </g>
    <g id="xtick_5">
     <g id="line2d_5">
      <g>
       <use xlink:href="#mcf1300ad20" x="444.339239" y="127.68" style="stroke: #000000; stroke-width: 0.8"/>
      </g>
     </g>
    </g>
    <g id="xtick_6">
     <g id="line2d_6">
      <g>
       <use xlink:href="#mcf1300ad20" x="541.231321" y="127.68" style="stroke: #000000; stroke-width: 0.8"/>
      </g>
     </g>
    </g>
   </g>
   <g id="matplotlib.axis_2">
    <g id="ytick_1">
     <g id="line2d_7">
      <defs>
       <path id="m88ce515072" d="M 0 0 
L -3.5 0 
" style="stroke: #000000; stroke-width: 0.8"/>
      </defs>
      <g>
       <use xlink:href="#m88ce515072" x="32.56" y="123.1018" style="stroke: #000000; stroke-width: 0.8"/>
      </g>
     </g>
     <g id="text_1">
      <!-- −1.0 -->
      <g transform="translate(1.277188 126.901018) scale(0.1 -0.1)">
       <defs>
        <path id="DejaVuSans-2212" d="M 678 2272 
L 4684 2272 
L 4684 1741 
L 678 1741 
L 678 2272 
z
" transform="scale(0.015625)"/>
        <path id="DejaVuSans-31" d="M 794 531 
L 1825 531 
L 1825 4091 
L 703 3866 
L 703 4441 
L 1819 4666 
L 2450 4666 
L 2450 531 
L 3481 531 
L 3481 0 
L 794 0 
L 794 531 
z
" transform="scale(0.015625)"/>
        <path id="DejaVuSans-2e" d="M 684 794 
L 1344 794 
L 1344 0 
L 684 0 
L 684 794 
z
" transform="scale(0.015625)"/>
        <path id="DejaVuSans-30" d="M 2034 4250 
Q 1547 4250 1301 3770 
Q 1056 3291 1056 2328 
Q 1056 1369 1301 889 
Q 1547 409 2034 409 
Q 2525 409 2770 889 
Q 3016 1369 3016 2328 
Q 3016 3291 2770 3770 
Q 2525 4250 2034 4250 
z
M 2034 4750 
Q 2819 4750 3233 4129 
Q 3647 3509 3647 2328 
Q 3647 1150 3233 529 
Q 2819 -91 2034 -91 
Q 1250 -91 836 529 
Q 422 1150 422 2328 
Q 422 3509 836 4129 
Q 1250 4750 2034 4750 
z
" transform="scale(0.015625)"/>
       </defs>
       <use xlink:href="#DejaVuSans-2212"/>
       <use xlink:href="#DejaVuSans-31" transform="translate(83.789062 0)"/>
       <use xlink:href="#DejaVuSans-2e" transform="translate(147.412109 0)"/>
       <use xlink:href="#DejaVuSans-30" transform="translate(179.199219 0)"/>
      </g>
     </g>
    </g>
    <g id="ytick_2">
     <g id="line2d_8">
      <g>
       <use xlink:href="#m88ce515072" x="32.56" y="100.1909" style="stroke: #000000; stroke-width: 0.8"/>
      </g>
     </g>
     <g id="text_2">
      <!-- −0.5 -->
      <g transform="translate(1.277188 103.990119) scale(0.1 -0.1)">
       <defs>
        <path id="DejaVuSans-35" d="M 691 4666 
L 3169 4666 
L 3169 4134 
L 1269 4134 
L 1269 2991 
Q 1406 3038 1543 3061 
Q 1681 3084 1819 3084 
Q 2600 3084 3056 2656 
Q 3513 2228 3513 1497 
Q 3513 744 3044 326 
Q 2575 -91 1722 -91 
Q 1428 -91 1123 -41 
Q 819 9 494 109 
L 494 744 
Q 775 591 1075 516 
Q 1375 441 1709 441 
Q 2250 441 2565 725 
Q 2881 1009 2881 1497 
Q 2881 1984 2565 2268 
Q 2250 2553 1709 2553 
Q 1456 2553 1204 2497 
Q 953 2441 691 2322 
L 691 4666 
z
" transform="scale(0.015625)"/>
       </defs>
       <use xlink:href="#DejaVuSans-2212"/>
       <use xlink:href="#DejaVuSans-30" transform="translate(83.789062 0)"/>
       <use xlink:href="#DejaVuSans-2e" transform="translate(147.412109 0)"/>
       <use xlink:href="#DejaVuSans-35" transform="translate(179.199219 0)"/>
      </g>
     </g>
    </g>
    <g id="ytick_3">
     <g id="line2d_9">
      <g>
       <use xlink:href="#m88ce515072" x="32.56" y="77.28" style="stroke: #000000; stroke-width: 0.8"/>
      </g>
     </g>
     <g id="text_3">
      <!-- 0.0 -->
      <g transform="translate(9.656875 81.079219) scale(0.1 -0.1)">
       <use xlink:href="#DejaVuSans-30"/>
       <use xlink:href="#DejaVuSans-2e" transform="translate(63.623047 0)"/>
       <use xlink:href="#DejaVuSans-30" transform="translate(95.410156 0)"/>
      </g>
     </g>
    </g>
    <g id="ytick_4">
     <g id="line2d_10">
      <g>
       <use xlink:href="#m88ce515072" x="32.56" y="54.3691" style="stroke: #000000; stroke-width: 0.8"/>
      </g>
     </g>
     <g id="text_4">
      <!-- 0.5 -->
      <g transform="translate(9.656875 58.168319) scale(0.1 -0.1)">
       <use xlink:href="#DejaVuSans-30"/>
       <use xlink:href="#DejaVuSans-2e" transform="translate(63.623047 0)"/>
       <use xlink:href="#DejaVuSans-35" transform="translate(95.410156 0)"/>
      </g>
     </g>
    </g>
    <g id="ytick_5">
     <g id="line2d_11">
      <g>
       <use xlink:href="#m88ce515072" x="32.56" y="31.4582" style="stroke: #000000; stroke-width: 0.8"/>
      </g>
     </g>
     <g id="text_5">
      <!-- 1.0 -->
      <g transform="translate(9.656875 35.257419) scale(0.1 -0.1)">
       <use xlink:href="#DejaVuSans-31"/>
       <use xlink:href="#DejaVuSans-2e" transform="translate(63.623047 0)"/>
       <use xlink:href="#DejaVuSans-30" transform="translate(95.410156 0)"/>
      </g>
     </g>
    </g>
   </g>
   <g id="line2d_12">
    <path d="M 56.770909 77.28 
L 59.193211 55.20518 
L 60.404362 45.91282 
L 61.373283 39.873866 
L 62.342204 35.342002 
L 63.068894 33.044476 
L 63.553355 32.068274 
L 64.037815 31.548619 
L 64.522276 31.490758 
L 65.006736 31.895275 
L 65.491197 32.758085 
L 65.975657 34.070477 
L 66.702348 36.851828 
L 67.429038 40.550758 
L 68.397959 46.762138 
L 69.60911 56.221224 
L 71.304721 71.537006 
L 74.453714 100.356921 
L 75.664865 109.476686 
L 76.633786 115.339399 
L 77.360477 118.740804 
L 78.087167 121.201193 
L 78.571628 122.29017 
L 79.056088 122.924635 
L 79.540548 123.098182 
L 80.025009 122.809058 
L 80.509469 122.060184 
L 80.99393 120.859121 
L 81.72062 118.237423 
L 82.447311 114.686134 
L 83.416232 108.64718 
L 84.627383 99.35482 
L 86.322994 84.163607 
L 89.714217 53.215553 
L 90.925368 44.274144 
L 91.894289 38.591375 
L 92.62098 35.342002 
L 93.34767 33.044476 
L 93.832131 32.068274 
L 94.316591 31.548619 
L 94.801051 31.490758 
L 95.285512 31.895275 
L 95.769972 32.758085 
L 96.254433 34.070477 
L 96.981123 36.851828 
L 97.707814 40.550758 
L 98.676735 46.762138 
L 99.887886 56.221224 
L 101.583497 71.537006 
L 104.73249 100.356921 
L 105.943641 109.476686 
L 106.912562 115.339399 
L 107.639252 118.740804 
L 108.365943 121.201193 
L 108.850403 122.29017 
L 109.334864 122.924635 
L 109.819324 123.098182 
L 110.303785 122.809058 
L 110.788245 122.060184 
L 111.272705 120.859121 
L 111.999396 118.237423 
L 112.726087 114.686134 
L 113.695008 108.64718 
L 114.906159 99.35482 
L 116.60177 84.163607 
L 119.992993 53.215553 
L 121.204144 44.274144 
L 122.173065 38.591375 
L 122.899755 35.342002 
L 123.626446 33.044476 
L 124.110906 32.068274 
L 124.595367 31.548619 
L 125.079827 31.490758 
L 125.564288 31.895275 
L 126.048748 32.758085 
L 126.533208 34.070477 
L 127.259899 36.851828 
L 127.98659 40.550758 
L 128.95551 46.762138 
L 130.166662 56.221224 
L 131.862273 71.537006 
L 135.011266 100.356921 
L 136.222417 109.476686 
L 137.191337 115.339399 
L 137.918028 118.740804 
L 138.644719 121.201193 
L 139.129179 122.29017 
L 139.61364 122.924635 
L 140.0981 123.098182 
L 140.58256 122.809058 
L 141.067021 122.060184 
L 141.551481 120.859121 
L 142.278172 118.237423 
L 143.004862 114.686134 
L 143.973783 108.64718 
L 145.184934 99.35482 
L 146.880546 84.163607 
L 150.271769 53.215553 
L 151.48292 44.274144 
L 152.45184 38.591375 
L 153.178531 35.342002 
L 153.905222 33.044476 
L 154.389682 32.068274 
L 154.874143 31.548619 
L 155.358603 31.490758 
L 155.843063 31.895275 
L 156.327524 32.758085 
L 156.811984 34.070477 
L 157.538675 36.851828 
L 158.265365 40.550758 
L 159.234286 46.762138 
L 160.445437 56.221224 
L 162.141049 71.537006 
L 165.290041 100.356921 
L 166.501192 109.476686 
L 167.470113 115.339399 
L 168.196804 118.740804 
L 168.923494 121.201193 
L 169.407955 122.29017 
L 169.892415 122.924635 
L 170.376876 123.098182 
L 170.861336 122.809058 
L 171.345797 122.060184 
L 171.830257 120.859121 
L 172.556948 118.237423 
L 173.283638 114.686134 
L 174.252559 108.64718 
L 175.46371 99.35482 
L 177.159321 84.163607 
L 180.550544 53.215553 
L 181.761695 44.274144 
L 182.730616 38.591375 
L 183.457307 35.342002 
L 184.183997 33.044476 
L 184.668458 32.068274 
L 185.152918 31.548619 
L 185.637379 31.490758 
L 186.121839 31.895275 
L 186.6063 32.758085 
L 187.09076 34.070477 
L 187.817451 36.851828 
L 188.544141 40.550758 
L 189.513062 46.762138 
L 190.724213 56.221224 
L 192.419824 71.537006 
L 195.568817 100.356921 
L 196.779968 109.476686 
L 197.748889 115.339399 
L 198.47558 118.740804 
L 199.20227 121.201193 
L 199.686731 122.29017 
L 200.171191 122.924635 
L 200.655651 123.098182 
L 201.140112 122.809058 
L 201.624572 122.060184 
L 202.109033 120.859121 
L 202.835723 118.237423 
L 203.562414 114.686134 
L 204.531335 108.64718 
L 205.742486 99.35482 
L 207.438097 84.163607 
L 210.82932 53.215553 
L 212.040471 44.274144 
L 213.009392 38.591375 
L 213.736083 35.342002 
L 214.462773 33.044476 
L 214.947234 32.068274 
L 215.431694 31.548619 
L 215.916154 31.490758 
L 216.400615 31.895275 
L 216.885075 32.758085 
L 217.369536 34.070477 
L 218.096226 36.851828 
L 218.822917 40.550758 
L 219.791838 46.762138 
L 221.002989 56.221224 
L 222.6986 71.537006 
L 225.847593 100.356921 
L 227.058744 109.476686 
L 228.027665 115.339399 
L 228.754355 118.740804 
L 229.481046 121.201193 
L 229.965506 122.29017 
L 230.449967 122.924635 
L 230.934427 123.098182 
L 231.418888 122.809058 
L 231.903348 122.060184 
L 232.387808 120.859121 
L 233.114499 118.237423 
L 233.84119 114.686134 
L 234.810111 108.64718 
L 236.021262 99.35482 
L 237.716873 84.163607 
L 241.108096 53.215553 
L 242.319247 44.274144 
L 243.288168 38.591375 
L 244.014858 35.342002 
L 244.741549 33.044476 
L 245.226009 32.068274 
L 245.71047 31.548619 
L 246.19493 31.490758 
L 246.679391 31.895275 
L 247.163851 32.758085 
L 247.648311 34.070477 
L 248.375002 36.851828 
L 249.101693 40.550758 
L 250.070613 46.762138 
L 251.281765 56.221224 
L 252.977376 71.537006 
L 256.126369 100.356921 
L 257.33752 109.476686 
L 258.30644 115.339399 
L 259.033131 118.740804 
L 259.759822 121.201193 
L 260.244282 122.29017 
L 260.728743 122.924635 
L 261.213203 123.098182 
L 261.697663 122.809058 
L 262.182124 122.060184 
L 262.666584 120.859121 
L 263.393275 118.237423 
L 264.119965 114.686134 
L 265.088886 108.64718 
L 266.300037 99.35482 
L 267.995649 84.163607 
L 271.386872 53.215553 
L 272.598023 44.274144 
L 273.566943 38.591375 
L 274.293634 35.342002 
L 275.020325 33.044476 
L 275.504785 32.068274 
L 275.989246 31.548619 
L 276.473706 31.490758 
L 276.958166 31.895275 
L 277.442627 32.758085 
L 277.927087 34.070477 
L 278.653778 36.851828 
L 279.380468 40.550758 
L 280.349389 46.762138 
L 281.56054 56.221224 
L 283.256152 71.537006 
L 286.405144 100.356921 
L 287.616295 109.476686 
L 288.585216 115.339399 
L 289.311907 118.740804 
L 290.038597 121.201193 
L 290.523058 122.29017 
L 291.007518 122.924635 
L 291.491979 123.098182 
L 291.976439 122.809058 
L 292.4609 122.060184 
L 292.94536 120.859121 
L 293.672051 118.237423 
L 294.398741 114.686134 
L 295.367662 108.64718 
L 296.578813 99.35482 
L 298.274424 84.163607 
L 301.665647 53.215553 
L 302.876798 44.274144 
L 303.845719 38.591375 
L 304.57241 35.342002 
L 305.2991 33.044476 
L 305.783561 32.068274 
L 306.268021 31.548619 
L 306.752482 31.490758 
L 307.236942 31.895275 
L 307.721403 32.758085 
L 308.205863 34.070477 
L 308.932554 36.851828 
L 309.659244 40.550758 
L 310.628165 46.762138 
L 311.839316 56.221224 
L 313.534927 71.537006 
L 316.68392 100.356921 
L 317.895071 109.476686 
L 318.863992 115.339399 
L 319.590683 118.740804 
L 320.317373 121.201193 
L 320.801834 122.29017 
L 321.286294 122.924635 
L 321.770754 123.098182 
L 322.255215 122.809058 
L 322.739675 122.060184 
L 323.224136 120.859121 
L 323.950826 118.237423 
L 324.677517 114.686134 
L 325.646438 108.64718 
L 326.857589 99.35482 
L 328.5532 84.163607 
L 331.944423 53.215553 
L 333.155574 44.274144 
L 334.124495 38.591375 
L 334.851186 35.342002 
L 335.577876 33.044476 
L 336.062337 32.068274 
L 336.546797 31.548619 
L 337.031257 31.490758 
L 337.515718 31.895275 
L 338.000178 32.758085 
L 338.484639 34.070477 
L 339.211329 36.851828 
L 339.93802 40.550758 
L 340.906941 46.762138 
L 342.118092 56.221224 
L 343.813703 71.537006 
L 346.962696 100.356921 
L 348.173847 109.476686 
L 349.142768 115.339399 
L 349.869458 118.740804 
L 350.596149 121.201193 
L 351.080609 122.29017 
L 351.56507 122.924635 
L 352.04953 123.098182 
L 352.533991 122.809058 
L 353.018451 122.060184 
L 353.502911 120.859121 
L 354.229602 118.237423 
L 354.956293 114.686134 
L 355.925214 108.64718 
L 357.136365 99.35482 
L 358.831976 84.163607 
L 362.223199 53.215553 
L 363.43435 44.274144 
L 364.403271 38.591375 
L 365.129961 35.342002 
L 365.856652 33.044476 
L 366.341112 32.068274 
L 366.825573 31.548619 
L 367.310033 31.490758 
L 367.794494 31.895275 
L 368.278954 32.758085 
L 368.763414 34.070477 
L 369.490105 36.851828 
L 370.216796 40.550758 
L 371.185716 46.762138 
L 372.396868 56.221224 
L 374.092479 71.537006 
L 377.241472 100.356921 
L 378.452623 109.476686 
L 379.421543 115.339399 
L 380.148234 118.740804 
L 380.874925 121.201193 
L 381.359385 122.29017 
L 381.843846 122.924635 
L 382.328306 123.098182 
L 382.812766 122.809058 
L 383.297227 122.060184 
L 383.781687 120.859121 
L 384.508378 118.237423 
L 385.235068 114.686134 
L 386.203989 108.64718 
L 387.41514 99.35482 
L 389.110752 84.163607 
L 392.501975 53.215553 
L 393.713126 44.274144 
L 394.682046 38.591375 
L 395.408737 35.342002 
L 396.135428 33.044476 
L 396.619888 32.068274 
L 397.104349 31.548619 
L 397.588809 31.490758 
L 398.073269 31.895275 
L 398.55773 32.758085 
L 399.04219 34.070477 
L 399.768881 36.851828 
L 400.495571 40.550758 
L 401.464492 46.762138 
L 402.675643 56.221224 
L 404.371255 71.537006 
L 407.520247 100.356921 
L 408.731398 109.476686 
L 409.700319 115.339399 
L 410.42701 118.740804 
L 411.1537 121.201193 
L 411.638161 122.29017 
L 412.122621 122.924635 
L 412.607082 123.098182 
L 413.091542 122.809058 
L 413.576003 122.060184 
L 414.060463 120.859121 
L 414.787154 118.237423 
L 415.513844 114.686134 
L 416.482765 108.64718 
L 417.693916 99.35482 
L 419.389527 84.163607 
L 422.78075 53.215553 
L 423.991901 44.274144 
L 424.960822 38.591375 
L 425.687513 35.342002 
L 426.414203 33.044476 
L 426.898664 32.068274 
L 427.383124 31.548619 
L 427.867585 31.490758 
L 428.352045 31.895275 
L 428.836506 32.758085 
L 429.320966 34.070477 
L 430.047657 36.851828 
L 430.774347 40.550758 
L 431.743268 46.762138 
L 432.954419 56.221224 
L 434.65003 71.537006 
L 437.799023 100.356921 
L 439.010174 109.476686 
L 439.979095 115.339399 
L 440.705786 118.740804 
L 441.432476 121.201193 
L 441.916937 122.29017 
L 442.401397 122.924635 
L 442.885857 123.098182 
L 443.370318 122.809058 
L 443.854778 122.060184 
L 444.339239 120.859121 
L 445.065929 118.237423 
L 445.79262 114.686134 
L 446.761541 108.64718 
L 447.972692 99.35482 
L 449.668303 84.163607 
L 453.059526 53.215553 
L 454.270677 44.274144 
L 455.239598 38.591375 
L 455.966289 35.342002 
L 456.692979 33.044476 
L 457.17744 32.068274 
L 457.6619 31.548619 
L 458.14636 31.490758 
L 458.630821 31.895275 
L 459.115281 32.758085 
L 459.599742 34.070477 
L 460.326432 36.851828 
L 461.053123 40.550758 
L 462.022044 46.762138 
L 463.233195 56.221224 
L 464.928806 71.537006 
L 468.077799 100.356921 
L 469.28895 109.476686 
L 470.257871 115.339399 
L 470.984561 118.740804 
L 471.711252 121.201193 
L 472.195712 122.29017 
L 472.680173 122.924635 
L 473.164633 123.098182 
L 473.649094 122.809058 
L 474.133554 122.060184 
L 474.618014 120.859121 
L 475.344705 118.237423 
L 476.071396 114.686134 
L 477.040317 108.64718 
L 478.251468 99.35482 
L 479.947079 84.163607 
L 483.338302 53.215553 
L 484.549453 44.274144 
L 485.518374 38.591375 
L 486.245064 35.342002 
L 486.971755 33.044476 
L 487.456215 32.068274 
L 487.940676 31.548619 
L 488.425136 31.490758 
L 488.909597 31.895275 
L 489.394057 32.758085 
L 489.878517 34.070477 
L 490.605208 36.851828 
L 491.331899 40.550758 
L 492.30082 46.762138 
L 493.511971 56.221224 
L 495.207582 71.537006 
L 498.356575 100.356921 
L 499.567726 109.476686 
L 500.536647 115.339399 
L 501.263337 118.740804 
L 501.990028 121.201193 
L 502.474488 122.29017 
L 502.958949 122.924635 
L 503.443409 123.098182 
L 503.927869 122.809058 
L 504.41233 122.060184 
L 504.89679 120.859121 
L 505.623481 118.237423 
L 506.350171 114.686134 
L 507.319092 108.64718 
L 508.530243 99.35482 
L 510.225855 84.163607 
L 513.617078 53.215553 
L 514.828229 44.274144 
L 515.797149 38.591375 
L 516.52384 35.342002 
L 517.250531 33.044476 
L 517.734991 32.068274 
L 518.219452 31.548619 
L 518.703912 31.490758 
L 519.188372 31.895275 
L 519.672833 32.758085 
L 520.157293 34.070477 
L 520.883984 36.851828 
L 521.610674 40.550758 
L 522.579595 46.762138 
L 523.790746 56.221224 
L 525.486358 71.537006 
L 528.63535 100.356921 
L 529.846501 109.476686 
L 530.815422 115.339399 
L 531.542113 118.740804 
L 532.268803 121.201193 
L 532.753264 122.29017 
L 533.237724 122.924635 
L 533.722185 123.098182 
L 534.206645 122.809058 
L 534.691106 122.060184 
L 535.175566 120.859121 
L 535.902257 118.237423 
L 536.628947 114.686134 
L 537.597868 108.64718 
L 538.809019 99.35482 
L 540.50463 84.163607 
L 540.989091 79.582285 
L 540.989091 79.582285 
" clip-path="url(#pa73cf748cc)" style="fill: none; stroke: #1f77b4; stroke-width: 1.5; stroke-linecap: square"/>
   </g>
   <g id="LineCollection_1">
    <path d="M 56.770909 77.28 
L 56.770909 77.28 
" clip-path="url(#pa73cf748cc)" style="fill: none; stroke: #1f77b4; stroke-width: 1.5"/>
    <path d="M 153.662991 77.28 
L 153.662991 33.700879 
" clip-path="url(#pa73cf748cc)" style="fill: none; stroke: #1f77b4; stroke-width: 1.5"/>
    <path d="M 250.555074 77.28 
L 250.555074 50.346622 
" clip-path="url(#pa73cf748cc)" style="fill: none; stroke: #1f77b4; stroke-width: 1.5"/>
    <path d="M 347.447156 77.28 
L 347.447156 104.213378 
" clip-path="url(#pa73cf748cc)" style="fill: none; stroke: #1f77b4; stroke-width: 1.5"/>
    <path d="M 444.339239 77.28 
L 444.339239 120.859121 
" clip-path="url(#pa73cf748cc)" style="fill: none; stroke: #1f77b4; stroke-width: 1.5"/>
   </g>
   <g id="line2d_13">
    <defs>
     <path id="me80dca9ee7" d="M 0 3 
C 0.795609 3 1.55874 2.683901 2.12132 2.12132 
C 2.683901 1.55874 3 0.795609 3 0 
C 3 -0.795609 2.683901 -1.55874 2.12132 -2.12132 
C 1.55874 -2.683901 0.795609 -3 0 -3 
C -0.795609 -3 -1.55874 -2.683901 -2.12132 -2.12132 
C -2.683901 -1.55874 -3 -0.795609 -3 0 
C -3 0.795609 -2.683901 1.55874 -2.12132 2.12132 
C -1.55874 2.683901 -0.795609 3 0 3 
z
" style="stroke: #1f77b4"/>
    </defs>
    <g clip-path="url(#pa73cf748cc)">
     <use xlink:href="#me80dca9ee7" x="56.770909" y="77.28" style="fill: #1f77b4; stroke: #1f77b4"/>
     <use xlink:href="#me80dca9ee7" x="153.662991" y="33.700879" style="fill: #1f77b4; stroke: #1f77b4"/>
     <use xlink:href="#me80dca9ee7" x="250.555074" y="50.346622" style="fill: #1f77b4; stroke: #1f77b4"/>
     <use xlink:href="#me80dca9ee7" x="347.447156" y="104.213378" style="fill: #1f77b4; stroke: #1f77b4"/>
     <use xlink:href="#me80dca9ee7" x="444.339239" y="120.859121" style="fill: #1f77b4; stroke: #1f77b4"/>
    </g>
   </g>
   <g id="line2d_14">
    <path d="M 56.770909 77.28 
L 444.339239 77.28 
" clip-path="url(#pa73cf748cc)" style="fill: none; stroke: #d62728; stroke-width: 1.5; stroke-linecap: square"/>
   </g>
   <g id="patch_3">
    <path d="M 32.56 127.68 
L 32.56 26.88 
" style="fill: none; stroke: #000000; stroke-width: 0.8; stroke-linejoin: miter; stroke-linecap: square"/>
   </g>
   <g id="patch_4">
    <path d="M 565.2 127.68 
L 565.2 26.88 
" style="fill: none; stroke: #000000; stroke-width: 0.8; stroke-linejoin: miter; stroke-linecap: square"/>
   </g>
   <g id="patch_5">
    <path d="M 32.56 127.68 
L 565.2 127.68 
" style="fill: none; stroke: #000000; stroke-width: 0.8; stroke-linejoin: miter; stroke-linecap: square"/>
   </g>
   <g id="patch_6">
    <path d="M 32.56 26.88 
L 565.2 26.88 
" style="fill: none; stroke: #000000; stroke-width: 0.8; stroke-linejoin: miter; stroke-linecap: square"/>
   </g>
   <g id="text_6">
    <!-- f1=16 Hz, fs=5 Hz (aliere) -->
    <g transform="translate(219.939687 20.88) scale(0.12 -0.12)">
     <defs>
      <path id="DejaVuSans-66" d="M 2375 4863 
L 2375 4384 
L 1825 4384 
Q 1516 4384 1395 4259 
Q 1275 4134 1275 3809 
L 1275 3500 
L 2222 3500 
L 2222 3053 
L 1275 3053 
L 1275 0 
L 697 0 
L 697 3053 
L 147 3053 
L 147 3500 
L 697 3500 
L 697 3744 
Q 697 4328 969 4595 
Q 1241 4863 1831 4863 
L 2375 4863 
z
" transform="scale(0.015625)"/>
      <path id="DejaVuSans-3d" d="M 678 2906 
L 4684 2906 
L 4684 2381 
L 678 2381 
L 678 2906 
z
M 678 1631 
L 4684 1631 
L 4684 1100 
L 678 1100 
L 678 1631 
z
" transform="scale(0.015625)"/>
      <path id="DejaVuSans-36" d="M 2113 2584 
Q 1688 2584 1439 2293 
Q 1191 2003 1191 1497 
Q 1191 994 1439 701 
Q 1688 409 2113 409 
Q 2538 409 2786 701 
Q 3034 994 3034 1497 
Q 3034 2003 2786 2293 
Q 2538 2584 2113 2584 
z
M 3366 4563 
L 3366 3988 
Q 3128 4100 2886 4159 
Q 2644 4219 2406 4219 
Q 1781 4219 1451 3797 
Q 1122 3375 1075 2522 
Q 1259 2794 1537 2939 
Q 1816 3084 2150 3084 
Q 2853 3084 3261 2657 
Q 3669 2231 3669 1497 
Q 3669 778 3244 343 
Q 2819 -91 2113 -91 
Q 1303 -91 875 529 
Q 447 1150 447 2328 
Q 447 3434 972 4092 
Q 1497 4750 2381 4750 
Q 2619 4750 2861 4703 
Q 3103 4656 3366 4563 
z
" transform="scale(0.015625)"/>
      <path id="DejaVuSans-20" transform="scale(0.015625)"/>
      <path id="DejaVuSans-48" d="M 628 4666 
L 1259 4666 
L 1259 2753 
L 3553 2753 
L 3553 4666 
L 4184 4666 
L 4184 0 
L 3553 0 
L 3553 2222 
L 1259 2222 
L 1259 0 
L 628 0 
L 628 4666 
z
" transform="scale(0.015625)"/>
      <path id="DejaVuSans-7a" d="M 353 3500 
L 3084 3500 
L 3084 2975 
L 922 459 
L 3084 459 
L 3084 0 
L 275 0 
L 275 525 
L 2438 3041 
L 353 3041 
L 353 3500 
z
" transform="scale(0.015625)"/>
      <path id="DejaVuSans-2c" d="M 750 794 
L 1409 794 
L 1409 256 
L 897 -744 
L 494 -744 
L 750 256 
L 750 794 
z
" transform="scale(0.015625)"/>
      <path id="DejaVuSans-73" d="M 2834 3397 
L 2834 2853 
Q 2591 2978 2328 3040 
Q 2066 3103 1784 3103 
Q 1356 3103 1142 2972 
Q 928 2841 928 2578 
Q 928 2378 1081 2264 
Q 1234 2150 1697 2047 
L 1894 2003 
Q 2506 1872 2764 1633 
Q 3022 1394 3022 966 
Q 3022 478 2636 193 
Q 2250 -91 1575 -91 
Q 1294 -91 989 -36 
Q 684 19 347 128 
L 347 722 
Q 666 556 975 473 
Q 1284 391 1588 391 
Q 1994 391 2212 530 
Q 2431 669 2431 922 
Q 2431 1156 2273 1281 
Q 2116 1406 1581 1522 
L 1381 1569 
Q 847 1681 609 1914 
Q 372 2147 372 2553 
Q 372 3047 722 3315 
Q 1072 3584 1716 3584 
Q 2034 3584 2315 3537 
Q 2597 3491 2834 3397 
z
" transform="scale(0.015625)"/>
      <path id="DejaVuSans-28" d="M 1984 4856 
Q 1566 4138 1362 3434 
Q 1159 2731 1159 2009 
Q 1159 1288 1364 580 
Q 1569 -128 1984 -844 
L 1484 -844 
Q 1016 -109 783 600 
Q 550 1309 550 2009 
Q 550 2706 781 3412 
Q 1013 4119 1484 4856 
L 1984 4856 
z
" transform="scale(0.015625)"/>
      <path id="DejaVuSans-61" d="M 2194 1759 
Q 1497 1759 1228 1600 
Q 959 1441 959 1056 
Q 959 750 1161 570 
Q 1363 391 1709 391 
Q 2188 391 2477 730 
Q 2766 1069 2766 1631 
L 2766 1759 
L 2194 1759 
z
M 3341 1997 
L 3341 0 
L 2766 0 
L 2766 531 
Q 2569 213 2275 61 
Q 1981 -91 1556 -91 
Q 1019 -91 701 211 
Q 384 513 384 1019 
Q 384 1609 779 1909 
Q 1175 2209 1959 2209 
L 2766 2209 
L 2766 2266 
Q 2766 2663 2505 2880 
Q 2244 3097 1772 3097 
Q 1472 3097 1187 3025 
Q 903 2953 641 2809 
L 641 3341 
Q 956 3463 1253 3523 
Q 1550 3584 1831 3584 
Q 2591 3584 2966 3190 
Q 3341 2797 3341 1997 
z
" transform="scale(0.015625)"/>
      <path id="DejaVuSans-6c" d="M 603 4863 
L 1178 4863 
L 1178 0 
L 603 0 
L 603 4863 
z
" transform="scale(0.015625)"/>
      <path id="DejaVuSans-69" d="M 603 3500 
L 1178 3500 
L 1178 0 
L 603 0 
L 603 3500 
z
M 603 4863 
L 1178 4863 
L 1178 4134 
L 603 4134 
L 603 4863 
z
" transform="scale(0.015625)"/>
      <path id="DejaVuSans-65" d="M 3597 1894 
L 3597 1613 
L 953 1613 
Q 991 1019 1311 708 
Q 1631 397 2203 397 
Q 2534 397 2845 478 
Q 3156 559 3463 722 
L 3463 178 
Q 3153 47 2828 -22 
Q 2503 -91 2169 -91 
Q 1331 -91 842 396 
Q 353 884 353 1716 
Q 353 2575 817 3079 
Q 1281 3584 2069 3584 
Q 2775 3584 3186 3129 
Q 3597 2675 3597 1894 
z
M 3022 2063 
Q 3016 2534 2758 2815 
Q 2500 3097 2075 3097 
Q 1594 3097 1305 2825 
Q 1016 2553 972 2059 
L 3022 2063 
z
" transform="scale(0.015625)"/>
      <path id="DejaVuSans-72" d="M 2631 2963 
Q 2534 3019 2420 3045 
Q 2306 3072 2169 3072 
Q 1681 3072 1420 2755 
Q 1159 2438 1159 1844 
L 1159 0 
L 581 0 
L 581 3500 
L 1159 3500 
L 1159 2956 
Q 1341 3275 1631 3429 
Q 1922 3584 2338 3584 
Q 2397 3584 2469 3576 
Q 2541 3569 2628 3553 
L 2631 2963 
z
" transform="scale(0.015625)"/>
      <path id="DejaVuSans-29" d="M 513 4856 
L 1013 4856 
Q 1481 4119 1714 3412 
Q 1947 2706 1947 2009 
Q 1947 1309 1714 600 
Q 1481 -109 1013 -844 
L 513 -844 
Q 928 -128 1133 580 
Q 1338 1288 1338 2009 
Q 1338 2731 1133 3434 
Q 928 4138 513 4856 
z
" transform="scale(0.015625)"/>
     </defs>
     <use xlink:href="#DejaVuSans-66"/>
     <use xlink:href="#DejaVuSans-31" transform="translate(35.205078 0)"/>
     <use xlink:href="#DejaVuSans-3d" transform="translate(98.828125 0)"/>
     <use xlink:href="#DejaVuSans-31" transform="translate(182.617188 0)"/>
     <use xlink:href="#DejaVuSans-36" transform="translate(246.240234 0)"/>
     <use xlink:href="#DejaVuSans-20" transform="translate(309.863281 0)"/>
     <use xlink:href="#DejaVuSans-48" transform="translate(341.650391 0)"/>
     <use xlink:href="#DejaVuSans-7a" transform="translate(416.845703 0)"/>
     <use xlink:href="#DejaVuSans-2c" transform="translate(469.335938 0)"/>
     <use xlink:href="#DejaVuSans-20" transform="translate(501.123047 0)"/>
     <use xlink:href="#DejaVuSans-66" transform="translate(532.910156 0)"/>
     <use xlink:href="#DejaVuSans-73" transform="translate(568.115234 0)"/>
     <use xlink:href="#DejaVuSans-3d" transform="translate(620.214844 0)"/>
     <use xlink:href="#DejaVuSans-35" transform="translate(704.003906 0)"/>
     <use xlink:href="#DejaVuSans-20" transform="translate(767.626953 0)"/>
     <use xlink:href="#DejaVuSans-48" transform="translate(799.414062 0)"/>
     <use xlink:href="#DejaVuSans-7a" transform="translate(874.609375 0)"/>
     <use xlink:href="#DejaVuSans-20" transform="translate(927.099609 0)"/>
     <use xlink:href="#DejaVuSans-28" transform="translate(958.886719 0)"/>
     <use xlink:href="#DejaVuSans-61" transform="translate(997.900391 0)"/>
     <use xlink:href="#DejaVuSans-6c" transform="translate(1059.179688 0)"/>
     <use xlink:href="#DejaVuSans-69" transform="translate(1086.962891 0)"/>
     <use xlink:href="#DejaVuSans-65" transform="translate(1114.746094 0)"/>
     <use xlink:href="#DejaVuSans-72" transform="translate(1176.269531 0)"/>
     <use xlink:href="#DejaVuSans-65" transform="translate(1215.132812 0)"/>
     <use xlink:href="#DejaVuSans-29" transform="translate(1276.65625 0)"/>
    </g>
   </g>
  </g>
  <g id="axes_2">
   <g id="patch_7">
    <path d="M 32.56 258.86 
L 565.2 258.86 
L 565.2 158.06 
L 32.56 158.06 
z
" style="fill: #ffffff"/>
   </g>
   <g id="matplotlib.axis_3">
    <g id="xtick_7">
     <g id="line2d_15">
      <g>
       <use xlink:href="#mcf1300ad20" x="56.770909" y="258.86" style="stroke: #000000; stroke-width: 0.8"/>
      </g>
     </g>
    </g>
    <g id="xtick_8">
     <g id="line2d_16">
      <g>
       <use xlink:href="#mcf1300ad20" x="153.662991" y="258.86" style="stroke: #000000; stroke-width: 0.8"/>
      </g>
     </g>
    </g>
    <g id="xtick_9">
     <g id="line2d_17">
      <g>
       <use xlink:href="#mcf1300ad20" x="250.555074" y="258.86" style="stroke: #000000; stroke-width: 0.8"/>
      </g>
     </g>
    </g>
    <g id="xtick_10">
     <g id="line2d_18">
      <g>
       <use xlink:href="#mcf1300ad20" x="347.447156" y="258.86" style="stroke: #000000; stroke-width: 0.8"/>
      </g>
     </g>
    </g>
    <g id="xtick_11">
     <g id="line2d_19">
      <g>
       <use xlink:href="#mcf1300ad20" x="444.339239" y="258.86" style="stroke: #000000; stroke-width: 0.8"/>
      </g>
     </g>
    </g>
    <g id="xtick_12">
     <g id="line2d_20">
      <g>
       <use xlink:href="#mcf1300ad20" x="541.231321" y="258.86" style="stroke: #000000; stroke-width: 0.8"/>
      </g>
     </g>
    </g>
   </g>
   <g id="matplotlib.axis_4">
    <g id="ytick_6">
     <g id="line2d_21">
      <g>
       <use xlink:href="#m88ce515072" x="32.56" y="254.278182" style="stroke: #000000; stroke-width: 0.8"/>
      </g>
     </g>
     <g id="text_7">
      <!-- −1.0 -->
      <g transform="translate(1.277188 258.077401) scale(0.1 -0.1)">
       <use xlink:href="#DejaVuSans-2212"/>
       <use xlink:href="#DejaVuSans-31" transform="translate(83.789062 0)"/>
       <use xlink:href="#DejaVuSans-2e" transform="translate(147.412109 0)"/>
       <use xlink:href="#DejaVuSans-30" transform="translate(179.199219 0)"/>
      </g>
     </g>
    </g>
    <g id="ytick_7">
     <g id="line2d_22">
      <g>
       <use xlink:href="#m88ce515072" x="32.56" y="231.369091" style="stroke: #000000; stroke-width: 0.8"/>
      </g>
     </g>
     <g id="text_8">
      <!-- −0.5 -->
      <g transform="translate(1.277188 235.16831) scale(0.1 -0.1)">
       <use xlink:href="#DejaVuSans-2212"/>
       <use xlink:href="#DejaVuSans-30" transform="translate(83.789062 0)"/>
       <use xlink:href="#DejaVuSans-2e" transform="translate(147.412109 0)"/>
       <use xlink:href="#DejaVuSans-35" transform="translate(179.199219 0)"/>
      </g>
     </g>
    </g>
    <g id="ytick_8">
     <g id="line2d_23">
      <g>
       <use xlink:href="#m88ce515072" x="32.56" y="208.46" style="stroke: #000000; stroke-width: 0.8"/>
      </g>
     </g>
     <g id="text_9">
      <!-- 0.0 -->
      <g transform="translate(9.656875 212.259219) scale(0.1 -0.1)">
       <use xlink:href="#DejaVuSans-30"/>
       <use xlink:href="#DejaVuSans-2e" transform="translate(63.623047 0)"/>
       <use xlink:href="#DejaVuSans-30" transform="translate(95.410156 0)"/>
      </g>
     </g>
    </g>
    <g id="ytick_9">
     <g id="line2d_24">
      <g>
       <use xlink:href="#m88ce515072" x="32.56" y="185.550909" style="stroke: #000000; stroke-width: 0.8"/>
      </g>
     </g>
     <g id="text_10">
      <!-- 0.5 -->
      <g transform="translate(9.656875 189.350128) scale(0.1 -0.1)">
       <use xlink:href="#DejaVuSans-30"/>
       <use xlink:href="#DejaVuSans-2e" transform="translate(63.623047 0)"/>
       <use xlink:href="#DejaVuSans-35" transform="translate(95.410156 0)"/>
      </g>
     </g>
    </g>
    <g id="ytick_10">
     <g id="line2d_25">
      <g>
       <use xlink:href="#m88ce515072" x="32.56" y="162.641818" style="stroke: #000000; stroke-width: 0.8"/>
      </g>
     </g>
     <g id="text_11">
      <!-- 1.0 -->
      <g transform="translate(9.656875 166.441037) scale(0.1 -0.1)">
       <use xlink:href="#DejaVuSans-31"/>
       <use xlink:href="#DejaVuSans-2e" transform="translate(63.623047 0)"/>
       <use xlink:href="#DejaVuSans-30" transform="translate(95.410156 0)"/>
      </g>
     </g>
    </g>
   </g>
   <g id="line2d_26">
    <path d="M 56.770909 208.46 
L 59.919902 188.561711 
L 61.615513 179.254392 
L 62.826664 173.619581 
L 64.037815 169.022365 
L 65.006736 166.184813 
L 65.733427 164.583517 
L 66.460117 163.453384 
L 67.186808 162.806549 
L 67.671268 162.647471 
L 68.155729 162.707147 
L 68.640189 162.985292 
L 69.12465 163.480578 
L 69.85134 164.625193 
L 70.578031 166.240523 
L 71.546952 169.095832 
L 72.515872 172.702098 
L 73.727024 178.159893 
L 75.180405 185.884129 
L 77.118246 197.624046 
L 82.689541 232.644922 
L 84.142922 240.138094 
L 85.354073 245.357743 
L 86.322994 248.748675 
L 87.291915 251.371013 
L 88.018606 252.802704 
L 88.745296 253.758225 
L 89.229757 254.125421 
L 89.714217 254.274564 
L 90.198678 254.204944 
L 90.683138 253.916892 
L 91.167598 253.411784 
L 91.894289 252.252698 
L 92.62098 250.62335 
L 93.5899 247.750312 
L 94.558821 244.127727 
L 95.769972 238.651985 
L 97.223353 230.910504 
L 99.161195 219.156042 
L 104.73249 184.152942 
L 106.185871 176.678067 
L 107.397022 171.477102 
L 108.365943 168.102974 
L 109.334864 165.498742 
L 110.061554 164.081281 
L 110.788245 163.140374 
L 111.272705 162.78306 
L 111.757166 162.643853 
L 112.241626 162.723417 
L 112.726087 163.021373 
L 113.210547 163.536298 
L 113.937238 164.709843 
L 114.663928 166.353193 
L 115.632849 169.243931 
L 116.60177 172.8828 
L 117.812921 178.376434 
L 119.266302 186.135085 
L 121.204144 197.903975 
L 126.775439 232.888954 
L 128.22882 240.345459 
L 129.439971 245.527688 
L 130.408892 248.88498 
L 131.377813 251.471079 
L 132.104503 252.874297 
L 132.831194 253.800579 
L 133.315654 254.148008 
L 133.800115 254.277277 
L 134.284575 254.18777 
L 134.769035 253.879913 
L 135.253496 253.355177 
L 135.980186 252.167185 
L 136.706877 250.509848 
L 137.675798 247.601439 
L 138.644719 243.946322 
L 139.85587 238.434849 
L 141.309251 230.659106 
L 143.247093 218.875903 
L 148.818387 183.90939 
L 150.271769 176.47133 
L 151.48292 171.307888 
L 152.45184 167.967466 
L 153.420761 165.399525 
L 154.147452 164.010563 
L 154.874143 163.098916 
L 155.358603 162.761375 
L 155.843063 162.642044 
L 156.327524 162.741494 
L 156.811984 163.059248 
L 157.296445 163.593791 
L 158.023135 164.796219 
L 158.749826 166.467525 
L 159.718747 169.393578 
L 160.687667 173.064906 
L 161.898819 178.594164 
L 163.3522 186.386923 
L 165.290041 198.184321 
L 170.861336 233.132022 
L 172.314717 240.551565 
L 173.525868 245.696169 
L 174.494789 249.019689 
L 175.46371 251.569446 
L 176.190401 252.944138 
L 176.917091 253.841142 
L 177.401552 254.168791 
L 177.886012 254.278182 
L 178.370473 254.168791 
L 178.854933 253.841142 
L 179.339393 253.296798 
L 180.066084 252.079946 
L 180.792775 250.394686 
L 181.761695 247.45102 
L 182.730616 243.763516 
L 183.941767 238.216529 
L 185.395148 230.406831 
L 187.33299 218.595353 
L 192.904285 183.666808 
L 194.357666 176.265856 
L 195.568817 171.140141 
L 196.537738 167.833556 
L 197.506659 165.302008 
L 198.233349 163.941601 
L 198.96004 163.059248 
L 199.4445 162.741494 
L 199.928961 162.642044 
L 200.413421 162.761375 
L 200.897882 163.098916 
L 201.382342 163.653056 
L 202.109033 164.88432 
L 202.835723 166.583516 
L 203.804644 169.544767 
L 204.773565 173.24841 
L 205.984716 178.813072 
L 207.438097 186.639631 
L 209.375939 198.465073 
L 214.705003 232.030684 
L 216.158385 239.614228 
L 217.369536 244.926524 
L 218.338457 248.400965 
L 219.307377 251.113446 
L 220.034068 252.616067 
L 220.760759 253.644523 
L 221.245219 254.061068 
L 221.729679 254.259869 
L 222.21414 254.239976 
L 222.6986 254.001484 
L 223.183061 253.545532 
L 223.909751 252.458911 
L 224.636442 250.899813 
L 225.605363 248.115697 
L 226.574284 244.575064 
L 227.785435 239.189594 
L 229.238816 231.535099 
L 231.176657 219.854518 
L 236.990182 183.425204 
L 238.443564 176.061653 
L 239.654715 170.973867 
L 240.623635 167.701251 
L 241.592556 165.206195 
L 242.319247 163.874395 
L 243.045938 163.021373 
L 243.530398 162.723417 
L 244.014858 162.643853 
L 244.499319 162.78306 
L 244.983779 163.140374 
L 245.71047 164.081281 
L 246.43716 165.498742 
L 247.163851 167.377538 
L 248.132772 170.564672 
L 249.343923 175.556759 
L 250.555074 181.528748 
L 252.250685 191.192456 
L 254.672987 206.589273 
L 258.06421 228.098579 
L 259.759822 237.443215 
L 260.970973 243.112767 
L 262.182124 247.750312 
L 263.151045 250.62335 
L 263.877735 252.252698 
L 264.604426 253.411784 
L 265.331116 254.08816 
L 265.815577 254.267103 
L 266.300037 254.227318 
L 266.784498 253.968994 
L 267.268958 253.493366 
L 267.995649 252.377726 
L 268.722339 250.79048 
L 269.69126 247.970712 
L 270.660181 244.397193 
L 271.871332 238.975453 
L 273.324713 231.285936 
L 275.262555 219.575456 
L 281.07608 183.184589 
L 282.529461 175.858729 
L 283.740612 170.809074 
L 284.709533 167.570554 
L 285.678454 165.112089 
L 286.405144 163.808951 
L 287.131835 162.985292 
L 287.616295 162.707147 
L 288.100756 162.647471 
L 288.585216 162.806549 
L 289.069677 163.183622 
L 289.796367 164.15375 
L 290.523058 165.599655 
L 291.249749 167.505811 
L 292.218669 170.727234 
L 293.42982 175.757749 
L 294.640971 181.762182 
L 296.336583 191.459452 
L 298.758885 206.876952 
L 302.150108 228.358289 
L 303.845719 237.665608 
L 305.05687 243.300419 
L 306.268021 247.897635 
L 307.236942 250.735187 
L 307.963633 252.336483 
L 308.690323 253.466616 
L 309.417014 254.113451 
L 309.901474 254.272529 
L 310.385935 254.212853 
L 310.870395 253.934708 
L 311.354856 253.439422 
L 312.081546 252.294807 
L 312.808237 250.679477 
L 313.777158 247.824168 
L 314.746078 244.217902 
L 315.95723 238.760107 
L 317.410611 231.035871 
L 319.348452 219.295954 
L 324.919747 184.275078 
L 326.373128 176.781906 
L 327.584279 171.562257 
L 328.5532 168.171325 
L 329.522121 165.548987 
L 330.248812 164.117296 
L 330.975502 163.161775 
L 331.459963 162.794579 
L 331.944423 162.645436 
L 332.428884 162.715056 
L 332.913344 163.003108 
L 333.397804 163.508216 
L 334.124495 164.667302 
L 334.851186 166.29665 
L 335.820106 169.169688 
L 336.789027 172.792273 
L 338.000178 178.268015 
L 339.45356 186.009496 
L 341.391401 197.763958 
L 346.962696 232.767058 
L 348.416077 240.241933 
L 349.627228 245.442898 
L 350.596149 248.817026 
L 351.56507 251.421258 
L 352.29176 252.838719 
L 353.018451 253.779626 
L 353.502911 254.13694 
L 353.987372 254.276147 
L 354.471832 254.196583 
L 354.956293 253.898627 
L 355.440753 253.383702 
L 356.167444 252.210157 
L 356.894134 250.566807 
L 357.863055 247.676069 
L 358.831976 244.0372 
L 360.043127 238.543566 
L 361.496508 230.784915 
L 363.43435 219.016025 
L 369.005645 184.031046 
L 370.459026 176.574541 
L 371.670177 171.392312 
L 372.639098 168.03502 
L 373.608019 165.448921 
L 374.334709 164.045703 
L 375.0614 163.119421 
L 375.54586 162.771992 
L 376.030321 162.642723 
L 376.514781 162.73223 
L 376.999241 163.040087 
L 377.483702 163.564823 
L 378.210392 164.752815 
L 378.937083 166.410152 
L 379.906004 169.318561 
L 380.874925 172.973678 
L 382.086076 178.485151 
L 383.539457 186.260894 
L 385.477299 198.044097 
L 391.048593 233.01061 
L 392.501975 240.44867 
L 393.713126 245.612112 
L 394.682046 248.952534 
L 395.650967 251.520475 
L 396.377658 252.909437 
L 397.104349 253.821084 
L 397.588809 254.158625 
L 398.073269 254.277956 
L 398.55773 254.178506 
L 399.04219 253.860752 
L 399.526651 253.326209 
L 400.253341 252.123781 
L 400.980032 250.452475 
L 401.948953 247.526422 
L 402.917873 243.855094 
L 404.129025 238.325836 
L 405.582406 230.533077 
L 407.520247 218.735679 
L 413.091542 183.787978 
L 414.544923 176.368435 
L 415.756074 171.223831 
L 416.724995 167.900311 
L 417.693916 165.350554 
L 418.420607 163.975862 
L 419.147297 163.078858 
L 419.631758 162.751209 
L 420.116218 162.641818 
L 420.600679 162.751209 
L 421.085139 163.078858 
L 421.569599 163.623202 
L 422.29629 164.840054 
L 423.022981 166.525314 
L 423.991901 169.46898 
L 424.960822 173.156484 
L 426.171973 178.703471 
L 427.625354 186.513169 
L 429.563196 198.324647 
L 435.134491 233.253192 
L 436.587872 240.654144 
L 437.799023 245.779859 
L 438.767944 249.086444 
L 439.736865 251.617992 
L 440.463555 252.978399 
L 441.190246 253.860752 
L 441.674706 254.178506 
L 442.159167 254.277956 
L 442.643627 254.158625 
L 443.128088 253.821084 
L 443.612548 253.266944 
L 444.339239 252.03568 
L 445.065929 250.336484 
L 446.03485 247.375233 
L 447.003771 243.67159 
L 448.214922 238.106928 
L 449.668303 230.280369 
L 451.606145 218.454927 
L 456.935209 184.889316 
L 458.388591 177.305772 
L 459.599742 171.993476 
L 460.568663 168.519035 
L 461.537583 165.806554 
L 462.264274 164.303933 
L 462.990965 163.275477 
L 463.475425 162.858932 
L 463.959885 162.660131 
L 464.444346 162.680024 
L 464.928806 162.918516 
L 465.413267 163.374468 
L 466.139957 164.461089 
L 466.866648 166.020187 
L 467.835569 168.804303 
L 468.80449 172.344936 
L 470.015641 177.730406 
L 471.469022 185.384901 
L 473.406863 197.065482 
L 479.220388 233.494796 
L 480.67377 240.858347 
L 481.884921 245.946133 
L 482.853841 249.218749 
L 483.822762 251.713805 
L 484.549453 253.045605 
L 485.276144 253.898627 
L 485.760604 254.196583 
L 486.245064 254.276147 
L 486.729525 254.13694 
L 487.213985 253.779626 
L 487.940676 252.838719 
L 488.667366 251.421258 
L 489.394057 249.542462 
L 490.362978 246.355328 
L 491.574129 241.363241 
L 492.78528 235.391252 
L 494.480891 225.727544 
L 496.903193 210.330727 
L 500.294416 188.821421 
L 501.990028 179.476785 
L 503.201179 173.807233 
L 504.41233 169.169688 
L 505.381251 166.29665 
L 506.107941 164.667302 
L 506.834632 163.508216 
L 507.561322 162.83184 
L 508.045783 162.652897 
L 508.530243 162.692682 
L 509.014704 162.951006 
L 509.499164 163.426634 
L 510.225855 164.542274 
L 510.952545 166.12952 
L 511.921466 168.949288 
L 512.890387 172.522807 
L 514.101538 177.944547 
L 515.554919 185.634064 
L 517.492761 197.344544 
L 523.306286 233.735411 
L 524.759667 241.061271 
L 525.970818 246.110926 
L 526.939739 249.349446 
L 527.90866 251.807911 
L 528.63535 253.111049 
L 529.362041 253.934708 
L 529.846501 254.212853 
L 530.330962 254.272529 
L 530.815422 254.113451 
L 531.299883 253.736378 
L 532.026573 252.76625 
L 532.753264 251.320345 
L 533.479955 249.414189 
L 534.448875 246.192766 
L 535.660026 241.162251 
L 536.871177 235.157818 
L 538.566789 225.460548 
L 540.989091 210.043048 
L 540.989091 210.043048 
" clip-path="url(#p711ee0503f)" style="fill: none; stroke: #1f77b4; stroke-width: 1.5; stroke-linecap: square"/>
   </g>
   <g id="LineCollection_2">
    <path d="M 56.770909 208.46 
L 56.770909 208.46 
" clip-path="url(#p711ee0503f)" style="fill: none; stroke: #1f77b4; stroke-width: 1.5"/>
    <path d="M 153.662991 208.46 
L 153.662991 164.88432 
" clip-path="url(#p711ee0503f)" style="fill: none; stroke: #1f77b4; stroke-width: 1.5"/>
    <path d="M 250.555074 208.46 
L 250.555074 181.528748 
" clip-path="url(#p711ee0503f)" style="fill: none; stroke: #1f77b4; stroke-width: 1.5"/>
    <path d="M 347.447156 208.46 
L 347.447156 235.391252 
" clip-path="url(#p711ee0503f)" style="fill: none; stroke: #1f77b4; stroke-width: 1.5"/>
    <path d="M 444.339239 208.46 
L 444.339239 252.03568 
" clip-path="url(#p711ee0503f)" style="fill: none; stroke: #1f77b4; stroke-width: 1.5"/>
   </g>
   <g id="line2d_27">
    <g clip-path="url(#p711ee0503f)">
     <use xlink:href="#me80dca9ee7" x="56.770909" y="208.46" style="fill: #1f77b4; stroke: #1f77b4"/>
     <use xlink:href="#me80dca9ee7" x="153.662991" y="164.88432" style="fill: #1f77b4; stroke: #1f77b4"/>
     <use xlink:href="#me80dca9ee7" x="250.555074" y="181.528748" style="fill: #1f77b4; stroke: #1f77b4"/>
     <use xlink:href="#me80dca9ee7" x="347.447156" y="235.391252" style="fill: #1f77b4; stroke: #1f77b4"/>
     <use xlink:href="#me80dca9ee7" x="444.339239" y="252.03568" style="fill: #1f77b4; stroke: #1f77b4"/>
    </g>
   </g>
   <g id="line2d_28">
    <path d="M 56.770909 208.46 
L 444.339239 208.46 
" clip-path="url(#p711ee0503f)" style="fill: none; stroke: #d62728; stroke-width: 1.5; stroke-linecap: square"/>
   </g>
   <g id="patch_8">
    <path d="M 32.56 258.86 
L 32.56 158.06 
" style="fill: none; stroke: #000000; stroke-width: 0.8; stroke-linejoin: miter; stroke-linecap: square"/>
   </g>
   <g id="patch_9">
    <path d="M 565.2 258.86 
L 565.2 158.06 
" style="fill: none; stroke: #000000; stroke-width: 0.8; stroke-linejoin: miter; stroke-linecap: square"/>
   </g>
   <g id="patch_10">
    <path d="M 32.56 258.86 
L 565.2 258.86 
" style="fill: none; stroke: #000000; stroke-width: 0.8; stroke-linejoin: miter; stroke-linecap: square"/>
   </g>
   <g id="patch_11">
    <path d="M 32.56 158.06 
L 565.2 158.06 
" style="fill: none; stroke: #000000; stroke-width: 0.8; stroke-linejoin: miter; stroke-linecap: square"/>
   </g>
   <g id="text_12">
    <!-- f2=11 Hz, fs=5 Hz -->
    <g transform="translate(243.254375 152.06) scale(0.12 -0.12)">
     <defs>
      <path id="DejaVuSans-32" d="M 1228 531 
L 3431 531 
L 3431 0 
L 469 0 
L 469 531 
Q 828 903 1448 1529 
Q 2069 2156 2228 2338 
Q 2531 2678 2651 2914 
Q 2772 3150 2772 3378 
Q 2772 3750 2511 3984 
Q 2250 4219 1831 4219 
Q 1534 4219 1204 4116 
Q 875 4013 500 3803 
L 500 4441 
Q 881 4594 1212 4672 
Q 1544 4750 1819 4750 
Q 2544 4750 2975 4387 
Q 3406 4025 3406 3419 
Q 3406 3131 3298 2873 
Q 3191 2616 2906 2266 
Q 2828 2175 2409 1742 
Q 1991 1309 1228 531 
z
" transform="scale(0.015625)"/>
     </defs>
     <use xlink:href="#DejaVuSans-66"/>
     <use xlink:href="#DejaVuSans-32" transform="translate(35.205078 0)"/>
     <use xlink:href="#DejaVuSans-3d" transform="translate(98.828125 0)"/>
     <use xlink:href="#DejaVuSans-31" transform="translate(182.617188 0)"/>
     <use xlink:href="#DejaVuSans-31" transform="translate(246.240234 0)"/>
     <use xlink:href="#DejaVuSans-20" transform="translate(309.863281 0)"/>
     <use xlink:href="#DejaVuSans-48" transform="translate(341.650391 0)"/>
     <use xlink:href="#DejaVuSans-7a" transform="translate(416.845703 0)"/>
     <use xlink:href="#DejaVuSans-2c" transform="translate(469.335938 0)"/>
     <use xlink:href="#DejaVuSans-20" transform="translate(501.123047 0)"/>
     <use xlink:href="#DejaVuSans-66" transform="translate(532.910156 0)"/>
     <use xlink:href="#DejaVuSans-73" transform="translate(568.115234 0)"/>
     <use xlink:href="#DejaVuSans-3d" transform="translate(620.214844 0)"/>
     <use xlink:href="#DejaVuSans-35" transform="translate(704.003906 0)"/>
     <use xlink:href="#DejaVuSans-20" transform="translate(767.626953 0)"/>
     <use xlink:href="#DejaVuSans-48" transform="translate(799.414062 0)"/>
     <use xlink:href="#DejaVuSans-7a" transform="translate(874.609375 0)"/>
    </g>
   </g>
  </g>
  <g id="axes_3">
   <g id="patch_12">
    <path d="M 32.56 390.04 
L 565.2 390.04 
L 565.2 289.24 
L 32.56 289.24 
z
" style="fill: #ffffff"/>
   </g>
   <g id="matplotlib.axis_5">
    <g id="xtick_13">
     <g id="line2d_29">
      <g>
       <use xlink:href="#mcf1300ad20" x="56.770909" y="390.04" style="stroke: #000000; stroke-width: 0.8"/>
      </g>
     </g>
     <g id="text_13">
      <!-- 0.0 -->
      <g transform="translate(48.819347 404.638437) scale(0.1 -0.1)">
       <use xlink:href="#DejaVuSans-30"/>
       <use xlink:href="#DejaVuSans-2e" transform="translate(63.623047 0)"/>
       <use xlink:href="#DejaVuSans-30" transform="translate(95.410156 0)"/>
      </g>
     </g>
    </g>
    <g id="xtick_14">
     <g id="line2d_30">
      <g>
       <use xlink:href="#mcf1300ad20" x="153.662991" y="390.04" style="stroke: #000000; stroke-width: 0.8"/>
      </g>
     </g>
     <g id="text_14">
      <!-- 0.2 -->
      <g transform="translate(145.711429 404.638437) scale(0.1 -0.1)">
       <use xlink:href="#DejaVuSans-30"/>
       <use xlink:href="#DejaVuSans-2e" transform="translate(63.623047 0)"/>
       <use xlink:href="#DejaVuSans-32" transform="translate(95.410156 0)"/>
      </g>
     </g>
    </g>
    <g id="xtick_15">
     <g id="line2d_31">
      <g>
       <use xlink:href="#mcf1300ad20" x="250.555074" y="390.04" style="stroke: #000000; stroke-width: 0.8"/>
      </g>
     </g>
     <g id="text_15">
      <!-- 0.4 -->
      <g transform="translate(242.603511 404.638437) scale(0.1 -0.1)">
       <defs>
        <path id="DejaVuSans-34" d="M 2419 4116 
L 825 1625 
L 2419 1625 
L 2419 4116 
z
M 2253 4666 
L 3047 4666 
L 3047 1625 
L 3713 1625 
L 3713 1100 
L 3047 1100 
L 3047 0 
L 2419 0 
L 2419 1100 
L 313 1100 
L 313 1709 
L 2253 4666 
z
" transform="scale(0.015625)"/>
       </defs>
       <use xlink:href="#DejaVuSans-30"/>
       <use xlink:href="#DejaVuSans-2e" transform="translate(63.623047 0)"/>
       <use xlink:href="#DejaVuSans-34" transform="translate(95.410156 0)"/>
      </g>
     </g>
    </g>
    <g id="xtick_16">
     <g id="line2d_32">
      <g>
       <use xlink:href="#mcf1300ad20" x="347.447156" y="390.04" style="stroke: #000000; stroke-width: 0.8"/>
      </g>
     </g>
     <g id="text_16">
      <!-- 0.6 -->
      <g transform="translate(339.495594 404.638437) scale(0.1 -0.1)">
       <use xlink:href="#DejaVuSans-30"/>
       <use xlink:href="#DejaVuSans-2e" transform="translate(63.623047 0)"/>
       <use xlink:href="#DejaVuSans-36" transform="translate(95.410156 0)"/>
      </g>
     </g>
    </g>
    <g id="xtick_17">
     <g id="line2d_33">
      <g>
       <use xlink:href="#mcf1300ad20" x="444.339239" y="390.04" style="stroke: #000000; stroke-width: 0.8"/>
      </g>
     </g>
     <g id="text_17">
      <!-- 0.8 -->
      <g transform="translate(436.387676 404.638437) scale(0.1 -0.1)">
       <defs>
        <path id="DejaVuSans-38" d="M 2034 2216 
Q 1584 2216 1326 1975 
Q 1069 1734 1069 1313 
Q 1069 891 1326 650 
Q 1584 409 2034 409 
Q 2484 409 2743 651 
Q 3003 894 3003 1313 
Q 3003 1734 2745 1975 
Q 2488 2216 2034 2216 
z
M 1403 2484 
Q 997 2584 770 2862 
Q 544 3141 544 3541 
Q 544 4100 942 4425 
Q 1341 4750 2034 4750 
Q 2731 4750 3128 4425 
Q 3525 4100 3525 3541 
Q 3525 3141 3298 2862 
Q 3072 2584 2669 2484 
Q 3125 2378 3379 2068 
Q 3634 1759 3634 1313 
Q 3634 634 3220 271 
Q 2806 -91 2034 -91 
Q 1263 -91 848 271 
Q 434 634 434 1313 
Q 434 1759 690 2068 
Q 947 2378 1403 2484 
z
M 1172 3481 
Q 1172 3119 1398 2916 
Q 1625 2713 2034 2713 
Q 2441 2713 2670 2916 
Q 2900 3119 2900 3481 
Q 2900 3844 2670 4047 
Q 2441 4250 2034 4250 
Q 1625 4250 1398 4047 
Q 1172 3844 1172 3481 
z
" transform="scale(0.015625)"/>
       </defs>
       <use xlink:href="#DejaVuSans-30"/>
       <use xlink:href="#DejaVuSans-2e" transform="translate(63.623047 0)"/>
       <use xlink:href="#DejaVuSans-38" transform="translate(95.410156 0)"/>
      </g>
     </g>
    </g>
    <g id="xtick_18">
     <g id="line2d_34">
      <g>
       <use xlink:href="#mcf1300ad20" x="541.231321" y="390.04" style="stroke: #000000; stroke-width: 0.8"/>
      </g>
     </g>
     <g id="text_18">
      <!-- 1.0 -->
      <g transform="translate(533.279759 404.638437) scale(0.1 -0.1)">
       <use xlink:href="#DejaVuSans-31"/>
       <use xlink:href="#DejaVuSans-2e" transform="translate(63.623047 0)"/>
       <use xlink:href="#DejaVuSans-30" transform="translate(95.410156 0)"/>
      </g>
     </g>
    </g>
    <g id="text_19">
     <!-- t [s] -->
     <g transform="translate(288.824531 418.316562) scale(0.1 -0.1)">
      <defs>
       <path id="DejaVuSans-74" d="M 1172 4494 
L 1172 3500 
L 2356 3500 
L 2356 3053 
L 1172 3053 
L 1172 1153 
Q 1172 725 1289 603 
Q 1406 481 1766 481 
L 2356 481 
L 2356 0 
L 1766 0 
Q 1100 0 847 248 
Q 594 497 594 1153 
L 594 3053 
L 172 3053 
L 172 3500 
L 594 3500 
L 594 4494 
L 1172 4494 
z
" transform="scale(0.015625)"/>
       <path id="DejaVuSans-5b" d="M 550 4863 
L 1875 4863 
L 1875 4416 
L 1125 4416 
L 1125 -397 
L 1875 -397 
L 1875 -844 
L 550 -844 
L 550 4863 
z
" transform="scale(0.015625)"/>
       <path id="DejaVuSans-5d" d="M 1947 4863 
L 1947 -844 
L 622 -844 
L 622 -397 
L 1369 -397 
L 1369 4416 
L 622 4416 
L 622 4863 
L 1947 4863 
z
" transform="scale(0.015625)"/>
      </defs>
      <use xlink:href="#DejaVuSans-74"/>
      <use xlink:href="#DejaVuSans-20" transform="translate(39.208984 0)"/>
      <use xlink:href="#DejaVuSans-5b" transform="translate(70.996094 0)"/>
      <use xlink:href="#DejaVuSans-73" transform="translate(110.009766 0)"/>
      <use xlink:href="#DejaVuSans-5d" transform="translate(162.109375 0)"/>
     </g>
    </g>
   </g>
   <g id="matplotlib.axis_6">
    <g id="ytick_11">
     <g id="line2d_35">
      <g>
       <use xlink:href="#m88ce515072" x="32.56" y="385.458182" style="stroke: #000000; stroke-width: 0.8"/>
      </g>
     </g>
     <g id="text_20">
      <!-- −1.0 -->
      <g transform="translate(1.277188 389.257401) scale(0.1 -0.1)">
       <use xlink:href="#DejaVuSans-2212"/>
       <use xlink:href="#DejaVuSans-31" transform="translate(83.789062 0)"/>
       <use xlink:href="#DejaVuSans-2e" transform="translate(147.412109 0)"/>
       <use xlink:href="#DejaVuSans-30" transform="translate(179.199219 0)"/>
      </g>
     </g>
    </g>
    <g id="ytick_12">
     <g id="line2d_36">
      <g>
       <use xlink:href="#m88ce515072" x="32.56" y="362.549091" style="stroke: #000000; stroke-width: 0.8"/>
      </g>
     </g>
     <g id="text_21">
      <!-- −0.5 -->
      <g transform="translate(1.277188 366.34831) scale(0.1 -0.1)">
       <use xlink:href="#DejaVuSans-2212"/>
       <use xlink:href="#DejaVuSans-30" transform="translate(83.789062 0)"/>
       <use xlink:href="#DejaVuSans-2e" transform="translate(147.412109 0)"/>
       <use xlink:href="#DejaVuSans-35" transform="translate(179.199219 0)"/>
      </g>
     </g>
    </g>
    <g id="ytick_13">
     <g id="line2d_37">
      <g>
       <use xlink:href="#m88ce515072" x="32.56" y="339.64" style="stroke: #000000; stroke-width: 0.8"/>
      </g>
     </g>
     <g id="text_22">
      <!-- 0.0 -->
      <g transform="translate(9.656875 343.439219) scale(0.1 -0.1)">
       <use xlink:href="#DejaVuSans-30"/>
       <use xlink:href="#DejaVuSans-2e" transform="translate(63.623047 0)"/>
       <use xlink:href="#DejaVuSans-30" transform="translate(95.410156 0)"/>
      </g>
     </g>
    </g>
    <g id="ytick_14">
     <g id="line2d_38">
      <g>
       <use xlink:href="#m88ce515072" x="32.56" y="316.730909" style="stroke: #000000; stroke-width: 0.8"/>
      </g>
     </g>
     <g id="text_23">
      <!-- 0.5 -->
      <g transform="translate(9.656875 320.530128) scale(0.1 -0.1)">
       <use xlink:href="#DejaVuSans-30"/>
       <use xlink:href="#DejaVuSans-2e" transform="translate(63.623047 0)"/>
       <use xlink:href="#DejaVuSans-35" transform="translate(95.410156 0)"/>
      </g>
     </g>
    </g>
    <g id="ytick_15">
     <g id="line2d_39">
      <g>
       <use xlink:href="#m88ce515072" x="32.56" y="293.821818" style="stroke: #000000; stroke-width: 0.8"/>
      </g>
     </g>
     <g id="text_24">
      <!-- 1.0 -->
      <g transform="translate(9.656875 297.621037) scale(0.1 -0.1)">
       <use xlink:href="#DejaVuSans-31"/>
       <use xlink:href="#DejaVuSans-2e" transform="translate(63.623047 0)"/>
       <use xlink:href="#DejaVuSans-30" transform="translate(95.410156 0)"/>
      </g>
     </g>
    </g>
   </g>
   <g id="line2d_40">
    <path d="M 56.770909 339.64 
L 61.615513 322.773202 
L 64.037815 315.08939 
L 66.217887 308.910406 
L 67.913499 304.70627 
L 69.60911 301.109448 
L 71.062491 298.557538 
L 72.273642 296.830747 
L 73.484793 295.483933 
L 74.453714 294.688216 
L 75.422635 294.147924 
L 76.391556 293.866127 
L 77.360477 293.844427 
L 78.329397 294.082946 
L 79.298318 294.580329 
L 80.267239 295.33375 
L 81.23616 296.338928 
L 82.447311 297.940599 
L 83.658462 299.912397 
L 85.111843 302.742257 
L 86.565224 306.043573 
L 88.260836 310.434392 
L 90.198678 316.069316 
L 92.62098 323.849088 
L 96.012202 335.614818 
L 102.067958 356.774131 
L 104.49026 364.433192 
L 106.670332 370.582521 
L 108.365943 374.759316 
L 110.061554 378.32557 
L 111.514936 380.849113 
L 112.726087 382.551013 
L 113.937238 383.872031 
L 114.906159 384.646616 
L 115.875079 385.165464 
L 116.844 385.425627 
L 117.812921 385.425627 
L 118.781842 385.165464 
L 119.750763 384.646616 
L 120.719683 383.872031 
L 121.688604 382.846112 
L 122.899755 381.219286 
L 124.110906 379.2234 
L 125.564288 376.366342 
L 127.259899 372.442908 
L 128.95551 367.949204 
L 131.135582 361.460369 
L 133.800115 352.699064 
L 137.918028 338.200816 
L 142.278172 323.041201 
L 144.700474 315.332942 
L 146.880546 309.124547 
L 148.576157 304.893236 
L 150.271769 301.265988 
L 151.72515 298.685811 
L 152.936301 296.934196 
L 154.147452 295.561641 
L 155.116373 294.744823 
L 156.085294 294.183108 
L 157.054214 293.879689 
L 158.023135 293.836288 
L 158.992056 294.053153 
L 159.960977 294.529052 
L 160.929898 295.261281 
L 161.898819 296.245678 
L 163.10997 297.822131 
L 164.321121 299.769763 
L 165.774502 302.572312 
L 167.227883 305.84849 
L 168.923494 310.213151 
L 170.861336 315.822914 
L 173.283638 323.579155 
L 176.674861 335.328128 
L 182.972846 357.306757 
L 185.395148 364.915411 
L 187.33299 370.369594 
L 189.028602 374.57373 
L 190.724213 378.170552 
L 192.177594 380.722462 
L 193.388745 382.449253 
L 194.599896 383.796067 
L 195.568817 384.591784 
L 196.537738 385.132076 
L 197.506659 385.413873 
L 198.47558 385.435573 
L 199.4445 385.197054 
L 200.413421 384.699671 
L 201.382342 383.94625 
L 202.351263 382.941072 
L 203.562414 381.339401 
L 204.773565 379.367603 
L 206.226946 376.537743 
L 207.680327 373.236427 
L 209.375939 368.845608 
L 211.313781 363.210684 
L 213.736083 355.430912 
L 217.127305 343.665182 
L 223.183061 322.505869 
L 225.605363 314.846808 
L 227.785435 308.697479 
L 229.481046 304.520684 
L 231.176657 300.95443 
L 232.630039 298.430887 
L 233.84119 296.728987 
L 235.052341 295.407969 
L 236.021262 294.633384 
L 236.990182 294.114536 
L 237.959103 293.854373 
L 238.928024 293.854373 
L 239.896945 294.114536 
L 240.865866 294.633384 
L 241.834786 295.407969 
L 242.803707 296.433888 
L 244.014858 298.060714 
L 245.226009 300.0566 
L 246.679391 302.913658 
L 248.375002 306.837092 
L 250.070613 311.330796 
L 252.250685 317.819631 
L 254.915218 326.580936 
L 259.033131 341.079184 
L 263.393275 356.238799 
L 265.815577 363.947058 
L 267.995649 370.155453 
L 269.69126 374.386764 
L 271.386872 378.014012 
L 272.840253 380.594189 
L 274.051404 382.345804 
L 275.262555 383.718359 
L 276.231476 384.535177 
L 277.200397 385.096892 
L 278.169317 385.400311 
L 279.138238 385.443712 
L 280.107159 385.226847 
L 281.07608 384.750948 
L 282.045001 384.018719 
L 283.013922 383.034322 
L 284.225073 381.457869 
L 285.436224 379.510237 
L 286.889605 376.707688 
L 288.342986 373.43151 
L 290.038597 369.066849 
L 291.976439 363.457086 
L 294.398741 355.700845 
L 297.789964 343.951872 
L 304.087949 321.973243 
L 306.510251 314.364589 
L 308.448093 308.910406 
L 310.143705 304.70627 
L 311.839316 301.109448 
L 313.292697 298.557538 
L 314.503848 296.830747 
L 315.714999 295.483933 
L 316.68392 294.688216 
L 317.652841 294.147924 
L 318.621762 293.866127 
L 319.590683 293.844427 
L 320.559603 294.082946 
L 321.528524 294.580329 
L 322.497445 295.33375 
L 323.466366 296.338928 
L 324.677517 297.940599 
L 325.888668 299.912397 
L 327.342049 302.742257 
L 328.79543 306.043573 
L 330.491042 310.434392 
L 332.428884 316.069316 
L 334.851186 323.849088 
L 338.242408 335.614818 
L 344.298164 356.774131 
L 346.720466 364.433192 
L 348.900538 370.582521 
L 350.596149 374.759316 
L 352.29176 378.32557 
L 353.745142 380.849113 
L 354.956293 382.551013 
L 356.167444 383.872031 
L 357.136365 384.646616 
L 358.105285 385.165464 
L 359.074206 385.425627 
L 360.043127 385.425627 
L 361.012048 385.165464 
L 361.980969 384.646616 
L 362.949889 383.872031 
L 363.91881 382.846112 
L 365.129961 381.219286 
L 366.341112 379.2234 
L 367.794494 376.366342 
L 369.490105 372.442908 
L 371.185716 367.949204 
L 373.365788 361.460369 
L 376.030321 352.699064 
L 380.148234 338.200816 
L 384.508378 323.041201 
L 386.93068 315.332942 
L 389.110752 309.124547 
L 390.806363 304.893236 
L 392.501975 301.265988 
L 393.955356 298.685811 
L 395.166507 296.934196 
L 396.377658 295.561641 
L 397.346579 294.744823 
L 398.3155 294.183108 
L 399.28442 293.879689 
L 400.253341 293.836288 
L 401.222262 294.053153 
L 402.191183 294.529052 
L 403.160104 295.261281 
L 404.129025 296.245678 
L 405.340176 297.822131 
L 406.551327 299.769763 
L 408.004708 302.572312 
L 409.458089 305.84849 
L 411.1537 310.213151 
L 413.091542 315.822914 
L 415.513844 323.579155 
L 418.905067 335.328128 
L 425.203052 357.306757 
L 427.625354 364.915411 
L 429.563196 370.369594 
L 431.258808 374.57373 
L 432.954419 378.170552 
L 434.4078 380.722462 
L 435.618951 382.449253 
L 436.830102 383.796067 
L 437.799023 384.591784 
L 438.767944 385.132076 
L 439.736865 385.413873 
L 440.705786 385.435573 
L 441.674706 385.197054 
L 442.643627 384.699671 
L 443.612548 383.94625 
L 444.581469 382.941072 
L 445.79262 381.339401 
L 447.003771 379.367603 
L 448.457152 376.537743 
L 449.910533 373.236427 
L 451.606145 368.845608 
L 453.543987 363.210684 
L 455.966289 355.430912 
L 459.357511 343.665182 
L 465.413267 322.505869 
L 467.835569 314.846808 
L 470.015641 308.697479 
L 471.711252 304.520684 
L 473.406863 300.95443 
L 474.860245 298.430887 
L 476.071396 296.728987 
L 477.282547 295.407969 
L 478.251468 294.633384 
L 479.220388 294.114536 
L 480.189309 293.854373 
L 481.15823 293.854373 
L 482.127151 294.114536 
L 483.096072 294.633384 
L 484.064992 295.407969 
L 485.033913 296.433888 
L 486.245064 298.060714 
L 487.456215 300.0566 
L 488.909597 302.913658 
L 490.605208 306.837092 
L 492.30082 311.330796 
L 494.480891 317.819631 
L 497.145424 326.580936 
L 501.263337 341.079184 
L 505.623481 356.238799 
L 508.045783 363.947058 
L 510.225855 370.155453 
L 511.921466 374.386764 
L 513.617078 378.014012 
L 515.070459 380.594189 
L 516.28161 382.345804 
L 517.492761 383.718359 
L 518.461682 384.535177 
L 519.430603 385.096892 
L 520.399523 385.400311 
L 521.368444 385.443712 
L 522.337365 385.226847 
L 523.306286 384.750948 
L 524.275207 384.018719 
L 525.244128 383.034322 
L 526.455279 381.457869 
L 527.66643 379.510237 
L 529.119811 376.707688 
L 530.573192 373.43151 
L 532.268803 369.066849 
L 534.206645 363.457086 
L 536.628947 355.700845 
L 540.02017 343.951872 
L 540.989091 340.503601 
L 540.989091 340.503601 
" clip-path="url(#p51016ca7a1)" style="fill: none; stroke: #1f77b4; stroke-width: 1.5; stroke-linecap: square"/>
   </g>
   <g id="LineCollection_3">
    <path d="M 56.770909 339.64 
L 56.770909 339.64 
" clip-path="url(#p51016ca7a1)" style="fill: none; stroke: #1f77b4; stroke-width: 1.5"/>
    <path d="M 153.662991 339.64 
L 153.662991 296.06432 
" clip-path="url(#p51016ca7a1)" style="fill: none; stroke: #1f77b4; stroke-width: 1.5"/>
    <path d="M 250.555074 339.64 
L 250.555074 312.708748 
" clip-path="url(#p51016ca7a1)" style="fill: none; stroke: #1f77b4; stroke-width: 1.5"/>
    <path d="M 347.447156 339.64 
L 347.447156 366.571252 
" clip-path="url(#p51016ca7a1)" style="fill: none; stroke: #1f77b4; stroke-width: 1.5"/>
    <path d="M 444.339239 339.64 
L 444.339239 383.21568 
" clip-path="url(#p51016ca7a1)" style="fill: none; stroke: #1f77b4; stroke-width: 1.5"/>
   </g>
   <g id="line2d_41">
    <g clip-path="url(#p51016ca7a1)">
     <use xlink:href="#me80dca9ee7" x="56.770909" y="339.64" style="fill: #1f77b4; stroke: #1f77b4"/>
     <use xlink:href="#me80dca9ee7" x="153.662991" y="296.06432" style="fill: #1f77b4; stroke: #1f77b4"/>
     <use xlink:href="#me80dca9ee7" x="250.555074" y="312.708748" style="fill: #1f77b4; stroke: #1f77b4"/>
     <use xlink:href="#me80dca9ee7" x="347.447156" y="366.571252" style="fill: #1f77b4; stroke: #1f77b4"/>
     <use xlink:href="#me80dca9ee7" x="444.339239" y="383.21568" style="fill: #1f77b4; stroke: #1f77b4"/>
    </g>
   </g>
   <g id="line2d_42">
    <path d="M 56.770909 339.64 
L 444.339239 339.64 
" clip-path="url(#p51016ca7a1)" style="fill: none; stroke: #d62728; stroke-width: 1.5; stroke-linecap: square"/>
   </g>
   <g id="patch_13">
    <path d="M 32.56 390.04 
L 32.56 289.24 
" style="fill: none; stroke: #000000; stroke-width: 0.8; stroke-linejoin: miter; stroke-linecap: square"/>
   </g>
   <g id="patch_14">
    <path d="M 565.2 390.04 
L 565.2 289.24 
" style="fill: none; stroke: #000000; stroke-width: 0.8; stroke-linejoin: miter; stroke-linecap: square"/>
   </g>
   <g id="patch_15">
    <path d="M 32.56 390.04 
L 565.2 390.04 
" style="fill: none; stroke: #000000; stroke-width: 0.8; stroke-linejoin: miter; stroke-linecap: square"/>
   </g>
   <g id="patch_16">
    <path d="M 32.56 289.24 
L 565.2 289.24 
" style="fill: none; stroke: #000000; stroke-width: 0.8; stroke-linejoin: miter; stroke-linecap: square"/>
   </g>
   <g id="text_25">
    <!-- f3=6 Hz, fs=5 Hz -->
    <g transform="translate(247.071875 283.24) scale(0.12 -0.12)">
     <defs>
      <path id="DejaVuSans-33" d="M 2597 2516 
Q 3050 2419 3304 2112 
Q 3559 1806 3559 1356 
Q 3559 666 3084 287 
Q 2609 -91 1734 -91 
Q 1441 -91 1130 -33 
Q 819 25 488 141 
L 488 750 
Q 750 597 1062 519 
Q 1375 441 1716 441 
Q 2309 441 2620 675 
Q 2931 909 2931 1356 
Q 2931 1769 2642 2001 
Q 2353 2234 1838 2234 
L 1294 2234 
L 1294 2753 
L 1863 2753 
Q 2328 2753 2575 2939 
Q 2822 3125 2822 3475 
Q 2822 3834 2567 4026 
Q 2313 4219 1838 4219 
Q 1578 4219 1281 4162 
Q 984 4106 628 3988 
L 628 4550 
Q 988 4650 1302 4700 
Q 1616 4750 1894 4750 
Q 2613 4750 3031 4423 
Q 3450 4097 3450 3541 
Q 3450 3153 3228 2886 
Q 3006 2619 2597 2516 
z
" transform="scale(0.015625)"/>
     </defs>
     <use xlink:href="#DejaVuSans-66"/>
     <use xlink:href="#DejaVuSans-33" transform="translate(35.205078 0)"/>
     <use xlink:href="#DejaVuSans-3d" transform="translate(98.828125 0)"/>
     <use xlink:href="#DejaVuSans-36" transform="translate(182.617188 0)"/>
     <use xlink:href="#DejaVuSans-20" transform="translate(246.240234 0)"/>
     <use xlink:href="#DejaVuSans-48" transform="translate(278.027344 0)"/>
     <use xlink:href="#DejaVuSans-7a" transform="translate(353.222656 0)"/>
     <use xlink:href="#DejaVuSans-2c" transform="translate(405.712891 0)"/>
     <use xlink:href="#DejaVuSans-20" transform="translate(437.5 0)"/>
     <use xlink:href="#DejaVuSans-66" transform="translate(469.287109 0)"/>
     <use xlink:href="#DejaVuSans-73" transform="translate(504.492188 0)"/>
     <use xlink:href="#DejaVuSans-3d" transform="translate(556.591797 0)"/>
     <use xlink:href="#DejaVuSans-35" transform="translate(640.380859 0)"/>
     <use xlink:href="#DejaVuSans-20" transform="translate(704.003906 0)"/>
     <use xlink:href="#DejaVuSans-48" transform="translate(735.791016 0)"/>
     <use xlink:href="#DejaVuSans-7a" transform="translate(810.986328 0)"/>
    </g>
   </g>
  </g>
 </g>
 <defs>
  <clipPath id="pa73cf748cc">
   <rect x="32.56" y="26.88" width="532.64" height="100.8"/>
  </clipPath>
  <clipPath id="p711ee0503f">
   <rect x="32.56" y="158.06" width="532.64" height="100.8"/>
  </clipPath>
  <clipPath id="p51016ca7a1">
   <rect x="32.56" y="289.24" width="532.64" height="100.8"/>
  </clipPath>
 </defs>
</svg>
